%TF.GenerationSoftware,KiCad,Pcbnew,10.0.1*%
%TF.CreationDate,2026-07-15T13:03:34+02:00*%
%TF.ProjectId,DMH_Submodule_XFader,444d485f-5375-4626-9d6f-64756c655f58,1*%
%TF.SameCoordinates,Original*%
%TF.FileFunction,Copper,L1,Top*%
%TF.FilePolarity,Positive*%
%FSLAX46Y46*%
G04 Gerber Fmt 4.6, Leading zero omitted, Abs format (unit mm)*
G04 Created by KiCad (PCBNEW 10.0.1) date 2026-07-15 13:03:34*
%MOMM*%
%LPD*%
G01*
G04 APERTURE LIST*
G04 Aperture macros list*
%AMRoundRect*
0 Rectangle with rounded corners*
0 $1 Rounding radius*
0 $2 $3 $4 $5 $6 $7 $8 $9 X,Y pos of 4 corners*
0 Add a 4 corners polygon primitive as box body*
4,1,4,$2,$3,$4,$5,$6,$7,$8,$9,$2,$3,0*
0 Add four circle primitives for the rounded corners*
1,1,$1+$1,$2,$3*
1,1,$1+$1,$4,$5*
1,1,$1+$1,$6,$7*
1,1,$1+$1,$8,$9*
0 Add four rect primitives between the rounded corners*
20,1,$1+$1,$2,$3,$4,$5,0*
20,1,$1+$1,$4,$5,$6,$7,0*
20,1,$1+$1,$6,$7,$8,$9,0*
20,1,$1+$1,$8,$9,$2,$3,0*%
G04 Aperture macros list end*
%TA.AperFunction,ComponentPad*%
%ADD10C,1.600000*%
%TD*%
%TA.AperFunction,ComponentPad*%
%ADD11C,1.440000*%
%TD*%
%TA.AperFunction,ComponentPad*%
%ADD12RoundRect,0.250000X-0.550000X-0.550000X0.550000X-0.550000X0.550000X0.550000X-0.550000X0.550000X0*%
%TD*%
%TA.AperFunction,ComponentPad*%
%ADD13R,1.500000X1.500000*%
%TD*%
%TA.AperFunction,ComponentPad*%
%ADD14C,1.500000*%
%TD*%
%TA.AperFunction,ComponentPad*%
%ADD15R,1.700000X1.700000*%
%TD*%
%TA.AperFunction,ComponentPad*%
%ADD16C,1.700000*%
%TD*%
%TA.AperFunction,Conductor*%
%ADD17C,0.200000*%
%TD*%
%TA.AperFunction,Conductor*%
%ADD18C,1.000000*%
%TD*%
G04 APERTURE END LIST*
D10*
%TO.P,R19,1*%
%TO.N,Net-(U2A--)*%
X70045000Y-89750000D03*
%TO.P,R19,2*%
%TO.N,/Out_X*%
X67505000Y-89750000D03*
%TD*%
D11*
%TO.P,RV3,1,1_1*%
%TO.N,Net-(U2B--)*%
X89800000Y-91000000D03*
%TO.P,RV3,2,2_2*%
%TO.N,Net-(R5-Pad2)*%
X92340000Y-91000000D03*
%TO.P,RV3,3,3_3*%
X94880000Y-91000000D03*
%TD*%
D10*
%TO.P,R21,1*%
%TO.N,Net-(U2A--)*%
X70045000Y-93000000D03*
%TO.P,R21,2*%
%TO.N,/Out_B*%
X67505000Y-93000000D03*
%TD*%
%TO.P,R27,1*%
%TO.N,Net-(U1B-+)*%
X63545000Y-68750000D03*
%TO.P,R27,2*%
%TO.N,GND*%
X61005000Y-68750000D03*
%TD*%
D11*
%TO.P,RV1,1,1_1*%
%TO.N,-12V*%
X89800000Y-55305000D03*
%TO.P,RV1,2,2_2*%
%TO.N,Net-(R11-Pad1)*%
X92340000Y-55305000D03*
%TO.P,RV1,3,3_3*%
%TO.N,+12V*%
X94880000Y-55305000D03*
%TD*%
D10*
%TO.P,R33,1*%
%TO.N,Net-(R33-Pad1)*%
X71250000Y-79945000D03*
%TO.P,R33,2*%
%TO.N,Net-(Q3-E)*%
X71250000Y-82485000D03*
%TD*%
%TO.P,R6,1*%
%TO.N,/Out_A*%
X86955000Y-75250000D03*
%TO.P,R6,2*%
%TO.N,Net-(U1C--)*%
X89495000Y-75250000D03*
%TD*%
%TO.P,C1,1*%
%TO.N,+12V*%
X76000000Y-56000000D03*
%TO.P,C1,2*%
%TO.N,GND*%
X81000000Y-56000000D03*
%TD*%
%TO.P,R23,1*%
%TO.N,+12V*%
X70045000Y-86500000D03*
%TO.P,R23,2*%
%TO.N,Net-(Q4-C)*%
X67505000Y-86500000D03*
%TD*%
%TO.P,C3,1*%
%TO.N,+12V*%
X76000000Y-81500000D03*
%TO.P,C3,2*%
%TO.N,GND*%
X81000000Y-81500000D03*
%TD*%
%TO.P,R13,1*%
%TO.N,GND*%
X93455000Y-68750000D03*
%TO.P,R13,2*%
%TO.N,Net-(Q2-B)*%
X95995000Y-68750000D03*
%TD*%
%TO.P,R10,1*%
%TO.N,Net-(Q1-B)*%
X63545000Y-65500000D03*
%TO.P,R10,2*%
%TO.N,/In_A*%
X61005000Y-65500000D03*
%TD*%
%TO.P,R4,1*%
%TO.N,Net-(U2B--)*%
X63545000Y-93000000D03*
%TO.P,R4,2*%
%TO.N,/CV_Att_In*%
X61005000Y-93000000D03*
%TD*%
%TO.P,R28,1*%
%TO.N,Net-(Q3-B)*%
X63545000Y-89750000D03*
%TO.P,R28,2*%
%TO.N,/In_B*%
X61005000Y-89750000D03*
%TD*%
%TO.P,R7,1*%
%TO.N,Net-(U1C--)*%
X93455000Y-72000000D03*
%TO.P,R7,2*%
%TO.N,Net-(Q2-C)*%
X95995000Y-72000000D03*
%TD*%
D11*
%TO.P,RV2,1,1_1*%
%TO.N,-12V*%
X89800000Y-60705000D03*
%TO.P,RV2,2,2_2*%
%TO.N,Net-(R29-Pad2)*%
X92340000Y-60705000D03*
%TO.P,RV2,3,3_3*%
%TO.N,+12V*%
X94880000Y-60705000D03*
%TD*%
D10*
%TO.P,R32,1*%
%TO.N,Net-(U1A--)*%
X71250000Y-61045000D03*
%TO.P,R32,2*%
%TO.N,+12V*%
X71250000Y-58505000D03*
%TD*%
%TO.P,R34,1*%
%TO.N,Net-(U1A--)*%
X71205000Y-55750000D03*
%TO.P,R34,2*%
%TO.N,Net-(R33-Pad1)*%
X73745000Y-55750000D03*
%TD*%
%TO.P,R29,1*%
%TO.N,Net-(Q4-B)*%
X86955000Y-65500000D03*
%TO.P,R29,2*%
%TO.N,Net-(R29-Pad2)*%
X89495000Y-65500000D03*
%TD*%
%TO.P,R2,1*%
%TO.N,+12V*%
X85705000Y-86500000D03*
%TO.P,R2,2*%
%TO.N,Net-(Q1-C)*%
X88245000Y-86500000D03*
%TD*%
%TO.P,C2,1*%
%TO.N,GND*%
X76000000Y-77500000D03*
%TO.P,C2,2*%
%TO.N,-12V*%
X81000000Y-77500000D03*
%TD*%
D12*
%TO.P,U2,1*%
%TO.N,/Out_X*%
X74690000Y-84690000D03*
D10*
%TO.P,U2,2,-_2*%
%TO.N,Net-(U2A--)*%
X74690000Y-87230000D03*
%TO.P,U2,3,+_3*%
%TO.N,GND*%
X74690000Y-89770000D03*
%TO.P,U2,4,V-_4*%
%TO.N,-12V*%
X74690000Y-92310000D03*
%TO.P,U2,5,+_5*%
%TO.N,/CV_Att_Pot*%
X82310000Y-92310000D03*
%TO.P,U2,6,-_6*%
%TO.N,Net-(U2B--)*%
X82310000Y-89770000D03*
%TO.P,U2,7*%
%TO.N,Net-(R5-Pad2)*%
X82310000Y-87230000D03*
%TO.P,U2,8,V+_8*%
%TO.N,+12V*%
X82310000Y-84690000D03*
%TD*%
D13*
%TO.P,Q1,1,C_1*%
%TO.N,Net-(Q1-C)*%
X90200000Y-83540000D03*
D14*
%TO.P,Q1,2,B_2*%
%TO.N,Net-(Q1-B)*%
X90200000Y-81000000D03*
%TO.P,Q1,3,E_3*%
%TO.N,Net-(Q1-E)*%
X90200000Y-78460000D03*
%TD*%
D10*
%TO.P,R25,1*%
%TO.N,Net-(U1B--)*%
X70045000Y-72000000D03*
%TO.P,R25,2*%
%TO.N,Net-(Q4-C)*%
X67505000Y-72000000D03*
%TD*%
D13*
%TO.P,Q2,1,C_1*%
%TO.N,Net-(Q2-C)*%
X95200000Y-83540000D03*
D14*
%TO.P,Q2,2,B_2*%
%TO.N,Net-(Q2-B)*%
X95200000Y-81000000D03*
%TO.P,Q2,3,E_3*%
%TO.N,Net-(Q1-E)*%
X95200000Y-78460000D03*
%TD*%
D15*
%TO.P,J2,1,Pin_1_1*%
%TO.N,/In_A*%
X57635000Y-94020000D03*
D16*
%TO.P,J2,2,Pin_2_2*%
%TO.N,/Out_A*%
X57635000Y-91480000D03*
%TO.P,J2,3,Pin_3_3*%
%TO.N,/In_B*%
X57635000Y-88940000D03*
%TO.P,J2,4,Pin_4_4*%
%TO.N,/Out_B*%
X57635000Y-86400000D03*
%TO.P,J2,5,Pin_5_5*%
%TO.N,/CV_Att_In*%
X57635000Y-83860000D03*
%TO.P,J2,6,Pin_6_6*%
%TO.N,/CV_Att_Pot*%
X57635000Y-81320000D03*
%TO.P,J2,7,Pin_7_7*%
%TO.N,/CV_Mix_In*%
X57635000Y-78780000D03*
%TO.P,J2,8,Pin_8_8*%
%TO.N,/Out_X*%
X57635000Y-76240000D03*
%TD*%
D10*
%TO.P,R26,1*%
%TO.N,Net-(U1B-+)*%
X70045000Y-68750000D03*
%TO.P,R26,2*%
%TO.N,Net-(Q3-C)*%
X67505000Y-68750000D03*
%TD*%
%TO.P,R15,1*%
%TO.N,Net-(R15-Pad1)*%
X85750000Y-79945000D03*
%TO.P,R15,2*%
%TO.N,Net-(Q1-E)*%
X85750000Y-82485000D03*
%TD*%
%TO.P,R3,1*%
%TO.N,+12V*%
X92205000Y-86500000D03*
%TO.P,R3,2*%
%TO.N,Net-(Q2-C)*%
X94745000Y-86500000D03*
%TD*%
%TO.P,R22,1*%
%TO.N,+12V*%
X63545000Y-86500000D03*
%TO.P,R22,2*%
%TO.N,Net-(Q3-C)*%
X61005000Y-86500000D03*
%TD*%
D12*
%TO.P,U1,1*%
%TO.N,Net-(R33-Pad1)*%
X74690000Y-59085000D03*
D10*
%TO.P,U1,2,-_2*%
%TO.N,Net-(U1A--)*%
X74690000Y-61625000D03*
%TO.P,U1,3,+_3*%
%TO.N,GND*%
X74690000Y-64165000D03*
%TO.P,U1,4,V+_4*%
%TO.N,+12V*%
X74690000Y-66705000D03*
%TO.P,U1,5,+_5*%
%TO.N,Net-(U1B-+)*%
X74690000Y-69245000D03*
%TO.P,U1,6,-_6*%
%TO.N,Net-(U1B--)*%
X74690000Y-71785000D03*
%TO.P,U1,7*%
%TO.N,/Out_B*%
X74690000Y-74325000D03*
%TO.P,U1,8*%
%TO.N,/Out_A*%
X82310000Y-74325000D03*
%TO.P,U1,9,-_9*%
%TO.N,Net-(U1C--)*%
X82310000Y-71785000D03*
%TO.P,U1,10,+_10*%
%TO.N,Net-(U1C-+)*%
X82310000Y-69245000D03*
%TO.P,U1,11,V-_11*%
%TO.N,-12V*%
X82310000Y-66705000D03*
%TO.P,U1,12,+_12*%
%TO.N,GND*%
X82310000Y-64165000D03*
%TO.P,U1,13,-_13*%
%TO.N,/CV_Mix_In*%
X82310000Y-61625000D03*
%TO.P,U1,14*%
%TO.N,Net-(R15-Pad1)*%
X82310000Y-59085000D03*
%TD*%
D13*
%TO.P,Q4,1,C_1*%
%TO.N,Net-(Q4-C)*%
X67700000Y-83550000D03*
D14*
%TO.P,Q4,2,B_2*%
%TO.N,Net-(Q4-B)*%
X67700000Y-81010000D03*
%TO.P,Q4,3,E_3*%
%TO.N,Net-(Q3-E)*%
X67700000Y-78470000D03*
%TD*%
D10*
%TO.P,R16,1*%
%TO.N,/CV_Mix_In*%
X85795000Y-55750000D03*
%TO.P,R16,2*%
%TO.N,Net-(R15-Pad1)*%
X83255000Y-55750000D03*
%TD*%
%TO.P,R14,1*%
%TO.N,/CV_Mix_In*%
X85750000Y-61045000D03*
%TO.P,R14,2*%
%TO.N,+12V*%
X85750000Y-58505000D03*
%TD*%
%TO.P,R30,1*%
%TO.N,GND*%
X63545000Y-75250000D03*
%TO.P,R30,2*%
%TO.N,Net-(Q3-B)*%
X61005000Y-75250000D03*
%TD*%
%TO.P,R31,1*%
%TO.N,GND*%
X70045000Y-65500000D03*
%TO.P,R31,2*%
%TO.N,Net-(Q4-B)*%
X67505000Y-65500000D03*
%TD*%
%TO.P,R9,1*%
%TO.N,Net-(U1C-+)*%
X93455000Y-75250000D03*
%TO.P,R9,2*%
%TO.N,GND*%
X95995000Y-75250000D03*
%TD*%
%TO.P,C4,1*%
%TO.N,GND*%
X81000000Y-95100000D03*
%TO.P,C4,2*%
%TO.N,-12V*%
X76000000Y-95100000D03*
%TD*%
%TO.P,R11,1*%
%TO.N,Net-(R11-Pad1)*%
X93455000Y-65500000D03*
%TO.P,R11,2*%
%TO.N,Net-(Q2-B)*%
X95995000Y-65500000D03*
%TD*%
%TO.P,R18,1*%
%TO.N,Net-(U2A--)*%
X63545000Y-72000000D03*
%TO.P,R18,2*%
%TO.N,/Out_A*%
X61005000Y-72000000D03*
%TD*%
%TO.P,R24,1*%
%TO.N,/Out_B*%
X70045000Y-75250000D03*
%TO.P,R24,2*%
%TO.N,Net-(U1B--)*%
X67505000Y-75250000D03*
%TD*%
%TO.P,R8,1*%
%TO.N,Net-(U1C-+)*%
X86955000Y-72000000D03*
%TO.P,R8,2*%
%TO.N,Net-(Q1-C)*%
X89495000Y-72000000D03*
%TD*%
D15*
%TO.P,J1,1,Pin_1_1*%
%TO.N,GND*%
X57635000Y-63540000D03*
D16*
%TO.P,J1,2,Pin_2_2*%
%TO.N,+12V*%
X57635000Y-61000000D03*
%TO.P,J1,3,Pin_3_3*%
%TO.N,-12V*%
X57635000Y-58460000D03*
%TO.P,J1,4,Pin_4_4*%
%TO.N,GND*%
X57635000Y-55920000D03*
%TD*%
D10*
%TO.P,R12,1*%
%TO.N,GND*%
X86955000Y-68750000D03*
%TO.P,R12,2*%
%TO.N,Net-(Q1-B)*%
X89495000Y-68750000D03*
%TD*%
%TO.P,R20,1*%
%TO.N,Net-(U1A--)*%
X68000000Y-61045000D03*
%TO.P,R20,2*%
%TO.N,Net-(R15-Pad1)*%
X68000000Y-58505000D03*
%TD*%
%TO.P,R5,1*%
%TO.N,/CV_Mix_In*%
X85750000Y-89955000D03*
%TO.P,R5,2*%
%TO.N,Net-(R5-Pad2)*%
X85750000Y-92495000D03*
%TD*%
D13*
%TO.P,Q3,1,C_1*%
%TO.N,Net-(Q3-C)*%
X62700000Y-83540000D03*
D14*
%TO.P,Q3,2,B_2*%
%TO.N,Net-(Q3-B)*%
X62700000Y-81000000D03*
%TO.P,Q3,3,E_3*%
%TO.N,Net-(Q3-E)*%
X62700000Y-78460000D03*
%TD*%
%TO.N,Net-(U2A--)*%
D17*
X65700000Y-74155000D02*
X65700000Y-76100000D01*
X66600000Y-77000000D02*
X69860635Y-77000000D01*
X76200000Y-85720000D02*
X74690000Y-87230000D01*
X76200000Y-83339365D02*
X76200000Y-85720000D01*
X69860635Y-77000000D02*
X76200000Y-83339365D01*
X65700000Y-76100000D02*
X66600000Y-77000000D01*
X63545000Y-72000000D02*
X65700000Y-74155000D01*
%TO.N,/Out_X*%
X61095000Y-79700000D02*
X57635000Y-76240000D01*
X68034314Y-79700000D02*
X61095000Y-79700000D01*
X71899365Y-84690000D02*
X70150000Y-82940635D01*
X74690000Y-84690000D02*
X71899365Y-84690000D01*
X70150000Y-82940635D02*
X70150000Y-81815686D01*
X70150000Y-81815686D02*
X68034314Y-79700000D01*
%TO.N,Net-(U2B--)*%
X89745000Y-91055000D02*
X89800000Y-91000000D01*
X82310000Y-89770000D02*
X83595000Y-91055000D01*
X83595000Y-95405000D02*
X83595000Y-91055000D01*
X83595000Y-91055000D02*
X89745000Y-91055000D01*
X82100000Y-96900000D02*
X83595000Y-95405000D01*
X63545000Y-93000000D02*
X67445000Y-96900000D01*
X67445000Y-96900000D02*
X82100000Y-96900000D01*
%TO.N,Net-(R5-Pad2)*%
X90845000Y-92495000D02*
X92340000Y-91000000D01*
X85750000Y-92495000D02*
X90845000Y-92495000D01*
X92340000Y-91000000D02*
X94880000Y-91000000D01*
%TO.N,/Out_B*%
X73765000Y-75250000D02*
X74690000Y-74325000D01*
X70045000Y-75250000D02*
X73765000Y-75250000D01*
%TO.N,Net-(U1B-+)*%
X68795000Y-70000000D02*
X70045000Y-68750000D01*
X70295000Y-69000000D02*
X74445000Y-69000000D01*
X64795000Y-70000000D02*
X68795000Y-70000000D01*
X63545000Y-68750000D02*
X64795000Y-70000000D01*
X70045000Y-68750000D02*
X70295000Y-69000000D01*
X74445000Y-69000000D02*
X74690000Y-69245000D01*
%TO.N,-12V*%
D18*
X87995000Y-53500000D02*
X89800000Y-55305000D01*
X62595000Y-53500000D02*
X87995000Y-53500000D01*
X82310000Y-66705000D02*
X83595000Y-66705000D01*
X89595000Y-60705000D02*
X89800000Y-60705000D01*
X57635000Y-58460000D02*
X62595000Y-53500000D01*
X83595000Y-66705000D02*
X89595000Y-60705000D01*
%TO.N,+12V*%
X71250000Y-58505000D02*
X72255000Y-57500000D01*
X74500000Y-57500000D02*
X76000000Y-56000000D01*
X63335000Y-55300000D02*
X68045000Y-55300000D01*
X72255000Y-57500000D02*
X74500000Y-57500000D01*
X77500000Y-57500000D02*
X84745000Y-57500000D01*
X82310000Y-84690000D02*
X83895000Y-84690000D01*
X91680000Y-58505000D02*
X94880000Y-55305000D01*
X76000000Y-56000000D02*
X77500000Y-57500000D01*
X85705000Y-86500000D02*
X87205000Y-88000000D01*
X76000000Y-81500000D02*
X79190000Y-84690000D01*
X68045000Y-55300000D02*
X71250000Y-58505000D01*
X57635000Y-61000000D02*
X63335000Y-55300000D01*
X84745000Y-57500000D02*
X85750000Y-58505000D01*
X87205000Y-88000000D02*
X90705000Y-88000000D01*
X68545000Y-88000000D02*
X70045000Y-86500000D01*
X90705000Y-88000000D02*
X92205000Y-86500000D01*
X85750000Y-58505000D02*
X91680000Y-58505000D01*
X79190000Y-84690000D02*
X82310000Y-84690000D01*
X65045000Y-88000000D02*
X68545000Y-88000000D01*
X83895000Y-84690000D02*
X85705000Y-86500000D01*
X63545000Y-86500000D02*
X65045000Y-88000000D01*
%TO.N,Net-(Q3-E)*%
D17*
X67700000Y-78800000D02*
X71250000Y-82350000D01*
X67700000Y-78470000D02*
X67700000Y-78800000D01*
X67690000Y-78460000D02*
X67700000Y-78470000D01*
X71250000Y-82350000D02*
X71250000Y-82485000D01*
X62700000Y-78460000D02*
X67690000Y-78460000D01*
%TO.N,/Out_A*%
X62405000Y-70600000D02*
X78585000Y-70600000D01*
X78585000Y-70600000D02*
X82310000Y-74325000D01*
X61005000Y-72000000D02*
X62405000Y-70600000D01*
X86955000Y-75250000D02*
X83235000Y-75250000D01*
X83235000Y-75250000D02*
X82310000Y-74325000D01*
%TO.N,Net-(U1C--)*%
X82310000Y-71785000D02*
X84275000Y-73750000D01*
X93910635Y-76350000D02*
X94555000Y-75705635D01*
X94555000Y-75705635D02*
X94555000Y-73100000D01*
X84275000Y-73750000D02*
X87995000Y-73750000D01*
X90595000Y-76350000D02*
X93910635Y-76350000D01*
X87995000Y-73750000D02*
X89495000Y-75250000D01*
X94555000Y-73100000D02*
X93455000Y-72000000D01*
X89495000Y-75250000D02*
X90595000Y-76350000D01*
%TO.N,Net-(Q1-B)*%
X71200000Y-68000000D02*
X82700000Y-68000000D01*
X89495000Y-69205000D02*
X89495000Y-68750000D01*
X63545000Y-65500000D02*
X65545000Y-67500000D01*
X70700000Y-67500000D02*
X71200000Y-68000000D01*
X82700000Y-68000000D02*
X85400000Y-70700000D01*
X88000000Y-70700000D02*
X89495000Y-69205000D01*
X85400000Y-70700000D02*
X88000000Y-70700000D01*
X65545000Y-67500000D02*
X70700000Y-67500000D01*
%TO.N,/In_B*%
X57635000Y-88940000D02*
X60195000Y-88940000D01*
X60195000Y-88940000D02*
X61005000Y-89750000D01*
%TO.N,Net-(U1A--)*%
X71505000Y-61300000D02*
X74365000Y-61300000D01*
X71250000Y-61045000D02*
X71505000Y-61300000D01*
X68000000Y-61045000D02*
X71250000Y-61045000D01*
X74365000Y-61300000D02*
X74690000Y-61625000D01*
%TO.N,Net-(Q4-B)*%
X91000000Y-61455000D02*
X86955000Y-65500000D01*
X83600000Y-60400000D02*
X84315000Y-59685000D01*
X80500000Y-60400000D02*
X83600000Y-60400000D01*
X91000000Y-60462502D02*
X91000000Y-61455000D01*
X67505000Y-63895000D02*
X68500000Y-62900000D01*
X78000000Y-62900000D02*
X80500000Y-60400000D01*
X67505000Y-65500000D02*
X67505000Y-63895000D01*
X84315000Y-59685000D02*
X90222498Y-59685000D01*
X68500000Y-62900000D02*
X78000000Y-62900000D01*
X90222498Y-59685000D02*
X91000000Y-60462502D01*
%TO.N,/CV_Att_Pot*%
X60500000Y-82200000D02*
X68843680Y-82200000D01*
X73400000Y-87900000D02*
X74000000Y-88500000D01*
X74000000Y-88500000D02*
X78500000Y-88500000D01*
X57635000Y-81320000D02*
X59620000Y-81320000D01*
X78500000Y-88500000D02*
X82310000Y-92310000D01*
X73400000Y-86756321D02*
X73400000Y-87900000D01*
X68843680Y-82200000D02*
X73400000Y-86756321D01*
X59620000Y-81320000D02*
X60500000Y-82200000D01*
%TO.N,Net-(Q1-E)*%
X89775000Y-78460000D02*
X90200000Y-78460000D01*
X90200000Y-78460000D02*
X95200000Y-78460000D01*
X85750000Y-82485000D02*
X89775000Y-78460000D01*
%TO.N,Net-(U1B--)*%
X70045000Y-72000000D02*
X74475000Y-72000000D01*
X70045000Y-72355000D02*
X70045000Y-72000000D01*
X74475000Y-72000000D02*
X74690000Y-71785000D01*
X67505000Y-75250000D02*
X67505000Y-74895000D01*
X67505000Y-74895000D02*
X70045000Y-72355000D01*
%TO.N,/CV_Mix_In*%
X72600000Y-67100000D02*
X74100000Y-65600000D01*
X82310000Y-61625000D02*
X82685000Y-61250000D01*
X85750000Y-63418630D02*
X85750000Y-61045000D01*
X74100000Y-65600000D02*
X83568630Y-65600000D01*
X57635000Y-78780000D02*
X56200000Y-77345000D01*
X60949365Y-64000000D02*
X63600635Y-64000000D01*
X56200000Y-68749365D02*
X60949365Y-64000000D01*
X66700635Y-67100000D02*
X72600000Y-67100000D01*
X82685000Y-61250000D02*
X85545000Y-61250000D01*
X85545000Y-61250000D02*
X85750000Y-61045000D01*
X63600635Y-64000000D02*
X66700635Y-67100000D01*
X56200000Y-77345000D02*
X56200000Y-68749365D01*
X83568630Y-65600000D02*
X85750000Y-63418630D01*
%TO.N,Net-(R15-Pad1)*%
X69100000Y-59605000D02*
X73325256Y-59605000D01*
X77315000Y-60185000D02*
X78415000Y-59085000D01*
X78415000Y-59085000D02*
X82310000Y-59085000D01*
X73325256Y-59605000D02*
X73905256Y-60185000D01*
X68000000Y-58505000D02*
X69100000Y-59605000D01*
X73905256Y-60185000D02*
X77315000Y-60185000D01*
%TO.N,Net-(U1C-+)*%
X82310000Y-69245000D02*
X85065000Y-72000000D01*
X88705000Y-73750000D02*
X89689365Y-73750000D01*
X86955000Y-72000000D02*
X88705000Y-73750000D01*
X89689365Y-73750000D02*
X91189365Y-75250000D01*
X85065000Y-72000000D02*
X86955000Y-72000000D01*
X91189365Y-75250000D02*
X93455000Y-75250000D01*
%TD*%
%TA.AperFunction,Conductor*%
%TO.N,GND*%
G36*
X61447256Y-53020185D02*
G01*
X61493011Y-53072989D01*
X61502955Y-53142147D01*
X61473930Y-53205703D01*
X61467898Y-53212181D01*
X59125359Y-55554718D01*
X59064036Y-55588203D01*
X58994344Y-55583219D01*
X58938411Y-55541347D01*
X58919747Y-55505354D01*
X58886096Y-55401784D01*
X58789624Y-55212449D01*
X58750270Y-55158282D01*
X58750269Y-55158282D01*
X58117962Y-55790590D01*
X58100925Y-55727007D01*
X58035099Y-55612993D01*
X57942007Y-55519901D01*
X57827993Y-55454075D01*
X57764409Y-55437037D01*
X58396716Y-54804728D01*
X58342550Y-54765375D01*
X58153217Y-54668904D01*
X57951129Y-54603242D01*
X57741246Y-54570000D01*
X57528754Y-54570000D01*
X57318872Y-54603242D01*
X57318869Y-54603242D01*
X57116782Y-54668904D01*
X56927439Y-54765380D01*
X56873282Y-54804727D01*
X56873282Y-54804728D01*
X57505591Y-55437037D01*
X57442007Y-55454075D01*
X57327993Y-55519901D01*
X57234901Y-55612993D01*
X57169075Y-55727007D01*
X57152037Y-55790591D01*
X56519728Y-55158282D01*
X56519727Y-55158282D01*
X56480380Y-55212439D01*
X56383904Y-55401782D01*
X56318242Y-55603869D01*
X56318242Y-55603872D01*
X56285000Y-55813753D01*
X56285000Y-56026246D01*
X56318242Y-56236127D01*
X56318242Y-56236130D01*
X56383904Y-56438217D01*
X56480375Y-56627550D01*
X56519728Y-56681716D01*
X57152037Y-56049408D01*
X57169075Y-56112993D01*
X57234901Y-56227007D01*
X57327993Y-56320099D01*
X57442007Y-56385925D01*
X57505590Y-56402962D01*
X56873282Y-57035269D01*
X56873282Y-57035270D01*
X56927452Y-57074626D01*
X56927451Y-57074626D01*
X56936495Y-57079234D01*
X56987292Y-57127208D01*
X57004087Y-57195029D01*
X56981550Y-57261164D01*
X56936499Y-57300202D01*
X56927182Y-57304949D01*
X56755213Y-57429890D01*
X56604890Y-57580213D01*
X56479951Y-57752179D01*
X56383444Y-57941585D01*
X56317753Y-58143760D01*
X56284500Y-58353713D01*
X56284500Y-58566286D01*
X56308257Y-58716286D01*
X56317754Y-58776243D01*
X56382655Y-58975988D01*
X56383444Y-58978414D01*
X56479951Y-59167820D01*
X56604890Y-59339786D01*
X56755213Y-59490109D01*
X56927182Y-59615050D01*
X56935946Y-59619516D01*
X56986742Y-59667491D01*
X57003536Y-59735312D01*
X56980998Y-59801447D01*
X56935946Y-59840484D01*
X56927182Y-59844949D01*
X56755213Y-59969890D01*
X56604890Y-60120213D01*
X56479951Y-60292179D01*
X56383444Y-60481585D01*
X56317753Y-60683760D01*
X56294213Y-60832385D01*
X56284500Y-60893713D01*
X56284500Y-61106287D01*
X56317754Y-61316243D01*
X56377494Y-61500104D01*
X56383444Y-61518414D01*
X56479951Y-61707820D01*
X56604890Y-61879786D01*
X56718818Y-61993714D01*
X56752303Y-62055037D01*
X56747319Y-62124729D01*
X56705447Y-62180662D01*
X56674471Y-62197577D01*
X56542912Y-62246646D01*
X56542906Y-62246649D01*
X56427812Y-62332809D01*
X56427809Y-62332812D01*
X56341649Y-62447906D01*
X56341645Y-62447913D01*
X56291403Y-62582620D01*
X56291401Y-62582627D01*
X56285000Y-62642155D01*
X56285000Y-63290000D01*
X57201988Y-63290000D01*
X57169075Y-63347007D01*
X57135000Y-63474174D01*
X57135000Y-63605826D01*
X57169075Y-63732993D01*
X57201988Y-63790000D01*
X56285000Y-63790000D01*
X56285000Y-64437844D01*
X56291401Y-64497372D01*
X56291403Y-64497379D01*
X56341645Y-64632086D01*
X56341649Y-64632093D01*
X56427809Y-64747187D01*
X56427812Y-64747190D01*
X56542906Y-64833350D01*
X56542913Y-64833354D01*
X56677620Y-64883596D01*
X56677627Y-64883598D01*
X56737155Y-64889999D01*
X56737172Y-64890000D01*
X57385000Y-64890000D01*
X57385000Y-63973012D01*
X57442007Y-64005925D01*
X57569174Y-64040000D01*
X57700826Y-64040000D01*
X57827993Y-64005925D01*
X57885000Y-63973012D01*
X57885000Y-64890000D01*
X58532828Y-64890000D01*
X58532844Y-64889999D01*
X58592372Y-64883598D01*
X58592379Y-64883596D01*
X58727086Y-64833354D01*
X58727093Y-64833350D01*
X58842187Y-64747190D01*
X58842190Y-64747187D01*
X58928350Y-64632093D01*
X58928354Y-64632086D01*
X58978596Y-64497379D01*
X58978598Y-64497372D01*
X58984999Y-64437844D01*
X58985000Y-64437827D01*
X58985000Y-63790000D01*
X58068012Y-63790000D01*
X58100925Y-63732993D01*
X58135000Y-63605826D01*
X58135000Y-63474174D01*
X58100925Y-63347007D01*
X58068012Y-63290000D01*
X58985000Y-63290000D01*
X58985000Y-62642172D01*
X58984999Y-62642155D01*
X58978598Y-62582627D01*
X58978596Y-62582620D01*
X58928354Y-62447913D01*
X58928350Y-62447906D01*
X58842190Y-62332812D01*
X58842187Y-62332809D01*
X58727093Y-62246649D01*
X58727088Y-62246646D01*
X58595528Y-62197577D01*
X58539595Y-62155705D01*
X58515178Y-62090241D01*
X58530030Y-62021968D01*
X58551175Y-61993720D01*
X58665104Y-61879792D01*
X58666039Y-61878506D01*
X58775858Y-61727351D01*
X58790051Y-61707816D01*
X58886557Y-61518412D01*
X58952246Y-61316243D01*
X58985500Y-61106287D01*
X58985500Y-61106285D01*
X58986262Y-61101475D01*
X58987321Y-61101642D01*
X59010361Y-61041172D01*
X59021416Y-61028503D01*
X63713102Y-56336819D01*
X63774425Y-56303334D01*
X63800783Y-56300500D01*
X67579218Y-56300500D01*
X67646257Y-56320185D01*
X67666899Y-56336819D01*
X68346067Y-57015987D01*
X68379552Y-57077310D01*
X68374568Y-57147002D01*
X68332696Y-57202935D01*
X68267232Y-57227352D01*
X68238988Y-57226141D01*
X68143633Y-57211038D01*
X68102352Y-57204500D01*
X67897648Y-57204500D01*
X67883310Y-57206771D01*
X67695465Y-57236522D01*
X67500776Y-57299781D01*
X67318386Y-57392715D01*
X67152786Y-57513028D01*
X67008028Y-57657786D01*
X66887715Y-57823386D01*
X66794781Y-58005776D01*
X66731522Y-58200465D01*
X66699500Y-58402648D01*
X66699500Y-58607351D01*
X66731522Y-58809534D01*
X66794781Y-59004223D01*
X66835685Y-59084500D01*
X66865381Y-59142782D01*
X66887715Y-59186613D01*
X67008028Y-59352213D01*
X67152786Y-59496971D01*
X67269361Y-59581666D01*
X67318390Y-59617287D01*
X67409840Y-59663883D01*
X67411080Y-59664515D01*
X67461876Y-59712490D01*
X67478671Y-59780311D01*
X67456134Y-59846446D01*
X67411080Y-59885485D01*
X67318386Y-59932715D01*
X67152786Y-60053028D01*
X67008028Y-60197786D01*
X66887715Y-60363386D01*
X66794781Y-60545776D01*
X66731522Y-60740465D01*
X66699500Y-60942648D01*
X66699500Y-61147351D01*
X66731522Y-61349534D01*
X66794781Y-61544223D01*
X66839967Y-61632903D01*
X66873158Y-61698045D01*
X66887715Y-61726613D01*
X67008028Y-61892213D01*
X67152786Y-62036971D01*
X67307749Y-62149556D01*
X67318390Y-62157287D01*
X67425943Y-62212088D01*
X67500776Y-62250218D01*
X67500778Y-62250218D01*
X67500781Y-62250220D01*
X67575818Y-62274601D01*
X67695465Y-62313477D01*
X67796557Y-62329488D01*
X67897648Y-62345500D01*
X67897649Y-62345500D01*
X67905902Y-62345500D01*
X67972941Y-62365185D01*
X68018696Y-62417989D01*
X68028640Y-62487147D01*
X67999615Y-62550703D01*
X67993583Y-62557181D01*
X67024481Y-63526282D01*
X67024479Y-63526285D01*
X66974361Y-63613094D01*
X66974359Y-63613096D01*
X66945425Y-63663209D01*
X66945424Y-63663210D01*
X66945423Y-63663215D01*
X66904499Y-63815943D01*
X66904499Y-63815945D01*
X66904499Y-63984046D01*
X66904500Y-63984059D01*
X66904500Y-64270397D01*
X66884815Y-64337436D01*
X66836800Y-64380879D01*
X66823389Y-64387712D01*
X66657786Y-64508028D01*
X66513028Y-64652786D01*
X66392715Y-64818386D01*
X66299781Y-65000776D01*
X66236522Y-65195465D01*
X66204500Y-65397648D01*
X66204500Y-65455268D01*
X66184815Y-65522307D01*
X66132011Y-65568062D01*
X66062853Y-65578006D01*
X65999297Y-65548981D01*
X65992819Y-65542949D01*
X64088225Y-63638355D01*
X64088223Y-63638352D01*
X63969352Y-63519481D01*
X63969351Y-63519480D01*
X63865595Y-63459577D01*
X63865594Y-63459576D01*
X63832418Y-63440422D01*
X63776516Y-63425443D01*
X63679692Y-63399499D01*
X63521578Y-63399499D01*
X63513982Y-63399499D01*
X63513966Y-63399500D01*
X60870305Y-63399500D01*
X60829384Y-63410464D01*
X60829384Y-63410465D01*
X60792116Y-63420451D01*
X60717579Y-63440423D01*
X60717574Y-63440426D01*
X60580655Y-63519475D01*
X60580647Y-63519481D01*
X55719479Y-68380649D01*
X55695223Y-68422663D01*
X55684970Y-68440423D01*
X55640423Y-68517580D01*
X55599499Y-68670308D01*
X55599499Y-68670310D01*
X55599499Y-68838411D01*
X55599500Y-68838424D01*
X55599500Y-77258330D01*
X55599499Y-77258348D01*
X55599499Y-77424054D01*
X55599498Y-77424054D01*
X55640423Y-77576785D01*
X55656197Y-77604106D01*
X55656196Y-77604106D01*
X55656197Y-77604107D01*
X55719475Y-77713709D01*
X55719481Y-77713717D01*
X55838349Y-77832585D01*
X55838355Y-77832590D01*
X56301241Y-78295476D01*
X56334726Y-78356799D01*
X56331492Y-78421473D01*
X56317753Y-78463757D01*
X56284500Y-78673713D01*
X56284500Y-78886286D01*
X56315210Y-79080185D01*
X56317754Y-79096243D01*
X56375721Y-79274647D01*
X56383444Y-79298414D01*
X56479951Y-79487820D01*
X56604890Y-79659786D01*
X56755213Y-79810109D01*
X56927182Y-79935050D01*
X56935946Y-79939516D01*
X56986742Y-79987491D01*
X57003536Y-80055312D01*
X56980998Y-80121447D01*
X56935946Y-80160484D01*
X56927182Y-80164949D01*
X56755213Y-80289890D01*
X56604890Y-80440213D01*
X56479951Y-80612179D01*
X56383444Y-80801585D01*
X56317753Y-81003760D01*
X56298193Y-81127259D01*
X56284500Y-81213713D01*
X56284500Y-81426287D01*
X56286226Y-81437182D01*
X56312380Y-81602317D01*
X56317754Y-81636243D01*
X56375721Y-81814647D01*
X56383444Y-81838414D01*
X56479951Y-82027820D01*
X56604890Y-82199786D01*
X56755213Y-82350109D01*
X56927182Y-82475050D01*
X56935946Y-82479516D01*
X56986742Y-82527491D01*
X57003536Y-82595312D01*
X56980998Y-82661447D01*
X56935946Y-82700484D01*
X56927182Y-82704949D01*
X56755213Y-82829890D01*
X56604890Y-82980213D01*
X56479951Y-83152179D01*
X56383444Y-83341585D01*
X56317753Y-83543760D01*
X56284500Y-83753713D01*
X56284500Y-83966286D01*
X56299229Y-84059285D01*
X56317754Y-84176243D01*
X56373523Y-84347883D01*
X56383444Y-84378414D01*
X56479951Y-84567820D01*
X56604890Y-84739786D01*
X56755213Y-84890109D01*
X56927182Y-85015050D01*
X56935946Y-85019516D01*
X56986742Y-85067491D01*
X57003536Y-85135312D01*
X56980998Y-85201447D01*
X56935946Y-85240484D01*
X56927182Y-85244949D01*
X56755213Y-85369890D01*
X56604890Y-85520213D01*
X56479951Y-85692179D01*
X56383444Y-85881585D01*
X56317753Y-86083760D01*
X56284500Y-86293713D01*
X56284500Y-86506286D01*
X56307186Y-86649524D01*
X56317754Y-86716243D01*
X56346444Y-86804542D01*
X56383444Y-86918414D01*
X56479951Y-87107820D01*
X56604890Y-87279786D01*
X56755213Y-87430109D01*
X56927182Y-87555050D01*
X56935946Y-87559516D01*
X56986742Y-87607491D01*
X57003536Y-87675312D01*
X56980998Y-87741447D01*
X56935946Y-87780484D01*
X56927182Y-87784949D01*
X56755213Y-87909890D01*
X56604890Y-88060213D01*
X56479951Y-88232179D01*
X56383444Y-88421585D01*
X56317753Y-88623760D01*
X56293320Y-88778028D01*
X56284500Y-88833713D01*
X56284500Y-89046287D01*
X56291168Y-89088386D01*
X56302681Y-89161080D01*
X56317754Y-89256243D01*
X56379236Y-89445465D01*
X56383444Y-89458414D01*
X56479951Y-89647820D01*
X56604890Y-89819786D01*
X56755213Y-89970109D01*
X56927182Y-90095050D01*
X56935946Y-90099516D01*
X56986742Y-90147491D01*
X57003536Y-90215312D01*
X56980998Y-90281447D01*
X56935946Y-90320484D01*
X56927182Y-90324949D01*
X56755213Y-90449890D01*
X56604890Y-90600213D01*
X56479951Y-90772179D01*
X56383444Y-90961585D01*
X56383443Y-90961587D01*
X56383443Y-90961588D01*
X56364959Y-91018477D01*
X56317753Y-91163760D01*
X56284500Y-91373713D01*
X56284500Y-91586286D01*
X56317573Y-91795104D01*
X56317754Y-91796243D01*
X56357604Y-91918889D01*
X56383444Y-91998414D01*
X56479951Y-92187820D01*
X56604890Y-92359786D01*
X56718430Y-92473326D01*
X56751915Y-92534649D01*
X56746931Y-92604341D01*
X56705059Y-92660274D01*
X56674083Y-92677189D01*
X56542669Y-92726203D01*
X56542664Y-92726206D01*
X56427455Y-92812452D01*
X56427452Y-92812455D01*
X56341206Y-92927664D01*
X56341202Y-92927671D01*
X56290908Y-93062517D01*
X56286626Y-93102351D01*
X56284501Y-93122123D01*
X56284500Y-93122135D01*
X56284500Y-94917870D01*
X56284501Y-94917876D01*
X56290908Y-94977483D01*
X56341202Y-95112328D01*
X56341206Y-95112335D01*
X56427452Y-95227544D01*
X56427455Y-95227547D01*
X56542664Y-95313793D01*
X56542671Y-95313797D01*
X56677517Y-95364091D01*
X56677516Y-95364091D01*
X56684444Y-95364835D01*
X56737127Y-95370500D01*
X58532872Y-95370499D01*
X58592483Y-95364091D01*
X58727331Y-95313796D01*
X58842546Y-95227546D01*
X58928796Y-95112331D01*
X58979091Y-94977483D01*
X58985500Y-94917873D01*
X58985499Y-93122128D01*
X58979091Y-93062517D01*
X58976129Y-93054576D01*
X58928797Y-92927671D01*
X58928793Y-92927664D01*
X58842547Y-92812455D01*
X58842544Y-92812452D01*
X58727335Y-92726206D01*
X58727328Y-92726202D01*
X58595917Y-92677189D01*
X58539983Y-92635318D01*
X58515566Y-92569853D01*
X58530418Y-92501580D01*
X58551563Y-92473332D01*
X58665104Y-92359792D01*
X58790051Y-92187816D01*
X58886557Y-91998412D01*
X58952246Y-91796243D01*
X58985500Y-91586287D01*
X58985500Y-91373713D01*
X58952246Y-91163757D01*
X58886557Y-90961588D01*
X58790051Y-90772184D01*
X58790049Y-90772181D01*
X58790048Y-90772179D01*
X58665109Y-90600213D01*
X58514786Y-90449890D01*
X58342820Y-90324951D01*
X58342115Y-90324591D01*
X58334054Y-90320485D01*
X58283259Y-90272512D01*
X58266463Y-90204692D01*
X58288999Y-90138556D01*
X58334054Y-90099515D01*
X58342816Y-90095051D01*
X58371061Y-90074530D01*
X58514786Y-89970109D01*
X58514788Y-89970106D01*
X58514792Y-89970104D01*
X58665104Y-89819792D01*
X58665106Y-89819788D01*
X58665109Y-89819786D01*
X58766011Y-89680904D01*
X58790051Y-89647816D01*
X58790349Y-89647230D01*
X58810235Y-89608205D01*
X58858209Y-89557409D01*
X58920719Y-89540500D01*
X59580500Y-89540500D01*
X59647539Y-89560185D01*
X59693294Y-89612989D01*
X59704500Y-89664500D01*
X59704500Y-89852351D01*
X59736522Y-90054534D01*
X59799781Y-90249223D01*
X59892715Y-90431613D01*
X60013028Y-90597213D01*
X60157786Y-90741971D01*
X60305754Y-90849474D01*
X60323390Y-90862287D01*
X60439607Y-90921503D01*
X60505776Y-90955218D01*
X60505778Y-90955218D01*
X60505781Y-90955220D01*
X60587589Y-90981801D01*
X60700465Y-91018477D01*
X60801042Y-91034407D01*
X60902648Y-91050500D01*
X60902649Y-91050500D01*
X61107351Y-91050500D01*
X61107352Y-91050500D01*
X61309534Y-91018477D01*
X61504219Y-90955220D01*
X61686610Y-90862287D01*
X61779590Y-90794732D01*
X61852213Y-90741971D01*
X61852215Y-90741968D01*
X61852219Y-90741966D01*
X61996966Y-90597219D01*
X61996968Y-90597215D01*
X61996971Y-90597213D01*
X62117284Y-90431614D01*
X62117285Y-90431613D01*
X62117287Y-90431610D01*
X62164516Y-90338917D01*
X62212489Y-90288123D01*
X62280310Y-90271328D01*
X62346445Y-90293865D01*
X62385483Y-90338917D01*
X62397257Y-90362024D01*
X62432715Y-90431614D01*
X62553028Y-90597213D01*
X62697786Y-90741971D01*
X62845754Y-90849474D01*
X62863390Y-90862287D01*
X62979607Y-90921503D01*
X63045776Y-90955218D01*
X63045778Y-90955218D01*
X63045781Y-90955220D01*
X63127589Y-90981801D01*
X63240465Y-91018477D01*
X63341042Y-91034407D01*
X63442648Y-91050500D01*
X63442649Y-91050500D01*
X63647351Y-91050500D01*
X63647352Y-91050500D01*
X63849534Y-91018477D01*
X64044219Y-90955220D01*
X64226610Y-90862287D01*
X64319590Y-90794732D01*
X64392213Y-90741971D01*
X64392215Y-90741968D01*
X64392219Y-90741966D01*
X64536966Y-90597219D01*
X64536968Y-90597215D01*
X64536971Y-90597213D01*
X64610562Y-90495922D01*
X64657287Y-90431610D01*
X64750220Y-90249219D01*
X64813477Y-90054534D01*
X64845500Y-89852352D01*
X64845500Y-89647648D01*
X64815528Y-89458414D01*
X64813477Y-89445465D01*
X64756718Y-89270781D01*
X64750220Y-89250781D01*
X64750218Y-89250778D01*
X64750218Y-89250776D01*
X64702244Y-89156623D01*
X64689348Y-89087954D01*
X64715624Y-89023213D01*
X64772731Y-88982956D01*
X64836919Y-88978711D01*
X64892146Y-88989696D01*
X64946457Y-89000500D01*
X64946459Y-89000500D01*
X65143540Y-89000500D01*
X66224955Y-89000500D01*
X66291994Y-89020185D01*
X66337749Y-89072989D01*
X66347693Y-89142147D01*
X66335440Y-89180795D01*
X66299781Y-89250776D01*
X66236522Y-89445465D01*
X66204500Y-89647648D01*
X66204500Y-89852351D01*
X66236522Y-90054534D01*
X66299781Y-90249223D01*
X66392715Y-90431613D01*
X66513028Y-90597213D01*
X66657786Y-90741971D01*
X66805754Y-90849474D01*
X66823390Y-90862287D01*
X66939607Y-90921503D01*
X67005776Y-90955218D01*
X67005778Y-90955218D01*
X67005781Y-90955220D01*
X67087589Y-90981801D01*
X67200465Y-91018477D01*
X67301042Y-91034407D01*
X67402648Y-91050500D01*
X67402649Y-91050500D01*
X67607351Y-91050500D01*
X67607352Y-91050500D01*
X67809534Y-91018477D01*
X68004219Y-90955220D01*
X68186610Y-90862287D01*
X68279590Y-90794732D01*
X68352213Y-90741971D01*
X68352215Y-90741968D01*
X68352219Y-90741966D01*
X68496966Y-90597219D01*
X68496968Y-90597215D01*
X68496971Y-90597213D01*
X68617284Y-90431614D01*
X68617285Y-90431613D01*
X68617287Y-90431610D01*
X68664516Y-90338917D01*
X68712489Y-90288123D01*
X68780310Y-90271328D01*
X68846445Y-90293865D01*
X68885483Y-90338917D01*
X68897257Y-90362024D01*
X68932715Y-90431614D01*
X69053028Y-90597213D01*
X69197786Y-90741971D01*
X69345754Y-90849474D01*
X69363390Y-90862287D01*
X69479607Y-90921503D01*
X69545776Y-90955218D01*
X69545778Y-90955218D01*
X69545781Y-90955220D01*
X69627589Y-90981801D01*
X69740465Y-91018477D01*
X69841042Y-91034407D01*
X69942648Y-91050500D01*
X69942649Y-91050500D01*
X70147351Y-91050500D01*
X70147352Y-91050500D01*
X70349534Y-91018477D01*
X70544219Y-90955220D01*
X70726610Y-90862287D01*
X70819590Y-90794732D01*
X70892213Y-90741971D01*
X70892215Y-90741968D01*
X70892219Y-90741966D01*
X71036966Y-90597219D01*
X71036968Y-90597215D01*
X71036971Y-90597213D01*
X71110562Y-90495922D01*
X71157287Y-90431610D01*
X71250220Y-90249219D01*
X71313477Y-90054534D01*
X71345500Y-89852352D01*
X71345500Y-89647648D01*
X71315528Y-89458414D01*
X71313477Y-89445465D01*
X71256718Y-89270781D01*
X71250220Y-89250781D01*
X71250218Y-89250778D01*
X71250218Y-89250776D01*
X71192153Y-89136819D01*
X71157287Y-89068390D01*
X71141228Y-89046286D01*
X71036971Y-88902786D01*
X70892213Y-88758028D01*
X70726613Y-88637715D01*
X70726612Y-88637714D01*
X70726610Y-88637713D01*
X70669653Y-88608691D01*
X70544223Y-88544781D01*
X70349534Y-88481522D01*
X70174995Y-88453878D01*
X70147352Y-88449500D01*
X69942648Y-88449500D01*
X69806009Y-88471141D01*
X69736716Y-88462186D01*
X69683264Y-88417190D01*
X69662625Y-88350438D01*
X69681350Y-88283125D01*
X69698927Y-88260991D01*
X70133203Y-87826715D01*
X70194524Y-87793232D01*
X70201473Y-87791927D01*
X70349534Y-87768477D01*
X70544219Y-87705220D01*
X70726610Y-87612287D01*
X70833629Y-87534534D01*
X70892213Y-87491971D01*
X70892215Y-87491968D01*
X70892219Y-87491966D01*
X71036966Y-87347219D01*
X71036968Y-87347215D01*
X71036971Y-87347213D01*
X71089732Y-87274590D01*
X71157287Y-87181610D01*
X71250220Y-86999219D01*
X71313477Y-86804534D01*
X71345500Y-86602352D01*
X71345500Y-86397648D01*
X71314278Y-86200521D01*
X71313477Y-86195465D01*
X71278792Y-86088716D01*
X71250220Y-86000781D01*
X71250218Y-86000778D01*
X71250218Y-86000776D01*
X71204515Y-85911080D01*
X71157287Y-85818390D01*
X71143239Y-85799055D01*
X71036971Y-85652786D01*
X70892213Y-85508028D01*
X70726613Y-85387715D01*
X70726612Y-85387714D01*
X70726610Y-85387713D01*
X70669653Y-85358691D01*
X70544223Y-85294781D01*
X70349534Y-85231522D01*
X70161690Y-85201771D01*
X70147352Y-85199500D01*
X69942648Y-85199500D01*
X69928310Y-85201771D01*
X69740465Y-85231522D01*
X69545776Y-85294781D01*
X69363386Y-85387715D01*
X69197786Y-85508028D01*
X69053028Y-85652786D01*
X68932715Y-85818386D01*
X68885485Y-85911080D01*
X68837510Y-85961876D01*
X68769689Y-85978671D01*
X68703554Y-85956134D01*
X68664515Y-85911080D01*
X68663883Y-85909840D01*
X68617287Y-85818390D01*
X68603239Y-85799055D01*
X68496971Y-85652786D01*
X68352213Y-85508028D01*
X68186613Y-85387715D01*
X68186612Y-85387714D01*
X68186610Y-85387713D01*
X68129653Y-85358691D01*
X68004223Y-85294781D01*
X67809534Y-85231522D01*
X67621690Y-85201771D01*
X67607352Y-85199500D01*
X67402648Y-85199500D01*
X67388310Y-85201771D01*
X67200465Y-85231522D01*
X67005776Y-85294781D01*
X66823386Y-85387715D01*
X66657786Y-85508028D01*
X66513028Y-85652786D01*
X66392715Y-85818386D01*
X66299781Y-86000776D01*
X66236522Y-86195465D01*
X66206855Y-86382781D01*
X66204500Y-86397648D01*
X66204500Y-86602352D01*
X66213074Y-86656483D01*
X66236523Y-86804535D01*
X66236524Y-86804542D01*
X66247130Y-86837183D01*
X66249125Y-86907024D01*
X66213044Y-86966857D01*
X66150343Y-86997684D01*
X66129199Y-86999500D01*
X65510783Y-86999500D01*
X65443744Y-86979815D01*
X65423102Y-86963181D01*
X64871717Y-86411797D01*
X64838232Y-86350474D01*
X64836925Y-86343513D01*
X64813477Y-86195466D01*
X64813477Y-86195465D01*
X64778792Y-86088716D01*
X64750220Y-86000781D01*
X64750218Y-86000778D01*
X64750218Y-86000776D01*
X64704515Y-85911080D01*
X64657287Y-85818390D01*
X64643239Y-85799055D01*
X64536971Y-85652786D01*
X64392213Y-85508028D01*
X64226613Y-85387715D01*
X64226612Y-85387714D01*
X64226610Y-85387713D01*
X64169653Y-85358691D01*
X64044223Y-85294781D01*
X63849534Y-85231522D01*
X63661690Y-85201771D01*
X63647352Y-85199500D01*
X63442648Y-85199500D01*
X63428310Y-85201771D01*
X63240465Y-85231522D01*
X63045776Y-85294781D01*
X62863386Y-85387715D01*
X62697786Y-85508028D01*
X62553028Y-85652786D01*
X62432715Y-85818386D01*
X62385485Y-85911080D01*
X62337510Y-85961876D01*
X62269689Y-85978671D01*
X62203554Y-85956134D01*
X62164515Y-85911080D01*
X62163883Y-85909840D01*
X62117287Y-85818390D01*
X62103239Y-85799055D01*
X61996971Y-85652786D01*
X61852213Y-85508028D01*
X61686613Y-85387715D01*
X61686612Y-85387714D01*
X61686610Y-85387713D01*
X61629653Y-85358691D01*
X61504223Y-85294781D01*
X61309534Y-85231522D01*
X61121690Y-85201771D01*
X61107352Y-85199500D01*
X60902648Y-85199500D01*
X60888310Y-85201771D01*
X60700465Y-85231522D01*
X60505776Y-85294781D01*
X60323386Y-85387715D01*
X60157786Y-85508028D01*
X60013028Y-85652786D01*
X59892715Y-85818386D01*
X59799781Y-86000776D01*
X59736522Y-86195465D01*
X59704500Y-86397648D01*
X59704500Y-86602351D01*
X59736522Y-86804534D01*
X59799781Y-86999223D01*
X59892715Y-87181613D01*
X60013028Y-87347213D01*
X60157786Y-87491971D01*
X60250756Y-87559516D01*
X60323390Y-87612287D01*
X60436658Y-87670000D01*
X60505776Y-87705218D01*
X60505778Y-87705218D01*
X60505781Y-87705220D01*
X60610137Y-87739127D01*
X60700465Y-87768477D01*
X60801557Y-87784488D01*
X60902648Y-87800500D01*
X60902649Y-87800500D01*
X61107351Y-87800500D01*
X61107352Y-87800500D01*
X61309534Y-87768477D01*
X61504219Y-87705220D01*
X61686610Y-87612287D01*
X61793629Y-87534534D01*
X61852213Y-87491971D01*
X61852215Y-87491968D01*
X61852219Y-87491966D01*
X61996966Y-87347219D01*
X61996968Y-87347215D01*
X61996971Y-87347213D01*
X62117284Y-87181614D01*
X62117285Y-87181613D01*
X62117287Y-87181610D01*
X62164516Y-87088917D01*
X62212489Y-87038123D01*
X62280310Y-87021328D01*
X62346445Y-87043865D01*
X62385485Y-87088919D01*
X62432715Y-87181614D01*
X62553028Y-87347213D01*
X62697786Y-87491971D01*
X62790756Y-87559516D01*
X62863390Y-87612287D01*
X62976658Y-87670000D01*
X63045776Y-87705218D01*
X63045778Y-87705218D01*
X63045781Y-87705220D01*
X63150137Y-87739127D01*
X63240465Y-87768477D01*
X63316276Y-87780484D01*
X63388513Y-87791925D01*
X63451648Y-87821854D01*
X63456797Y-87826717D01*
X63891066Y-88260987D01*
X63924551Y-88322310D01*
X63919567Y-88392002D01*
X63877695Y-88447935D01*
X63812231Y-88472352D01*
X63783987Y-88471141D01*
X63706506Y-88458869D01*
X63647352Y-88449500D01*
X63442648Y-88449500D01*
X63418329Y-88453351D01*
X63240465Y-88481522D01*
X63045776Y-88544781D01*
X62863386Y-88637715D01*
X62697786Y-88758028D01*
X62553028Y-88902786D01*
X62432715Y-89068386D01*
X62385485Y-89161080D01*
X62337510Y-89211876D01*
X62269689Y-89228671D01*
X62203554Y-89206134D01*
X62164515Y-89161080D01*
X62152153Y-89136819D01*
X62117287Y-89068390D01*
X62101228Y-89046286D01*
X61996971Y-88902786D01*
X61852213Y-88758028D01*
X61686613Y-88637715D01*
X61686612Y-88637714D01*
X61686610Y-88637713D01*
X61629653Y-88608691D01*
X61504223Y-88544781D01*
X61309534Y-88481522D01*
X61134995Y-88453878D01*
X61107352Y-88449500D01*
X60902648Y-88449500D01*
X60862211Y-88455904D01*
X60700462Y-88481523D01*
X60700460Y-88481523D01*
X60686149Y-88486173D01*
X60616308Y-88488164D01*
X60583394Y-88474178D01*
X60570679Y-88466443D01*
X60563716Y-88459480D01*
X60476904Y-88409360D01*
X60426785Y-88380423D01*
X60274057Y-88339499D01*
X60115943Y-88339499D01*
X60108347Y-88339499D01*
X60108331Y-88339500D01*
X58920719Y-88339500D01*
X58853680Y-88319815D01*
X58810235Y-88271795D01*
X58790052Y-88232185D01*
X58790051Y-88232184D01*
X58665109Y-88060213D01*
X58514786Y-87909890D01*
X58342820Y-87784951D01*
X58342115Y-87784591D01*
X58334054Y-87780485D01*
X58283259Y-87732512D01*
X58266463Y-87664692D01*
X58288999Y-87598556D01*
X58334054Y-87559515D01*
X58342816Y-87555051D01*
X58429646Y-87491966D01*
X58514786Y-87430109D01*
X58514788Y-87430106D01*
X58514792Y-87430104D01*
X58665104Y-87279792D01*
X58665106Y-87279788D01*
X58665109Y-87279786D01*
X58790048Y-87107820D01*
X58790047Y-87107820D01*
X58790051Y-87107816D01*
X58886557Y-86918412D01*
X58952246Y-86716243D01*
X58985500Y-86506287D01*
X58985500Y-86293713D01*
X58952246Y-86083757D01*
X58886557Y-85881588D01*
X58790051Y-85692184D01*
X58790049Y-85692181D01*
X58790048Y-85692179D01*
X58665109Y-85520213D01*
X58514786Y-85369890D01*
X58342820Y-85244951D01*
X58342115Y-85244591D01*
X58334054Y-85240485D01*
X58283259Y-85192512D01*
X58266463Y-85124692D01*
X58288999Y-85058556D01*
X58334054Y-85019515D01*
X58342816Y-85015051D01*
X58364789Y-84999086D01*
X58514786Y-84890109D01*
X58514788Y-84890106D01*
X58514792Y-84890104D01*
X58665104Y-84739792D01*
X58665106Y-84739788D01*
X58665109Y-84739786D01*
X58790048Y-84567820D01*
X58790047Y-84567820D01*
X58790051Y-84567816D01*
X58886557Y-84378412D01*
X58952246Y-84176243D01*
X58985500Y-83966287D01*
X58985500Y-83753713D01*
X58952246Y-83543757D01*
X58886557Y-83341588D01*
X58790051Y-83152184D01*
X58790049Y-83152181D01*
X58790048Y-83152179D01*
X58665109Y-82980213D01*
X58514786Y-82829890D01*
X58342820Y-82704951D01*
X58342115Y-82704591D01*
X58334054Y-82700485D01*
X58283259Y-82652512D01*
X58266463Y-82584692D01*
X58288999Y-82518556D01*
X58334054Y-82479515D01*
X58342816Y-82475051D01*
X58469999Y-82382648D01*
X58514786Y-82350109D01*
X58514788Y-82350106D01*
X58514792Y-82350104D01*
X58665104Y-82199792D01*
X58665106Y-82199788D01*
X58665109Y-82199786D01*
X58749015Y-82084297D01*
X58790051Y-82027816D01*
X58790349Y-82027230D01*
X58810235Y-81988205D01*
X58858209Y-81937409D01*
X58920719Y-81920500D01*
X59319903Y-81920500D01*
X59386942Y-81940185D01*
X59407584Y-81956819D01*
X60015139Y-82564374D01*
X60015149Y-82564385D01*
X60019479Y-82568715D01*
X60019480Y-82568716D01*
X60131284Y-82680520D01*
X60197442Y-82718716D01*
X60268215Y-82759577D01*
X60420943Y-82800501D01*
X60420946Y-82800501D01*
X60586653Y-82800501D01*
X60586669Y-82800500D01*
X61325500Y-82800500D01*
X61392539Y-82820185D01*
X61438294Y-82872989D01*
X61449500Y-82924500D01*
X61449500Y-84337870D01*
X61449501Y-84337876D01*
X61455908Y-84397483D01*
X61506202Y-84532328D01*
X61506206Y-84532335D01*
X61592452Y-84647544D01*
X61592455Y-84647547D01*
X61707664Y-84733793D01*
X61707671Y-84733797D01*
X61842517Y-84784091D01*
X61842516Y-84784091D01*
X61849444Y-84784835D01*
X61902127Y-84790500D01*
X63497872Y-84790499D01*
X63557483Y-84784091D01*
X63692331Y-84733796D01*
X63807546Y-84647546D01*
X63893796Y-84532331D01*
X63944091Y-84397483D01*
X63950500Y-84337873D01*
X63950499Y-82924499D01*
X63970184Y-82857461D01*
X64022987Y-82811706D01*
X64074499Y-82800500D01*
X66325500Y-82800500D01*
X66392539Y-82820185D01*
X66438294Y-82872989D01*
X66449500Y-82924500D01*
X66449500Y-84347870D01*
X66449501Y-84347876D01*
X66455908Y-84407483D01*
X66506202Y-84542328D01*
X66506206Y-84542335D01*
X66592452Y-84657544D01*
X66592455Y-84657547D01*
X66707664Y-84743793D01*
X66707671Y-84743797D01*
X66842517Y-84794091D01*
X66842516Y-84794091D01*
X66849444Y-84794835D01*
X66902127Y-84800500D01*
X68497872Y-84800499D01*
X68557483Y-84794091D01*
X68692331Y-84743796D01*
X68807546Y-84657546D01*
X68893796Y-84542331D01*
X68944091Y-84407483D01*
X68950500Y-84347873D01*
X68950499Y-83455415D01*
X68970183Y-83388377D01*
X69022987Y-83342622D01*
X69092146Y-83332678D01*
X69155702Y-83361703D01*
X69162180Y-83367735D01*
X72763181Y-86968736D01*
X72796666Y-87030059D01*
X72799500Y-87056417D01*
X72799500Y-87813330D01*
X72799499Y-87813348D01*
X72799499Y-87979054D01*
X72799498Y-87979054D01*
X72840423Y-88131785D01*
X72858365Y-88162861D01*
X72858364Y-88162861D01*
X72858365Y-88162862D01*
X72919475Y-88268709D01*
X72919481Y-88268717D01*
X73038349Y-88387585D01*
X73038355Y-88387590D01*
X73519478Y-88868713D01*
X73519480Y-88868716D01*
X73571120Y-88920356D01*
X73604604Y-88981680D01*
X73602493Y-89011187D01*
X73599619Y-89051370D01*
X73583760Y-89080915D01*
X73578141Y-89088649D01*
X73485244Y-89270968D01*
X73422009Y-89465582D01*
X73390000Y-89667682D01*
X73390000Y-89872317D01*
X73422009Y-90074417D01*
X73485244Y-90269031D01*
X73578141Y-90451350D01*
X73578147Y-90451359D01*
X73610523Y-90495921D01*
X73610524Y-90495922D01*
X74290000Y-89816446D01*
X74290000Y-89822661D01*
X74317259Y-89924394D01*
X74369920Y-90015606D01*
X74444394Y-90090080D01*
X74535606Y-90142741D01*
X74637339Y-90170000D01*
X74643553Y-90170000D01*
X73964076Y-90849474D01*
X74008652Y-90881861D01*
X74101628Y-90929234D01*
X74152425Y-90977208D01*
X74169220Y-91045029D01*
X74146683Y-91111164D01*
X74101630Y-91150203D01*
X74008388Y-91197713D01*
X73842786Y-91318028D01*
X73698028Y-91462786D01*
X73577715Y-91628386D01*
X73484781Y-91810776D01*
X73421522Y-92005465D01*
X73389500Y-92207648D01*
X73389500Y-92412351D01*
X73421522Y-92614534D01*
X73484781Y-92809223D01*
X73529837Y-92897648D01*
X73569514Y-92975519D01*
X73577715Y-92991613D01*
X73698028Y-93157213D01*
X73842786Y-93301971D01*
X73997749Y-93414556D01*
X74008390Y-93422287D01*
X74124607Y-93481503D01*
X74190776Y-93515218D01*
X74190778Y-93515218D01*
X74190781Y-93515220D01*
X74278941Y-93543865D01*
X74385465Y-93578477D01*
X74451393Y-93588919D01*
X74587648Y-93610500D01*
X74587649Y-93610500D01*
X74792351Y-93610500D01*
X74792352Y-93610500D01*
X74994534Y-93578477D01*
X75189219Y-93515220D01*
X75371610Y-93422287D01*
X75481815Y-93342219D01*
X75537213Y-93301971D01*
X75537215Y-93301968D01*
X75537219Y-93301966D01*
X75681966Y-93157219D01*
X75681968Y-93157215D01*
X75681971Y-93157213D01*
X75756540Y-93054576D01*
X75802287Y-92991610D01*
X75895220Y-92809219D01*
X75958477Y-92614534D01*
X75990500Y-92412352D01*
X75990500Y-92207648D01*
X75958477Y-92005466D01*
X75895220Y-91810781D01*
X75895218Y-91810778D01*
X75895218Y-91810776D01*
X75826130Y-91675185D01*
X75802287Y-91628390D01*
X75771697Y-91586286D01*
X75681971Y-91462786D01*
X75537213Y-91318028D01*
X75371611Y-91197713D01*
X75278369Y-91150203D01*
X75227574Y-91102229D01*
X75210779Y-91034407D01*
X75233317Y-90968273D01*
X75278371Y-90929234D01*
X75371346Y-90881861D01*
X75371347Y-90881861D01*
X75415921Y-90849474D01*
X74736447Y-90170000D01*
X74742661Y-90170000D01*
X74844394Y-90142741D01*
X74935606Y-90090080D01*
X75010080Y-90015606D01*
X75062741Y-89924394D01*
X75090000Y-89822661D01*
X75090000Y-89816447D01*
X75769474Y-90495921D01*
X75801859Y-90451349D01*
X75894755Y-90269031D01*
X75957990Y-90074417D01*
X75990000Y-89872317D01*
X75990000Y-89667682D01*
X75957990Y-89465582D01*
X75893251Y-89266340D01*
X75894512Y-89265930D01*
X75887697Y-89202470D01*
X75918978Y-89139994D01*
X75979071Y-89104348D01*
X76009724Y-89100500D01*
X78199903Y-89100500D01*
X78266942Y-89120185D01*
X78287584Y-89136819D01*
X81015921Y-91865157D01*
X81049406Y-91926480D01*
X81046173Y-91991149D01*
X81041523Y-92005460D01*
X81041523Y-92005462D01*
X81009500Y-92207648D01*
X81009500Y-92412351D01*
X81041522Y-92614534D01*
X81104781Y-92809223D01*
X81149837Y-92897648D01*
X81189514Y-92975519D01*
X81197715Y-92991613D01*
X81318028Y-93157213D01*
X81462786Y-93301971D01*
X81617749Y-93414556D01*
X81628390Y-93422287D01*
X81744607Y-93481503D01*
X81810776Y-93515218D01*
X81810778Y-93515218D01*
X81810781Y-93515220D01*
X81898941Y-93543865D01*
X82005465Y-93578477D01*
X82071393Y-93588919D01*
X82207648Y-93610500D01*
X82207649Y-93610500D01*
X82412351Y-93610500D01*
X82412352Y-93610500D01*
X82614534Y-93578477D01*
X82809219Y-93515220D01*
X82814200Y-93512681D01*
X82882867Y-93499782D01*
X82947609Y-93526055D01*
X82987870Y-93583159D01*
X82994500Y-93623164D01*
X82994500Y-95104903D01*
X82974815Y-95171942D01*
X82958181Y-95192584D01*
X82397896Y-95752868D01*
X82336573Y-95786353D01*
X82266881Y-95781369D01*
X82210948Y-95739497D01*
X82186531Y-95674033D01*
X82199732Y-95608888D01*
X82204755Y-95599029D01*
X82267990Y-95404417D01*
X82300000Y-95202317D01*
X82300000Y-94997682D01*
X82267990Y-94795582D01*
X82204755Y-94600968D01*
X82111859Y-94418650D01*
X82079474Y-94374077D01*
X82079474Y-94374076D01*
X81400000Y-95053553D01*
X81400000Y-95047339D01*
X81372741Y-94945606D01*
X81320080Y-94854394D01*
X81245606Y-94779920D01*
X81154394Y-94727259D01*
X81052661Y-94700000D01*
X81046446Y-94700000D01*
X81725922Y-94020524D01*
X81725921Y-94020523D01*
X81681359Y-93988147D01*
X81681350Y-93988141D01*
X81499031Y-93895244D01*
X81304417Y-93832009D01*
X81102317Y-93800000D01*
X80897683Y-93800000D01*
X80695582Y-93832009D01*
X80500968Y-93895244D01*
X80318644Y-93988143D01*
X80274077Y-94020523D01*
X80274077Y-94020524D01*
X80953554Y-94700000D01*
X80947339Y-94700000D01*
X80845606Y-94727259D01*
X80754394Y-94779920D01*
X80679920Y-94854394D01*
X80627259Y-94945606D01*
X80600000Y-95047339D01*
X80600000Y-95053553D01*
X79920524Y-94374077D01*
X79920523Y-94374077D01*
X79888143Y-94418644D01*
X79795244Y-94600968D01*
X79732009Y-94795582D01*
X79700000Y-94997682D01*
X79700000Y-95202317D01*
X79732009Y-95404417D01*
X79795244Y-95599031D01*
X79888141Y-95781350D01*
X79888147Y-95781359D01*
X79920523Y-95825921D01*
X79920524Y-95825922D01*
X80600000Y-95146446D01*
X80600000Y-95152661D01*
X80627259Y-95254394D01*
X80679920Y-95345606D01*
X80754394Y-95420080D01*
X80845606Y-95472741D01*
X80947339Y-95500000D01*
X80953553Y-95500000D01*
X80269067Y-96184483D01*
X80258635Y-96234147D01*
X80209584Y-96283905D01*
X80149381Y-96299500D01*
X76939047Y-96299500D01*
X76872008Y-96279815D01*
X76826253Y-96227011D01*
X76816309Y-96157853D01*
X76845334Y-96094297D01*
X76851366Y-96087819D01*
X76991966Y-95947219D01*
X76991968Y-95947215D01*
X76991971Y-95947213D01*
X77044732Y-95874590D01*
X77112287Y-95781610D01*
X77205220Y-95599219D01*
X77268477Y-95404534D01*
X77300500Y-95202352D01*
X77300500Y-94997648D01*
X77287863Y-94917864D01*
X77268477Y-94795465D01*
X77237458Y-94700000D01*
X77205220Y-94600781D01*
X77205218Y-94600778D01*
X77205218Y-94600776D01*
X77112419Y-94418650D01*
X77112287Y-94418390D01*
X77080092Y-94374077D01*
X76991971Y-94252786D01*
X76847213Y-94108028D01*
X76681613Y-93987715D01*
X76681612Y-93987714D01*
X76681610Y-93987713D01*
X76624653Y-93958691D01*
X76499223Y-93894781D01*
X76304534Y-93831522D01*
X76129995Y-93803878D01*
X76102352Y-93799500D01*
X75897648Y-93799500D01*
X75873329Y-93803351D01*
X75695465Y-93831522D01*
X75500776Y-93894781D01*
X75318386Y-93987715D01*
X75152786Y-94108028D01*
X75008028Y-94252786D01*
X74887715Y-94418386D01*
X74794781Y-94600776D01*
X74731522Y-94795465D01*
X74699500Y-94997648D01*
X74699500Y-95202351D01*
X74731522Y-95404534D01*
X74794781Y-95599223D01*
X74832904Y-95674042D01*
X74887590Y-95781369D01*
X74887715Y-95781613D01*
X75008028Y-95947213D01*
X75148634Y-96087819D01*
X75182119Y-96149142D01*
X75177135Y-96218834D01*
X75135263Y-96274767D01*
X75069799Y-96299184D01*
X75060953Y-96299500D01*
X67745097Y-96299500D01*
X67678058Y-96279815D01*
X67657416Y-96263181D01*
X64839077Y-93444842D01*
X64805592Y-93383519D01*
X64808828Y-93318841D01*
X64813477Y-93304534D01*
X64845500Y-93102352D01*
X64845500Y-92897648D01*
X66204500Y-92897648D01*
X66204500Y-93102352D01*
X66207632Y-93122127D01*
X66236522Y-93304534D01*
X66299781Y-93499223D01*
X66392715Y-93681613D01*
X66513028Y-93847213D01*
X66657786Y-93991971D01*
X66812749Y-94104556D01*
X66823390Y-94112287D01*
X66939607Y-94171503D01*
X67005776Y-94205218D01*
X67005778Y-94205218D01*
X67005781Y-94205220D01*
X67110137Y-94239127D01*
X67200465Y-94268477D01*
X67301557Y-94284488D01*
X67402648Y-94300500D01*
X67402649Y-94300500D01*
X67607351Y-94300500D01*
X67607352Y-94300500D01*
X67809534Y-94268477D01*
X68004219Y-94205220D01*
X68186610Y-94112287D01*
X68312912Y-94020524D01*
X68352213Y-93991971D01*
X68352215Y-93991968D01*
X68352219Y-93991966D01*
X68496966Y-93847219D01*
X68496968Y-93847215D01*
X68496971Y-93847213D01*
X68617284Y-93681614D01*
X68617285Y-93681613D01*
X68617287Y-93681610D01*
X68664516Y-93588917D01*
X68712489Y-93538123D01*
X68780310Y-93521328D01*
X68846445Y-93543865D01*
X68885483Y-93588917D01*
X68929348Y-93675006D01*
X68932715Y-93681614D01*
X69053028Y-93847213D01*
X69197786Y-93991971D01*
X69352749Y-94104556D01*
X69363390Y-94112287D01*
X69479607Y-94171503D01*
X69545776Y-94205218D01*
X69545778Y-94205218D01*
X69545781Y-94205220D01*
X69650137Y-94239127D01*
X69740465Y-94268477D01*
X69841557Y-94284488D01*
X69942648Y-94300500D01*
X69942649Y-94300500D01*
X70147351Y-94300500D01*
X70147352Y-94300500D01*
X70349534Y-94268477D01*
X70544219Y-94205220D01*
X70726610Y-94112287D01*
X70852912Y-94020524D01*
X70892213Y-93991971D01*
X70892215Y-93991968D01*
X70892219Y-93991966D01*
X71036966Y-93847219D01*
X71036968Y-93847215D01*
X71036971Y-93847213D01*
X71097808Y-93763477D01*
X71157287Y-93681610D01*
X71250220Y-93499219D01*
X71313477Y-93304534D01*
X71345500Y-93102352D01*
X71345500Y-92897648D01*
X71318346Y-92726206D01*
X71313477Y-92695465D01*
X71253249Y-92510104D01*
X71250220Y-92500781D01*
X71250218Y-92500778D01*
X71250218Y-92500776D01*
X71157285Y-92318387D01*
X71126243Y-92275660D01*
X71126242Y-92275659D01*
X71036971Y-92152787D01*
X71036967Y-92152782D01*
X70892213Y-92008028D01*
X70726613Y-91887715D01*
X70726612Y-91887714D01*
X70726610Y-91887713D01*
X70669653Y-91858691D01*
X70544223Y-91794781D01*
X70349534Y-91731522D01*
X70174995Y-91703878D01*
X70147352Y-91699500D01*
X69942648Y-91699500D01*
X69918329Y-91703351D01*
X69740465Y-91731522D01*
X69545776Y-91794781D01*
X69363386Y-91887715D01*
X69197786Y-92008028D01*
X69053028Y-92152786D01*
X68932715Y-92318386D01*
X68885485Y-92411080D01*
X68837510Y-92461876D01*
X68769689Y-92478671D01*
X68703554Y-92456134D01*
X68664515Y-92411080D01*
X68638378Y-92359784D01*
X68617287Y-92318390D01*
X68586242Y-92275660D01*
X68496971Y-92152786D01*
X68352213Y-92008028D01*
X68186613Y-91887715D01*
X68186612Y-91887714D01*
X68186610Y-91887713D01*
X68129653Y-91858691D01*
X68004223Y-91794781D01*
X67809534Y-91731522D01*
X67634995Y-91703878D01*
X67607352Y-91699500D01*
X67402648Y-91699500D01*
X67378329Y-91703351D01*
X67200465Y-91731522D01*
X67005776Y-91794781D01*
X66823386Y-91887715D01*
X66657786Y-92008028D01*
X66513028Y-92152786D01*
X66392715Y-92318386D01*
X66299781Y-92500776D01*
X66236522Y-92695465D01*
X66217993Y-92812455D01*
X66204500Y-92897648D01*
X64845500Y-92897648D01*
X64818346Y-92726206D01*
X64813477Y-92695465D01*
X64753249Y-92510104D01*
X64750220Y-92500781D01*
X64750218Y-92500778D01*
X64750218Y-92500776D01*
X64705163Y-92412352D01*
X64657287Y-92318390D01*
X64626242Y-92275660D01*
X64536971Y-92152786D01*
X64392213Y-92008028D01*
X64226613Y-91887715D01*
X64226612Y-91887714D01*
X64226610Y-91887713D01*
X64169653Y-91858691D01*
X64044223Y-91794781D01*
X63849534Y-91731522D01*
X63674995Y-91703878D01*
X63647352Y-91699500D01*
X63442648Y-91699500D01*
X63418329Y-91703351D01*
X63240465Y-91731522D01*
X63045776Y-91794781D01*
X62863386Y-91887715D01*
X62697786Y-92008028D01*
X62553028Y-92152786D01*
X62432715Y-92318386D01*
X62385485Y-92411080D01*
X62337510Y-92461876D01*
X62269689Y-92478671D01*
X62203554Y-92456134D01*
X62164515Y-92411080D01*
X62138378Y-92359784D01*
X62117287Y-92318390D01*
X62086242Y-92275660D01*
X61996971Y-92152786D01*
X61852213Y-92008028D01*
X61686613Y-91887715D01*
X61686612Y-91887714D01*
X61686610Y-91887713D01*
X61629653Y-91858691D01*
X61504223Y-91794781D01*
X61309534Y-91731522D01*
X61134995Y-91703878D01*
X61107352Y-91699500D01*
X60902648Y-91699500D01*
X60878329Y-91703351D01*
X60700465Y-91731522D01*
X60505776Y-91794781D01*
X60323386Y-91887715D01*
X60157786Y-92008028D01*
X60013028Y-92152786D01*
X59892715Y-92318386D01*
X59799781Y-92500776D01*
X59736522Y-92695465D01*
X59717993Y-92812455D01*
X59704500Y-92897648D01*
X59704500Y-93102352D01*
X59707632Y-93122127D01*
X59736522Y-93304534D01*
X59799781Y-93499223D01*
X59892715Y-93681613D01*
X60013028Y-93847213D01*
X60157786Y-93991971D01*
X60312749Y-94104556D01*
X60323390Y-94112287D01*
X60439607Y-94171503D01*
X60505776Y-94205218D01*
X60505778Y-94205218D01*
X60505781Y-94205220D01*
X60610137Y-94239127D01*
X60700465Y-94268477D01*
X60801557Y-94284488D01*
X60902648Y-94300500D01*
X60902649Y-94300500D01*
X61107351Y-94300500D01*
X61107352Y-94300500D01*
X61309534Y-94268477D01*
X61504219Y-94205220D01*
X61686610Y-94112287D01*
X61812912Y-94020524D01*
X61852213Y-93991971D01*
X61852215Y-93991968D01*
X61852219Y-93991966D01*
X61996966Y-93847219D01*
X61996968Y-93847215D01*
X61996971Y-93847213D01*
X62117284Y-93681614D01*
X62117285Y-93681613D01*
X62117287Y-93681610D01*
X62164516Y-93588917D01*
X62212489Y-93538123D01*
X62280310Y-93521328D01*
X62346445Y-93543865D01*
X62385483Y-93588917D01*
X62429348Y-93675006D01*
X62432715Y-93681614D01*
X62553028Y-93847213D01*
X62697786Y-93991971D01*
X62852749Y-94104556D01*
X62863390Y-94112287D01*
X62979607Y-94171503D01*
X63045776Y-94205218D01*
X63045778Y-94205218D01*
X63045781Y-94205220D01*
X63150137Y-94239127D01*
X63240465Y-94268477D01*
X63341557Y-94284488D01*
X63442648Y-94300500D01*
X63442649Y-94300500D01*
X63647351Y-94300500D01*
X63647352Y-94300500D01*
X63849534Y-94268477D01*
X63863842Y-94263827D01*
X63933682Y-94261831D01*
X63989842Y-94294077D01*
X66483584Y-96787819D01*
X66517069Y-96849142D01*
X66512085Y-96918834D01*
X66470213Y-96974767D01*
X66404749Y-96999184D01*
X66395903Y-96999500D01*
X55124500Y-96999500D01*
X55057461Y-96979815D01*
X55011706Y-96927011D01*
X55000500Y-96875500D01*
X55000500Y-53124500D01*
X55020185Y-53057461D01*
X55072989Y-53011706D01*
X55124500Y-53000500D01*
X61380217Y-53000500D01*
X61447256Y-53020185D01*
G37*
%TD.AperFunction*%
%TA.AperFunction,Conductor*%
G36*
X98942539Y-53020185D02*
G01*
X98988294Y-53072989D01*
X98999500Y-53124500D01*
X98999500Y-96875500D01*
X98979815Y-96942539D01*
X98927011Y-96988294D01*
X98875500Y-96999500D01*
X83149097Y-96999500D01*
X83082058Y-96979815D01*
X83036303Y-96927011D01*
X83026359Y-96857853D01*
X83055384Y-96794297D01*
X83061416Y-96787819D01*
X83700092Y-96149142D01*
X83953506Y-95895727D01*
X83953511Y-95895724D01*
X83963714Y-95885520D01*
X83963716Y-95885520D01*
X84075520Y-95773716D01*
X84133070Y-95674035D01*
X84154577Y-95636785D01*
X84195500Y-95484058D01*
X84195500Y-95325943D01*
X84195500Y-91779500D01*
X84215185Y-91712461D01*
X84267989Y-91666706D01*
X84319500Y-91655500D01*
X84515812Y-91655500D01*
X84582851Y-91675185D01*
X84628606Y-91727989D01*
X84638550Y-91797147D01*
X84626297Y-91835795D01*
X84544781Y-91995776D01*
X84481522Y-92190465D01*
X84449500Y-92392648D01*
X84449500Y-92597351D01*
X84481522Y-92799534D01*
X84544781Y-92994223D01*
X84605001Y-93112409D01*
X84609952Y-93122127D01*
X84637715Y-93176613D01*
X84758028Y-93342213D01*
X84902786Y-93486971D01*
X85028736Y-93578477D01*
X85068390Y-93607287D01*
X85184607Y-93666503D01*
X85250776Y-93700218D01*
X85250778Y-93700218D01*
X85250781Y-93700220D01*
X85355137Y-93734127D01*
X85445465Y-93763477D01*
X85546557Y-93779488D01*
X85647648Y-93795500D01*
X85647649Y-93795500D01*
X85852351Y-93795500D01*
X85852352Y-93795500D01*
X86054534Y-93763477D01*
X86249219Y-93700220D01*
X86431610Y-93607287D01*
X86543417Y-93526055D01*
X86597213Y-93486971D01*
X86597215Y-93486968D01*
X86597219Y-93486966D01*
X86741966Y-93342219D01*
X86741968Y-93342215D01*
X86741971Y-93342213D01*
X86862284Y-93176614D01*
X86862285Y-93176613D01*
X86862287Y-93176610D01*
X86869117Y-93163204D01*
X86917091Y-93112409D01*
X86979602Y-93095500D01*
X90758331Y-93095500D01*
X90758347Y-93095501D01*
X90765943Y-93095501D01*
X90924054Y-93095501D01*
X90924057Y-93095501D01*
X91076785Y-93054577D01*
X91126904Y-93025639D01*
X91213716Y-92975520D01*
X91325520Y-92863716D01*
X91325520Y-92863714D01*
X91335728Y-92853507D01*
X91335730Y-92853504D01*
X91961689Y-92227544D01*
X92023010Y-92194061D01*
X92068764Y-92192754D01*
X92243945Y-92220500D01*
X92243946Y-92220500D01*
X92436054Y-92220500D01*
X92436055Y-92220500D01*
X92625801Y-92190447D01*
X92808509Y-92131082D01*
X92979681Y-92043865D01*
X93135102Y-91930945D01*
X93270945Y-91795102D01*
X93375195Y-91651613D01*
X93430525Y-91608949D01*
X93475513Y-91600500D01*
X93744487Y-91600500D01*
X93811526Y-91620185D01*
X93844804Y-91651613D01*
X93949055Y-91795102D01*
X94084898Y-91930945D01*
X94240319Y-92043865D01*
X94411491Y-92131082D01*
X94411493Y-92131083D01*
X94502845Y-92160764D01*
X94594199Y-92190447D01*
X94783945Y-92220500D01*
X94783946Y-92220500D01*
X94976054Y-92220500D01*
X94976055Y-92220500D01*
X95165801Y-92190447D01*
X95348509Y-92131082D01*
X95519681Y-92043865D01*
X95675102Y-91930945D01*
X95810945Y-91795102D01*
X95923865Y-91639681D01*
X96011082Y-91468509D01*
X96070447Y-91285801D01*
X96100500Y-91096055D01*
X96100500Y-90903945D01*
X96070447Y-90714199D01*
X96032436Y-90597213D01*
X96011083Y-90531493D01*
X96011082Y-90531491D01*
X95923865Y-90360319D01*
X95810945Y-90204898D01*
X95675102Y-90069055D01*
X95519681Y-89956135D01*
X95516698Y-89954615D01*
X95348506Y-89868916D01*
X95165802Y-89809553D01*
X95070928Y-89794526D01*
X94976055Y-89779500D01*
X94783945Y-89779500D01*
X94720696Y-89789517D01*
X94594197Y-89809553D01*
X94411493Y-89868916D01*
X94240318Y-89956135D01*
X94158464Y-90015606D01*
X94084898Y-90069055D01*
X94084896Y-90069057D01*
X94084895Y-90069057D01*
X93949057Y-90204895D01*
X93949057Y-90204896D01*
X93949055Y-90204898D01*
X93851683Y-90338919D01*
X93844805Y-90348386D01*
X93789475Y-90391051D01*
X93744487Y-90399500D01*
X93475513Y-90399500D01*
X93408474Y-90379815D01*
X93375195Y-90348386D01*
X93368317Y-90338919D01*
X93270945Y-90204898D01*
X93135102Y-90069055D01*
X92979681Y-89956135D01*
X92976698Y-89954615D01*
X92808506Y-89868916D01*
X92625802Y-89809553D01*
X92530928Y-89794526D01*
X92436055Y-89779500D01*
X92243945Y-89779500D01*
X92180696Y-89789517D01*
X92054197Y-89809553D01*
X91871493Y-89868916D01*
X91700318Y-89956135D01*
X91618464Y-90015606D01*
X91544898Y-90069055D01*
X91544896Y-90069057D01*
X91544895Y-90069057D01*
X91409057Y-90204895D01*
X91409057Y-90204896D01*
X91409055Y-90204898D01*
X91401489Y-90215312D01*
X91296135Y-90360318D01*
X91208916Y-90531493D01*
X91187931Y-90596081D01*
X91148494Y-90653756D01*
X91084135Y-90680955D01*
X91015289Y-90669041D01*
X90963813Y-90621797D01*
X90952069Y-90596081D01*
X90931083Y-90531493D01*
X90931082Y-90531491D01*
X90843865Y-90360319D01*
X90730945Y-90204898D01*
X90595102Y-90069055D01*
X90439681Y-89956135D01*
X90436698Y-89954615D01*
X90268506Y-89868916D01*
X90085802Y-89809553D01*
X89990928Y-89794526D01*
X89896055Y-89779500D01*
X89703945Y-89779500D01*
X89640696Y-89789517D01*
X89514197Y-89809553D01*
X89331493Y-89868916D01*
X89160318Y-89956135D01*
X89078464Y-90015606D01*
X89004898Y-90069055D01*
X89004896Y-90069057D01*
X89004895Y-90069057D01*
X88869057Y-90204895D01*
X88869057Y-90204896D01*
X88869055Y-90204898D01*
X88861489Y-90215312D01*
X88756135Y-90360318D01*
X88742645Y-90386795D01*
X88694671Y-90437591D01*
X88632160Y-90454500D01*
X87125801Y-90454500D01*
X87058762Y-90434815D01*
X87013007Y-90382011D01*
X87003063Y-90312853D01*
X87007870Y-90292183D01*
X87018475Y-90259542D01*
X87018475Y-90259538D01*
X87018477Y-90259534D01*
X87050500Y-90057352D01*
X87050500Y-89852648D01*
X87038914Y-89779500D01*
X87018477Y-89650465D01*
X86977514Y-89524394D01*
X86955220Y-89455781D01*
X86955218Y-89455778D01*
X86955218Y-89455776D01*
X86911512Y-89370000D01*
X86862287Y-89273390D01*
X86817595Y-89211876D01*
X86774802Y-89152975D01*
X86751322Y-89087168D01*
X86767148Y-89019115D01*
X86817254Y-88970420D01*
X86885732Y-88956545D01*
X86911119Y-88961430D01*
X86913154Y-88962047D01*
X86913164Y-88962051D01*
X86913173Y-88962052D01*
X86913174Y-88962053D01*
X87106454Y-89000499D01*
X87106457Y-89000500D01*
X87106459Y-89000500D01*
X90803543Y-89000500D01*
X90838152Y-88993615D01*
X90946884Y-88971987D01*
X90996836Y-88962051D01*
X91050165Y-88939961D01*
X91178914Y-88886632D01*
X91342782Y-88777139D01*
X91482139Y-88637782D01*
X91482139Y-88637780D01*
X91492347Y-88627573D01*
X91492349Y-88627570D01*
X92293203Y-87826715D01*
X92354524Y-87793232D01*
X92361473Y-87791927D01*
X92509534Y-87768477D01*
X92704219Y-87705220D01*
X92886610Y-87612287D01*
X92993629Y-87534534D01*
X93052213Y-87491971D01*
X93052215Y-87491968D01*
X93052219Y-87491966D01*
X93196966Y-87347219D01*
X93196968Y-87347215D01*
X93196971Y-87347213D01*
X93317284Y-87181614D01*
X93317285Y-87181613D01*
X93317287Y-87181610D01*
X93364516Y-87088917D01*
X93412489Y-87038123D01*
X93480310Y-87021328D01*
X93546445Y-87043865D01*
X93585485Y-87088919D01*
X93632715Y-87181614D01*
X93753028Y-87347213D01*
X93897786Y-87491971D01*
X93990756Y-87559516D01*
X94063390Y-87612287D01*
X94176658Y-87670000D01*
X94245776Y-87705218D01*
X94245778Y-87705218D01*
X94245781Y-87705220D01*
X94350137Y-87739127D01*
X94440465Y-87768477D01*
X94541557Y-87784488D01*
X94642648Y-87800500D01*
X94642649Y-87800500D01*
X94847351Y-87800500D01*
X94847352Y-87800500D01*
X95049534Y-87768477D01*
X95244219Y-87705220D01*
X95426610Y-87612287D01*
X95533629Y-87534534D01*
X95592213Y-87491971D01*
X95592215Y-87491968D01*
X95592219Y-87491966D01*
X95736966Y-87347219D01*
X95736968Y-87347215D01*
X95736971Y-87347213D01*
X95789732Y-87274590D01*
X95857287Y-87181610D01*
X95950220Y-86999219D01*
X96013477Y-86804534D01*
X96045500Y-86602352D01*
X96045500Y-86397648D01*
X96014278Y-86200521D01*
X96013477Y-86195465D01*
X95978792Y-86088716D01*
X95950220Y-86000781D01*
X95950218Y-86000778D01*
X95950218Y-86000776D01*
X95904515Y-85911080D01*
X95857287Y-85818390D01*
X95843239Y-85799055D01*
X95736971Y-85652786D01*
X95592213Y-85508028D01*
X95426613Y-85387715D01*
X95426612Y-85387714D01*
X95426610Y-85387713D01*
X95369653Y-85358691D01*
X95244223Y-85294781D01*
X95049534Y-85231522D01*
X94861690Y-85201771D01*
X94847352Y-85199500D01*
X94642648Y-85199500D01*
X94628310Y-85201771D01*
X94440465Y-85231522D01*
X94245776Y-85294781D01*
X94063386Y-85387715D01*
X93897786Y-85508028D01*
X93753028Y-85652786D01*
X93632715Y-85818386D01*
X93585485Y-85911080D01*
X93537510Y-85961876D01*
X93469689Y-85978671D01*
X93403554Y-85956134D01*
X93364515Y-85911080D01*
X93363883Y-85909840D01*
X93317287Y-85818390D01*
X93303239Y-85799055D01*
X93196971Y-85652786D01*
X93052213Y-85508028D01*
X92886613Y-85387715D01*
X92886612Y-85387714D01*
X92886610Y-85387713D01*
X92829653Y-85358691D01*
X92704223Y-85294781D01*
X92509534Y-85231522D01*
X92321690Y-85201771D01*
X92307352Y-85199500D01*
X92102648Y-85199500D01*
X92088310Y-85201771D01*
X91900465Y-85231522D01*
X91705776Y-85294781D01*
X91523386Y-85387715D01*
X91357786Y-85508028D01*
X91213028Y-85652786D01*
X91092715Y-85818386D01*
X90999781Y-86000778D01*
X90936522Y-86195468D01*
X90913073Y-86343515D01*
X90883143Y-86406649D01*
X90878281Y-86411797D01*
X90326899Y-86963181D01*
X90265576Y-86996666D01*
X90239218Y-86999500D01*
X89620801Y-86999500D01*
X89553762Y-86979815D01*
X89508007Y-86927011D01*
X89498063Y-86857853D01*
X89502870Y-86837183D01*
X89513475Y-86804542D01*
X89513475Y-86804538D01*
X89513477Y-86804534D01*
X89545500Y-86602352D01*
X89545500Y-86397648D01*
X89514278Y-86200521D01*
X89513477Y-86195465D01*
X89478792Y-86088716D01*
X89450220Y-86000781D01*
X89450218Y-86000778D01*
X89450218Y-86000776D01*
X89404515Y-85911080D01*
X89357287Y-85818390D01*
X89343239Y-85799055D01*
X89236971Y-85652786D01*
X89092213Y-85508028D01*
X88926613Y-85387715D01*
X88926612Y-85387714D01*
X88926610Y-85387713D01*
X88869653Y-85358691D01*
X88744223Y-85294781D01*
X88549534Y-85231522D01*
X88361690Y-85201771D01*
X88347352Y-85199500D01*
X88142648Y-85199500D01*
X88128310Y-85201771D01*
X87940465Y-85231522D01*
X87745776Y-85294781D01*
X87563386Y-85387715D01*
X87397786Y-85508028D01*
X87253028Y-85652786D01*
X87132715Y-85818386D01*
X87085485Y-85911080D01*
X87037510Y-85961876D01*
X86969689Y-85978671D01*
X86903554Y-85956134D01*
X86864515Y-85911080D01*
X86863883Y-85909840D01*
X86817287Y-85818390D01*
X86803239Y-85799055D01*
X86696971Y-85652786D01*
X86552213Y-85508028D01*
X86386613Y-85387715D01*
X86386612Y-85387714D01*
X86386610Y-85387713D01*
X86329653Y-85358691D01*
X86204223Y-85294781D01*
X86009535Y-85231523D01*
X85861483Y-85208073D01*
X85798349Y-85178143D01*
X85793201Y-85173281D01*
X84679209Y-84059289D01*
X84679206Y-84059285D01*
X84679206Y-84059286D01*
X84672139Y-84052219D01*
X84672139Y-84052218D01*
X84532782Y-83912861D01*
X84532781Y-83912860D01*
X84532780Y-83912859D01*
X84368920Y-83803371D01*
X84368911Y-83803366D01*
X84247144Y-83752929D01*
X84247145Y-83752929D01*
X84240165Y-83750038D01*
X84186836Y-83727949D01*
X84086953Y-83708081D01*
X84082424Y-83707180D01*
X84082420Y-83707179D01*
X83993543Y-83689500D01*
X83993541Y-83689500D01*
X83185762Y-83689500D01*
X83118723Y-83669815D01*
X83112877Y-83665818D01*
X82991613Y-83577715D01*
X82991612Y-83577714D01*
X82991610Y-83577713D01*
X82924968Y-83543757D01*
X82809223Y-83484781D01*
X82614534Y-83421522D01*
X82439995Y-83393878D01*
X82412352Y-83389500D01*
X82207648Y-83389500D01*
X82183329Y-83393351D01*
X82005465Y-83421522D01*
X81810776Y-83484781D01*
X81628386Y-83577715D01*
X81507123Y-83665818D01*
X81441317Y-83689298D01*
X81434238Y-83689500D01*
X79655783Y-83689500D01*
X79588744Y-83669815D01*
X79568102Y-83653181D01*
X78534817Y-82619896D01*
X77395417Y-81480497D01*
X77326717Y-81411797D01*
X77319010Y-81397682D01*
X79700000Y-81397682D01*
X79700000Y-81602317D01*
X79732009Y-81804417D01*
X79795244Y-81999031D01*
X79888141Y-82181350D01*
X79888147Y-82181359D01*
X79920523Y-82225921D01*
X79920524Y-82225922D01*
X80600000Y-81546446D01*
X80600000Y-81552661D01*
X80627259Y-81654394D01*
X80679920Y-81745606D01*
X80754394Y-81820080D01*
X80845606Y-81872741D01*
X80947339Y-81900000D01*
X80953553Y-81900000D01*
X80274076Y-82579474D01*
X80318650Y-82611859D01*
X80500968Y-82704755D01*
X80695582Y-82767990D01*
X80897683Y-82800000D01*
X81102317Y-82800000D01*
X81304417Y-82767990D01*
X81499031Y-82704755D01*
X81681349Y-82611859D01*
X81725921Y-82579474D01*
X81046447Y-81900000D01*
X81052661Y-81900000D01*
X81154394Y-81872741D01*
X81245606Y-81820080D01*
X81320080Y-81745606D01*
X81372741Y-81654394D01*
X81400000Y-81552661D01*
X81400000Y-81546447D01*
X82079474Y-82225921D01*
X82111859Y-82181349D01*
X82204755Y-81999031D01*
X82267990Y-81804417D01*
X82300000Y-81602317D01*
X82300000Y-81397682D01*
X82267990Y-81195582D01*
X82204755Y-81000968D01*
X82111859Y-80818650D01*
X82079474Y-80774077D01*
X82079474Y-80774076D01*
X81400000Y-81453551D01*
X81400000Y-81447339D01*
X81372741Y-81345606D01*
X81320080Y-81254394D01*
X81245606Y-81179920D01*
X81154394Y-81127259D01*
X81052661Y-81100000D01*
X81046446Y-81100000D01*
X81725922Y-80420524D01*
X81725921Y-80420523D01*
X81681359Y-80388147D01*
X81681350Y-80388141D01*
X81499031Y-80295244D01*
X81304417Y-80232009D01*
X81102317Y-80200000D01*
X80897683Y-80200000D01*
X80695582Y-80232009D01*
X80500968Y-80295244D01*
X80318644Y-80388143D01*
X80274077Y-80420523D01*
X80274077Y-80420524D01*
X80953554Y-81100000D01*
X80947339Y-81100000D01*
X80845606Y-81127259D01*
X80754394Y-81179920D01*
X80679920Y-81254394D01*
X80627259Y-81345606D01*
X80600000Y-81447339D01*
X80600000Y-81453553D01*
X79920524Y-80774077D01*
X79920523Y-80774077D01*
X79888143Y-80818644D01*
X79795244Y-81000968D01*
X79732009Y-81195582D01*
X79700000Y-81397682D01*
X77319010Y-81397682D01*
X77293232Y-81350474D01*
X77291925Y-81343513D01*
X77281471Y-81277511D01*
X77268477Y-81195466D01*
X77252549Y-81146446D01*
X77206187Y-81003757D01*
X77205220Y-81000781D01*
X77205218Y-81000778D01*
X77205218Y-81000776D01*
X77123033Y-80839481D01*
X77112287Y-80818390D01*
X77093273Y-80792219D01*
X76991971Y-80652786D01*
X76847213Y-80508028D01*
X76681613Y-80387715D01*
X76681612Y-80387714D01*
X76681610Y-80387713D01*
X76616612Y-80354595D01*
X76499223Y-80294781D01*
X76304534Y-80231522D01*
X76129995Y-80203878D01*
X76102352Y-80199500D01*
X75897648Y-80199500D01*
X75873329Y-80203351D01*
X75695465Y-80231522D01*
X75500776Y-80294781D01*
X75318386Y-80387715D01*
X75152786Y-80508028D01*
X75008028Y-80652786D01*
X74887715Y-80818386D01*
X74843866Y-80904444D01*
X74795891Y-80955240D01*
X74728070Y-80972035D01*
X74661935Y-80949497D01*
X74645700Y-80935830D01*
X73552518Y-79842648D01*
X84449500Y-79842648D01*
X84449500Y-80047352D01*
X84450761Y-80055312D01*
X84481522Y-80249534D01*
X84544781Y-80444223D01*
X84637715Y-80626613D01*
X84758028Y-80792213D01*
X84902786Y-80936971D01*
X85057749Y-81049556D01*
X85068390Y-81057287D01*
X85149112Y-81098417D01*
X85161080Y-81104515D01*
X85211876Y-81152490D01*
X85228671Y-81220311D01*
X85206134Y-81286446D01*
X85161080Y-81325485D01*
X85068386Y-81372715D01*
X84902786Y-81493028D01*
X84758028Y-81637786D01*
X84637715Y-81803386D01*
X84544781Y-81985776D01*
X84481522Y-82180465D01*
X84454654Y-82350109D01*
X84449500Y-82382648D01*
X84449500Y-82587352D01*
X84450761Y-82595312D01*
X84481522Y-82789534D01*
X84544781Y-82984223D01*
X84608691Y-83109653D01*
X84632334Y-83156054D01*
X84637715Y-83166613D01*
X84758028Y-83332213D01*
X84902786Y-83476971D01*
X85041448Y-83577713D01*
X85068390Y-83597287D01*
X85178088Y-83653181D01*
X85250776Y-83690218D01*
X85250778Y-83690218D01*
X85250781Y-83690220D01*
X85328339Y-83715420D01*
X85445465Y-83753477D01*
X85546557Y-83769488D01*
X85647648Y-83785500D01*
X85647649Y-83785500D01*
X85852351Y-83785500D01*
X85852352Y-83785500D01*
X86054534Y-83753477D01*
X86249219Y-83690220D01*
X86431610Y-83597287D01*
X86524590Y-83529732D01*
X86597213Y-83476971D01*
X86597215Y-83476968D01*
X86597219Y-83476966D01*
X86741966Y-83332219D01*
X86741968Y-83332215D01*
X86741971Y-83332213D01*
X86854143Y-83177819D01*
X86862287Y-83166610D01*
X86955220Y-82984219D01*
X87018477Y-82789534D01*
X87050500Y-82587352D01*
X87050500Y-82382648D01*
X87029794Y-82251920D01*
X87018478Y-82180472D01*
X87018477Y-82180471D01*
X87018477Y-82180466D01*
X87013825Y-82166151D01*
X87011832Y-82096312D01*
X87044075Y-82040158D01*
X89487594Y-79596640D01*
X89548915Y-79563157D01*
X89618607Y-79568141D01*
X89631567Y-79573838D01*
X89674805Y-79595868D01*
X89719975Y-79618884D01*
X89719976Y-79618884D01*
X89721212Y-79619514D01*
X89772009Y-79667488D01*
X89788804Y-79735309D01*
X89766267Y-79801444D01*
X89721213Y-79840484D01*
X89544594Y-79930476D01*
X89397904Y-80037053D01*
X89397900Y-80037056D01*
X89385354Y-80046172D01*
X89246172Y-80185354D01*
X89237056Y-80197900D01*
X89237053Y-80197904D01*
X89130476Y-80344594D01*
X89041117Y-80519970D01*
X88980290Y-80707173D01*
X88949500Y-80901577D01*
X88949500Y-81098422D01*
X88980290Y-81292826D01*
X89041117Y-81480029D01*
X89121496Y-81637781D01*
X89130476Y-81655405D01*
X89246172Y-81814646D01*
X89385354Y-81953828D01*
X89538621Y-82065184D01*
X89581285Y-82120512D01*
X89587264Y-82190125D01*
X89554658Y-82251920D01*
X89493819Y-82286278D01*
X89465736Y-82289500D01*
X89402130Y-82289500D01*
X89402123Y-82289501D01*
X89342516Y-82295908D01*
X89207671Y-82346202D01*
X89207664Y-82346206D01*
X89092455Y-82432452D01*
X89092452Y-82432455D01*
X89006206Y-82547664D01*
X89006202Y-82547671D01*
X88955908Y-82682517D01*
X88952017Y-82718715D01*
X88949501Y-82742123D01*
X88949500Y-82742135D01*
X88949500Y-84337870D01*
X88949501Y-84337876D01*
X88955908Y-84397483D01*
X89006202Y-84532328D01*
X89006206Y-84532335D01*
X89092452Y-84647544D01*
X89092455Y-84647547D01*
X89207664Y-84733793D01*
X89207671Y-84733797D01*
X89342517Y-84784091D01*
X89342516Y-84784091D01*
X89349444Y-84784835D01*
X89402127Y-84790500D01*
X90997872Y-84790499D01*
X91057483Y-84784091D01*
X91192331Y-84733796D01*
X91307546Y-84647546D01*
X91393796Y-84532331D01*
X91444091Y-84397483D01*
X91450500Y-84337873D01*
X91450499Y-82742128D01*
X91444091Y-82682517D01*
X91443346Y-82680520D01*
X91393797Y-82547671D01*
X91393793Y-82547664D01*
X91307547Y-82432455D01*
X91307544Y-82432452D01*
X91192335Y-82346206D01*
X91192328Y-82346202D01*
X91057482Y-82295908D01*
X91057483Y-82295908D01*
X90997883Y-82289501D01*
X90997881Y-82289500D01*
X90997873Y-82289500D01*
X90997865Y-82289500D01*
X90934267Y-82289500D01*
X90867228Y-82269815D01*
X90821473Y-82217011D01*
X90811529Y-82147853D01*
X90840554Y-82084297D01*
X90861381Y-82065182D01*
X91014646Y-81953828D01*
X91153828Y-81814646D01*
X91269524Y-81655405D01*
X91358884Y-81480025D01*
X91419709Y-81292826D01*
X91450500Y-81098422D01*
X91450500Y-80901577D01*
X91419709Y-80707173D01*
X91383594Y-80596025D01*
X91358884Y-80519975D01*
X91358882Y-80519972D01*
X91358882Y-80519970D01*
X91309964Y-80423963D01*
X91269524Y-80344595D01*
X91153828Y-80185354D01*
X91014646Y-80046172D01*
X90921581Y-79978556D01*
X90855403Y-79930474D01*
X90678787Y-79840485D01*
X90627990Y-79792511D01*
X90611195Y-79724690D01*
X90633732Y-79658555D01*
X90678787Y-79619515D01*
X90855403Y-79529525D01*
X90855402Y-79529525D01*
X90855405Y-79529524D01*
X91014646Y-79413828D01*
X91153828Y-79274646D01*
X91269524Y-79115405D01*
X91269524Y-79115403D01*
X91272278Y-79111614D01*
X91327608Y-79068949D01*
X91372596Y-79060500D01*
X94027404Y-79060500D01*
X94094443Y-79080185D01*
X94127722Y-79111614D01*
X94130475Y-79115403D01*
X94130476Y-79115405D01*
X94246172Y-79274646D01*
X94385354Y-79413828D01*
X94544595Y-79529524D01*
X94610604Y-79563157D01*
X94721213Y-79619515D01*
X94772009Y-79667489D01*
X94788804Y-79735310D01*
X94766267Y-79801445D01*
X94721213Y-79840485D01*
X94544594Y-79930476D01*
X94478419Y-79978556D01*
X94385354Y-80046172D01*
X94385352Y-80046174D01*
X94385351Y-80046174D01*
X94246174Y-80185351D01*
X94246174Y-80185352D01*
X94246172Y-80185354D01*
X94213269Y-80230641D01*
X94130476Y-80344594D01*
X94041117Y-80519970D01*
X93980290Y-80707173D01*
X93949500Y-80901577D01*
X93949500Y-81098422D01*
X93980290Y-81292826D01*
X94041117Y-81480029D01*
X94121496Y-81637781D01*
X94130476Y-81655405D01*
X94246172Y-81814646D01*
X94385354Y-81953828D01*
X94538621Y-82065184D01*
X94581285Y-82120512D01*
X94587264Y-82190125D01*
X94554658Y-82251920D01*
X94493819Y-82286278D01*
X94465736Y-82289500D01*
X94402130Y-82289500D01*
X94402123Y-82289501D01*
X94342516Y-82295908D01*
X94207671Y-82346202D01*
X94207664Y-82346206D01*
X94092455Y-82432452D01*
X94092452Y-82432455D01*
X94006206Y-82547664D01*
X94006202Y-82547671D01*
X93955908Y-82682517D01*
X93952017Y-82718715D01*
X93949501Y-82742123D01*
X93949500Y-82742135D01*
X93949500Y-84337870D01*
X93949501Y-84337876D01*
X93955908Y-84397483D01*
X94006202Y-84532328D01*
X94006206Y-84532335D01*
X94092452Y-84647544D01*
X94092455Y-84647547D01*
X94207664Y-84733793D01*
X94207671Y-84733797D01*
X94342517Y-84784091D01*
X94342516Y-84784091D01*
X94349444Y-84784835D01*
X94402127Y-84790500D01*
X95997872Y-84790499D01*
X96057483Y-84784091D01*
X96192331Y-84733796D01*
X96307546Y-84647546D01*
X96393796Y-84532331D01*
X96444091Y-84397483D01*
X96450500Y-84337873D01*
X96450499Y-82742128D01*
X96444091Y-82682517D01*
X96443346Y-82680520D01*
X96393797Y-82547671D01*
X96393793Y-82547664D01*
X96307547Y-82432455D01*
X96307544Y-82432452D01*
X96192335Y-82346206D01*
X96192328Y-82346202D01*
X96057482Y-82295908D01*
X96057483Y-82295908D01*
X95997883Y-82289501D01*
X95997881Y-82289500D01*
X95997873Y-82289500D01*
X95997865Y-82289500D01*
X95934267Y-82289500D01*
X95867228Y-82269815D01*
X95821473Y-82217011D01*
X95811529Y-82147853D01*
X95840554Y-82084297D01*
X95861381Y-82065182D01*
X96014646Y-81953828D01*
X96153828Y-81814646D01*
X96269524Y-81655405D01*
X96358884Y-81480025D01*
X96419709Y-81292826D01*
X96450500Y-81098422D01*
X96450500Y-80901577D01*
X96419709Y-80707173D01*
X96383594Y-80596025D01*
X96358884Y-80519975D01*
X96358882Y-80519972D01*
X96358882Y-80519970D01*
X96309964Y-80423963D01*
X96269524Y-80344595D01*
X96153828Y-80185354D01*
X96014646Y-80046172D01*
X95921581Y-79978556D01*
X95855403Y-79930474D01*
X95678787Y-79840485D01*
X95627990Y-79792511D01*
X95611195Y-79724690D01*
X95633732Y-79658555D01*
X95678787Y-79619515D01*
X95855403Y-79529525D01*
X95855402Y-79529525D01*
X95855405Y-79529524D01*
X96014646Y-79413828D01*
X96153828Y-79274646D01*
X96269524Y-79115405D01*
X96358884Y-78940025D01*
X96419709Y-78752826D01*
X96427323Y-78704755D01*
X96450500Y-78558422D01*
X96450500Y-78361577D01*
X96419709Y-78167173D01*
X96365138Y-77999223D01*
X96358884Y-77979975D01*
X96358882Y-77979972D01*
X96358882Y-77979970D01*
X96283788Y-77832590D01*
X96269524Y-77804595D01*
X96153828Y-77645354D01*
X96014646Y-77506172D01*
X95855405Y-77390476D01*
X95680029Y-77301117D01*
X95492826Y-77240290D01*
X95298422Y-77209500D01*
X95298417Y-77209500D01*
X95101583Y-77209500D01*
X95101578Y-77209500D01*
X94907173Y-77240290D01*
X94719970Y-77301117D01*
X94544594Y-77390476D01*
X94466330Y-77447339D01*
X94385354Y-77506172D01*
X94385352Y-77506174D01*
X94385351Y-77506174D01*
X94246174Y-77645351D01*
X94246174Y-77645352D01*
X94246172Y-77645354D01*
X94130477Y-77804594D01*
X94127722Y-77808386D01*
X94072392Y-77851051D01*
X94027404Y-77859500D01*
X91372596Y-77859500D01*
X91305557Y-77839815D01*
X91272278Y-77808386D01*
X91269523Y-77804594D01*
X91153828Y-77645354D01*
X91014646Y-77506172D01*
X90855405Y-77390476D01*
X90680029Y-77301117D01*
X90492826Y-77240290D01*
X90298422Y-77209500D01*
X90298417Y-77209500D01*
X90101583Y-77209500D01*
X90101578Y-77209500D01*
X89907173Y-77240290D01*
X89719970Y-77301117D01*
X89544594Y-77390476D01*
X89466330Y-77447339D01*
X89385354Y-77506172D01*
X89385352Y-77506174D01*
X89385351Y-77506174D01*
X89246174Y-77645351D01*
X89246174Y-77645352D01*
X89246172Y-77645354D01*
X89209074Y-77696415D01*
X89130476Y-77804594D01*
X89041117Y-77979970D01*
X88980290Y-78167173D01*
X88949500Y-78361577D01*
X88949500Y-78384902D01*
X88929815Y-78451941D01*
X88913181Y-78472583D01*
X87262181Y-80123583D01*
X87200858Y-80157068D01*
X87131166Y-80152084D01*
X87075233Y-80110212D01*
X87050816Y-80044748D01*
X87050500Y-80035902D01*
X87050500Y-79842648D01*
X87018477Y-79640465D01*
X86955218Y-79445776D01*
X86921503Y-79379607D01*
X86862287Y-79263390D01*
X86854556Y-79252749D01*
X86741971Y-79097786D01*
X86597213Y-78953028D01*
X86431613Y-78832715D01*
X86431612Y-78832714D01*
X86431610Y-78832713D01*
X86367407Y-78800000D01*
X86249223Y-78739781D01*
X86054534Y-78676522D01*
X85879995Y-78648878D01*
X85852352Y-78644500D01*
X85647648Y-78644500D01*
X85623329Y-78648351D01*
X85445465Y-78676522D01*
X85250776Y-78739781D01*
X85068386Y-78832715D01*
X84902786Y-78953028D01*
X84758028Y-79097786D01*
X84637715Y-79263386D01*
X84544781Y-79445776D01*
X84481522Y-79640465D01*
X84454654Y-79810109D01*
X84449500Y-79842648D01*
X73552518Y-79842648D01*
X71107552Y-77397682D01*
X74700000Y-77397682D01*
X74700000Y-77602317D01*
X74732009Y-77804417D01*
X74795244Y-77999031D01*
X74888141Y-78181350D01*
X74888147Y-78181359D01*
X74920523Y-78225921D01*
X74920524Y-78225922D01*
X75600000Y-77546446D01*
X75600000Y-77552661D01*
X75627259Y-77654394D01*
X75679920Y-77745606D01*
X75754394Y-77820080D01*
X75845606Y-77872741D01*
X75947339Y-77900000D01*
X75953553Y-77900000D01*
X75274076Y-78579474D01*
X75318650Y-78611859D01*
X75500968Y-78704755D01*
X75695582Y-78767990D01*
X75897683Y-78800000D01*
X76102317Y-78800000D01*
X76304417Y-78767990D01*
X76499031Y-78704755D01*
X76681349Y-78611859D01*
X76725921Y-78579474D01*
X76046447Y-77900000D01*
X76052661Y-77900000D01*
X76154394Y-77872741D01*
X76245606Y-77820080D01*
X76320080Y-77745606D01*
X76372741Y-77654394D01*
X76400000Y-77552661D01*
X76400000Y-77546447D01*
X77079474Y-78225921D01*
X77111859Y-78181349D01*
X77204755Y-77999031D01*
X77267990Y-77804417D01*
X77300000Y-77602317D01*
X77300000Y-77397682D01*
X77299995Y-77397648D01*
X79699500Y-77397648D01*
X79699500Y-77602352D01*
X79699778Y-77604106D01*
X79731522Y-77804534D01*
X79794781Y-77999223D01*
X79858691Y-78124653D01*
X79887585Y-78181359D01*
X79887715Y-78181613D01*
X80008028Y-78347213D01*
X80152786Y-78491971D01*
X80273226Y-78579474D01*
X80318390Y-78612287D01*
X80434607Y-78671503D01*
X80500776Y-78705218D01*
X80500778Y-78705218D01*
X80500781Y-78705220D01*
X80605044Y-78739097D01*
X80695465Y-78768477D01*
X80796557Y-78784488D01*
X80897648Y-78800500D01*
X80897649Y-78800500D01*
X81102351Y-78800500D01*
X81102352Y-78800500D01*
X81304534Y-78768477D01*
X81499219Y-78705220D01*
X81681610Y-78612287D01*
X81774590Y-78544732D01*
X81847213Y-78491971D01*
X81847215Y-78491968D01*
X81847219Y-78491966D01*
X81991966Y-78347219D01*
X81991968Y-78347215D01*
X81991971Y-78347213D01*
X82044732Y-78274590D01*
X82112287Y-78181610D01*
X82205220Y-77999219D01*
X82268477Y-77804534D01*
X82300500Y-77602352D01*
X82300500Y-77397648D01*
X82278434Y-77258330D01*
X82268477Y-77195465D01*
X82237458Y-77100000D01*
X82205220Y-77000781D01*
X82205218Y-77000778D01*
X82205218Y-77000776D01*
X82158748Y-76909575D01*
X82112287Y-76818390D01*
X82080092Y-76774077D01*
X81991971Y-76652786D01*
X81847213Y-76508028D01*
X81681613Y-76387715D01*
X81681612Y-76387714D01*
X81681610Y-76387713D01*
X81585105Y-76338541D01*
X81499223Y-76294781D01*
X81304534Y-76231522D01*
X81129995Y-76203878D01*
X81102352Y-76199500D01*
X80897648Y-76199500D01*
X80873329Y-76203351D01*
X80695465Y-76231522D01*
X80500776Y-76294781D01*
X80318386Y-76387715D01*
X80152786Y-76508028D01*
X80008028Y-76652786D01*
X79887715Y-76818386D01*
X79794781Y-77000776D01*
X79731522Y-77195465D01*
X79704770Y-77364374D01*
X79699500Y-77397648D01*
X77299995Y-77397648D01*
X77267990Y-77195582D01*
X77204755Y-77000968D01*
X77111859Y-76818650D01*
X77079474Y-76774077D01*
X77079474Y-76774076D01*
X76400000Y-77453551D01*
X76400000Y-77447339D01*
X76372741Y-77345606D01*
X76320080Y-77254394D01*
X76245606Y-77179920D01*
X76154394Y-77127259D01*
X76052661Y-77100000D01*
X76046446Y-77100000D01*
X76725922Y-76420524D01*
X76725921Y-76420523D01*
X76681359Y-76388147D01*
X76681350Y-76388141D01*
X76499031Y-76295244D01*
X76304417Y-76232009D01*
X76102317Y-76200000D01*
X75897683Y-76200000D01*
X75695582Y-76232009D01*
X75500968Y-76295244D01*
X75318644Y-76388143D01*
X75274077Y-76420523D01*
X75274077Y-76420524D01*
X75953554Y-77100000D01*
X75947339Y-77100000D01*
X75845606Y-77127259D01*
X75754394Y-77179920D01*
X75679920Y-77254394D01*
X75627259Y-77345606D01*
X75600000Y-77447339D01*
X75600000Y-77453553D01*
X74920524Y-76774077D01*
X74920523Y-76774077D01*
X74888143Y-76818644D01*
X74795244Y-77000968D01*
X74732009Y-77195582D01*
X74700000Y-77397682D01*
X71107552Y-77397682D01*
X70401149Y-76691279D01*
X70367664Y-76629956D01*
X70372648Y-76560264D01*
X70414520Y-76504331D01*
X70450510Y-76485667D01*
X70544219Y-76455220D01*
X70726610Y-76362287D01*
X70819526Y-76294780D01*
X70892213Y-76241971D01*
X70892215Y-76241968D01*
X70892219Y-76241966D01*
X71036966Y-76097219D01*
X71036968Y-76097215D01*
X71036971Y-76097213D01*
X71153066Y-75937420D01*
X71157287Y-75931610D01*
X71164117Y-75918204D01*
X71212091Y-75867409D01*
X71274602Y-75850500D01*
X73678331Y-75850500D01*
X73678347Y-75850501D01*
X73685943Y-75850501D01*
X73844054Y-75850501D01*
X73844057Y-75850501D01*
X73996785Y-75809577D01*
X74072113Y-75766086D01*
X74098881Y-75750632D01*
X74133709Y-75730524D01*
X74133708Y-75730524D01*
X74133716Y-75730520D01*
X74245161Y-75619074D01*
X74306480Y-75585592D01*
X74371157Y-75588827D01*
X74385466Y-75593477D01*
X74587648Y-75625500D01*
X74587649Y-75625500D01*
X74792351Y-75625500D01*
X74792352Y-75625500D01*
X74994534Y-75593477D01*
X75189219Y-75530220D01*
X75371610Y-75437287D01*
X75488514Y-75352352D01*
X75537213Y-75316971D01*
X75537215Y-75316968D01*
X75537219Y-75316966D01*
X75681966Y-75172219D01*
X75681968Y-75172215D01*
X75681971Y-75172213D01*
X75755848Y-75070528D01*
X75802287Y-75006610D01*
X75895220Y-74824219D01*
X75958477Y-74629534D01*
X75990500Y-74427352D01*
X75990500Y-74222648D01*
X75977371Y-74139753D01*
X75958477Y-74020465D01*
X75910592Y-73873092D01*
X75895220Y-73825781D01*
X75895218Y-73825778D01*
X75895218Y-73825776D01*
X75861503Y-73759607D01*
X75802287Y-73643390D01*
X75794556Y-73632749D01*
X75681971Y-73477786D01*
X75537213Y-73333028D01*
X75371614Y-73212715D01*
X75353240Y-73203353D01*
X75278917Y-73165483D01*
X75228123Y-73117511D01*
X75211328Y-73049690D01*
X75233865Y-72983555D01*
X75278917Y-72944516D01*
X75371610Y-72897287D01*
X75392770Y-72881913D01*
X75537213Y-72776971D01*
X75537215Y-72776968D01*
X75537219Y-72776966D01*
X75681966Y-72632219D01*
X75681968Y-72632215D01*
X75681971Y-72632213D01*
X75778595Y-72499219D01*
X75802287Y-72466610D01*
X75895220Y-72284219D01*
X75958477Y-72089534D01*
X75990500Y-71887352D01*
X75990500Y-71682648D01*
X75978426Y-71606416D01*
X75958477Y-71480465D01*
X75920251Y-71362819D01*
X75918256Y-71292977D01*
X75954336Y-71233144D01*
X76017037Y-71202316D01*
X76038182Y-71200500D01*
X78284903Y-71200500D01*
X78351942Y-71220185D01*
X78372584Y-71236819D01*
X81015921Y-73880157D01*
X81049406Y-73941480D01*
X81046173Y-74006149D01*
X81041523Y-74020460D01*
X81041523Y-74020462D01*
X81017756Y-74170523D01*
X81009500Y-74222648D01*
X81009500Y-74427352D01*
X81010258Y-74432135D01*
X81041522Y-74629534D01*
X81104781Y-74824223D01*
X81166618Y-74945582D01*
X81188457Y-74988445D01*
X81197715Y-75006613D01*
X81318028Y-75172213D01*
X81462786Y-75316971D01*
X81583116Y-75404394D01*
X81628390Y-75437287D01*
X81742847Y-75495606D01*
X81810776Y-75530218D01*
X81810778Y-75530218D01*
X81810781Y-75530220D01*
X81856017Y-75544918D01*
X82005465Y-75593477D01*
X82069082Y-75603553D01*
X82207648Y-75625500D01*
X82207649Y-75625500D01*
X82412351Y-75625500D01*
X82412352Y-75625500D01*
X82614534Y-75593477D01*
X82628842Y-75588827D01*
X82698679Y-75586831D01*
X82754841Y-75619077D01*
X82866284Y-75730520D01*
X82866286Y-75730521D01*
X82866290Y-75730524D01*
X83003209Y-75809573D01*
X83003212Y-75809575D01*
X83003216Y-75809577D01*
X83155943Y-75850501D01*
X83155945Y-75850501D01*
X83321654Y-75850501D01*
X83321670Y-75850500D01*
X85725398Y-75850500D01*
X85792437Y-75870185D01*
X85835883Y-75918205D01*
X85842715Y-75931614D01*
X85963028Y-76097213D01*
X86107786Y-76241971D01*
X86240709Y-76338543D01*
X86273390Y-76362287D01*
X86346425Y-76399500D01*
X86455776Y-76455218D01*
X86455778Y-76455218D01*
X86455781Y-76455220D01*
X86549487Y-76485667D01*
X86650465Y-76518477D01*
X86678555Y-76522926D01*
X86852648Y-76550500D01*
X86852649Y-76550500D01*
X87057351Y-76550500D01*
X87057352Y-76550500D01*
X87259534Y-76518477D01*
X87454219Y-76455220D01*
X87636610Y-76362287D01*
X87729590Y-76294732D01*
X87802213Y-76241971D01*
X87802215Y-76241968D01*
X87802219Y-76241966D01*
X87946966Y-76097219D01*
X87946968Y-76097215D01*
X87946971Y-76097213D01*
X88063066Y-75937420D01*
X88067287Y-75931610D01*
X88114516Y-75838917D01*
X88162489Y-75788123D01*
X88230310Y-75771328D01*
X88296445Y-75793865D01*
X88335483Y-75838917D01*
X88375883Y-75918205D01*
X88382715Y-75931614D01*
X88503028Y-76097213D01*
X88647786Y-76241971D01*
X88780709Y-76338543D01*
X88813390Y-76362287D01*
X88886425Y-76399500D01*
X88995776Y-76455218D01*
X88995778Y-76455218D01*
X88995781Y-76455220D01*
X89089487Y-76485667D01*
X89190465Y-76518477D01*
X89218555Y-76522926D01*
X89392648Y-76550500D01*
X89392649Y-76550500D01*
X89597351Y-76550500D01*
X89597352Y-76550500D01*
X89799534Y-76518477D01*
X89813842Y-76513827D01*
X89829054Y-76513392D01*
X89843315Y-76508074D01*
X89863268Y-76512414D01*
X89883682Y-76511831D01*
X89897769Y-76519920D01*
X89911588Y-76522926D01*
X89939842Y-76544077D01*
X90110139Y-76714374D01*
X90110149Y-76714385D01*
X90114479Y-76718715D01*
X90114480Y-76718716D01*
X90226284Y-76830520D01*
X90226286Y-76830521D01*
X90226290Y-76830524D01*
X90285104Y-76864480D01*
X90285109Y-76864482D01*
X90363209Y-76909574D01*
X90363210Y-76909575D01*
X90363212Y-76909575D01*
X90363215Y-76909577D01*
X90515943Y-76950501D01*
X90515946Y-76950501D01*
X90681653Y-76950501D01*
X90681669Y-76950500D01*
X93823966Y-76950500D01*
X93823982Y-76950501D01*
X93831578Y-76950501D01*
X93989689Y-76950501D01*
X93989692Y-76950501D01*
X94142420Y-76909577D01*
X94220528Y-76864481D01*
X94279351Y-76830520D01*
X94391155Y-76718716D01*
X94391155Y-76718714D01*
X94401359Y-76708511D01*
X94401362Y-76708506D01*
X95035520Y-76074351D01*
X95114577Y-75937419D01*
X95155501Y-75784692D01*
X95155501Y-75784689D01*
X95156562Y-75776633D01*
X95158558Y-75776895D01*
X95175186Y-75720268D01*
X95191820Y-75699626D01*
X95595000Y-75296446D01*
X95595000Y-75302661D01*
X95622259Y-75404394D01*
X95674920Y-75495606D01*
X95749394Y-75570080D01*
X95840606Y-75622741D01*
X95942339Y-75650000D01*
X95948553Y-75650000D01*
X95269076Y-76329474D01*
X95313650Y-76361859D01*
X95495968Y-76454755D01*
X95690582Y-76517990D01*
X95892683Y-76550000D01*
X96097317Y-76550000D01*
X96299417Y-76517990D01*
X96494031Y-76454755D01*
X96676349Y-76361859D01*
X96720921Y-76329474D01*
X96041447Y-75650000D01*
X96047661Y-75650000D01*
X96149394Y-75622741D01*
X96240606Y-75570080D01*
X96315080Y-75495606D01*
X96367741Y-75404394D01*
X96395000Y-75302661D01*
X96395000Y-75296447D01*
X97074474Y-75975921D01*
X97106859Y-75931349D01*
X97199755Y-75749031D01*
X97262990Y-75554417D01*
X97295000Y-75352317D01*
X97295000Y-75147682D01*
X97262990Y-74945582D01*
X97199755Y-74750968D01*
X97106859Y-74568650D01*
X97074474Y-74524077D01*
X97074474Y-74524076D01*
X96395000Y-75203551D01*
X96395000Y-75197339D01*
X96367741Y-75095606D01*
X96315080Y-75004394D01*
X96240606Y-74929920D01*
X96149394Y-74877259D01*
X96047661Y-74850000D01*
X96041446Y-74850000D01*
X96720922Y-74170524D01*
X96720921Y-74170523D01*
X96676359Y-74138147D01*
X96676350Y-74138141D01*
X96494031Y-74045244D01*
X96299417Y-73982009D01*
X96097317Y-73950000D01*
X95892683Y-73950000D01*
X95690582Y-73982009D01*
X95495965Y-74045245D01*
X95335794Y-74126857D01*
X95267125Y-74139753D01*
X95202385Y-74113476D01*
X95162128Y-74056370D01*
X95155500Y-74016372D01*
X95155500Y-73234187D01*
X95175185Y-73167148D01*
X95227989Y-73121393D01*
X95297147Y-73111449D01*
X95335795Y-73123703D01*
X95495771Y-73205216D01*
X95495776Y-73205217D01*
X95495781Y-73205220D01*
X95603888Y-73240346D01*
X95690465Y-73268477D01*
X95718555Y-73272926D01*
X95892648Y-73300500D01*
X95892649Y-73300500D01*
X96097351Y-73300500D01*
X96097352Y-73300500D01*
X96299534Y-73268477D01*
X96494219Y-73205220D01*
X96676610Y-73112287D01*
X96796275Y-73025346D01*
X96842213Y-72991971D01*
X96842215Y-72991968D01*
X96842219Y-72991966D01*
X96986966Y-72847219D01*
X96986968Y-72847215D01*
X96986971Y-72847213D01*
X97039732Y-72774590D01*
X97107287Y-72681610D01*
X97200220Y-72499219D01*
X97263477Y-72304534D01*
X97295500Y-72102352D01*
X97295500Y-71897648D01*
X97263477Y-71695466D01*
X97263032Y-71694097D01*
X97200218Y-71500776D01*
X97154515Y-71411080D01*
X97107287Y-71318390D01*
X97088824Y-71292977D01*
X96986971Y-71152786D01*
X96842213Y-71008028D01*
X96676613Y-70887715D01*
X96676612Y-70887714D01*
X96676610Y-70887713D01*
X96619653Y-70858691D01*
X96494223Y-70794781D01*
X96299534Y-70731522D01*
X96124995Y-70703878D01*
X96097352Y-70699500D01*
X95892648Y-70699500D01*
X95868329Y-70703351D01*
X95690465Y-70731522D01*
X95495776Y-70794781D01*
X95313386Y-70887715D01*
X95147786Y-71008028D01*
X95003028Y-71152786D01*
X94882715Y-71318386D01*
X94835485Y-71411080D01*
X94787510Y-71461876D01*
X94719689Y-71478671D01*
X94653554Y-71456134D01*
X94614515Y-71411080D01*
X94599084Y-71380795D01*
X94567287Y-71318390D01*
X94548824Y-71292977D01*
X94446971Y-71152786D01*
X94302213Y-71008028D01*
X94136613Y-70887715D01*
X94136612Y-70887714D01*
X94136610Y-70887713D01*
X94079653Y-70858691D01*
X93954223Y-70794781D01*
X93759534Y-70731522D01*
X93584995Y-70703878D01*
X93557352Y-70699500D01*
X93352648Y-70699500D01*
X93328329Y-70703351D01*
X93150465Y-70731522D01*
X92955776Y-70794781D01*
X92773386Y-70887715D01*
X92607786Y-71008028D01*
X92463028Y-71152786D01*
X92342715Y-71318386D01*
X92249781Y-71500776D01*
X92186522Y-71695465D01*
X92154500Y-71897648D01*
X92154500Y-72102351D01*
X92186522Y-72304534D01*
X92249781Y-72499223D01*
X92301385Y-72600500D01*
X92321259Y-72639505D01*
X92342715Y-72681613D01*
X92463028Y-72847213D01*
X92607786Y-72991971D01*
X92762749Y-73104556D01*
X92773390Y-73112287D01*
X92877797Y-73165485D01*
X92955776Y-73205218D01*
X92955778Y-73205218D01*
X92955781Y-73205220D01*
X93044932Y-73234187D01*
X93150465Y-73268477D01*
X93178555Y-73272926D01*
X93352648Y-73300500D01*
X93352649Y-73300500D01*
X93557351Y-73300500D01*
X93557352Y-73300500D01*
X93759534Y-73268477D01*
X93773842Y-73263827D01*
X93789054Y-73263392D01*
X93803315Y-73258074D01*
X93823268Y-73262414D01*
X93843682Y-73261831D01*
X93857769Y-73269920D01*
X93871588Y-73272926D01*
X93899842Y-73294077D01*
X93918181Y-73312416D01*
X93951666Y-73373739D01*
X93954500Y-73400097D01*
X93954500Y-73874199D01*
X93934815Y-73941238D01*
X93882011Y-73986993D01*
X93812853Y-73996937D01*
X93792183Y-73992130D01*
X93759542Y-73981524D01*
X93759535Y-73981523D01*
X93658443Y-73965511D01*
X93557352Y-73949500D01*
X93352648Y-73949500D01*
X93328329Y-73953351D01*
X93150465Y-73981522D01*
X92955776Y-74044781D01*
X92773386Y-74137715D01*
X92607786Y-74258028D01*
X92463028Y-74402786D01*
X92342715Y-74568385D01*
X92335883Y-74581795D01*
X92287909Y-74632591D01*
X92225398Y-74649500D01*
X91489462Y-74649500D01*
X91422423Y-74629815D01*
X91401781Y-74613181D01*
X90176955Y-73388355D01*
X90169886Y-73381286D01*
X90169885Y-73381284D01*
X90114635Y-73326034D01*
X90085637Y-73272926D01*
X90081153Y-73264714D01*
X90086137Y-73195022D01*
X90110083Y-73163034D01*
X90128009Y-73139088D01*
X90128013Y-73139086D01*
X90146025Y-73127871D01*
X90166357Y-73117511D01*
X90176610Y-73112287D01*
X90236418Y-73068834D01*
X90342213Y-72991971D01*
X90342215Y-72991968D01*
X90342219Y-72991966D01*
X90486966Y-72847219D01*
X90486968Y-72847215D01*
X90486971Y-72847213D01*
X90539732Y-72774590D01*
X90607287Y-72681610D01*
X90700220Y-72499219D01*
X90763477Y-72304534D01*
X90795500Y-72102352D01*
X90795500Y-71897648D01*
X90763477Y-71695466D01*
X90763032Y-71694097D01*
X90700218Y-71500776D01*
X90654515Y-71411080D01*
X90607287Y-71318390D01*
X90588824Y-71292977D01*
X90486971Y-71152786D01*
X90342213Y-71008028D01*
X90176613Y-70887715D01*
X90176612Y-70887714D01*
X90176610Y-70887713D01*
X90119653Y-70858691D01*
X89994223Y-70794781D01*
X89799534Y-70731522D01*
X89624995Y-70703878D01*
X89597352Y-70699500D01*
X89392648Y-70699500D01*
X89352108Y-70705921D01*
X89190464Y-70731523D01*
X89190461Y-70731523D01*
X89129520Y-70751325D01*
X89059679Y-70753320D01*
X88999846Y-70717240D01*
X88969018Y-70654539D01*
X88976983Y-70585125D01*
X89003519Y-70545714D01*
X89462416Y-70086819D01*
X89523739Y-70053334D01*
X89550097Y-70050500D01*
X89597351Y-70050500D01*
X89597352Y-70050500D01*
X89799534Y-70018477D01*
X89994219Y-69955220D01*
X90176610Y-69862287D01*
X90296501Y-69775182D01*
X90342213Y-69741971D01*
X90342215Y-69741968D01*
X90342219Y-69741966D01*
X90486966Y-69597219D01*
X90486968Y-69597215D01*
X90486971Y-69597213D01*
X90539732Y-69524590D01*
X90607287Y-69431610D01*
X90700220Y-69249219D01*
X90763477Y-69054534D01*
X90795500Y-68852352D01*
X90795500Y-68647682D01*
X92155000Y-68647682D01*
X92155000Y-68852317D01*
X92187009Y-69054417D01*
X92250244Y-69249031D01*
X92343141Y-69431350D01*
X92343147Y-69431359D01*
X92375523Y-69475921D01*
X92375524Y-69475922D01*
X93055000Y-68796446D01*
X93055000Y-68802661D01*
X93082259Y-68904394D01*
X93134920Y-68995606D01*
X93209394Y-69070080D01*
X93300606Y-69122741D01*
X93402339Y-69150000D01*
X93408553Y-69150000D01*
X92729076Y-69829474D01*
X92773650Y-69861859D01*
X92955968Y-69954755D01*
X93150582Y-70017990D01*
X93352683Y-70050000D01*
X93557317Y-70050000D01*
X93759417Y-70017990D01*
X93954031Y-69954755D01*
X94136349Y-69861859D01*
X94180921Y-69829474D01*
X93501447Y-69150000D01*
X93507661Y-69150000D01*
X93609394Y-69122741D01*
X93700606Y-69070080D01*
X93775080Y-68995606D01*
X93827741Y-68904394D01*
X93855000Y-68802661D01*
X93855000Y-68796447D01*
X94534474Y-69475921D01*
X94566861Y-69431347D01*
X94566861Y-69431346D01*
X94614234Y-69338371D01*
X94662208Y-69287575D01*
X94730028Y-69270779D01*
X94796164Y-69293316D01*
X94835203Y-69338369D01*
X94882713Y-69431611D01*
X95003028Y-69597213D01*
X95147786Y-69741971D01*
X95302749Y-69854556D01*
X95313390Y-69862287D01*
X95412902Y-69912991D01*
X95495776Y-69955218D01*
X95495778Y-69955218D01*
X95495781Y-69955220D01*
X95556818Y-69975052D01*
X95690465Y-70018477D01*
X95791557Y-70034488D01*
X95892648Y-70050500D01*
X95892649Y-70050500D01*
X96097351Y-70050500D01*
X96097352Y-70050500D01*
X96299534Y-70018477D01*
X96494219Y-69955220D01*
X96676610Y-69862287D01*
X96796501Y-69775182D01*
X96842213Y-69741971D01*
X96842215Y-69741968D01*
X96842219Y-69741966D01*
X96986966Y-69597219D01*
X96986968Y-69597215D01*
X96986971Y-69597213D01*
X97039732Y-69524590D01*
X97107287Y-69431610D01*
X97200220Y-69249219D01*
X97263477Y-69054534D01*
X97295500Y-68852352D01*
X97295500Y-68647648D01*
X97274899Y-68517578D01*
X97263477Y-68445465D01*
X97206089Y-68268845D01*
X97200220Y-68250781D01*
X97200218Y-68250778D01*
X97200218Y-68250776D01*
X97154794Y-68161628D01*
X97107287Y-68068390D01*
X97075092Y-68024077D01*
X96986971Y-67902786D01*
X96842213Y-67758028D01*
X96676613Y-67637715D01*
X96676612Y-67637714D01*
X96676610Y-67637713D01*
X96608914Y-67603220D01*
X96494223Y-67544781D01*
X96299534Y-67481522D01*
X96124995Y-67453878D01*
X96097352Y-67449500D01*
X95892648Y-67449500D01*
X95868329Y-67453351D01*
X95690465Y-67481522D01*
X95495776Y-67544781D01*
X95313386Y-67637715D01*
X95147786Y-67758028D01*
X95003028Y-67902786D01*
X94882713Y-68068388D01*
X94835203Y-68161630D01*
X94787228Y-68212426D01*
X94719407Y-68229220D01*
X94653272Y-68206682D01*
X94614234Y-68161628D01*
X94566861Y-68068652D01*
X94534474Y-68024077D01*
X94534474Y-68024076D01*
X93855000Y-68703551D01*
X93855000Y-68697339D01*
X93827741Y-68595606D01*
X93775080Y-68504394D01*
X93700606Y-68429920D01*
X93609394Y-68377259D01*
X93507661Y-68350000D01*
X93501446Y-68350000D01*
X94180922Y-67670524D01*
X94180921Y-67670523D01*
X94136359Y-67638147D01*
X94136350Y-67638141D01*
X93954031Y-67545244D01*
X93759417Y-67482009D01*
X93557317Y-67450000D01*
X93352683Y-67450000D01*
X93150582Y-67482009D01*
X92955968Y-67545244D01*
X92773644Y-67638143D01*
X92729077Y-67670523D01*
X92729077Y-67670524D01*
X93408554Y-68350000D01*
X93402339Y-68350000D01*
X93300606Y-68377259D01*
X93209394Y-68429920D01*
X93134920Y-68504394D01*
X93082259Y-68595606D01*
X93055000Y-68697339D01*
X93055000Y-68703553D01*
X92375524Y-68024077D01*
X92375523Y-68024077D01*
X92343143Y-68068644D01*
X92250244Y-68250968D01*
X92187009Y-68445582D01*
X92155000Y-68647682D01*
X90795500Y-68647682D01*
X90795500Y-68647648D01*
X90774899Y-68517578D01*
X90763477Y-68445465D01*
X90706089Y-68268845D01*
X90700220Y-68250781D01*
X90700218Y-68250778D01*
X90700218Y-68250776D01*
X90654794Y-68161628D01*
X90607287Y-68068390D01*
X90575092Y-68024077D01*
X90486971Y-67902786D01*
X90342213Y-67758028D01*
X90176613Y-67637715D01*
X90176612Y-67637714D01*
X90176610Y-67637713D01*
X90108914Y-67603220D01*
X89994223Y-67544781D01*
X89799534Y-67481522D01*
X89624995Y-67453878D01*
X89597352Y-67449500D01*
X89392648Y-67449500D01*
X89368329Y-67453351D01*
X89190465Y-67481522D01*
X88995776Y-67544781D01*
X88813386Y-67637715D01*
X88647786Y-67758028D01*
X88503028Y-67902786D01*
X88382713Y-68068388D01*
X88335203Y-68161630D01*
X88287228Y-68212426D01*
X88219407Y-68229220D01*
X88153272Y-68206682D01*
X88114234Y-68161628D01*
X88066861Y-68068652D01*
X88034474Y-68024077D01*
X88034474Y-68024076D01*
X87355000Y-68703553D01*
X87355000Y-68697339D01*
X87327741Y-68595606D01*
X87275080Y-68504394D01*
X87200606Y-68429920D01*
X87109394Y-68377259D01*
X87007661Y-68350000D01*
X87001446Y-68350000D01*
X87680922Y-67670524D01*
X87680921Y-67670523D01*
X87636359Y-67638147D01*
X87636350Y-67638141D01*
X87454031Y-67545244D01*
X87259417Y-67482009D01*
X87057317Y-67450000D01*
X86852683Y-67450000D01*
X86650582Y-67482009D01*
X86455968Y-67545244D01*
X86273644Y-67638143D01*
X86229077Y-67670523D01*
X86229077Y-67670524D01*
X86908554Y-68350000D01*
X86902339Y-68350000D01*
X86800606Y-68377259D01*
X86709394Y-68429920D01*
X86634920Y-68504394D01*
X86582259Y-68595606D01*
X86555000Y-68697339D01*
X86555000Y-68703553D01*
X85875524Y-68024077D01*
X85875523Y-68024077D01*
X85843143Y-68068644D01*
X85750244Y-68250968D01*
X85687009Y-68445582D01*
X85655000Y-68647682D01*
X85655000Y-68852317D01*
X85687009Y-69054417D01*
X85750244Y-69249031D01*
X85843141Y-69431350D01*
X85843147Y-69431359D01*
X85875523Y-69475921D01*
X85875524Y-69475922D01*
X86555000Y-68796446D01*
X86555000Y-68802661D01*
X86582259Y-68904394D01*
X86634920Y-68995606D01*
X86709394Y-69070080D01*
X86800606Y-69122741D01*
X86902339Y-69150000D01*
X86908553Y-69150000D01*
X86229076Y-69829474D01*
X86273653Y-69861861D01*
X86279844Y-69865016D01*
X86330640Y-69912991D01*
X86347434Y-69980812D01*
X86324896Y-70046947D01*
X86270180Y-70090398D01*
X86223548Y-70099500D01*
X85700098Y-70099500D01*
X85633059Y-70079815D01*
X85612417Y-70063181D01*
X84946920Y-69397684D01*
X83466415Y-67917180D01*
X83432931Y-67855858D01*
X83437915Y-67786166D01*
X83479787Y-67730233D01*
X83545251Y-67705816D01*
X83554097Y-67705500D01*
X83693542Y-67705500D01*
X83724566Y-67699328D01*
X83790188Y-67686275D01*
X83886836Y-67667051D01*
X83940165Y-67644961D01*
X84068914Y-67591632D01*
X84232782Y-67482139D01*
X84372139Y-67342782D01*
X84372139Y-67342780D01*
X84382347Y-67332573D01*
X84382349Y-67332570D01*
X85617595Y-66097323D01*
X85678916Y-66063840D01*
X85748608Y-66068824D01*
X85804541Y-66110696D01*
X85815758Y-66128710D01*
X85842713Y-66181611D01*
X85963028Y-66347213D01*
X86107786Y-66491971D01*
X86260123Y-66602648D01*
X86273390Y-66612287D01*
X86389607Y-66671503D01*
X86455776Y-66705218D01*
X86455778Y-66705218D01*
X86455781Y-66705220D01*
X86560137Y-66739127D01*
X86650465Y-66768477D01*
X86751557Y-66784488D01*
X86852648Y-66800500D01*
X86852649Y-66800500D01*
X87057351Y-66800500D01*
X87057352Y-66800500D01*
X87259534Y-66768477D01*
X87454219Y-66705220D01*
X87636610Y-66612287D01*
X87729590Y-66544732D01*
X87802213Y-66491971D01*
X87802215Y-66491968D01*
X87802219Y-66491966D01*
X87946966Y-66347219D01*
X87946968Y-66347215D01*
X87946971Y-66347213D01*
X88067284Y-66181614D01*
X88067286Y-66181611D01*
X88067287Y-66181610D01*
X88114516Y-66088917D01*
X88162489Y-66038123D01*
X88230310Y-66021328D01*
X88296445Y-66043865D01*
X88335483Y-66088917D01*
X88367128Y-66151023D01*
X88382715Y-66181614D01*
X88503028Y-66347213D01*
X88647786Y-66491971D01*
X88800123Y-66602648D01*
X88813390Y-66612287D01*
X88929607Y-66671503D01*
X88995776Y-66705218D01*
X88995778Y-66705218D01*
X88995781Y-66705220D01*
X89100137Y-66739127D01*
X89190465Y-66768477D01*
X89291557Y-66784488D01*
X89392648Y-66800500D01*
X89392649Y-66800500D01*
X89597351Y-66800500D01*
X89597352Y-66800500D01*
X89799534Y-66768477D01*
X89994219Y-66705220D01*
X90176610Y-66612287D01*
X90269590Y-66544732D01*
X90342213Y-66491971D01*
X90342215Y-66491968D01*
X90342219Y-66491966D01*
X90486966Y-66347219D01*
X90486968Y-66347215D01*
X90486971Y-66347213D01*
X90540897Y-66272989D01*
X90607287Y-66181610D01*
X90700220Y-65999219D01*
X90763477Y-65804534D01*
X90795500Y-65602352D01*
X90795500Y-65397648D01*
X92154500Y-65397648D01*
X92154500Y-65602352D01*
X92157704Y-65622580D01*
X92186522Y-65804534D01*
X92249781Y-65999223D01*
X92306580Y-66110696D01*
X92317948Y-66133007D01*
X92342715Y-66181613D01*
X92463028Y-66347213D01*
X92607786Y-66491971D01*
X92760123Y-66602648D01*
X92773390Y-66612287D01*
X92889607Y-66671503D01*
X92955776Y-66705218D01*
X92955778Y-66705218D01*
X92955781Y-66705220D01*
X93060137Y-66739127D01*
X93150465Y-66768477D01*
X93251557Y-66784488D01*
X93352648Y-66800500D01*
X93352649Y-66800500D01*
X93557351Y-66800500D01*
X93557352Y-66800500D01*
X93759534Y-66768477D01*
X93954219Y-66705220D01*
X94136610Y-66612287D01*
X94229590Y-66544732D01*
X94302213Y-66491971D01*
X94302215Y-66491968D01*
X94302219Y-66491966D01*
X94446966Y-66347219D01*
X94446968Y-66347215D01*
X94446971Y-66347213D01*
X94567284Y-66181614D01*
X94567286Y-66181611D01*
X94567287Y-66181610D01*
X94614516Y-66088917D01*
X94662489Y-66038123D01*
X94730310Y-66021328D01*
X94796445Y-66043865D01*
X94835483Y-66088917D01*
X94867128Y-66151023D01*
X94882715Y-66181614D01*
X95003028Y-66347213D01*
X95147786Y-66491971D01*
X95300123Y-66602648D01*
X95313390Y-66612287D01*
X95429607Y-66671503D01*
X95495776Y-66705218D01*
X95495778Y-66705218D01*
X95495781Y-66705220D01*
X95600137Y-66739127D01*
X95690465Y-66768477D01*
X95791557Y-66784488D01*
X95892648Y-66800500D01*
X95892649Y-66800500D01*
X96097351Y-66800500D01*
X96097352Y-66800500D01*
X96299534Y-66768477D01*
X96494219Y-66705220D01*
X96676610Y-66612287D01*
X96769590Y-66544732D01*
X96842213Y-66491971D01*
X96842215Y-66491968D01*
X96842219Y-66491966D01*
X96986966Y-66347219D01*
X96986968Y-66347215D01*
X96986971Y-66347213D01*
X97040897Y-66272989D01*
X97107287Y-66181610D01*
X97200220Y-65999219D01*
X97263477Y-65804534D01*
X97295500Y-65602352D01*
X97295500Y-65397648D01*
X97287257Y-65345606D01*
X97263477Y-65195465D01*
X97206801Y-65021036D01*
X97200220Y-65000781D01*
X97200218Y-65000778D01*
X97200218Y-65000776D01*
X97143774Y-64890000D01*
X97107287Y-64818390D01*
X97075092Y-64774077D01*
X96986971Y-64652786D01*
X96842213Y-64508028D01*
X96676613Y-64387715D01*
X96676612Y-64387714D01*
X96676610Y-64387713D01*
X96619653Y-64358691D01*
X96494223Y-64294781D01*
X96299534Y-64231522D01*
X96124995Y-64203878D01*
X96097352Y-64199500D01*
X95892648Y-64199500D01*
X95868329Y-64203351D01*
X95690465Y-64231522D01*
X95495776Y-64294781D01*
X95313386Y-64387715D01*
X95147786Y-64508028D01*
X95003028Y-64652786D01*
X94882715Y-64818386D01*
X94835485Y-64911080D01*
X94787510Y-64961876D01*
X94719689Y-64978671D01*
X94653554Y-64956134D01*
X94614515Y-64911080D01*
X94603774Y-64890000D01*
X94567287Y-64818390D01*
X94535092Y-64774077D01*
X94446971Y-64652786D01*
X94302213Y-64508028D01*
X94136613Y-64387715D01*
X94136612Y-64387714D01*
X94136610Y-64387713D01*
X94079653Y-64358691D01*
X93954223Y-64294781D01*
X93759534Y-64231522D01*
X93584995Y-64203878D01*
X93557352Y-64199500D01*
X93352648Y-64199500D01*
X93328329Y-64203351D01*
X93150465Y-64231522D01*
X92955776Y-64294781D01*
X92773386Y-64387715D01*
X92607786Y-64508028D01*
X92463028Y-64652786D01*
X92342715Y-64818386D01*
X92249781Y-65000776D01*
X92186522Y-65195465D01*
X92154500Y-65397648D01*
X90795500Y-65397648D01*
X90787257Y-65345606D01*
X90763477Y-65195465D01*
X90706801Y-65021036D01*
X90700220Y-65000781D01*
X90700218Y-65000778D01*
X90700218Y-65000776D01*
X90643774Y-64890000D01*
X90607287Y-64818390D01*
X90575092Y-64774077D01*
X90486971Y-64652786D01*
X90342213Y-64508028D01*
X90176613Y-64387715D01*
X90176612Y-64387714D01*
X90176610Y-64387713D01*
X90119653Y-64358691D01*
X89994223Y-64294781D01*
X89799534Y-64231522D01*
X89624995Y-64203878D01*
X89597352Y-64199500D01*
X89404096Y-64199500D01*
X89337057Y-64179815D01*
X89291302Y-64127011D01*
X89281358Y-64057853D01*
X89310383Y-63994297D01*
X89316415Y-63987819D01*
X90298469Y-63005765D01*
X91358506Y-61945728D01*
X91358511Y-61945724D01*
X91368714Y-61935520D01*
X91368716Y-61935520D01*
X91480520Y-61823716D01*
X91507061Y-61777744D01*
X91557623Y-61729533D01*
X91626230Y-61716308D01*
X91687333Y-61739430D01*
X91700317Y-61748864D01*
X91871493Y-61836083D01*
X91915865Y-61850500D01*
X92054199Y-61895447D01*
X92243945Y-61925500D01*
X92243946Y-61925500D01*
X92436054Y-61925500D01*
X92436055Y-61925500D01*
X92625801Y-61895447D01*
X92808509Y-61836082D01*
X92979681Y-61748865D01*
X93135102Y-61635945D01*
X93270945Y-61500102D01*
X93383865Y-61344681D01*
X93471082Y-61173509D01*
X93471084Y-61173504D01*
X93492069Y-61108919D01*
X93531506Y-61051243D01*
X93595864Y-61024044D01*
X93664711Y-61035958D01*
X93716187Y-61083202D01*
X93727931Y-61108919D01*
X93748915Y-61173504D01*
X93748918Y-61173509D01*
X93836135Y-61344681D01*
X93949055Y-61500102D01*
X94084898Y-61635945D01*
X94240319Y-61748865D01*
X94411491Y-61836082D01*
X94411493Y-61836083D01*
X94455865Y-61850500D01*
X94594199Y-61895447D01*
X94783945Y-61925500D01*
X94783946Y-61925500D01*
X94976054Y-61925500D01*
X94976055Y-61925500D01*
X95165801Y-61895447D01*
X95348509Y-61836082D01*
X95519681Y-61748865D01*
X95675102Y-61635945D01*
X95810945Y-61500102D01*
X95923865Y-61344681D01*
X96011082Y-61173509D01*
X96070447Y-60990801D01*
X96100500Y-60801055D01*
X96100500Y-60608945D01*
X96070447Y-60419199D01*
X96033402Y-60305185D01*
X96011083Y-60236493D01*
X95951835Y-60120213D01*
X95923865Y-60065319D01*
X95810945Y-59909898D01*
X95675102Y-59774055D01*
X95519681Y-59661135D01*
X95485114Y-59643522D01*
X95348506Y-59573916D01*
X95165802Y-59514553D01*
X95054762Y-59496966D01*
X94976055Y-59484500D01*
X94783945Y-59484500D01*
X94720696Y-59494517D01*
X94594197Y-59514553D01*
X94411493Y-59573916D01*
X94240318Y-59661135D01*
X94170919Y-59711557D01*
X94084898Y-59774055D01*
X94084896Y-59774057D01*
X94084895Y-59774057D01*
X93949057Y-59909895D01*
X93949057Y-59909896D01*
X93949055Y-59909898D01*
X93905468Y-59969890D01*
X93836135Y-60065318D01*
X93748916Y-60236493D01*
X93727931Y-60301081D01*
X93688494Y-60358756D01*
X93624135Y-60385955D01*
X93555289Y-60374041D01*
X93503813Y-60326797D01*
X93492069Y-60301081D01*
X93471083Y-60236493D01*
X93411835Y-60120213D01*
X93383865Y-60065319D01*
X93270945Y-59909898D01*
X93135102Y-59774055D01*
X92979681Y-59661135D01*
X92945114Y-59643522D01*
X92808506Y-59573916D01*
X92625802Y-59514553D01*
X92514762Y-59496966D01*
X92436055Y-59484500D01*
X92414784Y-59484500D01*
X92393538Y-59478261D01*
X92371452Y-59476682D01*
X92360668Y-59468609D01*
X92347745Y-59464815D01*
X92333246Y-59448082D01*
X92315518Y-59434812D01*
X92310809Y-59422189D01*
X92301990Y-59412011D01*
X92298838Y-59390095D01*
X92291100Y-59369348D01*
X92293963Y-59356185D01*
X92292046Y-59342853D01*
X92301244Y-59322710D01*
X92305951Y-59301075D01*
X92319221Y-59283346D01*
X92321071Y-59279297D01*
X92327098Y-59272824D01*
X92327102Y-59272819D01*
X92379667Y-59220254D01*
X92457139Y-59142782D01*
X92457140Y-59142779D01*
X95064444Y-56535475D01*
X95125765Y-56501992D01*
X95132684Y-56500692D01*
X95165801Y-56495447D01*
X95348509Y-56436082D01*
X95519681Y-56348865D01*
X95675102Y-56235945D01*
X95810945Y-56100102D01*
X95923865Y-55944681D01*
X96011082Y-55773509D01*
X96070447Y-55590801D01*
X96100500Y-55401055D01*
X96100500Y-55208945D01*
X96070447Y-55019199D01*
X96032621Y-54902781D01*
X96011083Y-54836493D01*
X95990065Y-54795244D01*
X95923865Y-54665319D01*
X95810945Y-54509898D01*
X95675102Y-54374055D01*
X95519681Y-54261135D01*
X95348506Y-54173916D01*
X95165802Y-54114553D01*
X95070928Y-54099526D01*
X94976055Y-54084500D01*
X94783945Y-54084500D01*
X94720696Y-54094517D01*
X94594197Y-54114553D01*
X94411493Y-54173916D01*
X94240318Y-54261135D01*
X94151645Y-54325560D01*
X94084898Y-54374055D01*
X94084896Y-54374057D01*
X94084895Y-54374057D01*
X93949057Y-54509895D01*
X93949057Y-54509896D01*
X93949055Y-54509898D01*
X93929496Y-54536819D01*
X93836135Y-54665318D01*
X93748916Y-54836493D01*
X93727931Y-54901081D01*
X93688494Y-54958756D01*
X93624135Y-54985955D01*
X93555289Y-54974041D01*
X93503813Y-54926797D01*
X93492069Y-54901081D01*
X93471083Y-54836493D01*
X93450065Y-54795244D01*
X93383865Y-54665319D01*
X93270945Y-54509898D01*
X93135102Y-54374055D01*
X92979681Y-54261135D01*
X92808506Y-54173916D01*
X92625802Y-54114553D01*
X92530928Y-54099526D01*
X92436055Y-54084500D01*
X92243945Y-54084500D01*
X92180696Y-54094517D01*
X92054197Y-54114553D01*
X91871493Y-54173916D01*
X91700318Y-54261135D01*
X91611645Y-54325560D01*
X91544898Y-54374055D01*
X91544896Y-54374057D01*
X91544895Y-54374057D01*
X91409057Y-54509895D01*
X91409057Y-54509896D01*
X91409055Y-54509898D01*
X91389496Y-54536819D01*
X91296135Y-54665318D01*
X91208916Y-54836493D01*
X91187931Y-54901081D01*
X91148494Y-54958756D01*
X91084135Y-54985955D01*
X91015289Y-54974041D01*
X90963813Y-54926797D01*
X90952069Y-54901081D01*
X90931083Y-54836493D01*
X90910065Y-54795244D01*
X90843865Y-54665319D01*
X90730945Y-54509898D01*
X90595102Y-54374055D01*
X90439681Y-54261135D01*
X90268504Y-54173915D01*
X90085801Y-54114553D01*
X90052722Y-54109313D01*
X89989588Y-54079382D01*
X89984442Y-54074521D01*
X89122101Y-53212181D01*
X89088616Y-53150858D01*
X89093600Y-53081167D01*
X89135472Y-53025233D01*
X89200936Y-53000816D01*
X89209782Y-53000500D01*
X98875500Y-53000500D01*
X98942539Y-53020185D01*
G37*
%TD.AperFunction*%
%TA.AperFunction,Conductor*%
G36*
X62346445Y-66043865D02*
G01*
X62385483Y-66088917D01*
X62417128Y-66151023D01*
X62432715Y-66181614D01*
X62553028Y-66347213D01*
X62697786Y-66491971D01*
X62850123Y-66602648D01*
X62863390Y-66612287D01*
X62979607Y-66671503D01*
X63045776Y-66705218D01*
X63045778Y-66705218D01*
X63045781Y-66705220D01*
X63150137Y-66739127D01*
X63240465Y-66768477D01*
X63341557Y-66784488D01*
X63442648Y-66800500D01*
X63442649Y-66800500D01*
X63647351Y-66800500D01*
X63647352Y-66800500D01*
X63849534Y-66768477D01*
X63863842Y-66763827D01*
X63933682Y-66761831D01*
X63989842Y-66794077D01*
X65060139Y-67864374D01*
X65060149Y-67864385D01*
X65064479Y-67868715D01*
X65064480Y-67868716D01*
X65176284Y-67980520D01*
X65251727Y-68024076D01*
X65263095Y-68030639D01*
X65263097Y-68030641D01*
X65301151Y-68052611D01*
X65313215Y-68059577D01*
X65465943Y-68100500D01*
X66177938Y-68100500D01*
X66244977Y-68120185D01*
X66290732Y-68172989D01*
X66300676Y-68242147D01*
X66295869Y-68262814D01*
X66293911Y-68268845D01*
X66236522Y-68445465D01*
X66204500Y-68647648D01*
X66204500Y-68852351D01*
X66236522Y-69054534D01*
X66265153Y-69142648D01*
X66293198Y-69228963D01*
X66295869Y-69237181D01*
X66297864Y-69307023D01*
X66261784Y-69366856D01*
X66199083Y-69397684D01*
X66177938Y-69399500D01*
X65095097Y-69399500D01*
X65065656Y-69390855D01*
X65035670Y-69384332D01*
X65030654Y-69380577D01*
X65028058Y-69379815D01*
X65007416Y-69363181D01*
X64839077Y-69194842D01*
X64805592Y-69133519D01*
X64808828Y-69068841D01*
X64813477Y-69054534D01*
X64845500Y-68852352D01*
X64845500Y-68647648D01*
X64824899Y-68517578D01*
X64813477Y-68445465D01*
X64756089Y-68268845D01*
X64750220Y-68250781D01*
X64750218Y-68250778D01*
X64750218Y-68250776D01*
X64704794Y-68161628D01*
X64657287Y-68068390D01*
X64625092Y-68024077D01*
X64536971Y-67902786D01*
X64392213Y-67758028D01*
X64226613Y-67637715D01*
X64226612Y-67637714D01*
X64226610Y-67637713D01*
X64158914Y-67603220D01*
X64044223Y-67544781D01*
X63849534Y-67481522D01*
X63674995Y-67453878D01*
X63647352Y-67449500D01*
X63442648Y-67449500D01*
X63418329Y-67453351D01*
X63240465Y-67481522D01*
X63045776Y-67544781D01*
X62863386Y-67637715D01*
X62697786Y-67758028D01*
X62553028Y-67902786D01*
X62432713Y-68068388D01*
X62385203Y-68161630D01*
X62337228Y-68212426D01*
X62269407Y-68229220D01*
X62203272Y-68206682D01*
X62164234Y-68161628D01*
X62116861Y-68068652D01*
X62084474Y-68024077D01*
X62084474Y-68024076D01*
X61405000Y-68703551D01*
X61405000Y-68697339D01*
X61377741Y-68595606D01*
X61325080Y-68504394D01*
X61250606Y-68429920D01*
X61159394Y-68377259D01*
X61057661Y-68350000D01*
X61051446Y-68350000D01*
X61730922Y-67670524D01*
X61730921Y-67670523D01*
X61686359Y-67638147D01*
X61686350Y-67638141D01*
X61504031Y-67545244D01*
X61309417Y-67482009D01*
X61107317Y-67450000D01*
X60902683Y-67450000D01*
X60700582Y-67482009D01*
X60505968Y-67545244D01*
X60323644Y-67638143D01*
X60279077Y-67670523D01*
X60279077Y-67670524D01*
X60958554Y-68350000D01*
X60952339Y-68350000D01*
X60850606Y-68377259D01*
X60759394Y-68429920D01*
X60684920Y-68504394D01*
X60632259Y-68595606D01*
X60605000Y-68697339D01*
X60605000Y-68703553D01*
X59925524Y-68024077D01*
X59925523Y-68024077D01*
X59893143Y-68068644D01*
X59800244Y-68250968D01*
X59737009Y-68445582D01*
X59705000Y-68647682D01*
X59705000Y-68852317D01*
X59737009Y-69054417D01*
X59800244Y-69249031D01*
X59893141Y-69431350D01*
X59893147Y-69431359D01*
X59925523Y-69475921D01*
X59925524Y-69475922D01*
X60605000Y-68796446D01*
X60605000Y-68802661D01*
X60632259Y-68904394D01*
X60684920Y-68995606D01*
X60759394Y-69070080D01*
X60850606Y-69122741D01*
X60952339Y-69150000D01*
X60958553Y-69150000D01*
X60279076Y-69829474D01*
X60323650Y-69861859D01*
X60505968Y-69954755D01*
X60700582Y-70017990D01*
X60902683Y-70050000D01*
X61107317Y-70050000D01*
X61309417Y-70017990D01*
X61504031Y-69954755D01*
X61686349Y-69861859D01*
X61730921Y-69829474D01*
X61051447Y-69150000D01*
X61057661Y-69150000D01*
X61159394Y-69122741D01*
X61250606Y-69070080D01*
X61325080Y-68995606D01*
X61377741Y-68904394D01*
X61405000Y-68802661D01*
X61405000Y-68796447D01*
X62084474Y-69475921D01*
X62116861Y-69431347D01*
X62116861Y-69431346D01*
X62164234Y-69338371D01*
X62212208Y-69287575D01*
X62280028Y-69270779D01*
X62346164Y-69293316D01*
X62385203Y-69338369D01*
X62432713Y-69431611D01*
X62553028Y-69597213D01*
X62697786Y-69741971D01*
X62743498Y-69775182D01*
X62762762Y-69800163D01*
X62783407Y-69823989D01*
X62783927Y-69827611D01*
X62786164Y-69830511D01*
X62788862Y-69861931D01*
X62793351Y-69893147D01*
X62791829Y-69896478D01*
X62792143Y-69900125D01*
X62777427Y-69928015D01*
X62764326Y-69956703D01*
X62761246Y-69958682D01*
X62759538Y-69961920D01*
X62732079Y-69977426D01*
X62705548Y-69994477D01*
X62700635Y-69995183D01*
X62698699Y-69996277D01*
X62670613Y-69999500D01*
X62491669Y-69999500D01*
X62491653Y-69999499D01*
X62484057Y-69999499D01*
X62325943Y-69999499D01*
X62218587Y-70028265D01*
X62173210Y-70040424D01*
X62173209Y-70040425D01*
X62123096Y-70069359D01*
X62123095Y-70069360D01*
X62092855Y-70086819D01*
X62036285Y-70119479D01*
X62036282Y-70119481D01*
X61924478Y-70231286D01*
X61449842Y-70705921D01*
X61388519Y-70739406D01*
X61323848Y-70736173D01*
X61309534Y-70731522D01*
X61134995Y-70703878D01*
X61107352Y-70699500D01*
X60902648Y-70699500D01*
X60878329Y-70703351D01*
X60700465Y-70731522D01*
X60505776Y-70794781D01*
X60323386Y-70887715D01*
X60157786Y-71008028D01*
X60013028Y-71152786D01*
X59892715Y-71318386D01*
X59799781Y-71500776D01*
X59736522Y-71695465D01*
X59704500Y-71897648D01*
X59704500Y-72102351D01*
X59736522Y-72304534D01*
X59799781Y-72499223D01*
X59851385Y-72600500D01*
X59871259Y-72639505D01*
X59892715Y-72681613D01*
X60013028Y-72847213D01*
X60157786Y-72991971D01*
X60312749Y-73104556D01*
X60323390Y-73112287D01*
X60427797Y-73165485D01*
X60505776Y-73205218D01*
X60505778Y-73205218D01*
X60505781Y-73205220D01*
X60594932Y-73234187D01*
X60700465Y-73268477D01*
X60728555Y-73272926D01*
X60902648Y-73300500D01*
X60902649Y-73300500D01*
X61107351Y-73300500D01*
X61107352Y-73300500D01*
X61309534Y-73268477D01*
X61504219Y-73205220D01*
X61686610Y-73112287D01*
X61806275Y-73025346D01*
X61852213Y-72991971D01*
X61852215Y-72991968D01*
X61852219Y-72991966D01*
X61996966Y-72847219D01*
X61996968Y-72847215D01*
X61996971Y-72847213D01*
X62117284Y-72681614D01*
X62117285Y-72681613D01*
X62117287Y-72681610D01*
X62164516Y-72588917D01*
X62212489Y-72538123D01*
X62280310Y-72521328D01*
X62346445Y-72543865D01*
X62385483Y-72588917D01*
X62425883Y-72668205D01*
X62432715Y-72681614D01*
X62553028Y-72847213D01*
X62697786Y-72991971D01*
X62852749Y-73104556D01*
X62863390Y-73112287D01*
X62967797Y-73165485D01*
X63045776Y-73205218D01*
X63045778Y-73205218D01*
X63045781Y-73205220D01*
X63134932Y-73234187D01*
X63240465Y-73268477D01*
X63268555Y-73272926D01*
X63442648Y-73300500D01*
X63442649Y-73300500D01*
X63647351Y-73300500D01*
X63647352Y-73300500D01*
X63849534Y-73268477D01*
X63863842Y-73263827D01*
X63933682Y-73261831D01*
X63989842Y-73294077D01*
X65063181Y-74367416D01*
X65096666Y-74428739D01*
X65099500Y-74455097D01*
X65099500Y-76013330D01*
X65099499Y-76013348D01*
X65099499Y-76179054D01*
X65099498Y-76179054D01*
X65139803Y-76329474D01*
X65140423Y-76331785D01*
X65144318Y-76338531D01*
X65144321Y-76338543D01*
X65144324Y-76338542D01*
X65219475Y-76468709D01*
X65219481Y-76468717D01*
X65338349Y-76587585D01*
X65338355Y-76587590D01*
X66115139Y-77364374D01*
X66115149Y-77364385D01*
X66119479Y-77368715D01*
X66119480Y-77368716D01*
X66231284Y-77480520D01*
X66231286Y-77480521D01*
X66231290Y-77480524D01*
X66293031Y-77516170D01*
X66293035Y-77516171D01*
X66293036Y-77516172D01*
X66330625Y-77537874D01*
X66368212Y-77559576D01*
X66368214Y-77559576D01*
X66368215Y-77559577D01*
X66520942Y-77600500D01*
X66520943Y-77600500D01*
X66542661Y-77600500D01*
X66554741Y-77604047D01*
X66567286Y-77602970D01*
X66587630Y-77613704D01*
X66609700Y-77620185D01*
X66617944Y-77629700D01*
X66629081Y-77635576D01*
X66640392Y-77655606D01*
X66655455Y-77672989D01*
X66657246Y-77685450D01*
X66663439Y-77696415D01*
X66662125Y-77719381D01*
X66665399Y-77742147D01*
X66660073Y-77755268D01*
X66659450Y-77766170D01*
X66642979Y-77797386D01*
X66634987Y-77808386D01*
X66579657Y-77851051D01*
X66534669Y-77859500D01*
X63872596Y-77859500D01*
X63805557Y-77839815D01*
X63772278Y-77808386D01*
X63769523Y-77804594D01*
X63653828Y-77645354D01*
X63514646Y-77506172D01*
X63355405Y-77390476D01*
X63180029Y-77301117D01*
X62992826Y-77240290D01*
X62798422Y-77209500D01*
X62798417Y-77209500D01*
X62601583Y-77209500D01*
X62601578Y-77209500D01*
X62407173Y-77240290D01*
X62219970Y-77301117D01*
X62044594Y-77390476D01*
X61966330Y-77447339D01*
X61885354Y-77506172D01*
X61885352Y-77506174D01*
X61885351Y-77506174D01*
X61746174Y-77645351D01*
X61746174Y-77645352D01*
X61746172Y-77645354D01*
X61709074Y-77696415D01*
X61630476Y-77804594D01*
X61541117Y-77979970D01*
X61480290Y-78167173D01*
X61449500Y-78361577D01*
X61449500Y-78558422D01*
X61480290Y-78752826D01*
X61495781Y-78800500D01*
X61540193Y-78937184D01*
X61540996Y-78965302D01*
X61545000Y-78993147D01*
X61541980Y-78999758D01*
X61542188Y-79007022D01*
X61527663Y-79031108D01*
X61515975Y-79056703D01*
X61509860Y-79060632D01*
X61506108Y-79066855D01*
X61480864Y-79079267D01*
X61457197Y-79094477D01*
X61446927Y-79095953D01*
X61443408Y-79097684D01*
X61422262Y-79099500D01*
X61395097Y-79099500D01*
X61328058Y-79079815D01*
X61307416Y-79063181D01*
X58968757Y-76724522D01*
X58935272Y-76663199D01*
X58938507Y-76598523D01*
X58952246Y-76556243D01*
X58985500Y-76346287D01*
X58985500Y-76133713D01*
X58952246Y-75923757D01*
X58886557Y-75721588D01*
X58790051Y-75532184D01*
X58790049Y-75532181D01*
X58790048Y-75532179D01*
X58665109Y-75360213D01*
X58514786Y-75209890D01*
X58429116Y-75147648D01*
X59704500Y-75147648D01*
X59704500Y-75352351D01*
X59736522Y-75554534D01*
X59799781Y-75749223D01*
X59851385Y-75850500D01*
X59892585Y-75931359D01*
X59892715Y-75931613D01*
X60013028Y-76097213D01*
X60157786Y-76241971D01*
X60290709Y-76338543D01*
X60323390Y-76362287D01*
X60396425Y-76399500D01*
X60505776Y-76455218D01*
X60505778Y-76455218D01*
X60505781Y-76455220D01*
X60599487Y-76485667D01*
X60700465Y-76518477D01*
X60728555Y-76522926D01*
X60902648Y-76550500D01*
X60902649Y-76550500D01*
X61107351Y-76550500D01*
X61107352Y-76550500D01*
X61309534Y-76518477D01*
X61504219Y-76455220D01*
X61686610Y-76362287D01*
X61779590Y-76294732D01*
X61852213Y-76241971D01*
X61852215Y-76241968D01*
X61852219Y-76241966D01*
X61996966Y-76097219D01*
X61996968Y-76097215D01*
X61996971Y-76097213D01*
X62113066Y-75937420D01*
X62117287Y-75931610D01*
X62164795Y-75838369D01*
X62212769Y-75787573D01*
X62280590Y-75770778D01*
X62346725Y-75793315D01*
X62385765Y-75838369D01*
X62433141Y-75931350D01*
X62433147Y-75931359D01*
X62465523Y-75975921D01*
X62465524Y-75975922D01*
X63145000Y-75296446D01*
X63145000Y-75302661D01*
X63172259Y-75404394D01*
X63224920Y-75495606D01*
X63299394Y-75570080D01*
X63390606Y-75622741D01*
X63492339Y-75650000D01*
X63498553Y-75650000D01*
X62819076Y-76329474D01*
X62863650Y-76361859D01*
X63045968Y-76454755D01*
X63240582Y-76517990D01*
X63442683Y-76550000D01*
X63647317Y-76550000D01*
X63849417Y-76517990D01*
X64044031Y-76454755D01*
X64226349Y-76361859D01*
X64270921Y-76329474D01*
X63591447Y-75650000D01*
X63597661Y-75650000D01*
X63699394Y-75622741D01*
X63790606Y-75570080D01*
X63865080Y-75495606D01*
X63917741Y-75404394D01*
X63945000Y-75302661D01*
X63945000Y-75296447D01*
X64624474Y-75975921D01*
X64656859Y-75931349D01*
X64749755Y-75749031D01*
X64812990Y-75554417D01*
X64845000Y-75352317D01*
X64845000Y-75147682D01*
X64812990Y-74945582D01*
X64749755Y-74750968D01*
X64656859Y-74568650D01*
X64624474Y-74524077D01*
X64624474Y-74524076D01*
X63945000Y-75203551D01*
X63945000Y-75197339D01*
X63917741Y-75095606D01*
X63865080Y-75004394D01*
X63790606Y-74929920D01*
X63699394Y-74877259D01*
X63597661Y-74850000D01*
X63591446Y-74850000D01*
X64270922Y-74170524D01*
X64270921Y-74170523D01*
X64226359Y-74138147D01*
X64226350Y-74138141D01*
X64044031Y-74045244D01*
X63849417Y-73982009D01*
X63647317Y-73950000D01*
X63442683Y-73950000D01*
X63240582Y-73982009D01*
X63045968Y-74045244D01*
X62863644Y-74138143D01*
X62819077Y-74170523D01*
X62819077Y-74170524D01*
X63498554Y-74850000D01*
X63492339Y-74850000D01*
X63390606Y-74877259D01*
X63299394Y-74929920D01*
X63224920Y-75004394D01*
X63172259Y-75095606D01*
X63145000Y-75197339D01*
X63145000Y-75203553D01*
X62465524Y-74524077D01*
X62465523Y-74524077D01*
X62433143Y-74568644D01*
X62385765Y-74661630D01*
X62337790Y-74712426D01*
X62269969Y-74729221D01*
X62203834Y-74706683D01*
X62164795Y-74661630D01*
X62117287Y-74568390D01*
X62117285Y-74568387D01*
X62117284Y-74568385D01*
X61996971Y-74402786D01*
X61852213Y-74258028D01*
X61686613Y-74137715D01*
X61686612Y-74137714D01*
X61686610Y-74137713D01*
X61629653Y-74108691D01*
X61504223Y-74044781D01*
X61309534Y-73981522D01*
X61134995Y-73953878D01*
X61107352Y-73949500D01*
X60902648Y-73949500D01*
X60878329Y-73953351D01*
X60700465Y-73981522D01*
X60505776Y-74044781D01*
X60323386Y-74137715D01*
X60157786Y-74258028D01*
X60013028Y-74402786D01*
X59892715Y-74568386D01*
X59799781Y-74750776D01*
X59736522Y-74945465D01*
X59704500Y-75147648D01*
X58429116Y-75147648D01*
X58342820Y-75084951D01*
X58153414Y-74988444D01*
X58153413Y-74988443D01*
X58153412Y-74988443D01*
X57951243Y-74922754D01*
X57951241Y-74922753D01*
X57951240Y-74922753D01*
X57785142Y-74896446D01*
X57741287Y-74889500D01*
X57528713Y-74889500D01*
X57484858Y-74896446D01*
X57318760Y-74922753D01*
X57116582Y-74988445D01*
X56980794Y-75057632D01*
X56912125Y-75070528D01*
X56847385Y-75044251D01*
X56807128Y-74987145D01*
X56800500Y-74947147D01*
X56800500Y-69049461D01*
X56820185Y-68982422D01*
X56836814Y-68961785D01*
X59678964Y-66119634D01*
X59740285Y-66086151D01*
X59809977Y-66091135D01*
X59865910Y-66133007D01*
X59877128Y-66151023D01*
X59892713Y-66181611D01*
X60013028Y-66347213D01*
X60157786Y-66491971D01*
X60310123Y-66602648D01*
X60323390Y-66612287D01*
X60439607Y-66671503D01*
X60505776Y-66705218D01*
X60505778Y-66705218D01*
X60505781Y-66705220D01*
X60610137Y-66739127D01*
X60700465Y-66768477D01*
X60801557Y-66784488D01*
X60902648Y-66800500D01*
X60902649Y-66800500D01*
X61107351Y-66800500D01*
X61107352Y-66800500D01*
X61309534Y-66768477D01*
X61504219Y-66705220D01*
X61686610Y-66612287D01*
X61779590Y-66544732D01*
X61852213Y-66491971D01*
X61852215Y-66491968D01*
X61852219Y-66491966D01*
X61996966Y-66347219D01*
X61996968Y-66347215D01*
X61996971Y-66347213D01*
X62117284Y-66181614D01*
X62117286Y-66181611D01*
X62117287Y-66181610D01*
X62164516Y-66088917D01*
X62212489Y-66038123D01*
X62280310Y-66021328D01*
X62346445Y-66043865D01*
G37*
%TD.AperFunction*%
%TA.AperFunction,Conductor*%
G36*
X73395327Y-63508425D02*
G01*
X73423049Y-63513223D01*
X73428404Y-63518137D01*
X73435376Y-63520185D01*
X73453793Y-63541439D01*
X73474525Y-63560467D01*
X73476373Y-63567497D01*
X73481131Y-63572989D01*
X73485134Y-63600832D01*
X73492286Y-63628041D01*
X73490516Y-63638265D01*
X73491075Y-63642147D01*
X73486268Y-63662819D01*
X73422009Y-63860582D01*
X73390000Y-64062682D01*
X73390000Y-64267317D01*
X73422009Y-64469417D01*
X73485244Y-64664031D01*
X73578140Y-64846349D01*
X73695270Y-65007563D01*
X73706728Y-65039675D01*
X73718636Y-65071602D01*
X73718440Y-65072501D01*
X73718750Y-65073369D01*
X73711030Y-65106566D01*
X73703785Y-65139875D01*
X73703059Y-65140843D01*
X73702925Y-65141423D01*
X73682634Y-65168130D01*
X73619480Y-65231284D01*
X73619479Y-65231284D01*
X73619478Y-65231285D01*
X73619478Y-65231286D01*
X72387584Y-66463181D01*
X72326261Y-66496666D01*
X72299903Y-66499500D01*
X71169073Y-66499500D01*
X71102034Y-66479815D01*
X71056279Y-66427011D01*
X71046335Y-66357853D01*
X71068755Y-66302614D01*
X71156859Y-66181349D01*
X71249755Y-65999031D01*
X71312990Y-65804417D01*
X71345000Y-65602317D01*
X71345000Y-65397682D01*
X71312990Y-65195582D01*
X71249755Y-65000968D01*
X71156859Y-64818650D01*
X71124474Y-64774077D01*
X71124474Y-64774076D01*
X70445000Y-65453551D01*
X70445000Y-65447339D01*
X70417741Y-65345606D01*
X70365080Y-65254394D01*
X70290606Y-65179920D01*
X70199394Y-65127259D01*
X70097661Y-65100000D01*
X70091446Y-65100000D01*
X70770922Y-64420524D01*
X70770921Y-64420523D01*
X70726359Y-64388147D01*
X70726350Y-64388141D01*
X70544031Y-64295244D01*
X70349417Y-64232009D01*
X70147317Y-64200000D01*
X69942683Y-64200000D01*
X69740582Y-64232009D01*
X69545968Y-64295244D01*
X69363644Y-64388143D01*
X69319077Y-64420523D01*
X69319077Y-64420524D01*
X69998554Y-65100000D01*
X69992339Y-65100000D01*
X69890606Y-65127259D01*
X69799394Y-65179920D01*
X69724920Y-65254394D01*
X69672259Y-65345606D01*
X69645000Y-65447339D01*
X69645000Y-65453553D01*
X68965524Y-64774077D01*
X68965523Y-64774077D01*
X68933143Y-64818644D01*
X68885765Y-64911630D01*
X68837790Y-64962426D01*
X68769969Y-64979221D01*
X68703834Y-64956683D01*
X68664795Y-64911630D01*
X68653774Y-64890000D01*
X68617287Y-64818390D01*
X68617285Y-64818387D01*
X68617284Y-64818385D01*
X68496971Y-64652786D01*
X68352213Y-64508028D01*
X68186610Y-64387712D01*
X68173200Y-64380879D01*
X68122406Y-64332903D01*
X68105500Y-64270397D01*
X68105500Y-64195097D01*
X68125185Y-64128058D01*
X68141819Y-64107416D01*
X68712416Y-63536819D01*
X68773739Y-63503334D01*
X68800097Y-63500500D01*
X73368337Y-63500500D01*
X73395327Y-63508425D01*
G37*
%TD.AperFunction*%
%TA.AperFunction,Conductor*%
G36*
X81041854Y-61020185D02*
G01*
X81087609Y-61072989D01*
X81097553Y-61142147D01*
X81092746Y-61162819D01*
X81041522Y-61320465D01*
X81013071Y-61500102D01*
X81009500Y-61522648D01*
X81009500Y-61727352D01*
X81011413Y-61739430D01*
X81041522Y-61929534D01*
X81104781Y-62124223D01*
X81157155Y-62227011D01*
X81194090Y-62299500D01*
X81197715Y-62306613D01*
X81318028Y-62472213D01*
X81462786Y-62616971D01*
X81628385Y-62737284D01*
X81628387Y-62737285D01*
X81628390Y-62737287D01*
X81721630Y-62784795D01*
X81772426Y-62832770D01*
X81789221Y-62900591D01*
X81766684Y-62966725D01*
X81721630Y-63005765D01*
X81628644Y-63053143D01*
X81584077Y-63085523D01*
X81584077Y-63085524D01*
X82263554Y-63765000D01*
X82257339Y-63765000D01*
X82155606Y-63792259D01*
X82064394Y-63844920D01*
X81989920Y-63919394D01*
X81937259Y-64010606D01*
X81910000Y-64112339D01*
X81910000Y-64118553D01*
X81230524Y-63439077D01*
X81230523Y-63439077D01*
X81198143Y-63483644D01*
X81105244Y-63665968D01*
X81042009Y-63860582D01*
X81010000Y-64062682D01*
X81010000Y-64267317D01*
X81042009Y-64469417D01*
X81105244Y-64664031D01*
X81184310Y-64819205D01*
X81197206Y-64887874D01*
X81170930Y-64952615D01*
X81113823Y-64992872D01*
X81073825Y-64999500D01*
X75926175Y-64999500D01*
X75859136Y-64979815D01*
X75813381Y-64927011D01*
X75803437Y-64857853D01*
X75815690Y-64819205D01*
X75894755Y-64664031D01*
X75957990Y-64469417D01*
X75990000Y-64267317D01*
X75990000Y-64062682D01*
X75957990Y-63860582D01*
X75893732Y-63662819D01*
X75891737Y-63592977D01*
X75927817Y-63533144D01*
X75990518Y-63502316D01*
X76011663Y-63500500D01*
X77913331Y-63500500D01*
X77913347Y-63500501D01*
X77920943Y-63500501D01*
X78079054Y-63500501D01*
X78079057Y-63500501D01*
X78231785Y-63459577D01*
X78281904Y-63430639D01*
X78368716Y-63380520D01*
X78480520Y-63268716D01*
X78480520Y-63268714D01*
X78490728Y-63258507D01*
X78490729Y-63258504D01*
X80712416Y-61036819D01*
X80739343Y-61022115D01*
X80765162Y-61005523D01*
X80771362Y-61004631D01*
X80773739Y-61003334D01*
X80800097Y-61000500D01*
X80974815Y-61000500D01*
X81041854Y-61020185D01*
G37*
%TD.AperFunction*%
%TA.AperFunction,Conductor*%
G36*
X84732277Y-61870185D02*
G01*
X84754117Y-61889245D01*
X84754589Y-61888774D01*
X84758034Y-61892219D01*
X84902781Y-62036966D01*
X85068390Y-62157287D01*
X85081793Y-62164116D01*
X85132589Y-62212088D01*
X85149500Y-62274601D01*
X85149500Y-63118533D01*
X85129815Y-63185572D01*
X85113181Y-63206214D01*
X83796659Y-64522735D01*
X83735336Y-64556220D01*
X83665644Y-64551236D01*
X83609711Y-64509364D01*
X83585294Y-64443900D01*
X83586505Y-64415656D01*
X83610000Y-64267317D01*
X83610000Y-64062682D01*
X83577990Y-63860582D01*
X83514755Y-63665968D01*
X83421859Y-63483650D01*
X83389474Y-63439077D01*
X83389474Y-63439076D01*
X82710000Y-64118551D01*
X82710000Y-64112339D01*
X82682741Y-64010606D01*
X82630080Y-63919394D01*
X82555606Y-63844920D01*
X82464394Y-63792259D01*
X82362661Y-63765000D01*
X82356446Y-63765000D01*
X83035922Y-63085524D01*
X83035921Y-63085523D01*
X82991359Y-63053147D01*
X82991350Y-63053141D01*
X82898369Y-63005765D01*
X82847573Y-62957790D01*
X82830778Y-62889969D01*
X82853315Y-62823835D01*
X82898370Y-62784795D01*
X82991610Y-62737287D01*
X83122526Y-62642172D01*
X83157213Y-62616971D01*
X83157215Y-62616968D01*
X83157219Y-62616966D01*
X83301966Y-62472219D01*
X83301968Y-62472215D01*
X83301971Y-62472213D01*
X83394032Y-62345500D01*
X83422287Y-62306610D01*
X83515220Y-62124219D01*
X83564358Y-61972989D01*
X83576318Y-61936181D01*
X83615756Y-61878506D01*
X83680115Y-61851308D01*
X83694249Y-61850500D01*
X84665238Y-61850500D01*
X84732277Y-61870185D01*
G37*
%TD.AperFunction*%
%TA.AperFunction,Conductor*%
G36*
X80692230Y-54520185D02*
G01*
X80737985Y-54572989D01*
X80747929Y-54642147D01*
X80718904Y-54705703D01*
X80663510Y-54742431D01*
X80500968Y-54795244D01*
X80318644Y-54888143D01*
X80274077Y-54920523D01*
X80274077Y-54920524D01*
X80953554Y-55600000D01*
X80947339Y-55600000D01*
X80845606Y-55627259D01*
X80754394Y-55679920D01*
X80679920Y-55754394D01*
X80627259Y-55845606D01*
X80600000Y-55947339D01*
X80600000Y-55953553D01*
X79920524Y-55274077D01*
X79920523Y-55274077D01*
X79888143Y-55318644D01*
X79795244Y-55500968D01*
X79732009Y-55695582D01*
X79700000Y-55897682D01*
X79700000Y-56102317D01*
X79732010Y-56304418D01*
X79732011Y-56304425D01*
X79742655Y-56337183D01*
X79744650Y-56407024D01*
X79708569Y-56466857D01*
X79645868Y-56497684D01*
X79624724Y-56499500D01*
X77965783Y-56499500D01*
X77898744Y-56479815D01*
X77878102Y-56463181D01*
X77326717Y-55911797D01*
X77293232Y-55850474D01*
X77291925Y-55843513D01*
X77268477Y-55695466D01*
X77268477Y-55695465D01*
X77221461Y-55550765D01*
X77205220Y-55500781D01*
X77205218Y-55500778D01*
X77205218Y-55500776D01*
X77128560Y-55350328D01*
X77112287Y-55318390D01*
X77063163Y-55250776D01*
X76991971Y-55152786D01*
X76847213Y-55008028D01*
X76681613Y-54887715D01*
X76681612Y-54887714D01*
X76681610Y-54887713D01*
X76624653Y-54858691D01*
X76499223Y-54794781D01*
X76338106Y-54742431D01*
X76280431Y-54702993D01*
X76253233Y-54638634D01*
X76265148Y-54569788D01*
X76312392Y-54518312D01*
X76376425Y-54500500D01*
X80625191Y-54500500D01*
X80692230Y-54520185D01*
G37*
%TD.AperFunction*%
%TA.AperFunction,Conductor*%
G36*
X82447652Y-54520185D02*
G01*
X82493407Y-54572989D01*
X82503351Y-54642147D01*
X82474326Y-54705703D01*
X82453498Y-54724818D01*
X82407786Y-54758028D01*
X82263028Y-54902786D01*
X82142715Y-55068385D01*
X82049778Y-55250784D01*
X82033472Y-55300968D01*
X82003223Y-55350328D01*
X81400000Y-55953551D01*
X81400000Y-55947339D01*
X81372741Y-55845606D01*
X81320080Y-55754394D01*
X81245606Y-55679920D01*
X81154394Y-55627259D01*
X81052661Y-55600000D01*
X81046446Y-55600000D01*
X81725922Y-54920524D01*
X81725921Y-54920523D01*
X81681359Y-54888147D01*
X81681350Y-54888141D01*
X81499031Y-54795244D01*
X81336490Y-54742431D01*
X81278815Y-54702993D01*
X81251617Y-54638634D01*
X81263532Y-54569788D01*
X81310776Y-54518312D01*
X81374809Y-54500500D01*
X82380613Y-54500500D01*
X82447652Y-54520185D01*
G37*
%TD.AperFunction*%
%TD*%
M02*
