M48
; DRILL file KiCad 10.0.1 date 2026-07-15T01:40:35
; FORMAT={-:-/ absolute / metric / decimal}
; #@! TF.CreationDate,2026-07-15T01:40:35+02:00
; #@! TF.GenerationSoftware,Kicad,Pcbnew,10.0.1
; #@! TF.FileFunction,Plated,1,2,PTH
FMAT,2
METRIC
; #@! TA.AperFunction,Plated,PTH,ComponentDrill
T1C0.800
; #@! TA.AperFunction,Plated,PTH,ComponentDrill
T2C1.000
%
G90
G05
T1
X61.005Y-65.5
X61.005Y-68.75
X61.005Y-72.0
X61.005Y-75.25
X61.005Y-86.5
X61.005Y-89.75
X61.005Y-93.0
X62.7Y-78.46
X62.7Y-81.0
X62.7Y-83.54
X63.545Y-65.5
X63.545Y-68.75
X63.545Y-72.0
X63.545Y-75.25
X63.545Y-86.5
X63.545Y-89.75
X63.545Y-93.0
X67.505Y-65.5
X67.505Y-68.75
X67.505Y-72.0
X67.505Y-75.25
X67.505Y-86.5
X67.505Y-89.75
X67.505Y-93.0
X67.7Y-78.47
X67.7Y-81.01
X67.7Y-83.55
X68.0Y-58.505
X68.0Y-61.045
X70.045Y-65.5
X70.045Y-68.75
X70.045Y-72.0
X70.045Y-75.25
X70.045Y-86.5
X70.045Y-89.75
X70.045Y-93.0
X71.205Y-55.75
X71.25Y-58.505
X71.25Y-61.045
X71.25Y-79.945
X71.25Y-82.485
X73.745Y-55.75
X74.69Y-59.085
X74.69Y-61.625
X74.69Y-64.165
X74.69Y-66.705
X74.69Y-69.245
X74.69Y-71.785
X74.69Y-74.325
X74.69Y-84.69
X74.69Y-87.23
X74.69Y-89.77
X74.69Y-92.31
X76.0Y-56.0
X76.0Y-77.5
X76.0Y-81.5
X76.0Y-95.1
X81.0Y-56.0
X81.0Y-77.5
X81.0Y-81.5
X81.0Y-95.1
X82.31Y-59.085
X82.31Y-61.625
X82.31Y-64.165
X82.31Y-66.705
X82.31Y-69.245
X82.31Y-71.785
X82.31Y-74.325
X82.31Y-84.69
X82.31Y-87.23
X82.31Y-89.77
X82.31Y-92.31
X83.255Y-55.75
X85.705Y-86.5
X85.75Y-58.505
X85.75Y-61.045
X85.75Y-79.945
X85.75Y-82.485
X85.75Y-89.955
X85.75Y-92.495
X85.795Y-55.75
X86.955Y-65.5
X86.955Y-68.75
X86.955Y-72.0
X86.955Y-75.25
X88.245Y-86.5
X89.495Y-65.5
X89.495Y-68.75
X89.495Y-72.0
X89.495Y-75.25
X89.8Y-55.305
X89.8Y-60.705
X89.8Y-91.0
X90.2Y-78.46
X90.2Y-81.0
X90.2Y-83.54
X92.205Y-86.5
X92.34Y-55.305
X92.34Y-60.705
X92.34Y-91.0
X93.455Y-65.5
X93.455Y-68.75
X93.455Y-72.0
X93.455Y-75.25
X94.745Y-86.5
X94.88Y-55.305
X94.88Y-60.705
X94.88Y-91.0
X95.2Y-78.46
X95.2Y-81.0
X95.2Y-83.54
X95.995Y-65.5
X95.995Y-68.75
X95.995Y-72.0
X95.995Y-75.25
T2
X57.635Y-55.92
X57.635Y-58.46
X57.635Y-61.0
X57.635Y-63.54
X57.635Y-76.24
X57.635Y-78.78
X57.635Y-81.32
X57.635Y-83.86
X57.635Y-86.4
X57.635Y-88.94
X57.635Y-91.48
X57.635Y-94.02
M30
