%TF.GenerationSoftware,KiCad,Pcbnew,10.0.1*%
%TF.CreationDate,2026-07-15T01:40:35+02:00*%
%TF.ProjectId,DMH_Submodule_XFader,444d485f-5375-4626-9d6f-64756c655f58,1*%
%TF.SameCoordinates,Original*%
%TF.FileFunction,Drillmap*%
%TF.FilePolarity,Positive*%
%FSLAX45Y45*%
G04 Gerber Fmt 4.5, Leading zero omitted, Abs format (unit mm)*
G04 Created by KiCad (PCBNEW 10.0.1) date 2026-07-15 01:40:35*
%MOMM*%
%LPD*%
G01*
G04 APERTURE LIST*
%ADD10C,0.050000*%
%ADD11C,0.200000*%
G04 APERTURE END LIST*
D10*
X5450000Y-5250000D02*
X9950000Y-5250000D01*
X9950000Y-9750000D01*
X5450000Y-9750000D01*
X5450000Y-5250000D01*
D11*
X5708277Y-10063984D02*
X5708277Y-9863984D01*
X5708277Y-9863984D02*
X5755896Y-9863984D01*
X5755896Y-9863984D02*
X5784467Y-9873508D01*
X5784467Y-9873508D02*
X5803515Y-9892555D01*
X5803515Y-9892555D02*
X5813039Y-9911603D01*
X5813039Y-9911603D02*
X5822562Y-9949698D01*
X5822562Y-9949698D02*
X5822562Y-9978270D01*
X5822562Y-9978270D02*
X5813039Y-10016365D01*
X5813039Y-10016365D02*
X5803515Y-10035412D01*
X5803515Y-10035412D02*
X5784467Y-10054460D01*
X5784467Y-10054460D02*
X5755896Y-10063984D01*
X5755896Y-10063984D02*
X5708277Y-10063984D01*
X5908277Y-10063984D02*
X5908277Y-9930650D01*
X5908277Y-9968746D02*
X5917801Y-9949698D01*
X5917801Y-9949698D02*
X5927324Y-9940174D01*
X5927324Y-9940174D02*
X5946372Y-9930650D01*
X5946372Y-9930650D02*
X5965420Y-9930650D01*
X6032086Y-10063984D02*
X6032086Y-9930650D01*
X6032086Y-9863984D02*
X6022562Y-9873508D01*
X6022562Y-9873508D02*
X6032086Y-9883031D01*
X6032086Y-9883031D02*
X6041610Y-9873508D01*
X6041610Y-9873508D02*
X6032086Y-9863984D01*
X6032086Y-9863984D02*
X6032086Y-9883031D01*
X6155896Y-10063984D02*
X6136848Y-10054460D01*
X6136848Y-10054460D02*
X6127324Y-10035412D01*
X6127324Y-10035412D02*
X6127324Y-9863984D01*
X6260658Y-10063984D02*
X6241610Y-10054460D01*
X6241610Y-10054460D02*
X6232086Y-10035412D01*
X6232086Y-10035412D02*
X6232086Y-9863984D01*
X6489229Y-10063984D02*
X6489229Y-9863984D01*
X6489229Y-9863984D02*
X6555896Y-10006841D01*
X6555896Y-10006841D02*
X6622562Y-9863984D01*
X6622562Y-9863984D02*
X6622562Y-10063984D01*
X6803515Y-10063984D02*
X6803515Y-9959222D01*
X6803515Y-9959222D02*
X6793991Y-9940174D01*
X6793991Y-9940174D02*
X6774943Y-9930650D01*
X6774943Y-9930650D02*
X6736848Y-9930650D01*
X6736848Y-9930650D02*
X6717801Y-9940174D01*
X6803515Y-10054460D02*
X6784467Y-10063984D01*
X6784467Y-10063984D02*
X6736848Y-10063984D01*
X6736848Y-10063984D02*
X6717801Y-10054460D01*
X6717801Y-10054460D02*
X6708277Y-10035412D01*
X6708277Y-10035412D02*
X6708277Y-10016365D01*
X6708277Y-10016365D02*
X6717801Y-9997317D01*
X6717801Y-9997317D02*
X6736848Y-9987793D01*
X6736848Y-9987793D02*
X6784467Y-9987793D01*
X6784467Y-9987793D02*
X6803515Y-9978270D01*
X6898753Y-9930650D02*
X6898753Y-10130650D01*
X6898753Y-9940174D02*
X6917801Y-9930650D01*
X6917801Y-9930650D02*
X6955896Y-9930650D01*
X6955896Y-9930650D02*
X6974943Y-9940174D01*
X6974943Y-9940174D02*
X6984467Y-9949698D01*
X6984467Y-9949698D02*
X6993991Y-9968746D01*
X6993991Y-9968746D02*
X6993991Y-10025889D01*
X6993991Y-10025889D02*
X6984467Y-10044936D01*
X6984467Y-10044936D02*
X6974943Y-10054460D01*
X6974943Y-10054460D02*
X6955896Y-10063984D01*
X6955896Y-10063984D02*
X6917801Y-10063984D01*
X6917801Y-10063984D02*
X6898753Y-10054460D01*
X7079705Y-10044936D02*
X7089229Y-10054460D01*
X7089229Y-10054460D02*
X7079705Y-10063984D01*
X7079705Y-10063984D02*
X7070182Y-10054460D01*
X7070182Y-10054460D02*
X7079705Y-10044936D01*
X7079705Y-10044936D02*
X7079705Y-10063984D01*
X7079705Y-9940174D02*
X7089229Y-9949698D01*
X7089229Y-9949698D02*
X7079705Y-9959222D01*
X7079705Y-9959222D02*
X7070182Y-9949698D01*
X7070182Y-9949698D02*
X7079705Y-9940174D01*
X7079705Y-9940174D02*
X7079705Y-9959222D01*
M02*
