%TF.GenerationSoftware,KiCad,Pcbnew,10.0.1*%
%TF.CreationDate,2026-07-15T13:03:34+02:00*%
%TF.ProjectId,DMH_Submodule_XFader,444d485f-5375-4626-9d6f-64756c655f58,1*%
%TF.SameCoordinates,Original*%
%TF.FileFunction,Legend,Top*%
%TF.FilePolarity,Positive*%
%FSLAX46Y46*%
G04 Gerber Fmt 4.6, Leading zero omitted, Abs format (unit mm)*
G04 Created by KiCad (PCBNEW 10.0.1) date 2026-07-15 13:03:34*
%MOMM*%
%LPD*%
G01*
G04 APERTURE LIST*
G04 Aperture macros list*
%AMRoundRect*
0 Rectangle with rounded corners*
0 $1 Rounding radius*
0 $2 $3 $4 $5 $6 $7 $8 $9 X,Y pos of 4 corners*
0 Add a 4 corners polygon primitive as box body*
4,1,4,$2,$3,$4,$5,$6,$7,$8,$9,$2,$3,0*
0 Add four circle primitives for the rounded corners*
1,1,$1+$1,$2,$3*
1,1,$1+$1,$4,$5*
1,1,$1+$1,$6,$7*
1,1,$1+$1,$8,$9*
0 Add four rect primitives between the rounded corners*
20,1,$1+$1,$2,$3,$4,$5,0*
20,1,$1+$1,$4,$5,$6,$7,0*
20,1,$1+$1,$6,$7,$8,$9,0*
20,1,$1+$1,$8,$9,$2,$3,0*%
G04 Aperture macros list end*
%ADD10C,0.150000*%
%ADD11C,0.120000*%
%ADD12C,1.600000*%
%ADD13C,1.440000*%
%ADD14RoundRect,0.250000X-0.550000X-0.550000X0.550000X-0.550000X0.550000X0.550000X-0.550000X0.550000X0*%
%ADD15R,1.500000X1.500000*%
%ADD16C,1.500000*%
%ADD17R,1.700000X1.700000*%
%ADD18C,1.700000*%
G04 APERTURE END LIST*
D10*
X58938095Y-58573866D02*
X59700000Y-58573866D01*
X60699999Y-58954819D02*
X60128571Y-58954819D01*
X60414285Y-58954819D02*
X60414285Y-57954819D01*
X60414285Y-57954819D02*
X60319047Y-58097676D01*
X60319047Y-58097676D02*
X60223809Y-58192914D01*
X60223809Y-58192914D02*
X60128571Y-58240533D01*
X61080952Y-58050057D02*
X61128571Y-58002438D01*
X61128571Y-58002438D02*
X61223809Y-57954819D01*
X61223809Y-57954819D02*
X61461904Y-57954819D01*
X61461904Y-57954819D02*
X61557142Y-58002438D01*
X61557142Y-58002438D02*
X61604761Y-58050057D01*
X61604761Y-58050057D02*
X61652380Y-58145295D01*
X61652380Y-58145295D02*
X61652380Y-58240533D01*
X61652380Y-58240533D02*
X61604761Y-58383390D01*
X61604761Y-58383390D02*
X61033333Y-58954819D01*
X61033333Y-58954819D02*
X61652380Y-58954819D01*
X61938095Y-57954819D02*
X62271428Y-58954819D01*
X62271428Y-58954819D02*
X62604761Y-57954819D01*
X58938095Y-61073866D02*
X59700000Y-61073866D01*
X59319047Y-61454819D02*
X59319047Y-60692914D01*
X60699999Y-61454819D02*
X60128571Y-61454819D01*
X60414285Y-61454819D02*
X60414285Y-60454819D01*
X60414285Y-60454819D02*
X60319047Y-60597676D01*
X60319047Y-60597676D02*
X60223809Y-60692914D01*
X60223809Y-60692914D02*
X60128571Y-60740533D01*
X61080952Y-60550057D02*
X61128571Y-60502438D01*
X61128571Y-60502438D02*
X61223809Y-60454819D01*
X61223809Y-60454819D02*
X61461904Y-60454819D01*
X61461904Y-60454819D02*
X61557142Y-60502438D01*
X61557142Y-60502438D02*
X61604761Y-60550057D01*
X61604761Y-60550057D02*
X61652380Y-60645295D01*
X61652380Y-60645295D02*
X61652380Y-60740533D01*
X61652380Y-60740533D02*
X61604761Y-60883390D01*
X61604761Y-60883390D02*
X61033333Y-61454819D01*
X61033333Y-61454819D02*
X61652380Y-61454819D01*
X61938095Y-60454819D02*
X62271428Y-61454819D01*
X62271428Y-61454819D02*
X62604761Y-60454819D01*
X72704819Y-90392857D02*
X72228628Y-90726190D01*
X72704819Y-90964285D02*
X71704819Y-90964285D01*
X71704819Y-90964285D02*
X71704819Y-90583333D01*
X71704819Y-90583333D02*
X71752438Y-90488095D01*
X71752438Y-90488095D02*
X71800057Y-90440476D01*
X71800057Y-90440476D02*
X71895295Y-90392857D01*
X71895295Y-90392857D02*
X72038152Y-90392857D01*
X72038152Y-90392857D02*
X72133390Y-90440476D01*
X72133390Y-90440476D02*
X72181009Y-90488095D01*
X72181009Y-90488095D02*
X72228628Y-90583333D01*
X72228628Y-90583333D02*
X72228628Y-90964285D01*
X72704819Y-89440476D02*
X72704819Y-90011904D01*
X72704819Y-89726190D02*
X71704819Y-89726190D01*
X71704819Y-89726190D02*
X71847676Y-89821428D01*
X71847676Y-89821428D02*
X71942914Y-89916666D01*
X71942914Y-89916666D02*
X71990533Y-90011904D01*
X72704819Y-88964285D02*
X72704819Y-88773809D01*
X72704819Y-88773809D02*
X72657200Y-88678571D01*
X72657200Y-88678571D02*
X72609580Y-88630952D01*
X72609580Y-88630952D02*
X72466723Y-88535714D01*
X72466723Y-88535714D02*
X72276247Y-88488095D01*
X72276247Y-88488095D02*
X71895295Y-88488095D01*
X71895295Y-88488095D02*
X71800057Y-88535714D01*
X71800057Y-88535714D02*
X71752438Y-88583333D01*
X71752438Y-88583333D02*
X71704819Y-88678571D01*
X71704819Y-88678571D02*
X71704819Y-88869047D01*
X71704819Y-88869047D02*
X71752438Y-88964285D01*
X71752438Y-88964285D02*
X71800057Y-89011904D01*
X71800057Y-89011904D02*
X71895295Y-89059523D01*
X71895295Y-89059523D02*
X72133390Y-89059523D01*
X72133390Y-89059523D02*
X72228628Y-89011904D01*
X72228628Y-89011904D02*
X72276247Y-88964285D01*
X72276247Y-88964285D02*
X72323866Y-88869047D01*
X72323866Y-88869047D02*
X72323866Y-88678571D01*
X72323866Y-88678571D02*
X72276247Y-88583333D01*
X72276247Y-88583333D02*
X72228628Y-88535714D01*
X72228628Y-88535714D02*
X72133390Y-88488095D01*
X92457142Y-88849819D02*
X91980952Y-88849819D01*
X91980952Y-88849819D02*
X91933333Y-89326009D01*
X91933333Y-89326009D02*
X91980952Y-89278390D01*
X91980952Y-89278390D02*
X92076190Y-89230771D01*
X92076190Y-89230771D02*
X92314285Y-89230771D01*
X92314285Y-89230771D02*
X92409523Y-89278390D01*
X92409523Y-89278390D02*
X92457142Y-89326009D01*
X92457142Y-89326009D02*
X92504761Y-89421247D01*
X92504761Y-89421247D02*
X92504761Y-89659342D01*
X92504761Y-89659342D02*
X92457142Y-89754580D01*
X92457142Y-89754580D02*
X92409523Y-89802200D01*
X92409523Y-89802200D02*
X92314285Y-89849819D01*
X92314285Y-89849819D02*
X92076190Y-89849819D01*
X92076190Y-89849819D02*
X91980952Y-89802200D01*
X91980952Y-89802200D02*
X91933333Y-89754580D01*
X93123809Y-88849819D02*
X93219047Y-88849819D01*
X93219047Y-88849819D02*
X93314285Y-88897438D01*
X93314285Y-88897438D02*
X93361904Y-88945057D01*
X93361904Y-88945057D02*
X93409523Y-89040295D01*
X93409523Y-89040295D02*
X93457142Y-89230771D01*
X93457142Y-89230771D02*
X93457142Y-89468866D01*
X93457142Y-89468866D02*
X93409523Y-89659342D01*
X93409523Y-89659342D02*
X93361904Y-89754580D01*
X93361904Y-89754580D02*
X93314285Y-89802200D01*
X93314285Y-89802200D02*
X93219047Y-89849819D01*
X93219047Y-89849819D02*
X93123809Y-89849819D01*
X93123809Y-89849819D02*
X93028571Y-89802200D01*
X93028571Y-89802200D02*
X92980952Y-89754580D01*
X92980952Y-89754580D02*
X92933333Y-89659342D01*
X92933333Y-89659342D02*
X92885714Y-89468866D01*
X92885714Y-89468866D02*
X92885714Y-89230771D01*
X92885714Y-89230771D02*
X92933333Y-89040295D01*
X92933333Y-89040295D02*
X92980952Y-88945057D01*
X92980952Y-88945057D02*
X93028571Y-88897438D01*
X93028571Y-88897438D02*
X93123809Y-88849819D01*
X93885714Y-89849819D02*
X93885714Y-88849819D01*
X93980952Y-89468866D02*
X94266666Y-89849819D01*
X94266666Y-89183152D02*
X93885714Y-89564104D01*
X90204761Y-94759580D02*
X90157142Y-94807200D01*
X90157142Y-94807200D02*
X90014285Y-94854819D01*
X90014285Y-94854819D02*
X89919047Y-94854819D01*
X89919047Y-94854819D02*
X89776190Y-94807200D01*
X89776190Y-94807200D02*
X89680952Y-94711961D01*
X89680952Y-94711961D02*
X89633333Y-94616723D01*
X89633333Y-94616723D02*
X89585714Y-94426247D01*
X89585714Y-94426247D02*
X89585714Y-94283390D01*
X89585714Y-94283390D02*
X89633333Y-94092914D01*
X89633333Y-94092914D02*
X89680952Y-93997676D01*
X89680952Y-93997676D02*
X89776190Y-93902438D01*
X89776190Y-93902438D02*
X89919047Y-93854819D01*
X89919047Y-93854819D02*
X90014285Y-93854819D01*
X90014285Y-93854819D02*
X90157142Y-93902438D01*
X90157142Y-93902438D02*
X90204761Y-93950057D01*
X90490476Y-93854819D02*
X90823809Y-94854819D01*
X90823809Y-94854819D02*
X91157142Y-93854819D01*
X92157143Y-94188152D02*
X92680952Y-94188152D01*
X92680952Y-94188152D02*
X92157143Y-94854819D01*
X92157143Y-94854819D02*
X92680952Y-94854819D01*
X93442857Y-94807200D02*
X93347619Y-94854819D01*
X93347619Y-94854819D02*
X93157143Y-94854819D01*
X93157143Y-94854819D02*
X93061905Y-94807200D01*
X93061905Y-94807200D02*
X93014286Y-94711961D01*
X93014286Y-94711961D02*
X93014286Y-94331009D01*
X93014286Y-94331009D02*
X93061905Y-94235771D01*
X93061905Y-94235771D02*
X93157143Y-94188152D01*
X93157143Y-94188152D02*
X93347619Y-94188152D01*
X93347619Y-94188152D02*
X93442857Y-94235771D01*
X93442857Y-94235771D02*
X93490476Y-94331009D01*
X93490476Y-94331009D02*
X93490476Y-94426247D01*
X93490476Y-94426247D02*
X93014286Y-94521485D01*
X93919048Y-94854819D02*
X93919048Y-94188152D01*
X93919048Y-94378628D02*
X93966667Y-94283390D01*
X93966667Y-94283390D02*
X94014286Y-94235771D01*
X94014286Y-94235771D02*
X94109524Y-94188152D01*
X94109524Y-94188152D02*
X94204762Y-94188152D01*
X94680953Y-94854819D02*
X94585715Y-94807200D01*
X94585715Y-94807200D02*
X94538096Y-94759580D01*
X94538096Y-94759580D02*
X94490477Y-94664342D01*
X94490477Y-94664342D02*
X94490477Y-94378628D01*
X94490477Y-94378628D02*
X94538096Y-94283390D01*
X94538096Y-94283390D02*
X94585715Y-94235771D01*
X94585715Y-94235771D02*
X94680953Y-94188152D01*
X94680953Y-94188152D02*
X94823810Y-94188152D01*
X94823810Y-94188152D02*
X94919048Y-94235771D01*
X94919048Y-94235771D02*
X94966667Y-94283390D01*
X94966667Y-94283390D02*
X95014286Y-94378628D01*
X95014286Y-94378628D02*
X95014286Y-94664342D01*
X95014286Y-94664342D02*
X94966667Y-94759580D01*
X94966667Y-94759580D02*
X94919048Y-94807200D01*
X94919048Y-94807200D02*
X94823810Y-94854819D01*
X94823810Y-94854819D02*
X94680953Y-94854819D01*
X72704819Y-93642857D02*
X72228628Y-93976190D01*
X72704819Y-94214285D02*
X71704819Y-94214285D01*
X71704819Y-94214285D02*
X71704819Y-93833333D01*
X71704819Y-93833333D02*
X71752438Y-93738095D01*
X71752438Y-93738095D02*
X71800057Y-93690476D01*
X71800057Y-93690476D02*
X71895295Y-93642857D01*
X71895295Y-93642857D02*
X72038152Y-93642857D01*
X72038152Y-93642857D02*
X72133390Y-93690476D01*
X72133390Y-93690476D02*
X72181009Y-93738095D01*
X72181009Y-93738095D02*
X72228628Y-93833333D01*
X72228628Y-93833333D02*
X72228628Y-94214285D01*
X71800057Y-93261904D02*
X71752438Y-93214285D01*
X71752438Y-93214285D02*
X71704819Y-93119047D01*
X71704819Y-93119047D02*
X71704819Y-92880952D01*
X71704819Y-92880952D02*
X71752438Y-92785714D01*
X71752438Y-92785714D02*
X71800057Y-92738095D01*
X71800057Y-92738095D02*
X71895295Y-92690476D01*
X71895295Y-92690476D02*
X71990533Y-92690476D01*
X71990533Y-92690476D02*
X72133390Y-92738095D01*
X72133390Y-92738095D02*
X72704819Y-93309523D01*
X72704819Y-93309523D02*
X72704819Y-92690476D01*
X72704819Y-91738095D02*
X72704819Y-92309523D01*
X72704819Y-92023809D02*
X71704819Y-92023809D01*
X71704819Y-92023809D02*
X71847676Y-92119047D01*
X71847676Y-92119047D02*
X71942914Y-92214285D01*
X71942914Y-92214285D02*
X71990533Y-92309523D01*
X66204819Y-69392857D02*
X65728628Y-69726190D01*
X66204819Y-69964285D02*
X65204819Y-69964285D01*
X65204819Y-69964285D02*
X65204819Y-69583333D01*
X65204819Y-69583333D02*
X65252438Y-69488095D01*
X65252438Y-69488095D02*
X65300057Y-69440476D01*
X65300057Y-69440476D02*
X65395295Y-69392857D01*
X65395295Y-69392857D02*
X65538152Y-69392857D01*
X65538152Y-69392857D02*
X65633390Y-69440476D01*
X65633390Y-69440476D02*
X65681009Y-69488095D01*
X65681009Y-69488095D02*
X65728628Y-69583333D01*
X65728628Y-69583333D02*
X65728628Y-69964285D01*
X65300057Y-69011904D02*
X65252438Y-68964285D01*
X65252438Y-68964285D02*
X65204819Y-68869047D01*
X65204819Y-68869047D02*
X65204819Y-68630952D01*
X65204819Y-68630952D02*
X65252438Y-68535714D01*
X65252438Y-68535714D02*
X65300057Y-68488095D01*
X65300057Y-68488095D02*
X65395295Y-68440476D01*
X65395295Y-68440476D02*
X65490533Y-68440476D01*
X65490533Y-68440476D02*
X65633390Y-68488095D01*
X65633390Y-68488095D02*
X66204819Y-69059523D01*
X66204819Y-69059523D02*
X66204819Y-68440476D01*
X65204819Y-68107142D02*
X65204819Y-67440476D01*
X65204819Y-67440476D02*
X66204819Y-67869047D01*
X92028571Y-54154819D02*
X91457143Y-54154819D01*
X91742857Y-54154819D02*
X91742857Y-53154819D01*
X91742857Y-53154819D02*
X91647619Y-53297676D01*
X91647619Y-53297676D02*
X91552381Y-53392914D01*
X91552381Y-53392914D02*
X91457143Y-53440533D01*
X92647619Y-53154819D02*
X92742857Y-53154819D01*
X92742857Y-53154819D02*
X92838095Y-53202438D01*
X92838095Y-53202438D02*
X92885714Y-53250057D01*
X92885714Y-53250057D02*
X92933333Y-53345295D01*
X92933333Y-53345295D02*
X92980952Y-53535771D01*
X92980952Y-53535771D02*
X92980952Y-53773866D01*
X92980952Y-53773866D02*
X92933333Y-53964342D01*
X92933333Y-53964342D02*
X92885714Y-54059580D01*
X92885714Y-54059580D02*
X92838095Y-54107200D01*
X92838095Y-54107200D02*
X92742857Y-54154819D01*
X92742857Y-54154819D02*
X92647619Y-54154819D01*
X92647619Y-54154819D02*
X92552381Y-54107200D01*
X92552381Y-54107200D02*
X92504762Y-54059580D01*
X92504762Y-54059580D02*
X92457143Y-53964342D01*
X92457143Y-53964342D02*
X92409524Y-53773866D01*
X92409524Y-53773866D02*
X92409524Y-53535771D01*
X92409524Y-53535771D02*
X92457143Y-53345295D01*
X92457143Y-53345295D02*
X92504762Y-53250057D01*
X92504762Y-53250057D02*
X92552381Y-53202438D01*
X92552381Y-53202438D02*
X92647619Y-53154819D01*
X93600000Y-53154819D02*
X93695238Y-53154819D01*
X93695238Y-53154819D02*
X93790476Y-53202438D01*
X93790476Y-53202438D02*
X93838095Y-53250057D01*
X93838095Y-53250057D02*
X93885714Y-53345295D01*
X93885714Y-53345295D02*
X93933333Y-53535771D01*
X93933333Y-53535771D02*
X93933333Y-53773866D01*
X93933333Y-53773866D02*
X93885714Y-53964342D01*
X93885714Y-53964342D02*
X93838095Y-54059580D01*
X93838095Y-54059580D02*
X93790476Y-54107200D01*
X93790476Y-54107200D02*
X93695238Y-54154819D01*
X93695238Y-54154819D02*
X93600000Y-54154819D01*
X93600000Y-54154819D02*
X93504762Y-54107200D01*
X93504762Y-54107200D02*
X93457143Y-54059580D01*
X93457143Y-54059580D02*
X93409524Y-53964342D01*
X93409524Y-53964342D02*
X93361905Y-53773866D01*
X93361905Y-53773866D02*
X93361905Y-53535771D01*
X93361905Y-53535771D02*
X93409524Y-53345295D01*
X93409524Y-53345295D02*
X93457143Y-53250057D01*
X93457143Y-53250057D02*
X93504762Y-53202438D01*
X93504762Y-53202438D02*
X93600000Y-53154819D01*
X94361905Y-54154819D02*
X94361905Y-53154819D01*
X94457143Y-53773866D02*
X94742857Y-54154819D01*
X94742857Y-53488152D02*
X94361905Y-53869104D01*
X97861905Y-56969104D02*
X98338095Y-56969104D01*
X97766667Y-57254819D02*
X98100000Y-56254819D01*
X98100000Y-56254819D02*
X98433333Y-57254819D01*
X70607142Y-84704819D02*
X70273809Y-84228628D01*
X70035714Y-84704819D02*
X70035714Y-83704819D01*
X70035714Y-83704819D02*
X70416666Y-83704819D01*
X70416666Y-83704819D02*
X70511904Y-83752438D01*
X70511904Y-83752438D02*
X70559523Y-83800057D01*
X70559523Y-83800057D02*
X70607142Y-83895295D01*
X70607142Y-83895295D02*
X70607142Y-84038152D01*
X70607142Y-84038152D02*
X70559523Y-84133390D01*
X70559523Y-84133390D02*
X70511904Y-84181009D01*
X70511904Y-84181009D02*
X70416666Y-84228628D01*
X70416666Y-84228628D02*
X70035714Y-84228628D01*
X70940476Y-83704819D02*
X71559523Y-83704819D01*
X71559523Y-83704819D02*
X71226190Y-84085771D01*
X71226190Y-84085771D02*
X71369047Y-84085771D01*
X71369047Y-84085771D02*
X71464285Y-84133390D01*
X71464285Y-84133390D02*
X71511904Y-84181009D01*
X71511904Y-84181009D02*
X71559523Y-84276247D01*
X71559523Y-84276247D02*
X71559523Y-84514342D01*
X71559523Y-84514342D02*
X71511904Y-84609580D01*
X71511904Y-84609580D02*
X71464285Y-84657200D01*
X71464285Y-84657200D02*
X71369047Y-84704819D01*
X71369047Y-84704819D02*
X71083333Y-84704819D01*
X71083333Y-84704819D02*
X70988095Y-84657200D01*
X70988095Y-84657200D02*
X70940476Y-84609580D01*
X71892857Y-83704819D02*
X72511904Y-83704819D01*
X72511904Y-83704819D02*
X72178571Y-84085771D01*
X72178571Y-84085771D02*
X72321428Y-84085771D01*
X72321428Y-84085771D02*
X72416666Y-84133390D01*
X72416666Y-84133390D02*
X72464285Y-84181009D01*
X72464285Y-84181009D02*
X72511904Y-84276247D01*
X72511904Y-84276247D02*
X72511904Y-84514342D01*
X72511904Y-84514342D02*
X72464285Y-84609580D01*
X72464285Y-84609580D02*
X72416666Y-84657200D01*
X72416666Y-84657200D02*
X72321428Y-84704819D01*
X72321428Y-84704819D02*
X72035714Y-84704819D01*
X72035714Y-84704819D02*
X71940476Y-84657200D01*
X71940476Y-84657200D02*
X71892857Y-84609580D01*
X85204819Y-75416666D02*
X84728628Y-75749999D01*
X85204819Y-75988094D02*
X84204819Y-75988094D01*
X84204819Y-75988094D02*
X84204819Y-75607142D01*
X84204819Y-75607142D02*
X84252438Y-75511904D01*
X84252438Y-75511904D02*
X84300057Y-75464285D01*
X84300057Y-75464285D02*
X84395295Y-75416666D01*
X84395295Y-75416666D02*
X84538152Y-75416666D01*
X84538152Y-75416666D02*
X84633390Y-75464285D01*
X84633390Y-75464285D02*
X84681009Y-75511904D01*
X84681009Y-75511904D02*
X84728628Y-75607142D01*
X84728628Y-75607142D02*
X84728628Y-75988094D01*
X84204819Y-74559523D02*
X84204819Y-74749999D01*
X84204819Y-74749999D02*
X84252438Y-74845237D01*
X84252438Y-74845237D02*
X84300057Y-74892856D01*
X84300057Y-74892856D02*
X84442914Y-74988094D01*
X84442914Y-74988094D02*
X84633390Y-75035713D01*
X84633390Y-75035713D02*
X85014342Y-75035713D01*
X85014342Y-75035713D02*
X85109580Y-74988094D01*
X85109580Y-74988094D02*
X85157200Y-74940475D01*
X85157200Y-74940475D02*
X85204819Y-74845237D01*
X85204819Y-74845237D02*
X85204819Y-74654761D01*
X85204819Y-74654761D02*
X85157200Y-74559523D01*
X85157200Y-74559523D02*
X85109580Y-74511904D01*
X85109580Y-74511904D02*
X85014342Y-74464285D01*
X85014342Y-74464285D02*
X84776247Y-74464285D01*
X84776247Y-74464285D02*
X84681009Y-74511904D01*
X84681009Y-74511904D02*
X84633390Y-74559523D01*
X84633390Y-74559523D02*
X84585771Y-74654761D01*
X84585771Y-74654761D02*
X84585771Y-74845237D01*
X84585771Y-74845237D02*
X84633390Y-74940475D01*
X84633390Y-74940475D02*
X84681009Y-74988094D01*
X84681009Y-74988094D02*
X84776247Y-75035713D01*
X77452380Y-56454819D02*
X76880952Y-56454819D01*
X77166666Y-56454819D02*
X77166666Y-55454819D01*
X77166666Y-55454819D02*
X77071428Y-55597676D01*
X77071428Y-55597676D02*
X76976190Y-55692914D01*
X76976190Y-55692914D02*
X76880952Y-55740533D01*
X78071428Y-55454819D02*
X78166666Y-55454819D01*
X78166666Y-55454819D02*
X78261904Y-55502438D01*
X78261904Y-55502438D02*
X78309523Y-55550057D01*
X78309523Y-55550057D02*
X78357142Y-55645295D01*
X78357142Y-55645295D02*
X78404761Y-55835771D01*
X78404761Y-55835771D02*
X78404761Y-56073866D01*
X78404761Y-56073866D02*
X78357142Y-56264342D01*
X78357142Y-56264342D02*
X78309523Y-56359580D01*
X78309523Y-56359580D02*
X78261904Y-56407200D01*
X78261904Y-56407200D02*
X78166666Y-56454819D01*
X78166666Y-56454819D02*
X78071428Y-56454819D01*
X78071428Y-56454819D02*
X77976190Y-56407200D01*
X77976190Y-56407200D02*
X77928571Y-56359580D01*
X77928571Y-56359580D02*
X77880952Y-56264342D01*
X77880952Y-56264342D02*
X77833333Y-56073866D01*
X77833333Y-56073866D02*
X77833333Y-55835771D01*
X77833333Y-55835771D02*
X77880952Y-55645295D01*
X77880952Y-55645295D02*
X77928571Y-55550057D01*
X77928571Y-55550057D02*
X77976190Y-55502438D01*
X77976190Y-55502438D02*
X78071428Y-55454819D01*
X79023809Y-55454819D02*
X79119047Y-55454819D01*
X79119047Y-55454819D02*
X79214285Y-55502438D01*
X79214285Y-55502438D02*
X79261904Y-55550057D01*
X79261904Y-55550057D02*
X79309523Y-55645295D01*
X79309523Y-55645295D02*
X79357142Y-55835771D01*
X79357142Y-55835771D02*
X79357142Y-56073866D01*
X79357142Y-56073866D02*
X79309523Y-56264342D01*
X79309523Y-56264342D02*
X79261904Y-56359580D01*
X79261904Y-56359580D02*
X79214285Y-56407200D01*
X79214285Y-56407200D02*
X79119047Y-56454819D01*
X79119047Y-56454819D02*
X79023809Y-56454819D01*
X79023809Y-56454819D02*
X78928571Y-56407200D01*
X78928571Y-56407200D02*
X78880952Y-56359580D01*
X78880952Y-56359580D02*
X78833333Y-56264342D01*
X78833333Y-56264342D02*
X78785714Y-56073866D01*
X78785714Y-56073866D02*
X78785714Y-55835771D01*
X78785714Y-55835771D02*
X78833333Y-55645295D01*
X78833333Y-55645295D02*
X78880952Y-55550057D01*
X78880952Y-55550057D02*
X78928571Y-55502438D01*
X78928571Y-55502438D02*
X79023809Y-55454819D01*
X79785714Y-55788152D02*
X79785714Y-56454819D01*
X79785714Y-55883390D02*
X79833333Y-55835771D01*
X79833333Y-55835771D02*
X79928571Y-55788152D01*
X79928571Y-55788152D02*
X80071428Y-55788152D01*
X80071428Y-55788152D02*
X80166666Y-55835771D01*
X80166666Y-55835771D02*
X80214285Y-55931009D01*
X80214285Y-55931009D02*
X80214285Y-56454819D01*
X81023809Y-55931009D02*
X80690476Y-55931009D01*
X80690476Y-56454819D02*
X80690476Y-55454819D01*
X80690476Y-55454819D02*
X81166666Y-55454819D01*
X72749819Y-87192857D02*
X72273628Y-87526190D01*
X72749819Y-87764285D02*
X71749819Y-87764285D01*
X71749819Y-87764285D02*
X71749819Y-87383333D01*
X71749819Y-87383333D02*
X71797438Y-87288095D01*
X71797438Y-87288095D02*
X71845057Y-87240476D01*
X71845057Y-87240476D02*
X71940295Y-87192857D01*
X71940295Y-87192857D02*
X72083152Y-87192857D01*
X72083152Y-87192857D02*
X72178390Y-87240476D01*
X72178390Y-87240476D02*
X72226009Y-87288095D01*
X72226009Y-87288095D02*
X72273628Y-87383333D01*
X72273628Y-87383333D02*
X72273628Y-87764285D01*
X71845057Y-86811904D02*
X71797438Y-86764285D01*
X71797438Y-86764285D02*
X71749819Y-86669047D01*
X71749819Y-86669047D02*
X71749819Y-86430952D01*
X71749819Y-86430952D02*
X71797438Y-86335714D01*
X71797438Y-86335714D02*
X71845057Y-86288095D01*
X71845057Y-86288095D02*
X71940295Y-86240476D01*
X71940295Y-86240476D02*
X72035533Y-86240476D01*
X72035533Y-86240476D02*
X72178390Y-86288095D01*
X72178390Y-86288095D02*
X72749819Y-86859523D01*
X72749819Y-86859523D02*
X72749819Y-86240476D01*
X71749819Y-85907142D02*
X71749819Y-85288095D01*
X71749819Y-85288095D02*
X72130771Y-85621428D01*
X72130771Y-85621428D02*
X72130771Y-85478571D01*
X72130771Y-85478571D02*
X72178390Y-85383333D01*
X72178390Y-85383333D02*
X72226009Y-85335714D01*
X72226009Y-85335714D02*
X72321247Y-85288095D01*
X72321247Y-85288095D02*
X72559342Y-85288095D01*
X72559342Y-85288095D02*
X72654580Y-85335714D01*
X72654580Y-85335714D02*
X72702200Y-85383333D01*
X72702200Y-85383333D02*
X72749819Y-85478571D01*
X72749819Y-85478571D02*
X72749819Y-85764285D01*
X72749819Y-85764285D02*
X72702200Y-85859523D01*
X72702200Y-85859523D02*
X72654580Y-85907142D01*
X77452380Y-81954819D02*
X76880952Y-81954819D01*
X77166666Y-81954819D02*
X77166666Y-80954819D01*
X77166666Y-80954819D02*
X77071428Y-81097676D01*
X77071428Y-81097676D02*
X76976190Y-81192914D01*
X76976190Y-81192914D02*
X76880952Y-81240533D01*
X78071428Y-80954819D02*
X78166666Y-80954819D01*
X78166666Y-80954819D02*
X78261904Y-81002438D01*
X78261904Y-81002438D02*
X78309523Y-81050057D01*
X78309523Y-81050057D02*
X78357142Y-81145295D01*
X78357142Y-81145295D02*
X78404761Y-81335771D01*
X78404761Y-81335771D02*
X78404761Y-81573866D01*
X78404761Y-81573866D02*
X78357142Y-81764342D01*
X78357142Y-81764342D02*
X78309523Y-81859580D01*
X78309523Y-81859580D02*
X78261904Y-81907200D01*
X78261904Y-81907200D02*
X78166666Y-81954819D01*
X78166666Y-81954819D02*
X78071428Y-81954819D01*
X78071428Y-81954819D02*
X77976190Y-81907200D01*
X77976190Y-81907200D02*
X77928571Y-81859580D01*
X77928571Y-81859580D02*
X77880952Y-81764342D01*
X77880952Y-81764342D02*
X77833333Y-81573866D01*
X77833333Y-81573866D02*
X77833333Y-81335771D01*
X77833333Y-81335771D02*
X77880952Y-81145295D01*
X77880952Y-81145295D02*
X77928571Y-81050057D01*
X77928571Y-81050057D02*
X77976190Y-81002438D01*
X77976190Y-81002438D02*
X78071428Y-80954819D01*
X79023809Y-80954819D02*
X79119047Y-80954819D01*
X79119047Y-80954819D02*
X79214285Y-81002438D01*
X79214285Y-81002438D02*
X79261904Y-81050057D01*
X79261904Y-81050057D02*
X79309523Y-81145295D01*
X79309523Y-81145295D02*
X79357142Y-81335771D01*
X79357142Y-81335771D02*
X79357142Y-81573866D01*
X79357142Y-81573866D02*
X79309523Y-81764342D01*
X79309523Y-81764342D02*
X79261904Y-81859580D01*
X79261904Y-81859580D02*
X79214285Y-81907200D01*
X79214285Y-81907200D02*
X79119047Y-81954819D01*
X79119047Y-81954819D02*
X79023809Y-81954819D01*
X79023809Y-81954819D02*
X78928571Y-81907200D01*
X78928571Y-81907200D02*
X78880952Y-81859580D01*
X78880952Y-81859580D02*
X78833333Y-81764342D01*
X78833333Y-81764342D02*
X78785714Y-81573866D01*
X78785714Y-81573866D02*
X78785714Y-81335771D01*
X78785714Y-81335771D02*
X78833333Y-81145295D01*
X78833333Y-81145295D02*
X78880952Y-81050057D01*
X78880952Y-81050057D02*
X78928571Y-81002438D01*
X78928571Y-81002438D02*
X79023809Y-80954819D01*
X79785714Y-81288152D02*
X79785714Y-81954819D01*
X79785714Y-81383390D02*
X79833333Y-81335771D01*
X79833333Y-81335771D02*
X79928571Y-81288152D01*
X79928571Y-81288152D02*
X80071428Y-81288152D01*
X80071428Y-81288152D02*
X80166666Y-81335771D01*
X80166666Y-81335771D02*
X80214285Y-81431009D01*
X80214285Y-81431009D02*
X80214285Y-81954819D01*
X81023809Y-81431009D02*
X80690476Y-81431009D01*
X80690476Y-81954819D02*
X80690476Y-80954819D01*
X80690476Y-80954819D02*
X81166666Y-80954819D01*
X91704819Y-69392857D02*
X91228628Y-69726190D01*
X91704819Y-69964285D02*
X90704819Y-69964285D01*
X90704819Y-69964285D02*
X90704819Y-69583333D01*
X90704819Y-69583333D02*
X90752438Y-69488095D01*
X90752438Y-69488095D02*
X90800057Y-69440476D01*
X90800057Y-69440476D02*
X90895295Y-69392857D01*
X90895295Y-69392857D02*
X91038152Y-69392857D01*
X91038152Y-69392857D02*
X91133390Y-69440476D01*
X91133390Y-69440476D02*
X91181009Y-69488095D01*
X91181009Y-69488095D02*
X91228628Y-69583333D01*
X91228628Y-69583333D02*
X91228628Y-69964285D01*
X91704819Y-68440476D02*
X91704819Y-69011904D01*
X91704819Y-68726190D02*
X90704819Y-68726190D01*
X90704819Y-68726190D02*
X90847676Y-68821428D01*
X90847676Y-68821428D02*
X90942914Y-68916666D01*
X90942914Y-68916666D02*
X90990533Y-69011904D01*
X90704819Y-68107142D02*
X90704819Y-67488095D01*
X90704819Y-67488095D02*
X91085771Y-67821428D01*
X91085771Y-67821428D02*
X91085771Y-67678571D01*
X91085771Y-67678571D02*
X91133390Y-67583333D01*
X91133390Y-67583333D02*
X91181009Y-67535714D01*
X91181009Y-67535714D02*
X91276247Y-67488095D01*
X91276247Y-67488095D02*
X91514342Y-67488095D01*
X91514342Y-67488095D02*
X91609580Y-67535714D01*
X91609580Y-67535714D02*
X91657200Y-67583333D01*
X91657200Y-67583333D02*
X91704819Y-67678571D01*
X91704819Y-67678571D02*
X91704819Y-67964285D01*
X91704819Y-67964285D02*
X91657200Y-68059523D01*
X91657200Y-68059523D02*
X91609580Y-68107142D01*
X66204819Y-66142857D02*
X65728628Y-66476190D01*
X66204819Y-66714285D02*
X65204819Y-66714285D01*
X65204819Y-66714285D02*
X65204819Y-66333333D01*
X65204819Y-66333333D02*
X65252438Y-66238095D01*
X65252438Y-66238095D02*
X65300057Y-66190476D01*
X65300057Y-66190476D02*
X65395295Y-66142857D01*
X65395295Y-66142857D02*
X65538152Y-66142857D01*
X65538152Y-66142857D02*
X65633390Y-66190476D01*
X65633390Y-66190476D02*
X65681009Y-66238095D01*
X65681009Y-66238095D02*
X65728628Y-66333333D01*
X65728628Y-66333333D02*
X65728628Y-66714285D01*
X66204819Y-65190476D02*
X66204819Y-65761904D01*
X66204819Y-65476190D02*
X65204819Y-65476190D01*
X65204819Y-65476190D02*
X65347676Y-65571428D01*
X65347676Y-65571428D02*
X65442914Y-65666666D01*
X65442914Y-65666666D02*
X65490533Y-65761904D01*
X65204819Y-64571428D02*
X65204819Y-64476190D01*
X65204819Y-64476190D02*
X65252438Y-64380952D01*
X65252438Y-64380952D02*
X65300057Y-64333333D01*
X65300057Y-64333333D02*
X65395295Y-64285714D01*
X65395295Y-64285714D02*
X65585771Y-64238095D01*
X65585771Y-64238095D02*
X65823866Y-64238095D01*
X65823866Y-64238095D02*
X66014342Y-64285714D01*
X66014342Y-64285714D02*
X66109580Y-64333333D01*
X66109580Y-64333333D02*
X66157200Y-64380952D01*
X66157200Y-64380952D02*
X66204819Y-64476190D01*
X66204819Y-64476190D02*
X66204819Y-64571428D01*
X66204819Y-64571428D02*
X66157200Y-64666666D01*
X66157200Y-64666666D02*
X66109580Y-64714285D01*
X66109580Y-64714285D02*
X66014342Y-64761904D01*
X66014342Y-64761904D02*
X65823866Y-64809523D01*
X65823866Y-64809523D02*
X65585771Y-64809523D01*
X65585771Y-64809523D02*
X65395295Y-64761904D01*
X65395295Y-64761904D02*
X65300057Y-64714285D01*
X65300057Y-64714285D02*
X65252438Y-64666666D01*
X65252438Y-64666666D02*
X65204819Y-64571428D01*
X66204819Y-93166666D02*
X65728628Y-93499999D01*
X66204819Y-93738094D02*
X65204819Y-93738094D01*
X65204819Y-93738094D02*
X65204819Y-93357142D01*
X65204819Y-93357142D02*
X65252438Y-93261904D01*
X65252438Y-93261904D02*
X65300057Y-93214285D01*
X65300057Y-93214285D02*
X65395295Y-93166666D01*
X65395295Y-93166666D02*
X65538152Y-93166666D01*
X65538152Y-93166666D02*
X65633390Y-93214285D01*
X65633390Y-93214285D02*
X65681009Y-93261904D01*
X65681009Y-93261904D02*
X65728628Y-93357142D01*
X65728628Y-93357142D02*
X65728628Y-93738094D01*
X65538152Y-92309523D02*
X66204819Y-92309523D01*
X65157200Y-92547618D02*
X65871485Y-92785713D01*
X65871485Y-92785713D02*
X65871485Y-92166666D01*
X66204819Y-90392857D02*
X65728628Y-90726190D01*
X66204819Y-90964285D02*
X65204819Y-90964285D01*
X65204819Y-90964285D02*
X65204819Y-90583333D01*
X65204819Y-90583333D02*
X65252438Y-90488095D01*
X65252438Y-90488095D02*
X65300057Y-90440476D01*
X65300057Y-90440476D02*
X65395295Y-90392857D01*
X65395295Y-90392857D02*
X65538152Y-90392857D01*
X65538152Y-90392857D02*
X65633390Y-90440476D01*
X65633390Y-90440476D02*
X65681009Y-90488095D01*
X65681009Y-90488095D02*
X65728628Y-90583333D01*
X65728628Y-90583333D02*
X65728628Y-90964285D01*
X65300057Y-90011904D02*
X65252438Y-89964285D01*
X65252438Y-89964285D02*
X65204819Y-89869047D01*
X65204819Y-89869047D02*
X65204819Y-89630952D01*
X65204819Y-89630952D02*
X65252438Y-89535714D01*
X65252438Y-89535714D02*
X65300057Y-89488095D01*
X65300057Y-89488095D02*
X65395295Y-89440476D01*
X65395295Y-89440476D02*
X65490533Y-89440476D01*
X65490533Y-89440476D02*
X65633390Y-89488095D01*
X65633390Y-89488095D02*
X66204819Y-90059523D01*
X66204819Y-90059523D02*
X66204819Y-89440476D01*
X65633390Y-88869047D02*
X65585771Y-88964285D01*
X65585771Y-88964285D02*
X65538152Y-89011904D01*
X65538152Y-89011904D02*
X65442914Y-89059523D01*
X65442914Y-89059523D02*
X65395295Y-89059523D01*
X65395295Y-89059523D02*
X65300057Y-89011904D01*
X65300057Y-89011904D02*
X65252438Y-88964285D01*
X65252438Y-88964285D02*
X65204819Y-88869047D01*
X65204819Y-88869047D02*
X65204819Y-88678571D01*
X65204819Y-88678571D02*
X65252438Y-88583333D01*
X65252438Y-88583333D02*
X65300057Y-88535714D01*
X65300057Y-88535714D02*
X65395295Y-88488095D01*
X65395295Y-88488095D02*
X65442914Y-88488095D01*
X65442914Y-88488095D02*
X65538152Y-88535714D01*
X65538152Y-88535714D02*
X65585771Y-88583333D01*
X65585771Y-88583333D02*
X65633390Y-88678571D01*
X65633390Y-88678571D02*
X65633390Y-88869047D01*
X65633390Y-88869047D02*
X65681009Y-88964285D01*
X65681009Y-88964285D02*
X65728628Y-89011904D01*
X65728628Y-89011904D02*
X65823866Y-89059523D01*
X65823866Y-89059523D02*
X66014342Y-89059523D01*
X66014342Y-89059523D02*
X66109580Y-89011904D01*
X66109580Y-89011904D02*
X66157200Y-88964285D01*
X66157200Y-88964285D02*
X66204819Y-88869047D01*
X66204819Y-88869047D02*
X66204819Y-88678571D01*
X66204819Y-88678571D02*
X66157200Y-88583333D01*
X66157200Y-88583333D02*
X66109580Y-88535714D01*
X66109580Y-88535714D02*
X66014342Y-88488095D01*
X66014342Y-88488095D02*
X65823866Y-88488095D01*
X65823866Y-88488095D02*
X65728628Y-88535714D01*
X65728628Y-88535714D02*
X65681009Y-88583333D01*
X65681009Y-88583333D02*
X65633390Y-88678571D01*
X91704819Y-72166666D02*
X91228628Y-72499999D01*
X91704819Y-72738094D02*
X90704819Y-72738094D01*
X90704819Y-72738094D02*
X90704819Y-72357142D01*
X90704819Y-72357142D02*
X90752438Y-72261904D01*
X90752438Y-72261904D02*
X90800057Y-72214285D01*
X90800057Y-72214285D02*
X90895295Y-72166666D01*
X90895295Y-72166666D02*
X91038152Y-72166666D01*
X91038152Y-72166666D02*
X91133390Y-72214285D01*
X91133390Y-72214285D02*
X91181009Y-72261904D01*
X91181009Y-72261904D02*
X91228628Y-72357142D01*
X91228628Y-72357142D02*
X91228628Y-72738094D01*
X90704819Y-71833332D02*
X90704819Y-71166666D01*
X90704819Y-71166666D02*
X91704819Y-71595237D01*
X92028571Y-59554819D02*
X91457143Y-59554819D01*
X91742857Y-59554819D02*
X91742857Y-58554819D01*
X91742857Y-58554819D02*
X91647619Y-58697676D01*
X91647619Y-58697676D02*
X91552381Y-58792914D01*
X91552381Y-58792914D02*
X91457143Y-58840533D01*
X92647619Y-58554819D02*
X92742857Y-58554819D01*
X92742857Y-58554819D02*
X92838095Y-58602438D01*
X92838095Y-58602438D02*
X92885714Y-58650057D01*
X92885714Y-58650057D02*
X92933333Y-58745295D01*
X92933333Y-58745295D02*
X92980952Y-58935771D01*
X92980952Y-58935771D02*
X92980952Y-59173866D01*
X92980952Y-59173866D02*
X92933333Y-59364342D01*
X92933333Y-59364342D02*
X92885714Y-59459580D01*
X92885714Y-59459580D02*
X92838095Y-59507200D01*
X92838095Y-59507200D02*
X92742857Y-59554819D01*
X92742857Y-59554819D02*
X92647619Y-59554819D01*
X92647619Y-59554819D02*
X92552381Y-59507200D01*
X92552381Y-59507200D02*
X92504762Y-59459580D01*
X92504762Y-59459580D02*
X92457143Y-59364342D01*
X92457143Y-59364342D02*
X92409524Y-59173866D01*
X92409524Y-59173866D02*
X92409524Y-58935771D01*
X92409524Y-58935771D02*
X92457143Y-58745295D01*
X92457143Y-58745295D02*
X92504762Y-58650057D01*
X92504762Y-58650057D02*
X92552381Y-58602438D01*
X92552381Y-58602438D02*
X92647619Y-58554819D01*
X93600000Y-58554819D02*
X93695238Y-58554819D01*
X93695238Y-58554819D02*
X93790476Y-58602438D01*
X93790476Y-58602438D02*
X93838095Y-58650057D01*
X93838095Y-58650057D02*
X93885714Y-58745295D01*
X93885714Y-58745295D02*
X93933333Y-58935771D01*
X93933333Y-58935771D02*
X93933333Y-59173866D01*
X93933333Y-59173866D02*
X93885714Y-59364342D01*
X93885714Y-59364342D02*
X93838095Y-59459580D01*
X93838095Y-59459580D02*
X93790476Y-59507200D01*
X93790476Y-59507200D02*
X93695238Y-59554819D01*
X93695238Y-59554819D02*
X93600000Y-59554819D01*
X93600000Y-59554819D02*
X93504762Y-59507200D01*
X93504762Y-59507200D02*
X93457143Y-59459580D01*
X93457143Y-59459580D02*
X93409524Y-59364342D01*
X93409524Y-59364342D02*
X93361905Y-59173866D01*
X93361905Y-59173866D02*
X93361905Y-58935771D01*
X93361905Y-58935771D02*
X93409524Y-58745295D01*
X93409524Y-58745295D02*
X93457143Y-58650057D01*
X93457143Y-58650057D02*
X93504762Y-58602438D01*
X93504762Y-58602438D02*
X93600000Y-58554819D01*
X94361905Y-59554819D02*
X94361905Y-58554819D01*
X94457143Y-59173866D02*
X94742857Y-59554819D01*
X94742857Y-58888152D02*
X94361905Y-59269104D01*
X98171428Y-62131009D02*
X98314285Y-62178628D01*
X98314285Y-62178628D02*
X98361904Y-62226247D01*
X98361904Y-62226247D02*
X98409523Y-62321485D01*
X98409523Y-62321485D02*
X98409523Y-62464342D01*
X98409523Y-62464342D02*
X98361904Y-62559580D01*
X98361904Y-62559580D02*
X98314285Y-62607200D01*
X98314285Y-62607200D02*
X98219047Y-62654819D01*
X98219047Y-62654819D02*
X97838095Y-62654819D01*
X97838095Y-62654819D02*
X97838095Y-61654819D01*
X97838095Y-61654819D02*
X98171428Y-61654819D01*
X98171428Y-61654819D02*
X98266666Y-61702438D01*
X98266666Y-61702438D02*
X98314285Y-61750057D01*
X98314285Y-61750057D02*
X98361904Y-61845295D01*
X98361904Y-61845295D02*
X98361904Y-61940533D01*
X98361904Y-61940533D02*
X98314285Y-62035771D01*
X98314285Y-62035771D02*
X98266666Y-62083390D01*
X98266666Y-62083390D02*
X98171428Y-62131009D01*
X98171428Y-62131009D02*
X97838095Y-62131009D01*
X70607142Y-63704819D02*
X70273809Y-63228628D01*
X70035714Y-63704819D02*
X70035714Y-62704819D01*
X70035714Y-62704819D02*
X70416666Y-62704819D01*
X70416666Y-62704819D02*
X70511904Y-62752438D01*
X70511904Y-62752438D02*
X70559523Y-62800057D01*
X70559523Y-62800057D02*
X70607142Y-62895295D01*
X70607142Y-62895295D02*
X70607142Y-63038152D01*
X70607142Y-63038152D02*
X70559523Y-63133390D01*
X70559523Y-63133390D02*
X70511904Y-63181009D01*
X70511904Y-63181009D02*
X70416666Y-63228628D01*
X70416666Y-63228628D02*
X70035714Y-63228628D01*
X70940476Y-62704819D02*
X71559523Y-62704819D01*
X71559523Y-62704819D02*
X71226190Y-63085771D01*
X71226190Y-63085771D02*
X71369047Y-63085771D01*
X71369047Y-63085771D02*
X71464285Y-63133390D01*
X71464285Y-63133390D02*
X71511904Y-63181009D01*
X71511904Y-63181009D02*
X71559523Y-63276247D01*
X71559523Y-63276247D02*
X71559523Y-63514342D01*
X71559523Y-63514342D02*
X71511904Y-63609580D01*
X71511904Y-63609580D02*
X71464285Y-63657200D01*
X71464285Y-63657200D02*
X71369047Y-63704819D01*
X71369047Y-63704819D02*
X71083333Y-63704819D01*
X71083333Y-63704819D02*
X70988095Y-63657200D01*
X70988095Y-63657200D02*
X70940476Y-63609580D01*
X71940476Y-62800057D02*
X71988095Y-62752438D01*
X71988095Y-62752438D02*
X72083333Y-62704819D01*
X72083333Y-62704819D02*
X72321428Y-62704819D01*
X72321428Y-62704819D02*
X72416666Y-62752438D01*
X72416666Y-62752438D02*
X72464285Y-62800057D01*
X72464285Y-62800057D02*
X72511904Y-62895295D01*
X72511904Y-62895295D02*
X72511904Y-62990533D01*
X72511904Y-62990533D02*
X72464285Y-63133390D01*
X72464285Y-63133390D02*
X71892857Y-63704819D01*
X71892857Y-63704819D02*
X72511904Y-63704819D01*
X71832142Y-53834819D02*
X71498809Y-53358628D01*
X71260714Y-53834819D02*
X71260714Y-52834819D01*
X71260714Y-52834819D02*
X71641666Y-52834819D01*
X71641666Y-52834819D02*
X71736904Y-52882438D01*
X71736904Y-52882438D02*
X71784523Y-52930057D01*
X71784523Y-52930057D02*
X71832142Y-53025295D01*
X71832142Y-53025295D02*
X71832142Y-53168152D01*
X71832142Y-53168152D02*
X71784523Y-53263390D01*
X71784523Y-53263390D02*
X71736904Y-53311009D01*
X71736904Y-53311009D02*
X71641666Y-53358628D01*
X71641666Y-53358628D02*
X71260714Y-53358628D01*
X72165476Y-52834819D02*
X72784523Y-52834819D01*
X72784523Y-52834819D02*
X72451190Y-53215771D01*
X72451190Y-53215771D02*
X72594047Y-53215771D01*
X72594047Y-53215771D02*
X72689285Y-53263390D01*
X72689285Y-53263390D02*
X72736904Y-53311009D01*
X72736904Y-53311009D02*
X72784523Y-53406247D01*
X72784523Y-53406247D02*
X72784523Y-53644342D01*
X72784523Y-53644342D02*
X72736904Y-53739580D01*
X72736904Y-53739580D02*
X72689285Y-53787200D01*
X72689285Y-53787200D02*
X72594047Y-53834819D01*
X72594047Y-53834819D02*
X72308333Y-53834819D01*
X72308333Y-53834819D02*
X72213095Y-53787200D01*
X72213095Y-53787200D02*
X72165476Y-53739580D01*
X73641666Y-53168152D02*
X73641666Y-53834819D01*
X73403571Y-52787200D02*
X73165476Y-53501485D01*
X73165476Y-53501485D02*
X73784523Y-53501485D01*
X85204819Y-66142857D02*
X84728628Y-66476190D01*
X85204819Y-66714285D02*
X84204819Y-66714285D01*
X84204819Y-66714285D02*
X84204819Y-66333333D01*
X84204819Y-66333333D02*
X84252438Y-66238095D01*
X84252438Y-66238095D02*
X84300057Y-66190476D01*
X84300057Y-66190476D02*
X84395295Y-66142857D01*
X84395295Y-66142857D02*
X84538152Y-66142857D01*
X84538152Y-66142857D02*
X84633390Y-66190476D01*
X84633390Y-66190476D02*
X84681009Y-66238095D01*
X84681009Y-66238095D02*
X84728628Y-66333333D01*
X84728628Y-66333333D02*
X84728628Y-66714285D01*
X84300057Y-65761904D02*
X84252438Y-65714285D01*
X84252438Y-65714285D02*
X84204819Y-65619047D01*
X84204819Y-65619047D02*
X84204819Y-65380952D01*
X84204819Y-65380952D02*
X84252438Y-65285714D01*
X84252438Y-65285714D02*
X84300057Y-65238095D01*
X84300057Y-65238095D02*
X84395295Y-65190476D01*
X84395295Y-65190476D02*
X84490533Y-65190476D01*
X84490533Y-65190476D02*
X84633390Y-65238095D01*
X84633390Y-65238095D02*
X85204819Y-65809523D01*
X85204819Y-65809523D02*
X85204819Y-65190476D01*
X85204819Y-64714285D02*
X85204819Y-64523809D01*
X85204819Y-64523809D02*
X85157200Y-64428571D01*
X85157200Y-64428571D02*
X85109580Y-64380952D01*
X85109580Y-64380952D02*
X84966723Y-64285714D01*
X84966723Y-64285714D02*
X84776247Y-64238095D01*
X84776247Y-64238095D02*
X84395295Y-64238095D01*
X84395295Y-64238095D02*
X84300057Y-64285714D01*
X84300057Y-64285714D02*
X84252438Y-64333333D01*
X84252438Y-64333333D02*
X84204819Y-64428571D01*
X84204819Y-64428571D02*
X84204819Y-64619047D01*
X84204819Y-64619047D02*
X84252438Y-64714285D01*
X84252438Y-64714285D02*
X84300057Y-64761904D01*
X84300057Y-64761904D02*
X84395295Y-64809523D01*
X84395295Y-64809523D02*
X84633390Y-64809523D01*
X84633390Y-64809523D02*
X84728628Y-64761904D01*
X84728628Y-64761904D02*
X84776247Y-64714285D01*
X84776247Y-64714285D02*
X84823866Y-64619047D01*
X84823866Y-64619047D02*
X84823866Y-64428571D01*
X84823866Y-64428571D02*
X84776247Y-64333333D01*
X84776247Y-64333333D02*
X84728628Y-64285714D01*
X84728628Y-64285714D02*
X84633390Y-64238095D01*
X90454819Y-86666666D02*
X89978628Y-86999999D01*
X90454819Y-87238094D02*
X89454819Y-87238094D01*
X89454819Y-87238094D02*
X89454819Y-86857142D01*
X89454819Y-86857142D02*
X89502438Y-86761904D01*
X89502438Y-86761904D02*
X89550057Y-86714285D01*
X89550057Y-86714285D02*
X89645295Y-86666666D01*
X89645295Y-86666666D02*
X89788152Y-86666666D01*
X89788152Y-86666666D02*
X89883390Y-86714285D01*
X89883390Y-86714285D02*
X89931009Y-86761904D01*
X89931009Y-86761904D02*
X89978628Y-86857142D01*
X89978628Y-86857142D02*
X89978628Y-87238094D01*
X89550057Y-86285713D02*
X89502438Y-86238094D01*
X89502438Y-86238094D02*
X89454819Y-86142856D01*
X89454819Y-86142856D02*
X89454819Y-85904761D01*
X89454819Y-85904761D02*
X89502438Y-85809523D01*
X89502438Y-85809523D02*
X89550057Y-85761904D01*
X89550057Y-85761904D02*
X89645295Y-85714285D01*
X89645295Y-85714285D02*
X89740533Y-85714285D01*
X89740533Y-85714285D02*
X89883390Y-85761904D01*
X89883390Y-85761904D02*
X90454819Y-86333332D01*
X90454819Y-86333332D02*
X90454819Y-85714285D01*
X77452380Y-77904819D02*
X76880952Y-77904819D01*
X77166666Y-77904819D02*
X77166666Y-76904819D01*
X77166666Y-76904819D02*
X77071428Y-77047676D01*
X77071428Y-77047676D02*
X76976190Y-77142914D01*
X76976190Y-77142914D02*
X76880952Y-77190533D01*
X78071428Y-76904819D02*
X78166666Y-76904819D01*
X78166666Y-76904819D02*
X78261904Y-76952438D01*
X78261904Y-76952438D02*
X78309523Y-77000057D01*
X78309523Y-77000057D02*
X78357142Y-77095295D01*
X78357142Y-77095295D02*
X78404761Y-77285771D01*
X78404761Y-77285771D02*
X78404761Y-77523866D01*
X78404761Y-77523866D02*
X78357142Y-77714342D01*
X78357142Y-77714342D02*
X78309523Y-77809580D01*
X78309523Y-77809580D02*
X78261904Y-77857200D01*
X78261904Y-77857200D02*
X78166666Y-77904819D01*
X78166666Y-77904819D02*
X78071428Y-77904819D01*
X78071428Y-77904819D02*
X77976190Y-77857200D01*
X77976190Y-77857200D02*
X77928571Y-77809580D01*
X77928571Y-77809580D02*
X77880952Y-77714342D01*
X77880952Y-77714342D02*
X77833333Y-77523866D01*
X77833333Y-77523866D02*
X77833333Y-77285771D01*
X77833333Y-77285771D02*
X77880952Y-77095295D01*
X77880952Y-77095295D02*
X77928571Y-77000057D01*
X77928571Y-77000057D02*
X77976190Y-76952438D01*
X77976190Y-76952438D02*
X78071428Y-76904819D01*
X79023809Y-76904819D02*
X79119047Y-76904819D01*
X79119047Y-76904819D02*
X79214285Y-76952438D01*
X79214285Y-76952438D02*
X79261904Y-77000057D01*
X79261904Y-77000057D02*
X79309523Y-77095295D01*
X79309523Y-77095295D02*
X79357142Y-77285771D01*
X79357142Y-77285771D02*
X79357142Y-77523866D01*
X79357142Y-77523866D02*
X79309523Y-77714342D01*
X79309523Y-77714342D02*
X79261904Y-77809580D01*
X79261904Y-77809580D02*
X79214285Y-77857200D01*
X79214285Y-77857200D02*
X79119047Y-77904819D01*
X79119047Y-77904819D02*
X79023809Y-77904819D01*
X79023809Y-77904819D02*
X78928571Y-77857200D01*
X78928571Y-77857200D02*
X78880952Y-77809580D01*
X78880952Y-77809580D02*
X78833333Y-77714342D01*
X78833333Y-77714342D02*
X78785714Y-77523866D01*
X78785714Y-77523866D02*
X78785714Y-77285771D01*
X78785714Y-77285771D02*
X78833333Y-77095295D01*
X78833333Y-77095295D02*
X78880952Y-77000057D01*
X78880952Y-77000057D02*
X78928571Y-76952438D01*
X78928571Y-76952438D02*
X79023809Y-76904819D01*
X79785714Y-77238152D02*
X79785714Y-77904819D01*
X79785714Y-77333390D02*
X79833333Y-77285771D01*
X79833333Y-77285771D02*
X79928571Y-77238152D01*
X79928571Y-77238152D02*
X80071428Y-77238152D01*
X80071428Y-77238152D02*
X80166666Y-77285771D01*
X80166666Y-77285771D02*
X80214285Y-77381009D01*
X80214285Y-77381009D02*
X80214285Y-77904819D01*
X81023809Y-77381009D02*
X80690476Y-77381009D01*
X80690476Y-77904819D02*
X80690476Y-76904819D01*
X80690476Y-76904819D02*
X81166666Y-76904819D01*
X77738095Y-78954819D02*
X77738095Y-79764342D01*
X77738095Y-79764342D02*
X77785714Y-79859580D01*
X77785714Y-79859580D02*
X77833333Y-79907200D01*
X77833333Y-79907200D02*
X77928571Y-79954819D01*
X77928571Y-79954819D02*
X78119047Y-79954819D01*
X78119047Y-79954819D02*
X78214285Y-79907200D01*
X78214285Y-79907200D02*
X78261904Y-79859580D01*
X78261904Y-79859580D02*
X78309523Y-79764342D01*
X78309523Y-79764342D02*
X78309523Y-78954819D01*
X78738095Y-79050057D02*
X78785714Y-79002438D01*
X78785714Y-79002438D02*
X78880952Y-78954819D01*
X78880952Y-78954819D02*
X79119047Y-78954819D01*
X79119047Y-78954819D02*
X79214285Y-79002438D01*
X79214285Y-79002438D02*
X79261904Y-79050057D01*
X79261904Y-79050057D02*
X79309523Y-79145295D01*
X79309523Y-79145295D02*
X79309523Y-79240533D01*
X79309523Y-79240533D02*
X79261904Y-79383390D01*
X79261904Y-79383390D02*
X78690476Y-79954819D01*
X78690476Y-79954819D02*
X79309523Y-79954819D01*
X77954819Y-90619047D02*
X77954819Y-90047619D01*
X78954819Y-90333333D02*
X77954819Y-90333333D01*
X78954819Y-89238095D02*
X78954819Y-89714285D01*
X78954819Y-89714285D02*
X77954819Y-89714285D01*
X77954819Y-88714285D02*
X77954819Y-88619047D01*
X77954819Y-88619047D02*
X78002438Y-88523809D01*
X78002438Y-88523809D02*
X78050057Y-88476190D01*
X78050057Y-88476190D02*
X78145295Y-88428571D01*
X78145295Y-88428571D02*
X78335771Y-88380952D01*
X78335771Y-88380952D02*
X78573866Y-88380952D01*
X78573866Y-88380952D02*
X78764342Y-88428571D01*
X78764342Y-88428571D02*
X78859580Y-88476190D01*
X78859580Y-88476190D02*
X78907200Y-88523809D01*
X78907200Y-88523809D02*
X78954819Y-88619047D01*
X78954819Y-88619047D02*
X78954819Y-88714285D01*
X78954819Y-88714285D02*
X78907200Y-88809523D01*
X78907200Y-88809523D02*
X78859580Y-88857142D01*
X78859580Y-88857142D02*
X78764342Y-88904761D01*
X78764342Y-88904761D02*
X78573866Y-88952380D01*
X78573866Y-88952380D02*
X78335771Y-88952380D01*
X78335771Y-88952380D02*
X78145295Y-88904761D01*
X78145295Y-88904761D02*
X78050057Y-88857142D01*
X78050057Y-88857142D02*
X78002438Y-88809523D01*
X78002438Y-88809523D02*
X77954819Y-88714285D01*
X77954819Y-88047618D02*
X77954819Y-87380952D01*
X77954819Y-87380952D02*
X78954819Y-87809523D01*
X78050057Y-87047618D02*
X78002438Y-86999999D01*
X78002438Y-86999999D02*
X77954819Y-86904761D01*
X77954819Y-86904761D02*
X77954819Y-86666666D01*
X77954819Y-86666666D02*
X78002438Y-86571428D01*
X78002438Y-86571428D02*
X78050057Y-86523809D01*
X78050057Y-86523809D02*
X78145295Y-86476190D01*
X78145295Y-86476190D02*
X78240533Y-86476190D01*
X78240533Y-86476190D02*
X78383390Y-86523809D01*
X78383390Y-86523809D02*
X78954819Y-87095237D01*
X78954819Y-87095237D02*
X78954819Y-86476190D01*
X88800057Y-77835238D02*
X88752438Y-77930476D01*
X88752438Y-77930476D02*
X88657200Y-78025714D01*
X88657200Y-78025714D02*
X88514342Y-78168571D01*
X88514342Y-78168571D02*
X88466723Y-78263809D01*
X88466723Y-78263809D02*
X88466723Y-78359047D01*
X88704819Y-78311428D02*
X88657200Y-78406666D01*
X88657200Y-78406666D02*
X88561961Y-78501904D01*
X88561961Y-78501904D02*
X88371485Y-78549523D01*
X88371485Y-78549523D02*
X88038152Y-78549523D01*
X88038152Y-78549523D02*
X87847676Y-78501904D01*
X87847676Y-78501904D02*
X87752438Y-78406666D01*
X87752438Y-78406666D02*
X87704819Y-78311428D01*
X87704819Y-78311428D02*
X87704819Y-78120952D01*
X87704819Y-78120952D02*
X87752438Y-78025714D01*
X87752438Y-78025714D02*
X87847676Y-77930476D01*
X87847676Y-77930476D02*
X88038152Y-77882857D01*
X88038152Y-77882857D02*
X88371485Y-77882857D01*
X88371485Y-77882857D02*
X88561961Y-77930476D01*
X88561961Y-77930476D02*
X88657200Y-78025714D01*
X88657200Y-78025714D02*
X88704819Y-78120952D01*
X88704819Y-78120952D02*
X88704819Y-78311428D01*
X88704819Y-76930476D02*
X88704819Y-77501904D01*
X88704819Y-77216190D02*
X87704819Y-77216190D01*
X87704819Y-77216190D02*
X87847676Y-77311428D01*
X87847676Y-77311428D02*
X87942914Y-77406666D01*
X87942914Y-77406666D02*
X87990533Y-77501904D01*
X72704819Y-72642857D02*
X72228628Y-72976190D01*
X72704819Y-73214285D02*
X71704819Y-73214285D01*
X71704819Y-73214285D02*
X71704819Y-72833333D01*
X71704819Y-72833333D02*
X71752438Y-72738095D01*
X71752438Y-72738095D02*
X71800057Y-72690476D01*
X71800057Y-72690476D02*
X71895295Y-72642857D01*
X71895295Y-72642857D02*
X72038152Y-72642857D01*
X72038152Y-72642857D02*
X72133390Y-72690476D01*
X72133390Y-72690476D02*
X72181009Y-72738095D01*
X72181009Y-72738095D02*
X72228628Y-72833333D01*
X72228628Y-72833333D02*
X72228628Y-73214285D01*
X71800057Y-72261904D02*
X71752438Y-72214285D01*
X71752438Y-72214285D02*
X71704819Y-72119047D01*
X71704819Y-72119047D02*
X71704819Y-71880952D01*
X71704819Y-71880952D02*
X71752438Y-71785714D01*
X71752438Y-71785714D02*
X71800057Y-71738095D01*
X71800057Y-71738095D02*
X71895295Y-71690476D01*
X71895295Y-71690476D02*
X71990533Y-71690476D01*
X71990533Y-71690476D02*
X72133390Y-71738095D01*
X72133390Y-71738095D02*
X72704819Y-72309523D01*
X72704819Y-72309523D02*
X72704819Y-71690476D01*
X71704819Y-70785714D02*
X71704819Y-71261904D01*
X71704819Y-71261904D02*
X72181009Y-71309523D01*
X72181009Y-71309523D02*
X72133390Y-71261904D01*
X72133390Y-71261904D02*
X72085771Y-71166666D01*
X72085771Y-71166666D02*
X72085771Y-70928571D01*
X72085771Y-70928571D02*
X72133390Y-70833333D01*
X72133390Y-70833333D02*
X72181009Y-70785714D01*
X72181009Y-70785714D02*
X72276247Y-70738095D01*
X72276247Y-70738095D02*
X72514342Y-70738095D01*
X72514342Y-70738095D02*
X72609580Y-70785714D01*
X72609580Y-70785714D02*
X72657200Y-70833333D01*
X72657200Y-70833333D02*
X72704819Y-70928571D01*
X72704819Y-70928571D02*
X72704819Y-71166666D01*
X72704819Y-71166666D02*
X72657200Y-71261904D01*
X72657200Y-71261904D02*
X72609580Y-71309523D01*
X93800057Y-77835238D02*
X93752438Y-77930476D01*
X93752438Y-77930476D02*
X93657200Y-78025714D01*
X93657200Y-78025714D02*
X93514342Y-78168571D01*
X93514342Y-78168571D02*
X93466723Y-78263809D01*
X93466723Y-78263809D02*
X93466723Y-78359047D01*
X93704819Y-78311428D02*
X93657200Y-78406666D01*
X93657200Y-78406666D02*
X93561961Y-78501904D01*
X93561961Y-78501904D02*
X93371485Y-78549523D01*
X93371485Y-78549523D02*
X93038152Y-78549523D01*
X93038152Y-78549523D02*
X92847676Y-78501904D01*
X92847676Y-78501904D02*
X92752438Y-78406666D01*
X92752438Y-78406666D02*
X92704819Y-78311428D01*
X92704819Y-78311428D02*
X92704819Y-78120952D01*
X92704819Y-78120952D02*
X92752438Y-78025714D01*
X92752438Y-78025714D02*
X92847676Y-77930476D01*
X92847676Y-77930476D02*
X93038152Y-77882857D01*
X93038152Y-77882857D02*
X93371485Y-77882857D01*
X93371485Y-77882857D02*
X93561961Y-77930476D01*
X93561961Y-77930476D02*
X93657200Y-78025714D01*
X93657200Y-78025714D02*
X93704819Y-78120952D01*
X93704819Y-78120952D02*
X93704819Y-78311428D01*
X92800057Y-77501904D02*
X92752438Y-77454285D01*
X92752438Y-77454285D02*
X92704819Y-77359047D01*
X92704819Y-77359047D02*
X92704819Y-77120952D01*
X92704819Y-77120952D02*
X92752438Y-77025714D01*
X92752438Y-77025714D02*
X92800057Y-76978095D01*
X92800057Y-76978095D02*
X92895295Y-76930476D01*
X92895295Y-76930476D02*
X92990533Y-76930476D01*
X92990533Y-76930476D02*
X93133390Y-76978095D01*
X93133390Y-76978095D02*
X93704819Y-77549523D01*
X93704819Y-77549523D02*
X93704819Y-76930476D01*
X97788152Y-84023809D02*
X98454819Y-84023809D01*
X97407200Y-84261904D02*
X98121485Y-84499999D01*
X98121485Y-84499999D02*
X98121485Y-83880952D01*
X98454819Y-83595237D02*
X97788152Y-83071428D01*
X97788152Y-83595237D02*
X98454819Y-83071428D01*
X97931009Y-81595237D02*
X97978628Y-81452380D01*
X97978628Y-81452380D02*
X98026247Y-81404761D01*
X98026247Y-81404761D02*
X98121485Y-81357142D01*
X98121485Y-81357142D02*
X98264342Y-81357142D01*
X98264342Y-81357142D02*
X98359580Y-81404761D01*
X98359580Y-81404761D02*
X98407200Y-81452380D01*
X98407200Y-81452380D02*
X98454819Y-81547618D01*
X98454819Y-81547618D02*
X98454819Y-81928570D01*
X98454819Y-81928570D02*
X97454819Y-81928570D01*
X97454819Y-81928570D02*
X97454819Y-81595237D01*
X97454819Y-81595237D02*
X97502438Y-81499999D01*
X97502438Y-81499999D02*
X97550057Y-81452380D01*
X97550057Y-81452380D02*
X97645295Y-81404761D01*
X97645295Y-81404761D02*
X97740533Y-81404761D01*
X97740533Y-81404761D02*
X97835771Y-81452380D01*
X97835771Y-81452380D02*
X97883390Y-81499999D01*
X97883390Y-81499999D02*
X97931009Y-81595237D01*
X97931009Y-81595237D02*
X97931009Y-81928570D01*
X98359580Y-80357142D02*
X98407200Y-80404761D01*
X98407200Y-80404761D02*
X98454819Y-80547618D01*
X98454819Y-80547618D02*
X98454819Y-80642856D01*
X98454819Y-80642856D02*
X98407200Y-80785713D01*
X98407200Y-80785713D02*
X98311961Y-80880951D01*
X98311961Y-80880951D02*
X98216723Y-80928570D01*
X98216723Y-80928570D02*
X98026247Y-80976189D01*
X98026247Y-80976189D02*
X97883390Y-80976189D01*
X97883390Y-80976189D02*
X97692914Y-80928570D01*
X97692914Y-80928570D02*
X97597676Y-80880951D01*
X97597676Y-80880951D02*
X97502438Y-80785713D01*
X97502438Y-80785713D02*
X97454819Y-80642856D01*
X97454819Y-80642856D02*
X97454819Y-80547618D01*
X97454819Y-80547618D02*
X97502438Y-80404761D01*
X97502438Y-80404761D02*
X97550057Y-80357142D01*
X97454819Y-79452380D02*
X97454819Y-79928570D01*
X97454819Y-79928570D02*
X97931009Y-79976189D01*
X97931009Y-79976189D02*
X97883390Y-79928570D01*
X97883390Y-79928570D02*
X97835771Y-79833332D01*
X97835771Y-79833332D02*
X97835771Y-79595237D01*
X97835771Y-79595237D02*
X97883390Y-79499999D01*
X97883390Y-79499999D02*
X97931009Y-79452380D01*
X97931009Y-79452380D02*
X98026247Y-79404761D01*
X98026247Y-79404761D02*
X98264342Y-79404761D01*
X98264342Y-79404761D02*
X98359580Y-79452380D01*
X98359580Y-79452380D02*
X98407200Y-79499999D01*
X98407200Y-79499999D02*
X98454819Y-79595237D01*
X98454819Y-79595237D02*
X98454819Y-79833332D01*
X98454819Y-79833332D02*
X98407200Y-79928570D01*
X98407200Y-79928570D02*
X98359580Y-79976189D01*
X97788152Y-78547618D02*
X98454819Y-78547618D01*
X97407200Y-78785713D02*
X98121485Y-79023808D01*
X98121485Y-79023808D02*
X98121485Y-78404761D01*
X97883390Y-77880951D02*
X97835771Y-77976189D01*
X97835771Y-77976189D02*
X97788152Y-78023808D01*
X97788152Y-78023808D02*
X97692914Y-78071427D01*
X97692914Y-78071427D02*
X97645295Y-78071427D01*
X97645295Y-78071427D02*
X97550057Y-78023808D01*
X97550057Y-78023808D02*
X97502438Y-77976189D01*
X97502438Y-77976189D02*
X97454819Y-77880951D01*
X97454819Y-77880951D02*
X97454819Y-77690475D01*
X97454819Y-77690475D02*
X97502438Y-77595237D01*
X97502438Y-77595237D02*
X97550057Y-77547618D01*
X97550057Y-77547618D02*
X97645295Y-77499999D01*
X97645295Y-77499999D02*
X97692914Y-77499999D01*
X97692914Y-77499999D02*
X97788152Y-77547618D01*
X97788152Y-77547618D02*
X97835771Y-77595237D01*
X97835771Y-77595237D02*
X97883390Y-77690475D01*
X97883390Y-77690475D02*
X97883390Y-77880951D01*
X97883390Y-77880951D02*
X97931009Y-77976189D01*
X97931009Y-77976189D02*
X97978628Y-78023808D01*
X97978628Y-78023808D02*
X98073866Y-78071427D01*
X98073866Y-78071427D02*
X98264342Y-78071427D01*
X98264342Y-78071427D02*
X98359580Y-78023808D01*
X98359580Y-78023808D02*
X98407200Y-77976189D01*
X98407200Y-77976189D02*
X98454819Y-77880951D01*
X98454819Y-77880951D02*
X98454819Y-77690475D01*
X98454819Y-77690475D02*
X98407200Y-77595237D01*
X98407200Y-77595237D02*
X98359580Y-77547618D01*
X98359580Y-77547618D02*
X98264342Y-77499999D01*
X98264342Y-77499999D02*
X98073866Y-77499999D01*
X98073866Y-77499999D02*
X97978628Y-77547618D01*
X97978628Y-77547618D02*
X97931009Y-77595237D01*
X97931009Y-77595237D02*
X97883390Y-77690475D01*
X57266666Y-95854819D02*
X57266666Y-96569104D01*
X57266666Y-96569104D02*
X57219047Y-96711961D01*
X57219047Y-96711961D02*
X57123809Y-96807200D01*
X57123809Y-96807200D02*
X56980952Y-96854819D01*
X56980952Y-96854819D02*
X56885714Y-96854819D01*
X57695238Y-95950057D02*
X57742857Y-95902438D01*
X57742857Y-95902438D02*
X57838095Y-95854819D01*
X57838095Y-95854819D02*
X58076190Y-95854819D01*
X58076190Y-95854819D02*
X58171428Y-95902438D01*
X58171428Y-95902438D02*
X58219047Y-95950057D01*
X58219047Y-95950057D02*
X58266666Y-96045295D01*
X58266666Y-96045295D02*
X58266666Y-96140533D01*
X58266666Y-96140533D02*
X58219047Y-96283390D01*
X58219047Y-96283390D02*
X57647619Y-96854819D01*
X57647619Y-96854819D02*
X58266666Y-96854819D01*
X72704819Y-69392857D02*
X72228628Y-69726190D01*
X72704819Y-69964285D02*
X71704819Y-69964285D01*
X71704819Y-69964285D02*
X71704819Y-69583333D01*
X71704819Y-69583333D02*
X71752438Y-69488095D01*
X71752438Y-69488095D02*
X71800057Y-69440476D01*
X71800057Y-69440476D02*
X71895295Y-69392857D01*
X71895295Y-69392857D02*
X72038152Y-69392857D01*
X72038152Y-69392857D02*
X72133390Y-69440476D01*
X72133390Y-69440476D02*
X72181009Y-69488095D01*
X72181009Y-69488095D02*
X72228628Y-69583333D01*
X72228628Y-69583333D02*
X72228628Y-69964285D01*
X71800057Y-69011904D02*
X71752438Y-68964285D01*
X71752438Y-68964285D02*
X71704819Y-68869047D01*
X71704819Y-68869047D02*
X71704819Y-68630952D01*
X71704819Y-68630952D02*
X71752438Y-68535714D01*
X71752438Y-68535714D02*
X71800057Y-68488095D01*
X71800057Y-68488095D02*
X71895295Y-68440476D01*
X71895295Y-68440476D02*
X71990533Y-68440476D01*
X71990533Y-68440476D02*
X72133390Y-68488095D01*
X72133390Y-68488095D02*
X72704819Y-69059523D01*
X72704819Y-69059523D02*
X72704819Y-68440476D01*
X71704819Y-67583333D02*
X71704819Y-67773809D01*
X71704819Y-67773809D02*
X71752438Y-67869047D01*
X71752438Y-67869047D02*
X71800057Y-67916666D01*
X71800057Y-67916666D02*
X71942914Y-68011904D01*
X71942914Y-68011904D02*
X72133390Y-68059523D01*
X72133390Y-68059523D02*
X72514342Y-68059523D01*
X72514342Y-68059523D02*
X72609580Y-68011904D01*
X72609580Y-68011904D02*
X72657200Y-67964285D01*
X72657200Y-67964285D02*
X72704819Y-67869047D01*
X72704819Y-67869047D02*
X72704819Y-67678571D01*
X72704819Y-67678571D02*
X72657200Y-67583333D01*
X72657200Y-67583333D02*
X72609580Y-67535714D01*
X72609580Y-67535714D02*
X72514342Y-67488095D01*
X72514342Y-67488095D02*
X72276247Y-67488095D01*
X72276247Y-67488095D02*
X72181009Y-67535714D01*
X72181009Y-67535714D02*
X72133390Y-67583333D01*
X72133390Y-67583333D02*
X72085771Y-67678571D01*
X72085771Y-67678571D02*
X72085771Y-67869047D01*
X72085771Y-67869047D02*
X72133390Y-67964285D01*
X72133390Y-67964285D02*
X72181009Y-68011904D01*
X72181009Y-68011904D02*
X72276247Y-68059523D01*
X85107142Y-84694819D02*
X84773809Y-84218628D01*
X84535714Y-84694819D02*
X84535714Y-83694819D01*
X84535714Y-83694819D02*
X84916666Y-83694819D01*
X84916666Y-83694819D02*
X85011904Y-83742438D01*
X85011904Y-83742438D02*
X85059523Y-83790057D01*
X85059523Y-83790057D02*
X85107142Y-83885295D01*
X85107142Y-83885295D02*
X85107142Y-84028152D01*
X85107142Y-84028152D02*
X85059523Y-84123390D01*
X85059523Y-84123390D02*
X85011904Y-84171009D01*
X85011904Y-84171009D02*
X84916666Y-84218628D01*
X84916666Y-84218628D02*
X84535714Y-84218628D01*
X86059523Y-84694819D02*
X85488095Y-84694819D01*
X85773809Y-84694819D02*
X85773809Y-83694819D01*
X85773809Y-83694819D02*
X85678571Y-83837676D01*
X85678571Y-83837676D02*
X85583333Y-83932914D01*
X85583333Y-83932914D02*
X85488095Y-83980533D01*
X86964285Y-83694819D02*
X86488095Y-83694819D01*
X86488095Y-83694819D02*
X86440476Y-84171009D01*
X86440476Y-84171009D02*
X86488095Y-84123390D01*
X86488095Y-84123390D02*
X86583333Y-84075771D01*
X86583333Y-84075771D02*
X86821428Y-84075771D01*
X86821428Y-84075771D02*
X86916666Y-84123390D01*
X86916666Y-84123390D02*
X86964285Y-84171009D01*
X86964285Y-84171009D02*
X87011904Y-84266247D01*
X87011904Y-84266247D02*
X87011904Y-84504342D01*
X87011904Y-84504342D02*
X86964285Y-84599580D01*
X86964285Y-84599580D02*
X86916666Y-84647200D01*
X86916666Y-84647200D02*
X86821428Y-84694819D01*
X86821428Y-84694819D02*
X86583333Y-84694819D01*
X86583333Y-84694819D02*
X86488095Y-84647200D01*
X86488095Y-84647200D02*
X86440476Y-84599580D01*
X96954819Y-86666666D02*
X96478628Y-86999999D01*
X96954819Y-87238094D02*
X95954819Y-87238094D01*
X95954819Y-87238094D02*
X95954819Y-86857142D01*
X95954819Y-86857142D02*
X96002438Y-86761904D01*
X96002438Y-86761904D02*
X96050057Y-86714285D01*
X96050057Y-86714285D02*
X96145295Y-86666666D01*
X96145295Y-86666666D02*
X96288152Y-86666666D01*
X96288152Y-86666666D02*
X96383390Y-86714285D01*
X96383390Y-86714285D02*
X96431009Y-86761904D01*
X96431009Y-86761904D02*
X96478628Y-86857142D01*
X96478628Y-86857142D02*
X96478628Y-87238094D01*
X95954819Y-86333332D02*
X95954819Y-85714285D01*
X95954819Y-85714285D02*
X96335771Y-86047618D01*
X96335771Y-86047618D02*
X96335771Y-85904761D01*
X96335771Y-85904761D02*
X96383390Y-85809523D01*
X96383390Y-85809523D02*
X96431009Y-85761904D01*
X96431009Y-85761904D02*
X96526247Y-85714285D01*
X96526247Y-85714285D02*
X96764342Y-85714285D01*
X96764342Y-85714285D02*
X96859580Y-85761904D01*
X96859580Y-85761904D02*
X96907200Y-85809523D01*
X96907200Y-85809523D02*
X96954819Y-85904761D01*
X96954819Y-85904761D02*
X96954819Y-86190475D01*
X96954819Y-86190475D02*
X96907200Y-86285713D01*
X96907200Y-86285713D02*
X96859580Y-86333332D01*
X66204819Y-87142857D02*
X65728628Y-87476190D01*
X66204819Y-87714285D02*
X65204819Y-87714285D01*
X65204819Y-87714285D02*
X65204819Y-87333333D01*
X65204819Y-87333333D02*
X65252438Y-87238095D01*
X65252438Y-87238095D02*
X65300057Y-87190476D01*
X65300057Y-87190476D02*
X65395295Y-87142857D01*
X65395295Y-87142857D02*
X65538152Y-87142857D01*
X65538152Y-87142857D02*
X65633390Y-87190476D01*
X65633390Y-87190476D02*
X65681009Y-87238095D01*
X65681009Y-87238095D02*
X65728628Y-87333333D01*
X65728628Y-87333333D02*
X65728628Y-87714285D01*
X65300057Y-86761904D02*
X65252438Y-86714285D01*
X65252438Y-86714285D02*
X65204819Y-86619047D01*
X65204819Y-86619047D02*
X65204819Y-86380952D01*
X65204819Y-86380952D02*
X65252438Y-86285714D01*
X65252438Y-86285714D02*
X65300057Y-86238095D01*
X65300057Y-86238095D02*
X65395295Y-86190476D01*
X65395295Y-86190476D02*
X65490533Y-86190476D01*
X65490533Y-86190476D02*
X65633390Y-86238095D01*
X65633390Y-86238095D02*
X66204819Y-86809523D01*
X66204819Y-86809523D02*
X66204819Y-86190476D01*
X65300057Y-85809523D02*
X65252438Y-85761904D01*
X65252438Y-85761904D02*
X65204819Y-85666666D01*
X65204819Y-85666666D02*
X65204819Y-85428571D01*
X65204819Y-85428571D02*
X65252438Y-85333333D01*
X65252438Y-85333333D02*
X65300057Y-85285714D01*
X65300057Y-85285714D02*
X65395295Y-85238095D01*
X65395295Y-85238095D02*
X65490533Y-85238095D01*
X65490533Y-85238095D02*
X65633390Y-85285714D01*
X65633390Y-85285714D02*
X66204819Y-85857142D01*
X66204819Y-85857142D02*
X66204819Y-85238095D01*
X77738095Y-53454819D02*
X77738095Y-54264342D01*
X77738095Y-54264342D02*
X77785714Y-54359580D01*
X77785714Y-54359580D02*
X77833333Y-54407200D01*
X77833333Y-54407200D02*
X77928571Y-54454819D01*
X77928571Y-54454819D02*
X78119047Y-54454819D01*
X78119047Y-54454819D02*
X78214285Y-54407200D01*
X78214285Y-54407200D02*
X78261904Y-54359580D01*
X78261904Y-54359580D02*
X78309523Y-54264342D01*
X78309523Y-54264342D02*
X78309523Y-53454819D01*
X79309523Y-54454819D02*
X78738095Y-54454819D01*
X79023809Y-54454819D02*
X79023809Y-53454819D01*
X79023809Y-53454819D02*
X78928571Y-53597676D01*
X78928571Y-53597676D02*
X78833333Y-53692914D01*
X78833333Y-53692914D02*
X78738095Y-53740533D01*
X77954819Y-68819047D02*
X77954819Y-68247619D01*
X78954819Y-68533333D02*
X77954819Y-68533333D01*
X78954819Y-67438095D02*
X78954819Y-67914285D01*
X78954819Y-67914285D02*
X77954819Y-67914285D01*
X77954819Y-66914285D02*
X77954819Y-66819047D01*
X77954819Y-66819047D02*
X78002438Y-66723809D01*
X78002438Y-66723809D02*
X78050057Y-66676190D01*
X78050057Y-66676190D02*
X78145295Y-66628571D01*
X78145295Y-66628571D02*
X78335771Y-66580952D01*
X78335771Y-66580952D02*
X78573866Y-66580952D01*
X78573866Y-66580952D02*
X78764342Y-66628571D01*
X78764342Y-66628571D02*
X78859580Y-66676190D01*
X78859580Y-66676190D02*
X78907200Y-66723809D01*
X78907200Y-66723809D02*
X78954819Y-66819047D01*
X78954819Y-66819047D02*
X78954819Y-66914285D01*
X78954819Y-66914285D02*
X78907200Y-67009523D01*
X78907200Y-67009523D02*
X78859580Y-67057142D01*
X78859580Y-67057142D02*
X78764342Y-67104761D01*
X78764342Y-67104761D02*
X78573866Y-67152380D01*
X78573866Y-67152380D02*
X78335771Y-67152380D01*
X78335771Y-67152380D02*
X78145295Y-67104761D01*
X78145295Y-67104761D02*
X78050057Y-67057142D01*
X78050057Y-67057142D02*
X78002438Y-67009523D01*
X78002438Y-67009523D02*
X77954819Y-66914285D01*
X77954819Y-66247618D02*
X77954819Y-65580952D01*
X77954819Y-65580952D02*
X78954819Y-66009523D01*
X78288152Y-64771428D02*
X78954819Y-64771428D01*
X77907200Y-65009523D02*
X78621485Y-65247618D01*
X78621485Y-65247618D02*
X78621485Y-64628571D01*
X65800057Y-78050238D02*
X65752438Y-78145476D01*
X65752438Y-78145476D02*
X65657200Y-78240714D01*
X65657200Y-78240714D02*
X65514342Y-78383571D01*
X65514342Y-78383571D02*
X65466723Y-78478809D01*
X65466723Y-78478809D02*
X65466723Y-78574047D01*
X65704819Y-78526428D02*
X65657200Y-78621666D01*
X65657200Y-78621666D02*
X65561961Y-78716904D01*
X65561961Y-78716904D02*
X65371485Y-78764523D01*
X65371485Y-78764523D02*
X65038152Y-78764523D01*
X65038152Y-78764523D02*
X64847676Y-78716904D01*
X64847676Y-78716904D02*
X64752438Y-78621666D01*
X64752438Y-78621666D02*
X64704819Y-78526428D01*
X64704819Y-78526428D02*
X64704819Y-78335952D01*
X64704819Y-78335952D02*
X64752438Y-78240714D01*
X64752438Y-78240714D02*
X64847676Y-78145476D01*
X64847676Y-78145476D02*
X65038152Y-78097857D01*
X65038152Y-78097857D02*
X65371485Y-78097857D01*
X65371485Y-78097857D02*
X65561961Y-78145476D01*
X65561961Y-78145476D02*
X65657200Y-78240714D01*
X65657200Y-78240714D02*
X65704819Y-78335952D01*
X65704819Y-78335952D02*
X65704819Y-78526428D01*
X65038152Y-77240714D02*
X65704819Y-77240714D01*
X64657200Y-77478809D02*
X65371485Y-77716904D01*
X65371485Y-77716904D02*
X65371485Y-77097857D01*
X83857142Y-53954819D02*
X83523809Y-53478628D01*
X83285714Y-53954819D02*
X83285714Y-52954819D01*
X83285714Y-52954819D02*
X83666666Y-52954819D01*
X83666666Y-52954819D02*
X83761904Y-53002438D01*
X83761904Y-53002438D02*
X83809523Y-53050057D01*
X83809523Y-53050057D02*
X83857142Y-53145295D01*
X83857142Y-53145295D02*
X83857142Y-53288152D01*
X83857142Y-53288152D02*
X83809523Y-53383390D01*
X83809523Y-53383390D02*
X83761904Y-53431009D01*
X83761904Y-53431009D02*
X83666666Y-53478628D01*
X83666666Y-53478628D02*
X83285714Y-53478628D01*
X84809523Y-53954819D02*
X84238095Y-53954819D01*
X84523809Y-53954819D02*
X84523809Y-52954819D01*
X84523809Y-52954819D02*
X84428571Y-53097676D01*
X84428571Y-53097676D02*
X84333333Y-53192914D01*
X84333333Y-53192914D02*
X84238095Y-53240533D01*
X85666666Y-52954819D02*
X85476190Y-52954819D01*
X85476190Y-52954819D02*
X85380952Y-53002438D01*
X85380952Y-53002438D02*
X85333333Y-53050057D01*
X85333333Y-53050057D02*
X85238095Y-53192914D01*
X85238095Y-53192914D02*
X85190476Y-53383390D01*
X85190476Y-53383390D02*
X85190476Y-53764342D01*
X85190476Y-53764342D02*
X85238095Y-53859580D01*
X85238095Y-53859580D02*
X85285714Y-53907200D01*
X85285714Y-53907200D02*
X85380952Y-53954819D01*
X85380952Y-53954819D02*
X85571428Y-53954819D01*
X85571428Y-53954819D02*
X85666666Y-53907200D01*
X85666666Y-53907200D02*
X85714285Y-53859580D01*
X85714285Y-53859580D02*
X85761904Y-53764342D01*
X85761904Y-53764342D02*
X85761904Y-53526247D01*
X85761904Y-53526247D02*
X85714285Y-53431009D01*
X85714285Y-53431009D02*
X85666666Y-53383390D01*
X85666666Y-53383390D02*
X85571428Y-53335771D01*
X85571428Y-53335771D02*
X85380952Y-53335771D01*
X85380952Y-53335771D02*
X85285714Y-53383390D01*
X85285714Y-53383390D02*
X85238095Y-53431009D01*
X85238095Y-53431009D02*
X85190476Y-53526247D01*
X85107142Y-63704819D02*
X84773809Y-63228628D01*
X84535714Y-63704819D02*
X84535714Y-62704819D01*
X84535714Y-62704819D02*
X84916666Y-62704819D01*
X84916666Y-62704819D02*
X85011904Y-62752438D01*
X85011904Y-62752438D02*
X85059523Y-62800057D01*
X85059523Y-62800057D02*
X85107142Y-62895295D01*
X85107142Y-62895295D02*
X85107142Y-63038152D01*
X85107142Y-63038152D02*
X85059523Y-63133390D01*
X85059523Y-63133390D02*
X85011904Y-63181009D01*
X85011904Y-63181009D02*
X84916666Y-63228628D01*
X84916666Y-63228628D02*
X84535714Y-63228628D01*
X86059523Y-63704819D02*
X85488095Y-63704819D01*
X85773809Y-63704819D02*
X85773809Y-62704819D01*
X85773809Y-62704819D02*
X85678571Y-62847676D01*
X85678571Y-62847676D02*
X85583333Y-62942914D01*
X85583333Y-62942914D02*
X85488095Y-62990533D01*
X86916666Y-63038152D02*
X86916666Y-63704819D01*
X86678571Y-62657200D02*
X86440476Y-63371485D01*
X86440476Y-63371485D02*
X87059523Y-63371485D01*
X66209819Y-75892857D02*
X65733628Y-76226190D01*
X66209819Y-76464285D02*
X65209819Y-76464285D01*
X65209819Y-76464285D02*
X65209819Y-76083333D01*
X65209819Y-76083333D02*
X65257438Y-75988095D01*
X65257438Y-75988095D02*
X65305057Y-75940476D01*
X65305057Y-75940476D02*
X65400295Y-75892857D01*
X65400295Y-75892857D02*
X65543152Y-75892857D01*
X65543152Y-75892857D02*
X65638390Y-75940476D01*
X65638390Y-75940476D02*
X65686009Y-75988095D01*
X65686009Y-75988095D02*
X65733628Y-76083333D01*
X65733628Y-76083333D02*
X65733628Y-76464285D01*
X65209819Y-75559523D02*
X65209819Y-74940476D01*
X65209819Y-74940476D02*
X65590771Y-75273809D01*
X65590771Y-75273809D02*
X65590771Y-75130952D01*
X65590771Y-75130952D02*
X65638390Y-75035714D01*
X65638390Y-75035714D02*
X65686009Y-74988095D01*
X65686009Y-74988095D02*
X65781247Y-74940476D01*
X65781247Y-74940476D02*
X66019342Y-74940476D01*
X66019342Y-74940476D02*
X66114580Y-74988095D01*
X66114580Y-74988095D02*
X66162200Y-75035714D01*
X66162200Y-75035714D02*
X66209819Y-75130952D01*
X66209819Y-75130952D02*
X66209819Y-75416666D01*
X66209819Y-75416666D02*
X66162200Y-75511904D01*
X66162200Y-75511904D02*
X66114580Y-75559523D01*
X65209819Y-74321428D02*
X65209819Y-74226190D01*
X65209819Y-74226190D02*
X65257438Y-74130952D01*
X65257438Y-74130952D02*
X65305057Y-74083333D01*
X65305057Y-74083333D02*
X65400295Y-74035714D01*
X65400295Y-74035714D02*
X65590771Y-73988095D01*
X65590771Y-73988095D02*
X65828866Y-73988095D01*
X65828866Y-73988095D02*
X66019342Y-74035714D01*
X66019342Y-74035714D02*
X66114580Y-74083333D01*
X66114580Y-74083333D02*
X66162200Y-74130952D01*
X66162200Y-74130952D02*
X66209819Y-74226190D01*
X66209819Y-74226190D02*
X66209819Y-74321428D01*
X66209819Y-74321428D02*
X66162200Y-74416666D01*
X66162200Y-74416666D02*
X66114580Y-74464285D01*
X66114580Y-74464285D02*
X66019342Y-74511904D01*
X66019342Y-74511904D02*
X65828866Y-74559523D01*
X65828866Y-74559523D02*
X65590771Y-74559523D01*
X65590771Y-74559523D02*
X65400295Y-74511904D01*
X65400295Y-74511904D02*
X65305057Y-74464285D01*
X65305057Y-74464285D02*
X65257438Y-74416666D01*
X65257438Y-74416666D02*
X65209819Y-74321428D01*
X72794819Y-66142857D02*
X72318628Y-66476190D01*
X72794819Y-66714285D02*
X71794819Y-66714285D01*
X71794819Y-66714285D02*
X71794819Y-66333333D01*
X71794819Y-66333333D02*
X71842438Y-66238095D01*
X71842438Y-66238095D02*
X71890057Y-66190476D01*
X71890057Y-66190476D02*
X71985295Y-66142857D01*
X71985295Y-66142857D02*
X72128152Y-66142857D01*
X72128152Y-66142857D02*
X72223390Y-66190476D01*
X72223390Y-66190476D02*
X72271009Y-66238095D01*
X72271009Y-66238095D02*
X72318628Y-66333333D01*
X72318628Y-66333333D02*
X72318628Y-66714285D01*
X71794819Y-65809523D02*
X71794819Y-65190476D01*
X71794819Y-65190476D02*
X72175771Y-65523809D01*
X72175771Y-65523809D02*
X72175771Y-65380952D01*
X72175771Y-65380952D02*
X72223390Y-65285714D01*
X72223390Y-65285714D02*
X72271009Y-65238095D01*
X72271009Y-65238095D02*
X72366247Y-65190476D01*
X72366247Y-65190476D02*
X72604342Y-65190476D01*
X72604342Y-65190476D02*
X72699580Y-65238095D01*
X72699580Y-65238095D02*
X72747200Y-65285714D01*
X72747200Y-65285714D02*
X72794819Y-65380952D01*
X72794819Y-65380952D02*
X72794819Y-65666666D01*
X72794819Y-65666666D02*
X72747200Y-65761904D01*
X72747200Y-65761904D02*
X72699580Y-65809523D01*
X72794819Y-64238095D02*
X72794819Y-64809523D01*
X72794819Y-64523809D02*
X71794819Y-64523809D01*
X71794819Y-64523809D02*
X71937676Y-64619047D01*
X71937676Y-64619047D02*
X72032914Y-64714285D01*
X72032914Y-64714285D02*
X72080533Y-64809523D01*
X91704819Y-75416666D02*
X91228628Y-75749999D01*
X91704819Y-75988094D02*
X90704819Y-75988094D01*
X90704819Y-75988094D02*
X90704819Y-75607142D01*
X90704819Y-75607142D02*
X90752438Y-75511904D01*
X90752438Y-75511904D02*
X90800057Y-75464285D01*
X90800057Y-75464285D02*
X90895295Y-75416666D01*
X90895295Y-75416666D02*
X91038152Y-75416666D01*
X91038152Y-75416666D02*
X91133390Y-75464285D01*
X91133390Y-75464285D02*
X91181009Y-75511904D01*
X91181009Y-75511904D02*
X91228628Y-75607142D01*
X91228628Y-75607142D02*
X91228628Y-75988094D01*
X91704819Y-74940475D02*
X91704819Y-74749999D01*
X91704819Y-74749999D02*
X91657200Y-74654761D01*
X91657200Y-74654761D02*
X91609580Y-74607142D01*
X91609580Y-74607142D02*
X91466723Y-74511904D01*
X91466723Y-74511904D02*
X91276247Y-74464285D01*
X91276247Y-74464285D02*
X90895295Y-74464285D01*
X90895295Y-74464285D02*
X90800057Y-74511904D01*
X90800057Y-74511904D02*
X90752438Y-74559523D01*
X90752438Y-74559523D02*
X90704819Y-74654761D01*
X90704819Y-74654761D02*
X90704819Y-74845237D01*
X90704819Y-74845237D02*
X90752438Y-74940475D01*
X90752438Y-74940475D02*
X90800057Y-74988094D01*
X90800057Y-74988094D02*
X90895295Y-75035713D01*
X90895295Y-75035713D02*
X91133390Y-75035713D01*
X91133390Y-75035713D02*
X91228628Y-74988094D01*
X91228628Y-74988094D02*
X91276247Y-74940475D01*
X91276247Y-74940475D02*
X91323866Y-74845237D01*
X91323866Y-74845237D02*
X91323866Y-74654761D01*
X91323866Y-74654761D02*
X91276247Y-74559523D01*
X91276247Y-74559523D02*
X91228628Y-74511904D01*
X91228628Y-74511904D02*
X91133390Y-74464285D01*
X77452380Y-95554819D02*
X76880952Y-95554819D01*
X77166666Y-95554819D02*
X77166666Y-94554819D01*
X77166666Y-94554819D02*
X77071428Y-94697676D01*
X77071428Y-94697676D02*
X76976190Y-94792914D01*
X76976190Y-94792914D02*
X76880952Y-94840533D01*
X78071428Y-94554819D02*
X78166666Y-94554819D01*
X78166666Y-94554819D02*
X78261904Y-94602438D01*
X78261904Y-94602438D02*
X78309523Y-94650057D01*
X78309523Y-94650057D02*
X78357142Y-94745295D01*
X78357142Y-94745295D02*
X78404761Y-94935771D01*
X78404761Y-94935771D02*
X78404761Y-95173866D01*
X78404761Y-95173866D02*
X78357142Y-95364342D01*
X78357142Y-95364342D02*
X78309523Y-95459580D01*
X78309523Y-95459580D02*
X78261904Y-95507200D01*
X78261904Y-95507200D02*
X78166666Y-95554819D01*
X78166666Y-95554819D02*
X78071428Y-95554819D01*
X78071428Y-95554819D02*
X77976190Y-95507200D01*
X77976190Y-95507200D02*
X77928571Y-95459580D01*
X77928571Y-95459580D02*
X77880952Y-95364342D01*
X77880952Y-95364342D02*
X77833333Y-95173866D01*
X77833333Y-95173866D02*
X77833333Y-94935771D01*
X77833333Y-94935771D02*
X77880952Y-94745295D01*
X77880952Y-94745295D02*
X77928571Y-94650057D01*
X77928571Y-94650057D02*
X77976190Y-94602438D01*
X77976190Y-94602438D02*
X78071428Y-94554819D01*
X79023809Y-94554819D02*
X79119047Y-94554819D01*
X79119047Y-94554819D02*
X79214285Y-94602438D01*
X79214285Y-94602438D02*
X79261904Y-94650057D01*
X79261904Y-94650057D02*
X79309523Y-94745295D01*
X79309523Y-94745295D02*
X79357142Y-94935771D01*
X79357142Y-94935771D02*
X79357142Y-95173866D01*
X79357142Y-95173866D02*
X79309523Y-95364342D01*
X79309523Y-95364342D02*
X79261904Y-95459580D01*
X79261904Y-95459580D02*
X79214285Y-95507200D01*
X79214285Y-95507200D02*
X79119047Y-95554819D01*
X79119047Y-95554819D02*
X79023809Y-95554819D01*
X79023809Y-95554819D02*
X78928571Y-95507200D01*
X78928571Y-95507200D02*
X78880952Y-95459580D01*
X78880952Y-95459580D02*
X78833333Y-95364342D01*
X78833333Y-95364342D02*
X78785714Y-95173866D01*
X78785714Y-95173866D02*
X78785714Y-94935771D01*
X78785714Y-94935771D02*
X78833333Y-94745295D01*
X78833333Y-94745295D02*
X78880952Y-94650057D01*
X78880952Y-94650057D02*
X78928571Y-94602438D01*
X78928571Y-94602438D02*
X79023809Y-94554819D01*
X79785714Y-94888152D02*
X79785714Y-95554819D01*
X79785714Y-94983390D02*
X79833333Y-94935771D01*
X79833333Y-94935771D02*
X79928571Y-94888152D01*
X79928571Y-94888152D02*
X80071428Y-94888152D01*
X80071428Y-94888152D02*
X80166666Y-94935771D01*
X80166666Y-94935771D02*
X80214285Y-95031009D01*
X80214285Y-95031009D02*
X80214285Y-95554819D01*
X81023809Y-95031009D02*
X80690476Y-95031009D01*
X80690476Y-95554819D02*
X80690476Y-94554819D01*
X80690476Y-94554819D02*
X81166666Y-94554819D01*
X91704819Y-66142857D02*
X91228628Y-66476190D01*
X91704819Y-66714285D02*
X90704819Y-66714285D01*
X90704819Y-66714285D02*
X90704819Y-66333333D01*
X90704819Y-66333333D02*
X90752438Y-66238095D01*
X90752438Y-66238095D02*
X90800057Y-66190476D01*
X90800057Y-66190476D02*
X90895295Y-66142857D01*
X90895295Y-66142857D02*
X91038152Y-66142857D01*
X91038152Y-66142857D02*
X91133390Y-66190476D01*
X91133390Y-66190476D02*
X91181009Y-66238095D01*
X91181009Y-66238095D02*
X91228628Y-66333333D01*
X91228628Y-66333333D02*
X91228628Y-66714285D01*
X91704819Y-65190476D02*
X91704819Y-65761904D01*
X91704819Y-65476190D02*
X90704819Y-65476190D01*
X90704819Y-65476190D02*
X90847676Y-65571428D01*
X90847676Y-65571428D02*
X90942914Y-65666666D01*
X90942914Y-65666666D02*
X90990533Y-65761904D01*
X91704819Y-64238095D02*
X91704819Y-64809523D01*
X91704819Y-64523809D02*
X90704819Y-64523809D01*
X90704819Y-64523809D02*
X90847676Y-64619047D01*
X90847676Y-64619047D02*
X90942914Y-64714285D01*
X90942914Y-64714285D02*
X90990533Y-64809523D01*
X66204819Y-72642857D02*
X65728628Y-72976190D01*
X66204819Y-73214285D02*
X65204819Y-73214285D01*
X65204819Y-73214285D02*
X65204819Y-72833333D01*
X65204819Y-72833333D02*
X65252438Y-72738095D01*
X65252438Y-72738095D02*
X65300057Y-72690476D01*
X65300057Y-72690476D02*
X65395295Y-72642857D01*
X65395295Y-72642857D02*
X65538152Y-72642857D01*
X65538152Y-72642857D02*
X65633390Y-72690476D01*
X65633390Y-72690476D02*
X65681009Y-72738095D01*
X65681009Y-72738095D02*
X65728628Y-72833333D01*
X65728628Y-72833333D02*
X65728628Y-73214285D01*
X66204819Y-71690476D02*
X66204819Y-72261904D01*
X66204819Y-71976190D02*
X65204819Y-71976190D01*
X65204819Y-71976190D02*
X65347676Y-72071428D01*
X65347676Y-72071428D02*
X65442914Y-72166666D01*
X65442914Y-72166666D02*
X65490533Y-72261904D01*
X65633390Y-71119047D02*
X65585771Y-71214285D01*
X65585771Y-71214285D02*
X65538152Y-71261904D01*
X65538152Y-71261904D02*
X65442914Y-71309523D01*
X65442914Y-71309523D02*
X65395295Y-71309523D01*
X65395295Y-71309523D02*
X65300057Y-71261904D01*
X65300057Y-71261904D02*
X65252438Y-71214285D01*
X65252438Y-71214285D02*
X65204819Y-71119047D01*
X65204819Y-71119047D02*
X65204819Y-70928571D01*
X65204819Y-70928571D02*
X65252438Y-70833333D01*
X65252438Y-70833333D02*
X65300057Y-70785714D01*
X65300057Y-70785714D02*
X65395295Y-70738095D01*
X65395295Y-70738095D02*
X65442914Y-70738095D01*
X65442914Y-70738095D02*
X65538152Y-70785714D01*
X65538152Y-70785714D02*
X65585771Y-70833333D01*
X65585771Y-70833333D02*
X65633390Y-70928571D01*
X65633390Y-70928571D02*
X65633390Y-71119047D01*
X65633390Y-71119047D02*
X65681009Y-71214285D01*
X65681009Y-71214285D02*
X65728628Y-71261904D01*
X65728628Y-71261904D02*
X65823866Y-71309523D01*
X65823866Y-71309523D02*
X66014342Y-71309523D01*
X66014342Y-71309523D02*
X66109580Y-71261904D01*
X66109580Y-71261904D02*
X66157200Y-71214285D01*
X66157200Y-71214285D02*
X66204819Y-71119047D01*
X66204819Y-71119047D02*
X66204819Y-70928571D01*
X66204819Y-70928571D02*
X66157200Y-70833333D01*
X66157200Y-70833333D02*
X66109580Y-70785714D01*
X66109580Y-70785714D02*
X66014342Y-70738095D01*
X66014342Y-70738095D02*
X65823866Y-70738095D01*
X65823866Y-70738095D02*
X65728628Y-70785714D01*
X65728628Y-70785714D02*
X65681009Y-70833333D01*
X65681009Y-70833333D02*
X65633390Y-70928571D01*
X72704819Y-75892857D02*
X72228628Y-76226190D01*
X72704819Y-76464285D02*
X71704819Y-76464285D01*
X71704819Y-76464285D02*
X71704819Y-76083333D01*
X71704819Y-76083333D02*
X71752438Y-75988095D01*
X71752438Y-75988095D02*
X71800057Y-75940476D01*
X71800057Y-75940476D02*
X71895295Y-75892857D01*
X71895295Y-75892857D02*
X72038152Y-75892857D01*
X72038152Y-75892857D02*
X72133390Y-75940476D01*
X72133390Y-75940476D02*
X72181009Y-75988095D01*
X72181009Y-75988095D02*
X72228628Y-76083333D01*
X72228628Y-76083333D02*
X72228628Y-76464285D01*
X71800057Y-75511904D02*
X71752438Y-75464285D01*
X71752438Y-75464285D02*
X71704819Y-75369047D01*
X71704819Y-75369047D02*
X71704819Y-75130952D01*
X71704819Y-75130952D02*
X71752438Y-75035714D01*
X71752438Y-75035714D02*
X71800057Y-74988095D01*
X71800057Y-74988095D02*
X71895295Y-74940476D01*
X71895295Y-74940476D02*
X71990533Y-74940476D01*
X71990533Y-74940476D02*
X72133390Y-74988095D01*
X72133390Y-74988095D02*
X72704819Y-75559523D01*
X72704819Y-75559523D02*
X72704819Y-74940476D01*
X72038152Y-74083333D02*
X72704819Y-74083333D01*
X71657200Y-74321428D02*
X72371485Y-74559523D01*
X72371485Y-74559523D02*
X72371485Y-73940476D01*
X85204819Y-72166666D02*
X84728628Y-72499999D01*
X85204819Y-72738094D02*
X84204819Y-72738094D01*
X84204819Y-72738094D02*
X84204819Y-72357142D01*
X84204819Y-72357142D02*
X84252438Y-72261904D01*
X84252438Y-72261904D02*
X84300057Y-72214285D01*
X84300057Y-72214285D02*
X84395295Y-72166666D01*
X84395295Y-72166666D02*
X84538152Y-72166666D01*
X84538152Y-72166666D02*
X84633390Y-72214285D01*
X84633390Y-72214285D02*
X84681009Y-72261904D01*
X84681009Y-72261904D02*
X84728628Y-72357142D01*
X84728628Y-72357142D02*
X84728628Y-72738094D01*
X84633390Y-71595237D02*
X84585771Y-71690475D01*
X84585771Y-71690475D02*
X84538152Y-71738094D01*
X84538152Y-71738094D02*
X84442914Y-71785713D01*
X84442914Y-71785713D02*
X84395295Y-71785713D01*
X84395295Y-71785713D02*
X84300057Y-71738094D01*
X84300057Y-71738094D02*
X84252438Y-71690475D01*
X84252438Y-71690475D02*
X84204819Y-71595237D01*
X84204819Y-71595237D02*
X84204819Y-71404761D01*
X84204819Y-71404761D02*
X84252438Y-71309523D01*
X84252438Y-71309523D02*
X84300057Y-71261904D01*
X84300057Y-71261904D02*
X84395295Y-71214285D01*
X84395295Y-71214285D02*
X84442914Y-71214285D01*
X84442914Y-71214285D02*
X84538152Y-71261904D01*
X84538152Y-71261904D02*
X84585771Y-71309523D01*
X84585771Y-71309523D02*
X84633390Y-71404761D01*
X84633390Y-71404761D02*
X84633390Y-71595237D01*
X84633390Y-71595237D02*
X84681009Y-71690475D01*
X84681009Y-71690475D02*
X84728628Y-71738094D01*
X84728628Y-71738094D02*
X84823866Y-71785713D01*
X84823866Y-71785713D02*
X85014342Y-71785713D01*
X85014342Y-71785713D02*
X85109580Y-71738094D01*
X85109580Y-71738094D02*
X85157200Y-71690475D01*
X85157200Y-71690475D02*
X85204819Y-71595237D01*
X85204819Y-71595237D02*
X85204819Y-71404761D01*
X85204819Y-71404761D02*
X85157200Y-71309523D01*
X85157200Y-71309523D02*
X85109580Y-71261904D01*
X85109580Y-71261904D02*
X85014342Y-71214285D01*
X85014342Y-71214285D02*
X84823866Y-71214285D01*
X84823866Y-71214285D02*
X84728628Y-71261904D01*
X84728628Y-71261904D02*
X84681009Y-71309523D01*
X84681009Y-71309523D02*
X84633390Y-71404761D01*
X57266666Y-65384819D02*
X57266666Y-66099104D01*
X57266666Y-66099104D02*
X57219047Y-66241961D01*
X57219047Y-66241961D02*
X57123809Y-66337200D01*
X57123809Y-66337200D02*
X56980952Y-66384819D01*
X56980952Y-66384819D02*
X56885714Y-66384819D01*
X58266666Y-66384819D02*
X57695238Y-66384819D01*
X57980952Y-66384819D02*
X57980952Y-65384819D01*
X57980952Y-65384819D02*
X57885714Y-65527676D01*
X57885714Y-65527676D02*
X57790476Y-65622914D01*
X57790476Y-65622914D02*
X57695238Y-65670533D01*
X85204819Y-69392857D02*
X84728628Y-69726190D01*
X85204819Y-69964285D02*
X84204819Y-69964285D01*
X84204819Y-69964285D02*
X84204819Y-69583333D01*
X84204819Y-69583333D02*
X84252438Y-69488095D01*
X84252438Y-69488095D02*
X84300057Y-69440476D01*
X84300057Y-69440476D02*
X84395295Y-69392857D01*
X84395295Y-69392857D02*
X84538152Y-69392857D01*
X84538152Y-69392857D02*
X84633390Y-69440476D01*
X84633390Y-69440476D02*
X84681009Y-69488095D01*
X84681009Y-69488095D02*
X84728628Y-69583333D01*
X84728628Y-69583333D02*
X84728628Y-69964285D01*
X85204819Y-68440476D02*
X85204819Y-69011904D01*
X85204819Y-68726190D02*
X84204819Y-68726190D01*
X84204819Y-68726190D02*
X84347676Y-68821428D01*
X84347676Y-68821428D02*
X84442914Y-68916666D01*
X84442914Y-68916666D02*
X84490533Y-69011904D01*
X84300057Y-68059523D02*
X84252438Y-68011904D01*
X84252438Y-68011904D02*
X84204819Y-67916666D01*
X84204819Y-67916666D02*
X84204819Y-67678571D01*
X84204819Y-67678571D02*
X84252438Y-67583333D01*
X84252438Y-67583333D02*
X84300057Y-67535714D01*
X84300057Y-67535714D02*
X84395295Y-67488095D01*
X84395295Y-67488095D02*
X84490533Y-67488095D01*
X84490533Y-67488095D02*
X84633390Y-67535714D01*
X84633390Y-67535714D02*
X85204819Y-68107142D01*
X85204819Y-68107142D02*
X85204819Y-67488095D01*
X67357142Y-63704819D02*
X67023809Y-63228628D01*
X66785714Y-63704819D02*
X66785714Y-62704819D01*
X66785714Y-62704819D02*
X67166666Y-62704819D01*
X67166666Y-62704819D02*
X67261904Y-62752438D01*
X67261904Y-62752438D02*
X67309523Y-62800057D01*
X67309523Y-62800057D02*
X67357142Y-62895295D01*
X67357142Y-62895295D02*
X67357142Y-63038152D01*
X67357142Y-63038152D02*
X67309523Y-63133390D01*
X67309523Y-63133390D02*
X67261904Y-63181009D01*
X67261904Y-63181009D02*
X67166666Y-63228628D01*
X67166666Y-63228628D02*
X66785714Y-63228628D01*
X67738095Y-62800057D02*
X67785714Y-62752438D01*
X67785714Y-62752438D02*
X67880952Y-62704819D01*
X67880952Y-62704819D02*
X68119047Y-62704819D01*
X68119047Y-62704819D02*
X68214285Y-62752438D01*
X68214285Y-62752438D02*
X68261904Y-62800057D01*
X68261904Y-62800057D02*
X68309523Y-62895295D01*
X68309523Y-62895295D02*
X68309523Y-62990533D01*
X68309523Y-62990533D02*
X68261904Y-63133390D01*
X68261904Y-63133390D02*
X67690476Y-63704819D01*
X67690476Y-63704819D02*
X68309523Y-63704819D01*
X68928571Y-62704819D02*
X69023809Y-62704819D01*
X69023809Y-62704819D02*
X69119047Y-62752438D01*
X69119047Y-62752438D02*
X69166666Y-62800057D01*
X69166666Y-62800057D02*
X69214285Y-62895295D01*
X69214285Y-62895295D02*
X69261904Y-63085771D01*
X69261904Y-63085771D02*
X69261904Y-63323866D01*
X69261904Y-63323866D02*
X69214285Y-63514342D01*
X69214285Y-63514342D02*
X69166666Y-63609580D01*
X69166666Y-63609580D02*
X69119047Y-63657200D01*
X69119047Y-63657200D02*
X69023809Y-63704819D01*
X69023809Y-63704819D02*
X68928571Y-63704819D01*
X68928571Y-63704819D02*
X68833333Y-63657200D01*
X68833333Y-63657200D02*
X68785714Y-63609580D01*
X68785714Y-63609580D02*
X68738095Y-63514342D01*
X68738095Y-63514342D02*
X68690476Y-63323866D01*
X68690476Y-63323866D02*
X68690476Y-63085771D01*
X68690476Y-63085771D02*
X68738095Y-62895295D01*
X68738095Y-62895295D02*
X68785714Y-62800057D01*
X68785714Y-62800057D02*
X68833333Y-62752438D01*
X68833333Y-62752438D02*
X68928571Y-62704819D01*
X85583333Y-94704819D02*
X85250000Y-94228628D01*
X85011905Y-94704819D02*
X85011905Y-93704819D01*
X85011905Y-93704819D02*
X85392857Y-93704819D01*
X85392857Y-93704819D02*
X85488095Y-93752438D01*
X85488095Y-93752438D02*
X85535714Y-93800057D01*
X85535714Y-93800057D02*
X85583333Y-93895295D01*
X85583333Y-93895295D02*
X85583333Y-94038152D01*
X85583333Y-94038152D02*
X85535714Y-94133390D01*
X85535714Y-94133390D02*
X85488095Y-94181009D01*
X85488095Y-94181009D02*
X85392857Y-94228628D01*
X85392857Y-94228628D02*
X85011905Y-94228628D01*
X86488095Y-93704819D02*
X86011905Y-93704819D01*
X86011905Y-93704819D02*
X85964286Y-94181009D01*
X85964286Y-94181009D02*
X86011905Y-94133390D01*
X86011905Y-94133390D02*
X86107143Y-94085771D01*
X86107143Y-94085771D02*
X86345238Y-94085771D01*
X86345238Y-94085771D02*
X86440476Y-94133390D01*
X86440476Y-94133390D02*
X86488095Y-94181009D01*
X86488095Y-94181009D02*
X86535714Y-94276247D01*
X86535714Y-94276247D02*
X86535714Y-94514342D01*
X86535714Y-94514342D02*
X86488095Y-94609580D01*
X86488095Y-94609580D02*
X86440476Y-94657200D01*
X86440476Y-94657200D02*
X86345238Y-94704819D01*
X86345238Y-94704819D02*
X86107143Y-94704819D01*
X86107143Y-94704819D02*
X86011905Y-94657200D01*
X86011905Y-94657200D02*
X85964286Y-94609580D01*
X60800057Y-78040238D02*
X60752438Y-78135476D01*
X60752438Y-78135476D02*
X60657200Y-78230714D01*
X60657200Y-78230714D02*
X60514342Y-78373571D01*
X60514342Y-78373571D02*
X60466723Y-78468809D01*
X60466723Y-78468809D02*
X60466723Y-78564047D01*
X60704819Y-78516428D02*
X60657200Y-78611666D01*
X60657200Y-78611666D02*
X60561961Y-78706904D01*
X60561961Y-78706904D02*
X60371485Y-78754523D01*
X60371485Y-78754523D02*
X60038152Y-78754523D01*
X60038152Y-78754523D02*
X59847676Y-78706904D01*
X59847676Y-78706904D02*
X59752438Y-78611666D01*
X59752438Y-78611666D02*
X59704819Y-78516428D01*
X59704819Y-78516428D02*
X59704819Y-78325952D01*
X59704819Y-78325952D02*
X59752438Y-78230714D01*
X59752438Y-78230714D02*
X59847676Y-78135476D01*
X59847676Y-78135476D02*
X60038152Y-78087857D01*
X60038152Y-78087857D02*
X60371485Y-78087857D01*
X60371485Y-78087857D02*
X60561961Y-78135476D01*
X60561961Y-78135476D02*
X60657200Y-78230714D01*
X60657200Y-78230714D02*
X60704819Y-78325952D01*
X60704819Y-78325952D02*
X60704819Y-78516428D01*
X59704819Y-77754523D02*
X59704819Y-77135476D01*
X59704819Y-77135476D02*
X60085771Y-77468809D01*
X60085771Y-77468809D02*
X60085771Y-77325952D01*
X60085771Y-77325952D02*
X60133390Y-77230714D01*
X60133390Y-77230714D02*
X60181009Y-77183095D01*
X60181009Y-77183095D02*
X60276247Y-77135476D01*
X60276247Y-77135476D02*
X60514342Y-77135476D01*
X60514342Y-77135476D02*
X60609580Y-77183095D01*
X60609580Y-77183095D02*
X60657200Y-77230714D01*
X60657200Y-77230714D02*
X60704819Y-77325952D01*
X60704819Y-77325952D02*
X60704819Y-77611666D01*
X60704819Y-77611666D02*
X60657200Y-77706904D01*
X60657200Y-77706904D02*
X60609580Y-77754523D01*
%TO.C,R19*%
D11*
X68675000Y-89750000D02*
X68605000Y-89750000D01*
X71415000Y-89750000D02*
G75*
G02*
X68675000Y-89750000I-1370000J0D01*
G01*
X68675000Y-89750000D02*
G75*
G02*
X71415000Y-89750000I1370000J0D01*
G01*
%TO.C,RV3*%
X87465000Y-88470000D02*
X97215000Y-88470000D01*
X87465000Y-93520000D02*
X87465000Y-88470000D01*
X97215000Y-88470000D02*
X97215000Y-93520000D01*
X97215000Y-88645000D02*
X98735000Y-88645000D01*
X97215000Y-91055000D02*
X97215000Y-88645000D01*
X97215000Y-93520000D02*
X87465000Y-93520000D01*
X98735000Y-88645000D02*
X98735000Y-91055000D01*
X98735000Y-89850000D02*
X97975000Y-89850000D01*
X98735000Y-91055000D02*
X97215000Y-91055000D01*
%TO.C,R21*%
X68675000Y-93000000D02*
X68605000Y-93000000D01*
X71415000Y-93000000D02*
G75*
G02*
X68675000Y-93000000I-1370000J0D01*
G01*
X68675000Y-93000000D02*
G75*
G02*
X71415000Y-93000000I1370000J0D01*
G01*
%TO.C,R27*%
X62175000Y-68750000D02*
X62105000Y-68750000D01*
X64915000Y-68750000D02*
G75*
G02*
X62175000Y-68750000I-1370000J0D01*
G01*
X62175000Y-68750000D02*
G75*
G02*
X64915000Y-68750000I1370000J0D01*
G01*
%TO.C,RV1*%
X87465000Y-52775000D02*
X97215000Y-52775000D01*
X87465000Y-57825000D02*
X87465000Y-52775000D01*
X97215000Y-52775000D02*
X97215000Y-57825000D01*
X97215000Y-52950000D02*
X98735000Y-52950000D01*
X97215000Y-55360000D02*
X97215000Y-52950000D01*
X97215000Y-57825000D02*
X87465000Y-57825000D01*
X98735000Y-52950000D02*
X98735000Y-55360000D01*
X98735000Y-54155000D02*
X97975000Y-54155000D01*
X98735000Y-55360000D02*
X97215000Y-55360000D01*
%TO.C,R33*%
X71250000Y-81315000D02*
X71250000Y-81385000D01*
X72620000Y-79945000D02*
G75*
G02*
X69880000Y-79945000I-1370000J0D01*
G01*
X69880000Y-79945000D02*
G75*
G02*
X72620000Y-79945000I1370000J0D01*
G01*
%TO.C,R6*%
X88325000Y-75250000D02*
X88395000Y-75250000D01*
X88325000Y-75250000D02*
G75*
G02*
X85585000Y-75250000I-1370000J0D01*
G01*
X85585000Y-75250000D02*
G75*
G02*
X88325000Y-75250000I1370000J0D01*
G01*
%TO.C,C1*%
X76230000Y-54930000D02*
X80770000Y-54930000D01*
X76230000Y-54986000D02*
X76230000Y-54930000D01*
X80770000Y-57014000D02*
X80770000Y-57070000D01*
X80770000Y-57070000D02*
X76230000Y-57070000D01*
%TO.C,R23*%
X68675000Y-86500000D02*
X68605000Y-86500000D01*
X71415000Y-86500000D02*
G75*
G02*
X68675000Y-86500000I-1370000J0D01*
G01*
X68675000Y-86500000D02*
G75*
G02*
X71415000Y-86500000I1370000J0D01*
G01*
%TO.C,C3*%
X76230000Y-80430000D02*
X80770000Y-80430000D01*
X76230000Y-80486000D02*
X76230000Y-80430000D01*
X80770000Y-82514000D02*
X80770000Y-82570000D01*
X80770000Y-82570000D02*
X76230000Y-82570000D01*
%TO.C,R13*%
X94825000Y-68750000D02*
X94895000Y-68750000D01*
X94825000Y-68750000D02*
G75*
G02*
X92085000Y-68750000I-1370000J0D01*
G01*
X92085000Y-68750000D02*
G75*
G02*
X94825000Y-68750000I1370000J0D01*
G01*
%TO.C,R10*%
X62175000Y-65500000D02*
X62105000Y-65500000D01*
X64915000Y-65500000D02*
G75*
G02*
X62175000Y-65500000I-1370000J0D01*
G01*
X62175000Y-65500000D02*
G75*
G02*
X64915000Y-65500000I1370000J0D01*
G01*
%TO.C,R4*%
X62175000Y-93000000D02*
X62105000Y-93000000D01*
X64915000Y-93000000D02*
G75*
G02*
X62175000Y-93000000I-1370000J0D01*
G01*
X62175000Y-93000000D02*
G75*
G02*
X64915000Y-93000000I1370000J0D01*
G01*
%TO.C,R28*%
X62175000Y-89750000D02*
X62105000Y-89750000D01*
X64915000Y-89750000D02*
G75*
G02*
X62175000Y-89750000I-1370000J0D01*
G01*
X62175000Y-89750000D02*
G75*
G02*
X64915000Y-89750000I1370000J0D01*
G01*
%TO.C,R7*%
X94825000Y-72000000D02*
X94895000Y-72000000D01*
X94825000Y-72000000D02*
G75*
G02*
X92085000Y-72000000I-1370000J0D01*
G01*
X92085000Y-72000000D02*
G75*
G02*
X94825000Y-72000000I1370000J0D01*
G01*
%TO.C,RV2*%
X87465000Y-58175000D02*
X97215000Y-58175000D01*
X87465000Y-63225000D02*
X87465000Y-58175000D01*
X97215000Y-58175000D02*
X97215000Y-63225000D01*
X97215000Y-58350000D02*
X98735000Y-58350000D01*
X97215000Y-60760000D02*
X97215000Y-58350000D01*
X97215000Y-63225000D02*
X87465000Y-63225000D01*
X98735000Y-58350000D02*
X98735000Y-60760000D01*
X98735000Y-59555000D02*
X97975000Y-59555000D01*
X98735000Y-60760000D02*
X97215000Y-60760000D01*
%TO.C,R32*%
X71250000Y-59675000D02*
X71250000Y-59605000D01*
X72620000Y-61045000D02*
G75*
G02*
X69880000Y-61045000I-1370000J0D01*
G01*
X69880000Y-61045000D02*
G75*
G02*
X72620000Y-61045000I1370000J0D01*
G01*
%TO.C,R34*%
X72575000Y-55750000D02*
X72645000Y-55750000D01*
X72575000Y-55750000D02*
G75*
G02*
X69835000Y-55750000I-1370000J0D01*
G01*
X69835000Y-55750000D02*
G75*
G02*
X72575000Y-55750000I1370000J0D01*
G01*
%TO.C,R29*%
X88325000Y-65500000D02*
X88395000Y-65500000D01*
X88325000Y-65500000D02*
G75*
G02*
X85585000Y-65500000I-1370000J0D01*
G01*
X85585000Y-65500000D02*
G75*
G02*
X88325000Y-65500000I1370000J0D01*
G01*
%TO.C,R2*%
X87075000Y-86500000D02*
X87145000Y-86500000D01*
X87075000Y-86500000D02*
G75*
G02*
X84335000Y-86500000I-1370000J0D01*
G01*
X84335000Y-86500000D02*
G75*
G02*
X87075000Y-86500000I1370000J0D01*
G01*
%TO.C,C2*%
X76230000Y-76430000D02*
X80770000Y-76430000D01*
X76230000Y-76486000D02*
X76230000Y-76430000D01*
X80770000Y-78514000D02*
X80770000Y-78570000D01*
X80770000Y-78570000D02*
X76230000Y-78570000D01*
%TO.C,U2*%
X75850000Y-83360000D02*
X75850000Y-93640000D01*
X75850000Y-93640000D02*
X81150000Y-93640000D01*
X77500000Y-83360000D02*
X75850000Y-83360000D01*
X81150000Y-83360000D02*
X79500000Y-83360000D01*
X81150000Y-93640000D02*
X81150000Y-83360000D01*
X73360000Y-83300000D02*
X83640000Y-83300000D01*
X83640000Y-93700000D01*
X73360000Y-93700000D01*
X73360000Y-83300000D01*
X79500000Y-83360000D02*
G75*
G02*
X77500000Y-83360000I-1000000J0D01*
G01*
%TO.C,Q1*%
X91900000Y-82940000D02*
X91900000Y-79090000D01*
X87600000Y-81000000D02*
G75*
G02*
X89101193Y-78643600I2600000J0D01*
G01*
X89101193Y-83356400D02*
G75*
G02*
X87600000Y-81000000I1098807J2356400D01*
G01*
X91312264Y-78697617D02*
G75*
G02*
X91900000Y-79090000I-1112264J-2302383D01*
G01*
X91900000Y-82940000D02*
G75*
G02*
X91322045Y-83322631I-1700000J1940000D01*
G01*
%TO.C,R25*%
X68675000Y-72000000D02*
X68605000Y-72000000D01*
X71415000Y-72000000D02*
G75*
G02*
X68675000Y-72000000I-1370000J0D01*
G01*
X68675000Y-72000000D02*
G75*
G02*
X71415000Y-72000000I1370000J0D01*
G01*
%TO.C,Q2*%
X96900000Y-82940000D02*
X96900000Y-79090000D01*
X92600000Y-81000000D02*
G75*
G02*
X94101193Y-78643600I2600000J0D01*
G01*
X94101193Y-83356400D02*
G75*
G02*
X92600000Y-81000000I1098807J2356400D01*
G01*
X96312264Y-78697617D02*
G75*
G02*
X96900000Y-79090000I-1112264J-2302383D01*
G01*
X96900000Y-82940000D02*
G75*
G02*
X96322045Y-83322631I-1700000J1940000D01*
G01*
%TO.C,J2*%
X47485000Y-75810000D02*
X53485000Y-75810000D01*
X47485000Y-76670000D02*
X47485000Y-75810000D01*
X47485000Y-78350000D02*
X53485000Y-78350000D01*
X47485000Y-79210000D02*
X47485000Y-78350000D01*
X47485000Y-80890000D02*
X53485000Y-80890000D01*
X47485000Y-81750000D02*
X47485000Y-80890000D01*
X47485000Y-83430000D02*
X53485000Y-83430000D01*
X47485000Y-84290000D02*
X47485000Y-83430000D01*
X47485000Y-85970000D02*
X53485000Y-85970000D01*
X47485000Y-86830000D02*
X47485000Y-85970000D01*
X47485000Y-88510000D02*
X53485000Y-88510000D01*
X47485000Y-89370000D02*
X47485000Y-88510000D01*
X47485000Y-91050000D02*
X53485000Y-91050000D01*
X47485000Y-91910000D02*
X47485000Y-91050000D01*
X53485000Y-76670000D02*
X47485000Y-76670000D01*
X53485000Y-79210000D02*
X47485000Y-79210000D01*
X53485000Y-81750000D02*
X47485000Y-81750000D01*
X53485000Y-84290000D02*
X47485000Y-84290000D01*
X53485000Y-86830000D02*
X47485000Y-86830000D01*
X53485000Y-89370000D02*
X47485000Y-89370000D01*
X53485000Y-91910000D02*
X47485000Y-91910000D01*
X56245000Y-77510000D02*
X53485000Y-77510000D01*
X56245000Y-80050000D02*
X53485000Y-80050000D01*
X56245000Y-82590000D02*
X53485000Y-82590000D01*
X56245000Y-85130000D02*
X53485000Y-85130000D01*
X56245000Y-87670000D02*
X53485000Y-87670000D01*
X56245000Y-90210000D02*
X53485000Y-90210000D01*
X56245000Y-92750000D02*
X53485000Y-92750000D01*
X56475000Y-93590000D02*
X56245000Y-93590000D01*
X56475000Y-94450000D02*
X56245000Y-94450000D01*
X56557642Y-75810000D02*
X56245000Y-75810000D01*
X56557642Y-76670000D02*
X56245000Y-76670000D01*
X56557642Y-78350000D02*
X56245000Y-78350000D01*
X56557642Y-79210000D02*
X56245000Y-79210000D01*
X56557642Y-80890000D02*
X56245000Y-80890000D01*
X56557642Y-81750000D02*
X56245000Y-81750000D01*
X56557642Y-83430000D02*
X56245000Y-83430000D01*
X56557642Y-84290000D02*
X56245000Y-84290000D01*
X56557642Y-85970000D02*
X56245000Y-85970000D01*
X56557642Y-86830000D02*
X56245000Y-86830000D01*
X56557642Y-88510000D02*
X56245000Y-88510000D01*
X56557642Y-89370000D02*
X56245000Y-89370000D01*
X56557642Y-91050000D02*
X56245000Y-91050000D01*
X56557642Y-91910000D02*
X56245000Y-91910000D01*
X58905000Y-94020000D02*
X58905000Y-95290000D01*
X58905000Y-95290000D02*
X57635000Y-95290000D01*
X47485000Y-93590000D02*
X53485000Y-93590000D01*
X53485000Y-94450000D01*
X47485000Y-94450000D01*
X47485000Y-93590000D01*
G36*
X47485000Y-93590000D02*
G01*
X53485000Y-93590000D01*
X53485000Y-94450000D01*
X47485000Y-94450000D01*
X47485000Y-93590000D01*
G37*
X53485000Y-74860000D02*
X56245000Y-74860000D01*
X56245000Y-95400000D01*
X53485000Y-95400000D01*
X53485000Y-74860000D01*
%TO.C,R26*%
X68675000Y-68750000D02*
X68605000Y-68750000D01*
X71415000Y-68750000D02*
G75*
G02*
X68675000Y-68750000I-1370000J0D01*
G01*
X68675000Y-68750000D02*
G75*
G02*
X71415000Y-68750000I1370000J0D01*
G01*
%TO.C,R15*%
X85750000Y-81315000D02*
X85750000Y-81385000D01*
X87120000Y-79945000D02*
G75*
G02*
X84380000Y-79945000I-1370000J0D01*
G01*
X84380000Y-79945000D02*
G75*
G02*
X87120000Y-79945000I1370000J0D01*
G01*
%TO.C,R3*%
X93575000Y-86500000D02*
X93645000Y-86500000D01*
X93575000Y-86500000D02*
G75*
G02*
X90835000Y-86500000I-1370000J0D01*
G01*
X90835000Y-86500000D02*
G75*
G02*
X93575000Y-86500000I1370000J0D01*
G01*
%TO.C,R22*%
X62175000Y-86500000D02*
X62105000Y-86500000D01*
X64915000Y-86500000D02*
G75*
G02*
X62175000Y-86500000I-1370000J0D01*
G01*
X62175000Y-86500000D02*
G75*
G02*
X64915000Y-86500000I1370000J0D01*
G01*
%TO.C,U1*%
X75850000Y-57755000D02*
X75850000Y-75655000D01*
X75850000Y-75655000D02*
X81150000Y-75655000D01*
X77500000Y-57755000D02*
X75850000Y-57755000D01*
X81150000Y-57755000D02*
X79500000Y-57755000D01*
X81150000Y-75655000D02*
X81150000Y-57755000D01*
X73360000Y-57695000D02*
X83640000Y-57695000D01*
X83640000Y-75715000D01*
X73360000Y-75715000D01*
X73360000Y-57695000D01*
X79500000Y-57755000D02*
G75*
G02*
X77500000Y-57755000I-1000000J0D01*
G01*
%TO.C,Q4*%
X69400000Y-82950000D02*
X69400000Y-79100000D01*
X65100000Y-81010000D02*
G75*
G02*
X66601193Y-78653600I2600000J0D01*
G01*
X66601193Y-83366400D02*
G75*
G02*
X65100000Y-81010000I1098807J2356400D01*
G01*
X68812264Y-78707617D02*
G75*
G02*
X69400000Y-79100000I-1112264J-2302383D01*
G01*
X69400000Y-82950000D02*
G75*
G02*
X68822045Y-83332631I-1700000J1940000D01*
G01*
%TO.C,R16*%
X84425000Y-55750000D02*
X84355000Y-55750000D01*
X87165000Y-55750000D02*
G75*
G02*
X84425000Y-55750000I-1370000J0D01*
G01*
X84425000Y-55750000D02*
G75*
G02*
X87165000Y-55750000I1370000J0D01*
G01*
%TO.C,R14*%
X85750000Y-59675000D02*
X85750000Y-59605000D01*
X87120000Y-61045000D02*
G75*
G02*
X84380000Y-61045000I-1370000J0D01*
G01*
X84380000Y-61045000D02*
G75*
G02*
X87120000Y-61045000I1370000J0D01*
G01*
%TO.C,R30*%
X62175000Y-75250000D02*
X62105000Y-75250000D01*
X64915000Y-75250000D02*
G75*
G02*
X62175000Y-75250000I-1370000J0D01*
G01*
X62175000Y-75250000D02*
G75*
G02*
X64915000Y-75250000I1370000J0D01*
G01*
%TO.C,R31*%
X68675000Y-65500000D02*
X68605000Y-65500000D01*
X71415000Y-65500000D02*
G75*
G02*
X68675000Y-65500000I-1370000J0D01*
G01*
X68675000Y-65500000D02*
G75*
G02*
X71415000Y-65500000I1370000J0D01*
G01*
%TO.C,R9*%
X94825000Y-75250000D02*
X94895000Y-75250000D01*
X94825000Y-75250000D02*
G75*
G02*
X92085000Y-75250000I-1370000J0D01*
G01*
X92085000Y-75250000D02*
G75*
G02*
X94825000Y-75250000I1370000J0D01*
G01*
%TO.C,C4*%
X76230000Y-94030000D02*
X80770000Y-94030000D01*
X76230000Y-94086000D02*
X76230000Y-94030000D01*
X80770000Y-96114000D02*
X80770000Y-96170000D01*
X80770000Y-96170000D02*
X76230000Y-96170000D01*
%TO.C,R11*%
X94825000Y-65500000D02*
X94895000Y-65500000D01*
X94825000Y-65500000D02*
G75*
G02*
X92085000Y-65500000I-1370000J0D01*
G01*
X92085000Y-65500000D02*
G75*
G02*
X94825000Y-65500000I1370000J0D01*
G01*
%TO.C,R18*%
X62175000Y-72000000D02*
X62105000Y-72000000D01*
X64915000Y-72000000D02*
G75*
G02*
X62175000Y-72000000I-1370000J0D01*
G01*
X62175000Y-72000000D02*
G75*
G02*
X64915000Y-72000000I1370000J0D01*
G01*
%TO.C,R24*%
X68675000Y-75250000D02*
X68605000Y-75250000D01*
X71415000Y-75250000D02*
G75*
G02*
X68675000Y-75250000I-1370000J0D01*
G01*
X68675000Y-75250000D02*
G75*
G02*
X71415000Y-75250000I1370000J0D01*
G01*
%TO.C,R8*%
X88325000Y-72000000D02*
X88395000Y-72000000D01*
X88325000Y-72000000D02*
G75*
G02*
X85585000Y-72000000I-1370000J0D01*
G01*
X85585000Y-72000000D02*
G75*
G02*
X88325000Y-72000000I1370000J0D01*
G01*
%TO.C,J1*%
X47485000Y-55490000D02*
X53485000Y-55490000D01*
X47485000Y-56350000D02*
X47485000Y-55490000D01*
X47485000Y-58030000D02*
X53485000Y-58030000D01*
X47485000Y-58890000D02*
X47485000Y-58030000D01*
X47485000Y-60570000D02*
X53485000Y-60570000D01*
X47485000Y-61430000D02*
X47485000Y-60570000D01*
X53485000Y-56350000D02*
X47485000Y-56350000D01*
X53485000Y-58890000D02*
X47485000Y-58890000D01*
X53485000Y-61430000D02*
X47485000Y-61430000D01*
X56245000Y-57190000D02*
X53485000Y-57190000D01*
X56245000Y-59730000D02*
X53485000Y-59730000D01*
X56245000Y-62270000D02*
X53485000Y-62270000D01*
X56475000Y-63110000D02*
X56245000Y-63110000D01*
X56475000Y-63970000D02*
X56245000Y-63970000D01*
X56557642Y-55490000D02*
X56245000Y-55490000D01*
X56557642Y-56350000D02*
X56245000Y-56350000D01*
X56557642Y-58030000D02*
X56245000Y-58030000D01*
X56557642Y-58890000D02*
X56245000Y-58890000D01*
X56557642Y-60570000D02*
X56245000Y-60570000D01*
X56557642Y-61430000D02*
X56245000Y-61430000D01*
X58905000Y-63540000D02*
X58905000Y-64810000D01*
X58905000Y-64810000D02*
X57635000Y-64810000D01*
X47485000Y-63110000D02*
X53485000Y-63110000D01*
X53485000Y-63970000D01*
X47485000Y-63970000D01*
X47485000Y-63110000D01*
G36*
X47485000Y-63110000D02*
G01*
X53485000Y-63110000D01*
X53485000Y-63970000D01*
X47485000Y-63970000D01*
X47485000Y-63110000D01*
G37*
X53485000Y-54540000D02*
X56245000Y-54540000D01*
X56245000Y-64920000D01*
X53485000Y-64920000D01*
X53485000Y-54540000D01*
%TO.C,R12*%
X88325000Y-68750000D02*
X88395000Y-68750000D01*
X88325000Y-68750000D02*
G75*
G02*
X85585000Y-68750000I-1370000J0D01*
G01*
X85585000Y-68750000D02*
G75*
G02*
X88325000Y-68750000I1370000J0D01*
G01*
%TO.C,R20*%
X68000000Y-59675000D02*
X68000000Y-59605000D01*
X69370000Y-61045000D02*
G75*
G02*
X66630000Y-61045000I-1370000J0D01*
G01*
X66630000Y-61045000D02*
G75*
G02*
X69370000Y-61045000I1370000J0D01*
G01*
%TO.C,R5*%
X85750000Y-91325000D02*
X85750000Y-91395000D01*
X87120000Y-89955000D02*
G75*
G02*
X84380000Y-89955000I-1370000J0D01*
G01*
X84380000Y-89955000D02*
G75*
G02*
X87120000Y-89955000I1370000J0D01*
G01*
%TO.C,Q3*%
X64400000Y-82940000D02*
X64400000Y-79090000D01*
X60100000Y-81000000D02*
G75*
G02*
X61601193Y-78643600I2600000J0D01*
G01*
X61601193Y-83356400D02*
G75*
G02*
X60100000Y-81000000I1098807J2356400D01*
G01*
X63812264Y-78697617D02*
G75*
G02*
X64400000Y-79090000I-1112264J-2302383D01*
G01*
X64400000Y-82940000D02*
G75*
G02*
X63822045Y-83322631I-1700000J1940000D01*
G01*
%TD*%
%LPC*%
D12*
%TO.C,R19*%
X70045000Y-89750000D03*
X67505000Y-89750000D03*
%TD*%
D13*
%TO.C,RV3*%
X89800000Y-91000000D03*
X92340000Y-91000000D03*
X94880000Y-91000000D03*
%TD*%
D12*
%TO.C,R21*%
X70045000Y-93000000D03*
X67505000Y-93000000D03*
%TD*%
%TO.C,R27*%
X63545000Y-68750000D03*
X61005000Y-68750000D03*
%TD*%
D13*
%TO.C,RV1*%
X89800000Y-55305000D03*
X92340000Y-55305000D03*
X94880000Y-55305000D03*
%TD*%
D12*
%TO.C,R33*%
X71250000Y-79945000D03*
X71250000Y-82485000D03*
%TD*%
%TO.C,R6*%
X86955000Y-75250000D03*
X89495000Y-75250000D03*
%TD*%
%TO.C,C1*%
X76000000Y-56000000D03*
X81000000Y-56000000D03*
%TD*%
%TO.C,R23*%
X70045000Y-86500000D03*
X67505000Y-86500000D03*
%TD*%
%TO.C,C3*%
X76000000Y-81500000D03*
X81000000Y-81500000D03*
%TD*%
%TO.C,R13*%
X93455000Y-68750000D03*
X95995000Y-68750000D03*
%TD*%
%TO.C,R10*%
X63545000Y-65500000D03*
X61005000Y-65500000D03*
%TD*%
%TO.C,R4*%
X63545000Y-93000000D03*
X61005000Y-93000000D03*
%TD*%
%TO.C,R28*%
X63545000Y-89750000D03*
X61005000Y-89750000D03*
%TD*%
%TO.C,R7*%
X93455000Y-72000000D03*
X95995000Y-72000000D03*
%TD*%
D13*
%TO.C,RV2*%
X89800000Y-60705000D03*
X92340000Y-60705000D03*
X94880000Y-60705000D03*
%TD*%
D12*
%TO.C,R32*%
X71250000Y-61045000D03*
X71250000Y-58505000D03*
%TD*%
%TO.C,R34*%
X71205000Y-55750000D03*
X73745000Y-55750000D03*
%TD*%
%TO.C,R29*%
X86955000Y-65500000D03*
X89495000Y-65500000D03*
%TD*%
%TO.C,R2*%
X85705000Y-86500000D03*
X88245000Y-86500000D03*
%TD*%
%TO.C,C2*%
X76000000Y-77500000D03*
X81000000Y-77500000D03*
%TD*%
D14*
%TO.C,U2*%
X74690000Y-84690000D03*
D12*
X74690000Y-87230000D03*
X74690000Y-89770000D03*
X74690000Y-92310000D03*
X82310000Y-92310000D03*
X82310000Y-89770000D03*
X82310000Y-87230000D03*
X82310000Y-84690000D03*
%TD*%
D15*
%TO.C,Q1*%
X90200000Y-83540000D03*
D16*
X90200000Y-81000000D03*
X90200000Y-78460000D03*
%TD*%
D12*
%TO.C,R25*%
X70045000Y-72000000D03*
X67505000Y-72000000D03*
%TD*%
D15*
%TO.C,Q2*%
X95200000Y-83540000D03*
D16*
X95200000Y-81000000D03*
X95200000Y-78460000D03*
%TD*%
D17*
%TO.C,J2*%
X57635000Y-94020000D03*
D18*
X57635000Y-91480000D03*
X57635000Y-88940000D03*
X57635000Y-86400000D03*
X57635000Y-83860000D03*
X57635000Y-81320000D03*
X57635000Y-78780000D03*
X57635000Y-76240000D03*
%TD*%
D12*
%TO.C,R26*%
X70045000Y-68750000D03*
X67505000Y-68750000D03*
%TD*%
%TO.C,R15*%
X85750000Y-79945000D03*
X85750000Y-82485000D03*
%TD*%
%TO.C,R3*%
X92205000Y-86500000D03*
X94745000Y-86500000D03*
%TD*%
%TO.C,R22*%
X63545000Y-86500000D03*
X61005000Y-86500000D03*
%TD*%
D14*
%TO.C,U1*%
X74690000Y-59085000D03*
D12*
X74690000Y-61625000D03*
X74690000Y-64165000D03*
X74690000Y-66705000D03*
X74690000Y-69245000D03*
X74690000Y-71785000D03*
X74690000Y-74325000D03*
X82310000Y-74325000D03*
X82310000Y-71785000D03*
X82310000Y-69245000D03*
X82310000Y-66705000D03*
X82310000Y-64165000D03*
X82310000Y-61625000D03*
X82310000Y-59085000D03*
%TD*%
D15*
%TO.C,Q4*%
X67700000Y-83550000D03*
D16*
X67700000Y-81010000D03*
X67700000Y-78470000D03*
%TD*%
D12*
%TO.C,R16*%
X85795000Y-55750000D03*
X83255000Y-55750000D03*
%TD*%
%TO.C,R14*%
X85750000Y-61045000D03*
X85750000Y-58505000D03*
%TD*%
%TO.C,R30*%
X63545000Y-75250000D03*
X61005000Y-75250000D03*
%TD*%
%TO.C,R31*%
X70045000Y-65500000D03*
X67505000Y-65500000D03*
%TD*%
%TO.C,R9*%
X93455000Y-75250000D03*
X95995000Y-75250000D03*
%TD*%
%TO.C,C4*%
X81000000Y-95100000D03*
X76000000Y-95100000D03*
%TD*%
%TO.C,R11*%
X93455000Y-65500000D03*
X95995000Y-65500000D03*
%TD*%
%TO.C,R18*%
X63545000Y-72000000D03*
X61005000Y-72000000D03*
%TD*%
%TO.C,R24*%
X70045000Y-75250000D03*
X67505000Y-75250000D03*
%TD*%
%TO.C,R8*%
X86955000Y-72000000D03*
X89495000Y-72000000D03*
%TD*%
D17*
%TO.C,J1*%
X57635000Y-63540000D03*
D18*
X57635000Y-61000000D03*
X57635000Y-58460000D03*
X57635000Y-55920000D03*
%TD*%
D12*
%TO.C,R12*%
X86955000Y-68750000D03*
X89495000Y-68750000D03*
%TD*%
%TO.C,R20*%
X68000000Y-61045000D03*
X68000000Y-58505000D03*
%TD*%
%TO.C,R5*%
X85750000Y-89955000D03*
X85750000Y-92495000D03*
%TD*%
D15*
%TO.C,Q3*%
X62700000Y-83540000D03*
D16*
X62700000Y-81000000D03*
X62700000Y-78460000D03*
%TD*%
%LPD*%
M02*
