%TF.GenerationSoftware,KiCad,Pcbnew,10.0.1*%
%TF.CreationDate,2026-07-15T13:03:34+02:00*%
%TF.ProjectId,DMH_Submodule_XFader,444d485f-5375-4626-9d6f-64756c655f58,1*%
%TF.SameCoordinates,Original*%
%TF.FileFunction,Copper,L2,Bot*%
%TF.FilePolarity,Positive*%
%FSLAX46Y46*%
G04 Gerber Fmt 4.6, Leading zero omitted, Abs format (unit mm)*
G04 Created by KiCad (PCBNEW 10.0.1) date 2026-07-15 13:03:34*
%MOMM*%
%LPD*%
G01*
G04 APERTURE LIST*
G04 Aperture macros list*
%AMRoundRect*
0 Rectangle with rounded corners*
0 $1 Rounding radius*
0 $2 $3 $4 $5 $6 $7 $8 $9 X,Y pos of 4 corners*
0 Add a 4 corners polygon primitive as box body*
4,1,4,$2,$3,$4,$5,$6,$7,$8,$9,$2,$3,0*
0 Add four circle primitives for the rounded corners*
1,1,$1+$1,$2,$3*
1,1,$1+$1,$4,$5*
1,1,$1+$1,$6,$7*
1,1,$1+$1,$8,$9*
0 Add four rect primitives between the rounded corners*
20,1,$1+$1,$2,$3,$4,$5,0*
20,1,$1+$1,$4,$5,$6,$7,0*
20,1,$1+$1,$6,$7,$8,$9,0*
20,1,$1+$1,$8,$9,$2,$3,0*%
G04 Aperture macros list end*
%TA.AperFunction,ComponentPad*%
%ADD10C,1.600000*%
%TD*%
%TA.AperFunction,ComponentPad*%
%ADD11C,1.440000*%
%TD*%
%TA.AperFunction,ComponentPad*%
%ADD12RoundRect,0.250000X-0.550000X-0.550000X0.550000X-0.550000X0.550000X0.550000X-0.550000X0.550000X0*%
%TD*%
%TA.AperFunction,ComponentPad*%
%ADD13R,1.500000X1.500000*%
%TD*%
%TA.AperFunction,ComponentPad*%
%ADD14C,1.500000*%
%TD*%
%TA.AperFunction,ComponentPad*%
%ADD15R,1.700000X1.700000*%
%TD*%
%TA.AperFunction,ComponentPad*%
%ADD16C,1.700000*%
%TD*%
%TA.AperFunction,Conductor*%
%ADD17C,0.200000*%
%TD*%
%TA.AperFunction,Conductor*%
%ADD18C,1.000000*%
%TD*%
G04 APERTURE END LIST*
D10*
%TO.P,R19,1*%
%TO.N,Net-(U2A--)*%
X70045000Y-89750000D03*
%TO.P,R19,2*%
%TO.N,/Out_X*%
X67505000Y-89750000D03*
%TD*%
D11*
%TO.P,RV3,1,1_1*%
%TO.N,Net-(U2B--)*%
X89800000Y-91000000D03*
%TO.P,RV3,2,2_2*%
%TO.N,Net-(R5-Pad2)*%
X92340000Y-91000000D03*
%TO.P,RV3,3,3_3*%
X94880000Y-91000000D03*
%TD*%
D10*
%TO.P,R21,1*%
%TO.N,Net-(U2A--)*%
X70045000Y-93000000D03*
%TO.P,R21,2*%
%TO.N,/Out_B*%
X67505000Y-93000000D03*
%TD*%
%TO.P,R27,1*%
%TO.N,Net-(U1B-+)*%
X63545000Y-68750000D03*
%TO.P,R27,2*%
%TO.N,GND*%
X61005000Y-68750000D03*
%TD*%
D11*
%TO.P,RV1,1,1_1*%
%TO.N,-12V*%
X89800000Y-55305000D03*
%TO.P,RV1,2,2_2*%
%TO.N,Net-(R11-Pad1)*%
X92340000Y-55305000D03*
%TO.P,RV1,3,3_3*%
%TO.N,+12V*%
X94880000Y-55305000D03*
%TD*%
D10*
%TO.P,R33,1*%
%TO.N,Net-(R33-Pad1)*%
X71250000Y-79945000D03*
%TO.P,R33,2*%
%TO.N,Net-(Q3-E)*%
X71250000Y-82485000D03*
%TD*%
%TO.P,R6,1*%
%TO.N,/Out_A*%
X86955000Y-75250000D03*
%TO.P,R6,2*%
%TO.N,Net-(U1C--)*%
X89495000Y-75250000D03*
%TD*%
%TO.P,C1,1*%
%TO.N,+12V*%
X76000000Y-56000000D03*
%TO.P,C1,2*%
%TO.N,GND*%
X81000000Y-56000000D03*
%TD*%
%TO.P,R23,1*%
%TO.N,+12V*%
X70045000Y-86500000D03*
%TO.P,R23,2*%
%TO.N,Net-(Q4-C)*%
X67505000Y-86500000D03*
%TD*%
%TO.P,C3,1*%
%TO.N,+12V*%
X76000000Y-81500000D03*
%TO.P,C3,2*%
%TO.N,GND*%
X81000000Y-81500000D03*
%TD*%
%TO.P,R13,1*%
%TO.N,GND*%
X93455000Y-68750000D03*
%TO.P,R13,2*%
%TO.N,Net-(Q2-B)*%
X95995000Y-68750000D03*
%TD*%
%TO.P,R10,1*%
%TO.N,Net-(Q1-B)*%
X63545000Y-65500000D03*
%TO.P,R10,2*%
%TO.N,/In_A*%
X61005000Y-65500000D03*
%TD*%
%TO.P,R4,1*%
%TO.N,Net-(U2B--)*%
X63545000Y-93000000D03*
%TO.P,R4,2*%
%TO.N,/CV_Att_In*%
X61005000Y-93000000D03*
%TD*%
%TO.P,R28,1*%
%TO.N,Net-(Q3-B)*%
X63545000Y-89750000D03*
%TO.P,R28,2*%
%TO.N,/In_B*%
X61005000Y-89750000D03*
%TD*%
%TO.P,R7,1*%
%TO.N,Net-(U1C--)*%
X93455000Y-72000000D03*
%TO.P,R7,2*%
%TO.N,Net-(Q2-C)*%
X95995000Y-72000000D03*
%TD*%
D11*
%TO.P,RV2,1,1_1*%
%TO.N,-12V*%
X89800000Y-60705000D03*
%TO.P,RV2,2,2_2*%
%TO.N,Net-(R29-Pad2)*%
X92340000Y-60705000D03*
%TO.P,RV2,3,3_3*%
%TO.N,+12V*%
X94880000Y-60705000D03*
%TD*%
D10*
%TO.P,R32,1*%
%TO.N,Net-(U1A--)*%
X71250000Y-61045000D03*
%TO.P,R32,2*%
%TO.N,+12V*%
X71250000Y-58505000D03*
%TD*%
%TO.P,R34,1*%
%TO.N,Net-(U1A--)*%
X71205000Y-55750000D03*
%TO.P,R34,2*%
%TO.N,Net-(R33-Pad1)*%
X73745000Y-55750000D03*
%TD*%
%TO.P,R29,1*%
%TO.N,Net-(Q4-B)*%
X86955000Y-65500000D03*
%TO.P,R29,2*%
%TO.N,Net-(R29-Pad2)*%
X89495000Y-65500000D03*
%TD*%
%TO.P,R2,1*%
%TO.N,+12V*%
X85705000Y-86500000D03*
%TO.P,R2,2*%
%TO.N,Net-(Q1-C)*%
X88245000Y-86500000D03*
%TD*%
%TO.P,C2,1*%
%TO.N,GND*%
X76000000Y-77500000D03*
%TO.P,C2,2*%
%TO.N,-12V*%
X81000000Y-77500000D03*
%TD*%
D12*
%TO.P,U2,1*%
%TO.N,/Out_X*%
X74690000Y-84690000D03*
D10*
%TO.P,U2,2,-_2*%
%TO.N,Net-(U2A--)*%
X74690000Y-87230000D03*
%TO.P,U2,3,+_3*%
%TO.N,GND*%
X74690000Y-89770000D03*
%TO.P,U2,4,V-_4*%
%TO.N,-12V*%
X74690000Y-92310000D03*
%TO.P,U2,5,+_5*%
%TO.N,/CV_Att_Pot*%
X82310000Y-92310000D03*
%TO.P,U2,6,-_6*%
%TO.N,Net-(U2B--)*%
X82310000Y-89770000D03*
%TO.P,U2,7*%
%TO.N,Net-(R5-Pad2)*%
X82310000Y-87230000D03*
%TO.P,U2,8,V+_8*%
%TO.N,+12V*%
X82310000Y-84690000D03*
%TD*%
D13*
%TO.P,Q1,1,C_1*%
%TO.N,Net-(Q1-C)*%
X90200000Y-83540000D03*
D14*
%TO.P,Q1,2,B_2*%
%TO.N,Net-(Q1-B)*%
X90200000Y-81000000D03*
%TO.P,Q1,3,E_3*%
%TO.N,Net-(Q1-E)*%
X90200000Y-78460000D03*
%TD*%
D10*
%TO.P,R25,1*%
%TO.N,Net-(U1B--)*%
X70045000Y-72000000D03*
%TO.P,R25,2*%
%TO.N,Net-(Q4-C)*%
X67505000Y-72000000D03*
%TD*%
D13*
%TO.P,Q2,1,C_1*%
%TO.N,Net-(Q2-C)*%
X95200000Y-83540000D03*
D14*
%TO.P,Q2,2,B_2*%
%TO.N,Net-(Q2-B)*%
X95200000Y-81000000D03*
%TO.P,Q2,3,E_3*%
%TO.N,Net-(Q1-E)*%
X95200000Y-78460000D03*
%TD*%
D15*
%TO.P,J2,1,Pin_1_1*%
%TO.N,/In_A*%
X57635000Y-94020000D03*
D16*
%TO.P,J2,2,Pin_2_2*%
%TO.N,/Out_A*%
X57635000Y-91480000D03*
%TO.P,J2,3,Pin_3_3*%
%TO.N,/In_B*%
X57635000Y-88940000D03*
%TO.P,J2,4,Pin_4_4*%
%TO.N,/Out_B*%
X57635000Y-86400000D03*
%TO.P,J2,5,Pin_5_5*%
%TO.N,/CV_Att_In*%
X57635000Y-83860000D03*
%TO.P,J2,6,Pin_6_6*%
%TO.N,/CV_Att_Pot*%
X57635000Y-81320000D03*
%TO.P,J2,7,Pin_7_7*%
%TO.N,/CV_Mix_In*%
X57635000Y-78780000D03*
%TO.P,J2,8,Pin_8_8*%
%TO.N,/Out_X*%
X57635000Y-76240000D03*
%TD*%
D10*
%TO.P,R26,1*%
%TO.N,Net-(U1B-+)*%
X70045000Y-68750000D03*
%TO.P,R26,2*%
%TO.N,Net-(Q3-C)*%
X67505000Y-68750000D03*
%TD*%
%TO.P,R15,1*%
%TO.N,Net-(R15-Pad1)*%
X85750000Y-79945000D03*
%TO.P,R15,2*%
%TO.N,Net-(Q1-E)*%
X85750000Y-82485000D03*
%TD*%
%TO.P,R3,1*%
%TO.N,+12V*%
X92205000Y-86500000D03*
%TO.P,R3,2*%
%TO.N,Net-(Q2-C)*%
X94745000Y-86500000D03*
%TD*%
%TO.P,R22,1*%
%TO.N,+12V*%
X63545000Y-86500000D03*
%TO.P,R22,2*%
%TO.N,Net-(Q3-C)*%
X61005000Y-86500000D03*
%TD*%
D12*
%TO.P,U1,1*%
%TO.N,Net-(R33-Pad1)*%
X74690000Y-59085000D03*
D10*
%TO.P,U1,2,-_2*%
%TO.N,Net-(U1A--)*%
X74690000Y-61625000D03*
%TO.P,U1,3,+_3*%
%TO.N,GND*%
X74690000Y-64165000D03*
%TO.P,U1,4,V+_4*%
%TO.N,+12V*%
X74690000Y-66705000D03*
%TO.P,U1,5,+_5*%
%TO.N,Net-(U1B-+)*%
X74690000Y-69245000D03*
%TO.P,U1,6,-_6*%
%TO.N,Net-(U1B--)*%
X74690000Y-71785000D03*
%TO.P,U1,7*%
%TO.N,/Out_B*%
X74690000Y-74325000D03*
%TO.P,U1,8*%
%TO.N,/Out_A*%
X82310000Y-74325000D03*
%TO.P,U1,9,-_9*%
%TO.N,Net-(U1C--)*%
X82310000Y-71785000D03*
%TO.P,U1,10,+_10*%
%TO.N,Net-(U1C-+)*%
X82310000Y-69245000D03*
%TO.P,U1,11,V-_11*%
%TO.N,-12V*%
X82310000Y-66705000D03*
%TO.P,U1,12,+_12*%
%TO.N,GND*%
X82310000Y-64165000D03*
%TO.P,U1,13,-_13*%
%TO.N,/CV_Mix_In*%
X82310000Y-61625000D03*
%TO.P,U1,14*%
%TO.N,Net-(R15-Pad1)*%
X82310000Y-59085000D03*
%TD*%
D13*
%TO.P,Q4,1,C_1*%
%TO.N,Net-(Q4-C)*%
X67700000Y-83550000D03*
D14*
%TO.P,Q4,2,B_2*%
%TO.N,Net-(Q4-B)*%
X67700000Y-81010000D03*
%TO.P,Q4,3,E_3*%
%TO.N,Net-(Q3-E)*%
X67700000Y-78470000D03*
%TD*%
D10*
%TO.P,R16,1*%
%TO.N,/CV_Mix_In*%
X85795000Y-55750000D03*
%TO.P,R16,2*%
%TO.N,Net-(R15-Pad1)*%
X83255000Y-55750000D03*
%TD*%
%TO.P,R14,1*%
%TO.N,/CV_Mix_In*%
X85750000Y-61045000D03*
%TO.P,R14,2*%
%TO.N,+12V*%
X85750000Y-58505000D03*
%TD*%
%TO.P,R30,1*%
%TO.N,GND*%
X63545000Y-75250000D03*
%TO.P,R30,2*%
%TO.N,Net-(Q3-B)*%
X61005000Y-75250000D03*
%TD*%
%TO.P,R31,1*%
%TO.N,GND*%
X70045000Y-65500000D03*
%TO.P,R31,2*%
%TO.N,Net-(Q4-B)*%
X67505000Y-65500000D03*
%TD*%
%TO.P,R9,1*%
%TO.N,Net-(U1C-+)*%
X93455000Y-75250000D03*
%TO.P,R9,2*%
%TO.N,GND*%
X95995000Y-75250000D03*
%TD*%
%TO.P,C4,1*%
%TO.N,GND*%
X81000000Y-95100000D03*
%TO.P,C4,2*%
%TO.N,-12V*%
X76000000Y-95100000D03*
%TD*%
%TO.P,R11,1*%
%TO.N,Net-(R11-Pad1)*%
X93455000Y-65500000D03*
%TO.P,R11,2*%
%TO.N,Net-(Q2-B)*%
X95995000Y-65500000D03*
%TD*%
%TO.P,R18,1*%
%TO.N,Net-(U2A--)*%
X63545000Y-72000000D03*
%TO.P,R18,2*%
%TO.N,/Out_A*%
X61005000Y-72000000D03*
%TD*%
%TO.P,R24,1*%
%TO.N,/Out_B*%
X70045000Y-75250000D03*
%TO.P,R24,2*%
%TO.N,Net-(U1B--)*%
X67505000Y-75250000D03*
%TD*%
%TO.P,R8,1*%
%TO.N,Net-(U1C-+)*%
X86955000Y-72000000D03*
%TO.P,R8,2*%
%TO.N,Net-(Q1-C)*%
X89495000Y-72000000D03*
%TD*%
D15*
%TO.P,J1,1,Pin_1_1*%
%TO.N,GND*%
X57635000Y-63540000D03*
D16*
%TO.P,J1,2,Pin_2_2*%
%TO.N,+12V*%
X57635000Y-61000000D03*
%TO.P,J1,3,Pin_3_3*%
%TO.N,-12V*%
X57635000Y-58460000D03*
%TO.P,J1,4,Pin_4_4*%
%TO.N,GND*%
X57635000Y-55920000D03*
%TD*%
D10*
%TO.P,R12,1*%
%TO.N,GND*%
X86955000Y-68750000D03*
%TO.P,R12,2*%
%TO.N,Net-(Q1-B)*%
X89495000Y-68750000D03*
%TD*%
%TO.P,R20,1*%
%TO.N,Net-(U1A--)*%
X68000000Y-61045000D03*
%TO.P,R20,2*%
%TO.N,Net-(R15-Pad1)*%
X68000000Y-58505000D03*
%TD*%
%TO.P,R5,1*%
%TO.N,/CV_Mix_In*%
X85750000Y-89955000D03*
%TO.P,R5,2*%
%TO.N,Net-(R5-Pad2)*%
X85750000Y-92495000D03*
%TD*%
D13*
%TO.P,Q3,1,C_1*%
%TO.N,Net-(Q3-C)*%
X62700000Y-83540000D03*
D14*
%TO.P,Q3,2,B_2*%
%TO.N,Net-(Q3-B)*%
X62700000Y-81000000D03*
%TO.P,Q3,3,E_3*%
%TO.N,Net-(Q3-E)*%
X62700000Y-78460000D03*
%TD*%
%TO.N,Net-(U2A--)*%
D17*
X70045000Y-93000000D02*
X70045000Y-89750000D01*
X70045000Y-89750000D02*
X72565000Y-87230000D01*
X72565000Y-87230000D02*
X74690000Y-87230000D01*
%TO.N,/Out_X*%
X67505000Y-89750000D02*
X68605000Y-88650000D01*
X68605000Y-88650000D02*
X70150000Y-88650000D01*
X70150000Y-88650000D02*
X74110000Y-84690000D01*
X74110000Y-84690000D02*
X74690000Y-84690000D01*
%TO.N,Net-(R5-Pad2)*%
X84000000Y-88920000D02*
X84000000Y-90745000D01*
X82310000Y-87230000D02*
X84000000Y-88920000D01*
X84000000Y-90745000D02*
X85750000Y-92495000D01*
%TO.N,/Out_B*%
X59300000Y-88065000D02*
X57635000Y-86400000D01*
X67505000Y-93000000D02*
X65055000Y-90550000D01*
X70045000Y-84334365D02*
X68800000Y-85579365D01*
X59300000Y-90300000D02*
X59300000Y-88065000D01*
X68800000Y-85579365D02*
X68800000Y-86800000D01*
X65055000Y-90550000D02*
X65050000Y-90550000D01*
X64300000Y-91300000D02*
X60300000Y-91300000D01*
X60300000Y-91300000D02*
X59300000Y-90300000D01*
X70045000Y-75250000D02*
X70045000Y-84334365D01*
X65050000Y-90550000D02*
X64300000Y-91300000D01*
X68800000Y-86800000D02*
X65050000Y-90550000D01*
%TO.N,-12V*%
D18*
X79200000Y-69815000D02*
X82310000Y-66705000D01*
X79200000Y-75700000D02*
X79200000Y-69815000D01*
X77790000Y-92310000D02*
X79200000Y-90900000D01*
X79200000Y-79300000D02*
X81000000Y-77500000D01*
X74690000Y-93790000D02*
X76000000Y-95100000D01*
X79200000Y-90900000D02*
X79200000Y-79300000D01*
X89800000Y-60705000D02*
X89800000Y-55305000D01*
X74690000Y-92310000D02*
X77790000Y-92310000D01*
X81000000Y-77500000D02*
X79200000Y-75700000D01*
X74690000Y-92310000D02*
X74690000Y-93790000D01*
%TO.N,Net-(R11-Pad1)*%
D17*
X92340000Y-55305000D02*
X93455000Y-56420000D01*
X93455000Y-56420000D02*
X93455000Y-65500000D01*
%TO.N,+12V*%
D18*
X77800000Y-69815000D02*
X77800000Y-79700000D01*
X94880000Y-60705000D02*
X94880000Y-55305000D01*
X74690000Y-66705000D02*
X77500000Y-63895000D01*
X77500000Y-57500000D02*
X76000000Y-56000000D01*
X77500000Y-63895000D02*
X77500000Y-57500000D01*
X74690000Y-66705000D02*
X77800000Y-69815000D01*
X74800000Y-81500000D02*
X76000000Y-81500000D01*
X70045000Y-86500000D02*
X70045000Y-86255000D01*
X77800000Y-79700000D02*
X76000000Y-81500000D01*
X70045000Y-86255000D02*
X74800000Y-81500000D01*
%TO.N,Net-(R33-Pad1)*%
D17*
X73745000Y-58140000D02*
X74690000Y-59085000D01*
X72100000Y-62287500D02*
X72100000Y-79095000D01*
X72100000Y-79095000D02*
X71250000Y-79945000D01*
X74690000Y-59085000D02*
X74690000Y-59697500D01*
X73745000Y-55750000D02*
X73745000Y-58140000D01*
X74690000Y-59697500D02*
X72100000Y-62287500D01*
%TO.N,/Out_A*%
X55500000Y-89345000D02*
X55500000Y-74800000D01*
X55500000Y-74800000D02*
X58300000Y-72000000D01*
X58300000Y-72000000D02*
X61005000Y-72000000D01*
X57635000Y-91480000D02*
X55500000Y-89345000D01*
%TO.N,Net-(Q4-C)*%
X67505000Y-83745000D02*
X67700000Y-83550000D01*
X67505000Y-72000000D02*
X65400000Y-74105000D01*
X65400000Y-74105000D02*
X65400000Y-81250000D01*
X65400000Y-81250000D02*
X67700000Y-83550000D01*
X67505000Y-86500000D02*
X67505000Y-83745000D01*
%TO.N,Net-(Q2-B)*%
X98500000Y-76060635D02*
X94895000Y-72455635D01*
X95200000Y-81000000D02*
X98500000Y-77700000D01*
X95995000Y-68750000D02*
X95995000Y-65500000D01*
X94895000Y-69850000D02*
X95995000Y-68750000D01*
X98500000Y-77700000D02*
X98500000Y-76060635D01*
X94895000Y-72455635D02*
X94895000Y-69850000D01*
%TO.N,Net-(Q1-B)*%
X91750000Y-79450000D02*
X90200000Y-81000000D01*
X89495000Y-68750000D02*
X91750000Y-71005000D01*
X91750000Y-71005000D02*
X91750000Y-79450000D01*
%TO.N,/In_A*%
X55100000Y-91485000D02*
X55100000Y-71405000D01*
X55100000Y-71405000D02*
X61005000Y-65500000D01*
X57635000Y-94020000D02*
X55100000Y-91485000D01*
%TO.N,/CV_Att_In*%
X57635000Y-83860000D02*
X55900000Y-85595000D01*
X56920686Y-90200000D02*
X58205000Y-90200000D01*
X55900000Y-85595000D02*
X55900000Y-89179314D01*
X55900000Y-89179314D02*
X56920686Y-90200000D01*
X58205000Y-90200000D02*
X61005000Y-93000000D01*
%TO.N,Net-(Q3-B)*%
X62700000Y-81000000D02*
X61005000Y-79305000D01*
X59905000Y-83795000D02*
X62700000Y-81000000D01*
X61005000Y-79305000D02*
X61005000Y-75250000D01*
X59905000Y-86955635D02*
X59905000Y-83795000D01*
X63545000Y-89750000D02*
X62699365Y-89750000D01*
X62699365Y-89750000D02*
X59905000Y-86955635D01*
%TO.N,Net-(Q2-C)*%
X94745000Y-83995000D02*
X95200000Y-83540000D01*
X95200000Y-83540000D02*
X98900000Y-79840000D01*
X94745000Y-86500000D02*
X94745000Y-83995000D01*
X98900000Y-79840000D02*
X98900000Y-74905000D01*
X98900000Y-74905000D02*
X95995000Y-72000000D01*
%TO.N,Net-(R29-Pad2)*%
X89495000Y-65500000D02*
X92340000Y-62655000D01*
X92340000Y-62655000D02*
X92340000Y-60705000D01*
%TO.N,Net-(U1A--)*%
X72350000Y-56895000D02*
X72350000Y-59945000D01*
X72350000Y-59945000D02*
X71250000Y-61045000D01*
X71205000Y-55750000D02*
X72350000Y-56895000D01*
%TO.N,Net-(Q4-B)*%
X68750000Y-66745000D02*
X68750000Y-79960000D01*
X68750000Y-79960000D02*
X67700000Y-81010000D01*
X67505000Y-65500000D02*
X68750000Y-66745000D01*
%TO.N,Net-(Q1-C)*%
X88245000Y-86500000D02*
X90200000Y-84545000D01*
X88250000Y-73245000D02*
X89495000Y-72000000D01*
X90200000Y-84545000D02*
X90200000Y-83540000D01*
X88250000Y-81590000D02*
X88250000Y-73245000D01*
X90200000Y-83540000D02*
X88250000Y-81590000D01*
%TO.N,/CV_Mix_In*%
X86850000Y-59945000D02*
X86850000Y-56805000D01*
X82310000Y-61625000D02*
X83600000Y-62915000D01*
X85750000Y-61045000D02*
X86850000Y-59945000D01*
X86850000Y-56805000D02*
X85795000Y-55750000D01*
X83600000Y-87805000D02*
X85750000Y-89955000D01*
X83600000Y-62915000D02*
X83600000Y-87805000D01*
%TO.N,Net-(Q3-C)*%
X65000000Y-71255000D02*
X65000000Y-81240000D01*
X67505000Y-68750000D02*
X65000000Y-71255000D01*
X61005000Y-86500000D02*
X61005000Y-85235000D01*
X65000000Y-81240000D02*
X62700000Y-83540000D01*
X61005000Y-85235000D02*
X62700000Y-83540000D01*
%TO.N,Net-(R15-Pad1)*%
X84000000Y-60775000D02*
X84000000Y-78195000D01*
X84000000Y-78195000D02*
X85750000Y-79945000D01*
X83255000Y-58140000D02*
X83255000Y-55750000D01*
X82310000Y-59085000D02*
X84000000Y-60775000D01*
X82310000Y-59085000D02*
X83255000Y-58140000D01*
%TD*%
%TA.AperFunction,Conductor*%
%TO.N,GND*%
G36*
X80989937Y-69542494D02*
G01*
X81045871Y-69584365D01*
X81064535Y-69620358D01*
X81104780Y-69744219D01*
X81164937Y-69862284D01*
X81197715Y-69926613D01*
X81318028Y-70092213D01*
X81462786Y-70236971D01*
X81617749Y-70349556D01*
X81628390Y-70357287D01*
X81719840Y-70403883D01*
X81721080Y-70404515D01*
X81771876Y-70452490D01*
X81788671Y-70520311D01*
X81766134Y-70586446D01*
X81721080Y-70625485D01*
X81628386Y-70672715D01*
X81462786Y-70793028D01*
X81318028Y-70937786D01*
X81197715Y-71103386D01*
X81104781Y-71285776D01*
X81041522Y-71480465D01*
X81009500Y-71682648D01*
X81009500Y-71887351D01*
X81041522Y-72089534D01*
X81104781Y-72284223D01*
X81197715Y-72466613D01*
X81318028Y-72632213D01*
X81462786Y-72776971D01*
X81593699Y-72872083D01*
X81628390Y-72897287D01*
X81718523Y-72943212D01*
X81721080Y-72944515D01*
X81771876Y-72992490D01*
X81788671Y-73060311D01*
X81766134Y-73126446D01*
X81721080Y-73165485D01*
X81628386Y-73212715D01*
X81462786Y-73333028D01*
X81318028Y-73477786D01*
X81197715Y-73643386D01*
X81104781Y-73825776D01*
X81041522Y-74020465D01*
X81009500Y-74222648D01*
X81009500Y-74427351D01*
X81041522Y-74629534D01*
X81104781Y-74824223D01*
X81168691Y-74949653D01*
X81194467Y-75000240D01*
X81197715Y-75006613D01*
X81318028Y-75172213D01*
X81462786Y-75316971D01*
X81583116Y-75404394D01*
X81628390Y-75437287D01*
X81728505Y-75488298D01*
X81810776Y-75530218D01*
X81810778Y-75530218D01*
X81810781Y-75530220D01*
X81885612Y-75554534D01*
X82005465Y-75593477D01*
X82069082Y-75603553D01*
X82207648Y-75625500D01*
X82207649Y-75625500D01*
X82412351Y-75625500D01*
X82412352Y-75625500D01*
X82614534Y-75593477D01*
X82809219Y-75530220D01*
X82819201Y-75525133D01*
X82887867Y-75512234D01*
X82952609Y-75538507D01*
X82992870Y-75595611D01*
X82999500Y-75635616D01*
X82999500Y-83379383D01*
X82979815Y-83446422D01*
X82927011Y-83492177D01*
X82857853Y-83502121D01*
X82819205Y-83489868D01*
X82809223Y-83484781D01*
X82614534Y-83421522D01*
X82439995Y-83393878D01*
X82412352Y-83389500D01*
X82207648Y-83389500D01*
X82183329Y-83393351D01*
X82005465Y-83421522D01*
X81810776Y-83484781D01*
X81628386Y-83577715D01*
X81462786Y-83698028D01*
X81318028Y-83842786D01*
X81197715Y-84008386D01*
X81104781Y-84190776D01*
X81041522Y-84385465D01*
X81016677Y-84542335D01*
X81009500Y-84587648D01*
X81009500Y-84792352D01*
X81010790Y-84800499D01*
X81041522Y-84994534D01*
X81104781Y-85189223D01*
X81168691Y-85314653D01*
X81180300Y-85337436D01*
X81197715Y-85371613D01*
X81318028Y-85537213D01*
X81462786Y-85681971D01*
X81617749Y-85794556D01*
X81628390Y-85802287D01*
X81719840Y-85848883D01*
X81721080Y-85849515D01*
X81771876Y-85897490D01*
X81788671Y-85965311D01*
X81766134Y-86031446D01*
X81721080Y-86070485D01*
X81628386Y-86117715D01*
X81462786Y-86238028D01*
X81318028Y-86382786D01*
X81197715Y-86548386D01*
X81104781Y-86730776D01*
X81041522Y-86925465D01*
X81009500Y-87127648D01*
X81009500Y-87332351D01*
X81041522Y-87534534D01*
X81104781Y-87729223D01*
X81160881Y-87839324D01*
X81181635Y-87880056D01*
X81197715Y-87911613D01*
X81318028Y-88077213D01*
X81462786Y-88221971D01*
X81617749Y-88334556D01*
X81628390Y-88342287D01*
X81696783Y-88377135D01*
X81721080Y-88389515D01*
X81771876Y-88437490D01*
X81788671Y-88505311D01*
X81766134Y-88571446D01*
X81721080Y-88610485D01*
X81628386Y-88657715D01*
X81462786Y-88778028D01*
X81318028Y-88922786D01*
X81197715Y-89088386D01*
X81104781Y-89270776D01*
X81041522Y-89465465D01*
X81009500Y-89667648D01*
X81009500Y-89872351D01*
X81041522Y-90074534D01*
X81104781Y-90269223D01*
X81140294Y-90338919D01*
X81197585Y-90451359D01*
X81197715Y-90451613D01*
X81318028Y-90617213D01*
X81462786Y-90761971D01*
X81610260Y-90869115D01*
X81628390Y-90882287D01*
X81696691Y-90917088D01*
X81721080Y-90929515D01*
X81771876Y-90977490D01*
X81788671Y-91045311D01*
X81766134Y-91111446D01*
X81721080Y-91150485D01*
X81628386Y-91197715D01*
X81462786Y-91318028D01*
X81318028Y-91462786D01*
X81197715Y-91628386D01*
X81104781Y-91810776D01*
X81041522Y-92005465D01*
X81009500Y-92207648D01*
X81009500Y-92412351D01*
X81041522Y-92614534D01*
X81104781Y-92809223D01*
X81149837Y-92897648D01*
X81175381Y-92947782D01*
X81197715Y-92991613D01*
X81318028Y-93157213D01*
X81462786Y-93301971D01*
X81564101Y-93375579D01*
X81628390Y-93422287D01*
X81704090Y-93460858D01*
X81810776Y-93515218D01*
X81810778Y-93515218D01*
X81810781Y-93515220D01*
X81898941Y-93543865D01*
X82005465Y-93578477D01*
X82071393Y-93588919D01*
X82207648Y-93610500D01*
X82207649Y-93610500D01*
X82412351Y-93610500D01*
X82412352Y-93610500D01*
X82614534Y-93578477D01*
X82809219Y-93515220D01*
X82991610Y-93422287D01*
X83101815Y-93342219D01*
X83157213Y-93301971D01*
X83157215Y-93301968D01*
X83157219Y-93301966D01*
X83301966Y-93157219D01*
X83301968Y-93157215D01*
X83301971Y-93157213D01*
X83370771Y-93062516D01*
X83422287Y-92991610D01*
X83515220Y-92809219D01*
X83578477Y-92614534D01*
X83610500Y-92412352D01*
X83610500Y-92207648D01*
X83585667Y-92050858D01*
X83578477Y-92005465D01*
X83526788Y-91846385D01*
X83515220Y-91810781D01*
X83515218Y-91810778D01*
X83515218Y-91810776D01*
X83474835Y-91731522D01*
X83422287Y-91628390D01*
X83391698Y-91586287D01*
X83301971Y-91462786D01*
X83157213Y-91318028D01*
X82991614Y-91197715D01*
X82966469Y-91184903D01*
X82898917Y-91150483D01*
X82848123Y-91102511D01*
X82831328Y-91034690D01*
X82853865Y-90968555D01*
X82898917Y-90929516D01*
X82991610Y-90882287D01*
X83012770Y-90866913D01*
X83157213Y-90761971D01*
X83157215Y-90761968D01*
X83157219Y-90761966D01*
X83187818Y-90731367D01*
X83249141Y-90697882D01*
X83318833Y-90702866D01*
X83374766Y-90744738D01*
X83399183Y-90810202D01*
X83399499Y-90819048D01*
X83399499Y-90824054D01*
X83399498Y-90824054D01*
X83440424Y-90976789D01*
X83440425Y-90976790D01*
X83457339Y-91006085D01*
X83457340Y-91006086D01*
X83519477Y-91113712D01*
X83519481Y-91113717D01*
X83638349Y-91232585D01*
X83638355Y-91232590D01*
X84455921Y-92050157D01*
X84489406Y-92111480D01*
X84486173Y-92176149D01*
X84481523Y-92190460D01*
X84481523Y-92190462D01*
X84449500Y-92392648D01*
X84449500Y-92597351D01*
X84481522Y-92799534D01*
X84544781Y-92994223D01*
X84605238Y-93112875D01*
X84621847Y-93145472D01*
X84637715Y-93176613D01*
X84758028Y-93342213D01*
X84902786Y-93486971D01*
X85028736Y-93578477D01*
X85068390Y-93607287D01*
X85184607Y-93666503D01*
X85250776Y-93700218D01*
X85250778Y-93700218D01*
X85250781Y-93700220D01*
X85355137Y-93734127D01*
X85445465Y-93763477D01*
X85507365Y-93773281D01*
X85647648Y-93795500D01*
X85647649Y-93795500D01*
X85852351Y-93795500D01*
X85852352Y-93795500D01*
X86054534Y-93763477D01*
X86249219Y-93700220D01*
X86431610Y-93607287D01*
X86526807Y-93538123D01*
X86597213Y-93486971D01*
X86597215Y-93486968D01*
X86597219Y-93486966D01*
X86741966Y-93342219D01*
X86741968Y-93342215D01*
X86741971Y-93342213D01*
X86822200Y-93231785D01*
X86862287Y-93176610D01*
X86955220Y-92994219D01*
X87018477Y-92799534D01*
X87050500Y-92597352D01*
X87050500Y-92392648D01*
X87045295Y-92359784D01*
X87018477Y-92190465D01*
X86976830Y-92062290D01*
X86955220Y-91995781D01*
X86955218Y-91995778D01*
X86955218Y-91995776D01*
X86909850Y-91906738D01*
X86862287Y-91813390D01*
X86807635Y-91738167D01*
X86741971Y-91647786D01*
X86597213Y-91503028D01*
X86431614Y-91382715D01*
X86414325Y-91373906D01*
X86338917Y-91335483D01*
X86288123Y-91287511D01*
X86271328Y-91219690D01*
X86293865Y-91153555D01*
X86338917Y-91114516D01*
X86431610Y-91067287D01*
X86515848Y-91006085D01*
X86597213Y-90946971D01*
X86597215Y-90946968D01*
X86597219Y-90946966D01*
X86640240Y-90903945D01*
X88579500Y-90903945D01*
X88579500Y-91096055D01*
X88582424Y-91114515D01*
X88609553Y-91285802D01*
X88668916Y-91468506D01*
X88740290Y-91608584D01*
X88756135Y-91639681D01*
X88869055Y-91795102D01*
X89004898Y-91930945D01*
X89160319Y-92043865D01*
X89293020Y-92111480D01*
X89331493Y-92131083D01*
X89422845Y-92160764D01*
X89514199Y-92190447D01*
X89703945Y-92220500D01*
X89703946Y-92220500D01*
X89896054Y-92220500D01*
X89896055Y-92220500D01*
X90085801Y-92190447D01*
X90268509Y-92131082D01*
X90439681Y-92043865D01*
X90595102Y-91930945D01*
X90730945Y-91795102D01*
X90843865Y-91639681D01*
X90931082Y-91468509D01*
X90932942Y-91462786D01*
X90952069Y-91403919D01*
X90991506Y-91346243D01*
X91055864Y-91319044D01*
X91124711Y-91330958D01*
X91176187Y-91378202D01*
X91187931Y-91403919D01*
X91208915Y-91468504D01*
X91280290Y-91608584D01*
X91296135Y-91639681D01*
X91409055Y-91795102D01*
X91544898Y-91930945D01*
X91700319Y-92043865D01*
X91833020Y-92111480D01*
X91871493Y-92131083D01*
X91962845Y-92160764D01*
X92054199Y-92190447D01*
X92243945Y-92220500D01*
X92243946Y-92220500D01*
X92436054Y-92220500D01*
X92436055Y-92220500D01*
X92625801Y-92190447D01*
X92808509Y-92131082D01*
X92979681Y-92043865D01*
X93135102Y-91930945D01*
X93270945Y-91795102D01*
X93383865Y-91639681D01*
X93471082Y-91468509D01*
X93472942Y-91462786D01*
X93492069Y-91403919D01*
X93531506Y-91346243D01*
X93595864Y-91319044D01*
X93664711Y-91330958D01*
X93716187Y-91378202D01*
X93727931Y-91403919D01*
X93748915Y-91468504D01*
X93820290Y-91608584D01*
X93836135Y-91639681D01*
X93949055Y-91795102D01*
X94084898Y-91930945D01*
X94240319Y-92043865D01*
X94373020Y-92111480D01*
X94411493Y-92131083D01*
X94502845Y-92160764D01*
X94594199Y-92190447D01*
X94783945Y-92220500D01*
X94783946Y-92220500D01*
X94976054Y-92220500D01*
X94976055Y-92220500D01*
X95165801Y-92190447D01*
X95348509Y-92131082D01*
X95519681Y-92043865D01*
X95675102Y-91930945D01*
X95810945Y-91795102D01*
X95923865Y-91639681D01*
X96011082Y-91468509D01*
X96070447Y-91285801D01*
X96100500Y-91096055D01*
X96100500Y-90903945D01*
X96070447Y-90714199D01*
X96032436Y-90597213D01*
X96011083Y-90531493D01*
X95995677Y-90501257D01*
X95923865Y-90360319D01*
X95810945Y-90204898D01*
X95675102Y-90069055D01*
X95519681Y-89956135D01*
X95457386Y-89924394D01*
X95348506Y-89868916D01*
X95165802Y-89809553D01*
X95070928Y-89794526D01*
X94976055Y-89779500D01*
X94783945Y-89779500D01*
X94720696Y-89789517D01*
X94594197Y-89809553D01*
X94411493Y-89868916D01*
X94240318Y-89956135D01*
X94158464Y-90015606D01*
X94084898Y-90069055D01*
X94084896Y-90069057D01*
X94084895Y-90069057D01*
X93949057Y-90204895D01*
X93949057Y-90204896D01*
X93949055Y-90204898D01*
X93916854Y-90249219D01*
X93836135Y-90360318D01*
X93748916Y-90531493D01*
X93727931Y-90596081D01*
X93688494Y-90653756D01*
X93624135Y-90680955D01*
X93555289Y-90669041D01*
X93503813Y-90621797D01*
X93492069Y-90596081D01*
X93471083Y-90531493D01*
X93455677Y-90501257D01*
X93383865Y-90360319D01*
X93270945Y-90204898D01*
X93135102Y-90069055D01*
X92979681Y-89956135D01*
X92917386Y-89924394D01*
X92808506Y-89868916D01*
X92625802Y-89809553D01*
X92530928Y-89794526D01*
X92436055Y-89779500D01*
X92243945Y-89779500D01*
X92180696Y-89789517D01*
X92054197Y-89809553D01*
X91871493Y-89868916D01*
X91700318Y-89956135D01*
X91618464Y-90015606D01*
X91544898Y-90069055D01*
X91544896Y-90069057D01*
X91544895Y-90069057D01*
X91409057Y-90204895D01*
X91409057Y-90204896D01*
X91409055Y-90204898D01*
X91376854Y-90249219D01*
X91296135Y-90360318D01*
X91208916Y-90531493D01*
X91187931Y-90596081D01*
X91148494Y-90653756D01*
X91084135Y-90680955D01*
X91015289Y-90669041D01*
X90963813Y-90621797D01*
X90952069Y-90596081D01*
X90931083Y-90531493D01*
X90915677Y-90501257D01*
X90843865Y-90360319D01*
X90730945Y-90204898D01*
X90595102Y-90069055D01*
X90439681Y-89956135D01*
X90377386Y-89924394D01*
X90268506Y-89868916D01*
X90085802Y-89809553D01*
X89990928Y-89794526D01*
X89896055Y-89779500D01*
X89703945Y-89779500D01*
X89640696Y-89789517D01*
X89514197Y-89809553D01*
X89331493Y-89868916D01*
X89160318Y-89956135D01*
X89078464Y-90015606D01*
X89004898Y-90069055D01*
X89004896Y-90069057D01*
X89004895Y-90069057D01*
X88869057Y-90204895D01*
X88869057Y-90204896D01*
X88869055Y-90204898D01*
X88836854Y-90249219D01*
X88756135Y-90360318D01*
X88668916Y-90531493D01*
X88609553Y-90714197D01*
X88592153Y-90824057D01*
X88579500Y-90903945D01*
X86640240Y-90903945D01*
X86741966Y-90802219D01*
X86741970Y-90802215D01*
X86741971Y-90802213D01*
X86805917Y-90714197D01*
X86862287Y-90636610D01*
X86955220Y-90454219D01*
X87018477Y-90259534D01*
X87050500Y-90057352D01*
X87050500Y-89852648D01*
X87037410Y-89770000D01*
X87018477Y-89650465D01*
X86977514Y-89524394D01*
X86955220Y-89455781D01*
X86955218Y-89455778D01*
X86955218Y-89455776D01*
X86911512Y-89370000D01*
X86862287Y-89273390D01*
X86845857Y-89250776D01*
X86741971Y-89107786D01*
X86597213Y-88963028D01*
X86431613Y-88842715D01*
X86431612Y-88842714D01*
X86431610Y-88842713D01*
X86374653Y-88813691D01*
X86249223Y-88749781D01*
X86054534Y-88686522D01*
X85875378Y-88658147D01*
X85852352Y-88654500D01*
X85647648Y-88654500D01*
X85609599Y-88660526D01*
X85445468Y-88686522D01*
X85436717Y-88689365D01*
X85431154Y-88691173D01*
X85361313Y-88693167D01*
X85305157Y-88660922D01*
X84236819Y-87592584D01*
X84203334Y-87531261D01*
X84200500Y-87504903D01*
X84200500Y-86861036D01*
X84220185Y-86793997D01*
X84272989Y-86748242D01*
X84342147Y-86738298D01*
X84405703Y-86767323D01*
X84442431Y-86822717D01*
X84499781Y-86999223D01*
X84563691Y-87124653D01*
X84569525Y-87136102D01*
X84592715Y-87181613D01*
X84713028Y-87347213D01*
X84857786Y-87491971D01*
X84950756Y-87559516D01*
X85023390Y-87612287D01*
X85100462Y-87651557D01*
X85205776Y-87705218D01*
X85205778Y-87705218D01*
X85205781Y-87705220D01*
X85279655Y-87729223D01*
X85400465Y-87768477D01*
X85476274Y-87780484D01*
X85602648Y-87800500D01*
X85602649Y-87800500D01*
X85807351Y-87800500D01*
X85807352Y-87800500D01*
X86009534Y-87768477D01*
X86204219Y-87705220D01*
X86386610Y-87612287D01*
X86534413Y-87504903D01*
X86552213Y-87491971D01*
X86552215Y-87491968D01*
X86552219Y-87491966D01*
X86696966Y-87347219D01*
X86696968Y-87347215D01*
X86696971Y-87347213D01*
X86817284Y-87181614D01*
X86817285Y-87181613D01*
X86817287Y-87181610D01*
X86864516Y-87088917D01*
X86912489Y-87038123D01*
X86980310Y-87021328D01*
X87046445Y-87043865D01*
X87085483Y-87088917D01*
X87129348Y-87175006D01*
X87132715Y-87181614D01*
X87253028Y-87347213D01*
X87397786Y-87491971D01*
X87490756Y-87559516D01*
X87563390Y-87612287D01*
X87640462Y-87651557D01*
X87745776Y-87705218D01*
X87745778Y-87705218D01*
X87745781Y-87705220D01*
X87819655Y-87729223D01*
X87940465Y-87768477D01*
X88016274Y-87780484D01*
X88142648Y-87800500D01*
X88142649Y-87800500D01*
X88347351Y-87800500D01*
X88347352Y-87800500D01*
X88549534Y-87768477D01*
X88744219Y-87705220D01*
X88926610Y-87612287D01*
X89074413Y-87504903D01*
X89092213Y-87491971D01*
X89092215Y-87491968D01*
X89092219Y-87491966D01*
X89236966Y-87347219D01*
X89236968Y-87347215D01*
X89236971Y-87347213D01*
X89344315Y-87199464D01*
X89357287Y-87181610D01*
X89450220Y-86999219D01*
X89513477Y-86804534D01*
X89545500Y-86602352D01*
X89545500Y-86397648D01*
X89524040Y-86262155D01*
X89513478Y-86195472D01*
X89513477Y-86195471D01*
X89513477Y-86195466D01*
X89508825Y-86181151D01*
X89506832Y-86111312D01*
X89539075Y-86055158D01*
X90680520Y-84913716D01*
X90715862Y-84852499D01*
X90766429Y-84804284D01*
X90823250Y-84790499D01*
X90997871Y-84790499D01*
X90997872Y-84790499D01*
X91057483Y-84784091D01*
X91192331Y-84733796D01*
X91307546Y-84647546D01*
X91393796Y-84532331D01*
X91444091Y-84397483D01*
X91450500Y-84337873D01*
X91450499Y-82742128D01*
X91444091Y-82682517D01*
X91436232Y-82661447D01*
X91393797Y-82547671D01*
X91393793Y-82547664D01*
X91307547Y-82432455D01*
X91307544Y-82432452D01*
X91192335Y-82346206D01*
X91192328Y-82346202D01*
X91057482Y-82295908D01*
X91057483Y-82295908D01*
X90997883Y-82289501D01*
X90997881Y-82289500D01*
X90997873Y-82289500D01*
X90997865Y-82289500D01*
X90934267Y-82289500D01*
X90867228Y-82269815D01*
X90821473Y-82217011D01*
X90811529Y-82147853D01*
X90840554Y-82084297D01*
X90861381Y-82065182D01*
X91014646Y-81953828D01*
X91153828Y-81814646D01*
X91269524Y-81655405D01*
X91358884Y-81480025D01*
X91419709Y-81292826D01*
X91450500Y-81098422D01*
X91450500Y-80901578D01*
X91436609Y-80813882D01*
X91419709Y-80707174D01*
X91419707Y-80707168D01*
X91418975Y-80702546D01*
X91427929Y-80633252D01*
X91453764Y-80595469D01*
X92108506Y-79940728D01*
X92108511Y-79940724D01*
X92118714Y-79930520D01*
X92118716Y-79930520D01*
X92230520Y-79818716D01*
X92291430Y-79713216D01*
X92309577Y-79681785D01*
X92350501Y-79529057D01*
X92350501Y-79370943D01*
X92350501Y-79363348D01*
X92350500Y-79363330D01*
X92350500Y-76284047D01*
X92370185Y-76217008D01*
X92422989Y-76171253D01*
X92492147Y-76161309D01*
X92555703Y-76190334D01*
X92562181Y-76196366D01*
X92607786Y-76241971D01*
X92751366Y-76346286D01*
X92773390Y-76362287D01*
X92854499Y-76403614D01*
X92955776Y-76455218D01*
X92955778Y-76455218D01*
X92955781Y-76455220D01*
X93019686Y-76475984D01*
X93150465Y-76518477D01*
X93251557Y-76534488D01*
X93352648Y-76550500D01*
X93352649Y-76550500D01*
X93557351Y-76550500D01*
X93557352Y-76550500D01*
X93759534Y-76518477D01*
X93954219Y-76455220D01*
X94136610Y-76362287D01*
X94259434Y-76273051D01*
X94302213Y-76241971D01*
X94302215Y-76241968D01*
X94302219Y-76241966D01*
X94446966Y-76097219D01*
X94446968Y-76097215D01*
X94446971Y-76097213D01*
X94535093Y-75975921D01*
X94567287Y-75931610D01*
X94614795Y-75838369D01*
X94662769Y-75787573D01*
X94730590Y-75770778D01*
X94796725Y-75793315D01*
X94835765Y-75838369D01*
X94883141Y-75931350D01*
X94883147Y-75931359D01*
X94915523Y-75975921D01*
X94915524Y-75975922D01*
X95595000Y-75296446D01*
X95595000Y-75302661D01*
X95622259Y-75404394D01*
X95674920Y-75495606D01*
X95749394Y-75570080D01*
X95840606Y-75622741D01*
X95942339Y-75650000D01*
X95948553Y-75650000D01*
X95269076Y-76329474D01*
X95313650Y-76361859D01*
X95495968Y-76454755D01*
X95690582Y-76517990D01*
X95892683Y-76550000D01*
X96097317Y-76550000D01*
X96299417Y-76517990D01*
X96494031Y-76454755D01*
X96676349Y-76361859D01*
X96720921Y-76329474D01*
X96041447Y-75650000D01*
X96047661Y-75650000D01*
X96149394Y-75622741D01*
X96240606Y-75570080D01*
X96315080Y-75495606D01*
X96367741Y-75404394D01*
X96395000Y-75302661D01*
X96395000Y-75296446D01*
X97074474Y-75975921D01*
X97106861Y-75931347D01*
X97106861Y-75931346D01*
X97169327Y-75808750D01*
X97217301Y-75757953D01*
X97285122Y-75741158D01*
X97351257Y-75763695D01*
X97367493Y-75777363D01*
X97863181Y-76273051D01*
X97896666Y-76334374D01*
X97899500Y-76360732D01*
X97899500Y-77399902D01*
X97879815Y-77466941D01*
X97863181Y-77487583D01*
X96656022Y-78694741D01*
X96594699Y-78728226D01*
X96525007Y-78723242D01*
X96469074Y-78681370D01*
X96444657Y-78615906D01*
X96445867Y-78587663D01*
X96450500Y-78558417D01*
X96450500Y-78361583D01*
X96450500Y-78361577D01*
X96419709Y-78167173D01*
X96365138Y-77999223D01*
X96358884Y-77979975D01*
X96358882Y-77979972D01*
X96358882Y-77979970D01*
X96274619Y-77814595D01*
X96269524Y-77804595D01*
X96153828Y-77645354D01*
X96014646Y-77506172D01*
X95855405Y-77390476D01*
X95680029Y-77301117D01*
X95492826Y-77240290D01*
X95298422Y-77209500D01*
X95298417Y-77209500D01*
X95101583Y-77209500D01*
X95101578Y-77209500D01*
X94907173Y-77240290D01*
X94719970Y-77301117D01*
X94544594Y-77390476D01*
X94516478Y-77410904D01*
X94385354Y-77506172D01*
X94385352Y-77506174D01*
X94385351Y-77506174D01*
X94246174Y-77645351D01*
X94246174Y-77645352D01*
X94246172Y-77645354D01*
X94242493Y-77650418D01*
X94130476Y-77804594D01*
X94041117Y-77979970D01*
X93980290Y-78167173D01*
X93949500Y-78361577D01*
X93949500Y-78558422D01*
X93980290Y-78752826D01*
X94041117Y-78940029D01*
X94121496Y-79097781D01*
X94130476Y-79115405D01*
X94246172Y-79274646D01*
X94385354Y-79413828D01*
X94544595Y-79529524D01*
X94665769Y-79591265D01*
X94721213Y-79619515D01*
X94772009Y-79667489D01*
X94788804Y-79735310D01*
X94766267Y-79801445D01*
X94721213Y-79840485D01*
X94544594Y-79930476D01*
X94478419Y-79978556D01*
X94385354Y-80046172D01*
X94385352Y-80046174D01*
X94385351Y-80046174D01*
X94246174Y-80185351D01*
X94246174Y-80185352D01*
X94246172Y-80185354D01*
X94229666Y-80208073D01*
X94130476Y-80344594D01*
X94041117Y-80519970D01*
X93980290Y-80707173D01*
X93949500Y-80901577D01*
X93949500Y-81098422D01*
X93980290Y-81292826D01*
X94041117Y-81480029D01*
X94121496Y-81637781D01*
X94130476Y-81655405D01*
X94246172Y-81814646D01*
X94385354Y-81953828D01*
X94538621Y-82065184D01*
X94581285Y-82120512D01*
X94587264Y-82190125D01*
X94554658Y-82251920D01*
X94493819Y-82286278D01*
X94465736Y-82289500D01*
X94402130Y-82289500D01*
X94402123Y-82289501D01*
X94342516Y-82295908D01*
X94207671Y-82346202D01*
X94207664Y-82346206D01*
X94092455Y-82432452D01*
X94092452Y-82432455D01*
X94006206Y-82547664D01*
X94006202Y-82547671D01*
X93955908Y-82682517D01*
X93949501Y-82742116D01*
X93949501Y-82742123D01*
X93949500Y-82742135D01*
X93949500Y-84337870D01*
X93949501Y-84337876D01*
X93955908Y-84397483D01*
X94006202Y-84532328D01*
X94006203Y-84532329D01*
X94006204Y-84532331D01*
X94015886Y-84545264D01*
X94092452Y-84647544D01*
X94092453Y-84647544D01*
X94092454Y-84647546D01*
X94094807Y-84649307D01*
X94096572Y-84651665D01*
X94098725Y-84653818D01*
X94098415Y-84654127D01*
X94136680Y-84705238D01*
X94144500Y-84748577D01*
X94144500Y-85270397D01*
X94124815Y-85337436D01*
X94076800Y-85380879D01*
X94063389Y-85387712D01*
X93897786Y-85508028D01*
X93753028Y-85652786D01*
X93632715Y-85818386D01*
X93585485Y-85911080D01*
X93537510Y-85961876D01*
X93469689Y-85978671D01*
X93403554Y-85956134D01*
X93364515Y-85911080D01*
X93363883Y-85909840D01*
X93317287Y-85818390D01*
X93301422Y-85796554D01*
X93196971Y-85652786D01*
X93052213Y-85508028D01*
X92886613Y-85387715D01*
X92886612Y-85387714D01*
X92886610Y-85387713D01*
X92829653Y-85358691D01*
X92704223Y-85294781D01*
X92509534Y-85231522D01*
X92334995Y-85203878D01*
X92307352Y-85199500D01*
X92102648Y-85199500D01*
X92078329Y-85203351D01*
X91900465Y-85231522D01*
X91705776Y-85294781D01*
X91523386Y-85387715D01*
X91357786Y-85508028D01*
X91213028Y-85652786D01*
X91092715Y-85818386D01*
X90999781Y-86000776D01*
X90936522Y-86195465D01*
X90904500Y-86397648D01*
X90904500Y-86602351D01*
X90936522Y-86804534D01*
X90999781Y-86999223D01*
X91063691Y-87124653D01*
X91069525Y-87136102D01*
X91092715Y-87181613D01*
X91213028Y-87347213D01*
X91357786Y-87491971D01*
X91450756Y-87559516D01*
X91523390Y-87612287D01*
X91600462Y-87651557D01*
X91705776Y-87705218D01*
X91705778Y-87705218D01*
X91705781Y-87705220D01*
X91779655Y-87729223D01*
X91900465Y-87768477D01*
X91976274Y-87780484D01*
X92102648Y-87800500D01*
X92102649Y-87800500D01*
X92307351Y-87800500D01*
X92307352Y-87800500D01*
X92509534Y-87768477D01*
X92704219Y-87705220D01*
X92886610Y-87612287D01*
X93034413Y-87504903D01*
X93052213Y-87491971D01*
X93052215Y-87491968D01*
X93052219Y-87491966D01*
X93196966Y-87347219D01*
X93196968Y-87347215D01*
X93196971Y-87347213D01*
X93317284Y-87181614D01*
X93317285Y-87181613D01*
X93317287Y-87181610D01*
X93364516Y-87088917D01*
X93412489Y-87038123D01*
X93480310Y-87021328D01*
X93546445Y-87043865D01*
X93585483Y-87088917D01*
X93629348Y-87175006D01*
X93632715Y-87181614D01*
X93753028Y-87347213D01*
X93897786Y-87491971D01*
X93990756Y-87559516D01*
X94063390Y-87612287D01*
X94140462Y-87651557D01*
X94245776Y-87705218D01*
X94245778Y-87705218D01*
X94245781Y-87705220D01*
X94319655Y-87729223D01*
X94440465Y-87768477D01*
X94516274Y-87780484D01*
X94642648Y-87800500D01*
X94642649Y-87800500D01*
X94847351Y-87800500D01*
X94847352Y-87800500D01*
X95049534Y-87768477D01*
X95244219Y-87705220D01*
X95426610Y-87612287D01*
X95574413Y-87504903D01*
X95592213Y-87491971D01*
X95592215Y-87491968D01*
X95592219Y-87491966D01*
X95736966Y-87347219D01*
X95736968Y-87347215D01*
X95736971Y-87347213D01*
X95844315Y-87199464D01*
X95857287Y-87181610D01*
X95950220Y-86999219D01*
X96013477Y-86804534D01*
X96045500Y-86602352D01*
X96045500Y-86397648D01*
X96024040Y-86262155D01*
X96013477Y-86195465D01*
X95984127Y-86105137D01*
X95950220Y-86000781D01*
X95950218Y-86000778D01*
X95950218Y-86000776D01*
X95904515Y-85911080D01*
X95857287Y-85818390D01*
X95841422Y-85796554D01*
X95736971Y-85652786D01*
X95592213Y-85508028D01*
X95426610Y-85387712D01*
X95413200Y-85380879D01*
X95362406Y-85332903D01*
X95345500Y-85270397D01*
X95345500Y-84914499D01*
X95365185Y-84847460D01*
X95417989Y-84801705D01*
X95469500Y-84790499D01*
X95997871Y-84790499D01*
X95997872Y-84790499D01*
X96057483Y-84784091D01*
X96192331Y-84733796D01*
X96307546Y-84647546D01*
X96393796Y-84532331D01*
X96444091Y-84397483D01*
X96450500Y-84337873D01*
X96450499Y-83190095D01*
X96470184Y-83123057D01*
X96486813Y-83102420D01*
X98787821Y-80801413D01*
X98849142Y-80767930D01*
X98918834Y-80772914D01*
X98974767Y-80814786D01*
X98999184Y-80880250D01*
X98999500Y-80889096D01*
X98999500Y-96875500D01*
X98979815Y-96942539D01*
X98927011Y-96988294D01*
X98875500Y-96999500D01*
X55124500Y-96999500D01*
X55057461Y-96979815D01*
X55011706Y-96927011D01*
X55000500Y-96875500D01*
X55000500Y-92534097D01*
X55020185Y-92467058D01*
X55072989Y-92421303D01*
X55142147Y-92411359D01*
X55205703Y-92440384D01*
X55212181Y-92446416D01*
X56248181Y-93482416D01*
X56281666Y-93543739D01*
X56284500Y-93570097D01*
X56284500Y-94917870D01*
X56284501Y-94917876D01*
X56290908Y-94977483D01*
X56341202Y-95112328D01*
X56341206Y-95112335D01*
X56427452Y-95227544D01*
X56427455Y-95227547D01*
X56542664Y-95313793D01*
X56542671Y-95313797D01*
X56677517Y-95364091D01*
X56677516Y-95364091D01*
X56684444Y-95364835D01*
X56737127Y-95370500D01*
X58532872Y-95370499D01*
X58592483Y-95364091D01*
X58727331Y-95313796D01*
X58842546Y-95227546D01*
X58928796Y-95112331D01*
X58979091Y-94977483D01*
X58985500Y-94917873D01*
X58985499Y-93122128D01*
X58979091Y-93062517D01*
X58952644Y-92991610D01*
X58928797Y-92927671D01*
X58928793Y-92927664D01*
X58842547Y-92812455D01*
X58842544Y-92812452D01*
X58727335Y-92726206D01*
X58727328Y-92726202D01*
X58595917Y-92677189D01*
X58539983Y-92635318D01*
X58515566Y-92569853D01*
X58530418Y-92501580D01*
X58551563Y-92473332D01*
X58665104Y-92359792D01*
X58790051Y-92187816D01*
X58886557Y-91998412D01*
X58889657Y-91988870D01*
X58929093Y-91931194D01*
X58993451Y-91903995D01*
X59062298Y-91915907D01*
X59095270Y-91939505D01*
X59710922Y-92555157D01*
X59744407Y-92616480D01*
X59741173Y-92681155D01*
X59736522Y-92695468D01*
X59717993Y-92812455D01*
X59704500Y-92897648D01*
X59704500Y-93102352D01*
X59707632Y-93122128D01*
X59736522Y-93304534D01*
X59799781Y-93499223D01*
X59892715Y-93681613D01*
X60013028Y-93847213D01*
X60157786Y-93991971D01*
X60281466Y-94081828D01*
X60323390Y-94112287D01*
X60439607Y-94171503D01*
X60505776Y-94205218D01*
X60505778Y-94205218D01*
X60505781Y-94205220D01*
X60610137Y-94239127D01*
X60700465Y-94268477D01*
X60801557Y-94284488D01*
X60902648Y-94300500D01*
X60902649Y-94300500D01*
X61107351Y-94300500D01*
X61107352Y-94300500D01*
X61309534Y-94268477D01*
X61504219Y-94205220D01*
X61686610Y-94112287D01*
X61812912Y-94020524D01*
X61852213Y-93991971D01*
X61852215Y-93991968D01*
X61852219Y-93991966D01*
X61996966Y-93847219D01*
X61996968Y-93847215D01*
X61996971Y-93847213D01*
X62117284Y-93681614D01*
X62117285Y-93681613D01*
X62117287Y-93681610D01*
X62164516Y-93588917D01*
X62212489Y-93538123D01*
X62280310Y-93521328D01*
X62346445Y-93543865D01*
X62385483Y-93588917D01*
X62396481Y-93610500D01*
X62432715Y-93681614D01*
X62553028Y-93847213D01*
X62697786Y-93991971D01*
X62821466Y-94081828D01*
X62863390Y-94112287D01*
X62979607Y-94171503D01*
X63045776Y-94205218D01*
X63045778Y-94205218D01*
X63045781Y-94205220D01*
X63150137Y-94239127D01*
X63240465Y-94268477D01*
X63341557Y-94284488D01*
X63442648Y-94300500D01*
X63442649Y-94300500D01*
X63647351Y-94300500D01*
X63647352Y-94300500D01*
X63849534Y-94268477D01*
X64044219Y-94205220D01*
X64226610Y-94112287D01*
X64352912Y-94020524D01*
X64392213Y-93991971D01*
X64392215Y-93991968D01*
X64392219Y-93991966D01*
X64536966Y-93847219D01*
X64536968Y-93847215D01*
X64536971Y-93847213D01*
X64597808Y-93763477D01*
X64657287Y-93681610D01*
X64750220Y-93499219D01*
X64813477Y-93304534D01*
X64845500Y-93102352D01*
X64845500Y-92897648D01*
X64818346Y-92726206D01*
X64813477Y-92695465D01*
X64753249Y-92510104D01*
X64750220Y-92500781D01*
X64750218Y-92500778D01*
X64750218Y-92500776D01*
X64705163Y-92412352D01*
X64657287Y-92318390D01*
X64596509Y-92234735D01*
X64536971Y-92152786D01*
X64456496Y-92072311D01*
X64423011Y-92010988D01*
X64427995Y-91941296D01*
X64469867Y-91885363D01*
X64491679Y-91872291D01*
X64501547Y-91867679D01*
X64531785Y-91859577D01*
X64581904Y-91830639D01*
X64668716Y-91780520D01*
X64780520Y-91668716D01*
X64780520Y-91668714D01*
X64790728Y-91658507D01*
X64790729Y-91658504D01*
X64964821Y-91484412D01*
X65026141Y-91450930D01*
X65095833Y-91455914D01*
X65140180Y-91484415D01*
X66210922Y-92555157D01*
X66244407Y-92616480D01*
X66241173Y-92681155D01*
X66236522Y-92695468D01*
X66217993Y-92812455D01*
X66204500Y-92897648D01*
X66204500Y-93102352D01*
X66207632Y-93122128D01*
X66236522Y-93304534D01*
X66299781Y-93499223D01*
X66392715Y-93681613D01*
X66513028Y-93847213D01*
X66657786Y-93991971D01*
X66781466Y-94081828D01*
X66823390Y-94112287D01*
X66939607Y-94171503D01*
X67005776Y-94205218D01*
X67005778Y-94205218D01*
X67005781Y-94205220D01*
X67110137Y-94239127D01*
X67200465Y-94268477D01*
X67301557Y-94284488D01*
X67402648Y-94300500D01*
X67402649Y-94300500D01*
X67607351Y-94300500D01*
X67607352Y-94300500D01*
X67809534Y-94268477D01*
X68004219Y-94205220D01*
X68186610Y-94112287D01*
X68312912Y-94020524D01*
X68352213Y-93991971D01*
X68352215Y-93991968D01*
X68352219Y-93991966D01*
X68496966Y-93847219D01*
X68496968Y-93847215D01*
X68496971Y-93847213D01*
X68617284Y-93681614D01*
X68617285Y-93681613D01*
X68617287Y-93681610D01*
X68664516Y-93588917D01*
X68712489Y-93538123D01*
X68780310Y-93521328D01*
X68846445Y-93543865D01*
X68885483Y-93588917D01*
X68896481Y-93610500D01*
X68932715Y-93681614D01*
X69053028Y-93847213D01*
X69197786Y-93991971D01*
X69321466Y-94081828D01*
X69363390Y-94112287D01*
X69479607Y-94171503D01*
X69545776Y-94205218D01*
X69545778Y-94205218D01*
X69545781Y-94205220D01*
X69650137Y-94239127D01*
X69740465Y-94268477D01*
X69841557Y-94284488D01*
X69942648Y-94300500D01*
X69942649Y-94300500D01*
X70147351Y-94300500D01*
X70147352Y-94300500D01*
X70349534Y-94268477D01*
X70544219Y-94205220D01*
X70726610Y-94112287D01*
X70852912Y-94020524D01*
X70892213Y-93991971D01*
X70892215Y-93991968D01*
X70892219Y-93991966D01*
X71036966Y-93847219D01*
X71036968Y-93847215D01*
X71036971Y-93847213D01*
X71097808Y-93763477D01*
X71157287Y-93681610D01*
X71250220Y-93499219D01*
X71313477Y-93304534D01*
X71345500Y-93102352D01*
X71345500Y-92897648D01*
X71318346Y-92726206D01*
X71313477Y-92695465D01*
X71253249Y-92510104D01*
X71250220Y-92500781D01*
X71250218Y-92500778D01*
X71250218Y-92500776D01*
X71205163Y-92412352D01*
X71157287Y-92318390D01*
X71096509Y-92234735D01*
X71036971Y-92152786D01*
X70892213Y-92008028D01*
X70726610Y-91887712D01*
X70713200Y-91880879D01*
X70662406Y-91832903D01*
X70645500Y-91770397D01*
X70645500Y-90979601D01*
X70665185Y-90912562D01*
X70713206Y-90869116D01*
X70726610Y-90862287D01*
X70892219Y-90741966D01*
X71036966Y-90597219D01*
X71036968Y-90597215D01*
X71036971Y-90597213D01*
X71110562Y-90495922D01*
X71157287Y-90431610D01*
X71250220Y-90249219D01*
X71313477Y-90054534D01*
X71345500Y-89852352D01*
X71345500Y-89647648D01*
X71315000Y-89455081D01*
X71313478Y-89445472D01*
X71313477Y-89445471D01*
X71313477Y-89445466D01*
X71308825Y-89431151D01*
X71306832Y-89361312D01*
X71339075Y-89305158D01*
X72777416Y-87866819D01*
X72838739Y-87833334D01*
X72865097Y-87830500D01*
X73460398Y-87830500D01*
X73527437Y-87850185D01*
X73570883Y-87898205D01*
X73577715Y-87911614D01*
X73698028Y-88077213D01*
X73842786Y-88221971D01*
X74008385Y-88342284D01*
X74008387Y-88342285D01*
X74008390Y-88342287D01*
X74101080Y-88389515D01*
X74101630Y-88389795D01*
X74152426Y-88437770D01*
X74169221Y-88505591D01*
X74146684Y-88571725D01*
X74101630Y-88610765D01*
X74008644Y-88658143D01*
X73964077Y-88690523D01*
X73964077Y-88690524D01*
X74643554Y-89370000D01*
X74637339Y-89370000D01*
X74535606Y-89397259D01*
X74444394Y-89449920D01*
X74369920Y-89524394D01*
X74317259Y-89615606D01*
X74290000Y-89717339D01*
X74290000Y-89723553D01*
X73610524Y-89044077D01*
X73610523Y-89044077D01*
X73578143Y-89088644D01*
X73485244Y-89270968D01*
X73422009Y-89465582D01*
X73390000Y-89667682D01*
X73390000Y-89872317D01*
X73422009Y-90074417D01*
X73485244Y-90269031D01*
X73578141Y-90451350D01*
X73578147Y-90451359D01*
X73610523Y-90495921D01*
X73610524Y-90495922D01*
X74290000Y-89816446D01*
X74290000Y-89822661D01*
X74317259Y-89924394D01*
X74369920Y-90015606D01*
X74444394Y-90090080D01*
X74535606Y-90142741D01*
X74637339Y-90170000D01*
X74643553Y-90170000D01*
X73964076Y-90849474D01*
X74008652Y-90881861D01*
X74101628Y-90929234D01*
X74152425Y-90977208D01*
X74169220Y-91045029D01*
X74146683Y-91111164D01*
X74101630Y-91150203D01*
X74008388Y-91197713D01*
X73842786Y-91318028D01*
X73698028Y-91462786D01*
X73577715Y-91628386D01*
X73484781Y-91810776D01*
X73421522Y-92005465D01*
X73389500Y-92207648D01*
X73389500Y-92412351D01*
X73421522Y-92614534D01*
X73484781Y-92809223D01*
X73545133Y-92927669D01*
X73577713Y-92991610D01*
X73665819Y-93112877D01*
X73689298Y-93178681D01*
X73689500Y-93185761D01*
X73689500Y-93888544D01*
X73727947Y-94081828D01*
X73727950Y-94081840D01*
X73743152Y-94118540D01*
X73743153Y-94118542D01*
X73803364Y-94263907D01*
X73803371Y-94263920D01*
X73912859Y-94427780D01*
X73912860Y-94427781D01*
X73912861Y-94427782D01*
X74052218Y-94567139D01*
X74052219Y-94567139D01*
X74059286Y-94574206D01*
X74059285Y-94574206D01*
X74059289Y-94574209D01*
X74673281Y-95188201D01*
X74706766Y-95249524D01*
X74708073Y-95256483D01*
X74731523Y-95404535D01*
X74794781Y-95599223D01*
X74858691Y-95724653D01*
X74887585Y-95781359D01*
X74887715Y-95781613D01*
X75008028Y-95947213D01*
X75152786Y-96091971D01*
X75273226Y-96179474D01*
X75318390Y-96212287D01*
X75434607Y-96271503D01*
X75500776Y-96305218D01*
X75500778Y-96305218D01*
X75500781Y-96305220D01*
X75605137Y-96339127D01*
X75695465Y-96368477D01*
X75796557Y-96384488D01*
X75897648Y-96400500D01*
X75897649Y-96400500D01*
X76102351Y-96400500D01*
X76102352Y-96400500D01*
X76304534Y-96368477D01*
X76499219Y-96305220D01*
X76681610Y-96212287D01*
X76774590Y-96144732D01*
X76847213Y-96091971D01*
X76847215Y-96091968D01*
X76847219Y-96091966D01*
X76991966Y-95947219D01*
X76991968Y-95947215D01*
X76991971Y-95947213D01*
X77044732Y-95874590D01*
X77112287Y-95781610D01*
X77205220Y-95599219D01*
X77268477Y-95404534D01*
X77300500Y-95202352D01*
X77300500Y-94997682D01*
X79700000Y-94997682D01*
X79700000Y-95202317D01*
X79732009Y-95404417D01*
X79795244Y-95599031D01*
X79888141Y-95781350D01*
X79888147Y-95781359D01*
X79920523Y-95825921D01*
X79920524Y-95825922D01*
X80600000Y-95146446D01*
X80600000Y-95152661D01*
X80627259Y-95254394D01*
X80679920Y-95345606D01*
X80754394Y-95420080D01*
X80845606Y-95472741D01*
X80947339Y-95500000D01*
X80953553Y-95500000D01*
X80274076Y-96179474D01*
X80318650Y-96211859D01*
X80500968Y-96304755D01*
X80695582Y-96367990D01*
X80897683Y-96400000D01*
X81102317Y-96400000D01*
X81304417Y-96367990D01*
X81499031Y-96304755D01*
X81681349Y-96211859D01*
X81725921Y-96179474D01*
X81046447Y-95500000D01*
X81052661Y-95500000D01*
X81154394Y-95472741D01*
X81245606Y-95420080D01*
X81320080Y-95345606D01*
X81372741Y-95254394D01*
X81400000Y-95152661D01*
X81400000Y-95146447D01*
X82079474Y-95825921D01*
X82111859Y-95781349D01*
X82204755Y-95599031D01*
X82267990Y-95404417D01*
X82300000Y-95202317D01*
X82300000Y-94997682D01*
X82267990Y-94795582D01*
X82204755Y-94600968D01*
X82111859Y-94418650D01*
X82079474Y-94374077D01*
X82079474Y-94374076D01*
X81400000Y-95053551D01*
X81400000Y-95047339D01*
X81372741Y-94945606D01*
X81320080Y-94854394D01*
X81245606Y-94779920D01*
X81154394Y-94727259D01*
X81052661Y-94700000D01*
X81046446Y-94700000D01*
X81725922Y-94020524D01*
X81725921Y-94020523D01*
X81681359Y-93988147D01*
X81681350Y-93988141D01*
X81499031Y-93895244D01*
X81304417Y-93832009D01*
X81102317Y-93800000D01*
X80897683Y-93800000D01*
X80695582Y-93832009D01*
X80500968Y-93895244D01*
X80318644Y-93988143D01*
X80274077Y-94020523D01*
X80274077Y-94020524D01*
X80953554Y-94700000D01*
X80947339Y-94700000D01*
X80845606Y-94727259D01*
X80754394Y-94779920D01*
X80679920Y-94854394D01*
X80627259Y-94945606D01*
X80600000Y-95047339D01*
X80600000Y-95053553D01*
X79920524Y-94374077D01*
X79920523Y-94374077D01*
X79888143Y-94418644D01*
X79795244Y-94600968D01*
X79732009Y-94795582D01*
X79700000Y-94997682D01*
X77300500Y-94997682D01*
X77300500Y-94997648D01*
X77287863Y-94917864D01*
X77268477Y-94795465D01*
X77237458Y-94700000D01*
X77205220Y-94600781D01*
X77205218Y-94600778D01*
X77205218Y-94600776D01*
X77112419Y-94418650D01*
X77112287Y-94418390D01*
X77080092Y-94374077D01*
X76991971Y-94252786D01*
X76847213Y-94108028D01*
X76681613Y-93987715D01*
X76681612Y-93987714D01*
X76681610Y-93987713D01*
X76624653Y-93958691D01*
X76499223Y-93894781D01*
X76304535Y-93831523D01*
X76156483Y-93808073D01*
X76093349Y-93778143D01*
X76088201Y-93773281D01*
X75837102Y-93522181D01*
X75803617Y-93460858D01*
X75808601Y-93391166D01*
X75850473Y-93335233D01*
X75915937Y-93310816D01*
X75924783Y-93310500D01*
X77888542Y-93310500D01*
X77901916Y-93307839D01*
X77985188Y-93291275D01*
X78081836Y-93272051D01*
X78179046Y-93231785D01*
X78263914Y-93196632D01*
X78427782Y-93087139D01*
X78567139Y-92947782D01*
X78567140Y-92947779D01*
X78574206Y-92940714D01*
X78574209Y-92940710D01*
X79837778Y-91677141D01*
X79837782Y-91677139D01*
X79977139Y-91537782D01*
X80086632Y-91373914D01*
X80149994Y-91220943D01*
X80162051Y-91191836D01*
X80200500Y-90998540D01*
X80200500Y-90801460D01*
X80200500Y-82754008D01*
X80220185Y-82686969D01*
X80272989Y-82641214D01*
X80342147Y-82631270D01*
X80380795Y-82643523D01*
X80500968Y-82704755D01*
X80695582Y-82767990D01*
X80897683Y-82800000D01*
X81102317Y-82800000D01*
X81304417Y-82767990D01*
X81499031Y-82704755D01*
X81681349Y-82611859D01*
X81725921Y-82579474D01*
X81046447Y-81900000D01*
X81052661Y-81900000D01*
X81154394Y-81872741D01*
X81245606Y-81820080D01*
X81320080Y-81745606D01*
X81372741Y-81654394D01*
X81400000Y-81552661D01*
X81400000Y-81546447D01*
X82079474Y-82225921D01*
X82111859Y-82181349D01*
X82204755Y-81999031D01*
X82267990Y-81804417D01*
X82300000Y-81602317D01*
X82300000Y-81397682D01*
X82267990Y-81195582D01*
X82204755Y-81000968D01*
X82111859Y-80818650D01*
X82079474Y-80774077D01*
X82079474Y-80774076D01*
X81400000Y-81453551D01*
X81400000Y-81447339D01*
X81372741Y-81345606D01*
X81320080Y-81254394D01*
X81245606Y-81179920D01*
X81154394Y-81127259D01*
X81052661Y-81100000D01*
X81046446Y-81100000D01*
X81725922Y-80420524D01*
X81725921Y-80420523D01*
X81681359Y-80388147D01*
X81681350Y-80388141D01*
X81499031Y-80295244D01*
X81304417Y-80232009D01*
X81102317Y-80200000D01*
X80897683Y-80200000D01*
X80695582Y-80232009D01*
X80500965Y-80295245D01*
X80380794Y-80356476D01*
X80312125Y-80369372D01*
X80247385Y-80343095D01*
X80207128Y-80285989D01*
X80200500Y-80245991D01*
X80200500Y-79765781D01*
X80220185Y-79698742D01*
X80236815Y-79678104D01*
X81088203Y-78826715D01*
X81149524Y-78793232D01*
X81156473Y-78791927D01*
X81304534Y-78768477D01*
X81499219Y-78705220D01*
X81681610Y-78612287D01*
X81805026Y-78522621D01*
X81847213Y-78491971D01*
X81847215Y-78491968D01*
X81847219Y-78491966D01*
X81991966Y-78347219D01*
X81991968Y-78347215D01*
X81991971Y-78347213D01*
X82054182Y-78261585D01*
X82112287Y-78181610D01*
X82205220Y-77999219D01*
X82268477Y-77804534D01*
X82300500Y-77602352D01*
X82300500Y-77397648D01*
X82286795Y-77311117D01*
X82268477Y-77195465D01*
X82209769Y-77014782D01*
X82205220Y-77000781D01*
X82205218Y-77000778D01*
X82205218Y-77000776D01*
X82154882Y-76901988D01*
X82112287Y-76818390D01*
X82080092Y-76774077D01*
X81991971Y-76652786D01*
X81847213Y-76508028D01*
X81681613Y-76387715D01*
X81681612Y-76387714D01*
X81681610Y-76387713D01*
X81600305Y-76346286D01*
X81499223Y-76294781D01*
X81304535Y-76231523D01*
X81156483Y-76208073D01*
X81093349Y-76178143D01*
X81088201Y-76173281D01*
X80236819Y-75321898D01*
X80203334Y-75260575D01*
X80200500Y-75234217D01*
X80200500Y-70280781D01*
X80220185Y-70213742D01*
X80236815Y-70193104D01*
X80858925Y-69570993D01*
X80920246Y-69537510D01*
X80989937Y-69542494D01*
G37*
%TD.AperFunction*%
%TA.AperFunction,Conductor*%
G36*
X78118834Y-80898599D02*
G01*
X78174767Y-80940471D01*
X78199184Y-81005935D01*
X78199500Y-81014781D01*
X78199500Y-90434218D01*
X78179815Y-90501257D01*
X78163181Y-90521899D01*
X77411899Y-91273181D01*
X77350576Y-91306666D01*
X77324218Y-91309500D01*
X75565762Y-91309500D01*
X75498723Y-91289815D01*
X75492877Y-91285818D01*
X75371611Y-91197713D01*
X75278369Y-91150203D01*
X75227574Y-91102229D01*
X75210779Y-91034407D01*
X75233317Y-90968273D01*
X75278371Y-90929234D01*
X75371346Y-90881861D01*
X75371347Y-90881861D01*
X75415921Y-90849474D01*
X74736447Y-90170000D01*
X74742661Y-90170000D01*
X74844394Y-90142741D01*
X74935606Y-90090080D01*
X75010080Y-90015606D01*
X75062741Y-89924394D01*
X75090000Y-89822661D01*
X75090000Y-89816447D01*
X75769474Y-90495921D01*
X75801859Y-90451349D01*
X75894755Y-90269031D01*
X75957990Y-90074417D01*
X75990000Y-89872317D01*
X75990000Y-89667682D01*
X75957990Y-89465582D01*
X75894755Y-89270968D01*
X75801859Y-89088650D01*
X75769474Y-89044077D01*
X75769474Y-89044076D01*
X75090000Y-89723551D01*
X75090000Y-89717339D01*
X75062741Y-89615606D01*
X75010080Y-89524394D01*
X74935606Y-89449920D01*
X74844394Y-89397259D01*
X74742661Y-89370000D01*
X74736446Y-89370000D01*
X75415922Y-88690524D01*
X75415921Y-88690523D01*
X75371359Y-88658147D01*
X75371350Y-88658141D01*
X75278369Y-88610765D01*
X75227573Y-88562790D01*
X75210778Y-88494969D01*
X75233315Y-88428835D01*
X75278370Y-88389795D01*
X75278920Y-88389515D01*
X75371610Y-88342287D01*
X75421144Y-88306298D01*
X75537213Y-88221971D01*
X75537215Y-88221968D01*
X75537219Y-88221966D01*
X75681966Y-88077219D01*
X75681968Y-88077215D01*
X75681971Y-88077213D01*
X75747558Y-87986938D01*
X75802287Y-87911610D01*
X75895220Y-87729219D01*
X75958477Y-87534534D01*
X75990500Y-87332352D01*
X75990500Y-87127648D01*
X75958477Y-86925466D01*
X75956994Y-86920903D01*
X75895218Y-86730776D01*
X75861503Y-86664607D01*
X75802287Y-86548390D01*
X75758305Y-86487853D01*
X75681971Y-86382786D01*
X75537219Y-86238034D01*
X75532984Y-86234957D01*
X75443547Y-86169978D01*
X75400882Y-86114649D01*
X75394903Y-86045036D01*
X75427508Y-85983240D01*
X75477426Y-85951955D01*
X75559334Y-85924814D01*
X75708656Y-85832712D01*
X75832712Y-85708656D01*
X75924814Y-85559334D01*
X75979999Y-85392797D01*
X75990500Y-85290009D01*
X75990499Y-84089992D01*
X75990053Y-84085630D01*
X75979999Y-83987203D01*
X75979998Y-83987200D01*
X75964776Y-83941264D01*
X75924814Y-83820666D01*
X75832712Y-83671344D01*
X75708656Y-83547288D01*
X75559334Y-83455186D01*
X75392797Y-83400001D01*
X75392795Y-83400000D01*
X75290016Y-83389500D01*
X75290009Y-83389500D01*
X74624781Y-83389500D01*
X74557742Y-83369815D01*
X74511987Y-83317011D01*
X74502043Y-83247853D01*
X74531068Y-83184297D01*
X74537100Y-83177819D01*
X74734711Y-82980208D01*
X75118540Y-82596379D01*
X75179861Y-82562896D01*
X75249553Y-82567880D01*
X75279102Y-82583743D01*
X75295026Y-82595312D01*
X75318388Y-82612286D01*
X75500776Y-82705218D01*
X75500778Y-82705218D01*
X75500781Y-82705220D01*
X75605137Y-82739127D01*
X75695465Y-82768477D01*
X75796557Y-82784488D01*
X75897648Y-82800500D01*
X75897649Y-82800500D01*
X76102351Y-82800500D01*
X76102352Y-82800500D01*
X76304534Y-82768477D01*
X76499219Y-82705220D01*
X76681610Y-82612287D01*
X76798323Y-82527491D01*
X76847213Y-82491971D01*
X76847215Y-82491968D01*
X76847219Y-82491966D01*
X76991966Y-82347219D01*
X76991968Y-82347215D01*
X76991971Y-82347213D01*
X77048203Y-82269815D01*
X77112287Y-82181610D01*
X77205220Y-81999219D01*
X77268477Y-81804534D01*
X77291925Y-81656483D01*
X77321854Y-81593350D01*
X77326699Y-81588219D01*
X77987820Y-80927099D01*
X78049142Y-80893615D01*
X78118834Y-80898599D01*
G37*
%TD.AperFunction*%
%TA.AperFunction,Conductor*%
G36*
X62292227Y-72525389D02*
G01*
X62304808Y-72524850D01*
X62324673Y-72536445D01*
X62346445Y-72543865D01*
X62355719Y-72554568D01*
X62365150Y-72560073D01*
X62385483Y-72588916D01*
X62407544Y-72632213D01*
X62432715Y-72681614D01*
X62553028Y-72847213D01*
X62697786Y-72991971D01*
X62829532Y-73087688D01*
X62863390Y-73112287D01*
X62967797Y-73165485D01*
X63045776Y-73205218D01*
X63045778Y-73205218D01*
X63045781Y-73205220D01*
X63111410Y-73226544D01*
X63240465Y-73268477D01*
X63269843Y-73273130D01*
X63442648Y-73300500D01*
X63442649Y-73300500D01*
X63647351Y-73300500D01*
X63647352Y-73300500D01*
X63849534Y-73268477D01*
X64044219Y-73205220D01*
X64044224Y-73205217D01*
X64044228Y-73205216D01*
X64219205Y-73116060D01*
X64287874Y-73103163D01*
X64352614Y-73129439D01*
X64392872Y-73186545D01*
X64399500Y-73226544D01*
X64399500Y-74024015D01*
X64379815Y-74091054D01*
X64327011Y-74136809D01*
X64257853Y-74146753D01*
X64219205Y-74134500D01*
X64044031Y-74045244D01*
X63849417Y-73982009D01*
X63647317Y-73950000D01*
X63442683Y-73950000D01*
X63240582Y-73982009D01*
X63045968Y-74045244D01*
X62863644Y-74138143D01*
X62819077Y-74170523D01*
X62819077Y-74170524D01*
X63498553Y-74850000D01*
X63492339Y-74850000D01*
X63390606Y-74877259D01*
X63299394Y-74929920D01*
X63224920Y-75004394D01*
X63172259Y-75095606D01*
X63145000Y-75197339D01*
X63145000Y-75203553D01*
X62465524Y-74524077D01*
X62465523Y-74524077D01*
X62433143Y-74568644D01*
X62385765Y-74661630D01*
X62337790Y-74712426D01*
X62269969Y-74729221D01*
X62203834Y-74706683D01*
X62164795Y-74661630D01*
X62117284Y-74568385D01*
X61996971Y-74402786D01*
X61852213Y-74258028D01*
X61686613Y-74137715D01*
X61686612Y-74137714D01*
X61686610Y-74137713D01*
X61595037Y-74091054D01*
X61504223Y-74044781D01*
X61309534Y-73981522D01*
X61134995Y-73953878D01*
X61107352Y-73949500D01*
X60902648Y-73949500D01*
X60878329Y-73953351D01*
X60700465Y-73981522D01*
X60505776Y-74044781D01*
X60323386Y-74137715D01*
X60157786Y-74258028D01*
X60013028Y-74402786D01*
X59892715Y-74568386D01*
X59799781Y-74750776D01*
X59736522Y-74945465D01*
X59704500Y-75147648D01*
X59704500Y-75352351D01*
X59736522Y-75554534D01*
X59799781Y-75749223D01*
X59863117Y-75873525D01*
X59892585Y-75931359D01*
X59892715Y-75931613D01*
X60013028Y-76097213D01*
X60013034Y-76097219D01*
X60157781Y-76241966D01*
X60323390Y-76362287D01*
X60336793Y-76369116D01*
X60387589Y-76417088D01*
X60404500Y-76479601D01*
X60404500Y-79218330D01*
X60404499Y-79218348D01*
X60404499Y-79384054D01*
X60404498Y-79384054D01*
X60425844Y-79463716D01*
X60445423Y-79536785D01*
X60457175Y-79557139D01*
X60497021Y-79626155D01*
X60524479Y-79673715D01*
X60643349Y-79792585D01*
X60643355Y-79792590D01*
X61446231Y-80595466D01*
X61479716Y-80656789D01*
X61481023Y-80702544D01*
X61449500Y-80901576D01*
X61449500Y-81098422D01*
X61481023Y-81297453D01*
X61472068Y-81366747D01*
X61446231Y-81404532D01*
X59539491Y-83311272D01*
X59539484Y-83311279D01*
X59536286Y-83314478D01*
X59536284Y-83314480D01*
X59424480Y-83426284D01*
X59398697Y-83470942D01*
X59392831Y-83481101D01*
X59392831Y-83481102D01*
X59390708Y-83484780D01*
X59345423Y-83563215D01*
X59304499Y-83715943D01*
X59304499Y-83715945D01*
X59304499Y-83884046D01*
X59304500Y-83884059D01*
X59304500Y-86876574D01*
X59304499Y-86876578D01*
X59304499Y-86920903D01*
X59284813Y-86987942D01*
X59266594Y-87003728D01*
X59232010Y-87033695D01*
X59232008Y-87033695D01*
X59232008Y-87033696D01*
X59182738Y-87040779D01*
X59162852Y-87043639D01*
X59162851Y-87043638D01*
X59162850Y-87043639D01*
X59133825Y-87030382D01*
X59099296Y-87014614D01*
X59092818Y-87008583D01*
X59072177Y-86987942D01*
X58968755Y-86884520D01*
X58935272Y-86823200D01*
X58938507Y-86758523D01*
X58952246Y-86716243D01*
X58985500Y-86506287D01*
X58985500Y-86293713D01*
X58952246Y-86083757D01*
X58886557Y-85881588D01*
X58790051Y-85692184D01*
X58790049Y-85692181D01*
X58790048Y-85692179D01*
X58665109Y-85520213D01*
X58514786Y-85369890D01*
X58342820Y-85244951D01*
X58342115Y-85244591D01*
X58334054Y-85240485D01*
X58283259Y-85192512D01*
X58266463Y-85124692D01*
X58288999Y-85058556D01*
X58334054Y-85019515D01*
X58342816Y-85015051D01*
X58371055Y-84994534D01*
X58514786Y-84890109D01*
X58514788Y-84890106D01*
X58514792Y-84890104D01*
X58665104Y-84739792D01*
X58665106Y-84739788D01*
X58665109Y-84739786D01*
X58790048Y-84567820D01*
X58790047Y-84567820D01*
X58790051Y-84567816D01*
X58886557Y-84378412D01*
X58952246Y-84176243D01*
X58985500Y-83966287D01*
X58985500Y-83753713D01*
X58952246Y-83543757D01*
X58886557Y-83341588D01*
X58790051Y-83152184D01*
X58790049Y-83152181D01*
X58790048Y-83152179D01*
X58665109Y-82980213D01*
X58514786Y-82829890D01*
X58342820Y-82704951D01*
X58342115Y-82704591D01*
X58334054Y-82700485D01*
X58283259Y-82652512D01*
X58266463Y-82584692D01*
X58288999Y-82518556D01*
X58334054Y-82479515D01*
X58342816Y-82475051D01*
X58469999Y-82382648D01*
X58514786Y-82350109D01*
X58514788Y-82350106D01*
X58514792Y-82350104D01*
X58665104Y-82199792D01*
X58665106Y-82199788D01*
X58665109Y-82199786D01*
X58790048Y-82027820D01*
X58790047Y-82027820D01*
X58790051Y-82027816D01*
X58886557Y-81838412D01*
X58952246Y-81636243D01*
X58985500Y-81426287D01*
X58985500Y-81213713D01*
X58952246Y-81003757D01*
X58886557Y-80801588D01*
X58790051Y-80612184D01*
X58790049Y-80612181D01*
X58790048Y-80612179D01*
X58665109Y-80440213D01*
X58514786Y-80289890D01*
X58342820Y-80164951D01*
X58342115Y-80164591D01*
X58334054Y-80160485D01*
X58283259Y-80112512D01*
X58266463Y-80044692D01*
X58288999Y-79978556D01*
X58334054Y-79939515D01*
X58342816Y-79935051D01*
X58417290Y-79880943D01*
X58514786Y-79810109D01*
X58514788Y-79810106D01*
X58514792Y-79810104D01*
X58665104Y-79659792D01*
X58665106Y-79659788D01*
X58665109Y-79659786D01*
X58781085Y-79500157D01*
X58790051Y-79487816D01*
X58886557Y-79298412D01*
X58952246Y-79096243D01*
X58985500Y-78886287D01*
X58985500Y-78673713D01*
X58952246Y-78463757D01*
X58886557Y-78261588D01*
X58790051Y-78072184D01*
X58790049Y-78072181D01*
X58790048Y-78072179D01*
X58665109Y-77900213D01*
X58514786Y-77749890D01*
X58342820Y-77624951D01*
X58342115Y-77624591D01*
X58334054Y-77620485D01*
X58283259Y-77572512D01*
X58266463Y-77504692D01*
X58288999Y-77438556D01*
X58334054Y-77399515D01*
X58342816Y-77395051D01*
X58382035Y-77366557D01*
X58514786Y-77270109D01*
X58514788Y-77270106D01*
X58514792Y-77270104D01*
X58665104Y-77119792D01*
X58665106Y-77119788D01*
X58665109Y-77119786D01*
X58790048Y-76947820D01*
X58790047Y-76947820D01*
X58790051Y-76947816D01*
X58886557Y-76758412D01*
X58952246Y-76556243D01*
X58985500Y-76346287D01*
X58985500Y-76133713D01*
X58952246Y-75923757D01*
X58886557Y-75721588D01*
X58790051Y-75532184D01*
X58790049Y-75532181D01*
X58790048Y-75532179D01*
X58665109Y-75360213D01*
X58514786Y-75209890D01*
X58342820Y-75084951D01*
X58153414Y-74988444D01*
X58153413Y-74988443D01*
X58153412Y-74988443D01*
X57951243Y-74922754D01*
X57951241Y-74922753D01*
X57951240Y-74922753D01*
X57789957Y-74897208D01*
X57741287Y-74889500D01*
X57528713Y-74889500D01*
X57480042Y-74897208D01*
X57318760Y-74922753D01*
X57116585Y-74988444D01*
X56927179Y-75084951D01*
X56755213Y-75209890D01*
X56604890Y-75360213D01*
X56479951Y-75532179D01*
X56383444Y-75721585D01*
X56383443Y-75721587D01*
X56383443Y-75721588D01*
X56345499Y-75838369D01*
X56342431Y-75847810D01*
X56302993Y-75905486D01*
X56238635Y-75932684D01*
X56169788Y-75920769D01*
X56118313Y-75873525D01*
X56100500Y-75809492D01*
X56100500Y-75100097D01*
X56120185Y-75033058D01*
X56136819Y-75012416D01*
X58512416Y-72636819D01*
X58573739Y-72603334D01*
X58600097Y-72600500D01*
X59775398Y-72600500D01*
X59842437Y-72620185D01*
X59885883Y-72668205D01*
X59892715Y-72681614D01*
X60013028Y-72847213D01*
X60157786Y-72991971D01*
X60289532Y-73087688D01*
X60323390Y-73112287D01*
X60427797Y-73165485D01*
X60505776Y-73205218D01*
X60505778Y-73205218D01*
X60505781Y-73205220D01*
X60571410Y-73226544D01*
X60700465Y-73268477D01*
X60729843Y-73273130D01*
X60902648Y-73300500D01*
X60902649Y-73300500D01*
X61107351Y-73300500D01*
X61107352Y-73300500D01*
X61309534Y-73268477D01*
X61504219Y-73205220D01*
X61686610Y-73112287D01*
X61794299Y-73034047D01*
X61852213Y-72991971D01*
X61852215Y-72991968D01*
X61852219Y-72991966D01*
X61996966Y-72847219D01*
X61996968Y-72847215D01*
X61996971Y-72847213D01*
X62117284Y-72681614D01*
X62117285Y-72681613D01*
X62117287Y-72681610D01*
X62164516Y-72588917D01*
X62173161Y-72579764D01*
X62177896Y-72568099D01*
X62196693Y-72554847D01*
X62212489Y-72538123D01*
X62224711Y-72535096D01*
X62235002Y-72527842D01*
X62257982Y-72526856D01*
X62280310Y-72521328D01*
X62292227Y-72525389D01*
G37*
%TD.AperFunction*%
%TA.AperFunction,Conductor*%
G36*
X98942539Y-53020185D02*
G01*
X98988294Y-53072989D01*
X98999500Y-53124500D01*
X98999500Y-73855903D01*
X98979815Y-73922942D01*
X98927011Y-73968697D01*
X98857853Y-73978641D01*
X98794297Y-73949616D01*
X98787819Y-73943584D01*
X97289077Y-72444842D01*
X97255592Y-72383519D01*
X97258828Y-72318841D01*
X97263477Y-72304534D01*
X97295500Y-72102352D01*
X97295500Y-71897648D01*
X97263477Y-71695466D01*
X97200220Y-71500781D01*
X97200218Y-71500777D01*
X97200218Y-71500776D01*
X97154515Y-71411080D01*
X97107287Y-71318390D01*
X97097629Y-71305097D01*
X96986971Y-71152786D01*
X96842213Y-71008028D01*
X96676613Y-70887715D01*
X96676612Y-70887714D01*
X96676610Y-70887713D01*
X96619653Y-70858691D01*
X96494223Y-70794781D01*
X96299534Y-70731522D01*
X96124995Y-70703878D01*
X96097352Y-70699500D01*
X95892648Y-70699500D01*
X95838704Y-70708044D01*
X95690464Y-70731523D01*
X95690457Y-70731524D01*
X95657817Y-70742130D01*
X95587976Y-70744125D01*
X95528143Y-70708044D01*
X95497316Y-70645343D01*
X95495500Y-70624199D01*
X95495500Y-70150097D01*
X95504144Y-70120656D01*
X95510668Y-70090670D01*
X95514422Y-70085654D01*
X95515185Y-70083058D01*
X95531819Y-70062416D01*
X95550158Y-70044077D01*
X95611481Y-70010592D01*
X95676157Y-70013827D01*
X95690466Y-70018477D01*
X95892648Y-70050500D01*
X95892649Y-70050500D01*
X96097351Y-70050500D01*
X96097352Y-70050500D01*
X96299534Y-70018477D01*
X96494219Y-69955220D01*
X96676610Y-69862287D01*
X96769590Y-69794732D01*
X96842213Y-69741971D01*
X96842215Y-69741968D01*
X96842219Y-69741966D01*
X96986966Y-69597219D01*
X96986968Y-69597215D01*
X96986971Y-69597213D01*
X97071197Y-69481284D01*
X97107287Y-69431610D01*
X97200220Y-69249219D01*
X97263477Y-69054534D01*
X97295500Y-68852352D01*
X97295500Y-68647648D01*
X97282154Y-68563386D01*
X97263477Y-68445465D01*
X97200950Y-68253028D01*
X97200220Y-68250781D01*
X97200218Y-68250777D01*
X97200218Y-68250776D01*
X97154794Y-68161628D01*
X97107287Y-68068390D01*
X97075092Y-68024077D01*
X96986971Y-67902786D01*
X96842213Y-67758028D01*
X96676610Y-67637712D01*
X96663200Y-67630879D01*
X96612406Y-67582903D01*
X96595500Y-67520397D01*
X96595500Y-66729601D01*
X96615185Y-66662562D01*
X96663206Y-66619116D01*
X96676610Y-66612287D01*
X96842219Y-66491966D01*
X96986966Y-66347219D01*
X96986968Y-66347215D01*
X96986971Y-66347213D01*
X97075093Y-66225921D01*
X97107287Y-66181610D01*
X97200220Y-65999219D01*
X97263477Y-65804534D01*
X97295500Y-65602352D01*
X97295500Y-65397648D01*
X97276369Y-65276861D01*
X97263477Y-65195465D01*
X97226093Y-65080411D01*
X97200220Y-65000781D01*
X97200218Y-65000778D01*
X97200218Y-65000776D01*
X97143774Y-64890000D01*
X97107287Y-64818390D01*
X97075092Y-64774077D01*
X96986971Y-64652786D01*
X96842213Y-64508028D01*
X96676613Y-64387715D01*
X96676612Y-64387714D01*
X96676610Y-64387713D01*
X96619653Y-64358691D01*
X96494223Y-64294781D01*
X96299534Y-64231522D01*
X96124995Y-64203878D01*
X96097352Y-64199500D01*
X95892648Y-64199500D01*
X95868329Y-64203351D01*
X95690465Y-64231522D01*
X95495776Y-64294781D01*
X95313386Y-64387715D01*
X95147786Y-64508028D01*
X95003028Y-64652786D01*
X94882715Y-64818386D01*
X94835485Y-64911080D01*
X94787510Y-64961876D01*
X94719689Y-64978671D01*
X94653554Y-64956134D01*
X94614515Y-64911080D01*
X94603774Y-64890000D01*
X94567287Y-64818390D01*
X94535092Y-64774077D01*
X94446971Y-64652786D01*
X94302213Y-64508028D01*
X94136610Y-64387712D01*
X94123200Y-64380879D01*
X94072406Y-64332903D01*
X94055500Y-64270397D01*
X94055500Y-61857025D01*
X94075185Y-61789986D01*
X94127989Y-61744231D01*
X94197147Y-61734287D01*
X94235238Y-61748104D01*
X94235978Y-61746653D01*
X94240318Y-61748864D01*
X94240319Y-61748865D01*
X94321023Y-61789986D01*
X94411493Y-61836083D01*
X94475947Y-61857025D01*
X94594199Y-61895447D01*
X94783945Y-61925500D01*
X94783946Y-61925500D01*
X94976054Y-61925500D01*
X94976055Y-61925500D01*
X95165801Y-61895447D01*
X95348509Y-61836082D01*
X95519681Y-61748865D01*
X95675102Y-61635945D01*
X95810945Y-61500102D01*
X95923865Y-61344681D01*
X96011082Y-61173509D01*
X96070447Y-60990801D01*
X96100500Y-60801055D01*
X96100500Y-60608945D01*
X96070447Y-60419199D01*
X96036173Y-60313715D01*
X96011083Y-60236493D01*
X95951835Y-60120213D01*
X95923865Y-60065319D01*
X95904181Y-60038227D01*
X95880702Y-59972422D01*
X95880500Y-59965342D01*
X95880500Y-56044657D01*
X95900185Y-55977618D01*
X95904182Y-55971772D01*
X95904688Y-55971076D01*
X95923865Y-55944681D01*
X96011082Y-55773509D01*
X96070447Y-55590801D01*
X96100500Y-55401055D01*
X96100500Y-55208945D01*
X96070447Y-55019199D01*
X96032621Y-54902781D01*
X96011083Y-54836493D01*
X95990065Y-54795244D01*
X95923865Y-54665319D01*
X95810945Y-54509898D01*
X95675102Y-54374055D01*
X95519681Y-54261135D01*
X95348506Y-54173916D01*
X95165802Y-54114553D01*
X95070928Y-54099526D01*
X94976055Y-54084500D01*
X94783945Y-54084500D01*
X94720696Y-54094517D01*
X94594197Y-54114553D01*
X94411493Y-54173916D01*
X94240318Y-54261135D01*
X94151645Y-54325560D01*
X94084898Y-54374055D01*
X94084896Y-54374057D01*
X94084895Y-54374057D01*
X93949057Y-54509895D01*
X93949057Y-54509896D01*
X93949055Y-54509898D01*
X93923712Y-54544780D01*
X93836135Y-54665318D01*
X93748916Y-54836493D01*
X93727931Y-54901081D01*
X93688494Y-54958756D01*
X93624135Y-54985955D01*
X93555289Y-54974041D01*
X93503813Y-54926797D01*
X93492069Y-54901081D01*
X93471083Y-54836493D01*
X93450065Y-54795244D01*
X93383865Y-54665319D01*
X93270945Y-54509898D01*
X93135102Y-54374055D01*
X92979681Y-54261135D01*
X92808506Y-54173916D01*
X92625802Y-54114553D01*
X92530928Y-54099526D01*
X92436055Y-54084500D01*
X92243945Y-54084500D01*
X92180696Y-54094517D01*
X92054197Y-54114553D01*
X91871493Y-54173916D01*
X91700318Y-54261135D01*
X91611645Y-54325560D01*
X91544898Y-54374055D01*
X91544896Y-54374057D01*
X91544895Y-54374057D01*
X91409057Y-54509895D01*
X91409057Y-54509896D01*
X91409055Y-54509898D01*
X91383712Y-54544780D01*
X91296135Y-54665318D01*
X91208916Y-54836493D01*
X91187931Y-54901081D01*
X91148494Y-54958756D01*
X91084135Y-54985955D01*
X91015289Y-54974041D01*
X90963813Y-54926797D01*
X90952069Y-54901081D01*
X90931083Y-54836493D01*
X90910065Y-54795244D01*
X90843865Y-54665319D01*
X90730945Y-54509898D01*
X90595102Y-54374055D01*
X90439681Y-54261135D01*
X90268506Y-54173916D01*
X90085802Y-54114553D01*
X89990928Y-54099526D01*
X89896055Y-54084500D01*
X89703945Y-54084500D01*
X89640696Y-54094517D01*
X89514197Y-54114553D01*
X89331493Y-54173916D01*
X89160318Y-54261135D01*
X89071645Y-54325560D01*
X89004898Y-54374055D01*
X89004896Y-54374057D01*
X89004895Y-54374057D01*
X88869057Y-54509895D01*
X88869057Y-54509896D01*
X88869055Y-54509898D01*
X88843712Y-54544780D01*
X88756135Y-54665318D01*
X88668916Y-54836493D01*
X88609553Y-55019197D01*
X88579500Y-55208945D01*
X88579500Y-55401054D01*
X88609553Y-55590802D01*
X88668916Y-55773506D01*
X88668918Y-55773509D01*
X88756135Y-55944681D01*
X88774419Y-55969846D01*
X88775818Y-55971772D01*
X88799298Y-56037578D01*
X88799500Y-56044657D01*
X88799500Y-59965342D01*
X88779815Y-60032381D01*
X88775818Y-60038228D01*
X88756135Y-60065318D01*
X88668916Y-60236493D01*
X88609553Y-60419197D01*
X88589505Y-60545776D01*
X88579500Y-60608945D01*
X88579500Y-60801055D01*
X88583896Y-60828811D01*
X88609553Y-60990802D01*
X88668916Y-61173506D01*
X88668918Y-61173509D01*
X88756135Y-61344681D01*
X88869055Y-61500102D01*
X89004898Y-61635945D01*
X89160319Y-61748865D01*
X89251894Y-61795525D01*
X89331493Y-61836083D01*
X89395947Y-61857025D01*
X89514199Y-61895447D01*
X89703945Y-61925500D01*
X89703946Y-61925500D01*
X89896054Y-61925500D01*
X89896055Y-61925500D01*
X90085801Y-61895447D01*
X90268509Y-61836082D01*
X90439681Y-61748865D01*
X90595102Y-61635945D01*
X90730945Y-61500102D01*
X90843865Y-61344681D01*
X90931082Y-61173509D01*
X90939581Y-61147352D01*
X90952069Y-61108919D01*
X90991506Y-61051243D01*
X91055864Y-61024044D01*
X91124711Y-61035958D01*
X91176187Y-61083202D01*
X91187931Y-61108919D01*
X91208915Y-61173504D01*
X91208918Y-61173509D01*
X91296135Y-61344681D01*
X91409055Y-61500102D01*
X91544898Y-61635945D01*
X91669688Y-61726610D01*
X91688386Y-61740195D01*
X91731051Y-61795525D01*
X91739500Y-61840513D01*
X91739500Y-62354902D01*
X91719815Y-62421941D01*
X91703181Y-62442583D01*
X89939842Y-64205921D01*
X89878519Y-64239406D01*
X89813848Y-64236173D01*
X89799534Y-64231522D01*
X89624995Y-64203878D01*
X89597352Y-64199500D01*
X89392648Y-64199500D01*
X89368329Y-64203351D01*
X89190465Y-64231522D01*
X88995776Y-64294781D01*
X88813386Y-64387715D01*
X88647786Y-64508028D01*
X88503028Y-64652786D01*
X88382715Y-64818386D01*
X88335485Y-64911080D01*
X88287510Y-64961876D01*
X88219689Y-64978671D01*
X88153554Y-64956134D01*
X88114515Y-64911080D01*
X88103774Y-64890000D01*
X88067287Y-64818390D01*
X88035092Y-64774077D01*
X87946971Y-64652786D01*
X87802213Y-64508028D01*
X87636613Y-64387715D01*
X87636612Y-64387714D01*
X87636610Y-64387713D01*
X87579653Y-64358691D01*
X87454223Y-64294781D01*
X87259534Y-64231522D01*
X87084995Y-64203878D01*
X87057352Y-64199500D01*
X86852648Y-64199500D01*
X86828329Y-64203351D01*
X86650465Y-64231522D01*
X86455776Y-64294781D01*
X86273386Y-64387715D01*
X86107786Y-64508028D01*
X85963028Y-64652786D01*
X85842715Y-64818386D01*
X85749781Y-65000776D01*
X85686522Y-65195465D01*
X85654500Y-65397648D01*
X85654500Y-65602351D01*
X85686522Y-65804534D01*
X85749781Y-65999223D01*
X85842715Y-66181613D01*
X85963028Y-66347213D01*
X86107786Y-66491971D01*
X86228226Y-66579474D01*
X86273390Y-66612287D01*
X86354499Y-66653614D01*
X86455776Y-66705218D01*
X86455778Y-66705218D01*
X86455781Y-66705220D01*
X86560137Y-66739127D01*
X86650465Y-66768477D01*
X86678555Y-66772926D01*
X86852648Y-66800500D01*
X86852649Y-66800500D01*
X87057351Y-66800500D01*
X87057352Y-66800500D01*
X87259534Y-66768477D01*
X87454219Y-66705220D01*
X87636610Y-66612287D01*
X87729590Y-66544732D01*
X87802213Y-66491971D01*
X87802215Y-66491968D01*
X87802219Y-66491966D01*
X87946966Y-66347219D01*
X87946968Y-66347215D01*
X87946971Y-66347213D01*
X88067284Y-66181614D01*
X88067285Y-66181613D01*
X88067287Y-66181610D01*
X88114516Y-66088917D01*
X88162489Y-66038123D01*
X88230310Y-66021328D01*
X88296445Y-66043865D01*
X88335485Y-66088919D01*
X88382715Y-66181614D01*
X88503028Y-66347213D01*
X88647786Y-66491971D01*
X88768226Y-66579474D01*
X88813390Y-66612287D01*
X88894499Y-66653614D01*
X88995776Y-66705218D01*
X88995778Y-66705218D01*
X88995781Y-66705220D01*
X89100137Y-66739127D01*
X89190465Y-66768477D01*
X89218555Y-66772926D01*
X89392648Y-66800500D01*
X89392649Y-66800500D01*
X89597351Y-66800500D01*
X89597352Y-66800500D01*
X89799534Y-66768477D01*
X89994219Y-66705220D01*
X90176610Y-66612287D01*
X90269590Y-66544732D01*
X90342213Y-66491971D01*
X90342215Y-66491968D01*
X90342219Y-66491966D01*
X90486966Y-66347219D01*
X90486968Y-66347215D01*
X90486971Y-66347213D01*
X90575093Y-66225921D01*
X90607287Y-66181610D01*
X90700220Y-65999219D01*
X90763477Y-65804534D01*
X90795500Y-65602352D01*
X90795500Y-65397648D01*
X90763477Y-65195466D01*
X90758825Y-65181151D01*
X90756832Y-65111312D01*
X90789075Y-65055158D01*
X92642820Y-63201415D01*
X92704142Y-63167931D01*
X92773834Y-63172915D01*
X92829767Y-63214787D01*
X92854184Y-63280251D01*
X92854500Y-63289097D01*
X92854500Y-64270397D01*
X92834815Y-64337436D01*
X92786800Y-64380879D01*
X92773389Y-64387712D01*
X92607786Y-64508028D01*
X92463028Y-64652786D01*
X92342715Y-64818386D01*
X92249781Y-65000776D01*
X92186522Y-65195465D01*
X92154500Y-65397648D01*
X92154500Y-65602351D01*
X92186522Y-65804534D01*
X92249781Y-65999223D01*
X92342715Y-66181613D01*
X92463028Y-66347213D01*
X92607786Y-66491971D01*
X92728226Y-66579474D01*
X92773390Y-66612287D01*
X92854499Y-66653614D01*
X92955776Y-66705218D01*
X92955778Y-66705218D01*
X92955781Y-66705220D01*
X93060137Y-66739127D01*
X93150465Y-66768477D01*
X93178555Y-66772926D01*
X93352648Y-66800500D01*
X93352649Y-66800500D01*
X93557351Y-66800500D01*
X93557352Y-66800500D01*
X93759534Y-66768477D01*
X93954219Y-66705220D01*
X94136610Y-66612287D01*
X94229590Y-66544732D01*
X94302213Y-66491971D01*
X94302215Y-66491968D01*
X94302219Y-66491966D01*
X94446966Y-66347219D01*
X94446968Y-66347215D01*
X94446971Y-66347213D01*
X94567284Y-66181614D01*
X94567285Y-66181613D01*
X94567287Y-66181610D01*
X94614516Y-66088917D01*
X94662489Y-66038123D01*
X94730310Y-66021328D01*
X94796445Y-66043865D01*
X94835485Y-66088919D01*
X94882715Y-66181614D01*
X95003028Y-66347213D01*
X95003034Y-66347219D01*
X95147781Y-66491966D01*
X95313390Y-66612287D01*
X95326793Y-66619116D01*
X95377589Y-66667088D01*
X95394500Y-66729601D01*
X95394500Y-67520397D01*
X95374815Y-67587436D01*
X95326800Y-67630879D01*
X95313389Y-67637712D01*
X95147786Y-67758028D01*
X95003028Y-67902786D01*
X94882713Y-68068388D01*
X94835203Y-68161630D01*
X94787228Y-68212426D01*
X94719407Y-68229220D01*
X94653272Y-68206682D01*
X94614234Y-68161628D01*
X94566861Y-68068652D01*
X94534474Y-68024077D01*
X94534474Y-68024076D01*
X93855000Y-68703553D01*
X93855000Y-68697339D01*
X93827741Y-68595606D01*
X93775080Y-68504394D01*
X93700606Y-68429920D01*
X93609394Y-68377259D01*
X93507661Y-68350000D01*
X93501446Y-68350000D01*
X94180922Y-67670524D01*
X94180921Y-67670523D01*
X94136359Y-67638147D01*
X94136350Y-67638141D01*
X93954031Y-67545244D01*
X93759417Y-67482009D01*
X93557317Y-67450000D01*
X93352683Y-67450000D01*
X93150582Y-67482009D01*
X92955968Y-67545244D01*
X92773644Y-67638143D01*
X92729077Y-67670523D01*
X92729077Y-67670524D01*
X93408554Y-68350000D01*
X93402339Y-68350000D01*
X93300606Y-68377259D01*
X93209394Y-68429920D01*
X93134920Y-68504394D01*
X93082259Y-68595606D01*
X93055000Y-68697339D01*
X93055000Y-68703553D01*
X92375524Y-68024077D01*
X92375523Y-68024077D01*
X92343143Y-68068644D01*
X92250244Y-68250968D01*
X92187009Y-68445582D01*
X92155000Y-68647682D01*
X92155000Y-68852317D01*
X92187009Y-69054417D01*
X92250244Y-69249031D01*
X92343141Y-69431350D01*
X92343147Y-69431359D01*
X92375523Y-69475921D01*
X92375524Y-69475922D01*
X93055000Y-68796446D01*
X93055000Y-68802661D01*
X93082259Y-68904394D01*
X93134920Y-68995606D01*
X93209394Y-69070080D01*
X93300606Y-69122741D01*
X93402339Y-69150000D01*
X93408553Y-69150000D01*
X92729076Y-69829474D01*
X92773650Y-69861859D01*
X92955968Y-69954755D01*
X93150582Y-70017990D01*
X93352683Y-70050000D01*
X93557317Y-70050000D01*
X93759417Y-70017990D01*
X93954031Y-69954755D01*
X94114205Y-69873142D01*
X94182874Y-69860246D01*
X94247615Y-69886522D01*
X94287872Y-69943629D01*
X94294500Y-69983627D01*
X94294500Y-70765812D01*
X94274815Y-70832851D01*
X94222011Y-70878606D01*
X94152853Y-70888550D01*
X94114205Y-70876297D01*
X93954223Y-70794781D01*
X93759534Y-70731522D01*
X93584995Y-70703878D01*
X93557352Y-70699500D01*
X93352648Y-70699500D01*
X93328329Y-70703351D01*
X93150465Y-70731522D01*
X92955776Y-70794781D01*
X92773386Y-70887715D01*
X92607786Y-71008028D01*
X92607782Y-71008032D01*
X92562182Y-71053633D01*
X92500859Y-71087118D01*
X92431167Y-71082134D01*
X92375234Y-71040262D01*
X92350817Y-70974798D01*
X92350501Y-70965952D01*
X92350501Y-70925944D01*
X92340481Y-70888550D01*
X92309577Y-70773216D01*
X92305302Y-70765812D01*
X92230524Y-70636290D01*
X92230518Y-70636282D01*
X90789077Y-69194842D01*
X90755592Y-69133519D01*
X90758828Y-69068841D01*
X90763477Y-69054534D01*
X90795500Y-68852352D01*
X90795500Y-68647648D01*
X90782154Y-68563386D01*
X90763477Y-68445465D01*
X90700950Y-68253028D01*
X90700220Y-68250781D01*
X90700218Y-68250777D01*
X90700218Y-68250776D01*
X90654794Y-68161628D01*
X90607287Y-68068390D01*
X90575092Y-68024077D01*
X90486971Y-67902786D01*
X90342213Y-67758028D01*
X90176613Y-67637715D01*
X90176612Y-67637714D01*
X90176610Y-67637713D01*
X90119653Y-67608691D01*
X89994223Y-67544781D01*
X89799534Y-67481522D01*
X89624995Y-67453878D01*
X89597352Y-67449500D01*
X89392648Y-67449500D01*
X89368329Y-67453351D01*
X89190465Y-67481522D01*
X88995776Y-67544781D01*
X88813386Y-67637715D01*
X88647786Y-67758028D01*
X88503028Y-67902786D01*
X88382713Y-68068388D01*
X88335203Y-68161630D01*
X88287228Y-68212426D01*
X88219407Y-68229220D01*
X88153272Y-68206682D01*
X88114234Y-68161628D01*
X88066861Y-68068652D01*
X88034474Y-68024077D01*
X88034474Y-68024076D01*
X87355000Y-68703551D01*
X87355000Y-68697339D01*
X87327741Y-68595606D01*
X87275080Y-68504394D01*
X87200606Y-68429920D01*
X87109394Y-68377259D01*
X87007661Y-68350000D01*
X87001446Y-68350000D01*
X87680922Y-67670524D01*
X87680921Y-67670523D01*
X87636359Y-67638147D01*
X87636350Y-67638141D01*
X87454031Y-67545244D01*
X87259417Y-67482009D01*
X87057317Y-67450000D01*
X86852683Y-67450000D01*
X86650582Y-67482009D01*
X86455968Y-67545244D01*
X86273644Y-67638143D01*
X86229077Y-67670523D01*
X86229077Y-67670524D01*
X86908554Y-68350000D01*
X86902339Y-68350000D01*
X86800606Y-68377259D01*
X86709394Y-68429920D01*
X86634920Y-68504394D01*
X86582259Y-68595606D01*
X86555000Y-68697339D01*
X86555000Y-68703553D01*
X85875524Y-68024077D01*
X85875523Y-68024077D01*
X85843143Y-68068644D01*
X85750244Y-68250968D01*
X85687009Y-68445582D01*
X85655000Y-68647682D01*
X85655000Y-68852317D01*
X85687009Y-69054417D01*
X85750244Y-69249031D01*
X85843141Y-69431350D01*
X85843147Y-69431359D01*
X85875523Y-69475921D01*
X85875524Y-69475922D01*
X86555000Y-68796446D01*
X86555000Y-68802661D01*
X86582259Y-68904394D01*
X86634920Y-68995606D01*
X86709394Y-69070080D01*
X86800606Y-69122741D01*
X86902339Y-69150000D01*
X86908553Y-69150000D01*
X86229076Y-69829474D01*
X86273650Y-69861859D01*
X86455968Y-69954755D01*
X86650582Y-70017990D01*
X86852683Y-70050000D01*
X87057317Y-70050000D01*
X87259417Y-70017990D01*
X87454031Y-69954755D01*
X87636349Y-69861859D01*
X87680921Y-69829474D01*
X87001447Y-69150000D01*
X87007661Y-69150000D01*
X87109394Y-69122741D01*
X87200606Y-69070080D01*
X87275080Y-68995606D01*
X87327741Y-68904394D01*
X87355000Y-68802661D01*
X87355000Y-68796447D01*
X88034474Y-69475921D01*
X88066861Y-69431347D01*
X88066861Y-69431346D01*
X88114234Y-69338371D01*
X88162208Y-69287575D01*
X88230028Y-69270779D01*
X88296164Y-69293316D01*
X88335203Y-69338369D01*
X88382713Y-69431611D01*
X88503028Y-69597213D01*
X88647786Y-69741971D01*
X88768226Y-69829474D01*
X88813390Y-69862287D01*
X88929607Y-69921503D01*
X88995776Y-69955218D01*
X88995778Y-69955218D01*
X88995781Y-69955220D01*
X89083209Y-69983627D01*
X89190465Y-70018477D01*
X89291557Y-70034488D01*
X89392648Y-70050500D01*
X89392649Y-70050500D01*
X89597351Y-70050500D01*
X89597352Y-70050500D01*
X89799534Y-70018477D01*
X89813842Y-70013827D01*
X89883682Y-70011831D01*
X89939842Y-70044077D01*
X91113181Y-71217416D01*
X91146666Y-71278739D01*
X91149500Y-71305097D01*
X91149500Y-77360785D01*
X91129815Y-77427824D01*
X91077011Y-77473579D01*
X91007853Y-77483523D01*
X90952614Y-77461103D01*
X90855405Y-77390476D01*
X90680029Y-77301117D01*
X90492826Y-77240290D01*
X90298422Y-77209500D01*
X90298417Y-77209500D01*
X90101583Y-77209500D01*
X90101578Y-77209500D01*
X89907173Y-77240290D01*
X89719970Y-77301117D01*
X89544594Y-77390476D01*
X89516478Y-77410904D01*
X89385354Y-77506172D01*
X89385352Y-77506174D01*
X89385351Y-77506174D01*
X89246174Y-77645351D01*
X89246174Y-77645352D01*
X89246172Y-77645354D01*
X89242493Y-77650418D01*
X89130476Y-77804594D01*
X89084985Y-77893876D01*
X89037010Y-77944672D01*
X88969189Y-77961467D01*
X88903054Y-77938930D01*
X88859603Y-77884214D01*
X88850500Y-77837581D01*
X88850500Y-76578686D01*
X88870185Y-76511647D01*
X88922989Y-76465892D01*
X88992147Y-76455948D01*
X89012808Y-76460752D01*
X89117719Y-76494840D01*
X89190465Y-76518477D01*
X89291557Y-76534488D01*
X89392648Y-76550500D01*
X89392649Y-76550500D01*
X89597351Y-76550500D01*
X89597352Y-76550500D01*
X89799534Y-76518477D01*
X89994219Y-76455220D01*
X90176610Y-76362287D01*
X90299434Y-76273051D01*
X90342213Y-76241971D01*
X90342215Y-76241968D01*
X90342219Y-76241966D01*
X90486966Y-76097219D01*
X90486968Y-76097215D01*
X90486971Y-76097213D01*
X90539732Y-76024590D01*
X90607287Y-75931610D01*
X90700220Y-75749219D01*
X90763477Y-75554534D01*
X90795500Y-75352352D01*
X90795500Y-75147648D01*
X90783712Y-75073223D01*
X90763477Y-74945465D01*
X90700218Y-74750776D01*
X90638441Y-74629534D01*
X90607287Y-74568390D01*
X90575092Y-74524077D01*
X90486971Y-74402786D01*
X90342213Y-74258028D01*
X90176613Y-74137715D01*
X90176612Y-74137714D01*
X90176610Y-74137713D01*
X90085037Y-74091054D01*
X89994223Y-74044781D01*
X89799534Y-73981522D01*
X89624995Y-73953878D01*
X89597352Y-73949500D01*
X89392648Y-73949500D01*
X89325254Y-73960174D01*
X89190464Y-73981523D01*
X89190461Y-73981523D01*
X89012818Y-74039243D01*
X88942977Y-74041238D01*
X88883144Y-74005157D01*
X88852316Y-73942456D01*
X88850500Y-73921312D01*
X88850500Y-73545096D01*
X88859144Y-73515655D01*
X88865668Y-73485669D01*
X88869422Y-73480653D01*
X88870185Y-73478057D01*
X88886815Y-73457419D01*
X89050157Y-73294076D01*
X89111480Y-73260592D01*
X89176154Y-73263826D01*
X89190466Y-73268477D01*
X89392648Y-73300500D01*
X89392649Y-73300500D01*
X89597351Y-73300500D01*
X89597352Y-73300500D01*
X89799534Y-73268477D01*
X89994219Y-73205220D01*
X90176610Y-73112287D01*
X90284299Y-73034047D01*
X90342213Y-72991971D01*
X90342215Y-72991968D01*
X90342219Y-72991966D01*
X90486966Y-72847219D01*
X90486968Y-72847215D01*
X90486971Y-72847213D01*
X90553312Y-72755901D01*
X90607287Y-72681610D01*
X90700220Y-72499219D01*
X90763477Y-72304534D01*
X90795500Y-72102352D01*
X90795500Y-71897648D01*
X90763477Y-71695466D01*
X90700220Y-71500781D01*
X90700218Y-71500777D01*
X90700218Y-71500776D01*
X90654515Y-71411080D01*
X90607287Y-71318390D01*
X90597629Y-71305097D01*
X90486971Y-71152786D01*
X90342213Y-71008028D01*
X90176613Y-70887715D01*
X90176612Y-70887714D01*
X90176610Y-70887713D01*
X90119653Y-70858691D01*
X89994223Y-70794781D01*
X89799534Y-70731522D01*
X89624995Y-70703878D01*
X89597352Y-70699500D01*
X89392648Y-70699500D01*
X89368329Y-70703351D01*
X89190465Y-70731522D01*
X88995776Y-70794781D01*
X88813386Y-70887715D01*
X88647786Y-71008028D01*
X88503028Y-71152786D01*
X88382715Y-71318386D01*
X88335485Y-71411080D01*
X88287510Y-71461876D01*
X88219689Y-71478671D01*
X88153554Y-71456134D01*
X88114515Y-71411080D01*
X88099999Y-71382591D01*
X88067287Y-71318390D01*
X88057629Y-71305097D01*
X87946971Y-71152786D01*
X87802213Y-71008028D01*
X87636613Y-70887715D01*
X87636612Y-70887714D01*
X87636610Y-70887713D01*
X87579653Y-70858691D01*
X87454223Y-70794781D01*
X87259534Y-70731522D01*
X87084995Y-70703878D01*
X87057352Y-70699500D01*
X86852648Y-70699500D01*
X86828329Y-70703351D01*
X86650465Y-70731522D01*
X86455776Y-70794781D01*
X86273386Y-70887715D01*
X86107786Y-71008028D01*
X85963028Y-71152786D01*
X85842715Y-71318386D01*
X85749781Y-71500776D01*
X85686522Y-71695465D01*
X85654500Y-71897648D01*
X85654500Y-72102351D01*
X85686522Y-72304534D01*
X85749781Y-72499223D01*
X85842715Y-72681613D01*
X85963028Y-72847213D01*
X86107786Y-72991971D01*
X86239532Y-73087688D01*
X86273390Y-73112287D01*
X86377797Y-73165485D01*
X86455776Y-73205218D01*
X86455778Y-73205218D01*
X86455781Y-73205220D01*
X86521410Y-73226544D01*
X86650465Y-73268477D01*
X86679843Y-73273130D01*
X86852648Y-73300500D01*
X86852649Y-73300500D01*
X87057351Y-73300500D01*
X87057352Y-73300500D01*
X87259534Y-73268477D01*
X87454219Y-73205220D01*
X87469202Y-73197585D01*
X87471904Y-73197077D01*
X87473983Y-73195277D01*
X87506043Y-73190665D01*
X87537869Y-73184688D01*
X87540416Y-73185721D01*
X87543141Y-73185330D01*
X87572602Y-73198783D01*
X87602610Y-73210961D01*
X87604195Y-73213210D01*
X87606698Y-73214353D01*
X87624206Y-73241594D01*
X87642869Y-73268066D01*
X87643441Y-73271522D01*
X87644475Y-73273130D01*
X87649493Y-73308031D01*
X87649499Y-73308064D01*
X87649499Y-73324057D01*
X87649499Y-73324058D01*
X87649500Y-73334053D01*
X87649500Y-73941930D01*
X87629815Y-74008969D01*
X87577011Y-74054724D01*
X87507853Y-74064668D01*
X87469208Y-74052416D01*
X87454226Y-74044783D01*
X87454222Y-74044782D01*
X87454219Y-74044780D01*
X87372362Y-74018183D01*
X87259534Y-73981522D01*
X87084995Y-73953878D01*
X87057352Y-73949500D01*
X86852648Y-73949500D01*
X86828329Y-73953351D01*
X86650465Y-73981522D01*
X86455776Y-74044781D01*
X86273386Y-74137715D01*
X86107786Y-74258028D01*
X85963028Y-74402786D01*
X85842715Y-74568386D01*
X85749781Y-74750776D01*
X85686522Y-74945465D01*
X85654500Y-75147648D01*
X85654500Y-75352351D01*
X85686522Y-75554534D01*
X85749781Y-75749223D01*
X85813117Y-75873525D01*
X85842585Y-75931359D01*
X85842715Y-75931613D01*
X85963028Y-76097213D01*
X86107786Y-76241971D01*
X86251366Y-76346286D01*
X86273390Y-76362287D01*
X86354499Y-76403614D01*
X86455776Y-76455218D01*
X86455778Y-76455218D01*
X86455781Y-76455220D01*
X86519686Y-76475984D01*
X86650465Y-76518477D01*
X86751557Y-76534488D01*
X86852648Y-76550500D01*
X86852649Y-76550500D01*
X87057351Y-76550500D01*
X87057352Y-76550500D01*
X87259534Y-76518477D01*
X87454219Y-76455220D01*
X87469203Y-76447584D01*
X87537872Y-76434688D01*
X87602613Y-76460963D01*
X87642871Y-76518069D01*
X87649500Y-76558069D01*
X87649500Y-81503330D01*
X87649499Y-81503348D01*
X87649499Y-81669054D01*
X87649498Y-81669054D01*
X87688510Y-81814648D01*
X87690423Y-81821785D01*
X87707002Y-81850500D01*
X87766419Y-81953414D01*
X87769479Y-81958714D01*
X87769481Y-81958717D01*
X87888349Y-82077585D01*
X87888355Y-82077590D01*
X88913181Y-83102416D01*
X88946666Y-83163739D01*
X88949500Y-83190097D01*
X88949500Y-84337870D01*
X88949501Y-84337876D01*
X88955908Y-84397483D01*
X89006202Y-84532328D01*
X89006203Y-84532329D01*
X89006204Y-84532331D01*
X89092453Y-84647544D01*
X89094747Y-84650609D01*
X89119164Y-84716073D01*
X89104313Y-84784346D01*
X89083161Y-84812601D01*
X88689841Y-85205921D01*
X88628518Y-85239406D01*
X88563845Y-85236172D01*
X88549535Y-85231523D01*
X88417743Y-85210649D01*
X88347352Y-85199500D01*
X88142648Y-85199500D01*
X88118329Y-85203351D01*
X87940465Y-85231522D01*
X87745776Y-85294781D01*
X87563386Y-85387715D01*
X87397786Y-85508028D01*
X87253028Y-85652786D01*
X87132715Y-85818386D01*
X87085485Y-85911080D01*
X87037510Y-85961876D01*
X86969689Y-85978671D01*
X86903554Y-85956134D01*
X86864515Y-85911080D01*
X86863883Y-85909840D01*
X86817287Y-85818390D01*
X86801422Y-85796554D01*
X86696971Y-85652786D01*
X86552213Y-85508028D01*
X86386613Y-85387715D01*
X86386612Y-85387714D01*
X86386610Y-85387713D01*
X86329653Y-85358691D01*
X86204223Y-85294781D01*
X86009534Y-85231522D01*
X85834995Y-85203878D01*
X85807352Y-85199500D01*
X85602648Y-85199500D01*
X85578329Y-85203351D01*
X85400465Y-85231522D01*
X85205776Y-85294781D01*
X85023386Y-85387715D01*
X84857786Y-85508028D01*
X84713028Y-85652786D01*
X84592715Y-85818386D01*
X84499781Y-86000776D01*
X84442431Y-86177282D01*
X84402993Y-86234957D01*
X84338634Y-86262155D01*
X84269788Y-86250240D01*
X84218312Y-86202996D01*
X84200500Y-86138963D01*
X84200500Y-79544097D01*
X84220185Y-79477058D01*
X84272989Y-79431303D01*
X84342147Y-79421359D01*
X84405703Y-79450384D01*
X84412171Y-79456406D01*
X84455922Y-79500158D01*
X84489407Y-79561480D01*
X84486173Y-79626155D01*
X84481522Y-79640468D01*
X84449843Y-79840485D01*
X84449500Y-79842648D01*
X84449500Y-80047352D01*
X84450761Y-80055312D01*
X84481522Y-80249534D01*
X84544781Y-80444223D01*
X84588472Y-80529970D01*
X84621844Y-80595466D01*
X84637715Y-80626613D01*
X84758028Y-80792213D01*
X84902786Y-80936971D01*
X85041271Y-81037584D01*
X85068390Y-81057287D01*
X85145499Y-81096576D01*
X85161080Y-81104515D01*
X85211876Y-81152490D01*
X85228671Y-81220311D01*
X85206134Y-81286446D01*
X85161080Y-81325485D01*
X85068386Y-81372715D01*
X84902786Y-81493028D01*
X84758028Y-81637786D01*
X84637715Y-81803386D01*
X84544781Y-81985776D01*
X84481522Y-82180465D01*
X84454654Y-82350109D01*
X84449500Y-82382648D01*
X84449500Y-82587352D01*
X84450761Y-82595312D01*
X84481522Y-82789534D01*
X84544781Y-82984223D01*
X84603638Y-83099734D01*
X84636250Y-83163739D01*
X84637715Y-83166613D01*
X84758028Y-83332213D01*
X84902786Y-83476971D01*
X85041448Y-83577713D01*
X85068390Y-83597287D01*
X85184607Y-83656503D01*
X85250776Y-83690218D01*
X85250778Y-83690218D01*
X85250781Y-83690220D01*
X85355137Y-83724127D01*
X85445465Y-83753477D01*
X85546557Y-83769488D01*
X85647648Y-83785500D01*
X85647649Y-83785500D01*
X85852351Y-83785500D01*
X85852352Y-83785500D01*
X86054534Y-83753477D01*
X86249219Y-83690220D01*
X86431610Y-83597287D01*
X86562596Y-83502121D01*
X86597213Y-83476971D01*
X86597215Y-83476968D01*
X86597219Y-83476966D01*
X86741966Y-83332219D01*
X86741968Y-83332215D01*
X86741971Y-83332213D01*
X86837957Y-83200097D01*
X86862287Y-83166610D01*
X86955220Y-82984219D01*
X87018477Y-82789534D01*
X87050500Y-82587352D01*
X87050500Y-82382648D01*
X87037331Y-82299501D01*
X87018477Y-82180465D01*
X86968878Y-82027816D01*
X86955220Y-81985781D01*
X86955218Y-81985778D01*
X86955218Y-81985776D01*
X86886291Y-81850501D01*
X86862287Y-81803390D01*
X86820305Y-81745606D01*
X86741971Y-81637786D01*
X86597213Y-81493028D01*
X86431614Y-81372715D01*
X86419901Y-81366747D01*
X86338917Y-81325483D01*
X86288123Y-81277511D01*
X86271328Y-81209690D01*
X86293865Y-81143555D01*
X86338917Y-81104516D01*
X86431610Y-81057287D01*
X86458729Y-81037584D01*
X86597213Y-80936971D01*
X86597215Y-80936968D01*
X86597219Y-80936966D01*
X86741966Y-80792219D01*
X86741968Y-80792215D01*
X86741971Y-80792213D01*
X86807518Y-80701993D01*
X86862287Y-80626610D01*
X86955220Y-80444219D01*
X87018477Y-80249534D01*
X87050500Y-80047352D01*
X87050500Y-79842648D01*
X87050157Y-79840485D01*
X87018477Y-79640465D01*
X86972888Y-79500157D01*
X86955220Y-79445781D01*
X86955218Y-79445778D01*
X86955218Y-79445776D01*
X86894588Y-79326785D01*
X86862287Y-79263390D01*
X86854556Y-79252749D01*
X86741971Y-79097786D01*
X86597213Y-78953028D01*
X86431613Y-78832715D01*
X86431612Y-78832714D01*
X86431610Y-78832713D01*
X86367407Y-78800000D01*
X86249223Y-78739781D01*
X86054534Y-78676522D01*
X85857775Y-78645359D01*
X85852352Y-78644500D01*
X85647648Y-78644500D01*
X85642225Y-78645359D01*
X85445462Y-78676523D01*
X85445460Y-78676523D01*
X85431149Y-78681173D01*
X85361308Y-78683164D01*
X85305157Y-78650921D01*
X84636819Y-77982583D01*
X84603334Y-77921260D01*
X84600500Y-77894902D01*
X84600500Y-62034047D01*
X84620185Y-61967008D01*
X84672989Y-61921253D01*
X84742147Y-61911309D01*
X84805703Y-61940334D01*
X84812181Y-61946366D01*
X84902786Y-62036971D01*
X85022875Y-62124219D01*
X85068390Y-62157287D01*
X85184607Y-62216503D01*
X85250776Y-62250218D01*
X85250778Y-62250218D01*
X85250781Y-62250220D01*
X85355137Y-62284127D01*
X85445465Y-62313477D01*
X85546557Y-62329488D01*
X85647648Y-62345500D01*
X85647649Y-62345500D01*
X85852351Y-62345500D01*
X85852352Y-62345500D01*
X86054534Y-62313477D01*
X86249219Y-62250220D01*
X86431610Y-62157287D01*
X86524590Y-62089732D01*
X86597213Y-62036971D01*
X86597215Y-62036968D01*
X86597219Y-62036966D01*
X86741966Y-61892219D01*
X86741968Y-61892215D01*
X86741971Y-61892213D01*
X86831614Y-61768828D01*
X86862287Y-61726610D01*
X86955220Y-61544219D01*
X87018477Y-61349534D01*
X87050500Y-61147352D01*
X87050500Y-60942648D01*
X87018477Y-60740466D01*
X87013825Y-60726151D01*
X87013391Y-60710940D01*
X87008074Y-60696683D01*
X87012414Y-60676728D01*
X87011832Y-60656312D01*
X87019920Y-60642225D01*
X87022926Y-60628410D01*
X87044074Y-60600159D01*
X87208506Y-60435728D01*
X87208511Y-60435724D01*
X87218714Y-60425520D01*
X87218716Y-60425520D01*
X87330520Y-60313716D01*
X87387269Y-60215423D01*
X87409577Y-60176785D01*
X87450501Y-60024057D01*
X87450501Y-59865943D01*
X87450501Y-59858348D01*
X87450500Y-59858330D01*
X87450500Y-56725946D01*
X87450499Y-56725939D01*
X87433693Y-56663216D01*
X87409577Y-56573215D01*
X87366855Y-56499219D01*
X87330520Y-56436284D01*
X87218716Y-56324480D01*
X87214385Y-56320149D01*
X87214374Y-56320139D01*
X87089077Y-56194842D01*
X87055592Y-56133519D01*
X87058828Y-56068841D01*
X87063477Y-56054534D01*
X87095500Y-55852352D01*
X87095500Y-55647648D01*
X87063477Y-55445466D01*
X87000220Y-55250781D01*
X87000218Y-55250778D01*
X87000218Y-55250776D01*
X86950286Y-55152781D01*
X86907287Y-55068390D01*
X86871548Y-55019199D01*
X86786971Y-54902786D01*
X86642213Y-54758028D01*
X86476613Y-54637715D01*
X86476612Y-54637714D01*
X86476610Y-54637713D01*
X86408957Y-54603242D01*
X86294223Y-54544781D01*
X86099534Y-54481522D01*
X85924995Y-54453878D01*
X85897352Y-54449500D01*
X85692648Y-54449500D01*
X85668329Y-54453351D01*
X85490465Y-54481522D01*
X85295776Y-54544781D01*
X85113386Y-54637715D01*
X84947786Y-54758028D01*
X84803028Y-54902786D01*
X84682715Y-55068386D01*
X84635485Y-55161080D01*
X84587510Y-55211876D01*
X84519689Y-55228671D01*
X84453554Y-55206134D01*
X84414515Y-55161080D01*
X84410286Y-55152781D01*
X84367287Y-55068390D01*
X84331548Y-55019199D01*
X84246971Y-54902786D01*
X84102213Y-54758028D01*
X83936613Y-54637715D01*
X83936612Y-54637714D01*
X83936610Y-54637713D01*
X83868957Y-54603242D01*
X83754223Y-54544781D01*
X83559534Y-54481522D01*
X83384995Y-54453878D01*
X83357352Y-54449500D01*
X83152648Y-54449500D01*
X83128329Y-54453351D01*
X82950465Y-54481522D01*
X82755776Y-54544781D01*
X82573386Y-54637715D01*
X82407786Y-54758028D01*
X82263028Y-54902786D01*
X82142715Y-55068385D01*
X82049778Y-55250784D01*
X82033472Y-55300968D01*
X82003223Y-55350328D01*
X81400000Y-55953551D01*
X81400000Y-55947339D01*
X81372741Y-55845606D01*
X81320080Y-55754394D01*
X81245606Y-55679920D01*
X81154394Y-55627259D01*
X81052661Y-55600000D01*
X81046446Y-55600000D01*
X81725922Y-54920524D01*
X81725921Y-54920523D01*
X81681359Y-54888147D01*
X81681350Y-54888141D01*
X81499031Y-54795244D01*
X81304417Y-54732009D01*
X81102317Y-54700000D01*
X80897683Y-54700000D01*
X80695582Y-54732009D01*
X80500968Y-54795244D01*
X80318644Y-54888143D01*
X80274077Y-54920523D01*
X80274077Y-54920524D01*
X80953554Y-55600000D01*
X80947339Y-55600000D01*
X80845606Y-55627259D01*
X80754394Y-55679920D01*
X80679920Y-55754394D01*
X80627259Y-55845606D01*
X80600000Y-55947339D01*
X80600000Y-55953553D01*
X79920524Y-55274077D01*
X79920523Y-55274077D01*
X79888143Y-55318644D01*
X79795244Y-55500968D01*
X79732009Y-55695582D01*
X79700000Y-55897682D01*
X79700000Y-56102317D01*
X79732009Y-56304417D01*
X79795244Y-56499031D01*
X79888141Y-56681350D01*
X79888147Y-56681359D01*
X79920523Y-56725921D01*
X79920524Y-56725922D01*
X80600000Y-56046446D01*
X80600000Y-56052661D01*
X80627259Y-56154394D01*
X80679920Y-56245606D01*
X80754394Y-56320080D01*
X80845606Y-56372741D01*
X80947339Y-56400000D01*
X80953553Y-56400000D01*
X80274076Y-57079474D01*
X80318650Y-57111859D01*
X80500968Y-57204755D01*
X80695582Y-57267990D01*
X80897683Y-57300000D01*
X81102317Y-57300000D01*
X81304417Y-57267990D01*
X81499031Y-57204755D01*
X81681349Y-57111859D01*
X81725921Y-57079474D01*
X81046447Y-56400000D01*
X81052661Y-56400000D01*
X81154394Y-56372741D01*
X81245606Y-56320080D01*
X81320080Y-56245606D01*
X81372741Y-56154394D01*
X81400000Y-56052661D01*
X81400000Y-56046447D01*
X82079474Y-56725921D01*
X82111860Y-56681348D01*
X82113798Y-56677545D01*
X82161769Y-56626746D01*
X82229589Y-56609946D01*
X82295725Y-56632480D01*
X82311967Y-56646152D01*
X82407781Y-56741966D01*
X82573390Y-56862287D01*
X82586793Y-56869116D01*
X82637589Y-56917088D01*
X82654500Y-56979601D01*
X82654500Y-57677667D01*
X82634815Y-57744706D01*
X82582011Y-57790461D01*
X82512853Y-57800405D01*
X82511103Y-57800140D01*
X82412352Y-57784500D01*
X82207648Y-57784500D01*
X82183329Y-57788351D01*
X82005465Y-57816522D01*
X81810776Y-57879781D01*
X81628386Y-57972715D01*
X81462786Y-58093028D01*
X81318028Y-58237786D01*
X81197715Y-58403386D01*
X81104781Y-58585776D01*
X81041522Y-58780465D01*
X81009500Y-58982648D01*
X81009500Y-59187351D01*
X81041522Y-59389534D01*
X81104781Y-59584223D01*
X81156135Y-59685009D01*
X81188456Y-59748443D01*
X81197715Y-59766613D01*
X81318028Y-59932213D01*
X81462786Y-60076971D01*
X81600171Y-60176785D01*
X81628390Y-60197287D01*
X81705332Y-60236491D01*
X81721080Y-60244515D01*
X81771876Y-60292490D01*
X81788671Y-60360311D01*
X81766134Y-60426446D01*
X81721080Y-60465485D01*
X81628386Y-60512715D01*
X81462786Y-60633028D01*
X81318028Y-60777786D01*
X81197715Y-60943386D01*
X81104781Y-61125776D01*
X81041522Y-61320465D01*
X81013071Y-61500102D01*
X81009500Y-61522648D01*
X81009500Y-61727352D01*
X81011534Y-61740195D01*
X81041522Y-61929534D01*
X81104781Y-62124223D01*
X81197715Y-62306613D01*
X81318028Y-62472213D01*
X81462786Y-62616971D01*
X81628385Y-62737284D01*
X81628387Y-62737285D01*
X81628390Y-62737287D01*
X81721630Y-62784795D01*
X81772426Y-62832770D01*
X81789221Y-62900591D01*
X81766684Y-62966725D01*
X81721630Y-63005765D01*
X81628644Y-63053143D01*
X81584077Y-63085523D01*
X81584077Y-63085524D01*
X82263553Y-63765000D01*
X82257339Y-63765000D01*
X82155606Y-63792259D01*
X82064394Y-63844920D01*
X81989920Y-63919394D01*
X81937259Y-64010606D01*
X81910000Y-64112339D01*
X81910000Y-64118553D01*
X81230524Y-63439077D01*
X81230523Y-63439077D01*
X81198143Y-63483644D01*
X81105244Y-63665968D01*
X81042009Y-63860582D01*
X81010000Y-64062682D01*
X81010000Y-64267317D01*
X81042009Y-64469417D01*
X81105244Y-64664031D01*
X81198141Y-64846350D01*
X81198147Y-64846359D01*
X81230523Y-64890921D01*
X81230524Y-64890922D01*
X81910000Y-64211446D01*
X81910000Y-64217661D01*
X81937259Y-64319394D01*
X81989920Y-64410606D01*
X82064394Y-64485080D01*
X82155606Y-64537741D01*
X82257339Y-64565000D01*
X82263552Y-64565000D01*
X81584076Y-65244474D01*
X81628652Y-65276861D01*
X81721628Y-65324234D01*
X81772425Y-65372208D01*
X81789220Y-65440029D01*
X81766683Y-65506164D01*
X81721630Y-65545203D01*
X81628388Y-65592713D01*
X81462786Y-65713028D01*
X81318028Y-65857786D01*
X81197715Y-66023386D01*
X81104781Y-66205778D01*
X81041522Y-66400468D01*
X81018073Y-66548515D01*
X80988143Y-66611649D01*
X80983281Y-66616797D01*
X78587680Y-69012398D01*
X78526357Y-69045883D01*
X78456665Y-69040899D01*
X78412318Y-69012398D01*
X76192600Y-66792680D01*
X76159115Y-66731357D01*
X76164099Y-66661665D01*
X76192596Y-66617323D01*
X78137778Y-64672141D01*
X78137782Y-64672139D01*
X78277139Y-64532782D01*
X78386632Y-64368914D01*
X78462051Y-64186835D01*
X78500500Y-63993541D01*
X78500500Y-57401459D01*
X78500500Y-57401456D01*
X78500499Y-57401454D01*
X78462053Y-57208175D01*
X78462052Y-57208174D01*
X78462051Y-57208165D01*
X78460831Y-57205220D01*
X78421183Y-57109500D01*
X78408746Y-57079474D01*
X78386635Y-57026091D01*
X78386628Y-57026079D01*
X78277140Y-56862219D01*
X78230864Y-56815943D01*
X78137782Y-56722861D01*
X78137781Y-56722860D01*
X77326716Y-55911796D01*
X77293232Y-55850474D01*
X77291925Y-55843513D01*
X77268477Y-55695466D01*
X77268477Y-55695465D01*
X77211432Y-55519901D01*
X77205220Y-55500781D01*
X77205218Y-55500778D01*
X77205218Y-55500776D01*
X77128560Y-55350328D01*
X77112287Y-55318390D01*
X77063163Y-55250776D01*
X76991971Y-55152786D01*
X76847213Y-55008028D01*
X76681613Y-54887715D01*
X76681612Y-54887714D01*
X76681610Y-54887713D01*
X76624653Y-54858691D01*
X76499223Y-54794781D01*
X76304534Y-54731522D01*
X76129995Y-54703878D01*
X76102352Y-54699500D01*
X75897648Y-54699500D01*
X75873329Y-54703351D01*
X75695465Y-54731522D01*
X75500776Y-54794781D01*
X75318386Y-54887715D01*
X75152788Y-55008027D01*
X75057338Y-55103477D01*
X74996014Y-55136961D01*
X74926323Y-55131977D01*
X74870390Y-55090105D01*
X74859172Y-55072089D01*
X74857286Y-55068388D01*
X74736971Y-54902786D01*
X74592213Y-54758028D01*
X74426613Y-54637715D01*
X74426612Y-54637714D01*
X74426610Y-54637713D01*
X74358957Y-54603242D01*
X74244223Y-54544781D01*
X74049534Y-54481522D01*
X73874995Y-54453878D01*
X73847352Y-54449500D01*
X73642648Y-54449500D01*
X73618329Y-54453351D01*
X73440465Y-54481522D01*
X73245776Y-54544781D01*
X73063386Y-54637715D01*
X72897786Y-54758028D01*
X72753028Y-54902786D01*
X72632715Y-55068386D01*
X72585485Y-55161080D01*
X72537510Y-55211876D01*
X72469689Y-55228671D01*
X72403554Y-55206134D01*
X72364515Y-55161080D01*
X72360286Y-55152781D01*
X72317287Y-55068390D01*
X72281548Y-55019199D01*
X72196971Y-54902786D01*
X72052213Y-54758028D01*
X71886613Y-54637715D01*
X71886612Y-54637714D01*
X71886610Y-54637713D01*
X71818957Y-54603242D01*
X71704223Y-54544781D01*
X71509534Y-54481522D01*
X71334995Y-54453878D01*
X71307352Y-54449500D01*
X71102648Y-54449500D01*
X71078329Y-54453351D01*
X70900465Y-54481522D01*
X70705776Y-54544781D01*
X70523386Y-54637715D01*
X70357786Y-54758028D01*
X70213028Y-54902786D01*
X70092715Y-55068386D01*
X69999781Y-55250776D01*
X69936522Y-55445465D01*
X69904500Y-55647648D01*
X69904500Y-55852351D01*
X69936522Y-56054534D01*
X69999781Y-56249223D01*
X70050552Y-56348864D01*
X70086797Y-56420000D01*
X70092715Y-56431613D01*
X70213028Y-56597213D01*
X70357786Y-56741971D01*
X70512749Y-56854556D01*
X70523390Y-56862287D01*
X70705781Y-56955220D01*
X70895548Y-57016879D01*
X70953224Y-57056317D01*
X70980422Y-57120675D01*
X70968507Y-57189522D01*
X70921263Y-57240997D01*
X70895549Y-57252741D01*
X70750777Y-57299781D01*
X70568386Y-57392715D01*
X70402786Y-57513028D01*
X70258028Y-57657786D01*
X70137715Y-57823386D01*
X70044781Y-58005776D01*
X69981522Y-58200465D01*
X69949500Y-58402648D01*
X69949500Y-58607351D01*
X69981522Y-58809534D01*
X70044781Y-59004223D01*
X70137715Y-59186613D01*
X70258028Y-59352213D01*
X70402786Y-59496971D01*
X70508694Y-59573916D01*
X70568390Y-59617287D01*
X70659840Y-59663883D01*
X70661080Y-59664515D01*
X70711876Y-59712490D01*
X70728671Y-59780311D01*
X70706134Y-59846446D01*
X70661080Y-59885485D01*
X70568386Y-59932715D01*
X70402786Y-60053028D01*
X70258028Y-60197786D01*
X70137715Y-60363386D01*
X70044781Y-60545776D01*
X69981522Y-60740465D01*
X69949500Y-60942648D01*
X69949500Y-61147351D01*
X69981522Y-61349534D01*
X70044781Y-61544223D01*
X70137715Y-61726613D01*
X70258028Y-61892213D01*
X70402786Y-62036971D01*
X70522875Y-62124219D01*
X70568390Y-62157287D01*
X70684607Y-62216503D01*
X70750776Y-62250218D01*
X70750778Y-62250218D01*
X70750781Y-62250220D01*
X70855137Y-62284127D01*
X70945465Y-62313477D01*
X71046557Y-62329488D01*
X71147648Y-62345500D01*
X71147649Y-62345500D01*
X71352351Y-62345500D01*
X71352352Y-62345500D01*
X71356101Y-62344906D01*
X71425395Y-62353860D01*
X71478847Y-62398856D01*
X71499487Y-62465607D01*
X71499500Y-62467379D01*
X71499500Y-64986698D01*
X71479815Y-65053737D01*
X71427011Y-65099492D01*
X71357853Y-65109436D01*
X71294297Y-65080411D01*
X71257569Y-65025017D01*
X71249755Y-65000968D01*
X71156859Y-64818650D01*
X71124474Y-64774077D01*
X71124474Y-64774076D01*
X70445000Y-65453551D01*
X70445000Y-65447339D01*
X70417741Y-65345606D01*
X70365080Y-65254394D01*
X70290606Y-65179920D01*
X70199394Y-65127259D01*
X70097661Y-65100000D01*
X70091446Y-65100000D01*
X70770922Y-64420524D01*
X70770921Y-64420523D01*
X70726359Y-64388147D01*
X70726350Y-64388141D01*
X70544031Y-64295244D01*
X70349417Y-64232009D01*
X70147317Y-64200000D01*
X69942683Y-64200000D01*
X69740582Y-64232009D01*
X69545968Y-64295244D01*
X69363644Y-64388143D01*
X69319077Y-64420523D01*
X69319077Y-64420524D01*
X69998554Y-65100000D01*
X69992339Y-65100000D01*
X69890606Y-65127259D01*
X69799394Y-65179920D01*
X69724920Y-65254394D01*
X69672259Y-65345606D01*
X69645000Y-65447339D01*
X69645000Y-65453553D01*
X68965524Y-64774077D01*
X68965523Y-64774077D01*
X68933143Y-64818644D01*
X68885765Y-64911630D01*
X68837790Y-64962426D01*
X68769969Y-64979221D01*
X68703834Y-64956683D01*
X68664795Y-64911630D01*
X68653774Y-64890000D01*
X68617287Y-64818390D01*
X68617285Y-64818387D01*
X68617284Y-64818385D01*
X68496971Y-64652786D01*
X68352213Y-64508028D01*
X68186613Y-64387715D01*
X68186612Y-64387714D01*
X68186610Y-64387713D01*
X68129653Y-64358691D01*
X68004223Y-64294781D01*
X67809534Y-64231522D01*
X67634995Y-64203878D01*
X67607352Y-64199500D01*
X67402648Y-64199500D01*
X67378329Y-64203351D01*
X67200465Y-64231522D01*
X67005776Y-64294781D01*
X66823386Y-64387715D01*
X66657786Y-64508028D01*
X66513028Y-64652786D01*
X66392715Y-64818386D01*
X66299781Y-65000776D01*
X66236522Y-65195465D01*
X66204500Y-65397648D01*
X66204500Y-65602351D01*
X66236522Y-65804534D01*
X66299781Y-65999223D01*
X66392715Y-66181613D01*
X66513028Y-66347213D01*
X66657786Y-66491971D01*
X66778226Y-66579474D01*
X66823390Y-66612287D01*
X66904499Y-66653614D01*
X67005776Y-66705218D01*
X67005778Y-66705218D01*
X67005781Y-66705220D01*
X67110137Y-66739127D01*
X67200465Y-66768477D01*
X67228555Y-66772926D01*
X67402648Y-66800500D01*
X67402649Y-66800500D01*
X67607351Y-66800500D01*
X67607352Y-66800500D01*
X67809534Y-66768477D01*
X67823842Y-66763827D01*
X67839054Y-66763392D01*
X67853315Y-66758074D01*
X67873268Y-66762414D01*
X67893682Y-66761831D01*
X67907769Y-66769920D01*
X67921588Y-66772926D01*
X67949842Y-66794077D01*
X68113181Y-66957416D01*
X68146666Y-67018739D01*
X68149500Y-67045097D01*
X68149500Y-67421312D01*
X68129815Y-67488351D01*
X68077011Y-67534106D01*
X68007853Y-67544050D01*
X67987182Y-67539243D01*
X67809537Y-67481523D01*
X67657897Y-67457505D01*
X67607352Y-67449500D01*
X67402648Y-67449500D01*
X67378329Y-67453351D01*
X67200465Y-67481522D01*
X67005776Y-67544781D01*
X66823386Y-67637715D01*
X66657786Y-67758028D01*
X66513028Y-67902786D01*
X66392715Y-68068386D01*
X66299781Y-68250776D01*
X66236522Y-68445465D01*
X66204500Y-68647648D01*
X66204500Y-68852351D01*
X66236522Y-69054534D01*
X66241173Y-69068848D01*
X66243165Y-69138690D01*
X66210921Y-69194842D01*
X64633950Y-70771813D01*
X64633942Y-70771821D01*
X64631286Y-70774478D01*
X64631284Y-70774480D01*
X64519480Y-70886284D01*
X64494953Y-70928764D01*
X64486653Y-70938138D01*
X64467233Y-70950323D01*
X64450642Y-70966143D01*
X64438202Y-70968540D01*
X64427470Y-70975275D01*
X64404543Y-70975027D01*
X64382035Y-70979365D01*
X64369573Y-70974649D01*
X64357605Y-70974520D01*
X64341871Y-70964166D01*
X64320938Y-70956245D01*
X64226613Y-70887715D01*
X64226612Y-70887714D01*
X64226610Y-70887713D01*
X64169653Y-70858691D01*
X64044223Y-70794781D01*
X63849534Y-70731522D01*
X63674995Y-70703878D01*
X63647352Y-70699500D01*
X63442648Y-70699500D01*
X63418329Y-70703351D01*
X63240465Y-70731522D01*
X63045776Y-70794781D01*
X62863386Y-70887715D01*
X62697786Y-71008028D01*
X62553028Y-71152786D01*
X62432715Y-71318386D01*
X62385485Y-71411080D01*
X62337510Y-71461876D01*
X62269689Y-71478671D01*
X62203554Y-71456134D01*
X62164515Y-71411080D01*
X62149999Y-71382591D01*
X62117287Y-71318390D01*
X62107629Y-71305097D01*
X61996971Y-71152786D01*
X61852213Y-71008028D01*
X61686613Y-70887715D01*
X61686612Y-70887714D01*
X61686610Y-70887713D01*
X61629653Y-70858691D01*
X61504223Y-70794781D01*
X61309534Y-70731522D01*
X61134995Y-70703878D01*
X61107352Y-70699500D01*
X60902648Y-70699500D01*
X60878329Y-70703351D01*
X60700465Y-70731522D01*
X60505776Y-70794781D01*
X60323386Y-70887715D01*
X60157786Y-71008028D01*
X60013028Y-71152786D01*
X59892715Y-71318385D01*
X59885883Y-71331795D01*
X59837909Y-71382591D01*
X59775398Y-71399500D01*
X58386669Y-71399500D01*
X58386653Y-71399499D01*
X58379057Y-71399499D01*
X58220943Y-71399499D01*
X58113587Y-71428265D01*
X58068210Y-71440424D01*
X58068209Y-71440425D01*
X58018096Y-71469359D01*
X58018095Y-71469360D01*
X57985711Y-71488057D01*
X57931285Y-71519479D01*
X57931282Y-71519481D01*
X55912181Y-73538583D01*
X55850858Y-73572068D01*
X55781166Y-73567084D01*
X55725233Y-73525212D01*
X55700816Y-73459748D01*
X55700500Y-73450902D01*
X55700500Y-71705096D01*
X55720185Y-71638057D01*
X55736814Y-71617420D01*
X58706551Y-68647682D01*
X59705000Y-68647682D01*
X59705000Y-68852317D01*
X59737009Y-69054417D01*
X59800244Y-69249031D01*
X59893141Y-69431350D01*
X59893147Y-69431359D01*
X59925523Y-69475921D01*
X59925524Y-69475922D01*
X60605000Y-68796446D01*
X60605000Y-68802661D01*
X60632259Y-68904394D01*
X60684920Y-68995606D01*
X60759394Y-69070080D01*
X60850606Y-69122741D01*
X60952339Y-69150000D01*
X60958553Y-69150000D01*
X60279076Y-69829474D01*
X60323650Y-69861859D01*
X60505968Y-69954755D01*
X60700582Y-70017990D01*
X60902683Y-70050000D01*
X61107317Y-70050000D01*
X61309417Y-70017990D01*
X61504031Y-69954755D01*
X61686349Y-69861859D01*
X61730921Y-69829474D01*
X61051447Y-69150000D01*
X61057661Y-69150000D01*
X61159394Y-69122741D01*
X61250606Y-69070080D01*
X61325080Y-68995606D01*
X61377741Y-68904394D01*
X61405000Y-68802661D01*
X61405000Y-68796447D01*
X62084474Y-69475921D01*
X62116861Y-69431347D01*
X62116861Y-69431346D01*
X62164234Y-69338371D01*
X62212208Y-69287575D01*
X62280028Y-69270779D01*
X62346164Y-69293316D01*
X62385203Y-69338369D01*
X62432713Y-69431611D01*
X62553028Y-69597213D01*
X62697786Y-69741971D01*
X62818226Y-69829474D01*
X62863390Y-69862287D01*
X62979607Y-69921503D01*
X63045776Y-69955218D01*
X63045778Y-69955218D01*
X63045781Y-69955220D01*
X63133209Y-69983627D01*
X63240465Y-70018477D01*
X63341557Y-70034488D01*
X63442648Y-70050500D01*
X63442649Y-70050500D01*
X63647351Y-70050500D01*
X63647352Y-70050500D01*
X63849534Y-70018477D01*
X64044219Y-69955220D01*
X64226610Y-69862287D01*
X64319590Y-69794732D01*
X64392213Y-69741971D01*
X64392215Y-69741968D01*
X64392219Y-69741966D01*
X64536966Y-69597219D01*
X64536968Y-69597215D01*
X64536971Y-69597213D01*
X64621197Y-69481284D01*
X64657287Y-69431610D01*
X64750220Y-69249219D01*
X64813477Y-69054534D01*
X64845500Y-68852352D01*
X64845500Y-68647648D01*
X64832154Y-68563386D01*
X64813477Y-68445465D01*
X64750950Y-68253028D01*
X64750220Y-68250781D01*
X64750218Y-68250777D01*
X64750218Y-68250776D01*
X64704794Y-68161628D01*
X64657287Y-68068390D01*
X64625092Y-68024077D01*
X64536971Y-67902786D01*
X64392213Y-67758028D01*
X64226613Y-67637715D01*
X64226612Y-67637714D01*
X64226610Y-67637713D01*
X64169653Y-67608691D01*
X64044223Y-67544781D01*
X63849534Y-67481522D01*
X63674995Y-67453878D01*
X63647352Y-67449500D01*
X63442648Y-67449500D01*
X63418329Y-67453351D01*
X63240465Y-67481522D01*
X63045776Y-67544781D01*
X62863386Y-67637715D01*
X62697786Y-67758028D01*
X62553028Y-67902786D01*
X62432713Y-68068388D01*
X62385203Y-68161630D01*
X62337228Y-68212426D01*
X62269407Y-68229220D01*
X62203272Y-68206682D01*
X62164234Y-68161628D01*
X62116861Y-68068652D01*
X62084474Y-68024077D01*
X62084474Y-68024076D01*
X61405000Y-68703551D01*
X61405000Y-68697339D01*
X61377741Y-68595606D01*
X61325080Y-68504394D01*
X61250606Y-68429920D01*
X61159394Y-68377259D01*
X61057661Y-68350000D01*
X61051446Y-68350000D01*
X61730922Y-67670524D01*
X61730921Y-67670523D01*
X61686359Y-67638147D01*
X61686350Y-67638141D01*
X61504031Y-67545244D01*
X61309417Y-67482009D01*
X61107317Y-67450000D01*
X60902683Y-67450000D01*
X60700582Y-67482009D01*
X60505968Y-67545244D01*
X60323644Y-67638143D01*
X60279077Y-67670523D01*
X60279077Y-67670524D01*
X60958554Y-68350000D01*
X60952339Y-68350000D01*
X60850606Y-68377259D01*
X60759394Y-68429920D01*
X60684920Y-68504394D01*
X60632259Y-68595606D01*
X60605000Y-68697339D01*
X60605000Y-68703553D01*
X59925524Y-68024077D01*
X59925523Y-68024077D01*
X59893143Y-68068644D01*
X59800244Y-68250968D01*
X59737009Y-68445582D01*
X59705000Y-68647682D01*
X58706551Y-68647682D01*
X60560158Y-66794075D01*
X60621479Y-66760592D01*
X60686151Y-66763825D01*
X60700466Y-66768477D01*
X60700471Y-66768477D01*
X60700472Y-66768478D01*
X60728555Y-66772926D01*
X60902648Y-66800500D01*
X60902649Y-66800500D01*
X61107351Y-66800500D01*
X61107352Y-66800500D01*
X61309534Y-66768477D01*
X61504219Y-66705220D01*
X61686610Y-66612287D01*
X61779590Y-66544732D01*
X61852213Y-66491971D01*
X61852215Y-66491968D01*
X61852219Y-66491966D01*
X61996966Y-66347219D01*
X61996968Y-66347215D01*
X61996971Y-66347213D01*
X62117284Y-66181614D01*
X62117285Y-66181613D01*
X62117287Y-66181610D01*
X62164516Y-66088917D01*
X62212489Y-66038123D01*
X62280310Y-66021328D01*
X62346445Y-66043865D01*
X62385485Y-66088919D01*
X62432715Y-66181614D01*
X62553028Y-66347213D01*
X62697786Y-66491971D01*
X62818226Y-66579474D01*
X62863390Y-66612287D01*
X62944499Y-66653614D01*
X63045776Y-66705218D01*
X63045778Y-66705218D01*
X63045781Y-66705220D01*
X63150137Y-66739127D01*
X63240465Y-66768477D01*
X63268555Y-66772926D01*
X63442648Y-66800500D01*
X63442649Y-66800500D01*
X63647351Y-66800500D01*
X63647352Y-66800500D01*
X63849534Y-66768477D01*
X64044219Y-66705220D01*
X64226610Y-66612287D01*
X64319590Y-66544732D01*
X64392213Y-66491971D01*
X64392215Y-66491968D01*
X64392219Y-66491966D01*
X64536966Y-66347219D01*
X64536968Y-66347215D01*
X64536971Y-66347213D01*
X64625093Y-66225921D01*
X64657287Y-66181610D01*
X64750220Y-65999219D01*
X64813477Y-65804534D01*
X64845500Y-65602352D01*
X64845500Y-65397648D01*
X64826369Y-65276861D01*
X64813477Y-65195465D01*
X64776093Y-65080411D01*
X64750220Y-65000781D01*
X64750218Y-65000778D01*
X64750218Y-65000776D01*
X64693774Y-64890000D01*
X64657287Y-64818390D01*
X64625092Y-64774077D01*
X64536971Y-64652786D01*
X64392213Y-64508028D01*
X64226613Y-64387715D01*
X64226612Y-64387714D01*
X64226610Y-64387713D01*
X64169653Y-64358691D01*
X64044223Y-64294781D01*
X63849534Y-64231522D01*
X63674995Y-64203878D01*
X63647352Y-64199500D01*
X63442648Y-64199500D01*
X63418329Y-64203351D01*
X63240465Y-64231522D01*
X63045776Y-64294781D01*
X62863386Y-64387715D01*
X62697786Y-64508028D01*
X62553028Y-64652786D01*
X62432715Y-64818386D01*
X62385485Y-64911080D01*
X62337510Y-64961876D01*
X62269689Y-64978671D01*
X62203554Y-64956134D01*
X62164515Y-64911080D01*
X62153774Y-64890000D01*
X62117287Y-64818390D01*
X62085092Y-64774077D01*
X61996971Y-64652786D01*
X61852213Y-64508028D01*
X61686613Y-64387715D01*
X61686612Y-64387714D01*
X61686610Y-64387713D01*
X61629653Y-64358691D01*
X61504223Y-64294781D01*
X61309534Y-64231522D01*
X61134995Y-64203878D01*
X61107352Y-64199500D01*
X60902648Y-64199500D01*
X60878329Y-64203351D01*
X60700465Y-64231522D01*
X60505776Y-64294781D01*
X60323386Y-64387715D01*
X60157786Y-64508028D01*
X60013028Y-64652786D01*
X59892715Y-64818386D01*
X59799781Y-65000776D01*
X59736522Y-65195465D01*
X59704500Y-65397648D01*
X59704500Y-65602351D01*
X59736522Y-65804534D01*
X59741173Y-65818848D01*
X59743165Y-65888690D01*
X59710921Y-65944842D01*
X55212181Y-70443583D01*
X55150858Y-70477068D01*
X55081166Y-70472084D01*
X55025233Y-70430212D01*
X55000816Y-70364748D01*
X55000500Y-70355902D01*
X55000500Y-58353713D01*
X56284500Y-58353713D01*
X56284500Y-58566286D01*
X56317753Y-58776239D01*
X56383444Y-58978414D01*
X56479951Y-59167820D01*
X56604890Y-59339786D01*
X56755213Y-59490109D01*
X56927182Y-59615050D01*
X56935946Y-59619516D01*
X56986742Y-59667491D01*
X57003536Y-59735312D01*
X56980998Y-59801447D01*
X56935946Y-59840484D01*
X56927182Y-59844949D01*
X56755213Y-59969890D01*
X56604890Y-60120213D01*
X56479951Y-60292179D01*
X56383444Y-60481585D01*
X56317753Y-60683760D01*
X56294010Y-60833669D01*
X56284500Y-60893713D01*
X56284500Y-61106287D01*
X56317754Y-61316243D01*
X56377494Y-61500104D01*
X56383444Y-61518414D01*
X56479951Y-61707820D01*
X56604890Y-61879786D01*
X56718818Y-61993714D01*
X56752303Y-62055037D01*
X56747319Y-62124729D01*
X56705447Y-62180662D01*
X56674471Y-62197577D01*
X56542912Y-62246646D01*
X56542906Y-62246649D01*
X56427812Y-62332809D01*
X56427809Y-62332812D01*
X56341649Y-62447906D01*
X56341645Y-62447913D01*
X56291403Y-62582620D01*
X56291401Y-62582627D01*
X56285000Y-62642155D01*
X56285000Y-63290000D01*
X57201988Y-63290000D01*
X57169075Y-63347007D01*
X57135000Y-63474174D01*
X57135000Y-63605826D01*
X57169075Y-63732993D01*
X57201988Y-63790000D01*
X56285000Y-63790000D01*
X56285000Y-64437844D01*
X56291401Y-64497372D01*
X56291403Y-64497379D01*
X56341645Y-64632086D01*
X56341649Y-64632093D01*
X56427809Y-64747187D01*
X56427812Y-64747190D01*
X56542906Y-64833350D01*
X56542913Y-64833354D01*
X56677620Y-64883596D01*
X56677627Y-64883598D01*
X56737155Y-64889999D01*
X56737172Y-64890000D01*
X57385000Y-64890000D01*
X57385000Y-63973012D01*
X57442007Y-64005925D01*
X57569174Y-64040000D01*
X57700826Y-64040000D01*
X57827993Y-64005925D01*
X57885000Y-63973012D01*
X57885000Y-64890000D01*
X58532828Y-64890000D01*
X58532844Y-64889999D01*
X58592372Y-64883598D01*
X58592379Y-64883596D01*
X58727086Y-64833354D01*
X58727093Y-64833350D01*
X58842187Y-64747190D01*
X58842190Y-64747187D01*
X58928350Y-64632093D01*
X58928354Y-64632086D01*
X58978596Y-64497379D01*
X58978598Y-64497372D01*
X58984999Y-64437844D01*
X58985000Y-64437827D01*
X58985000Y-63790000D01*
X58068012Y-63790000D01*
X58100925Y-63732993D01*
X58135000Y-63605826D01*
X58135000Y-63474174D01*
X58100925Y-63347007D01*
X58068012Y-63290000D01*
X58985000Y-63290000D01*
X58985000Y-62642172D01*
X58984999Y-62642155D01*
X58978598Y-62582627D01*
X58978596Y-62582620D01*
X58928354Y-62447913D01*
X58928350Y-62447906D01*
X58842190Y-62332812D01*
X58842187Y-62332809D01*
X58727093Y-62246649D01*
X58727088Y-62246646D01*
X58595528Y-62197577D01*
X58539595Y-62155705D01*
X58515178Y-62090241D01*
X58530030Y-62021968D01*
X58551175Y-61993720D01*
X58665104Y-61879792D01*
X58745724Y-61768828D01*
X58790048Y-61707820D01*
X58790047Y-61707820D01*
X58790051Y-61707816D01*
X58886557Y-61518412D01*
X58952246Y-61316243D01*
X58985500Y-61106287D01*
X58985500Y-60893713D01*
X58952246Y-60683757D01*
X58886557Y-60481588D01*
X58790051Y-60292184D01*
X58790049Y-60292181D01*
X58790048Y-60292179D01*
X58665109Y-60120213D01*
X58514786Y-59969890D01*
X58342820Y-59844951D01*
X58342115Y-59844591D01*
X58334054Y-59840485D01*
X58283259Y-59792512D01*
X58266463Y-59724692D01*
X58288999Y-59658556D01*
X58334054Y-59619515D01*
X58342816Y-59615051D01*
X58367178Y-59597351D01*
X58514786Y-59490109D01*
X58514788Y-59490106D01*
X58514792Y-59490104D01*
X58665104Y-59339792D01*
X58665106Y-59339788D01*
X58665109Y-59339786D01*
X58790048Y-59167820D01*
X58790047Y-59167820D01*
X58790051Y-59167816D01*
X58886557Y-58978412D01*
X58952246Y-58776243D01*
X58985500Y-58566287D01*
X58985500Y-58402648D01*
X66699500Y-58402648D01*
X66699500Y-58607351D01*
X66731522Y-58809534D01*
X66794781Y-59004223D01*
X66887715Y-59186613D01*
X67008028Y-59352213D01*
X67152786Y-59496971D01*
X67258694Y-59573916D01*
X67318390Y-59617287D01*
X67409840Y-59663883D01*
X67411080Y-59664515D01*
X67461876Y-59712490D01*
X67478671Y-59780311D01*
X67456134Y-59846446D01*
X67411080Y-59885485D01*
X67318386Y-59932715D01*
X67152786Y-60053028D01*
X67008028Y-60197786D01*
X66887715Y-60363386D01*
X66794781Y-60545776D01*
X66731522Y-60740465D01*
X66699500Y-60942648D01*
X66699500Y-61147351D01*
X66731522Y-61349534D01*
X66794781Y-61544223D01*
X66887715Y-61726613D01*
X67008028Y-61892213D01*
X67152786Y-62036971D01*
X67272875Y-62124219D01*
X67318390Y-62157287D01*
X67434607Y-62216503D01*
X67500776Y-62250218D01*
X67500778Y-62250218D01*
X67500781Y-62250220D01*
X67605137Y-62284127D01*
X67695465Y-62313477D01*
X67796557Y-62329488D01*
X67897648Y-62345500D01*
X67897649Y-62345500D01*
X68102351Y-62345500D01*
X68102352Y-62345500D01*
X68304534Y-62313477D01*
X68499219Y-62250220D01*
X68681610Y-62157287D01*
X68774590Y-62089732D01*
X68847213Y-62036971D01*
X68847215Y-62036968D01*
X68847219Y-62036966D01*
X68991966Y-61892219D01*
X68991968Y-61892215D01*
X68991971Y-61892213D01*
X69081614Y-61768828D01*
X69112287Y-61726610D01*
X69205220Y-61544219D01*
X69268477Y-61349534D01*
X69300500Y-61147352D01*
X69300500Y-60942648D01*
X69268477Y-60740466D01*
X69262022Y-60720601D01*
X69225743Y-60608945D01*
X69205220Y-60545781D01*
X69205218Y-60545778D01*
X69205218Y-60545776D01*
X69149143Y-60435724D01*
X69112287Y-60363390D01*
X69084647Y-60325346D01*
X68991971Y-60197786D01*
X68847213Y-60053028D01*
X68681614Y-59932715D01*
X68636827Y-59909895D01*
X68588917Y-59885483D01*
X68538123Y-59837511D01*
X68521328Y-59769690D01*
X68543865Y-59703555D01*
X68588917Y-59664516D01*
X68681610Y-59617287D01*
X68741306Y-59573916D01*
X68847213Y-59496971D01*
X68847215Y-59496968D01*
X68847219Y-59496966D01*
X68991966Y-59352219D01*
X68991968Y-59352215D01*
X68991971Y-59352213D01*
X69044732Y-59279590D01*
X69112287Y-59186610D01*
X69205220Y-59004219D01*
X69268477Y-58809534D01*
X69300500Y-58607352D01*
X69300500Y-58402648D01*
X69270885Y-58215668D01*
X69268477Y-58200465D01*
X69220675Y-58053348D01*
X69205220Y-58005781D01*
X69205218Y-58005778D01*
X69205218Y-58005776D01*
X69158669Y-57914420D01*
X69112287Y-57823390D01*
X69095395Y-57800140D01*
X68991971Y-57657786D01*
X68847213Y-57513028D01*
X68681613Y-57392715D01*
X68681612Y-57392714D01*
X68681610Y-57392713D01*
X68624653Y-57363691D01*
X68499223Y-57299781D01*
X68304534Y-57236522D01*
X68125510Y-57208168D01*
X68102352Y-57204500D01*
X67897648Y-57204500D01*
X67874490Y-57208168D01*
X67695465Y-57236522D01*
X67500776Y-57299781D01*
X67318386Y-57392715D01*
X67152786Y-57513028D01*
X67008028Y-57657786D01*
X66887715Y-57823386D01*
X66794781Y-58005776D01*
X66731522Y-58200465D01*
X66699500Y-58402648D01*
X58985500Y-58402648D01*
X58985500Y-58353713D01*
X58952246Y-58143757D01*
X58886557Y-57941588D01*
X58790051Y-57752184D01*
X58790049Y-57752181D01*
X58790048Y-57752179D01*
X58665109Y-57580213D01*
X58514786Y-57429890D01*
X58342817Y-57304949D01*
X58333504Y-57300204D01*
X58282707Y-57252230D01*
X58265912Y-57184409D01*
X58288449Y-57118274D01*
X58333507Y-57079232D01*
X58342555Y-57074622D01*
X58396716Y-57035270D01*
X58396717Y-57035270D01*
X57764408Y-56402962D01*
X57827993Y-56385925D01*
X57942007Y-56320099D01*
X58035099Y-56227007D01*
X58100925Y-56112993D01*
X58117962Y-56049408D01*
X58750270Y-56681717D01*
X58750270Y-56681716D01*
X58789622Y-56627554D01*
X58886095Y-56438217D01*
X58951757Y-56236130D01*
X58951757Y-56236127D01*
X58985000Y-56026246D01*
X58985000Y-55813753D01*
X58951757Y-55603872D01*
X58951757Y-55603869D01*
X58886095Y-55401782D01*
X58789624Y-55212449D01*
X58750270Y-55158282D01*
X58750269Y-55158282D01*
X58117962Y-55790590D01*
X58100925Y-55727007D01*
X58035099Y-55612993D01*
X57942007Y-55519901D01*
X57827993Y-55454075D01*
X57764409Y-55437037D01*
X58396716Y-54804728D01*
X58342550Y-54765375D01*
X58153217Y-54668904D01*
X57951129Y-54603242D01*
X57741246Y-54570000D01*
X57528754Y-54570000D01*
X57318872Y-54603242D01*
X57318869Y-54603242D01*
X57116782Y-54668904D01*
X56927439Y-54765380D01*
X56873282Y-54804727D01*
X56873282Y-54804728D01*
X57505591Y-55437037D01*
X57442007Y-55454075D01*
X57327993Y-55519901D01*
X57234901Y-55612993D01*
X57169075Y-55727007D01*
X57152037Y-55790591D01*
X56519728Y-55158282D01*
X56519727Y-55158282D01*
X56480380Y-55212439D01*
X56383904Y-55401782D01*
X56318242Y-55603869D01*
X56318242Y-55603872D01*
X56285000Y-55813753D01*
X56285000Y-56026246D01*
X56318242Y-56236127D01*
X56318242Y-56236130D01*
X56383904Y-56438217D01*
X56480375Y-56627550D01*
X56519728Y-56681716D01*
X57152037Y-56049408D01*
X57169075Y-56112993D01*
X57234901Y-56227007D01*
X57327993Y-56320099D01*
X57442007Y-56385925D01*
X57505590Y-56402962D01*
X56873282Y-57035269D01*
X56873282Y-57035270D01*
X56927452Y-57074626D01*
X56927451Y-57074626D01*
X56936495Y-57079234D01*
X56987292Y-57127208D01*
X57004087Y-57195029D01*
X56981550Y-57261164D01*
X56936499Y-57300202D01*
X56927182Y-57304949D01*
X56755213Y-57429890D01*
X56604890Y-57580213D01*
X56479951Y-57752179D01*
X56383444Y-57941585D01*
X56317753Y-58143760D01*
X56284500Y-58353713D01*
X55000500Y-58353713D01*
X55000500Y-53124500D01*
X55020185Y-53057461D01*
X55072989Y-53011706D01*
X55124500Y-53000500D01*
X98875500Y-53000500D01*
X98942539Y-53020185D01*
G37*
%TD.AperFunction*%
%TA.AperFunction,Conductor*%
G36*
X73381418Y-61957828D02*
G01*
X73437352Y-61999699D01*
X73456015Y-62035691D01*
X73484780Y-62124219D01*
X73547161Y-62246649D01*
X73577715Y-62306613D01*
X73698028Y-62472213D01*
X73842786Y-62616971D01*
X74008385Y-62737284D01*
X74008387Y-62737285D01*
X74008390Y-62737287D01*
X74101630Y-62784795D01*
X74152426Y-62832770D01*
X74169221Y-62900591D01*
X74146684Y-62966725D01*
X74101630Y-63005765D01*
X74008644Y-63053143D01*
X73964077Y-63085523D01*
X73964077Y-63085524D01*
X74643554Y-63765000D01*
X74637339Y-63765000D01*
X74535606Y-63792259D01*
X74444394Y-63844920D01*
X74369920Y-63919394D01*
X74317259Y-64010606D01*
X74290000Y-64112339D01*
X74290000Y-64118553D01*
X73610524Y-63439077D01*
X73610523Y-63439077D01*
X73578143Y-63483644D01*
X73485244Y-63665968D01*
X73422009Y-63860582D01*
X73390000Y-64062682D01*
X73390000Y-64267317D01*
X73422009Y-64469417D01*
X73485244Y-64664031D01*
X73578141Y-64846350D01*
X73578147Y-64846359D01*
X73610523Y-64890921D01*
X73610524Y-64890922D01*
X74290000Y-64211446D01*
X74290000Y-64217661D01*
X74317259Y-64319394D01*
X74369920Y-64410606D01*
X74444394Y-64485080D01*
X74535606Y-64537741D01*
X74637339Y-64565000D01*
X74643553Y-64565000D01*
X73964076Y-65244474D01*
X74008652Y-65276861D01*
X74101628Y-65324234D01*
X74152425Y-65372208D01*
X74169220Y-65440029D01*
X74146683Y-65506164D01*
X74101630Y-65545203D01*
X74008388Y-65592713D01*
X73842786Y-65713028D01*
X73698028Y-65857786D01*
X73577715Y-66023386D01*
X73484781Y-66205776D01*
X73421522Y-66400465D01*
X73389500Y-66602648D01*
X73389500Y-66807351D01*
X73421522Y-67009534D01*
X73484781Y-67204223D01*
X73577715Y-67386613D01*
X73698028Y-67552213D01*
X73842786Y-67696971D01*
X73997749Y-67809556D01*
X74008390Y-67817287D01*
X74099840Y-67863883D01*
X74101080Y-67864515D01*
X74151876Y-67912490D01*
X74168671Y-67980311D01*
X74146134Y-68046446D01*
X74101080Y-68085485D01*
X74008386Y-68132715D01*
X73842786Y-68253028D01*
X73698028Y-68397786D01*
X73577715Y-68563386D01*
X73484781Y-68745776D01*
X73421522Y-68940465D01*
X73396242Y-69100079D01*
X73389500Y-69142648D01*
X73389500Y-69347352D01*
X73393005Y-69369480D01*
X73421522Y-69549534D01*
X73484781Y-69744223D01*
X73577715Y-69926613D01*
X73698028Y-70092213D01*
X73842786Y-70236971D01*
X73997749Y-70349556D01*
X74008390Y-70357287D01*
X74099840Y-70403883D01*
X74101080Y-70404515D01*
X74151876Y-70452490D01*
X74168671Y-70520311D01*
X74146134Y-70586446D01*
X74101080Y-70625485D01*
X74008386Y-70672715D01*
X73842786Y-70793028D01*
X73698028Y-70937786D01*
X73577715Y-71103386D01*
X73484781Y-71285776D01*
X73421522Y-71480465D01*
X73389500Y-71682648D01*
X73389500Y-71887351D01*
X73421522Y-72089534D01*
X73484781Y-72284223D01*
X73577715Y-72466613D01*
X73698028Y-72632213D01*
X73842786Y-72776971D01*
X73973699Y-72872083D01*
X74008390Y-72897287D01*
X74098523Y-72943212D01*
X74101080Y-72944515D01*
X74151876Y-72992490D01*
X74168671Y-73060311D01*
X74146134Y-73126446D01*
X74101080Y-73165485D01*
X74008386Y-73212715D01*
X73842786Y-73333028D01*
X73698028Y-73477786D01*
X73577715Y-73643386D01*
X73484781Y-73825776D01*
X73421522Y-74020465D01*
X73389500Y-74222648D01*
X73389500Y-74427351D01*
X73421522Y-74629534D01*
X73484781Y-74824223D01*
X73548691Y-74949653D01*
X73574467Y-75000240D01*
X73577715Y-75006613D01*
X73698028Y-75172213D01*
X73842786Y-75316971D01*
X73963116Y-75404394D01*
X74008390Y-75437287D01*
X74108505Y-75488298D01*
X74190776Y-75530218D01*
X74190778Y-75530218D01*
X74190781Y-75530220D01*
X74265612Y-75554534D01*
X74385465Y-75593477D01*
X74449082Y-75603553D01*
X74587648Y-75625500D01*
X74587649Y-75625500D01*
X74792351Y-75625500D01*
X74792352Y-75625500D01*
X74994534Y-75593477D01*
X75189219Y-75530220D01*
X75371610Y-75437287D01*
X75488514Y-75352352D01*
X75537213Y-75316971D01*
X75537215Y-75316968D01*
X75537219Y-75316966D01*
X75681966Y-75172219D01*
X75681968Y-75172215D01*
X75681971Y-75172213D01*
X75753890Y-75073223D01*
X75802287Y-75006610D01*
X75895220Y-74824219D01*
X75958477Y-74629534D01*
X75990500Y-74427352D01*
X75990500Y-74222648D01*
X75976539Y-74134500D01*
X75958477Y-74020465D01*
X75895218Y-73825776D01*
X75856743Y-73750265D01*
X75802287Y-73643390D01*
X75746848Y-73567084D01*
X75681971Y-73477786D01*
X75537213Y-73333028D01*
X75371614Y-73212715D01*
X75344271Y-73198783D01*
X75278917Y-73165483D01*
X75228123Y-73117511D01*
X75211328Y-73049690D01*
X75233865Y-72983555D01*
X75278917Y-72944516D01*
X75371610Y-72897287D01*
X75433904Y-72852028D01*
X75537213Y-72776971D01*
X75537215Y-72776968D01*
X75537219Y-72776966D01*
X75681966Y-72632219D01*
X75681968Y-72632215D01*
X75681971Y-72632213D01*
X75752529Y-72535096D01*
X75802287Y-72466610D01*
X75895220Y-72284219D01*
X75958477Y-72089534D01*
X75990500Y-71887352D01*
X75990500Y-71682648D01*
X75974051Y-71578794D01*
X75958477Y-71480465D01*
X75905814Y-71318386D01*
X75895220Y-71285781D01*
X75895218Y-71285778D01*
X75895218Y-71285776D01*
X75860386Y-71217416D01*
X75802287Y-71103390D01*
X75762959Y-71049259D01*
X75681971Y-70937786D01*
X75537213Y-70793028D01*
X75371614Y-70672715D01*
X75317893Y-70645343D01*
X75278917Y-70625483D01*
X75228123Y-70577511D01*
X75211328Y-70509690D01*
X75233865Y-70443555D01*
X75278917Y-70404516D01*
X75371610Y-70357287D01*
X75476911Y-70280782D01*
X75537213Y-70236971D01*
X75537215Y-70236968D01*
X75537219Y-70236966D01*
X75681966Y-70092219D01*
X75681968Y-70092215D01*
X75681971Y-70092213D01*
X75752715Y-69994840D01*
X75802287Y-69926610D01*
X75895220Y-69744219D01*
X75935465Y-69620357D01*
X75974901Y-69562684D01*
X76039260Y-69535485D01*
X76108106Y-69547400D01*
X76141076Y-69570996D01*
X76763181Y-70193101D01*
X76796666Y-70254424D01*
X76799500Y-70280782D01*
X76799500Y-76245991D01*
X76779815Y-76313030D01*
X76727011Y-76358785D01*
X76657853Y-76368729D01*
X76619206Y-76356476D01*
X76499034Y-76295245D01*
X76304417Y-76232009D01*
X76102317Y-76200000D01*
X75897683Y-76200000D01*
X75695582Y-76232009D01*
X75500968Y-76295244D01*
X75318644Y-76388143D01*
X75274077Y-76420523D01*
X75274077Y-76420524D01*
X75953553Y-77100000D01*
X75947339Y-77100000D01*
X75845606Y-77127259D01*
X75754394Y-77179920D01*
X75679920Y-77254394D01*
X75627259Y-77345606D01*
X75600000Y-77447339D01*
X75600000Y-77453553D01*
X74920524Y-76774077D01*
X74920523Y-76774077D01*
X74888143Y-76818644D01*
X74795244Y-77000968D01*
X74732009Y-77195582D01*
X74700000Y-77397682D01*
X74700000Y-77602317D01*
X74732009Y-77804417D01*
X74795244Y-77999031D01*
X74888141Y-78181350D01*
X74888147Y-78181359D01*
X74920523Y-78225921D01*
X74920524Y-78225922D01*
X75600000Y-77546446D01*
X75600000Y-77552661D01*
X75627259Y-77654394D01*
X75679920Y-77745606D01*
X75754394Y-77820080D01*
X75845606Y-77872741D01*
X75947339Y-77900000D01*
X75953552Y-77900000D01*
X75274076Y-78579474D01*
X75318650Y-78611859D01*
X75500968Y-78704755D01*
X75695582Y-78767990D01*
X75897683Y-78800000D01*
X76102317Y-78800000D01*
X76304417Y-78767990D01*
X76499031Y-78704755D01*
X76619205Y-78643523D01*
X76687874Y-78630627D01*
X76752615Y-78656903D01*
X76792872Y-78714010D01*
X76799500Y-78754008D01*
X76799500Y-79234217D01*
X76779815Y-79301256D01*
X76763181Y-79321898D01*
X75911797Y-80173281D01*
X75850474Y-80206766D01*
X75843515Y-80208073D01*
X75695468Y-80231522D01*
X75500778Y-80294781D01*
X75318386Y-80387715D01*
X75197123Y-80475818D01*
X75131317Y-80499298D01*
X75124238Y-80499500D01*
X74701456Y-80499500D01*
X74508171Y-80537946D01*
X74508167Y-80537948D01*
X74508165Y-80537948D01*
X74508164Y-80537949D01*
X74432745Y-80569188D01*
X74432743Y-80569189D01*
X74326088Y-80613366D01*
X74253227Y-80662051D01*
X74253226Y-80662052D01*
X74162215Y-80722862D01*
X72707207Y-82177870D01*
X72645884Y-82211355D01*
X72576192Y-82206371D01*
X72520259Y-82164499D01*
X72501595Y-82128508D01*
X72468878Y-82027816D01*
X72455220Y-81985781D01*
X72455218Y-81985778D01*
X72455218Y-81985776D01*
X72386291Y-81850501D01*
X72362287Y-81803390D01*
X72320305Y-81745606D01*
X72241971Y-81637786D01*
X72097213Y-81493028D01*
X71931614Y-81372715D01*
X71919901Y-81366747D01*
X71838917Y-81325483D01*
X71788123Y-81277511D01*
X71771328Y-81209690D01*
X71793865Y-81143555D01*
X71838917Y-81104516D01*
X71931610Y-81057287D01*
X71958729Y-81037584D01*
X72097213Y-80936971D01*
X72097215Y-80936968D01*
X72097219Y-80936966D01*
X72241966Y-80792219D01*
X72241968Y-80792215D01*
X72241971Y-80792213D01*
X72307518Y-80701993D01*
X72362287Y-80626610D01*
X72455220Y-80444219D01*
X72518477Y-80249534D01*
X72550500Y-80047352D01*
X72550500Y-79842648D01*
X72518477Y-79640466D01*
X72513827Y-79626157D01*
X72511831Y-79556318D01*
X72544078Y-79500157D01*
X72580520Y-79463716D01*
X72659577Y-79326784D01*
X72700501Y-79174057D01*
X72700501Y-79015942D01*
X72700501Y-79008347D01*
X72700500Y-79008329D01*
X72700500Y-62587596D01*
X72720185Y-62520557D01*
X72736815Y-62499919D01*
X73250406Y-61986327D01*
X73311727Y-61952844D01*
X73381418Y-61957828D01*
G37*
%TD.AperFunction*%
%TA.AperFunction,Conductor*%
G36*
X63145000Y-75302661D02*
G01*
X63172259Y-75404394D01*
X63224920Y-75495606D01*
X63299394Y-75570080D01*
X63390606Y-75622741D01*
X63492339Y-75650000D01*
X63498552Y-75650000D01*
X62819076Y-76329474D01*
X62863650Y-76361859D01*
X63045968Y-76454755D01*
X63240582Y-76517990D01*
X63442683Y-76550000D01*
X63647317Y-76550000D01*
X63849417Y-76517990D01*
X64044031Y-76454755D01*
X64219205Y-76365499D01*
X64287874Y-76352603D01*
X64352615Y-76378879D01*
X64392872Y-76435986D01*
X64399500Y-76475984D01*
X64399500Y-80939902D01*
X64379815Y-81006941D01*
X64363181Y-81027583D01*
X64156022Y-81234741D01*
X64094699Y-81268226D01*
X64025007Y-81263242D01*
X63969074Y-81221370D01*
X63944657Y-81155906D01*
X63945867Y-81127663D01*
X63950500Y-81098417D01*
X63950500Y-80901583D01*
X63950500Y-80901577D01*
X63919709Y-80707173D01*
X63883413Y-80595466D01*
X63858884Y-80519975D01*
X63858882Y-80519972D01*
X63858882Y-80519970D01*
X63810092Y-80424214D01*
X63769524Y-80344595D01*
X63653828Y-80185354D01*
X63514646Y-80046172D01*
X63421581Y-79978556D01*
X63355403Y-79930474D01*
X63178787Y-79840485D01*
X63127990Y-79792511D01*
X63111195Y-79724690D01*
X63133732Y-79658555D01*
X63178787Y-79619515D01*
X63355403Y-79529525D01*
X63355402Y-79529525D01*
X63355405Y-79529524D01*
X63514646Y-79413828D01*
X63653828Y-79274646D01*
X63769524Y-79115405D01*
X63858884Y-78940025D01*
X63919709Y-78752826D01*
X63928909Y-78694741D01*
X63950500Y-78558422D01*
X63950500Y-78361577D01*
X63919709Y-78167173D01*
X63865138Y-77999223D01*
X63858884Y-77979975D01*
X63858882Y-77979972D01*
X63858882Y-77979970D01*
X63774619Y-77814595D01*
X63769524Y-77804595D01*
X63653828Y-77645354D01*
X63514646Y-77506172D01*
X63355405Y-77390476D01*
X63180029Y-77301117D01*
X62992826Y-77240290D01*
X62798422Y-77209500D01*
X62798417Y-77209500D01*
X62601583Y-77209500D01*
X62601578Y-77209500D01*
X62407173Y-77240290D01*
X62219970Y-77301117D01*
X62044594Y-77390476D01*
X62016478Y-77410904D01*
X61885354Y-77506172D01*
X61885352Y-77506174D01*
X61885351Y-77506174D01*
X61817181Y-77574345D01*
X61755858Y-77607830D01*
X61686166Y-77602846D01*
X61630233Y-77560974D01*
X61605816Y-77495510D01*
X61605500Y-77486664D01*
X61605500Y-76479601D01*
X61625185Y-76412562D01*
X61673206Y-76369116D01*
X61686610Y-76362287D01*
X61852219Y-76241966D01*
X61996966Y-76097219D01*
X61996968Y-76097215D01*
X61996971Y-76097213D01*
X62085093Y-75975921D01*
X62117287Y-75931610D01*
X62164795Y-75838369D01*
X62212769Y-75787573D01*
X62280590Y-75770778D01*
X62346725Y-75793315D01*
X62385765Y-75838369D01*
X62433141Y-75931350D01*
X62433147Y-75931359D01*
X62465523Y-75975921D01*
X62465524Y-75975922D01*
X63145000Y-75296446D01*
X63145000Y-75302661D01*
G37*
%TD.AperFunction*%
%TA.AperFunction,Conductor*%
G36*
X94459124Y-72909322D02*
G01*
X94485491Y-72911208D01*
X94494536Y-72917020D01*
X94501568Y-72918549D01*
X94514247Y-72928039D01*
X94514454Y-72927730D01*
X94514457Y-72927732D01*
X94520967Y-72933069D01*
X94529788Y-72939671D01*
X94529826Y-72939696D01*
X94533344Y-72943214D01*
X94533345Y-72943216D01*
X94533349Y-72943220D01*
X94533355Y-72943225D01*
X95467636Y-73877506D01*
X95501121Y-73938829D01*
X95496137Y-74008521D01*
X95454265Y-74064454D01*
X95436251Y-74075671D01*
X95313648Y-74138141D01*
X95313645Y-74138143D01*
X95269077Y-74170523D01*
X95269077Y-74170524D01*
X95948554Y-74850000D01*
X95942339Y-74850000D01*
X95840606Y-74877259D01*
X95749394Y-74929920D01*
X95674920Y-75004394D01*
X95622259Y-75095606D01*
X95595000Y-75197339D01*
X95595000Y-75203553D01*
X94915524Y-74524077D01*
X94915523Y-74524077D01*
X94883143Y-74568644D01*
X94835765Y-74661630D01*
X94787790Y-74712426D01*
X94719969Y-74729221D01*
X94653834Y-74706683D01*
X94614795Y-74661630D01*
X94567284Y-74568385D01*
X94446971Y-74402786D01*
X94302213Y-74258028D01*
X94136613Y-74137715D01*
X94136612Y-74137714D01*
X94136610Y-74137713D01*
X94045037Y-74091054D01*
X93954223Y-74044781D01*
X93759534Y-73981522D01*
X93584995Y-73953878D01*
X93557352Y-73949500D01*
X93352648Y-73949500D01*
X93328329Y-73953351D01*
X93150465Y-73981522D01*
X92955776Y-74044781D01*
X92773386Y-74137715D01*
X92607786Y-74258028D01*
X92607782Y-74258032D01*
X92562181Y-74303634D01*
X92500858Y-74337119D01*
X92431166Y-74332135D01*
X92375233Y-74290263D01*
X92350816Y-74224799D01*
X92350500Y-74215953D01*
X92350500Y-73034047D01*
X92370185Y-72967008D01*
X92422989Y-72921253D01*
X92492147Y-72911309D01*
X92555703Y-72940334D01*
X92562181Y-72946366D01*
X92607786Y-72991971D01*
X92739532Y-73087688D01*
X92773390Y-73112287D01*
X92877797Y-73165485D01*
X92955776Y-73205218D01*
X92955778Y-73205218D01*
X92955781Y-73205220D01*
X93021410Y-73226544D01*
X93150465Y-73268477D01*
X93179843Y-73273130D01*
X93352648Y-73300500D01*
X93352649Y-73300500D01*
X93557351Y-73300500D01*
X93557352Y-73300500D01*
X93759534Y-73268477D01*
X93954219Y-73205220D01*
X94136610Y-73112287D01*
X94244299Y-73034047D01*
X94302213Y-72991971D01*
X94302215Y-72991968D01*
X94302219Y-72991966D01*
X94354476Y-72939709D01*
X94362411Y-72935375D01*
X94367832Y-72928133D01*
X94392603Y-72918889D01*
X94415799Y-72906224D01*
X94424818Y-72906869D01*
X94433293Y-72903707D01*
X94459124Y-72909322D01*
G37*
%TD.AperFunction*%
%TA.AperFunction,Conductor*%
G36*
X71124474Y-66225921D02*
G01*
X71156859Y-66181349D01*
X71249755Y-65999029D01*
X71257569Y-65974983D01*
X71297006Y-65917308D01*
X71361365Y-65890109D01*
X71430211Y-65902024D01*
X71481687Y-65949268D01*
X71499500Y-66013301D01*
X71499500Y-68235081D01*
X71479815Y-68302120D01*
X71427011Y-68347875D01*
X71357853Y-68357819D01*
X71294297Y-68328794D01*
X71257569Y-68273400D01*
X71250220Y-68250781D01*
X71157287Y-68068390D01*
X71125092Y-68024077D01*
X71036971Y-67902786D01*
X70892213Y-67758028D01*
X70726613Y-67637715D01*
X70726612Y-67637714D01*
X70726610Y-67637713D01*
X70669653Y-67608691D01*
X70544223Y-67544781D01*
X70349534Y-67481522D01*
X70174995Y-67453878D01*
X70147352Y-67449500D01*
X69942648Y-67449500D01*
X69918329Y-67453351D01*
X69740465Y-67481522D01*
X69590976Y-67530095D01*
X69545781Y-67544780D01*
X69545778Y-67544781D01*
X69545773Y-67544783D01*
X69530792Y-67552416D01*
X69462123Y-67565311D01*
X69397383Y-67539033D01*
X69357127Y-67481925D01*
X69350500Y-67441930D01*
X69350500Y-66834054D01*
X69350500Y-66824058D01*
X69350501Y-66824057D01*
X69350501Y-66807504D01*
X69363914Y-66761831D01*
X69370186Y-66740470D01*
X69370187Y-66740469D01*
X69370188Y-66740466D01*
X69408719Y-66707081D01*
X69422990Y-66694715D01*
X69422994Y-66694713D01*
X69454338Y-66690207D01*
X69492148Y-66684771D01*
X69492151Y-66684772D01*
X69492153Y-66684772D01*
X69492157Y-66684773D01*
X69530796Y-66697024D01*
X69545968Y-66704755D01*
X69740582Y-66767990D01*
X69942683Y-66800000D01*
X70147317Y-66800000D01*
X70349417Y-66767990D01*
X70544031Y-66704755D01*
X70726349Y-66611859D01*
X70770921Y-66579474D01*
X70091446Y-65900000D01*
X70097661Y-65900000D01*
X70199394Y-65872741D01*
X70290606Y-65820080D01*
X70365080Y-65745606D01*
X70417741Y-65654394D01*
X70445000Y-65552661D01*
X70445000Y-65546447D01*
X71124474Y-66225921D01*
G37*
%TD.AperFunction*%
%TA.AperFunction,Conductor*%
G36*
X74818675Y-56618022D02*
G01*
X74874609Y-56659893D01*
X74885825Y-56677905D01*
X74887714Y-56681613D01*
X75008028Y-56847213D01*
X75152786Y-56991971D01*
X75272893Y-57079232D01*
X75318390Y-57112287D01*
X75434607Y-57171503D01*
X75500776Y-57205218D01*
X75500778Y-57205218D01*
X75500781Y-57205220D01*
X75565896Y-57226377D01*
X75695465Y-57268477D01*
X75772966Y-57280751D01*
X75843513Y-57291925D01*
X75906648Y-57321854D01*
X75911797Y-57326717D01*
X76463181Y-57878101D01*
X76496666Y-57939424D01*
X76499500Y-57965782D01*
X76499500Y-63429217D01*
X76479815Y-63496256D01*
X76463181Y-63516898D01*
X76140680Y-63839399D01*
X76079357Y-63872884D01*
X76009665Y-63867900D01*
X75953732Y-63826028D01*
X75935068Y-63790037D01*
X75894755Y-63665968D01*
X75801859Y-63483650D01*
X75769474Y-63439077D01*
X75769474Y-63439076D01*
X75090000Y-64118553D01*
X75090000Y-64112339D01*
X75062741Y-64010606D01*
X75010080Y-63919394D01*
X74935606Y-63844920D01*
X74844394Y-63792259D01*
X74742661Y-63765000D01*
X74736446Y-63765000D01*
X75415922Y-63085524D01*
X75415921Y-63085523D01*
X75371359Y-63053147D01*
X75371350Y-63053141D01*
X75278369Y-63005765D01*
X75227573Y-62957790D01*
X75210778Y-62889969D01*
X75233315Y-62823835D01*
X75278370Y-62784795D01*
X75371610Y-62737287D01*
X75502526Y-62642172D01*
X75537213Y-62616971D01*
X75537215Y-62616968D01*
X75537219Y-62616966D01*
X75681966Y-62472219D01*
X75681968Y-62472215D01*
X75681971Y-62472213D01*
X75774032Y-62345500D01*
X75802287Y-62306610D01*
X75895220Y-62124219D01*
X75958477Y-61929534D01*
X75990500Y-61727352D01*
X75990500Y-61522648D01*
X75958477Y-61320466D01*
X75895220Y-61125781D01*
X75895218Y-61125778D01*
X75895218Y-61125776D01*
X75843382Y-61024044D01*
X75802287Y-60943390D01*
X75730709Y-60844870D01*
X75681971Y-60777786D01*
X75537219Y-60633034D01*
X75491966Y-60600156D01*
X75443547Y-60564978D01*
X75400882Y-60509649D01*
X75394903Y-60440036D01*
X75427508Y-60378240D01*
X75477426Y-60346955D01*
X75559334Y-60319814D01*
X75708656Y-60227712D01*
X75832712Y-60103656D01*
X75924814Y-59954334D01*
X75979999Y-59787797D01*
X75990500Y-59685009D01*
X75990499Y-58484992D01*
X75982087Y-58402648D01*
X75979999Y-58382203D01*
X75979998Y-58382200D01*
X75954391Y-58304923D01*
X75924814Y-58215666D01*
X75832712Y-58066344D01*
X75708656Y-57942288D01*
X75559334Y-57850186D01*
X75392797Y-57795001D01*
X75392795Y-57795000D01*
X75290016Y-57784500D01*
X75290009Y-57784500D01*
X74469500Y-57784500D01*
X74402461Y-57764815D01*
X74356706Y-57712011D01*
X74345500Y-57660500D01*
X74345500Y-56979601D01*
X74365185Y-56912562D01*
X74413206Y-56869116D01*
X74426610Y-56862287D01*
X74592219Y-56741966D01*
X74687664Y-56646520D01*
X74748983Y-56613038D01*
X74818675Y-56618022D01*
G37*
%TD.AperFunction*%
%TD*%
M02*
