%TF.GenerationSoftware,KiCad,Pcbnew,10.0.1*%
%TF.CreationDate,2026-06-20T14:04:33+02:00*%
%TF.ProjectId,DMH_Submodule_VCA,444d485f-5375-4626-9d6f-64756c655f56,1*%
%TF.SameCoordinates,Original*%
%TF.FileFunction,Copper,L2,Bot*%
%TF.FilePolarity,Positive*%
%FSLAX46Y46*%
G04 Gerber Fmt 4.6, Leading zero omitted, Abs format (unit mm)*
G04 Created by KiCad (PCBNEW 10.0.1) date 2026-06-20 14:04:33*
%MOMM*%
%LPD*%
G01*
G04 APERTURE LIST*
G04 Aperture macros list*
%AMRoundRect*
0 Rectangle with rounded corners*
0 $1 Rounding radius*
0 $2 $3 $4 $5 $6 $7 $8 $9 X,Y pos of 4 corners*
0 Add a 4 corners polygon primitive as box body*
4,1,4,$2,$3,$4,$5,$6,$7,$8,$9,$2,$3,0*
0 Add four circle primitives for the rounded corners*
1,1,$1+$1,$2,$3*
1,1,$1+$1,$4,$5*
1,1,$1+$1,$6,$7*
1,1,$1+$1,$8,$9*
0 Add four rect primitives between the rounded corners*
20,1,$1+$1,$2,$3,$4,$5,0*
20,1,$1+$1,$4,$5,$6,$7,0*
20,1,$1+$1,$6,$7,$8,$9,0*
20,1,$1+$1,$8,$9,$2,$3,0*%
G04 Aperture macros list end*
%TA.AperFunction,ComponentPad*%
%ADD10C,1.600000*%
%TD*%
%TA.AperFunction,ComponentPad*%
%ADD11C,1.440000*%
%TD*%
%TA.AperFunction,ComponentPad*%
%ADD12R,1.500000X1.500000*%
%TD*%
%TA.AperFunction,ComponentPad*%
%ADD13C,1.500000*%
%TD*%
%TA.AperFunction,ComponentPad*%
%ADD14R,1.700000X1.700000*%
%TD*%
%TA.AperFunction,ComponentPad*%
%ADD15C,1.700000*%
%TD*%
%TA.AperFunction,ComponentPad*%
%ADD16RoundRect,0.250000X-0.550000X-0.550000X0.550000X-0.550000X0.550000X0.550000X-0.550000X0.550000X0*%
%TD*%
%TA.AperFunction,Conductor*%
%ADD17C,0.200000*%
%TD*%
%TA.AperFunction,Conductor*%
%ADD18C,1.000000*%
%TD*%
G04 APERTURE END LIST*
D10*
%TO.P,R4,1*%
%TO.N,Net-(Q1-C)*%
X64310000Y-52000000D03*
%TO.P,R4,2*%
%TO.N,+12V*%
X56690000Y-52000000D03*
%TD*%
D11*
%TO.P,RV1,1,1_1*%
%TO.N,-12V*%
X63040000Y-57745000D03*
%TO.P,RV1,2,2_2*%
%TO.N,Net-(R10-Pad1)*%
X60500000Y-57745000D03*
%TO.P,RV1,3,3_3*%
%TO.N,+12V*%
X57960000Y-57745000D03*
%TD*%
D12*
%TO.P,Q1,1,C_1*%
%TO.N,Net-(Q1-C)*%
X75450000Y-56800000D03*
D13*
%TO.P,Q1,2,B_2*%
%TO.N,Net-(Q1-B)*%
X75450000Y-54260000D03*
%TO.P,Q1,3,E_3*%
%TO.N,Net-(Q1-E)*%
X75450000Y-51720000D03*
%TD*%
D10*
%TO.P,R7,1*%
%TO.N,GND*%
X86650000Y-59360000D03*
%TO.P,R7,2*%
%TO.N,Net-(Q2-B)*%
X86650000Y-51740000D03*
%TD*%
%TO.P,R3,1*%
%TO.N,GND*%
X67250000Y-59310000D03*
%TO.P,R3,2*%
%TO.N,Net-(Q1-B)*%
X67250000Y-51690000D03*
%TD*%
%TO.P,R10,1*%
%TO.N,Net-(R10-Pad1)*%
X56690000Y-68250000D03*
%TO.P,R10,2*%
%TO.N,Net-(Q2-B)*%
X64310000Y-68250000D03*
%TD*%
%TO.P,R9,1*%
%TO.N,Net-(U1B-+)*%
X67250000Y-70560000D03*
%TO.P,R9,2*%
%TO.N,Net-(Q2-C)*%
X67250000Y-62940000D03*
%TD*%
%TO.P,R5,1*%
%TO.N,Net-(R1-Pad2)*%
X70250000Y-59310000D03*
%TO.P,R5,2*%
%TO.N,Net-(Q1-E)*%
X70250000Y-51690000D03*
%TD*%
%TO.P,C2,1*%
%TO.N,GND*%
X66000000Y-74250000D03*
%TO.P,C2,2*%
%TO.N,-12V*%
X71000000Y-74250000D03*
%TD*%
%TO.P,R11,1*%
%TO.N,Net-(U1B-+)*%
X70250000Y-62940000D03*
%TO.P,R11,2*%
%TO.N,GND*%
X70250000Y-70560000D03*
%TD*%
%TO.P,C1,1*%
%TO.N,+12V*%
X81250000Y-63250000D03*
%TO.P,C1,2*%
%TO.N,GND*%
X76250000Y-63250000D03*
%TD*%
D14*
%TO.P,J1,1,Pin_1_1*%
%TO.N,+12V*%
X88340000Y-64960000D03*
D15*
%TO.P,J1,2,Pin_2_2*%
%TO.N,/CV Mix In*%
X90880000Y-64960000D03*
%TO.P,J1,3,Pin_3_3*%
%TO.N,-12V*%
X88340000Y-67500000D03*
%TO.P,J1,4,Pin_4_4*%
%TO.N,/Signal In*%
X90880000Y-67500000D03*
%TO.P,J1,5,Pin_5_5*%
%TO.N,GND*%
X88340000Y-70040000D03*
%TO.P,J1,6,Pin_6_6*%
%TO.N,/Signal Out*%
X90880000Y-70040000D03*
%TD*%
D10*
%TO.P,R1,1*%
%TO.N,/CV Mix In*%
X92650000Y-59360000D03*
%TO.P,R1,2*%
%TO.N,Net-(R1-Pad2)*%
X92650000Y-51740000D03*
%TD*%
D16*
%TO.P,U1,1*%
%TO.N,Net-(R1-Pad2)*%
X73690000Y-66190000D03*
D10*
%TO.P,U1,2,-_2*%
%TO.N,/CV Mix In*%
X73690000Y-68730000D03*
%TO.P,U1,3,+_3*%
%TO.N,GND*%
X73690000Y-71270000D03*
%TO.P,U1,4,V-_4*%
%TO.N,-12V*%
X73690000Y-73810000D03*
%TO.P,U1,5,+_5*%
%TO.N,Net-(U1B-+)*%
X81310000Y-73810000D03*
%TO.P,U1,6,-_6*%
%TO.N,Net-(U1B--)*%
X81310000Y-71270000D03*
%TO.P,U1,7*%
%TO.N,/Signal Out*%
X81310000Y-68730000D03*
%TO.P,U1,8,V+_8*%
%TO.N,+12V*%
X81310000Y-66190000D03*
%TD*%
%TO.P,R12,1*%
%TO.N,/Signal Out*%
X84500000Y-65690000D03*
%TO.P,R12,2*%
%TO.N,Net-(U1B--)*%
X84500000Y-73310000D03*
%TD*%
D12*
%TO.P,Q2,1,C_1*%
%TO.N,Net-(Q2-C)*%
X81700000Y-56800000D03*
D13*
%TO.P,Q2,2,B_2*%
%TO.N,Net-(Q2-B)*%
X81700000Y-54260000D03*
%TO.P,Q2,3,E_3*%
%TO.N,Net-(Q1-E)*%
X81700000Y-51720000D03*
%TD*%
D10*
%TO.P,R2,1*%
%TO.N,Net-(Q1-B)*%
X89650000Y-51740000D03*
%TO.P,R2,2*%
%TO.N,/Signal In*%
X89650000Y-59360000D03*
%TD*%
%TO.P,R8,1*%
%TO.N,Net-(U1B--)*%
X81310000Y-60000000D03*
%TO.P,R8,2*%
%TO.N,Net-(Q1-C)*%
X73690000Y-60000000D03*
%TD*%
%TO.P,R6,1*%
%TO.N,Net-(Q2-C)*%
X64310000Y-63500000D03*
%TO.P,R6,2*%
%TO.N,+12V*%
X56690000Y-63500000D03*
%TD*%
%TO.N,Net-(Q1-C)*%
D17*
X69110000Y-56800000D02*
X75450000Y-56800000D01*
X64310000Y-52000000D02*
X69110000Y-56800000D01*
%TO.N,+12V*%
D18*
X77068679Y-66190000D02*
X81310000Y-66190000D01*
X71100000Y-65000000D02*
X71900000Y-64200000D01*
X58190000Y-65000000D02*
X71100000Y-65000000D01*
X75078679Y-64200000D02*
X77068679Y-66190000D01*
X56690000Y-63500000D02*
X58190000Y-65000000D01*
X71900000Y-64200000D02*
X75078679Y-64200000D01*
%TO.N,-12V*%
X73690000Y-73810000D02*
X75380000Y-75500000D01*
X72490000Y-73810000D02*
X73690000Y-73810000D01*
X84750000Y-75500000D02*
X86000000Y-74250000D01*
X86000000Y-69840000D02*
X88340000Y-67500000D01*
X86000000Y-74250000D02*
X86000000Y-69840000D01*
X72050000Y-74250000D02*
X72490000Y-73810000D01*
X71000000Y-74250000D02*
X72050000Y-74250000D01*
X75380000Y-75500000D02*
X84750000Y-75500000D01*
%TO.N,Net-(Q1-B)*%
D17*
X76710000Y-53000000D02*
X83200000Y-53000000D01*
X69820000Y-54260000D02*
X75450000Y-54260000D01*
X83200000Y-53000000D02*
X85610000Y-50590000D01*
X67250000Y-51690000D02*
X69820000Y-54260000D01*
X75450000Y-54260000D02*
X76710000Y-53000000D01*
X85610000Y-50590000D02*
X88900000Y-50590000D01*
X88900000Y-50590000D02*
X90000000Y-51690000D01*
%TO.N,Net-(Q1-E)*%
X70250000Y-51690000D02*
X75420000Y-51690000D01*
X75450000Y-51720000D02*
X81700000Y-51720000D01*
X75420000Y-51690000D02*
X75450000Y-51720000D01*
%TO.N,Net-(Q2-B)*%
X83400000Y-66100000D02*
X83400000Y-54260000D01*
X82000000Y-67500000D02*
X83400000Y-66100000D01*
X65950000Y-68250000D02*
X66700000Y-67500000D01*
X83400000Y-54260000D02*
X84430000Y-54260000D01*
X81700000Y-54260000D02*
X83400000Y-54260000D01*
X66700000Y-67500000D02*
X82000000Y-67500000D01*
X84430000Y-54260000D02*
X87000000Y-51690000D01*
X64310000Y-68250000D02*
X65950000Y-68250000D01*
%TO.N,Net-(Q2-C)*%
X68690000Y-61500000D02*
X77000000Y-61500000D01*
X77000000Y-61500000D02*
X81700000Y-56800000D01*
X67210000Y-62900000D02*
X67250000Y-62940000D01*
X67250000Y-62940000D02*
X68690000Y-61500000D01*
X65500000Y-63500000D02*
X66100000Y-62900000D01*
X64310000Y-63500000D02*
X65500000Y-63500000D01*
X66100000Y-62900000D02*
X67210000Y-62900000D01*
%TO.N,/Signal In*%
X89650000Y-66270000D02*
X90880000Y-67500000D01*
X89650000Y-59360000D02*
X89650000Y-66270000D01*
%TO.N,/Signal Out*%
X86800000Y-66200000D02*
X88800000Y-66200000D01*
X89600000Y-67000000D02*
X89600000Y-68760000D01*
X86200000Y-65600000D02*
X86800000Y-66200000D01*
X88800000Y-66200000D02*
X89600000Y-67000000D01*
X84500000Y-65690000D02*
X84590000Y-65600000D01*
X89600000Y-68760000D02*
X90880000Y-70040000D01*
X84590000Y-65600000D02*
X86200000Y-65600000D01*
%TO.N,Net-(U1B--)*%
X82460000Y-71270000D02*
X84500000Y-73310000D01*
X81310000Y-71270000D02*
X82460000Y-71270000D01*
%TD*%
%TA.AperFunction,Conductor*%
%TO.N,GND*%
G36*
X85117941Y-50020185D02*
G01*
X85163696Y-50072989D01*
X85173640Y-50142147D01*
X85144615Y-50205703D01*
X85138583Y-50212181D01*
X83083630Y-52267134D01*
X83022307Y-52300619D01*
X82952615Y-52295635D01*
X82896682Y-52253763D01*
X82872265Y-52188299D01*
X82878017Y-52141138D01*
X82919709Y-52012826D01*
X82933480Y-51925881D01*
X82950500Y-51818422D01*
X82950500Y-51621577D01*
X82919709Y-51427173D01*
X82872856Y-51282977D01*
X82858884Y-51239975D01*
X82858882Y-51239972D01*
X82858882Y-51239970D01*
X82787469Y-51099815D01*
X82769524Y-51064595D01*
X82653828Y-50905354D01*
X82514646Y-50766172D01*
X82355405Y-50650476D01*
X82310730Y-50627713D01*
X82180029Y-50561117D01*
X81992826Y-50500290D01*
X81798422Y-50469500D01*
X81798417Y-50469500D01*
X81601583Y-50469500D01*
X81601578Y-50469500D01*
X81407173Y-50500290D01*
X81219970Y-50561117D01*
X81044594Y-50650476D01*
X80953741Y-50716485D01*
X80885354Y-50766172D01*
X80885352Y-50766174D01*
X80885351Y-50766174D01*
X80746174Y-50905351D01*
X80746174Y-50905352D01*
X80746172Y-50905354D01*
X80630477Y-51064594D01*
X80627722Y-51068386D01*
X80572392Y-51111051D01*
X80527404Y-51119500D01*
X76622596Y-51119500D01*
X76555557Y-51099815D01*
X76522278Y-51068386D01*
X76519523Y-51064594D01*
X76403828Y-50905354D01*
X76264646Y-50766172D01*
X76105405Y-50650476D01*
X76060730Y-50627713D01*
X75930029Y-50561117D01*
X75742826Y-50500290D01*
X75548422Y-50469500D01*
X75548417Y-50469500D01*
X75351583Y-50469500D01*
X75351578Y-50469500D01*
X75157173Y-50500290D01*
X74969970Y-50561117D01*
X74794594Y-50650476D01*
X74703741Y-50716485D01*
X74635354Y-50766172D01*
X74635352Y-50766174D01*
X74635351Y-50766174D01*
X74496174Y-50905351D01*
X74496172Y-50905354D01*
X74399516Y-51038387D01*
X74344189Y-51081051D01*
X74299201Y-51089500D01*
X71479602Y-51089500D01*
X71412563Y-51069815D01*
X71369117Y-51021795D01*
X71362284Y-51008385D01*
X71241971Y-50842786D01*
X71097213Y-50698028D01*
X70931613Y-50577715D01*
X70931612Y-50577714D01*
X70931610Y-50577713D01*
X70874653Y-50548691D01*
X70749223Y-50484781D01*
X70554534Y-50421522D01*
X70379995Y-50393878D01*
X70352352Y-50389500D01*
X70147648Y-50389500D01*
X70123329Y-50393351D01*
X69945465Y-50421522D01*
X69750776Y-50484781D01*
X69568386Y-50577715D01*
X69402786Y-50698028D01*
X69258028Y-50842786D01*
X69137715Y-51008386D01*
X69044781Y-51190776D01*
X68981522Y-51385465D01*
X68949500Y-51587648D01*
X68949500Y-51792351D01*
X68981522Y-51994534D01*
X69044781Y-52189223D01*
X69137712Y-52371609D01*
X69159770Y-52401969D01*
X69183249Y-52467776D01*
X69167423Y-52535830D01*
X69117317Y-52584524D01*
X69048839Y-52598399D01*
X68983730Y-52573049D01*
X68971770Y-52562535D01*
X68544077Y-52134842D01*
X68510592Y-52073519D01*
X68513828Y-52008841D01*
X68518477Y-51994534D01*
X68550500Y-51792352D01*
X68550500Y-51587648D01*
X68518477Y-51385466D01*
X68455220Y-51190781D01*
X68455218Y-51190778D01*
X68455218Y-51190776D01*
X68408870Y-51099815D01*
X68362287Y-51008390D01*
X68287428Y-50905354D01*
X68241971Y-50842786D01*
X68097213Y-50698028D01*
X67931613Y-50577715D01*
X67931612Y-50577714D01*
X67931610Y-50577713D01*
X67874653Y-50548691D01*
X67749223Y-50484781D01*
X67554534Y-50421522D01*
X67379995Y-50393878D01*
X67352352Y-50389500D01*
X67147648Y-50389500D01*
X67123329Y-50393351D01*
X66945465Y-50421522D01*
X66750776Y-50484781D01*
X66568386Y-50577715D01*
X66402786Y-50698028D01*
X66258028Y-50842786D01*
X66137715Y-51008386D01*
X66044781Y-51190776D01*
X65981522Y-51385465D01*
X65949500Y-51587648D01*
X65949500Y-51792351D01*
X65981522Y-51994534D01*
X66044781Y-52189223D01*
X66096385Y-52290500D01*
X66137712Y-52371609D01*
X66137715Y-52371613D01*
X66258028Y-52537213D01*
X66402786Y-52681971D01*
X66526312Y-52771716D01*
X66568390Y-52802287D01*
X66684607Y-52861503D01*
X66750776Y-52895218D01*
X66750778Y-52895218D01*
X66750781Y-52895220D01*
X66850095Y-52927489D01*
X66945465Y-52958477D01*
X67021375Y-52970500D01*
X67147648Y-52990500D01*
X67147649Y-52990500D01*
X67352351Y-52990500D01*
X67352352Y-52990500D01*
X67554534Y-52958477D01*
X67568842Y-52953827D01*
X67638682Y-52951831D01*
X67694842Y-52984077D01*
X69335139Y-54624374D01*
X69335149Y-54624385D01*
X69339479Y-54628715D01*
X69339480Y-54628716D01*
X69451284Y-54740520D01*
X69538095Y-54790639D01*
X69538097Y-54790641D01*
X69576151Y-54812611D01*
X69588215Y-54819577D01*
X69740943Y-54860501D01*
X69740946Y-54860501D01*
X69906653Y-54860501D01*
X69906669Y-54860500D01*
X74277404Y-54860500D01*
X74344443Y-54880185D01*
X74377722Y-54911614D01*
X74380475Y-54915403D01*
X74380476Y-54915405D01*
X74496172Y-55074646D01*
X74635354Y-55213828D01*
X74788621Y-55325184D01*
X74831285Y-55380512D01*
X74837264Y-55450125D01*
X74804658Y-55511920D01*
X74743819Y-55546278D01*
X74715736Y-55549500D01*
X74652130Y-55549500D01*
X74652123Y-55549501D01*
X74592516Y-55555908D01*
X74457671Y-55606202D01*
X74457664Y-55606206D01*
X74342455Y-55692452D01*
X74342452Y-55692455D01*
X74256206Y-55807664D01*
X74256202Y-55807671D01*
X74205908Y-55942517D01*
X74199501Y-56002116D01*
X74199501Y-56002123D01*
X74199500Y-56002135D01*
X74199500Y-56075500D01*
X74179815Y-56142539D01*
X74127011Y-56188294D01*
X74075500Y-56199500D01*
X69410097Y-56199500D01*
X69343058Y-56179815D01*
X69322416Y-56163181D01*
X65604077Y-52444842D01*
X65570592Y-52383519D01*
X65573828Y-52318841D01*
X65578477Y-52304534D01*
X65610500Y-52102352D01*
X65610500Y-51897648D01*
X65597951Y-51818417D01*
X65578477Y-51695465D01*
X65515218Y-51500776D01*
X65456463Y-51385465D01*
X65422287Y-51318390D01*
X65396558Y-51282977D01*
X65301971Y-51152786D01*
X65157213Y-51008028D01*
X64991613Y-50887715D01*
X64991612Y-50887714D01*
X64991610Y-50887713D01*
X64903436Y-50842786D01*
X64809223Y-50794781D01*
X64614534Y-50731522D01*
X64439995Y-50703878D01*
X64412352Y-50699500D01*
X64207648Y-50699500D01*
X64183329Y-50703351D01*
X64005465Y-50731522D01*
X63810776Y-50794781D01*
X63628386Y-50887715D01*
X63462786Y-51008028D01*
X63318028Y-51152786D01*
X63197715Y-51318386D01*
X63104781Y-51500776D01*
X63041522Y-51695465D01*
X63009500Y-51897648D01*
X63009500Y-52102351D01*
X63041522Y-52304534D01*
X63104781Y-52499223D01*
X63137041Y-52562535D01*
X63193746Y-52673825D01*
X63197715Y-52681613D01*
X63318028Y-52847213D01*
X63462786Y-52991971D01*
X63555504Y-53059333D01*
X63628390Y-53112287D01*
X63744607Y-53171503D01*
X63810776Y-53205218D01*
X63810778Y-53205218D01*
X63810781Y-53205220D01*
X63915137Y-53239127D01*
X64005465Y-53268477D01*
X64106557Y-53284488D01*
X64207648Y-53300500D01*
X64207649Y-53300500D01*
X64412351Y-53300500D01*
X64412352Y-53300500D01*
X64614534Y-53268477D01*
X64628842Y-53263827D01*
X64698682Y-53261831D01*
X64754842Y-53294077D01*
X68625139Y-57164374D01*
X68625149Y-57164385D01*
X68629479Y-57168715D01*
X68629480Y-57168716D01*
X68741284Y-57280520D01*
X68828095Y-57330639D01*
X68828097Y-57330641D01*
X68846180Y-57341081D01*
X68878215Y-57359577D01*
X69030943Y-57400500D01*
X69189057Y-57400500D01*
X74075501Y-57400500D01*
X74142540Y-57420185D01*
X74188295Y-57472989D01*
X74199501Y-57524500D01*
X74199501Y-57597876D01*
X74205908Y-57657483D01*
X74256202Y-57792328D01*
X74256206Y-57792335D01*
X74342452Y-57907544D01*
X74342455Y-57907547D01*
X74457664Y-57993793D01*
X74457671Y-57993797D01*
X74592517Y-58044091D01*
X74592516Y-58044091D01*
X74598525Y-58044737D01*
X74652127Y-58050500D01*
X76247872Y-58050499D01*
X76307483Y-58044091D01*
X76442331Y-57993796D01*
X76557546Y-57907546D01*
X76643796Y-57792331D01*
X76694091Y-57657483D01*
X76700500Y-57597873D01*
X76700499Y-56002128D01*
X76694091Y-55942517D01*
X76643796Y-55807669D01*
X76643795Y-55807668D01*
X76643793Y-55807664D01*
X76557547Y-55692455D01*
X76557544Y-55692452D01*
X76442335Y-55606206D01*
X76442328Y-55606202D01*
X76307482Y-55555908D01*
X76307483Y-55555908D01*
X76247883Y-55549501D01*
X76247881Y-55549500D01*
X76247873Y-55549500D01*
X76247865Y-55549500D01*
X76184267Y-55549500D01*
X76117228Y-55529815D01*
X76071473Y-55477011D01*
X76061529Y-55407853D01*
X76090554Y-55344297D01*
X76111381Y-55325182D01*
X76264646Y-55213828D01*
X76403828Y-55074646D01*
X76519524Y-54915405D01*
X76608884Y-54740025D01*
X76669709Y-54552826D01*
X76700500Y-54358422D01*
X76700500Y-54161577D01*
X76668976Y-53962545D01*
X76677930Y-53893252D01*
X76703768Y-53855466D01*
X76922416Y-53636819D01*
X76983739Y-53603334D01*
X77010097Y-53600500D01*
X80430213Y-53600500D01*
X80497252Y-53620185D01*
X80543007Y-53672989D01*
X80552951Y-53742147D01*
X80542456Y-53775247D01*
X80542983Y-53775466D01*
X80541119Y-53779964D01*
X80480290Y-53967173D01*
X80449500Y-54161577D01*
X80449500Y-54358422D01*
X80480290Y-54552826D01*
X80541117Y-54740029D01*
X80624307Y-54903297D01*
X80630476Y-54915405D01*
X80746172Y-55074646D01*
X80885354Y-55213828D01*
X81038621Y-55325184D01*
X81081285Y-55380512D01*
X81087264Y-55450125D01*
X81054658Y-55511920D01*
X80993819Y-55546278D01*
X80965736Y-55549500D01*
X80902130Y-55549500D01*
X80902123Y-55549501D01*
X80842516Y-55555908D01*
X80707671Y-55606202D01*
X80707664Y-55606206D01*
X80592455Y-55692452D01*
X80592452Y-55692455D01*
X80506206Y-55807664D01*
X80506202Y-55807671D01*
X80455908Y-55942517D01*
X80449501Y-56002116D01*
X80449501Y-56002123D01*
X80449500Y-56002135D01*
X80449500Y-57149901D01*
X80429815Y-57216940D01*
X80413181Y-57237582D01*
X76787584Y-60863181D01*
X76726261Y-60896666D01*
X76699903Y-60899500D01*
X74887345Y-60899500D01*
X74820306Y-60879815D01*
X74774551Y-60827011D01*
X74764607Y-60757853D01*
X74787026Y-60702615D01*
X74802287Y-60681610D01*
X74895220Y-60499219D01*
X74958477Y-60304534D01*
X74990500Y-60102352D01*
X74990500Y-59897648D01*
X74958477Y-59695466D01*
X74958476Y-59695464D01*
X74913034Y-59555606D01*
X74895220Y-59500781D01*
X74895218Y-59500778D01*
X74895218Y-59500776D01*
X74861503Y-59434607D01*
X74802287Y-59318390D01*
X74794258Y-59307339D01*
X74681971Y-59152786D01*
X74537213Y-59008028D01*
X74371613Y-58887715D01*
X74371612Y-58887714D01*
X74371610Y-58887713D01*
X74314653Y-58858691D01*
X74189223Y-58794781D01*
X73994534Y-58731522D01*
X73819995Y-58703878D01*
X73792352Y-58699500D01*
X73587648Y-58699500D01*
X73563329Y-58703351D01*
X73385465Y-58731522D01*
X73190776Y-58794781D01*
X73008386Y-58887715D01*
X72842786Y-59008028D01*
X72698028Y-59152786D01*
X72577715Y-59318386D01*
X72484781Y-59500776D01*
X72421522Y-59695465D01*
X72389500Y-59897648D01*
X72389500Y-60102351D01*
X72421522Y-60304534D01*
X72484781Y-60499223D01*
X72577712Y-60681609D01*
X72592974Y-60702615D01*
X72616453Y-60768422D01*
X72600627Y-60836476D01*
X72550521Y-60885170D01*
X72492655Y-60899500D01*
X68776670Y-60899500D01*
X68776654Y-60899499D01*
X68769058Y-60899499D01*
X68610943Y-60899499D01*
X68534579Y-60919961D01*
X68458214Y-60940423D01*
X68458209Y-60940426D01*
X68321290Y-61019475D01*
X68321282Y-61019481D01*
X67694841Y-61645921D01*
X67633518Y-61679406D01*
X67568845Y-61676172D01*
X67554535Y-61671523D01*
X67453443Y-61655511D01*
X67352352Y-61639500D01*
X67147648Y-61639500D01*
X67123329Y-61643351D01*
X66945465Y-61671522D01*
X66750776Y-61734781D01*
X66568386Y-61827715D01*
X66402786Y-61948028D01*
X66258032Y-62092782D01*
X66258028Y-62092787D01*
X66144981Y-62248385D01*
X66089652Y-62291051D01*
X66044663Y-62299500D01*
X66020943Y-62299500D01*
X65868215Y-62340423D01*
X65868214Y-62340423D01*
X65868212Y-62340424D01*
X65868209Y-62340425D01*
X65818096Y-62369359D01*
X65818095Y-62369360D01*
X65786303Y-62387715D01*
X65731285Y-62419479D01*
X65731282Y-62419481D01*
X65619480Y-62531283D01*
X65619480Y-62531284D01*
X65619478Y-62531286D01*
X65529608Y-62621156D01*
X65487113Y-62663651D01*
X65425790Y-62697135D01*
X65356098Y-62692151D01*
X65306692Y-62655165D01*
X65305138Y-62656494D01*
X65301967Y-62652782D01*
X65157213Y-62508028D01*
X64991613Y-62387715D01*
X64991612Y-62387714D01*
X64991610Y-62387713D01*
X64934653Y-62358691D01*
X64809223Y-62294781D01*
X64614534Y-62231522D01*
X64439995Y-62203878D01*
X64412352Y-62199500D01*
X64207648Y-62199500D01*
X64183329Y-62203351D01*
X64005465Y-62231522D01*
X63810776Y-62294781D01*
X63628386Y-62387715D01*
X63462786Y-62508028D01*
X63318028Y-62652786D01*
X63197715Y-62818386D01*
X63104781Y-63000776D01*
X63041522Y-63195465D01*
X63009500Y-63397648D01*
X63009500Y-63602351D01*
X63041523Y-63804535D01*
X63041524Y-63804542D01*
X63052130Y-63837183D01*
X63054125Y-63907024D01*
X63018044Y-63966857D01*
X62955343Y-63997684D01*
X62934199Y-63999500D01*
X58655783Y-63999500D01*
X58588744Y-63979815D01*
X58568102Y-63963181D01*
X58016717Y-63411797D01*
X57983232Y-63350474D01*
X57981925Y-63343513D01*
X57972866Y-63286319D01*
X57958477Y-63195466D01*
X57950967Y-63172354D01*
X57929127Y-63105137D01*
X57895220Y-63000781D01*
X57895218Y-63000778D01*
X57895218Y-63000776D01*
X57859114Y-62929920D01*
X57802287Y-62818390D01*
X57794556Y-62807749D01*
X57681971Y-62652786D01*
X57537213Y-62508028D01*
X57371613Y-62387715D01*
X57371612Y-62387714D01*
X57371610Y-62387713D01*
X57314653Y-62358691D01*
X57189223Y-62294781D01*
X56994534Y-62231522D01*
X56819995Y-62203878D01*
X56792352Y-62199500D01*
X56587648Y-62199500D01*
X56563329Y-62203351D01*
X56385465Y-62231522D01*
X56190776Y-62294781D01*
X56008386Y-62387715D01*
X55842786Y-62508028D01*
X55698028Y-62652786D01*
X55577715Y-62818386D01*
X55484781Y-63000776D01*
X55421522Y-63195465D01*
X55389500Y-63397648D01*
X55389500Y-63602351D01*
X55421522Y-63804534D01*
X55484781Y-63999223D01*
X55577715Y-64181613D01*
X55698028Y-64347213D01*
X55842786Y-64491971D01*
X55960805Y-64577715D01*
X56008390Y-64612287D01*
X56124607Y-64671503D01*
X56190776Y-64705218D01*
X56190778Y-64705218D01*
X56190781Y-64705220D01*
X56295137Y-64739127D01*
X56385465Y-64768477D01*
X56462966Y-64780751D01*
X56533513Y-64791925D01*
X56596648Y-64821854D01*
X56601796Y-64826716D01*
X57412860Y-65637781D01*
X57412861Y-65637782D01*
X57488387Y-65713308D01*
X57552219Y-65777140D01*
X57625496Y-65826102D01*
X57716086Y-65886632D01*
X57800954Y-65921785D01*
X57898164Y-65962051D01*
X58091454Y-66000499D01*
X58091457Y-66000500D01*
X58091459Y-66000500D01*
X71198542Y-66000500D01*
X71229566Y-65994328D01*
X71295188Y-65981275D01*
X71391836Y-65962051D01*
X71445165Y-65939961D01*
X71573914Y-65886632D01*
X71737782Y-65777139D01*
X71877139Y-65637782D01*
X71877140Y-65637779D01*
X71884206Y-65630714D01*
X71884208Y-65630710D01*
X72214544Y-65300375D01*
X72275866Y-65266891D01*
X72345558Y-65271875D01*
X72401491Y-65313747D01*
X72425908Y-65379211D01*
X72419930Y-65427060D01*
X72400001Y-65487200D01*
X72400000Y-65487204D01*
X72389500Y-65589983D01*
X72389500Y-65589996D01*
X72389501Y-66775500D01*
X72369816Y-66842539D01*
X72317013Y-66888294D01*
X72265501Y-66899500D01*
X66620943Y-66899500D01*
X66468213Y-66940423D01*
X66436945Y-66958477D01*
X66436944Y-66958477D01*
X66331287Y-67019477D01*
X66331282Y-67019481D01*
X66219478Y-67131286D01*
X65737584Y-67613181D01*
X65710656Y-67627884D01*
X65684838Y-67644477D01*
X65678637Y-67645368D01*
X65676261Y-67646666D01*
X65649903Y-67649500D01*
X65539602Y-67649500D01*
X65472563Y-67629815D01*
X65429117Y-67581795D01*
X65422284Y-67568385D01*
X65301971Y-67402786D01*
X65157213Y-67258028D01*
X64991613Y-67137715D01*
X64991612Y-67137714D01*
X64991610Y-67137713D01*
X64934653Y-67108691D01*
X64809223Y-67044781D01*
X64614534Y-66981522D01*
X64439995Y-66953878D01*
X64412352Y-66949500D01*
X64207648Y-66949500D01*
X64183329Y-66953351D01*
X64005465Y-66981522D01*
X63810776Y-67044781D01*
X63628386Y-67137715D01*
X63462786Y-67258028D01*
X63318028Y-67402786D01*
X63197715Y-67568386D01*
X63104781Y-67750776D01*
X63041522Y-67945465D01*
X63009500Y-68147648D01*
X63009500Y-68352351D01*
X63041522Y-68554534D01*
X63104781Y-68749223D01*
X63197715Y-68931613D01*
X63318028Y-69097213D01*
X63462786Y-69241971D01*
X63586956Y-69332184D01*
X63628390Y-69362287D01*
X63725192Y-69411610D01*
X63810776Y-69455218D01*
X63810778Y-69455218D01*
X63810781Y-69455220D01*
X63888656Y-69480523D01*
X64005465Y-69518477D01*
X64106557Y-69534488D01*
X64207648Y-69550500D01*
X64207649Y-69550500D01*
X64412351Y-69550500D01*
X64412352Y-69550500D01*
X64614534Y-69518477D01*
X64809219Y-69455220D01*
X64991610Y-69362287D01*
X65089009Y-69291523D01*
X65157213Y-69241971D01*
X65157215Y-69241968D01*
X65157219Y-69241966D01*
X65301966Y-69097219D01*
X65301968Y-69097215D01*
X65301971Y-69097213D01*
X65422284Y-68931614D01*
X65422285Y-68931613D01*
X65422287Y-68931610D01*
X65429117Y-68918204D01*
X65477091Y-68867409D01*
X65539602Y-68850500D01*
X65863331Y-68850500D01*
X65863347Y-68850501D01*
X65870943Y-68850501D01*
X66029054Y-68850501D01*
X66029057Y-68850501D01*
X66181785Y-68809577D01*
X66231904Y-68780639D01*
X66318716Y-68730520D01*
X66430520Y-68618716D01*
X66430520Y-68618714D01*
X66440728Y-68608507D01*
X66440729Y-68608504D01*
X66912416Y-68136819D01*
X66973739Y-68103334D01*
X67000097Y-68100500D01*
X72356440Y-68100500D01*
X72423479Y-68120185D01*
X72469234Y-68172989D01*
X72479178Y-68242147D01*
X72474372Y-68262810D01*
X72454807Y-68323025D01*
X72421522Y-68425465D01*
X72389500Y-68627648D01*
X72389500Y-68832351D01*
X72421522Y-69034534D01*
X72484781Y-69229223D01*
X72577715Y-69411613D01*
X72698028Y-69577213D01*
X72842786Y-69721971D01*
X73008385Y-69842284D01*
X73008387Y-69842285D01*
X73008390Y-69842287D01*
X73101080Y-69889515D01*
X73101630Y-69889795D01*
X73152426Y-69937770D01*
X73169221Y-70005591D01*
X73146684Y-70071725D01*
X73101630Y-70110765D01*
X73008644Y-70158143D01*
X72964077Y-70190523D01*
X72964077Y-70190524D01*
X73643554Y-70870000D01*
X73637339Y-70870000D01*
X73535606Y-70897259D01*
X73444394Y-70949920D01*
X73369920Y-71024394D01*
X73317259Y-71115606D01*
X73290000Y-71217339D01*
X73290000Y-71223553D01*
X72610524Y-70544077D01*
X72610523Y-70544077D01*
X72578143Y-70588644D01*
X72485244Y-70770968D01*
X72422009Y-70965582D01*
X72390000Y-71167682D01*
X72390000Y-71372317D01*
X72422009Y-71574417D01*
X72485244Y-71769031D01*
X72578141Y-71951350D01*
X72578147Y-71951359D01*
X72610523Y-71995921D01*
X72610524Y-71995922D01*
X73290000Y-71316446D01*
X73290000Y-71322661D01*
X73317259Y-71424394D01*
X73369920Y-71515606D01*
X73444394Y-71590080D01*
X73535606Y-71642741D01*
X73637339Y-71670000D01*
X73643553Y-71670000D01*
X72964076Y-72349474D01*
X73008652Y-72381861D01*
X73101628Y-72429234D01*
X73152425Y-72477208D01*
X73169220Y-72545029D01*
X73146683Y-72611164D01*
X73101630Y-72650203D01*
X73008388Y-72697713D01*
X72887123Y-72785818D01*
X72821317Y-72809298D01*
X72814238Y-72809500D01*
X72391455Y-72809500D01*
X72294812Y-72828724D01*
X72198167Y-72847947D01*
X72198161Y-72847949D01*
X72144834Y-72870037D01*
X72144834Y-72870038D01*
X72099315Y-72888892D01*
X72016089Y-72923366D01*
X72016079Y-72923371D01*
X71852221Y-73032858D01*
X71788873Y-73096205D01*
X71727549Y-73129689D01*
X71657858Y-73124703D01*
X71644898Y-73119007D01*
X71499223Y-73044781D01*
X71304534Y-72981522D01*
X71129995Y-72953878D01*
X71102352Y-72949500D01*
X70897648Y-72949500D01*
X70873329Y-72953351D01*
X70695465Y-72981522D01*
X70500776Y-73044781D01*
X70318386Y-73137715D01*
X70152786Y-73258028D01*
X70008028Y-73402786D01*
X69887715Y-73568386D01*
X69794781Y-73750776D01*
X69731522Y-73945465D01*
X69699500Y-74147648D01*
X69699500Y-74352351D01*
X69731522Y-74554534D01*
X69794781Y-74749223D01*
X69857797Y-74872897D01*
X69887585Y-74931359D01*
X69887715Y-74931613D01*
X70008028Y-75097213D01*
X70152786Y-75241971D01*
X70273226Y-75329474D01*
X70318390Y-75362287D01*
X70434607Y-75421503D01*
X70500776Y-75455218D01*
X70500778Y-75455218D01*
X70500781Y-75455220D01*
X70605137Y-75489127D01*
X70695465Y-75518477D01*
X70796557Y-75534488D01*
X70897648Y-75550500D01*
X70897649Y-75550500D01*
X71102351Y-75550500D01*
X71102352Y-75550500D01*
X71304534Y-75518477D01*
X71499219Y-75455220D01*
X71681610Y-75362287D01*
X71802877Y-75274181D01*
X71868683Y-75250702D01*
X71875762Y-75250500D01*
X72148542Y-75250500D01*
X72179566Y-75244328D01*
X72245188Y-75231275D01*
X72341836Y-75212051D01*
X72395165Y-75189961D01*
X72523914Y-75136632D01*
X72687782Y-75027139D01*
X72808541Y-74906379D01*
X72869860Y-74872897D01*
X72939552Y-74877881D01*
X72969104Y-74893744D01*
X73008390Y-74922287D01*
X73096296Y-74967077D01*
X73190776Y-75015218D01*
X73190778Y-75015218D01*
X73190781Y-75015220D01*
X73295137Y-75049127D01*
X73385465Y-75078477D01*
X73462966Y-75090751D01*
X73533513Y-75101925D01*
X73596648Y-75131854D01*
X73601797Y-75136717D01*
X74252899Y-75787819D01*
X74286384Y-75849142D01*
X74281400Y-75918834D01*
X74239528Y-75974767D01*
X74174064Y-75999184D01*
X74165218Y-75999500D01*
X54624500Y-75999500D01*
X54557461Y-75979815D01*
X54511706Y-75927011D01*
X54500500Y-75875500D01*
X54500500Y-74147682D01*
X64700000Y-74147682D01*
X64700000Y-74352317D01*
X64732009Y-74554417D01*
X64795244Y-74749031D01*
X64888141Y-74931350D01*
X64888147Y-74931359D01*
X64920523Y-74975921D01*
X64920524Y-74975922D01*
X65600000Y-74296446D01*
X65600000Y-74302661D01*
X65627259Y-74404394D01*
X65679920Y-74495606D01*
X65754394Y-74570080D01*
X65845606Y-74622741D01*
X65947339Y-74650000D01*
X65953553Y-74650000D01*
X65274076Y-75329474D01*
X65318650Y-75361859D01*
X65500968Y-75454755D01*
X65695582Y-75517990D01*
X65897683Y-75550000D01*
X66102317Y-75550000D01*
X66304417Y-75517990D01*
X66499031Y-75454755D01*
X66681349Y-75361859D01*
X66725921Y-75329474D01*
X66046447Y-74650000D01*
X66052661Y-74650000D01*
X66154394Y-74622741D01*
X66245606Y-74570080D01*
X66320080Y-74495606D01*
X66372741Y-74404394D01*
X66400000Y-74302661D01*
X66400000Y-74296447D01*
X67079474Y-74975921D01*
X67111859Y-74931349D01*
X67204755Y-74749031D01*
X67267990Y-74554417D01*
X67300000Y-74352317D01*
X67300000Y-74147682D01*
X67267990Y-73945582D01*
X67204755Y-73750968D01*
X67111859Y-73568650D01*
X67079474Y-73524077D01*
X67079474Y-73524076D01*
X66400000Y-74203551D01*
X66400000Y-74197339D01*
X66372741Y-74095606D01*
X66320080Y-74004394D01*
X66245606Y-73929920D01*
X66154394Y-73877259D01*
X66052661Y-73850000D01*
X66046446Y-73850000D01*
X66725922Y-73170524D01*
X66725921Y-73170523D01*
X66681359Y-73138147D01*
X66681350Y-73138141D01*
X66499031Y-73045244D01*
X66304417Y-72982009D01*
X66102317Y-72950000D01*
X65897683Y-72950000D01*
X65695582Y-72982009D01*
X65500968Y-73045244D01*
X65318644Y-73138143D01*
X65274077Y-73170523D01*
X65274077Y-73170524D01*
X65953554Y-73850000D01*
X65947339Y-73850000D01*
X65845606Y-73877259D01*
X65754394Y-73929920D01*
X65679920Y-74004394D01*
X65627259Y-74095606D01*
X65600000Y-74197339D01*
X65600000Y-74203553D01*
X64920524Y-73524077D01*
X64920523Y-73524077D01*
X64888143Y-73568644D01*
X64795244Y-73750968D01*
X64732009Y-73945582D01*
X64700000Y-74147682D01*
X54500500Y-74147682D01*
X54500500Y-70457648D01*
X65949500Y-70457648D01*
X65949500Y-70662351D01*
X65981522Y-70864534D01*
X66044781Y-71059223D01*
X66100027Y-71167648D01*
X66137585Y-71241359D01*
X66137715Y-71241613D01*
X66258028Y-71407213D01*
X66402786Y-71551971D01*
X66523226Y-71639474D01*
X66568390Y-71672287D01*
X66684607Y-71731503D01*
X66750776Y-71765218D01*
X66750778Y-71765218D01*
X66750781Y-71765220D01*
X66855137Y-71799127D01*
X66945465Y-71828477D01*
X67046557Y-71844488D01*
X67147648Y-71860500D01*
X67147649Y-71860500D01*
X67352351Y-71860500D01*
X67352352Y-71860500D01*
X67554534Y-71828477D01*
X67749219Y-71765220D01*
X67931610Y-71672287D01*
X68066318Y-71574417D01*
X68097213Y-71551971D01*
X68097215Y-71551968D01*
X68097219Y-71551966D01*
X68241966Y-71407219D01*
X68241968Y-71407215D01*
X68241971Y-71407213D01*
X68303400Y-71322661D01*
X68362287Y-71241610D01*
X68455220Y-71059219D01*
X68518477Y-70864534D01*
X68550500Y-70662352D01*
X68550500Y-70457682D01*
X68950000Y-70457682D01*
X68950000Y-70662317D01*
X68982009Y-70864417D01*
X69045244Y-71059031D01*
X69138141Y-71241350D01*
X69138147Y-71241359D01*
X69170523Y-71285921D01*
X69170524Y-71285922D01*
X69850000Y-70606446D01*
X69850000Y-70612661D01*
X69877259Y-70714394D01*
X69929920Y-70805606D01*
X70004394Y-70880080D01*
X70095606Y-70932741D01*
X70197339Y-70960000D01*
X70203553Y-70960000D01*
X69524076Y-71639474D01*
X69568650Y-71671859D01*
X69750968Y-71764755D01*
X69945582Y-71827990D01*
X70147683Y-71860000D01*
X70352317Y-71860000D01*
X70554417Y-71827990D01*
X70749031Y-71764755D01*
X70931349Y-71671859D01*
X70975921Y-71639474D01*
X70296447Y-70960000D01*
X70302661Y-70960000D01*
X70404394Y-70932741D01*
X70495606Y-70880080D01*
X70570080Y-70805606D01*
X70622741Y-70714394D01*
X70650000Y-70612661D01*
X70650000Y-70606447D01*
X71329474Y-71285921D01*
X71361859Y-71241349D01*
X71430558Y-71106521D01*
X71430559Y-71106519D01*
X71454754Y-71059034D01*
X71517990Y-70864417D01*
X71550000Y-70662317D01*
X71550000Y-70457682D01*
X71517990Y-70255582D01*
X71454755Y-70060968D01*
X71361859Y-69878650D01*
X71329474Y-69834077D01*
X71329474Y-69834076D01*
X70650000Y-70513551D01*
X70650000Y-70507339D01*
X70622741Y-70405606D01*
X70570080Y-70314394D01*
X70495606Y-70239920D01*
X70404394Y-70187259D01*
X70302661Y-70160000D01*
X70296446Y-70160000D01*
X70975922Y-69480524D01*
X70975921Y-69480523D01*
X70931359Y-69448147D01*
X70931350Y-69448141D01*
X70749031Y-69355244D01*
X70554417Y-69292009D01*
X70352317Y-69260000D01*
X70147683Y-69260000D01*
X69945582Y-69292009D01*
X69750968Y-69355244D01*
X69568644Y-69448143D01*
X69524077Y-69480523D01*
X69524077Y-69480524D01*
X70203554Y-70160000D01*
X70197339Y-70160000D01*
X70095606Y-70187259D01*
X70004394Y-70239920D01*
X69929920Y-70314394D01*
X69877259Y-70405606D01*
X69850000Y-70507339D01*
X69850000Y-70513553D01*
X69170524Y-69834077D01*
X69170523Y-69834077D01*
X69138143Y-69878644D01*
X69045244Y-70060968D01*
X68982009Y-70255582D01*
X68950000Y-70457682D01*
X68550500Y-70457682D01*
X68550500Y-70457648D01*
X68532976Y-70347007D01*
X68518477Y-70255465D01*
X68456519Y-70064780D01*
X68455220Y-70060781D01*
X68455218Y-70060778D01*
X68455218Y-70060776D01*
X68411091Y-69974174D01*
X68362287Y-69878390D01*
X68330092Y-69834077D01*
X68241971Y-69712786D01*
X68097213Y-69568028D01*
X67931613Y-69447715D01*
X67931612Y-69447714D01*
X67931610Y-69447713D01*
X67860754Y-69411610D01*
X67749223Y-69354781D01*
X67554534Y-69291522D01*
X67379995Y-69263878D01*
X67352352Y-69259500D01*
X67147648Y-69259500D01*
X67123329Y-69263351D01*
X66945465Y-69291522D01*
X66750776Y-69354781D01*
X66568386Y-69447715D01*
X66402786Y-69568028D01*
X66258028Y-69712786D01*
X66137715Y-69878386D01*
X66044781Y-70060776D01*
X65981522Y-70255465D01*
X65949500Y-70457648D01*
X54500500Y-70457648D01*
X54500500Y-68147648D01*
X55389500Y-68147648D01*
X55389500Y-68352351D01*
X55421522Y-68554534D01*
X55484781Y-68749223D01*
X55577715Y-68931613D01*
X55698028Y-69097213D01*
X55842786Y-69241971D01*
X55966956Y-69332184D01*
X56008390Y-69362287D01*
X56105192Y-69411610D01*
X56190776Y-69455218D01*
X56190778Y-69455218D01*
X56190781Y-69455220D01*
X56268656Y-69480523D01*
X56385465Y-69518477D01*
X56486557Y-69534488D01*
X56587648Y-69550500D01*
X56587649Y-69550500D01*
X56792351Y-69550500D01*
X56792352Y-69550500D01*
X56994534Y-69518477D01*
X57189219Y-69455220D01*
X57371610Y-69362287D01*
X57469009Y-69291523D01*
X57537213Y-69241971D01*
X57537215Y-69241968D01*
X57537219Y-69241966D01*
X57681966Y-69097219D01*
X57681968Y-69097215D01*
X57681971Y-69097213D01*
X57745414Y-69009890D01*
X57802287Y-68931610D01*
X57895220Y-68749219D01*
X57958477Y-68554534D01*
X57990500Y-68352352D01*
X57990500Y-68147648D01*
X57958477Y-67945466D01*
X57895220Y-67750781D01*
X57895218Y-67750778D01*
X57895218Y-67750776D01*
X57861503Y-67684607D01*
X57802287Y-67568390D01*
X57794556Y-67557749D01*
X57681971Y-67402786D01*
X57537213Y-67258028D01*
X57371613Y-67137715D01*
X57371612Y-67137714D01*
X57371610Y-67137713D01*
X57314653Y-67108691D01*
X57189223Y-67044781D01*
X56994534Y-66981522D01*
X56819995Y-66953878D01*
X56792352Y-66949500D01*
X56587648Y-66949500D01*
X56563329Y-66953351D01*
X56385465Y-66981522D01*
X56190776Y-67044781D01*
X56008386Y-67137715D01*
X55842786Y-67258028D01*
X55698028Y-67402786D01*
X55577715Y-67568386D01*
X55484781Y-67750776D01*
X55421522Y-67945465D01*
X55389500Y-68147648D01*
X54500500Y-68147648D01*
X54500500Y-59207682D01*
X65950000Y-59207682D01*
X65950000Y-59412317D01*
X65982009Y-59614417D01*
X66045244Y-59809031D01*
X66138141Y-59991350D01*
X66138147Y-59991359D01*
X66170523Y-60035921D01*
X66170524Y-60035922D01*
X66850000Y-59356446D01*
X66850000Y-59362661D01*
X66877259Y-59464394D01*
X66929920Y-59555606D01*
X67004394Y-59630080D01*
X67095606Y-59682741D01*
X67197339Y-59710000D01*
X67203553Y-59710000D01*
X66524076Y-60389474D01*
X66568650Y-60421859D01*
X66750968Y-60514755D01*
X66945582Y-60577990D01*
X67147683Y-60610000D01*
X67352317Y-60610000D01*
X67554417Y-60577990D01*
X67749031Y-60514755D01*
X67931349Y-60421859D01*
X67975921Y-60389474D01*
X67296447Y-59710000D01*
X67302661Y-59710000D01*
X67404394Y-59682741D01*
X67495606Y-59630080D01*
X67570080Y-59555606D01*
X67622741Y-59464394D01*
X67650000Y-59362661D01*
X67650000Y-59356447D01*
X68329474Y-60035921D01*
X68361859Y-59991349D01*
X68454755Y-59809031D01*
X68517990Y-59614417D01*
X68550000Y-59412317D01*
X68550000Y-59207682D01*
X68549995Y-59207648D01*
X68949500Y-59207648D01*
X68949500Y-59412351D01*
X68981522Y-59614534D01*
X69044781Y-59809223D01*
X69070256Y-59859219D01*
X69137585Y-59991359D01*
X69137715Y-59991613D01*
X69258028Y-60157213D01*
X69402786Y-60301971D01*
X69523226Y-60389474D01*
X69568390Y-60422287D01*
X69679921Y-60479115D01*
X69750776Y-60515218D01*
X69750778Y-60515218D01*
X69750781Y-60515220D01*
X69855137Y-60549127D01*
X69945465Y-60578477D01*
X70015699Y-60589601D01*
X70147648Y-60610500D01*
X70147649Y-60610500D01*
X70352351Y-60610500D01*
X70352352Y-60610500D01*
X70554534Y-60578477D01*
X70749219Y-60515220D01*
X70931610Y-60422287D01*
X71024590Y-60354732D01*
X71097213Y-60301971D01*
X71097215Y-60301968D01*
X71097219Y-60301966D01*
X71241966Y-60157219D01*
X71241968Y-60157215D01*
X71241971Y-60157213D01*
X71325960Y-60041610D01*
X71362287Y-59991610D01*
X71455220Y-59809219D01*
X71518477Y-59614534D01*
X71550500Y-59412352D01*
X71550500Y-59207648D01*
X71535730Y-59114394D01*
X71518477Y-59005465D01*
X71476438Y-58876083D01*
X71455220Y-58810781D01*
X71455218Y-58810778D01*
X71455218Y-58810776D01*
X71398519Y-58699500D01*
X71362287Y-58628390D01*
X71330092Y-58584077D01*
X71241971Y-58462786D01*
X71097213Y-58318028D01*
X70931613Y-58197715D01*
X70931612Y-58197714D01*
X70931610Y-58197713D01*
X70848260Y-58155244D01*
X70749223Y-58104781D01*
X70554534Y-58041522D01*
X70379995Y-58013878D01*
X70352352Y-58009500D01*
X70147648Y-58009500D01*
X70123329Y-58013351D01*
X69945465Y-58041522D01*
X69750776Y-58104781D01*
X69568386Y-58197715D01*
X69402786Y-58318028D01*
X69258028Y-58462786D01*
X69137715Y-58628386D01*
X69044781Y-58810776D01*
X68981522Y-59005465D01*
X68949500Y-59207648D01*
X68549995Y-59207648D01*
X68517990Y-59005582D01*
X68454755Y-58810968D01*
X68361859Y-58628650D01*
X68329474Y-58584077D01*
X68329474Y-58584076D01*
X67650000Y-59263551D01*
X67650000Y-59257339D01*
X67622741Y-59155606D01*
X67570080Y-59064394D01*
X67495606Y-58989920D01*
X67404394Y-58937259D01*
X67302661Y-58910000D01*
X67296446Y-58910000D01*
X67975922Y-58230524D01*
X67975921Y-58230523D01*
X67931359Y-58198147D01*
X67931350Y-58198141D01*
X67749031Y-58105244D01*
X67554417Y-58042009D01*
X67352317Y-58010000D01*
X67147683Y-58010000D01*
X66945582Y-58042009D01*
X66750968Y-58105244D01*
X66568644Y-58198143D01*
X66524077Y-58230523D01*
X66524077Y-58230524D01*
X67203554Y-58910000D01*
X67197339Y-58910000D01*
X67095606Y-58937259D01*
X67004394Y-58989920D01*
X66929920Y-59064394D01*
X66877259Y-59155606D01*
X66850000Y-59257339D01*
X66850000Y-59263553D01*
X66170524Y-58584077D01*
X66170523Y-58584077D01*
X66138143Y-58628644D01*
X66045244Y-58810968D01*
X65982009Y-59005582D01*
X65950000Y-59207682D01*
X54500500Y-59207682D01*
X54500500Y-57648945D01*
X56739500Y-57648945D01*
X56739500Y-57841054D01*
X56769553Y-58030802D01*
X56828916Y-58213506D01*
X56863064Y-58280524D01*
X56916135Y-58384681D01*
X57029055Y-58540102D01*
X57164898Y-58675945D01*
X57320319Y-58788865D01*
X57461461Y-58860781D01*
X57491493Y-58876083D01*
X57582845Y-58905764D01*
X57674199Y-58935447D01*
X57863945Y-58965500D01*
X57863946Y-58965500D01*
X58056054Y-58965500D01*
X58056055Y-58965500D01*
X58245801Y-58935447D01*
X58428509Y-58876082D01*
X58599681Y-58788865D01*
X58755102Y-58675945D01*
X58890945Y-58540102D01*
X59003865Y-58384681D01*
X59091082Y-58213509D01*
X59091084Y-58213504D01*
X59112069Y-58148919D01*
X59151506Y-58091243D01*
X59215864Y-58064044D01*
X59284711Y-58075958D01*
X59336187Y-58123202D01*
X59347931Y-58148919D01*
X59368915Y-58213504D01*
X59403064Y-58280524D01*
X59456135Y-58384681D01*
X59569055Y-58540102D01*
X59704898Y-58675945D01*
X59860319Y-58788865D01*
X60001461Y-58860781D01*
X60031493Y-58876083D01*
X60122845Y-58905764D01*
X60214199Y-58935447D01*
X60403945Y-58965500D01*
X60403946Y-58965500D01*
X60596054Y-58965500D01*
X60596055Y-58965500D01*
X60785801Y-58935447D01*
X60968509Y-58876082D01*
X61139681Y-58788865D01*
X61295102Y-58675945D01*
X61430945Y-58540102D01*
X61543865Y-58384681D01*
X61631082Y-58213509D01*
X61631084Y-58213504D01*
X61652069Y-58148919D01*
X61691506Y-58091243D01*
X61755864Y-58064044D01*
X61824711Y-58075958D01*
X61876187Y-58123202D01*
X61887931Y-58148919D01*
X61908915Y-58213504D01*
X61943064Y-58280524D01*
X61996135Y-58384681D01*
X62109055Y-58540102D01*
X62244898Y-58675945D01*
X62400319Y-58788865D01*
X62541461Y-58860781D01*
X62571493Y-58876083D01*
X62662845Y-58905764D01*
X62754199Y-58935447D01*
X62943945Y-58965500D01*
X62943946Y-58965500D01*
X63136054Y-58965500D01*
X63136055Y-58965500D01*
X63325801Y-58935447D01*
X63508509Y-58876082D01*
X63679681Y-58788865D01*
X63835102Y-58675945D01*
X63970945Y-58540102D01*
X64083865Y-58384681D01*
X64083868Y-58384676D01*
X64167018Y-58221488D01*
X64171082Y-58213510D01*
X64171082Y-58213509D01*
X64200424Y-58123202D01*
X64230447Y-58030801D01*
X64260500Y-57841055D01*
X64260500Y-57648945D01*
X64230447Y-57459199D01*
X64198077Y-57359575D01*
X64171083Y-57276493D01*
X64132751Y-57201263D01*
X64083865Y-57105319D01*
X63970945Y-56949898D01*
X63835102Y-56814055D01*
X63679681Y-56701135D01*
X63508506Y-56613916D01*
X63325802Y-56554553D01*
X63230928Y-56539526D01*
X63136055Y-56524500D01*
X62943945Y-56524500D01*
X62880696Y-56534517D01*
X62754197Y-56554553D01*
X62571493Y-56613916D01*
X62400318Y-56701135D01*
X62311645Y-56765560D01*
X62244898Y-56814055D01*
X62244896Y-56814057D01*
X62244895Y-56814057D01*
X62109057Y-56949895D01*
X62109057Y-56949896D01*
X62109055Y-56949898D01*
X62060560Y-57016645D01*
X61996135Y-57105318D01*
X61908916Y-57276493D01*
X61887931Y-57341081D01*
X61848494Y-57398756D01*
X61784135Y-57425955D01*
X61715289Y-57414041D01*
X61663813Y-57366797D01*
X61652069Y-57341081D01*
X61631083Y-57276493D01*
X61592751Y-57201263D01*
X61543865Y-57105319D01*
X61430945Y-56949898D01*
X61295102Y-56814055D01*
X61139681Y-56701135D01*
X60968506Y-56613916D01*
X60785802Y-56554553D01*
X60690928Y-56539526D01*
X60596055Y-56524500D01*
X60403945Y-56524500D01*
X60340696Y-56534517D01*
X60214197Y-56554553D01*
X60031493Y-56613916D01*
X59860318Y-56701135D01*
X59771645Y-56765560D01*
X59704898Y-56814055D01*
X59704896Y-56814057D01*
X59704895Y-56814057D01*
X59569057Y-56949895D01*
X59569057Y-56949896D01*
X59569055Y-56949898D01*
X59520560Y-57016645D01*
X59456135Y-57105318D01*
X59368916Y-57276493D01*
X59347931Y-57341081D01*
X59308494Y-57398756D01*
X59244135Y-57425955D01*
X59175289Y-57414041D01*
X59123813Y-57366797D01*
X59112069Y-57341081D01*
X59091083Y-57276493D01*
X59052751Y-57201263D01*
X59003865Y-57105319D01*
X58890945Y-56949898D01*
X58755102Y-56814055D01*
X58599681Y-56701135D01*
X58428506Y-56613916D01*
X58245802Y-56554553D01*
X58150928Y-56539526D01*
X58056055Y-56524500D01*
X57863945Y-56524500D01*
X57800696Y-56534517D01*
X57674197Y-56554553D01*
X57491493Y-56613916D01*
X57320318Y-56701135D01*
X57231645Y-56765560D01*
X57164898Y-56814055D01*
X57164896Y-56814057D01*
X57164895Y-56814057D01*
X57029057Y-56949895D01*
X57029057Y-56949896D01*
X57029055Y-56949898D01*
X56980560Y-57016645D01*
X56916135Y-57105318D01*
X56828916Y-57276493D01*
X56769553Y-57459197D01*
X56739500Y-57648945D01*
X54500500Y-57648945D01*
X54500500Y-51897648D01*
X55389500Y-51897648D01*
X55389500Y-52102351D01*
X55421522Y-52304534D01*
X55484781Y-52499223D01*
X55517041Y-52562535D01*
X55573746Y-52673825D01*
X55577715Y-52681613D01*
X55698028Y-52847213D01*
X55842786Y-52991971D01*
X55935504Y-53059333D01*
X56008390Y-53112287D01*
X56124607Y-53171503D01*
X56190776Y-53205218D01*
X56190778Y-53205218D01*
X56190781Y-53205220D01*
X56295137Y-53239127D01*
X56385465Y-53268477D01*
X56486557Y-53284488D01*
X56587648Y-53300500D01*
X56587649Y-53300500D01*
X56792351Y-53300500D01*
X56792352Y-53300500D01*
X56994534Y-53268477D01*
X57189219Y-53205220D01*
X57371610Y-53112287D01*
X57470705Y-53040291D01*
X57537213Y-52991971D01*
X57537215Y-52991968D01*
X57537219Y-52991966D01*
X57681966Y-52847219D01*
X57681968Y-52847215D01*
X57681971Y-52847213D01*
X57765698Y-52731971D01*
X57802287Y-52681610D01*
X57895220Y-52499219D01*
X57958477Y-52304534D01*
X57990500Y-52102352D01*
X57990500Y-51897648D01*
X57977951Y-51818417D01*
X57958477Y-51695465D01*
X57895218Y-51500776D01*
X57836463Y-51385465D01*
X57802287Y-51318390D01*
X57776558Y-51282977D01*
X57681971Y-51152786D01*
X57537213Y-51008028D01*
X57371613Y-50887715D01*
X57371612Y-50887714D01*
X57371610Y-50887713D01*
X57283436Y-50842786D01*
X57189223Y-50794781D01*
X56994534Y-50731522D01*
X56819995Y-50703878D01*
X56792352Y-50699500D01*
X56587648Y-50699500D01*
X56563329Y-50703351D01*
X56385465Y-50731522D01*
X56190776Y-50794781D01*
X56008386Y-50887715D01*
X55842786Y-51008028D01*
X55698028Y-51152786D01*
X55577715Y-51318386D01*
X55484781Y-51500776D01*
X55421522Y-51695465D01*
X55389500Y-51897648D01*
X54500500Y-51897648D01*
X54500500Y-50124500D01*
X54520185Y-50057461D01*
X54572989Y-50011706D01*
X54624500Y-50000500D01*
X85050902Y-50000500D01*
X85117941Y-50020185D01*
G37*
%TD.AperFunction*%
%TA.AperFunction,Conductor*%
G36*
X94442539Y-50020185D02*
G01*
X94488294Y-50072989D01*
X94499500Y-50124500D01*
X94499500Y-75875500D01*
X94479815Y-75942539D01*
X94427011Y-75988294D01*
X94375500Y-75999500D01*
X85964782Y-75999500D01*
X85897743Y-75979815D01*
X85851988Y-75927011D01*
X85842044Y-75857853D01*
X85871069Y-75794297D01*
X85877101Y-75787819D01*
X86011029Y-75653890D01*
X86637778Y-75027141D01*
X86637782Y-75027139D01*
X86777139Y-74887782D01*
X86886632Y-74723914D01*
X86962051Y-74541835D01*
X86962051Y-74541832D01*
X86962053Y-74541828D01*
X86972042Y-74491611D01*
X86992676Y-74387874D01*
X87000500Y-74348540D01*
X87000500Y-74151460D01*
X87000500Y-74151459D01*
X87000500Y-70874725D01*
X87020185Y-70807686D01*
X87072989Y-70761931D01*
X87142147Y-70751987D01*
X87205703Y-70781012D01*
X87224702Y-70801714D01*
X87224728Y-70801716D01*
X87857036Y-70169407D01*
X87874075Y-70232993D01*
X87939901Y-70347007D01*
X88032993Y-70440099D01*
X88147007Y-70505925D01*
X88210590Y-70522962D01*
X87578282Y-71155269D01*
X87578282Y-71155270D01*
X87632449Y-71194624D01*
X87821782Y-71291095D01*
X88023870Y-71356757D01*
X88233754Y-71390000D01*
X88446246Y-71390000D01*
X88656127Y-71356757D01*
X88656130Y-71356757D01*
X88858217Y-71291095D01*
X89047554Y-71194622D01*
X89101716Y-71155270D01*
X89101717Y-71155270D01*
X88469408Y-70522962D01*
X88532993Y-70505925D01*
X88647007Y-70440099D01*
X88740099Y-70347007D01*
X88805925Y-70232993D01*
X88822962Y-70169409D01*
X89455270Y-70801717D01*
X89455270Y-70801716D01*
X89494622Y-70747555D01*
X89499232Y-70738507D01*
X89547205Y-70687709D01*
X89615025Y-70670912D01*
X89681161Y-70693447D01*
X89720204Y-70738504D01*
X89724949Y-70747817D01*
X89849890Y-70919786D01*
X90000213Y-71070109D01*
X90172179Y-71195048D01*
X90172181Y-71195049D01*
X90172184Y-71195051D01*
X90361588Y-71291557D01*
X90563757Y-71357246D01*
X90773713Y-71390500D01*
X90773714Y-71390500D01*
X90986286Y-71390500D01*
X90986287Y-71390500D01*
X91196243Y-71357246D01*
X91398412Y-71291557D01*
X91587816Y-71195051D01*
X91609789Y-71179086D01*
X91759786Y-71070109D01*
X91759788Y-71070106D01*
X91759792Y-71070104D01*
X91910104Y-70919792D01*
X91910106Y-70919788D01*
X91910109Y-70919786D01*
X92035048Y-70747820D01*
X92035050Y-70747817D01*
X92035051Y-70747816D01*
X92131557Y-70558412D01*
X92197246Y-70356243D01*
X92230500Y-70146287D01*
X92230500Y-69933713D01*
X92197246Y-69723757D01*
X92131557Y-69521588D01*
X92035051Y-69332184D01*
X92035049Y-69332181D01*
X92035048Y-69332179D01*
X91910109Y-69160213D01*
X91759786Y-69009890D01*
X91587820Y-68884951D01*
X91587115Y-68884591D01*
X91579054Y-68880485D01*
X91528259Y-68832512D01*
X91511463Y-68764692D01*
X91533999Y-68698556D01*
X91579054Y-68659515D01*
X91587816Y-68655051D01*
X91726167Y-68554534D01*
X91759786Y-68530109D01*
X91759788Y-68530106D01*
X91759792Y-68530104D01*
X91910104Y-68379792D01*
X91910106Y-68379788D01*
X91910109Y-68379786D01*
X92035048Y-68207820D01*
X92035047Y-68207820D01*
X92035051Y-68207816D01*
X92131557Y-68018412D01*
X92197246Y-67816243D01*
X92230500Y-67606287D01*
X92230500Y-67393713D01*
X92197246Y-67183757D01*
X92131557Y-66981588D01*
X92035051Y-66792184D01*
X92035049Y-66792181D01*
X92035048Y-66792179D01*
X91910109Y-66620213D01*
X91759786Y-66469890D01*
X91587820Y-66344951D01*
X91587115Y-66344591D01*
X91579054Y-66340485D01*
X91528259Y-66292512D01*
X91511463Y-66224692D01*
X91533999Y-66158556D01*
X91579054Y-66119515D01*
X91587816Y-66115051D01*
X91681835Y-66046743D01*
X91759786Y-65990109D01*
X91759788Y-65990106D01*
X91759792Y-65990104D01*
X91910104Y-65839792D01*
X91910106Y-65839788D01*
X91910109Y-65839786D01*
X92035048Y-65667820D01*
X92035047Y-65667820D01*
X92035051Y-65667816D01*
X92131557Y-65478412D01*
X92197246Y-65276243D01*
X92230500Y-65066287D01*
X92230500Y-64853713D01*
X92197246Y-64643757D01*
X92131557Y-64441588D01*
X92035051Y-64252184D01*
X92035049Y-64252181D01*
X92035048Y-64252179D01*
X91910109Y-64080213D01*
X91759786Y-63929890D01*
X91587820Y-63804951D01*
X91398414Y-63708444D01*
X91398413Y-63708443D01*
X91398412Y-63708443D01*
X91196243Y-63642754D01*
X91196241Y-63642753D01*
X91196240Y-63642753D01*
X91034957Y-63617208D01*
X90986287Y-63609500D01*
X90773713Y-63609500D01*
X90734202Y-63615757D01*
X90563759Y-63642753D01*
X90412818Y-63691797D01*
X90342977Y-63693792D01*
X90283144Y-63657711D01*
X90252316Y-63595010D01*
X90250500Y-63573866D01*
X90250500Y-60589601D01*
X90270185Y-60522562D01*
X90318206Y-60479116D01*
X90331610Y-60472287D01*
X90497219Y-60351966D01*
X90641966Y-60207219D01*
X90641968Y-60207215D01*
X90641971Y-60207213D01*
X90694732Y-60134590D01*
X90762287Y-60041610D01*
X90855220Y-59859219D01*
X90918477Y-59664534D01*
X90950500Y-59462352D01*
X90950500Y-59257648D01*
X91349500Y-59257648D01*
X91349500Y-59462352D01*
X91350189Y-59466704D01*
X91381522Y-59664534D01*
X91444781Y-59859223D01*
X91508691Y-59984653D01*
X91537585Y-60041359D01*
X91537715Y-60041613D01*
X91658028Y-60207213D01*
X91802786Y-60351971D01*
X91898981Y-60421859D01*
X91968390Y-60472287D01*
X92052647Y-60515218D01*
X92150776Y-60565218D01*
X92150778Y-60565218D01*
X92150781Y-60565220D01*
X92225818Y-60589601D01*
X92345465Y-60628477D01*
X92446557Y-60644488D01*
X92547648Y-60660500D01*
X92547649Y-60660500D01*
X92752351Y-60660500D01*
X92752352Y-60660500D01*
X92954534Y-60628477D01*
X93149219Y-60565220D01*
X93331610Y-60472287D01*
X93424590Y-60404732D01*
X93497213Y-60351971D01*
X93497215Y-60351968D01*
X93497219Y-60351966D01*
X93641966Y-60207219D01*
X93641968Y-60207215D01*
X93641971Y-60207213D01*
X93694732Y-60134590D01*
X93762287Y-60041610D01*
X93855220Y-59859219D01*
X93918477Y-59664534D01*
X93950500Y-59462352D01*
X93950500Y-59257648D01*
X93933891Y-59152786D01*
X93918477Y-59055465D01*
X93863971Y-58887715D01*
X93855220Y-58860781D01*
X93855218Y-58860778D01*
X93855218Y-58860776D01*
X93804144Y-58760539D01*
X93762287Y-58678390D01*
X93730092Y-58634077D01*
X93641971Y-58512786D01*
X93497213Y-58368028D01*
X93331613Y-58247715D01*
X93331612Y-58247714D01*
X93331610Y-58247713D01*
X93264471Y-58213504D01*
X93149223Y-58154781D01*
X92954534Y-58091522D01*
X92779995Y-58063878D01*
X92752352Y-58059500D01*
X92547648Y-58059500D01*
X92523329Y-58063351D01*
X92345465Y-58091522D01*
X92150776Y-58154781D01*
X91968386Y-58247715D01*
X91802786Y-58368028D01*
X91658028Y-58512786D01*
X91537715Y-58678386D01*
X91444781Y-58860776D01*
X91381522Y-59055465D01*
X91357419Y-59207648D01*
X91349500Y-59257648D01*
X90950500Y-59257648D01*
X90933891Y-59152786D01*
X90918477Y-59055465D01*
X90863971Y-58887715D01*
X90855220Y-58860781D01*
X90855218Y-58860778D01*
X90855218Y-58860776D01*
X90804144Y-58760539D01*
X90762287Y-58678390D01*
X90730092Y-58634077D01*
X90641971Y-58512786D01*
X90497213Y-58368028D01*
X90331613Y-58247715D01*
X90331612Y-58247714D01*
X90331610Y-58247713D01*
X90264471Y-58213504D01*
X90149223Y-58154781D01*
X89954534Y-58091522D01*
X89779995Y-58063878D01*
X89752352Y-58059500D01*
X89547648Y-58059500D01*
X89523329Y-58063351D01*
X89345465Y-58091522D01*
X89150776Y-58154781D01*
X88968386Y-58247715D01*
X88802786Y-58368028D01*
X88658028Y-58512786D01*
X88537715Y-58678386D01*
X88444781Y-58860776D01*
X88381522Y-59055465D01*
X88357419Y-59207648D01*
X88349500Y-59257648D01*
X88349500Y-59462352D01*
X88350189Y-59466704D01*
X88381522Y-59664534D01*
X88444781Y-59859223D01*
X88508691Y-59984653D01*
X88537585Y-60041359D01*
X88537715Y-60041613D01*
X88658028Y-60207213D01*
X88658034Y-60207219D01*
X88802781Y-60351966D01*
X88968390Y-60472287D01*
X88981793Y-60479116D01*
X89032589Y-60527088D01*
X89049500Y-60589601D01*
X89049500Y-63485500D01*
X89029815Y-63552539D01*
X88977011Y-63598294D01*
X88925500Y-63609500D01*
X87442129Y-63609500D01*
X87442123Y-63609501D01*
X87382516Y-63615908D01*
X87247671Y-63666202D01*
X87247664Y-63666206D01*
X87132455Y-63752452D01*
X87132452Y-63752455D01*
X87046206Y-63867664D01*
X87046202Y-63867671D01*
X86995908Y-64002517D01*
X86989501Y-64062116D01*
X86989500Y-64062135D01*
X86989500Y-65240903D01*
X86983261Y-65262148D01*
X86981682Y-65284237D01*
X86973609Y-65295020D01*
X86969815Y-65307942D01*
X86953081Y-65322441D01*
X86939810Y-65340170D01*
X86927189Y-65344877D01*
X86917011Y-65353697D01*
X86895093Y-65356848D01*
X86874346Y-65364587D01*
X86861185Y-65361724D01*
X86847853Y-65363641D01*
X86827709Y-65354441D01*
X86806073Y-65349735D01*
X86788347Y-65336466D01*
X86784297Y-65334616D01*
X86777819Y-65328584D01*
X86687590Y-65238355D01*
X86687588Y-65238352D01*
X86568717Y-65119481D01*
X86568709Y-65119475D01*
X86443676Y-65047288D01*
X86443673Y-65047287D01*
X86431785Y-65040423D01*
X86279057Y-64999499D01*
X86120943Y-64999499D01*
X86113347Y-64999499D01*
X86113331Y-64999500D01*
X85669009Y-64999500D01*
X85601970Y-64979815D01*
X85568690Y-64948384D01*
X85491969Y-64842784D01*
X85347213Y-64698028D01*
X85181613Y-64577715D01*
X85181612Y-64577714D01*
X85181610Y-64577713D01*
X85124653Y-64548691D01*
X84999223Y-64484781D01*
X84804534Y-64421522D01*
X84629995Y-64393878D01*
X84602352Y-64389500D01*
X84397648Y-64389500D01*
X84343704Y-64398044D01*
X84195464Y-64421523D01*
X84195457Y-64421524D01*
X84162817Y-64432130D01*
X84092976Y-64434125D01*
X84033143Y-64398044D01*
X84002316Y-64335343D01*
X84000500Y-64314199D01*
X84000500Y-59257682D01*
X85350000Y-59257682D01*
X85350000Y-59462317D01*
X85382009Y-59664417D01*
X85445244Y-59859031D01*
X85538141Y-60041350D01*
X85538147Y-60041359D01*
X85570523Y-60085921D01*
X85570524Y-60085922D01*
X86250000Y-59406446D01*
X86250000Y-59412661D01*
X86277259Y-59514394D01*
X86329920Y-59605606D01*
X86404394Y-59680080D01*
X86495606Y-59732741D01*
X86597339Y-59760000D01*
X86603553Y-59760000D01*
X85924076Y-60439474D01*
X85968650Y-60471859D01*
X86150968Y-60564755D01*
X86345582Y-60627990D01*
X86547683Y-60660000D01*
X86752317Y-60660000D01*
X86954417Y-60627990D01*
X87149031Y-60564755D01*
X87331349Y-60471859D01*
X87375921Y-60439474D01*
X86696447Y-59760000D01*
X86702661Y-59760000D01*
X86804394Y-59732741D01*
X86895606Y-59680080D01*
X86970080Y-59605606D01*
X87022741Y-59514394D01*
X87050000Y-59412661D01*
X87050000Y-59406447D01*
X87729474Y-60085921D01*
X87761859Y-60041349D01*
X87854755Y-59859031D01*
X87917990Y-59664417D01*
X87950000Y-59462317D01*
X87950000Y-59257682D01*
X87917990Y-59055582D01*
X87854755Y-58860968D01*
X87761859Y-58678650D01*
X87729474Y-58634077D01*
X87729474Y-58634076D01*
X87050000Y-59313551D01*
X87050000Y-59307339D01*
X87022741Y-59205606D01*
X86970080Y-59114394D01*
X86895606Y-59039920D01*
X86804394Y-58987259D01*
X86702661Y-58960000D01*
X86696446Y-58960000D01*
X87375922Y-58280524D01*
X87375921Y-58280523D01*
X87331359Y-58248147D01*
X87331350Y-58248141D01*
X87149031Y-58155244D01*
X86954417Y-58092009D01*
X86752317Y-58060000D01*
X86547683Y-58060000D01*
X86345582Y-58092009D01*
X86150968Y-58155244D01*
X85968644Y-58248143D01*
X85924077Y-58280523D01*
X85924077Y-58280524D01*
X86603554Y-58960000D01*
X86597339Y-58960000D01*
X86495606Y-58987259D01*
X86404394Y-59039920D01*
X86329920Y-59114394D01*
X86277259Y-59205606D01*
X86250000Y-59307339D01*
X86250000Y-59313553D01*
X85570524Y-58634077D01*
X85570523Y-58634077D01*
X85538143Y-58678644D01*
X85445244Y-58860968D01*
X85382009Y-59055582D01*
X85350000Y-59257682D01*
X84000500Y-59257682D01*
X84000500Y-54984500D01*
X84003050Y-54975814D01*
X84001762Y-54966853D01*
X84012740Y-54942812D01*
X84020185Y-54917461D01*
X84027025Y-54911533D01*
X84030787Y-54903297D01*
X84053021Y-54889007D01*
X84072989Y-54871706D01*
X84083503Y-54869418D01*
X84089565Y-54865523D01*
X84124500Y-54860500D01*
X84343331Y-54860500D01*
X84343347Y-54860501D01*
X84350943Y-54860501D01*
X84509054Y-54860501D01*
X84509057Y-54860501D01*
X84661785Y-54819577D01*
X84711904Y-54790639D01*
X84798716Y-54740520D01*
X84910520Y-54628716D01*
X84910520Y-54628714D01*
X84920728Y-54618507D01*
X84920730Y-54618504D01*
X86462415Y-53076819D01*
X86523738Y-53043334D01*
X86550096Y-53040500D01*
X86752351Y-53040500D01*
X86752352Y-53040500D01*
X86954534Y-53008477D01*
X87149219Y-52945220D01*
X87331610Y-52852287D01*
X87430789Y-52780230D01*
X87497213Y-52731971D01*
X87497215Y-52731968D01*
X87497219Y-52731966D01*
X87641966Y-52587219D01*
X87641968Y-52587215D01*
X87641971Y-52587213D01*
X87705901Y-52499219D01*
X87762287Y-52421610D01*
X87855220Y-52239219D01*
X87918477Y-52044534D01*
X87950500Y-51842352D01*
X87950500Y-51637648D01*
X87918477Y-51435466D01*
X87918476Y-51435462D01*
X87918476Y-51435461D01*
X87891624Y-51352818D01*
X87889629Y-51282977D01*
X87925710Y-51223144D01*
X87988411Y-51192316D01*
X88009555Y-51190500D01*
X88290445Y-51190500D01*
X88357484Y-51210185D01*
X88403239Y-51262989D01*
X88413183Y-51332147D01*
X88408376Y-51352818D01*
X88381523Y-51435461D01*
X88381523Y-51435464D01*
X88381523Y-51435465D01*
X88381523Y-51435466D01*
X88349500Y-51637648D01*
X88349500Y-51842352D01*
X88352741Y-51862817D01*
X88381522Y-52044534D01*
X88444781Y-52239223D01*
X88491782Y-52331466D01*
X88530153Y-52406773D01*
X88537715Y-52421613D01*
X88658028Y-52587213D01*
X88802786Y-52731971D01*
X88947644Y-52837214D01*
X88968390Y-52852287D01*
X89052647Y-52895218D01*
X89150776Y-52945218D01*
X89150778Y-52945218D01*
X89150781Y-52945220D01*
X89228585Y-52970500D01*
X89345465Y-53008477D01*
X89446557Y-53024488D01*
X89547648Y-53040500D01*
X89547649Y-53040500D01*
X89752351Y-53040500D01*
X89752352Y-53040500D01*
X89954534Y-53008477D01*
X90149219Y-52945220D01*
X90331610Y-52852287D01*
X90430789Y-52780230D01*
X90497213Y-52731971D01*
X90497215Y-52731968D01*
X90497219Y-52731966D01*
X90641966Y-52587219D01*
X90641968Y-52587215D01*
X90641971Y-52587213D01*
X90705901Y-52499219D01*
X90762287Y-52421610D01*
X90855220Y-52239219D01*
X90918477Y-52044534D01*
X90950500Y-51842352D01*
X90950500Y-51637648D01*
X91349500Y-51637648D01*
X91349500Y-51842352D01*
X91352741Y-51862817D01*
X91381522Y-52044534D01*
X91444781Y-52239223D01*
X91491782Y-52331466D01*
X91530153Y-52406773D01*
X91537715Y-52421613D01*
X91658028Y-52587213D01*
X91802786Y-52731971D01*
X91947644Y-52837214D01*
X91968390Y-52852287D01*
X92052647Y-52895218D01*
X92150776Y-52945218D01*
X92150778Y-52945218D01*
X92150781Y-52945220D01*
X92228585Y-52970500D01*
X92345465Y-53008477D01*
X92446557Y-53024488D01*
X92547648Y-53040500D01*
X92547649Y-53040500D01*
X92752351Y-53040500D01*
X92752352Y-53040500D01*
X92954534Y-53008477D01*
X93149219Y-52945220D01*
X93331610Y-52852287D01*
X93430789Y-52780230D01*
X93497213Y-52731971D01*
X93497215Y-52731968D01*
X93497219Y-52731966D01*
X93641966Y-52587219D01*
X93641968Y-52587215D01*
X93641971Y-52587213D01*
X93705901Y-52499219D01*
X93762287Y-52421610D01*
X93855220Y-52239219D01*
X93918477Y-52044534D01*
X93950500Y-51842352D01*
X93950500Y-51637648D01*
X93918477Y-51435466D01*
X93918476Y-51435464D01*
X93855218Y-51240776D01*
X93773833Y-51081051D01*
X93762287Y-51058390D01*
X93747753Y-51038386D01*
X93641971Y-50892786D01*
X93497213Y-50748028D01*
X93331613Y-50627715D01*
X93331612Y-50627714D01*
X93331610Y-50627713D01*
X93233480Y-50577713D01*
X93149223Y-50534781D01*
X92954534Y-50471522D01*
X92779995Y-50443878D01*
X92752352Y-50439500D01*
X92547648Y-50439500D01*
X92523329Y-50443351D01*
X92345465Y-50471522D01*
X92150776Y-50534781D01*
X91968386Y-50627715D01*
X91802786Y-50748028D01*
X91658028Y-50892786D01*
X91537715Y-51058386D01*
X91444781Y-51240776D01*
X91381522Y-51435465D01*
X91357419Y-51587648D01*
X91349500Y-51637648D01*
X90950500Y-51637648D01*
X90918477Y-51435466D01*
X90918476Y-51435464D01*
X90855218Y-51240776D01*
X90773833Y-51081051D01*
X90762287Y-51058390D01*
X90747753Y-51038386D01*
X90641971Y-50892786D01*
X90497213Y-50748028D01*
X90331613Y-50627715D01*
X90331612Y-50627714D01*
X90331610Y-50627713D01*
X90233480Y-50577713D01*
X90149223Y-50534781D01*
X89954534Y-50471522D01*
X89779995Y-50443878D01*
X89752352Y-50439500D01*
X89752351Y-50439500D01*
X89650097Y-50439500D01*
X89620656Y-50430855D01*
X89590670Y-50424332D01*
X89585654Y-50420577D01*
X89583058Y-50419815D01*
X89562416Y-50403181D01*
X89387590Y-50228355D01*
X89387588Y-50228352D01*
X89371417Y-50212181D01*
X89337932Y-50150858D01*
X89342916Y-50081166D01*
X89384788Y-50025233D01*
X89450252Y-50000816D01*
X89459098Y-50000500D01*
X94375500Y-50000500D01*
X94442539Y-50020185D01*
G37*
%TD.AperFunction*%
%TA.AperFunction,Conductor*%
G36*
X80043479Y-68120185D02*
G01*
X80089234Y-68172989D01*
X80099178Y-68242147D01*
X80094372Y-68262810D01*
X80074807Y-68323025D01*
X80041522Y-68425465D01*
X80009500Y-68627648D01*
X80009500Y-68832351D01*
X80041522Y-69034534D01*
X80104781Y-69229223D01*
X80197715Y-69411613D01*
X80318028Y-69577213D01*
X80462786Y-69721971D01*
X80617088Y-69834076D01*
X80628390Y-69842287D01*
X80719840Y-69888883D01*
X80721080Y-69889515D01*
X80771876Y-69937490D01*
X80788671Y-70005311D01*
X80766134Y-70071446D01*
X80721080Y-70110485D01*
X80628386Y-70157715D01*
X80462786Y-70278028D01*
X80318028Y-70422786D01*
X80197715Y-70588386D01*
X80104781Y-70770776D01*
X80041522Y-70965465D01*
X80009500Y-71167648D01*
X80009500Y-71372351D01*
X80041522Y-71574534D01*
X80104781Y-71769223D01*
X80151035Y-71860000D01*
X80197585Y-71951359D01*
X80197715Y-71951613D01*
X80318028Y-72117213D01*
X80462786Y-72261971D01*
X80583226Y-72349474D01*
X80628390Y-72382287D01*
X80719840Y-72428883D01*
X80721080Y-72429515D01*
X80771876Y-72477490D01*
X80788671Y-72545311D01*
X80766134Y-72611446D01*
X80721080Y-72650485D01*
X80628386Y-72697715D01*
X80462786Y-72818028D01*
X80318028Y-72962786D01*
X80197715Y-73128386D01*
X80104781Y-73310776D01*
X80041522Y-73505465D01*
X80009500Y-73707648D01*
X80009500Y-73912351D01*
X80041522Y-74114534D01*
X80104781Y-74309223D01*
X80109868Y-74319205D01*
X80122764Y-74387874D01*
X80096488Y-74452615D01*
X80039381Y-74492872D01*
X79999383Y-74499500D01*
X75845782Y-74499500D01*
X75778743Y-74479815D01*
X75758101Y-74463181D01*
X75016717Y-73721797D01*
X74983232Y-73660474D01*
X74981925Y-73653513D01*
X74975751Y-73614534D01*
X74958477Y-73505466D01*
X74895220Y-73310781D01*
X74895218Y-73310778D01*
X74895218Y-73310776D01*
X74823755Y-73170524D01*
X74802287Y-73128390D01*
X74794556Y-73117749D01*
X74681971Y-72962786D01*
X74537213Y-72818028D01*
X74371611Y-72697713D01*
X74278369Y-72650203D01*
X74227574Y-72602229D01*
X74210779Y-72534407D01*
X74233317Y-72468273D01*
X74278371Y-72429234D01*
X74371346Y-72381861D01*
X74371347Y-72381861D01*
X74415921Y-72349474D01*
X73736447Y-71670000D01*
X73742661Y-71670000D01*
X73844394Y-71642741D01*
X73935606Y-71590080D01*
X74010080Y-71515606D01*
X74062741Y-71424394D01*
X74090000Y-71322661D01*
X74090000Y-71316447D01*
X74769474Y-71995921D01*
X74801859Y-71951349D01*
X74894755Y-71769031D01*
X74957990Y-71574417D01*
X74990000Y-71372317D01*
X74990000Y-71167682D01*
X74957990Y-70965582D01*
X74894755Y-70770968D01*
X74801859Y-70588650D01*
X74769474Y-70544077D01*
X74769474Y-70544076D01*
X74090000Y-71223551D01*
X74090000Y-71217339D01*
X74062741Y-71115606D01*
X74010080Y-71024394D01*
X73935606Y-70949920D01*
X73844394Y-70897259D01*
X73742661Y-70870000D01*
X73736446Y-70870000D01*
X74415922Y-70190524D01*
X74415921Y-70190523D01*
X74371359Y-70158147D01*
X74371350Y-70158141D01*
X74278369Y-70110765D01*
X74227573Y-70062790D01*
X74210778Y-69994969D01*
X74233315Y-69928835D01*
X74278370Y-69889795D01*
X74278920Y-69889515D01*
X74371610Y-69842287D01*
X74421144Y-69806298D01*
X74537213Y-69721971D01*
X74537215Y-69721968D01*
X74537219Y-69721966D01*
X74681966Y-69577219D01*
X74681968Y-69577215D01*
X74681971Y-69577213D01*
X74752219Y-69480523D01*
X74802287Y-69411610D01*
X74895220Y-69229219D01*
X74958477Y-69034534D01*
X74990500Y-68832352D01*
X74990500Y-68627648D01*
X74958477Y-68425466D01*
X74905628Y-68262816D01*
X74903634Y-68192978D01*
X74939714Y-68133145D01*
X75002415Y-68102316D01*
X75023560Y-68100500D01*
X79976440Y-68100500D01*
X80043479Y-68120185D01*
G37*
%TD.AperFunction*%
%TA.AperFunction,Conductor*%
G36*
X79965038Y-59455732D02*
G01*
X79993947Y-59457800D01*
X79999046Y-59461617D01*
X80005324Y-59462704D01*
X80026679Y-59482304D01*
X80049880Y-59499672D01*
X80052105Y-59505639D01*
X80056800Y-59509948D01*
X80064168Y-59537980D01*
X80074297Y-59565136D01*
X80073349Y-59572907D01*
X80074562Y-59577522D01*
X80068544Y-59612299D01*
X80041524Y-59695457D01*
X80041523Y-59695464D01*
X80009500Y-59897648D01*
X80009500Y-60102351D01*
X80041522Y-60304534D01*
X80104781Y-60499223D01*
X80168691Y-60624653D01*
X80197712Y-60681609D01*
X80197715Y-60681613D01*
X80318028Y-60847213D01*
X80462786Y-60991971D01*
X80617749Y-61104556D01*
X80628390Y-61112287D01*
X80744607Y-61171503D01*
X80810776Y-61205218D01*
X80810778Y-61205218D01*
X80810781Y-61205220D01*
X80915137Y-61239127D01*
X81005465Y-61268477D01*
X81106557Y-61284488D01*
X81207648Y-61300500D01*
X81207649Y-61300500D01*
X81412351Y-61300500D01*
X81412352Y-61300500D01*
X81614534Y-61268477D01*
X81809219Y-61205220D01*
X81991610Y-61112287D01*
X82119356Y-61019475D01*
X82157213Y-60991971D01*
X82157215Y-60991968D01*
X82157219Y-60991966D01*
X82301966Y-60847219D01*
X82301968Y-60847215D01*
X82301971Y-60847213D01*
X82366894Y-60757853D01*
X82422287Y-60681610D01*
X82515220Y-60499219D01*
X82557569Y-60368881D01*
X82597007Y-60311207D01*
X82661366Y-60284009D01*
X82730212Y-60295924D01*
X82781688Y-60343168D01*
X82799500Y-60407201D01*
X82799500Y-65782798D01*
X82779815Y-65849837D01*
X82727011Y-65895592D01*
X82657853Y-65905536D01*
X82594297Y-65876511D01*
X82557569Y-65821117D01*
X82515218Y-65690776D01*
X82463865Y-65589991D01*
X82422287Y-65508390D01*
X82406892Y-65487200D01*
X82301971Y-65342786D01*
X82157213Y-65198028D01*
X81991613Y-65077715D01*
X81991612Y-65077714D01*
X81991610Y-65077713D01*
X81931896Y-65047287D01*
X81809223Y-64984781D01*
X81614534Y-64921522D01*
X81439995Y-64893878D01*
X81412352Y-64889500D01*
X81207648Y-64889500D01*
X81183329Y-64893351D01*
X81005465Y-64921522D01*
X80810776Y-64984781D01*
X80628386Y-65077715D01*
X80507123Y-65165818D01*
X80441317Y-65189298D01*
X80434238Y-65189500D01*
X77534461Y-65189500D01*
X77467422Y-65169815D01*
X77446780Y-65153181D01*
X76869265Y-64575666D01*
X76835780Y-64514343D01*
X76840764Y-64444651D01*
X76882636Y-64388718D01*
X76900654Y-64377499D01*
X76931347Y-64361861D01*
X76975921Y-64329474D01*
X76296446Y-63650000D01*
X76302661Y-63650000D01*
X76404394Y-63622741D01*
X76495606Y-63570080D01*
X76570080Y-63495606D01*
X76622741Y-63404394D01*
X76650000Y-63302661D01*
X76650000Y-63296447D01*
X77329474Y-63975921D01*
X77361859Y-63931349D01*
X77454755Y-63749031D01*
X77517990Y-63554417D01*
X77550000Y-63352317D01*
X77550000Y-63147682D01*
X77549995Y-63147648D01*
X79949500Y-63147648D01*
X79949500Y-63352351D01*
X79981522Y-63554534D01*
X80044781Y-63749223D01*
X80089600Y-63837183D01*
X80131203Y-63918834D01*
X80137715Y-63931613D01*
X80258028Y-64097213D01*
X80402786Y-64241971D01*
X80557749Y-64354556D01*
X80568390Y-64362287D01*
X80684607Y-64421503D01*
X80750776Y-64455218D01*
X80750778Y-64455218D01*
X80750781Y-64455220D01*
X80855137Y-64489127D01*
X80945465Y-64518477D01*
X81046557Y-64534488D01*
X81147648Y-64550500D01*
X81147649Y-64550500D01*
X81352351Y-64550500D01*
X81352352Y-64550500D01*
X81554534Y-64518477D01*
X81749219Y-64455220D01*
X81931610Y-64362287D01*
X82024590Y-64294732D01*
X82097213Y-64241971D01*
X82097215Y-64241968D01*
X82097219Y-64241966D01*
X82241966Y-64097219D01*
X82241968Y-64097215D01*
X82241971Y-64097213D01*
X82312962Y-63999500D01*
X82362287Y-63931610D01*
X82455220Y-63749219D01*
X82518477Y-63554534D01*
X82550500Y-63352352D01*
X82550500Y-63147648D01*
X82539853Y-63080428D01*
X82518477Y-62945465D01*
X82477186Y-62818386D01*
X82455220Y-62750781D01*
X82455218Y-62750778D01*
X82455218Y-62750776D01*
X82405286Y-62652781D01*
X82362287Y-62568390D01*
X82348119Y-62548889D01*
X82241971Y-62402786D01*
X82097213Y-62258028D01*
X81931613Y-62137715D01*
X81931612Y-62137714D01*
X81931610Y-62137713D01*
X81859437Y-62100939D01*
X81749223Y-62044781D01*
X81554534Y-61981522D01*
X81379995Y-61953878D01*
X81352352Y-61949500D01*
X81147648Y-61949500D01*
X81123329Y-61953351D01*
X80945465Y-61981522D01*
X80750776Y-62044781D01*
X80568386Y-62137715D01*
X80402786Y-62258028D01*
X80258028Y-62402786D01*
X80137715Y-62568386D01*
X80044781Y-62750776D01*
X79981522Y-62945465D01*
X79949500Y-63147648D01*
X77549995Y-63147648D01*
X77517990Y-62945582D01*
X77454755Y-62750968D01*
X77361859Y-62568650D01*
X77329474Y-62524077D01*
X77329474Y-62524076D01*
X76650000Y-63203551D01*
X76650000Y-63197339D01*
X76622741Y-63095606D01*
X76570080Y-63004394D01*
X76495606Y-62929920D01*
X76404394Y-62877259D01*
X76302661Y-62850000D01*
X76296445Y-62850000D01*
X77011162Y-62135284D01*
X77072485Y-62101799D01*
X77077417Y-62100939D01*
X77079052Y-62100501D01*
X77079057Y-62100501D01*
X77231785Y-62059577D01*
X77281904Y-62030639D01*
X77368716Y-61980520D01*
X77480520Y-61868716D01*
X77480520Y-61868714D01*
X77490728Y-61858507D01*
X77490729Y-61858504D01*
X79862935Y-59486299D01*
X79868523Y-59483248D01*
X79872119Y-59477989D01*
X79898819Y-59466704D01*
X79924255Y-59452816D01*
X79930608Y-59453270D01*
X79936477Y-59450790D01*
X79965038Y-59455732D01*
G37*
%TD.AperFunction*%
%TA.AperFunction,Conductor*%
G36*
X75469730Y-62120185D02*
G01*
X75490372Y-62136819D01*
X76203553Y-62850000D01*
X76197339Y-62850000D01*
X76095606Y-62877259D01*
X76004394Y-62929920D01*
X75929920Y-63004394D01*
X75877259Y-63095606D01*
X75850000Y-63197339D01*
X75850000Y-63203553D01*
X75170524Y-62524077D01*
X75170523Y-62524077D01*
X75138143Y-62568644D01*
X75045244Y-62750968D01*
X74982009Y-62945582D01*
X74958360Y-63094898D01*
X74928431Y-63158033D01*
X74869119Y-63194964D01*
X74835887Y-63199500D01*
X71801459Y-63199500D01*
X71785543Y-63202666D01*
X71785542Y-63202666D01*
X71691132Y-63221445D01*
X71621540Y-63215218D01*
X71566363Y-63172354D01*
X71543119Y-63106465D01*
X71544467Y-63080439D01*
X71550500Y-63042352D01*
X71550500Y-62837648D01*
X71547449Y-62818386D01*
X71518477Y-62635465D01*
X71484626Y-62531283D01*
X71455220Y-62440781D01*
X71455218Y-62440778D01*
X71455218Y-62440776D01*
X71373703Y-62280795D01*
X71360807Y-62212126D01*
X71387083Y-62147385D01*
X71444190Y-62107128D01*
X71484188Y-62100500D01*
X75402691Y-62100500D01*
X75469730Y-62120185D01*
G37*
%TD.AperFunction*%
%TD*%
M02*
