%TF.GenerationSoftware,KiCad,Pcbnew,10.0.1*%
%TF.CreationDate,2026-06-20T14:04:33+02:00*%
%TF.ProjectId,DMH_Submodule_VCA,444d485f-5375-4626-9d6f-64756c655f56,1*%
%TF.SameCoordinates,Original*%
%TF.FileFunction,Copper,L1,Top*%
%TF.FilePolarity,Positive*%
%FSLAX46Y46*%
G04 Gerber Fmt 4.6, Leading zero omitted, Abs format (unit mm)*
G04 Created by KiCad (PCBNEW 10.0.1) date 2026-06-20 14:04:33*
%MOMM*%
%LPD*%
G01*
G04 APERTURE LIST*
G04 Aperture macros list*
%AMRoundRect*
0 Rectangle with rounded corners*
0 $1 Rounding radius*
0 $2 $3 $4 $5 $6 $7 $8 $9 X,Y pos of 4 corners*
0 Add a 4 corners polygon primitive as box body*
4,1,4,$2,$3,$4,$5,$6,$7,$8,$9,$2,$3,0*
0 Add four circle primitives for the rounded corners*
1,1,$1+$1,$2,$3*
1,1,$1+$1,$4,$5*
1,1,$1+$1,$6,$7*
1,1,$1+$1,$8,$9*
0 Add four rect primitives between the rounded corners*
20,1,$1+$1,$2,$3,$4,$5,0*
20,1,$1+$1,$4,$5,$6,$7,0*
20,1,$1+$1,$6,$7,$8,$9,0*
20,1,$1+$1,$8,$9,$2,$3,0*%
G04 Aperture macros list end*
%TA.AperFunction,ComponentPad*%
%ADD10C,1.600000*%
%TD*%
%TA.AperFunction,ComponentPad*%
%ADD11C,1.440000*%
%TD*%
%TA.AperFunction,ComponentPad*%
%ADD12R,1.500000X1.500000*%
%TD*%
%TA.AperFunction,ComponentPad*%
%ADD13C,1.500000*%
%TD*%
%TA.AperFunction,ComponentPad*%
%ADD14R,1.700000X1.700000*%
%TD*%
%TA.AperFunction,ComponentPad*%
%ADD15C,1.700000*%
%TD*%
%TA.AperFunction,ComponentPad*%
%ADD16RoundRect,0.250000X-0.550000X-0.550000X0.550000X-0.550000X0.550000X0.550000X-0.550000X0.550000X0*%
%TD*%
%TA.AperFunction,Conductor*%
%ADD17C,0.200000*%
%TD*%
%TA.AperFunction,Conductor*%
%ADD18C,1.000000*%
%TD*%
G04 APERTURE END LIST*
D10*
%TO.P,R4,1*%
%TO.N,Net-(Q1-C)*%
X64310000Y-52000000D03*
%TO.P,R4,2*%
%TO.N,+12V*%
X56690000Y-52000000D03*
%TD*%
D11*
%TO.P,RV1,1,1_1*%
%TO.N,-12V*%
X63040000Y-57745000D03*
%TO.P,RV1,2,2_2*%
%TO.N,Net-(R10-Pad1)*%
X60500000Y-57745000D03*
%TO.P,RV1,3,3_3*%
%TO.N,+12V*%
X57960000Y-57745000D03*
%TD*%
D12*
%TO.P,Q1,1,C_1*%
%TO.N,Net-(Q1-C)*%
X75450000Y-56800000D03*
D13*
%TO.P,Q1,2,B_2*%
%TO.N,Net-(Q1-B)*%
X75450000Y-54260000D03*
%TO.P,Q1,3,E_3*%
%TO.N,Net-(Q1-E)*%
X75450000Y-51720000D03*
%TD*%
D10*
%TO.P,R7,1*%
%TO.N,GND*%
X86650000Y-59360000D03*
%TO.P,R7,2*%
%TO.N,Net-(Q2-B)*%
X86650000Y-51740000D03*
%TD*%
%TO.P,R3,1*%
%TO.N,GND*%
X67250000Y-59310000D03*
%TO.P,R3,2*%
%TO.N,Net-(Q1-B)*%
X67250000Y-51690000D03*
%TD*%
%TO.P,R10,1*%
%TO.N,Net-(R10-Pad1)*%
X56690000Y-68250000D03*
%TO.P,R10,2*%
%TO.N,Net-(Q2-B)*%
X64310000Y-68250000D03*
%TD*%
%TO.P,R9,1*%
%TO.N,Net-(U1B-+)*%
X67250000Y-70560000D03*
%TO.P,R9,2*%
%TO.N,Net-(Q2-C)*%
X67250000Y-62940000D03*
%TD*%
%TO.P,R5,1*%
%TO.N,Net-(R1-Pad2)*%
X70250000Y-59310000D03*
%TO.P,R5,2*%
%TO.N,Net-(Q1-E)*%
X70250000Y-51690000D03*
%TD*%
%TO.P,C2,1*%
%TO.N,GND*%
X66000000Y-74250000D03*
%TO.P,C2,2*%
%TO.N,-12V*%
X71000000Y-74250000D03*
%TD*%
%TO.P,R11,1*%
%TO.N,Net-(U1B-+)*%
X70250000Y-62940000D03*
%TO.P,R11,2*%
%TO.N,GND*%
X70250000Y-70560000D03*
%TD*%
%TO.P,C1,1*%
%TO.N,+12V*%
X81250000Y-63250000D03*
%TO.P,C1,2*%
%TO.N,GND*%
X76250000Y-63250000D03*
%TD*%
D14*
%TO.P,J1,1,Pin_1_1*%
%TO.N,+12V*%
X88340000Y-64960000D03*
D15*
%TO.P,J1,2,Pin_2_2*%
%TO.N,/CV Mix In*%
X90880000Y-64960000D03*
%TO.P,J1,3,Pin_3_3*%
%TO.N,-12V*%
X88340000Y-67500000D03*
%TO.P,J1,4,Pin_4_4*%
%TO.N,/Signal In*%
X90880000Y-67500000D03*
%TO.P,J1,5,Pin_5_5*%
%TO.N,GND*%
X88340000Y-70040000D03*
%TO.P,J1,6,Pin_6_6*%
%TO.N,/Signal Out*%
X90880000Y-70040000D03*
%TD*%
D10*
%TO.P,R1,1*%
%TO.N,/CV Mix In*%
X92650000Y-59360000D03*
%TO.P,R1,2*%
%TO.N,Net-(R1-Pad2)*%
X92650000Y-51740000D03*
%TD*%
D16*
%TO.P,U1,1*%
%TO.N,Net-(R1-Pad2)*%
X73690000Y-66190000D03*
D10*
%TO.P,U1,2,-_2*%
%TO.N,/CV Mix In*%
X73690000Y-68730000D03*
%TO.P,U1,3,+_3*%
%TO.N,GND*%
X73690000Y-71270000D03*
%TO.P,U1,4,V-_4*%
%TO.N,-12V*%
X73690000Y-73810000D03*
%TO.P,U1,5,+_5*%
%TO.N,Net-(U1B-+)*%
X81310000Y-73810000D03*
%TO.P,U1,6,-_6*%
%TO.N,Net-(U1B--)*%
X81310000Y-71270000D03*
%TO.P,U1,7*%
%TO.N,/Signal Out*%
X81310000Y-68730000D03*
%TO.P,U1,8,V+_8*%
%TO.N,+12V*%
X81310000Y-66190000D03*
%TD*%
%TO.P,R12,1*%
%TO.N,/Signal Out*%
X84500000Y-65690000D03*
%TO.P,R12,2*%
%TO.N,Net-(U1B--)*%
X84500000Y-73310000D03*
%TD*%
D12*
%TO.P,Q2,1,C_1*%
%TO.N,Net-(Q2-C)*%
X81700000Y-56800000D03*
D13*
%TO.P,Q2,2,B_2*%
%TO.N,Net-(Q2-B)*%
X81700000Y-54260000D03*
%TO.P,Q2,3,E_3*%
%TO.N,Net-(Q1-E)*%
X81700000Y-51720000D03*
%TD*%
D10*
%TO.P,R2,1*%
%TO.N,Net-(Q1-B)*%
X89650000Y-51740000D03*
%TO.P,R2,2*%
%TO.N,/Signal In*%
X89650000Y-59360000D03*
%TD*%
%TO.P,R8,1*%
%TO.N,Net-(U1B--)*%
X81310000Y-60000000D03*
%TO.P,R8,2*%
%TO.N,Net-(Q1-C)*%
X73690000Y-60000000D03*
%TD*%
%TO.P,R6,1*%
%TO.N,Net-(Q2-C)*%
X64310000Y-63500000D03*
%TO.P,R6,2*%
%TO.N,+12V*%
X56690000Y-63500000D03*
%TD*%
%TO.N,Net-(Q1-C)*%
D17*
X75450000Y-58240000D02*
X73690000Y-60000000D01*
X75450000Y-56800000D02*
X75450000Y-58240000D01*
%TO.N,+12V*%
D18*
X81250000Y-63250000D02*
X86630000Y-63250000D01*
X86630000Y-63250000D02*
X88340000Y-64960000D01*
X81310000Y-63310000D02*
X81250000Y-63250000D01*
X56690000Y-56475000D02*
X57960000Y-57745000D01*
X56690000Y-63500000D02*
X56690000Y-59015000D01*
X81310000Y-66190000D02*
X81310000Y-63310000D01*
X56690000Y-59015000D02*
X57960000Y-57745000D01*
X56690000Y-52000000D02*
X56690000Y-56475000D01*
%TO.N,-12V*%
X63060000Y-72060000D02*
X66310000Y-72060000D01*
X66310000Y-72060000D02*
X68500000Y-74250000D01*
X68500000Y-74250000D02*
X71000000Y-74250000D01*
X61750000Y-59035000D02*
X61750000Y-70750000D01*
X61750000Y-70750000D02*
X63060000Y-72060000D01*
X63040000Y-57745000D02*
X61750000Y-59035000D01*
%TO.N,Net-(R10-Pad1)*%
D17*
X60500000Y-57745000D02*
X60500000Y-64440000D01*
X60500000Y-64440000D02*
X56690000Y-68250000D01*
%TO.N,Net-(U1B-+)*%
X79410000Y-73810000D02*
X81310000Y-73810000D01*
X67250000Y-70560000D02*
X67250000Y-65940000D01*
X70250000Y-62940000D02*
X70250000Y-67650000D01*
X75600000Y-70000000D02*
X79410000Y-73810000D01*
X72600000Y-70000000D02*
X75600000Y-70000000D01*
X67250000Y-65940000D02*
X70250000Y-62940000D01*
X70250000Y-67650000D02*
X72600000Y-70000000D01*
%TO.N,Net-(R1-Pad2)*%
X81040000Y-55400000D02*
X88990000Y-55400000D01*
X73690000Y-66190000D02*
X73690000Y-62750000D01*
X88990000Y-55400000D02*
X92700000Y-51690000D01*
X73690000Y-62750000D02*
X81040000Y-55400000D01*
X73690000Y-62750000D02*
X70250000Y-59310000D01*
%TO.N,/CV Mix In*%
X92650000Y-63190000D02*
X92650000Y-59360000D01*
X90880000Y-64960000D02*
X89590000Y-66250000D01*
X90880000Y-64960000D02*
X92650000Y-63190000D01*
X80700000Y-72500000D02*
X76930000Y-68730000D01*
X76930000Y-68730000D02*
X73690000Y-68730000D01*
X89590000Y-66250000D02*
X86800000Y-66250000D01*
X82650000Y-71850000D02*
X82000000Y-72500000D01*
X82650000Y-70400000D02*
X82650000Y-71850000D01*
X82000000Y-72500000D02*
X80700000Y-72500000D01*
X86800000Y-66250000D02*
X82650000Y-70400000D01*
%TO.N,/Signal Out*%
X81310000Y-68730000D02*
X84350000Y-65690000D01*
X84350000Y-65690000D02*
X84500000Y-65690000D01*
%TO.N,Net-(U1B--)*%
X81310000Y-71270000D02*
X80150000Y-70110000D01*
X80150000Y-61160000D02*
X81310000Y-60000000D01*
X80150000Y-70110000D02*
X80150000Y-61160000D01*
%TD*%
%TA.AperFunction,Conductor*%
%TO.N,GND*%
G36*
X69568834Y-64572915D02*
G01*
X69624767Y-64614787D01*
X69649184Y-64680251D01*
X69649500Y-64689097D01*
X69649500Y-67563330D01*
X69649499Y-67563348D01*
X69649499Y-67729054D01*
X69649498Y-67729054D01*
X69690423Y-67881785D01*
X69719358Y-67931900D01*
X69719359Y-67931904D01*
X69719360Y-67931904D01*
X69769304Y-68018412D01*
X69769479Y-68018714D01*
X69769481Y-68018717D01*
X69888349Y-68137585D01*
X69888355Y-68137590D01*
X70923256Y-69172491D01*
X70956741Y-69233814D01*
X70951757Y-69303506D01*
X70909885Y-69359439D01*
X70844421Y-69383856D01*
X70779282Y-69370657D01*
X70749037Y-69355246D01*
X70554417Y-69292009D01*
X70352317Y-69260000D01*
X70147683Y-69260000D01*
X69945582Y-69292009D01*
X69750968Y-69355244D01*
X69568644Y-69448143D01*
X69524077Y-69480523D01*
X69524077Y-69480524D01*
X70203554Y-70160000D01*
X70197339Y-70160000D01*
X70095606Y-70187259D01*
X70004394Y-70239920D01*
X69929920Y-70314394D01*
X69877259Y-70405606D01*
X69850000Y-70507339D01*
X69850000Y-70513553D01*
X69170524Y-69834077D01*
X69170523Y-69834077D01*
X69138143Y-69878644D01*
X69045244Y-70060968D01*
X68982009Y-70255582D01*
X68950000Y-70457682D01*
X68950000Y-70662317D01*
X68982009Y-70864417D01*
X69045244Y-71059031D01*
X69138141Y-71241350D01*
X69138147Y-71241359D01*
X69170523Y-71285921D01*
X69170524Y-71285922D01*
X69850000Y-70606446D01*
X69850000Y-70612661D01*
X69877259Y-70714394D01*
X69929920Y-70805606D01*
X70004394Y-70880080D01*
X70095606Y-70932741D01*
X70197339Y-70960000D01*
X70203553Y-70960000D01*
X69524076Y-71639474D01*
X69568650Y-71671859D01*
X69750968Y-71764755D01*
X69945582Y-71827990D01*
X70147683Y-71860000D01*
X70352317Y-71860000D01*
X70554417Y-71827990D01*
X70749031Y-71764755D01*
X70931349Y-71671859D01*
X70975921Y-71639474D01*
X70296447Y-70960000D01*
X70302661Y-70960000D01*
X70404394Y-70932741D01*
X70495606Y-70880080D01*
X70570080Y-70805606D01*
X70622741Y-70714394D01*
X70650000Y-70612661D01*
X70650000Y-70606446D01*
X71329474Y-71285921D01*
X71361859Y-71241349D01*
X71454755Y-71059031D01*
X71517990Y-70864417D01*
X71550000Y-70662317D01*
X71550000Y-70457682D01*
X71517990Y-70255582D01*
X71454755Y-70060968D01*
X71439342Y-70030719D01*
X71426446Y-69962050D01*
X71452722Y-69897309D01*
X71509829Y-69857052D01*
X71579634Y-69854060D01*
X71637508Y-69886743D01*
X72115139Y-70364374D01*
X72115149Y-70364385D01*
X72119479Y-70368715D01*
X72119480Y-70368716D01*
X72231284Y-70480520D01*
X72231286Y-70480521D01*
X72231290Y-70480524D01*
X72283677Y-70510769D01*
X72283679Y-70510770D01*
X72289125Y-70513914D01*
X72368215Y-70559577D01*
X72427694Y-70575514D01*
X72436797Y-70579607D01*
X72456055Y-70596096D01*
X72477707Y-70609294D01*
X72482148Y-70618438D01*
X72489871Y-70625050D01*
X72497157Y-70649335D01*
X72508236Y-70672141D01*
X72507029Y-70682234D01*
X72509951Y-70691972D01*
X72502950Y-70716344D01*
X72499941Y-70741517D01*
X72496440Y-70748995D01*
X72485245Y-70770967D01*
X72422009Y-70965582D01*
X72390000Y-71167682D01*
X72390000Y-71372317D01*
X72422009Y-71574417D01*
X72485244Y-71769031D01*
X72578141Y-71951350D01*
X72578147Y-71951359D01*
X72610523Y-71995921D01*
X72610524Y-71995922D01*
X73290000Y-71316446D01*
X73290000Y-71322661D01*
X73317259Y-71424394D01*
X73369920Y-71515606D01*
X73444394Y-71590080D01*
X73535606Y-71642741D01*
X73637339Y-71670000D01*
X73643553Y-71670000D01*
X72964076Y-72349474D01*
X73008652Y-72381861D01*
X73101628Y-72429234D01*
X73152425Y-72477208D01*
X73169220Y-72545029D01*
X73146683Y-72611164D01*
X73101630Y-72650203D01*
X73008388Y-72697713D01*
X72842786Y-72818028D01*
X72698028Y-72962786D01*
X72577715Y-73128386D01*
X72484781Y-73310776D01*
X72421523Y-73505464D01*
X72400289Y-73639525D01*
X72370359Y-73702659D01*
X72311047Y-73739590D01*
X72241185Y-73738592D01*
X72182952Y-73699982D01*
X72167333Y-73676425D01*
X72112287Y-73568390D01*
X72112285Y-73568387D01*
X72112284Y-73568385D01*
X71991971Y-73402786D01*
X71847213Y-73258028D01*
X71681613Y-73137715D01*
X71681612Y-73137714D01*
X71681610Y-73137713D01*
X71624653Y-73108691D01*
X71499223Y-73044781D01*
X71304534Y-72981522D01*
X71116968Y-72951815D01*
X71102352Y-72949500D01*
X70897648Y-72949500D01*
X70883032Y-72951815D01*
X70695465Y-72981522D01*
X70500776Y-73044781D01*
X70318386Y-73137715D01*
X70197123Y-73225818D01*
X70131317Y-73249298D01*
X70124238Y-73249500D01*
X68965783Y-73249500D01*
X68898744Y-73229815D01*
X68878102Y-73213181D01*
X68267150Y-72602229D01*
X67651471Y-71986551D01*
X67617987Y-71925229D01*
X67622971Y-71855537D01*
X67664843Y-71799604D01*
X67700832Y-71780941D01*
X67749219Y-71765220D01*
X67931610Y-71672287D01*
X68066318Y-71574417D01*
X68097213Y-71551971D01*
X68097215Y-71551968D01*
X68097219Y-71551966D01*
X68241966Y-71407219D01*
X68241968Y-71407215D01*
X68241971Y-71407213D01*
X68303400Y-71322661D01*
X68362287Y-71241610D01*
X68455220Y-71059219D01*
X68518477Y-70864534D01*
X68550500Y-70662352D01*
X68550500Y-70457648D01*
X68528393Y-70318070D01*
X68518477Y-70255465D01*
X68456519Y-70064780D01*
X68455220Y-70060781D01*
X68455218Y-70060778D01*
X68455218Y-70060776D01*
X68404914Y-69962050D01*
X68362287Y-69878390D01*
X68330092Y-69834077D01*
X68241971Y-69712786D01*
X68097213Y-69568028D01*
X67931610Y-69447712D01*
X67918200Y-69440879D01*
X67867406Y-69392903D01*
X67850500Y-69330397D01*
X67850500Y-66240097D01*
X67870185Y-66173058D01*
X67886819Y-66152416D01*
X69437819Y-64601416D01*
X69499142Y-64567931D01*
X69568834Y-64572915D01*
G37*
%TD.AperFunction*%
%TA.AperFunction,Conductor*%
G36*
X89681444Y-68153999D02*
G01*
X89720484Y-68199054D01*
X89724591Y-68207115D01*
X89724951Y-68207820D01*
X89849890Y-68379786D01*
X90000213Y-68530109D01*
X90172182Y-68655050D01*
X90180946Y-68659516D01*
X90231742Y-68707491D01*
X90248536Y-68775312D01*
X90225998Y-68841447D01*
X90180946Y-68880484D01*
X90172182Y-68884949D01*
X90000213Y-69009890D01*
X89849890Y-69160213D01*
X89724949Y-69332182D01*
X89720202Y-69341499D01*
X89672227Y-69392293D01*
X89604405Y-69409087D01*
X89538271Y-69386548D01*
X89499234Y-69341495D01*
X89494626Y-69332452D01*
X89455270Y-69278282D01*
X89455269Y-69278282D01*
X88822962Y-69910590D01*
X88805925Y-69847007D01*
X88740099Y-69732993D01*
X88647007Y-69639901D01*
X88532993Y-69574075D01*
X88469409Y-69557037D01*
X89101716Y-68924728D01*
X89047547Y-68885373D01*
X89047547Y-68885372D01*
X89038500Y-68880763D01*
X88987706Y-68832788D01*
X88970912Y-68764966D01*
X88993451Y-68698832D01*
X89038508Y-68659793D01*
X89047816Y-68655051D01*
X89186167Y-68554534D01*
X89219786Y-68530109D01*
X89219788Y-68530106D01*
X89219792Y-68530104D01*
X89370104Y-68379792D01*
X89370106Y-68379788D01*
X89370109Y-68379786D01*
X89495048Y-68207820D01*
X89495047Y-68207820D01*
X89495051Y-68207816D01*
X89499514Y-68199054D01*
X89547488Y-68148259D01*
X89615308Y-68131463D01*
X89681444Y-68153999D01*
G37*
%TD.AperFunction*%
%TA.AperFunction,Conductor*%
G36*
X94442539Y-50020185D02*
G01*
X94488294Y-50072989D01*
X94499500Y-50124500D01*
X94499500Y-75875500D01*
X94479815Y-75942539D01*
X94427011Y-75988294D01*
X94375500Y-75999500D01*
X54624500Y-75999500D01*
X54557461Y-75979815D01*
X54511706Y-75927011D01*
X54500500Y-75875500D01*
X54500500Y-51897648D01*
X55389500Y-51897648D01*
X55389500Y-52102351D01*
X55421522Y-52304534D01*
X55484781Y-52499223D01*
X55529615Y-52587213D01*
X55577713Y-52681610D01*
X55665819Y-52802877D01*
X55689298Y-52868681D01*
X55689500Y-52875761D01*
X55689500Y-56573544D01*
X55727947Y-56766828D01*
X55727949Y-56766836D01*
X55747508Y-56814055D01*
X55747508Y-56814056D01*
X55803364Y-56948907D01*
X55803371Y-56948920D01*
X55912860Y-57112781D01*
X55912863Y-57112785D01*
X56056537Y-57256459D01*
X56056559Y-57256479D01*
X56457398Y-57657318D01*
X56490883Y-57718641D01*
X56485899Y-57788333D01*
X56457398Y-57832680D01*
X56248557Y-58041522D01*
X56052221Y-58237858D01*
X56052218Y-58237861D01*
X56009556Y-58280523D01*
X55912859Y-58377219D01*
X55803371Y-58541080D01*
X55803364Y-58541093D01*
X55762386Y-58640025D01*
X55762383Y-58640032D01*
X55760119Y-58645500D01*
X55727949Y-58723164D01*
X55712581Y-58800423D01*
X55711358Y-58806570D01*
X55711358Y-58806571D01*
X55689500Y-58916456D01*
X55689500Y-62624237D01*
X55669815Y-62691276D01*
X55665818Y-62697122D01*
X55577715Y-62818386D01*
X55484781Y-63000776D01*
X55421522Y-63195465D01*
X55389500Y-63397648D01*
X55389500Y-63602351D01*
X55421522Y-63804534D01*
X55484781Y-63999223D01*
X55537436Y-64102562D01*
X55559171Y-64145220D01*
X55577715Y-64181613D01*
X55698028Y-64347213D01*
X55842786Y-64491971D01*
X55960805Y-64577715D01*
X56008390Y-64612287D01*
X56124607Y-64671503D01*
X56190776Y-64705218D01*
X56190778Y-64705218D01*
X56190781Y-64705220D01*
X56295137Y-64739127D01*
X56385465Y-64768477D01*
X56486557Y-64784488D01*
X56587648Y-64800500D01*
X56587649Y-64800500D01*
X56792351Y-64800500D01*
X56792352Y-64800500D01*
X56994534Y-64768477D01*
X57189219Y-64705220D01*
X57371610Y-64612287D01*
X57482619Y-64531635D01*
X57537213Y-64491971D01*
X57537215Y-64491968D01*
X57537219Y-64491966D01*
X57681966Y-64347219D01*
X57681968Y-64347215D01*
X57681971Y-64347213D01*
X57783883Y-64206941D01*
X57802287Y-64181610D01*
X57895220Y-63999219D01*
X57958477Y-63804534D01*
X57990500Y-63602352D01*
X57990500Y-63397648D01*
X57979961Y-63331110D01*
X57958477Y-63195465D01*
X57928540Y-63103330D01*
X57895220Y-63000781D01*
X57895218Y-63000778D01*
X57895218Y-63000776D01*
X57859114Y-62929920D01*
X57802287Y-62818390D01*
X57789654Y-62801003D01*
X57714182Y-62697122D01*
X57690702Y-62631316D01*
X57690500Y-62624237D01*
X57690500Y-59480781D01*
X57710185Y-59413742D01*
X57726815Y-59393104D01*
X58144443Y-58975475D01*
X58205764Y-58941992D01*
X58212686Y-58940691D01*
X58245801Y-58935447D01*
X58428509Y-58876082D01*
X58599681Y-58788865D01*
X58755102Y-58675945D01*
X58890945Y-58540102D01*
X59003865Y-58384681D01*
X59091082Y-58213509D01*
X59091084Y-58213504D01*
X59112069Y-58148919D01*
X59151506Y-58091243D01*
X59215864Y-58064044D01*
X59284711Y-58075958D01*
X59336187Y-58123202D01*
X59347931Y-58148919D01*
X59368915Y-58213504D01*
X59403064Y-58280524D01*
X59456135Y-58384681D01*
X59569055Y-58540102D01*
X59704898Y-58675945D01*
X59848386Y-58780195D01*
X59891051Y-58835525D01*
X59899500Y-58880513D01*
X59899500Y-64139902D01*
X59879815Y-64206941D01*
X59863181Y-64227583D01*
X57134842Y-66955921D01*
X57073519Y-66989406D01*
X57008848Y-66986173D01*
X56994534Y-66981522D01*
X56819995Y-66953878D01*
X56792352Y-66949500D01*
X56587648Y-66949500D01*
X56563329Y-66953351D01*
X56385465Y-66981522D01*
X56190776Y-67044781D01*
X56008386Y-67137715D01*
X55842786Y-67258028D01*
X55698028Y-67402786D01*
X55577715Y-67568386D01*
X55484781Y-67750776D01*
X55421522Y-67945465D01*
X55389500Y-68147648D01*
X55389500Y-68352351D01*
X55421522Y-68554534D01*
X55484781Y-68749223D01*
X55536385Y-68850500D01*
X55574206Y-68924728D01*
X55577715Y-68931613D01*
X55698028Y-69097213D01*
X55842786Y-69241971D01*
X55991733Y-69350185D01*
X56008390Y-69362287D01*
X56105192Y-69411610D01*
X56190776Y-69455218D01*
X56190778Y-69455218D01*
X56190781Y-69455220D01*
X56262528Y-69478532D01*
X56385465Y-69518477D01*
X56486557Y-69534488D01*
X56587648Y-69550500D01*
X56587649Y-69550500D01*
X56792351Y-69550500D01*
X56792352Y-69550500D01*
X56994534Y-69518477D01*
X57189219Y-69455220D01*
X57371610Y-69362287D01*
X57487234Y-69278282D01*
X57537213Y-69241971D01*
X57537215Y-69241968D01*
X57537219Y-69241966D01*
X57681966Y-69097219D01*
X57681968Y-69097215D01*
X57681971Y-69097213D01*
X57781244Y-68960573D01*
X57802287Y-68931610D01*
X57895220Y-68749219D01*
X57958477Y-68554534D01*
X57990500Y-68352352D01*
X57990500Y-68147648D01*
X57958477Y-67945466D01*
X57953825Y-67931151D01*
X57951832Y-67861312D01*
X57984075Y-67805158D01*
X60537821Y-65251413D01*
X60599142Y-65217930D01*
X60668834Y-65222914D01*
X60724767Y-65264786D01*
X60749184Y-65330250D01*
X60749500Y-65339096D01*
X60749500Y-70848544D01*
X60787947Y-71041829D01*
X60787948Y-71041833D01*
X60787949Y-71041836D01*
X60795152Y-71059223D01*
X60795266Y-71059499D01*
X60795267Y-71059503D01*
X60863364Y-71223907D01*
X60863371Y-71223920D01*
X60972859Y-71387780D01*
X60972860Y-71387781D01*
X60972861Y-71387782D01*
X61112218Y-71527139D01*
X61112219Y-71527139D01*
X61119286Y-71534206D01*
X61119285Y-71534206D01*
X61119288Y-71534208D01*
X62282860Y-72697781D01*
X62282861Y-72697782D01*
X62395855Y-72810776D01*
X62422219Y-72837140D01*
X62586079Y-72946628D01*
X62586092Y-72946635D01*
X62714833Y-72999961D01*
X62728124Y-73005466D01*
X62768164Y-73022051D01*
X62864812Y-73041275D01*
X62913135Y-73050887D01*
X62961458Y-73060500D01*
X62961459Y-73060500D01*
X62961460Y-73060500D01*
X63158540Y-73060500D01*
X65148594Y-73060500D01*
X65215633Y-73080185D01*
X65261388Y-73132989D01*
X65266722Y-73163169D01*
X65953554Y-73850000D01*
X65947339Y-73850000D01*
X65845606Y-73877259D01*
X65754394Y-73929920D01*
X65679920Y-74004394D01*
X65627259Y-74095606D01*
X65600000Y-74197339D01*
X65600000Y-74203553D01*
X64920524Y-73524077D01*
X64920523Y-73524077D01*
X64888143Y-73568644D01*
X64795244Y-73750968D01*
X64732009Y-73945582D01*
X64700000Y-74147682D01*
X64700000Y-74352317D01*
X64732009Y-74554417D01*
X64795244Y-74749031D01*
X64888141Y-74931350D01*
X64888147Y-74931359D01*
X64920523Y-74975921D01*
X64920524Y-74975922D01*
X65600000Y-74296446D01*
X65600000Y-74302661D01*
X65627259Y-74404394D01*
X65679920Y-74495606D01*
X65754394Y-74570080D01*
X65845606Y-74622741D01*
X65947339Y-74650000D01*
X65953553Y-74650000D01*
X65274076Y-75329474D01*
X65318650Y-75361859D01*
X65500968Y-75454755D01*
X65695582Y-75517990D01*
X65897683Y-75550000D01*
X66102317Y-75550000D01*
X66304417Y-75517990D01*
X66499031Y-75454755D01*
X66681349Y-75361859D01*
X66725921Y-75329474D01*
X66046447Y-74650000D01*
X66052661Y-74650000D01*
X66154394Y-74622741D01*
X66245606Y-74570080D01*
X66320080Y-74495606D01*
X66372741Y-74404394D01*
X66400000Y-74302661D01*
X66400000Y-74296446D01*
X67079474Y-74975921D01*
X67111859Y-74931349D01*
X67204755Y-74749029D01*
X67235258Y-74655154D01*
X67274696Y-74597478D01*
X67339054Y-74570280D01*
X67407901Y-74582195D01*
X67440870Y-74605791D01*
X67862215Y-75027137D01*
X67862219Y-75027140D01*
X68026079Y-75136628D01*
X68026085Y-75136631D01*
X68026086Y-75136632D01*
X68208165Y-75212052D01*
X68358556Y-75241966D01*
X68387158Y-75247655D01*
X68401458Y-75250500D01*
X68401459Y-75250500D01*
X68401460Y-75250500D01*
X68598540Y-75250500D01*
X70124238Y-75250500D01*
X70191277Y-75270185D01*
X70197119Y-75274179D01*
X70318390Y-75362287D01*
X70434607Y-75421503D01*
X70500776Y-75455218D01*
X70500778Y-75455218D01*
X70500781Y-75455220D01*
X70605137Y-75489127D01*
X70695465Y-75518477D01*
X70796557Y-75534488D01*
X70897648Y-75550500D01*
X70897649Y-75550500D01*
X71102351Y-75550500D01*
X71102352Y-75550500D01*
X71304534Y-75518477D01*
X71499219Y-75455220D01*
X71681610Y-75362287D01*
X71808379Y-75270185D01*
X71847213Y-75241971D01*
X71847220Y-75241965D01*
X71877134Y-75212051D01*
X71991966Y-75097219D01*
X71991968Y-75097215D01*
X71991971Y-75097213D01*
X72051543Y-75015218D01*
X72112287Y-74931610D01*
X72205220Y-74749219D01*
X72268477Y-74554534D01*
X72289710Y-74420474D01*
X72319639Y-74357340D01*
X72378951Y-74320409D01*
X72448813Y-74321407D01*
X72507046Y-74360017D01*
X72522668Y-74383578D01*
X72577715Y-74491614D01*
X72698028Y-74657213D01*
X72842786Y-74801971D01*
X72997749Y-74914556D01*
X73008390Y-74922287D01*
X73124607Y-74981503D01*
X73190776Y-75015218D01*
X73190778Y-75015218D01*
X73190781Y-75015220D01*
X73295137Y-75049127D01*
X73385465Y-75078477D01*
X73486557Y-75094488D01*
X73587648Y-75110500D01*
X73587649Y-75110500D01*
X73792351Y-75110500D01*
X73792352Y-75110500D01*
X73994534Y-75078477D01*
X74189219Y-75015220D01*
X74371610Y-74922287D01*
X74464590Y-74854732D01*
X74537213Y-74801971D01*
X74537215Y-74801968D01*
X74537219Y-74801966D01*
X74681966Y-74657219D01*
X74681968Y-74657215D01*
X74681971Y-74657213D01*
X74785133Y-74515220D01*
X74802287Y-74491610D01*
X74895220Y-74309219D01*
X74958477Y-74114534D01*
X74990500Y-73912352D01*
X74990500Y-73707648D01*
X74958477Y-73505466D01*
X74958476Y-73505464D01*
X74895218Y-73310776D01*
X74845490Y-73213181D01*
X74802287Y-73128390D01*
X74770646Y-73084839D01*
X74681971Y-72962786D01*
X74537213Y-72818028D01*
X74371611Y-72697713D01*
X74278369Y-72650203D01*
X74227574Y-72602229D01*
X74210779Y-72534407D01*
X74233317Y-72468273D01*
X74278371Y-72429234D01*
X74371346Y-72381861D01*
X74371347Y-72381861D01*
X74415921Y-72349474D01*
X73736447Y-71670000D01*
X73742661Y-71670000D01*
X73844394Y-71642741D01*
X73935606Y-71590080D01*
X74010080Y-71515606D01*
X74062741Y-71424394D01*
X74090000Y-71322661D01*
X74090000Y-71316447D01*
X74769474Y-71995921D01*
X74801859Y-71951349D01*
X74894755Y-71769031D01*
X74957990Y-71574417D01*
X74990000Y-71372317D01*
X74990000Y-71167682D01*
X74957990Y-70965582D01*
X74893251Y-70766340D01*
X74894512Y-70765930D01*
X74887697Y-70702470D01*
X74918978Y-70639994D01*
X74979071Y-70604348D01*
X75009724Y-70600500D01*
X75299903Y-70600500D01*
X75366942Y-70620185D01*
X75387583Y-70636818D01*
X79041284Y-74290520D01*
X79041286Y-74290521D01*
X79041290Y-74290524D01*
X79161657Y-74360017D01*
X79178216Y-74369577D01*
X79330943Y-74410501D01*
X79330945Y-74410501D01*
X79496654Y-74410501D01*
X79496670Y-74410500D01*
X80080398Y-74410500D01*
X80147437Y-74430185D01*
X80190883Y-74478205D01*
X80197715Y-74491614D01*
X80318028Y-74657213D01*
X80462786Y-74801971D01*
X80617749Y-74914556D01*
X80628390Y-74922287D01*
X80744607Y-74981503D01*
X80810776Y-75015218D01*
X80810778Y-75015218D01*
X80810781Y-75015220D01*
X80915137Y-75049127D01*
X81005465Y-75078477D01*
X81106557Y-75094488D01*
X81207648Y-75110500D01*
X81207649Y-75110500D01*
X81412351Y-75110500D01*
X81412352Y-75110500D01*
X81614534Y-75078477D01*
X81809219Y-75015220D01*
X81991610Y-74922287D01*
X82084590Y-74854732D01*
X82157213Y-74801971D01*
X82157215Y-74801968D01*
X82157219Y-74801966D01*
X82301966Y-74657219D01*
X82301968Y-74657215D01*
X82301971Y-74657213D01*
X82405133Y-74515220D01*
X82422287Y-74491610D01*
X82515220Y-74309219D01*
X82578477Y-74114534D01*
X82610500Y-73912352D01*
X82610500Y-73707648D01*
X82578477Y-73505466D01*
X82578476Y-73505464D01*
X82545114Y-73402786D01*
X82515220Y-73310781D01*
X82515217Y-73310777D01*
X82515217Y-73310774D01*
X82489909Y-73261106D01*
X82462671Y-73207648D01*
X83199500Y-73207648D01*
X83199500Y-73412351D01*
X83231522Y-73614534D01*
X83294781Y-73809223D01*
X83329448Y-73877259D01*
X83364201Y-73945466D01*
X83387715Y-73991613D01*
X83508028Y-74157213D01*
X83652786Y-74301971D01*
X83745840Y-74369577D01*
X83818390Y-74422287D01*
X83928135Y-74478205D01*
X84000776Y-74515218D01*
X84000778Y-74515218D01*
X84000781Y-74515220D01*
X84105137Y-74549127D01*
X84195465Y-74578477D01*
X84296557Y-74594488D01*
X84397648Y-74610500D01*
X84397649Y-74610500D01*
X84602351Y-74610500D01*
X84602352Y-74610500D01*
X84804534Y-74578477D01*
X84999219Y-74515220D01*
X85181610Y-74422287D01*
X85320461Y-74321407D01*
X85347213Y-74301971D01*
X85347215Y-74301968D01*
X85347219Y-74301966D01*
X85491966Y-74157219D01*
X85491968Y-74157215D01*
X85491971Y-74157213D01*
X85552992Y-74073223D01*
X85612287Y-73991610D01*
X85705220Y-73809219D01*
X85768477Y-73614534D01*
X85800500Y-73412352D01*
X85800500Y-73207648D01*
X85776759Y-73057753D01*
X85768477Y-73005465D01*
X85720725Y-72858501D01*
X85705220Y-72810781D01*
X85705218Y-72810778D01*
X85705218Y-72810776D01*
X85647644Y-72697782D01*
X85612287Y-72628390D01*
X85599772Y-72611164D01*
X85491971Y-72462786D01*
X85347213Y-72318028D01*
X85181613Y-72197715D01*
X85181612Y-72197714D01*
X85181610Y-72197713D01*
X85124653Y-72168691D01*
X84999223Y-72104781D01*
X84804534Y-72041522D01*
X84629995Y-72013878D01*
X84602352Y-72009500D01*
X84397648Y-72009500D01*
X84373329Y-72013351D01*
X84195465Y-72041522D01*
X84000776Y-72104781D01*
X83818386Y-72197715D01*
X83652786Y-72318028D01*
X83508028Y-72462786D01*
X83387715Y-72628386D01*
X83294781Y-72810776D01*
X83231522Y-73005465D01*
X83199500Y-73207648D01*
X82462671Y-73207648D01*
X82422287Y-73128390D01*
X82395383Y-73091360D01*
X82391752Y-73084839D01*
X82385624Y-73057753D01*
X82376289Y-73031591D01*
X82378020Y-73024145D01*
X82376334Y-73016692D01*
X82385823Y-72990589D01*
X82392114Y-72963537D01*
X82398909Y-72954593D01*
X82400206Y-72951027D01*
X82403560Y-72948472D01*
X82412406Y-72936830D01*
X82425941Y-72923295D01*
X82480520Y-72868716D01*
X82480520Y-72868714D01*
X82490724Y-72858511D01*
X82490728Y-72858506D01*
X83008506Y-72340728D01*
X83008511Y-72340724D01*
X83018714Y-72330520D01*
X83018716Y-72330520D01*
X83130520Y-72218716D01*
X83142646Y-72197713D01*
X83189119Y-72117220D01*
X83189120Y-72117218D01*
X83209574Y-72081790D01*
X83209575Y-72081789D01*
X83209575Y-72081787D01*
X83209577Y-72081785D01*
X83250501Y-71929057D01*
X83250501Y-71770943D01*
X83250501Y-71763348D01*
X83250500Y-71763330D01*
X83250500Y-70700097D01*
X83270185Y-70633058D01*
X83286819Y-70612416D01*
X84058035Y-69841200D01*
X85369131Y-68530104D01*
X86810728Y-67088506D01*
X86872049Y-67055023D01*
X86941741Y-67060007D01*
X86997674Y-67101879D01*
X87022091Y-67167343D01*
X87020880Y-67195587D01*
X86999162Y-67332710D01*
X86989500Y-67393713D01*
X86989500Y-67606287D01*
X86991310Y-67617713D01*
X87010366Y-67738032D01*
X87022754Y-67816243D01*
X87064743Y-67945472D01*
X87088444Y-68018414D01*
X87184951Y-68207820D01*
X87309890Y-68379786D01*
X87460213Y-68530109D01*
X87632179Y-68655048D01*
X87632181Y-68655049D01*
X87632184Y-68655051D01*
X87641493Y-68659794D01*
X87692290Y-68707766D01*
X87709087Y-68775587D01*
X87686552Y-68841722D01*
X87641505Y-68880760D01*
X87632446Y-68885376D01*
X87632440Y-68885380D01*
X87578282Y-68924727D01*
X87578282Y-68924728D01*
X88210591Y-69557037D01*
X88147007Y-69574075D01*
X88032993Y-69639901D01*
X87939901Y-69732993D01*
X87874075Y-69847007D01*
X87857037Y-69910591D01*
X87224728Y-69278282D01*
X87224727Y-69278282D01*
X87185380Y-69332439D01*
X87088904Y-69521782D01*
X87023242Y-69723869D01*
X87023242Y-69723872D01*
X86990000Y-69933753D01*
X86990000Y-70146246D01*
X87023242Y-70356127D01*
X87023242Y-70356130D01*
X87088904Y-70558217D01*
X87185375Y-70747550D01*
X87224728Y-70801716D01*
X87857037Y-70169408D01*
X87874075Y-70232993D01*
X87939901Y-70347007D01*
X88032993Y-70440099D01*
X88147007Y-70505925D01*
X88210590Y-70522962D01*
X87578282Y-71155269D01*
X87578282Y-71155270D01*
X87632449Y-71194624D01*
X87821782Y-71291095D01*
X88023870Y-71356757D01*
X88233754Y-71390000D01*
X88446246Y-71390000D01*
X88656127Y-71356757D01*
X88656130Y-71356757D01*
X88858217Y-71291095D01*
X89047554Y-71194622D01*
X89101716Y-71155270D01*
X89101717Y-71155270D01*
X88469408Y-70522962D01*
X88532993Y-70505925D01*
X88647007Y-70440099D01*
X88740099Y-70347007D01*
X88805925Y-70232993D01*
X88822962Y-70169408D01*
X89455270Y-70801717D01*
X89455270Y-70801716D01*
X89494622Y-70747555D01*
X89499232Y-70738507D01*
X89547205Y-70687709D01*
X89615025Y-70670912D01*
X89681161Y-70693447D01*
X89720204Y-70738504D01*
X89724949Y-70747817D01*
X89849890Y-70919786D01*
X90000213Y-71070109D01*
X90172179Y-71195048D01*
X90172181Y-71195049D01*
X90172184Y-71195051D01*
X90361588Y-71291557D01*
X90563757Y-71357246D01*
X90773713Y-71390500D01*
X90773714Y-71390500D01*
X90986286Y-71390500D01*
X90986287Y-71390500D01*
X91196243Y-71357246D01*
X91398412Y-71291557D01*
X91587816Y-71195051D01*
X91609789Y-71179086D01*
X91759786Y-71070109D01*
X91759788Y-71070106D01*
X91759792Y-71070104D01*
X91910104Y-70919792D01*
X91910106Y-70919788D01*
X91910109Y-70919786D01*
X92021593Y-70766340D01*
X92035051Y-70747816D01*
X92131557Y-70558412D01*
X92197246Y-70356243D01*
X92230500Y-70146287D01*
X92230500Y-69933713D01*
X92197246Y-69723757D01*
X92131557Y-69521588D01*
X92035051Y-69332184D01*
X92035049Y-69332181D01*
X92035048Y-69332179D01*
X91910109Y-69160213D01*
X91759786Y-69009890D01*
X91587820Y-68884951D01*
X91579600Y-68880763D01*
X91579054Y-68880485D01*
X91528259Y-68832512D01*
X91511463Y-68764692D01*
X91533999Y-68698556D01*
X91579054Y-68659515D01*
X91587816Y-68655051D01*
X91726167Y-68554534D01*
X91759786Y-68530109D01*
X91759788Y-68530106D01*
X91759792Y-68530104D01*
X91910104Y-68379792D01*
X91910106Y-68379788D01*
X91910109Y-68379786D01*
X92035048Y-68207820D01*
X92035047Y-68207820D01*
X92035051Y-68207816D01*
X92131557Y-68018412D01*
X92197246Y-67816243D01*
X92230500Y-67606287D01*
X92230500Y-67393713D01*
X92197246Y-67183757D01*
X92131557Y-66981588D01*
X92035051Y-66792184D01*
X92035049Y-66792181D01*
X92035048Y-66792179D01*
X91910109Y-66620213D01*
X91759786Y-66469890D01*
X91587820Y-66344951D01*
X91587115Y-66344591D01*
X91579054Y-66340485D01*
X91528259Y-66292512D01*
X91511463Y-66224692D01*
X91533999Y-66158556D01*
X91579054Y-66119515D01*
X91587816Y-66115051D01*
X91706193Y-66029046D01*
X91759786Y-65990109D01*
X91759788Y-65990106D01*
X91759792Y-65990104D01*
X91910104Y-65839792D01*
X91910106Y-65839788D01*
X91910109Y-65839786D01*
X92035048Y-65667820D01*
X92035047Y-65667820D01*
X92035051Y-65667816D01*
X92131557Y-65478412D01*
X92197246Y-65276243D01*
X92230500Y-65066287D01*
X92230500Y-64853713D01*
X92197246Y-64643757D01*
X92183506Y-64601473D01*
X92181512Y-64531635D01*
X92213755Y-64475478D01*
X93008506Y-63680728D01*
X93008511Y-63680724D01*
X93018714Y-63670520D01*
X93018716Y-63670520D01*
X93130520Y-63558716D01*
X93134217Y-63552310D01*
X93199510Y-63439222D01*
X93199511Y-63439219D01*
X93209577Y-63421785D01*
X93250501Y-63269057D01*
X93250501Y-63110943D01*
X93250501Y-63103348D01*
X93250500Y-63103330D01*
X93250500Y-60589601D01*
X93270185Y-60522562D01*
X93318206Y-60479116D01*
X93331610Y-60472287D01*
X93497219Y-60351966D01*
X93641966Y-60207219D01*
X93641968Y-60207215D01*
X93641971Y-60207213D01*
X93694732Y-60134590D01*
X93762287Y-60041610D01*
X93855220Y-59859219D01*
X93918477Y-59664534D01*
X93950500Y-59462352D01*
X93950500Y-59257648D01*
X93933891Y-59152786D01*
X93918477Y-59055465D01*
X93863971Y-58887715D01*
X93855220Y-58860781D01*
X93855218Y-58860778D01*
X93855218Y-58860776D01*
X93814159Y-58780195D01*
X93762287Y-58678390D01*
X93738391Y-58645500D01*
X93641971Y-58512786D01*
X93497213Y-58368028D01*
X93331613Y-58247715D01*
X93331612Y-58247714D01*
X93331610Y-58247713D01*
X93253141Y-58207731D01*
X93149223Y-58154781D01*
X92954534Y-58091522D01*
X92779995Y-58063878D01*
X92752352Y-58059500D01*
X92547648Y-58059500D01*
X92523329Y-58063351D01*
X92345465Y-58091522D01*
X92150776Y-58154781D01*
X91968386Y-58247715D01*
X91802786Y-58368028D01*
X91658028Y-58512786D01*
X91537715Y-58678386D01*
X91444781Y-58860776D01*
X91381522Y-59055465D01*
X91357419Y-59207648D01*
X91349500Y-59257648D01*
X91349500Y-59462352D01*
X91352419Y-59480781D01*
X91381522Y-59664534D01*
X91444781Y-59859223D01*
X91508691Y-59984653D01*
X91537585Y-60041359D01*
X91537715Y-60041613D01*
X91658028Y-60207213D01*
X91658034Y-60207219D01*
X91802781Y-60351966D01*
X91968390Y-60472287D01*
X91981793Y-60479116D01*
X92032589Y-60527088D01*
X92049500Y-60589601D01*
X92049500Y-62889902D01*
X92029815Y-62956941D01*
X92013181Y-62977583D01*
X91364522Y-63626241D01*
X91303199Y-63659726D01*
X91238523Y-63656491D01*
X91196245Y-63642754D01*
X91056272Y-63620584D01*
X90986287Y-63609500D01*
X90773713Y-63609500D01*
X90725042Y-63617208D01*
X90563760Y-63642753D01*
X90361585Y-63708444D01*
X90172179Y-63804951D01*
X90000215Y-63929889D01*
X89886673Y-64043431D01*
X89825350Y-64076915D01*
X89755658Y-64071931D01*
X89699725Y-64030059D01*
X89682810Y-63999082D01*
X89633797Y-63867671D01*
X89633793Y-63867664D01*
X89547547Y-63752455D01*
X89547544Y-63752452D01*
X89432335Y-63666206D01*
X89432328Y-63666202D01*
X89297482Y-63615908D01*
X89297483Y-63615908D01*
X89237883Y-63609501D01*
X89237881Y-63609500D01*
X89237873Y-63609500D01*
X89237865Y-63609500D01*
X88455782Y-63609500D01*
X88388743Y-63589815D01*
X88368101Y-63573181D01*
X87411479Y-62616559D01*
X87411459Y-62616537D01*
X87267785Y-62472863D01*
X87267781Y-62472860D01*
X87103920Y-62363371D01*
X87103907Y-62363364D01*
X86947198Y-62298454D01*
X86947195Y-62298453D01*
X86938327Y-62294780D01*
X86921836Y-62287949D01*
X86825188Y-62268724D01*
X86822655Y-62268220D01*
X86822642Y-62268217D01*
X86728544Y-62249500D01*
X86728541Y-62249500D01*
X82125762Y-62249500D01*
X82058723Y-62229815D01*
X82052877Y-62225818D01*
X81931613Y-62137715D01*
X81931612Y-62137714D01*
X81931610Y-62137713D01*
X81843436Y-62092786D01*
X81749223Y-62044781D01*
X81554534Y-61981522D01*
X81379995Y-61953878D01*
X81352352Y-61949500D01*
X81147648Y-61949500D01*
X81093704Y-61958044D01*
X80945464Y-61981523D01*
X80945457Y-61981524D01*
X80912817Y-61992130D01*
X80842976Y-61994125D01*
X80783143Y-61958044D01*
X80752316Y-61895343D01*
X80750500Y-61874199D01*
X80750500Y-61460097D01*
X80759143Y-61430660D01*
X80765667Y-61400671D01*
X80769422Y-61395653D01*
X80770185Y-61393058D01*
X80786814Y-61372420D01*
X80865158Y-61294075D01*
X80926479Y-61260592D01*
X80991154Y-61263826D01*
X81005466Y-61268477D01*
X81207648Y-61300500D01*
X81207649Y-61300500D01*
X81412351Y-61300500D01*
X81412352Y-61300500D01*
X81614534Y-61268477D01*
X81809219Y-61205220D01*
X81991610Y-61112287D01*
X82084590Y-61044732D01*
X82157213Y-60991971D01*
X82157215Y-60991968D01*
X82157219Y-60991966D01*
X82301966Y-60847219D01*
X82301968Y-60847215D01*
X82301971Y-60847213D01*
X82354732Y-60774590D01*
X82422287Y-60681610D01*
X82515220Y-60499219D01*
X82578477Y-60304534D01*
X82610500Y-60102352D01*
X82610500Y-59897648D01*
X82578477Y-59695466D01*
X82577844Y-59693519D01*
X82533034Y-59555606D01*
X82515220Y-59500781D01*
X82515218Y-59500778D01*
X82515218Y-59500776D01*
X82470545Y-59413101D01*
X82422287Y-59318390D01*
X82414258Y-59307339D01*
X82378181Y-59257682D01*
X85350000Y-59257682D01*
X85350000Y-59462317D01*
X85382009Y-59664417D01*
X85445244Y-59859031D01*
X85538141Y-60041350D01*
X85538147Y-60041359D01*
X85570523Y-60085921D01*
X85570524Y-60085922D01*
X86250000Y-59406446D01*
X86250000Y-59412661D01*
X86277259Y-59514394D01*
X86329920Y-59605606D01*
X86404394Y-59680080D01*
X86495606Y-59732741D01*
X86597339Y-59760000D01*
X86603553Y-59760000D01*
X85924076Y-60439474D01*
X85968650Y-60471859D01*
X86150968Y-60564755D01*
X86345582Y-60627990D01*
X86547683Y-60660000D01*
X86752317Y-60660000D01*
X86954417Y-60627990D01*
X87149031Y-60564755D01*
X87331349Y-60471859D01*
X87375921Y-60439474D01*
X86696447Y-59760000D01*
X86702661Y-59760000D01*
X86804394Y-59732741D01*
X86895606Y-59680080D01*
X86970080Y-59605606D01*
X87022741Y-59514394D01*
X87050000Y-59412661D01*
X87050000Y-59406447D01*
X87729474Y-60085921D01*
X87761859Y-60041349D01*
X87854755Y-59859031D01*
X87917990Y-59664417D01*
X87950000Y-59462317D01*
X87950000Y-59257682D01*
X87949995Y-59257648D01*
X88349500Y-59257648D01*
X88349500Y-59462352D01*
X88352419Y-59480781D01*
X88381522Y-59664534D01*
X88444781Y-59859223D01*
X88508691Y-59984653D01*
X88537585Y-60041359D01*
X88537715Y-60041613D01*
X88658028Y-60207213D01*
X88802786Y-60351971D01*
X88957749Y-60464556D01*
X88968390Y-60472287D01*
X89052647Y-60515218D01*
X89150776Y-60565218D01*
X89150778Y-60565218D01*
X89150781Y-60565220D01*
X89225818Y-60589601D01*
X89345465Y-60628477D01*
X89446557Y-60644488D01*
X89547648Y-60660500D01*
X89547649Y-60660500D01*
X89752351Y-60660500D01*
X89752352Y-60660500D01*
X89954534Y-60628477D01*
X90149219Y-60565220D01*
X90331610Y-60472287D01*
X90443340Y-60391111D01*
X90497213Y-60351971D01*
X90497215Y-60351968D01*
X90497219Y-60351966D01*
X90641966Y-60207219D01*
X90641968Y-60207215D01*
X90641971Y-60207213D01*
X90694732Y-60134590D01*
X90762287Y-60041610D01*
X90855220Y-59859219D01*
X90918477Y-59664534D01*
X90950500Y-59462352D01*
X90950500Y-59257648D01*
X90933891Y-59152786D01*
X90918477Y-59055465D01*
X90863971Y-58887715D01*
X90855220Y-58860781D01*
X90855218Y-58860778D01*
X90855218Y-58860776D01*
X90814159Y-58780195D01*
X90762287Y-58678390D01*
X90738391Y-58645500D01*
X90641971Y-58512786D01*
X90497213Y-58368028D01*
X90331613Y-58247715D01*
X90331612Y-58247714D01*
X90331610Y-58247713D01*
X90253141Y-58207731D01*
X90149223Y-58154781D01*
X89954534Y-58091522D01*
X89779995Y-58063878D01*
X89752352Y-58059500D01*
X89547648Y-58059500D01*
X89523329Y-58063351D01*
X89345465Y-58091522D01*
X89150776Y-58154781D01*
X88968386Y-58247715D01*
X88802786Y-58368028D01*
X88658028Y-58512786D01*
X88537715Y-58678386D01*
X88444781Y-58860776D01*
X88381522Y-59055465D01*
X88357419Y-59207648D01*
X88349500Y-59257648D01*
X87949995Y-59257648D01*
X87917990Y-59055582D01*
X87854755Y-58860968D01*
X87761859Y-58678650D01*
X87729474Y-58634077D01*
X87729474Y-58634076D01*
X87050000Y-59313551D01*
X87050000Y-59307339D01*
X87022741Y-59205606D01*
X86970080Y-59114394D01*
X86895606Y-59039920D01*
X86804394Y-58987259D01*
X86702661Y-58960000D01*
X86696446Y-58960000D01*
X87375922Y-58280524D01*
X87375921Y-58280523D01*
X87331359Y-58248147D01*
X87331350Y-58248141D01*
X87149031Y-58155244D01*
X86954417Y-58092009D01*
X86752317Y-58060000D01*
X86547683Y-58060000D01*
X86345582Y-58092009D01*
X86150968Y-58155244D01*
X85968644Y-58248143D01*
X85924077Y-58280523D01*
X85924077Y-58280524D01*
X86603554Y-58960000D01*
X86597339Y-58960000D01*
X86495606Y-58987259D01*
X86404394Y-59039920D01*
X86329920Y-59114394D01*
X86277259Y-59205606D01*
X86250000Y-59307339D01*
X86250000Y-59313553D01*
X85570524Y-58634077D01*
X85570523Y-58634077D01*
X85538143Y-58678644D01*
X85445244Y-58860968D01*
X85382009Y-59055582D01*
X85350000Y-59257682D01*
X82378181Y-59257682D01*
X82301971Y-59152786D01*
X82157213Y-59008028D01*
X81991613Y-58887715D01*
X81991612Y-58887714D01*
X81991610Y-58887713D01*
X81934653Y-58858691D01*
X81809223Y-58794781D01*
X81614534Y-58731522D01*
X81439995Y-58703878D01*
X81412352Y-58699500D01*
X81207648Y-58699500D01*
X81183329Y-58703351D01*
X81005465Y-58731522D01*
X80810776Y-58794781D01*
X80628386Y-58887715D01*
X80462786Y-59008028D01*
X80318028Y-59152786D01*
X80197715Y-59318386D01*
X80104781Y-59500776D01*
X80041522Y-59695465D01*
X80009500Y-59897648D01*
X80009500Y-60102351D01*
X80041522Y-60304534D01*
X80046173Y-60318848D01*
X80048165Y-60388690D01*
X80015921Y-60444842D01*
X79781286Y-60679478D01*
X79669481Y-60791282D01*
X79669477Y-60791287D01*
X79637189Y-60847213D01*
X79626404Y-60865894D01*
X79590423Y-60928215D01*
X79549499Y-61080943D01*
X79549499Y-61080945D01*
X79549499Y-61249046D01*
X79549500Y-61249059D01*
X79549500Y-70030939D01*
X79549499Y-70030943D01*
X79549499Y-70189057D01*
X79550029Y-70191036D01*
X79550061Y-70201074D01*
X79542444Y-70227318D01*
X79538230Y-70254327D01*
X79532847Y-70260390D01*
X79530588Y-70268175D01*
X79509991Y-70286136D01*
X79491844Y-70306578D01*
X79484038Y-70308768D01*
X79477929Y-70314096D01*
X79450889Y-70318070D01*
X79424573Y-70325456D01*
X79416822Y-70323078D01*
X79408802Y-70324258D01*
X79383902Y-70312981D01*
X79357775Y-70304968D01*
X79347253Y-70296384D01*
X79345155Y-70295434D01*
X79344110Y-70293820D01*
X79338381Y-70289146D01*
X77417590Y-68368355D01*
X77417588Y-68368352D01*
X77298717Y-68249481D01*
X77298716Y-68249480D01*
X77211904Y-68199360D01*
X77211904Y-68199359D01*
X77211900Y-68199358D01*
X77161785Y-68170423D01*
X77009057Y-68129499D01*
X76850943Y-68129499D01*
X76843347Y-68129499D01*
X76843331Y-68129500D01*
X74919602Y-68129500D01*
X74852563Y-68109815D01*
X74809117Y-68061795D01*
X74802284Y-68048385D01*
X74681971Y-67882786D01*
X74537219Y-67738034D01*
X74524859Y-67729054D01*
X74443547Y-67669978D01*
X74400882Y-67614649D01*
X74394903Y-67545036D01*
X74427508Y-67483240D01*
X74477426Y-67451955D01*
X74559334Y-67424814D01*
X74708656Y-67332712D01*
X74832712Y-67208656D01*
X74924814Y-67059334D01*
X74979999Y-66892797D01*
X74990500Y-66790009D01*
X74990499Y-65589992D01*
X74979999Y-65487203D01*
X74924814Y-65320666D01*
X74832712Y-65171344D01*
X74708656Y-65047288D01*
X74559334Y-64955186D01*
X74559331Y-64955185D01*
X74392795Y-64900000D01*
X74388533Y-64899088D01*
X74327102Y-64865801D01*
X74293419Y-64804586D01*
X74290500Y-64777837D01*
X74290500Y-63147682D01*
X74950000Y-63147682D01*
X74950000Y-63352317D01*
X74982009Y-63554417D01*
X75045244Y-63749031D01*
X75138141Y-63931350D01*
X75138147Y-63931359D01*
X75170523Y-63975921D01*
X75170524Y-63975922D01*
X75850000Y-63296446D01*
X75850000Y-63302661D01*
X75877259Y-63404394D01*
X75929920Y-63495606D01*
X76004394Y-63570080D01*
X76095606Y-63622741D01*
X76197339Y-63650000D01*
X76203553Y-63650000D01*
X75524076Y-64329474D01*
X75568650Y-64361859D01*
X75750968Y-64454755D01*
X75945582Y-64517990D01*
X76147683Y-64550000D01*
X76352317Y-64550000D01*
X76554417Y-64517990D01*
X76749031Y-64454755D01*
X76931349Y-64361859D01*
X76975921Y-64329474D01*
X76296447Y-63650000D01*
X76302661Y-63650000D01*
X76404394Y-63622741D01*
X76495606Y-63570080D01*
X76570080Y-63495606D01*
X76622741Y-63404394D01*
X76650000Y-63302661D01*
X76650000Y-63296447D01*
X77329474Y-63975921D01*
X77361859Y-63931349D01*
X77454755Y-63749031D01*
X77517990Y-63554417D01*
X77550000Y-63352317D01*
X77550000Y-63147682D01*
X77517990Y-62945582D01*
X77454755Y-62750968D01*
X77361859Y-62568650D01*
X77329474Y-62524077D01*
X77329474Y-62524076D01*
X76650000Y-63203551D01*
X76650000Y-63197339D01*
X76622741Y-63095606D01*
X76570080Y-63004394D01*
X76495606Y-62929920D01*
X76404394Y-62877259D01*
X76302661Y-62850000D01*
X76296446Y-62850000D01*
X76975922Y-62170524D01*
X76975921Y-62170523D01*
X76931359Y-62138147D01*
X76931350Y-62138141D01*
X76749031Y-62045244D01*
X76554417Y-61982009D01*
X76352317Y-61950000D01*
X76147683Y-61950000D01*
X75945582Y-61982009D01*
X75750968Y-62045244D01*
X75568644Y-62138143D01*
X75524077Y-62170523D01*
X75524077Y-62170524D01*
X76203554Y-62850000D01*
X76197339Y-62850000D01*
X76095606Y-62877259D01*
X76004394Y-62929920D01*
X75929920Y-63004394D01*
X75877259Y-63095606D01*
X75850000Y-63197339D01*
X75850000Y-63203553D01*
X75170524Y-62524077D01*
X75170523Y-62524077D01*
X75138143Y-62568644D01*
X75045244Y-62750968D01*
X74982009Y-62945582D01*
X74950000Y-63147682D01*
X74290500Y-63147682D01*
X74290500Y-63050097D01*
X74310185Y-62983058D01*
X74326819Y-62962416D01*
X75159133Y-62130102D01*
X77082022Y-60207213D01*
X80237821Y-57051413D01*
X80299142Y-57017930D01*
X80368834Y-57022914D01*
X80424767Y-57064786D01*
X80449184Y-57130250D01*
X80449500Y-57139096D01*
X80449500Y-57597870D01*
X80449501Y-57597876D01*
X80455908Y-57657483D01*
X80506202Y-57792328D01*
X80506206Y-57792335D01*
X80592452Y-57907544D01*
X80592455Y-57907547D01*
X80707664Y-57993793D01*
X80707671Y-57993797D01*
X80842517Y-58044091D01*
X80842516Y-58044091D01*
X80849444Y-58044835D01*
X80902127Y-58050500D01*
X82497872Y-58050499D01*
X82557483Y-58044091D01*
X82692331Y-57993796D01*
X82807546Y-57907546D01*
X82893796Y-57792331D01*
X82944091Y-57657483D01*
X82950500Y-57597873D01*
X82950499Y-56124499D01*
X82970184Y-56057461D01*
X83022987Y-56011706D01*
X83074499Y-56000500D01*
X88903331Y-56000500D01*
X88903347Y-56000501D01*
X88910943Y-56000501D01*
X89069054Y-56000501D01*
X89069057Y-56000501D01*
X89221785Y-55959577D01*
X89271904Y-55930639D01*
X89358716Y-55880520D01*
X89470520Y-55768716D01*
X89470520Y-55768714D01*
X89480728Y-55758507D01*
X89480730Y-55758504D01*
X92205158Y-53034075D01*
X92266479Y-53000592D01*
X92331151Y-53003825D01*
X92345466Y-53008477D01*
X92547648Y-53040500D01*
X92547649Y-53040500D01*
X92752351Y-53040500D01*
X92752352Y-53040500D01*
X92954534Y-53008477D01*
X93149219Y-52945220D01*
X93331610Y-52852287D01*
X93424590Y-52784732D01*
X93497213Y-52731971D01*
X93497215Y-52731968D01*
X93497219Y-52731966D01*
X93641966Y-52587219D01*
X93641968Y-52587215D01*
X93641971Y-52587213D01*
X93705901Y-52499219D01*
X93762287Y-52421610D01*
X93855220Y-52239219D01*
X93918477Y-52044534D01*
X93950500Y-51842352D01*
X93950500Y-51637648D01*
X93918477Y-51435466D01*
X93915782Y-51427173D01*
X93855218Y-51240776D01*
X93810382Y-51152781D01*
X93762287Y-51058390D01*
X93754556Y-51047749D01*
X93641971Y-50892786D01*
X93497213Y-50748028D01*
X93331613Y-50627715D01*
X93331612Y-50627714D01*
X93331610Y-50627713D01*
X93233480Y-50577713D01*
X93149223Y-50534781D01*
X92954534Y-50471522D01*
X92779995Y-50443878D01*
X92752352Y-50439500D01*
X92547648Y-50439500D01*
X92523329Y-50443351D01*
X92345465Y-50471522D01*
X92150776Y-50534781D01*
X91968386Y-50627715D01*
X91802786Y-50748028D01*
X91658028Y-50892786D01*
X91537715Y-51058386D01*
X91444781Y-51240776D01*
X91381522Y-51435465D01*
X91349500Y-51637648D01*
X91349500Y-51842351D01*
X91381522Y-52044534D01*
X91386173Y-52058848D01*
X91388165Y-52128690D01*
X91355921Y-52184842D01*
X90928231Y-52612532D01*
X90866908Y-52646017D01*
X90797216Y-52641033D01*
X90741283Y-52599161D01*
X90716866Y-52533697D01*
X90731718Y-52465424D01*
X90740228Y-52451971D01*
X90762287Y-52421610D01*
X90855220Y-52239219D01*
X90918477Y-52044534D01*
X90950500Y-51842352D01*
X90950500Y-51637648D01*
X90918477Y-51435466D01*
X90915782Y-51427173D01*
X90855218Y-51240776D01*
X90810382Y-51152781D01*
X90762287Y-51058390D01*
X90754556Y-51047749D01*
X90641971Y-50892786D01*
X90497213Y-50748028D01*
X90331613Y-50627715D01*
X90331612Y-50627714D01*
X90331610Y-50627713D01*
X90233480Y-50577713D01*
X90149223Y-50534781D01*
X89954534Y-50471522D01*
X89779995Y-50443878D01*
X89752352Y-50439500D01*
X89547648Y-50439500D01*
X89523329Y-50443351D01*
X89345465Y-50471522D01*
X89150776Y-50534781D01*
X88968386Y-50627715D01*
X88802786Y-50748028D01*
X88658028Y-50892786D01*
X88537715Y-51058386D01*
X88444781Y-51240776D01*
X88381522Y-51435465D01*
X88349500Y-51637648D01*
X88349500Y-51842351D01*
X88381522Y-52044534D01*
X88444781Y-52239223D01*
X88537715Y-52421613D01*
X88658028Y-52587213D01*
X88802786Y-52731971D01*
X88945246Y-52835472D01*
X88968390Y-52852287D01*
X89052647Y-52895218D01*
X89150776Y-52945218D01*
X89150778Y-52945218D01*
X89150781Y-52945220D01*
X89228585Y-52970500D01*
X89345465Y-53008477D01*
X89407049Y-53018231D01*
X89547648Y-53040500D01*
X89547649Y-53040500D01*
X89752351Y-53040500D01*
X89752352Y-53040500D01*
X89954534Y-53008477D01*
X90149219Y-52945220D01*
X90331610Y-52852287D01*
X90354754Y-52835472D01*
X90361967Y-52830232D01*
X90427773Y-52806752D01*
X90495827Y-52822577D01*
X90544522Y-52872683D01*
X90558397Y-52941161D01*
X90533048Y-53006270D01*
X90522533Y-53018231D01*
X88777584Y-54763181D01*
X88716261Y-54796666D01*
X88689903Y-54799500D01*
X83010231Y-54799500D01*
X82943192Y-54779815D01*
X82897437Y-54727011D01*
X82887493Y-54657853D01*
X82892300Y-54637181D01*
X82919709Y-54552826D01*
X82950500Y-54358422D01*
X82950500Y-54161577D01*
X82919709Y-53967173D01*
X82858882Y-53779970D01*
X82769523Y-53604594D01*
X82653828Y-53445354D01*
X82514646Y-53306172D01*
X82435025Y-53248324D01*
X82355403Y-53190474D01*
X82178787Y-53100485D01*
X82127990Y-53052511D01*
X82111195Y-52984690D01*
X82133732Y-52918555D01*
X82178787Y-52879515D01*
X82355403Y-52789525D01*
X82355402Y-52789525D01*
X82355405Y-52789524D01*
X82514646Y-52673828D01*
X82653828Y-52534646D01*
X82769524Y-52375405D01*
X82858884Y-52200025D01*
X82919709Y-52012826D01*
X82922606Y-51994534D01*
X82950500Y-51818422D01*
X82950500Y-51637648D01*
X85349500Y-51637648D01*
X85349500Y-51842351D01*
X85381522Y-52044534D01*
X85444781Y-52239223D01*
X85537715Y-52421613D01*
X85658028Y-52587213D01*
X85802786Y-52731971D01*
X85945246Y-52835472D01*
X85968390Y-52852287D01*
X86052647Y-52895218D01*
X86150776Y-52945218D01*
X86150778Y-52945218D01*
X86150781Y-52945220D01*
X86228585Y-52970500D01*
X86345465Y-53008477D01*
X86407049Y-53018231D01*
X86547648Y-53040500D01*
X86547649Y-53040500D01*
X86752351Y-53040500D01*
X86752352Y-53040500D01*
X86954534Y-53008477D01*
X87149219Y-52945220D01*
X87331610Y-52852287D01*
X87424590Y-52784732D01*
X87497213Y-52731971D01*
X87497215Y-52731968D01*
X87497219Y-52731966D01*
X87641966Y-52587219D01*
X87641968Y-52587215D01*
X87641971Y-52587213D01*
X87705901Y-52499219D01*
X87762287Y-52421610D01*
X87855220Y-52239219D01*
X87918477Y-52044534D01*
X87950500Y-51842352D01*
X87950500Y-51637648D01*
X87918477Y-51435466D01*
X87915782Y-51427173D01*
X87855218Y-51240776D01*
X87810382Y-51152781D01*
X87762287Y-51058390D01*
X87754556Y-51047749D01*
X87641971Y-50892786D01*
X87497213Y-50748028D01*
X87331613Y-50627715D01*
X87331612Y-50627714D01*
X87331610Y-50627713D01*
X87233480Y-50577713D01*
X87149223Y-50534781D01*
X86954534Y-50471522D01*
X86779995Y-50443878D01*
X86752352Y-50439500D01*
X86547648Y-50439500D01*
X86523329Y-50443351D01*
X86345465Y-50471522D01*
X86150776Y-50534781D01*
X85968386Y-50627715D01*
X85802786Y-50748028D01*
X85658028Y-50892786D01*
X85537715Y-51058386D01*
X85444781Y-51240776D01*
X85381522Y-51435465D01*
X85349500Y-51637648D01*
X82950500Y-51637648D01*
X82950500Y-51621577D01*
X82919709Y-51427173D01*
X82858882Y-51239970D01*
X82769523Y-51064594D01*
X82653828Y-50905354D01*
X82514646Y-50766172D01*
X82355405Y-50650476D01*
X82310730Y-50627713D01*
X82180029Y-50561117D01*
X81992826Y-50500290D01*
X81798422Y-50469500D01*
X81798417Y-50469500D01*
X81601583Y-50469500D01*
X81601578Y-50469500D01*
X81407173Y-50500290D01*
X81219970Y-50561117D01*
X81044594Y-50650476D01*
X80953741Y-50716485D01*
X80885354Y-50766172D01*
X80885352Y-50766174D01*
X80885351Y-50766174D01*
X80746174Y-50905351D01*
X80746174Y-50905352D01*
X80746172Y-50905354D01*
X80696485Y-50973741D01*
X80630476Y-51064594D01*
X80541117Y-51239970D01*
X80480290Y-51427173D01*
X80449500Y-51621577D01*
X80449500Y-51818422D01*
X80480290Y-52012826D01*
X80541117Y-52200029D01*
X80628542Y-52371610D01*
X80630476Y-52375405D01*
X80746172Y-52534646D01*
X80885354Y-52673828D01*
X81044595Y-52789524D01*
X81134774Y-52835472D01*
X81221213Y-52879515D01*
X81272009Y-52927489D01*
X81288804Y-52995310D01*
X81266267Y-53061445D01*
X81221213Y-53100485D01*
X81044594Y-53190476D01*
X80953741Y-53256485D01*
X80885354Y-53306172D01*
X80885352Y-53306174D01*
X80885351Y-53306174D01*
X80746174Y-53445351D01*
X80746174Y-53445352D01*
X80746172Y-53445354D01*
X80696485Y-53513741D01*
X80630476Y-53604594D01*
X80541117Y-53779970D01*
X80480290Y-53967173D01*
X80449500Y-54161577D01*
X80449500Y-54358422D01*
X80480290Y-54552826D01*
X80541117Y-54740029D01*
X80604725Y-54864865D01*
X80617621Y-54933534D01*
X80591345Y-54998275D01*
X80581921Y-55008841D01*
X75165825Y-60424937D01*
X75104502Y-60458422D01*
X75034810Y-60453438D01*
X74978877Y-60411566D01*
X74954460Y-60346102D01*
X74957572Y-60308303D01*
X74958477Y-60304532D01*
X74958884Y-60301966D01*
X74990500Y-60102352D01*
X74990500Y-59897648D01*
X74958477Y-59695466D01*
X74953825Y-59681151D01*
X74951832Y-59611312D01*
X74984075Y-59555158D01*
X75808506Y-58730728D01*
X75808511Y-58730724D01*
X75818714Y-58720520D01*
X75818716Y-58720520D01*
X75930520Y-58608716D01*
X75996690Y-58494106D01*
X76009577Y-58471785D01*
X76050501Y-58319057D01*
X76050501Y-58174499D01*
X76070186Y-58107460D01*
X76122990Y-58061705D01*
X76174501Y-58050499D01*
X76247871Y-58050499D01*
X76247872Y-58050499D01*
X76307483Y-58044091D01*
X76442331Y-57993796D01*
X76557546Y-57907546D01*
X76643796Y-57792331D01*
X76694091Y-57657483D01*
X76700500Y-57597873D01*
X76700499Y-56002128D01*
X76694091Y-55942517D01*
X76670967Y-55880519D01*
X76643797Y-55807671D01*
X76643793Y-55807664D01*
X76557547Y-55692455D01*
X76557544Y-55692452D01*
X76442335Y-55606206D01*
X76442328Y-55606202D01*
X76307482Y-55555908D01*
X76307483Y-55555908D01*
X76247883Y-55549501D01*
X76247881Y-55549500D01*
X76247873Y-55549500D01*
X76247865Y-55549500D01*
X76184267Y-55549500D01*
X76117228Y-55529815D01*
X76071473Y-55477011D01*
X76061529Y-55407853D01*
X76090554Y-55344297D01*
X76111381Y-55325182D01*
X76264646Y-55213828D01*
X76403828Y-55074646D01*
X76519524Y-54915405D01*
X76608884Y-54740025D01*
X76669709Y-54552826D01*
X76700500Y-54358422D01*
X76700500Y-54161577D01*
X76669709Y-53967173D01*
X76608882Y-53779970D01*
X76519523Y-53604594D01*
X76403828Y-53445354D01*
X76264646Y-53306172D01*
X76185025Y-53248324D01*
X76105403Y-53190474D01*
X75928787Y-53100485D01*
X75877990Y-53052511D01*
X75861195Y-52984690D01*
X75883732Y-52918555D01*
X75928787Y-52879515D01*
X76105403Y-52789525D01*
X76105402Y-52789525D01*
X76105405Y-52789524D01*
X76264646Y-52673828D01*
X76403828Y-52534646D01*
X76519524Y-52375405D01*
X76608884Y-52200025D01*
X76669709Y-52012826D01*
X76672606Y-51994534D01*
X76700500Y-51818422D01*
X76700500Y-51621577D01*
X76669709Y-51427173D01*
X76608882Y-51239970D01*
X76519523Y-51064594D01*
X76403828Y-50905354D01*
X76264646Y-50766172D01*
X76105405Y-50650476D01*
X76060730Y-50627713D01*
X75930029Y-50561117D01*
X75742826Y-50500290D01*
X75548422Y-50469500D01*
X75548417Y-50469500D01*
X75351583Y-50469500D01*
X75351578Y-50469500D01*
X75157173Y-50500290D01*
X74969970Y-50561117D01*
X74794594Y-50650476D01*
X74703741Y-50716485D01*
X74635354Y-50766172D01*
X74635352Y-50766174D01*
X74635351Y-50766174D01*
X74496174Y-50905351D01*
X74496174Y-50905352D01*
X74496172Y-50905354D01*
X74446485Y-50973741D01*
X74380476Y-51064594D01*
X74291117Y-51239970D01*
X74230290Y-51427173D01*
X74199500Y-51621577D01*
X74199500Y-51818422D01*
X74230290Y-52012826D01*
X74291117Y-52200029D01*
X74378542Y-52371610D01*
X74380476Y-52375405D01*
X74496172Y-52534646D01*
X74635354Y-52673828D01*
X74794595Y-52789524D01*
X74884774Y-52835472D01*
X74971213Y-52879515D01*
X75022009Y-52927489D01*
X75038804Y-52995310D01*
X75016267Y-53061445D01*
X74971213Y-53100485D01*
X74794594Y-53190476D01*
X74703741Y-53256485D01*
X74635354Y-53306172D01*
X74635352Y-53306174D01*
X74635351Y-53306174D01*
X74496174Y-53445351D01*
X74496174Y-53445352D01*
X74496172Y-53445354D01*
X74446485Y-53513741D01*
X74380476Y-53604594D01*
X74291117Y-53779970D01*
X74230290Y-53967173D01*
X74199500Y-54161577D01*
X74199500Y-54358422D01*
X74230290Y-54552826D01*
X74291117Y-54740029D01*
X74380476Y-54915405D01*
X74496172Y-55074646D01*
X74635354Y-55213828D01*
X74788621Y-55325184D01*
X74831285Y-55380512D01*
X74837264Y-55450125D01*
X74804658Y-55511920D01*
X74743819Y-55546278D01*
X74715736Y-55549500D01*
X74652130Y-55549500D01*
X74652123Y-55549501D01*
X74592516Y-55555908D01*
X74457671Y-55606202D01*
X74457664Y-55606206D01*
X74342455Y-55692452D01*
X74342452Y-55692455D01*
X74256206Y-55807664D01*
X74256202Y-55807671D01*
X74205908Y-55942517D01*
X74199675Y-56000500D01*
X74199501Y-56002123D01*
X74199500Y-56002135D01*
X74199500Y-57597870D01*
X74199501Y-57597876D01*
X74205908Y-57657483D01*
X74256202Y-57792328D01*
X74256206Y-57792335D01*
X74342452Y-57907544D01*
X74342455Y-57907547D01*
X74457664Y-57993793D01*
X74457671Y-57993797D01*
X74560429Y-58032123D01*
X74616363Y-58073994D01*
X74640780Y-58139458D01*
X74625929Y-58207731D01*
X74604777Y-58235986D01*
X74134842Y-58705921D01*
X74073519Y-58739406D01*
X74008848Y-58736173D01*
X73994534Y-58731522D01*
X73819995Y-58703878D01*
X73792352Y-58699500D01*
X73587648Y-58699500D01*
X73563329Y-58703351D01*
X73385465Y-58731522D01*
X73190776Y-58794781D01*
X73008386Y-58887715D01*
X72842786Y-59008028D01*
X72698028Y-59152786D01*
X72577715Y-59318386D01*
X72484781Y-59500776D01*
X72421522Y-59695465D01*
X72389500Y-59897648D01*
X72389500Y-60102351D01*
X72421523Y-60304540D01*
X72422432Y-60308325D01*
X72418934Y-60378107D01*
X72378263Y-60434919D01*
X72313334Y-60460726D01*
X72244760Y-60447332D01*
X72214174Y-60424939D01*
X71544077Y-59754842D01*
X71510592Y-59693519D01*
X71513828Y-59628841D01*
X71518477Y-59614534D01*
X71550500Y-59412352D01*
X71550500Y-59207648D01*
X71535730Y-59114394D01*
X71518477Y-59005465D01*
X71476438Y-58876083D01*
X71455220Y-58810781D01*
X71455218Y-58810778D01*
X71455218Y-58810776D01*
X71409230Y-58720521D01*
X71362287Y-58628390D01*
X71330092Y-58584077D01*
X71241971Y-58462786D01*
X71097213Y-58318028D01*
X70931613Y-58197715D01*
X70931612Y-58197714D01*
X70931610Y-58197713D01*
X70848260Y-58155244D01*
X70749223Y-58104781D01*
X70554534Y-58041522D01*
X70379995Y-58013878D01*
X70352352Y-58009500D01*
X70147648Y-58009500D01*
X70123329Y-58013351D01*
X69945465Y-58041522D01*
X69750776Y-58104781D01*
X69568386Y-58197715D01*
X69402786Y-58318028D01*
X69258028Y-58462786D01*
X69137715Y-58628386D01*
X69044781Y-58810776D01*
X68981522Y-59005465D01*
X68949500Y-59207648D01*
X68949500Y-59412351D01*
X68981522Y-59614534D01*
X69044781Y-59809223D01*
X69070256Y-59859219D01*
X69137585Y-59991359D01*
X69137715Y-59991613D01*
X69258028Y-60157213D01*
X69402786Y-60301971D01*
X69553634Y-60411566D01*
X69568390Y-60422287D01*
X69679921Y-60479115D01*
X69750776Y-60515218D01*
X69750778Y-60515218D01*
X69750781Y-60515220D01*
X69855137Y-60549127D01*
X69945465Y-60578477D01*
X70015699Y-60589601D01*
X70147648Y-60610500D01*
X70147649Y-60610500D01*
X70352351Y-60610500D01*
X70352352Y-60610500D01*
X70554534Y-60578477D01*
X70568842Y-60573827D01*
X70638682Y-60571831D01*
X70694842Y-60604077D01*
X73053181Y-62962416D01*
X73086666Y-63023739D01*
X73089500Y-63050097D01*
X73089500Y-64777837D01*
X73069815Y-64844876D01*
X73017011Y-64890631D01*
X72991459Y-64899089D01*
X72987207Y-64899999D01*
X72820668Y-64955185D01*
X72820663Y-64955187D01*
X72671342Y-65047289D01*
X72547289Y-65171342D01*
X72455187Y-65320663D01*
X72455185Y-65320668D01*
X72433714Y-65385465D01*
X72400001Y-65487203D01*
X72400001Y-65487204D01*
X72400000Y-65487204D01*
X72389500Y-65589983D01*
X72389500Y-66790001D01*
X72389501Y-66790018D01*
X72400000Y-66892796D01*
X72400001Y-66892799D01*
X72455185Y-67059331D01*
X72455187Y-67059336D01*
X72481428Y-67101879D01*
X72547288Y-67208656D01*
X72671344Y-67332712D01*
X72820666Y-67424814D01*
X72902570Y-67451954D01*
X72960015Y-67491727D01*
X72986838Y-67556243D01*
X72974523Y-67625018D01*
X72936451Y-67669978D01*
X72842787Y-67738028D01*
X72842782Y-67738032D01*
X72698028Y-67882786D01*
X72577715Y-68048386D01*
X72484781Y-68230776D01*
X72421522Y-68425465D01*
X72389500Y-68627648D01*
X72389500Y-68640903D01*
X72369815Y-68707942D01*
X72317011Y-68753697D01*
X72247853Y-68763641D01*
X72184297Y-68734616D01*
X72177819Y-68728584D01*
X70886819Y-67437584D01*
X70853334Y-67376261D01*
X70850500Y-67349903D01*
X70850500Y-64169601D01*
X70870185Y-64102562D01*
X70918206Y-64059116D01*
X70931610Y-64052287D01*
X71097219Y-63931966D01*
X71241966Y-63787219D01*
X71241968Y-63787215D01*
X71241971Y-63787213D01*
X71299200Y-63708443D01*
X71362287Y-63621610D01*
X71455220Y-63439219D01*
X71518477Y-63244534D01*
X71550500Y-63042352D01*
X71550500Y-62837648D01*
X71521220Y-62652786D01*
X71518477Y-62635465D01*
X71489127Y-62545137D01*
X71455220Y-62440781D01*
X71455218Y-62440778D01*
X71455218Y-62440776D01*
X71421503Y-62374607D01*
X71362287Y-62258390D01*
X71342767Y-62231523D01*
X71241971Y-62092786D01*
X71097213Y-61948028D01*
X70931613Y-61827715D01*
X70931612Y-61827714D01*
X70931610Y-61827713D01*
X70874653Y-61798691D01*
X70749223Y-61734781D01*
X70554534Y-61671522D01*
X70379995Y-61643878D01*
X70352352Y-61639500D01*
X70147648Y-61639500D01*
X70123329Y-61643351D01*
X69945465Y-61671522D01*
X69750776Y-61734781D01*
X69568386Y-61827715D01*
X69402786Y-61948028D01*
X69258028Y-62092786D01*
X69137715Y-62258386D01*
X69044781Y-62440776D01*
X68981522Y-62635465D01*
X68949500Y-62837648D01*
X68949500Y-63042351D01*
X68981523Y-63244535D01*
X68986172Y-63258845D01*
X68988165Y-63328687D01*
X68955921Y-63384841D01*
X68528234Y-63812529D01*
X68466911Y-63846014D01*
X68397220Y-63841030D01*
X68341286Y-63799159D01*
X68316869Y-63733694D01*
X68331721Y-63665421D01*
X68340235Y-63651963D01*
X68361465Y-63622741D01*
X68362287Y-63621610D01*
X68455220Y-63439219D01*
X68518477Y-63244534D01*
X68550500Y-63042352D01*
X68550500Y-62837648D01*
X68521220Y-62652786D01*
X68518477Y-62635465D01*
X68489127Y-62545137D01*
X68455220Y-62440781D01*
X68455218Y-62440778D01*
X68455218Y-62440776D01*
X68421503Y-62374607D01*
X68362287Y-62258390D01*
X68342767Y-62231523D01*
X68241971Y-62092786D01*
X68097213Y-61948028D01*
X67931613Y-61827715D01*
X67931612Y-61827714D01*
X67931610Y-61827713D01*
X67874653Y-61798691D01*
X67749223Y-61734781D01*
X67554534Y-61671522D01*
X67379995Y-61643878D01*
X67352352Y-61639500D01*
X67147648Y-61639500D01*
X67123329Y-61643351D01*
X66945465Y-61671522D01*
X66750776Y-61734781D01*
X66568386Y-61827715D01*
X66402786Y-61948028D01*
X66258028Y-62092786D01*
X66137715Y-62258386D01*
X66044781Y-62440776D01*
X65981522Y-62635465D01*
X65949500Y-62837648D01*
X65949500Y-63042351D01*
X65981522Y-63244534D01*
X66044781Y-63439223D01*
X66103476Y-63554417D01*
X66134808Y-63615909D01*
X66137715Y-63621613D01*
X66258028Y-63787213D01*
X66402786Y-63931971D01*
X66538038Y-64030235D01*
X66568390Y-64052287D01*
X66649499Y-64093614D01*
X66750776Y-64145218D01*
X66750778Y-64145218D01*
X66750781Y-64145220D01*
X66825818Y-64169601D01*
X66945465Y-64208477D01*
X67007062Y-64218233D01*
X67147648Y-64240500D01*
X67147649Y-64240500D01*
X67352351Y-64240500D01*
X67352352Y-64240500D01*
X67554534Y-64208477D01*
X67749219Y-64145220D01*
X67931610Y-64052287D01*
X67961963Y-64030234D01*
X68027767Y-64006754D01*
X68095821Y-64022578D01*
X68144517Y-64072683D01*
X68158393Y-64141161D01*
X68133045Y-64206271D01*
X68122529Y-64218233D01*
X66884494Y-65456269D01*
X66884487Y-65456276D01*
X66881286Y-65459478D01*
X66881284Y-65459480D01*
X66769480Y-65571284D01*
X66743684Y-65615965D01*
X66737818Y-65626124D01*
X66737818Y-65626125D01*
X66700489Y-65690781D01*
X66690423Y-65708215D01*
X66649499Y-65860943D01*
X66649499Y-65860945D01*
X66649499Y-66029046D01*
X66649500Y-66029059D01*
X66649500Y-69330397D01*
X66629815Y-69397436D01*
X66581800Y-69440879D01*
X66568389Y-69447712D01*
X66402786Y-69568028D01*
X66258028Y-69712786D01*
X66137715Y-69878386D01*
X66044781Y-70060776D01*
X65981522Y-70255465D01*
X65949500Y-70457648D01*
X65949500Y-70662352D01*
X65961562Y-70738507D01*
X65981523Y-70864535D01*
X65981524Y-70864542D01*
X65992130Y-70897183D01*
X65994125Y-70967024D01*
X65958044Y-71026857D01*
X65895343Y-71057684D01*
X65874199Y-71059500D01*
X63525783Y-71059500D01*
X63458744Y-71039815D01*
X63438102Y-71023181D01*
X62786819Y-70371898D01*
X62753334Y-70310575D01*
X62750500Y-70284217D01*
X62750500Y-68147648D01*
X63009500Y-68147648D01*
X63009500Y-68352351D01*
X63041522Y-68554534D01*
X63104781Y-68749223D01*
X63156385Y-68850500D01*
X63194206Y-68924728D01*
X63197715Y-68931613D01*
X63318028Y-69097213D01*
X63462786Y-69241971D01*
X63611733Y-69350185D01*
X63628390Y-69362287D01*
X63725192Y-69411610D01*
X63810776Y-69455218D01*
X63810778Y-69455218D01*
X63810781Y-69455220D01*
X63882528Y-69478532D01*
X64005465Y-69518477D01*
X64106557Y-69534488D01*
X64207648Y-69550500D01*
X64207649Y-69550500D01*
X64412351Y-69550500D01*
X64412352Y-69550500D01*
X64614534Y-69518477D01*
X64809219Y-69455220D01*
X64991610Y-69362287D01*
X65107234Y-69278282D01*
X65157213Y-69241971D01*
X65157215Y-69241968D01*
X65157219Y-69241966D01*
X65301966Y-69097219D01*
X65301968Y-69097215D01*
X65301971Y-69097213D01*
X65401244Y-68960573D01*
X65422287Y-68931610D01*
X65515220Y-68749219D01*
X65578477Y-68554534D01*
X65610500Y-68352352D01*
X65610500Y-68147648D01*
X65578477Y-67945466D01*
X65574070Y-67931904D01*
X65536490Y-67816243D01*
X65515220Y-67750781D01*
X65515218Y-67750778D01*
X65515218Y-67750776D01*
X65445857Y-67614649D01*
X65422287Y-67568390D01*
X65412918Y-67555494D01*
X65301971Y-67402786D01*
X65157213Y-67258028D01*
X64991613Y-67137715D01*
X64991612Y-67137714D01*
X64991610Y-67137713D01*
X64921282Y-67101879D01*
X64809223Y-67044781D01*
X64614534Y-66981522D01*
X64439995Y-66953878D01*
X64412352Y-66949500D01*
X64207648Y-66949500D01*
X64183329Y-66953351D01*
X64005465Y-66981522D01*
X63810776Y-67044781D01*
X63628386Y-67137715D01*
X63462786Y-67258028D01*
X63318028Y-67402786D01*
X63197715Y-67568386D01*
X63104781Y-67750776D01*
X63041522Y-67945465D01*
X63009500Y-68147648D01*
X62750500Y-68147648D01*
X62750500Y-63397648D01*
X63009500Y-63397648D01*
X63009500Y-63602351D01*
X63041522Y-63804534D01*
X63104781Y-63999223D01*
X63157436Y-64102562D01*
X63179171Y-64145220D01*
X63197715Y-64181613D01*
X63318028Y-64347213D01*
X63462786Y-64491971D01*
X63580805Y-64577715D01*
X63628390Y-64612287D01*
X63744607Y-64671503D01*
X63810776Y-64705218D01*
X63810778Y-64705218D01*
X63810781Y-64705220D01*
X63915137Y-64739127D01*
X64005465Y-64768477D01*
X64106557Y-64784488D01*
X64207648Y-64800500D01*
X64207649Y-64800500D01*
X64412351Y-64800500D01*
X64412352Y-64800500D01*
X64614534Y-64768477D01*
X64809219Y-64705220D01*
X64991610Y-64612287D01*
X65102619Y-64531635D01*
X65157213Y-64491971D01*
X65157215Y-64491968D01*
X65157219Y-64491966D01*
X65301966Y-64347219D01*
X65301968Y-64347215D01*
X65301971Y-64347213D01*
X65403883Y-64206941D01*
X65422287Y-64181610D01*
X65515220Y-63999219D01*
X65578477Y-63804534D01*
X65610500Y-63602352D01*
X65610500Y-63397648D01*
X65599961Y-63331110D01*
X65578477Y-63195465D01*
X65548540Y-63103330D01*
X65515220Y-63000781D01*
X65515218Y-63000778D01*
X65515218Y-63000776D01*
X65479114Y-62929920D01*
X65422287Y-62818390D01*
X65414556Y-62807749D01*
X65301971Y-62652786D01*
X65157213Y-62508028D01*
X64991613Y-62387715D01*
X64991612Y-62387714D01*
X64991610Y-62387713D01*
X64934653Y-62358691D01*
X64809223Y-62294781D01*
X64614534Y-62231522D01*
X64439995Y-62203878D01*
X64412352Y-62199500D01*
X64207648Y-62199500D01*
X64183329Y-62203351D01*
X64005465Y-62231522D01*
X63810776Y-62294781D01*
X63628386Y-62387715D01*
X63462786Y-62508028D01*
X63318028Y-62652786D01*
X63197715Y-62818386D01*
X63104781Y-63000776D01*
X63041522Y-63195465D01*
X63009500Y-63397648D01*
X62750500Y-63397648D01*
X62750500Y-59500782D01*
X62770185Y-59433743D01*
X62786819Y-59413101D01*
X62892581Y-59307339D01*
X62992238Y-59207682D01*
X65950000Y-59207682D01*
X65950000Y-59412317D01*
X65982009Y-59614417D01*
X66045244Y-59809031D01*
X66138141Y-59991350D01*
X66138147Y-59991359D01*
X66170523Y-60035921D01*
X66170524Y-60035922D01*
X66850000Y-59356446D01*
X66850000Y-59362661D01*
X66877259Y-59464394D01*
X66929920Y-59555606D01*
X67004394Y-59630080D01*
X67095606Y-59682741D01*
X67197339Y-59710000D01*
X67203553Y-59710000D01*
X66524076Y-60389474D01*
X66568650Y-60421859D01*
X66750968Y-60514755D01*
X66945582Y-60577990D01*
X67147683Y-60610000D01*
X67352317Y-60610000D01*
X67554417Y-60577990D01*
X67749031Y-60514755D01*
X67931349Y-60421859D01*
X67975921Y-60389474D01*
X67296447Y-59710000D01*
X67302661Y-59710000D01*
X67404394Y-59682741D01*
X67495606Y-59630080D01*
X67570080Y-59555606D01*
X67622741Y-59464394D01*
X67650000Y-59362661D01*
X67650000Y-59356447D01*
X68329474Y-60035921D01*
X68361859Y-59991349D01*
X68454755Y-59809031D01*
X68517990Y-59614417D01*
X68550000Y-59412317D01*
X68550000Y-59207682D01*
X68517990Y-59005582D01*
X68454755Y-58810968D01*
X68361859Y-58628650D01*
X68329474Y-58584077D01*
X68329474Y-58584076D01*
X67650000Y-59263551D01*
X67650000Y-59257339D01*
X67622741Y-59155606D01*
X67570080Y-59064394D01*
X67495606Y-58989920D01*
X67404394Y-58937259D01*
X67302661Y-58910000D01*
X67296446Y-58910000D01*
X67975922Y-58230524D01*
X67975921Y-58230523D01*
X67931359Y-58198147D01*
X67931350Y-58198141D01*
X67749031Y-58105244D01*
X67554417Y-58042009D01*
X67352317Y-58010000D01*
X67147683Y-58010000D01*
X66945582Y-58042009D01*
X66750968Y-58105244D01*
X66568644Y-58198143D01*
X66524077Y-58230523D01*
X66524077Y-58230524D01*
X67203554Y-58910000D01*
X67197339Y-58910000D01*
X67095606Y-58937259D01*
X67004394Y-58989920D01*
X66929920Y-59064394D01*
X66877259Y-59155606D01*
X66850000Y-59257339D01*
X66850000Y-59263553D01*
X66170524Y-58584077D01*
X66170523Y-58584077D01*
X66138143Y-58628644D01*
X66045244Y-58810968D01*
X65982009Y-59005582D01*
X65950000Y-59207682D01*
X62992238Y-59207682D01*
X63224444Y-58975475D01*
X63285765Y-58941992D01*
X63292684Y-58940692D01*
X63325801Y-58935447D01*
X63508509Y-58876082D01*
X63679681Y-58788865D01*
X63835102Y-58675945D01*
X63970945Y-58540102D01*
X64083865Y-58384681D01*
X64083868Y-58384676D01*
X64167018Y-58221488D01*
X64171082Y-58213510D01*
X64171082Y-58213509D01*
X64183757Y-58174499D01*
X64230447Y-58030801D01*
X64260500Y-57841055D01*
X64260500Y-57648945D01*
X64230447Y-57459199D01*
X64200424Y-57366797D01*
X64171083Y-57276493D01*
X64087669Y-57112785D01*
X64083865Y-57105319D01*
X63970945Y-56949898D01*
X63835102Y-56814055D01*
X63679681Y-56701135D01*
X63508506Y-56613916D01*
X63325802Y-56554553D01*
X63230928Y-56539526D01*
X63136055Y-56524500D01*
X62943945Y-56524500D01*
X62880696Y-56534517D01*
X62754197Y-56554553D01*
X62571493Y-56613916D01*
X62400318Y-56701135D01*
X62244895Y-56814057D01*
X62109057Y-56949895D01*
X62109057Y-56949896D01*
X62109055Y-56949898D01*
X62060560Y-57016645D01*
X61996135Y-57105318D01*
X61908916Y-57276493D01*
X61887931Y-57341081D01*
X61848494Y-57398756D01*
X61784135Y-57425955D01*
X61715289Y-57414041D01*
X61663813Y-57366797D01*
X61652069Y-57341081D01*
X61631083Y-57276493D01*
X61547669Y-57112785D01*
X61543865Y-57105319D01*
X61430945Y-56949898D01*
X61295102Y-56814055D01*
X61139681Y-56701135D01*
X60968506Y-56613916D01*
X60785802Y-56554553D01*
X60690928Y-56539526D01*
X60596055Y-56524500D01*
X60403945Y-56524500D01*
X60340696Y-56534517D01*
X60214197Y-56554553D01*
X60031493Y-56613916D01*
X59860318Y-56701135D01*
X59704895Y-56814057D01*
X59569057Y-56949895D01*
X59569057Y-56949896D01*
X59569055Y-56949898D01*
X59520560Y-57016645D01*
X59456135Y-57105318D01*
X59368916Y-57276493D01*
X59347931Y-57341081D01*
X59308494Y-57398756D01*
X59244135Y-57425955D01*
X59175289Y-57414041D01*
X59123813Y-57366797D01*
X59112069Y-57341081D01*
X59091083Y-57276493D01*
X59007669Y-57112785D01*
X59003865Y-57105319D01*
X58890945Y-56949898D01*
X58755102Y-56814055D01*
X58599681Y-56701135D01*
X58428506Y-56613916D01*
X58245806Y-56554554D01*
X58245802Y-56554553D01*
X58245801Y-56554553D01*
X58234560Y-56552772D01*
X58212721Y-56549313D01*
X58149587Y-56519382D01*
X58144441Y-56514521D01*
X57726819Y-56096899D01*
X57693334Y-56035576D01*
X57690500Y-56009218D01*
X57690500Y-52875761D01*
X57710185Y-52808722D01*
X57714165Y-52802899D01*
X57802287Y-52681610D01*
X57895220Y-52499219D01*
X57958477Y-52304534D01*
X57990500Y-52102352D01*
X57990500Y-51897648D01*
X63009500Y-51897648D01*
X63009500Y-52102351D01*
X63041522Y-52304534D01*
X63104781Y-52499223D01*
X63149615Y-52587213D01*
X63193746Y-52673825D01*
X63197715Y-52681613D01*
X63318028Y-52847213D01*
X63462786Y-52991971D01*
X63558411Y-53061445D01*
X63628390Y-53112287D01*
X63744607Y-53171503D01*
X63810776Y-53205218D01*
X63810778Y-53205218D01*
X63810781Y-53205220D01*
X63915137Y-53239127D01*
X64005465Y-53268477D01*
X64106557Y-53284488D01*
X64207648Y-53300500D01*
X64207649Y-53300500D01*
X64412351Y-53300500D01*
X64412352Y-53300500D01*
X64614534Y-53268477D01*
X64809219Y-53205220D01*
X64991610Y-53112287D01*
X65121068Y-53018231D01*
X65157213Y-52991971D01*
X65157215Y-52991968D01*
X65157219Y-52991966D01*
X65301966Y-52847219D01*
X65301968Y-52847215D01*
X65301971Y-52847213D01*
X65385698Y-52731971D01*
X65422287Y-52681610D01*
X65515220Y-52499219D01*
X65578477Y-52304534D01*
X65610500Y-52102352D01*
X65610500Y-51897648D01*
X65597951Y-51818417D01*
X65578477Y-51695465D01*
X65554312Y-51621095D01*
X65543445Y-51587648D01*
X65949500Y-51587648D01*
X65949500Y-51792351D01*
X65981522Y-51994534D01*
X66044781Y-52189223D01*
X66137715Y-52371613D01*
X66258028Y-52537213D01*
X66402786Y-52681971D01*
X66550822Y-52789523D01*
X66568390Y-52802287D01*
X66684607Y-52861503D01*
X66750776Y-52895218D01*
X66750778Y-52895218D01*
X66750781Y-52895220D01*
X66822599Y-52918555D01*
X66945465Y-52958477D01*
X67021375Y-52970500D01*
X67147648Y-52990500D01*
X67147649Y-52990500D01*
X67352351Y-52990500D01*
X67352352Y-52990500D01*
X67554534Y-52958477D01*
X67749219Y-52895220D01*
X67931610Y-52802287D01*
X68024590Y-52734732D01*
X68097213Y-52681971D01*
X68097215Y-52681968D01*
X68097219Y-52681966D01*
X68241966Y-52537219D01*
X68241968Y-52537215D01*
X68241971Y-52537213D01*
X68325960Y-52421610D01*
X68362287Y-52371610D01*
X68455220Y-52189219D01*
X68518477Y-51994534D01*
X68550500Y-51792352D01*
X68550500Y-51587648D01*
X68949500Y-51587648D01*
X68949500Y-51792351D01*
X68981522Y-51994534D01*
X69044781Y-52189223D01*
X69137715Y-52371613D01*
X69258028Y-52537213D01*
X69402786Y-52681971D01*
X69550822Y-52789523D01*
X69568390Y-52802287D01*
X69684607Y-52861503D01*
X69750776Y-52895218D01*
X69750778Y-52895218D01*
X69750781Y-52895220D01*
X69822599Y-52918555D01*
X69945465Y-52958477D01*
X70021375Y-52970500D01*
X70147648Y-52990500D01*
X70147649Y-52990500D01*
X70352351Y-52990500D01*
X70352352Y-52990500D01*
X70554534Y-52958477D01*
X70749219Y-52895220D01*
X70931610Y-52802287D01*
X71024590Y-52734732D01*
X71097213Y-52681971D01*
X71097215Y-52681968D01*
X71097219Y-52681966D01*
X71241966Y-52537219D01*
X71241968Y-52537215D01*
X71241971Y-52537213D01*
X71325960Y-52421610D01*
X71362287Y-52371610D01*
X71455220Y-52189219D01*
X71518477Y-51994534D01*
X71550500Y-51792352D01*
X71550500Y-51587648D01*
X71518477Y-51385466D01*
X71455220Y-51190781D01*
X71455218Y-51190778D01*
X71455218Y-51190776D01*
X71421503Y-51124607D01*
X71362287Y-51008390D01*
X71287428Y-50905354D01*
X71241971Y-50842786D01*
X71097213Y-50698028D01*
X70931613Y-50577715D01*
X70931612Y-50577714D01*
X70931610Y-50577713D01*
X70874653Y-50548691D01*
X70749223Y-50484781D01*
X70554534Y-50421522D01*
X70379995Y-50393878D01*
X70352352Y-50389500D01*
X70147648Y-50389500D01*
X70123329Y-50393351D01*
X69945465Y-50421522D01*
X69750776Y-50484781D01*
X69568386Y-50577715D01*
X69402786Y-50698028D01*
X69258028Y-50842786D01*
X69137715Y-51008386D01*
X69044781Y-51190776D01*
X68981522Y-51385465D01*
X68949500Y-51587648D01*
X68550500Y-51587648D01*
X68518477Y-51385466D01*
X68455220Y-51190781D01*
X68455218Y-51190778D01*
X68455218Y-51190776D01*
X68421503Y-51124607D01*
X68362287Y-51008390D01*
X68287428Y-50905354D01*
X68241971Y-50842786D01*
X68097213Y-50698028D01*
X67931613Y-50577715D01*
X67931612Y-50577714D01*
X67931610Y-50577713D01*
X67874653Y-50548691D01*
X67749223Y-50484781D01*
X67554534Y-50421522D01*
X67379995Y-50393878D01*
X67352352Y-50389500D01*
X67147648Y-50389500D01*
X67123329Y-50393351D01*
X66945465Y-50421522D01*
X66750776Y-50484781D01*
X66568386Y-50577715D01*
X66402786Y-50698028D01*
X66258028Y-50842786D01*
X66137715Y-51008386D01*
X66044781Y-51190776D01*
X65981522Y-51385465D01*
X65949500Y-51587648D01*
X65543445Y-51587648D01*
X65515220Y-51500781D01*
X65422287Y-51318390D01*
X65414556Y-51307749D01*
X65301971Y-51152786D01*
X65157213Y-51008028D01*
X64991613Y-50887715D01*
X64991612Y-50887714D01*
X64991610Y-50887713D01*
X64903436Y-50842786D01*
X64809223Y-50794781D01*
X64614534Y-50731522D01*
X64439995Y-50703878D01*
X64412352Y-50699500D01*
X64207648Y-50699500D01*
X64183329Y-50703351D01*
X64005465Y-50731522D01*
X63810776Y-50794781D01*
X63628386Y-50887715D01*
X63462786Y-51008028D01*
X63318028Y-51152786D01*
X63197715Y-51318386D01*
X63104781Y-51500776D01*
X63041522Y-51695465D01*
X63009500Y-51897648D01*
X57990500Y-51897648D01*
X57977951Y-51818417D01*
X57958477Y-51695465D01*
X57895218Y-51500776D01*
X57836463Y-51385465D01*
X57802287Y-51318390D01*
X57794556Y-51307749D01*
X57681971Y-51152786D01*
X57537213Y-51008028D01*
X57371613Y-50887715D01*
X57371612Y-50887714D01*
X57371610Y-50887713D01*
X57283436Y-50842786D01*
X57189223Y-50794781D01*
X56994534Y-50731522D01*
X56819995Y-50703878D01*
X56792352Y-50699500D01*
X56587648Y-50699500D01*
X56563329Y-50703351D01*
X56385465Y-50731522D01*
X56190776Y-50794781D01*
X56008386Y-50887715D01*
X55842786Y-51008028D01*
X55698028Y-51152786D01*
X55577715Y-51318386D01*
X55484781Y-51500776D01*
X55421522Y-51695465D01*
X55389500Y-51897648D01*
X54500500Y-51897648D01*
X54500500Y-50124500D01*
X54520185Y-50057461D01*
X54572989Y-50011706D01*
X54624500Y-50000500D01*
X94375500Y-50000500D01*
X94442539Y-50020185D01*
G37*
%TD.AperFunction*%
%TD*%
M02*
