%TF.GenerationSoftware,KiCad,Pcbnew,10.0.1*%
%TF.CreationDate,2026-06-20T14:04:33+02:00*%
%TF.ProjectId,DMH_Submodule_VCA,444d485f-5375-4626-9d6f-64756c655f56,1*%
%TF.SameCoordinates,Original*%
%TF.FileFunction,Soldermask,Bot*%
%TF.FilePolarity,Negative*%
%FSLAX46Y46*%
G04 Gerber Fmt 4.6, Leading zero omitted, Abs format (unit mm)*
G04 Created by KiCad (PCBNEW 10.0.1) date 2026-06-20 14:04:33*
%MOMM*%
%LPD*%
G01*
G04 APERTURE LIST*
G04 Aperture macros list*
%AMRoundRect*
0 Rectangle with rounded corners*
0 $1 Rounding radius*
0 $2 $3 $4 $5 $6 $7 $8 $9 X,Y pos of 4 corners*
0 Add a 4 corners polygon primitive as box body*
4,1,4,$2,$3,$4,$5,$6,$7,$8,$9,$2,$3,0*
0 Add four circle primitives for the rounded corners*
1,1,$1+$1,$2,$3*
1,1,$1+$1,$4,$5*
1,1,$1+$1,$6,$7*
1,1,$1+$1,$8,$9*
0 Add four rect primitives between the rounded corners*
20,1,$1+$1,$2,$3,$4,$5,0*
20,1,$1+$1,$4,$5,$6,$7,0*
20,1,$1+$1,$6,$7,$8,$9,0*
20,1,$1+$1,$8,$9,$2,$3,0*%
G04 Aperture macros list end*
%ADD10C,1.600000*%
%ADD11C,1.440000*%
%ADD12R,1.500000X1.500000*%
%ADD13C,1.500000*%
%ADD14R,1.700000X1.700000*%
%ADD15C,1.700000*%
%ADD16RoundRect,0.250000X-0.550000X-0.550000X0.550000X-0.550000X0.550000X0.550000X-0.550000X0.550000X0*%
G04 APERTURE END LIST*
D10*
%TO.C,R4*%
X64310000Y-52000000D03*
X56690000Y-52000000D03*
%TD*%
D11*
%TO.C,RV1*%
X63040000Y-57745000D03*
X60500000Y-57745000D03*
X57960000Y-57745000D03*
%TD*%
D12*
%TO.C,Q1*%
X75450000Y-56800000D03*
D13*
X75450000Y-54260000D03*
X75450000Y-51720000D03*
%TD*%
D10*
%TO.C,R7*%
X86650000Y-59360000D03*
X86650000Y-51740000D03*
%TD*%
%TO.C,R3*%
X67250000Y-59310000D03*
X67250000Y-51690000D03*
%TD*%
%TO.C,R10*%
X56690000Y-68250000D03*
X64310000Y-68250000D03*
%TD*%
%TO.C,R9*%
X67250000Y-70560000D03*
X67250000Y-62940000D03*
%TD*%
%TO.C,R5*%
X70250000Y-59310000D03*
X70250000Y-51690000D03*
%TD*%
%TO.C,C2*%
X66000000Y-74250000D03*
X71000000Y-74250000D03*
%TD*%
%TO.C,R11*%
X70250000Y-62940000D03*
X70250000Y-70560000D03*
%TD*%
%TO.C,C1*%
X81250000Y-63250000D03*
X76250000Y-63250000D03*
%TD*%
D14*
%TO.C,J1*%
X88340000Y-64960000D03*
D15*
X90880000Y-64960000D03*
X88340000Y-67500000D03*
X90880000Y-67500000D03*
X88340000Y-70040000D03*
X90880000Y-70040000D03*
%TD*%
D10*
%TO.C,R1*%
X92650000Y-59360000D03*
X92650000Y-51740000D03*
%TD*%
D16*
%TO.C,U1*%
X73690000Y-66190000D03*
D10*
X73690000Y-68730000D03*
X73690000Y-71270000D03*
X73690000Y-73810000D03*
X81310000Y-73810000D03*
X81310000Y-71270000D03*
X81310000Y-68730000D03*
X81310000Y-66190000D03*
%TD*%
%TO.C,R12*%
X84500000Y-65690000D03*
X84500000Y-73310000D03*
%TD*%
D12*
%TO.C,Q2*%
X81700000Y-56800000D03*
D13*
X81700000Y-54260000D03*
X81700000Y-51720000D03*
%TD*%
D10*
%TO.C,R2*%
X89650000Y-51740000D03*
X89650000Y-59360000D03*
%TD*%
%TO.C,R8*%
X81310000Y-60000000D03*
X73690000Y-60000000D03*
%TD*%
%TO.C,R6*%
X64310000Y-63500000D03*
X56690000Y-63500000D03*
%TD*%
M02*
