%TF.GenerationSoftware,KiCad,Pcbnew,10.0.1*%
%TF.CreationDate,2026-06-20T14:04:37+02:00*%
%TF.ProjectId,DMH_Submodule_VCA,444d485f-5375-4626-9d6f-64756c655f56,1*%
%TF.SameCoordinates,Original*%
%TF.FileFunction,Drillmap*%
%TF.FilePolarity,Positive*%
%FSLAX45Y45*%
G04 Gerber Fmt 4.5, Leading zero omitted, Abs format (unit mm)*
G04 Created by KiCad (PCBNEW 10.0.1) date 2026-06-20 14:04:37*
%MOMM*%
%LPD*%
G01*
G04 APERTURE LIST*
%ADD10C,0.050000*%
%ADD11C,0.200000*%
%ADD12C,0.100000*%
G04 APERTURE END LIST*
D10*
X5400000Y-4950000D02*
X9500000Y-4950000D01*
X9500000Y-7650000D01*
X5400000Y-7650000D01*
X5400000Y-4950000D01*
D11*
D12*
X5629000Y-5160000D02*
X5709000Y-5240000D01*
X5709000Y-5160000D02*
X5629000Y-5240000D01*
X5629000Y-6310000D02*
X5709000Y-6390000D01*
X5709000Y-6310000D02*
X5629000Y-6390000D01*
X5629000Y-6785000D02*
X5709000Y-6865000D01*
X5709000Y-6785000D02*
X5629000Y-6865000D01*
X5756000Y-5734500D02*
X5836000Y-5814500D01*
X5836000Y-5734500D02*
X5756000Y-5814500D01*
X6010000Y-5734500D02*
X6090000Y-5814500D01*
X6090000Y-5734500D02*
X6010000Y-5814500D01*
X6264000Y-5734500D02*
X6344000Y-5814500D01*
X6344000Y-5734500D02*
X6264000Y-5814500D01*
X6391000Y-5160000D02*
X6471000Y-5240000D01*
X6471000Y-5160000D02*
X6391000Y-5240000D01*
X6391000Y-6310000D02*
X6471000Y-6390000D01*
X6471000Y-6310000D02*
X6391000Y-6390000D01*
X6391000Y-6785000D02*
X6471000Y-6865000D01*
X6471000Y-6785000D02*
X6391000Y-6865000D01*
X6560000Y-7385000D02*
X6640000Y-7465000D01*
X6640000Y-7385000D02*
X6560000Y-7465000D01*
X6685000Y-5129000D02*
X6765000Y-5209000D01*
X6765000Y-5129000D02*
X6685000Y-5209000D01*
X6685000Y-5891000D02*
X6765000Y-5971000D01*
X6765000Y-5891000D02*
X6685000Y-5971000D01*
X6685000Y-6254000D02*
X6765000Y-6334000D01*
X6765000Y-6254000D02*
X6685000Y-6334000D01*
X6685000Y-7016000D02*
X6765000Y-7096000D01*
X6765000Y-7016000D02*
X6685000Y-7096000D01*
X6985000Y-5129000D02*
X7065000Y-5209000D01*
X7065000Y-5129000D02*
X6985000Y-5209000D01*
X6985000Y-5891000D02*
X7065000Y-5971000D01*
X7065000Y-5891000D02*
X6985000Y-5971000D01*
X6985000Y-6254000D02*
X7065000Y-6334000D01*
X7065000Y-6254000D02*
X6985000Y-6334000D01*
X6985000Y-7016000D02*
X7065000Y-7096000D01*
X7065000Y-7016000D02*
X6985000Y-7096000D01*
X7060000Y-7385000D02*
X7140000Y-7465000D01*
X7140000Y-7385000D02*
X7060000Y-7465000D01*
X7329000Y-5960000D02*
X7409000Y-6040000D01*
X7409000Y-5960000D02*
X7329000Y-6040000D01*
X7329000Y-6579000D02*
X7409000Y-6659000D01*
X7409000Y-6579000D02*
X7329000Y-6659000D01*
X7329000Y-6833000D02*
X7409000Y-6913000D01*
X7409000Y-6833000D02*
X7329000Y-6913000D01*
X7329000Y-7087000D02*
X7409000Y-7167000D01*
X7409000Y-7087000D02*
X7329000Y-7167000D01*
X7329000Y-7341000D02*
X7409000Y-7421000D01*
X7409000Y-7341000D02*
X7329000Y-7421000D01*
X7505000Y-5132000D02*
X7585000Y-5212000D01*
X7585000Y-5132000D02*
X7505000Y-5212000D01*
X7505000Y-5386000D02*
X7585000Y-5466000D01*
X7585000Y-5386000D02*
X7505000Y-5466000D01*
X7505000Y-5640000D02*
X7585000Y-5720000D01*
X7585000Y-5640000D02*
X7505000Y-5720000D01*
X7585000Y-6285000D02*
X7665000Y-6365000D01*
X7665000Y-6285000D02*
X7585000Y-6365000D01*
X8085000Y-6285000D02*
X8165000Y-6365000D01*
X8165000Y-6285000D02*
X8085000Y-6365000D01*
X8091000Y-5960000D02*
X8171000Y-6040000D01*
X8171000Y-5960000D02*
X8091000Y-6040000D01*
X8091000Y-6579000D02*
X8171000Y-6659000D01*
X8171000Y-6579000D02*
X8091000Y-6659000D01*
X8091000Y-6833000D02*
X8171000Y-6913000D01*
X8171000Y-6833000D02*
X8091000Y-6913000D01*
X8091000Y-7087000D02*
X8171000Y-7167000D01*
X8171000Y-7087000D02*
X8091000Y-7167000D01*
X8091000Y-7341000D02*
X8171000Y-7421000D01*
X8171000Y-7341000D02*
X8091000Y-7421000D01*
X8130000Y-5132000D02*
X8210000Y-5212000D01*
X8210000Y-5132000D02*
X8130000Y-5212000D01*
X8130000Y-5386000D02*
X8210000Y-5466000D01*
X8210000Y-5386000D02*
X8130000Y-5466000D01*
X8130000Y-5640000D02*
X8210000Y-5720000D01*
X8210000Y-5640000D02*
X8130000Y-5720000D01*
X8410000Y-6529000D02*
X8490000Y-6609000D01*
X8490000Y-6529000D02*
X8410000Y-6609000D01*
X8410000Y-7291000D02*
X8490000Y-7371000D01*
X8490000Y-7291000D02*
X8410000Y-7371000D01*
X8625000Y-5134000D02*
X8705000Y-5214000D01*
X8705000Y-5134000D02*
X8625000Y-5214000D01*
X8625000Y-5896000D02*
X8705000Y-5976000D01*
X8705000Y-5896000D02*
X8625000Y-5976000D01*
X8925000Y-5134000D02*
X9005000Y-5214000D01*
X9005000Y-5134000D02*
X8925000Y-5214000D01*
X8925000Y-5896000D02*
X9005000Y-5976000D01*
X9005000Y-5896000D02*
X8925000Y-5976000D01*
X9225000Y-5134000D02*
X9305000Y-5214000D01*
X9305000Y-5134000D02*
X9225000Y-5214000D01*
X9225000Y-5896000D02*
X9305000Y-5976000D01*
X9305000Y-5896000D02*
X9225000Y-5976000D01*
X8884000Y-6496000D02*
G75*
G02*
X8784000Y-6496000I-50000J0D01*
G01*
X8784000Y-6496000D02*
G75*
G02*
X8884000Y-6496000I50000J0D01*
G01*
X8884000Y-6750000D02*
G75*
G02*
X8784000Y-6750000I-50000J0D01*
G01*
X8784000Y-6750000D02*
G75*
G02*
X8884000Y-6750000I50000J0D01*
G01*
X8884000Y-7004000D02*
G75*
G02*
X8784000Y-7004000I-50000J0D01*
G01*
X8784000Y-7004000D02*
G75*
G02*
X8884000Y-7004000I50000J0D01*
G01*
X9138000Y-6496000D02*
G75*
G02*
X9038000Y-6496000I-50000J0D01*
G01*
X9038000Y-6496000D02*
G75*
G02*
X9138000Y-6496000I50000J0D01*
G01*
X9138000Y-6750000D02*
G75*
G02*
X9038000Y-6750000I-50000J0D01*
G01*
X9038000Y-6750000D02*
G75*
G02*
X9138000Y-6750000I50000J0D01*
G01*
X9138000Y-7004000D02*
G75*
G02*
X9038000Y-7004000I-50000J0D01*
G01*
X9038000Y-7004000D02*
G75*
G02*
X9138000Y-7004000I50000J0D01*
G01*
D11*
X5658277Y-7963984D02*
X5658277Y-7763984D01*
X5658277Y-7763984D02*
X5705896Y-7763984D01*
X5705896Y-7763984D02*
X5734467Y-7773508D01*
X5734467Y-7773508D02*
X5753515Y-7792555D01*
X5753515Y-7792555D02*
X5763039Y-7811603D01*
X5763039Y-7811603D02*
X5772562Y-7849698D01*
X5772562Y-7849698D02*
X5772562Y-7878269D01*
X5772562Y-7878269D02*
X5763039Y-7916365D01*
X5763039Y-7916365D02*
X5753515Y-7935412D01*
X5753515Y-7935412D02*
X5734467Y-7954460D01*
X5734467Y-7954460D02*
X5705896Y-7963984D01*
X5705896Y-7963984D02*
X5658277Y-7963984D01*
X5858277Y-7963984D02*
X5858277Y-7830650D01*
X5858277Y-7868746D02*
X5867801Y-7849698D01*
X5867801Y-7849698D02*
X5877324Y-7840174D01*
X5877324Y-7840174D02*
X5896372Y-7830650D01*
X5896372Y-7830650D02*
X5915420Y-7830650D01*
X5982086Y-7963984D02*
X5982086Y-7830650D01*
X5982086Y-7763984D02*
X5972562Y-7773508D01*
X5972562Y-7773508D02*
X5982086Y-7783031D01*
X5982086Y-7783031D02*
X5991610Y-7773508D01*
X5991610Y-7773508D02*
X5982086Y-7763984D01*
X5982086Y-7763984D02*
X5982086Y-7783031D01*
X6105896Y-7963984D02*
X6086848Y-7954460D01*
X6086848Y-7954460D02*
X6077324Y-7935412D01*
X6077324Y-7935412D02*
X6077324Y-7763984D01*
X6210658Y-7963984D02*
X6191610Y-7954460D01*
X6191610Y-7954460D02*
X6182086Y-7935412D01*
X6182086Y-7935412D02*
X6182086Y-7763984D01*
X6439229Y-7963984D02*
X6439229Y-7763984D01*
X6439229Y-7763984D02*
X6505896Y-7906841D01*
X6505896Y-7906841D02*
X6572562Y-7763984D01*
X6572562Y-7763984D02*
X6572562Y-7963984D01*
X6753515Y-7963984D02*
X6753515Y-7859222D01*
X6753515Y-7859222D02*
X6743991Y-7840174D01*
X6743991Y-7840174D02*
X6724943Y-7830650D01*
X6724943Y-7830650D02*
X6686848Y-7830650D01*
X6686848Y-7830650D02*
X6667801Y-7840174D01*
X6753515Y-7954460D02*
X6734467Y-7963984D01*
X6734467Y-7963984D02*
X6686848Y-7963984D01*
X6686848Y-7963984D02*
X6667801Y-7954460D01*
X6667801Y-7954460D02*
X6658277Y-7935412D01*
X6658277Y-7935412D02*
X6658277Y-7916365D01*
X6658277Y-7916365D02*
X6667801Y-7897317D01*
X6667801Y-7897317D02*
X6686848Y-7887793D01*
X6686848Y-7887793D02*
X6734467Y-7887793D01*
X6734467Y-7887793D02*
X6753515Y-7878269D01*
X6848753Y-7830650D02*
X6848753Y-8030650D01*
X6848753Y-7840174D02*
X6867801Y-7830650D01*
X6867801Y-7830650D02*
X6905896Y-7830650D01*
X6905896Y-7830650D02*
X6924943Y-7840174D01*
X6924943Y-7840174D02*
X6934467Y-7849698D01*
X6934467Y-7849698D02*
X6943991Y-7868746D01*
X6943991Y-7868746D02*
X6943991Y-7925888D01*
X6943991Y-7925888D02*
X6934467Y-7944936D01*
X6934467Y-7944936D02*
X6924943Y-7954460D01*
X6924943Y-7954460D02*
X6905896Y-7963984D01*
X6905896Y-7963984D02*
X6867801Y-7963984D01*
X6867801Y-7963984D02*
X6848753Y-7954460D01*
X7029705Y-7944936D02*
X7039229Y-7954460D01*
X7039229Y-7954460D02*
X7029705Y-7963984D01*
X7029705Y-7963984D02*
X7020182Y-7954460D01*
X7020182Y-7954460D02*
X7029705Y-7944936D01*
X7029705Y-7944936D02*
X7029705Y-7963984D01*
X7029705Y-7840174D02*
X7039229Y-7849698D01*
X7039229Y-7849698D02*
X7029705Y-7859222D01*
X7029705Y-7859222D02*
X7020182Y-7849698D01*
X7020182Y-7849698D02*
X7029705Y-7840174D01*
X7029705Y-7840174D02*
X7029705Y-7859222D01*
D12*
X5317500Y-8252500D02*
X5397500Y-8332500D01*
X5397500Y-8252500D02*
X5317500Y-8332500D01*
D11*
X5696372Y-8183984D02*
X5715420Y-8183984D01*
X5715420Y-8183984D02*
X5734467Y-8193508D01*
X5734467Y-8193508D02*
X5743991Y-8203031D01*
X5743991Y-8203031D02*
X5753515Y-8222079D01*
X5753515Y-8222079D02*
X5763039Y-8260174D01*
X5763039Y-8260174D02*
X5763039Y-8307793D01*
X5763039Y-8307793D02*
X5753515Y-8345888D01*
X5753515Y-8345888D02*
X5743991Y-8364936D01*
X5743991Y-8364936D02*
X5734467Y-8374460D01*
X5734467Y-8374460D02*
X5715420Y-8383984D01*
X5715420Y-8383984D02*
X5696372Y-8383984D01*
X5696372Y-8383984D02*
X5677324Y-8374460D01*
X5677324Y-8374460D02*
X5667801Y-8364936D01*
X5667801Y-8364936D02*
X5658277Y-8345888D01*
X5658277Y-8345888D02*
X5648753Y-8307793D01*
X5648753Y-8307793D02*
X5648753Y-8260174D01*
X5648753Y-8260174D02*
X5658277Y-8222079D01*
X5658277Y-8222079D02*
X5667801Y-8203031D01*
X5667801Y-8203031D02*
X5677324Y-8193508D01*
X5677324Y-8193508D02*
X5696372Y-8183984D01*
X5848753Y-8364936D02*
X5858277Y-8374460D01*
X5858277Y-8374460D02*
X5848753Y-8383984D01*
X5848753Y-8383984D02*
X5839229Y-8374460D01*
X5839229Y-8374460D02*
X5848753Y-8364936D01*
X5848753Y-8364936D02*
X5848753Y-8383984D01*
X5972562Y-8269698D02*
X5953515Y-8260174D01*
X5953515Y-8260174D02*
X5943991Y-8250650D01*
X5943991Y-8250650D02*
X5934467Y-8231603D01*
X5934467Y-8231603D02*
X5934467Y-8222079D01*
X5934467Y-8222079D02*
X5943991Y-8203031D01*
X5943991Y-8203031D02*
X5953515Y-8193508D01*
X5953515Y-8193508D02*
X5972562Y-8183984D01*
X5972562Y-8183984D02*
X6010658Y-8183984D01*
X6010658Y-8183984D02*
X6029705Y-8193508D01*
X6029705Y-8193508D02*
X6039229Y-8203031D01*
X6039229Y-8203031D02*
X6048753Y-8222079D01*
X6048753Y-8222079D02*
X6048753Y-8231603D01*
X6048753Y-8231603D02*
X6039229Y-8250650D01*
X6039229Y-8250650D02*
X6029705Y-8260174D01*
X6029705Y-8260174D02*
X6010658Y-8269698D01*
X6010658Y-8269698D02*
X5972562Y-8269698D01*
X5972562Y-8269698D02*
X5953515Y-8279222D01*
X5953515Y-8279222D02*
X5943991Y-8288746D01*
X5943991Y-8288746D02*
X5934467Y-8307793D01*
X5934467Y-8307793D02*
X5934467Y-8345888D01*
X5934467Y-8345888D02*
X5943991Y-8364936D01*
X5943991Y-8364936D02*
X5953515Y-8374460D01*
X5953515Y-8374460D02*
X5972562Y-8383984D01*
X5972562Y-8383984D02*
X6010658Y-8383984D01*
X6010658Y-8383984D02*
X6029705Y-8374460D01*
X6029705Y-8374460D02*
X6039229Y-8364936D01*
X6039229Y-8364936D02*
X6048753Y-8345888D01*
X6048753Y-8345888D02*
X6048753Y-8307793D01*
X6048753Y-8307793D02*
X6039229Y-8288746D01*
X6039229Y-8288746D02*
X6029705Y-8279222D01*
X6029705Y-8279222D02*
X6010658Y-8269698D01*
X6172562Y-8183984D02*
X6191610Y-8183984D01*
X6191610Y-8183984D02*
X6210658Y-8193508D01*
X6210658Y-8193508D02*
X6220182Y-8203031D01*
X6220182Y-8203031D02*
X6229705Y-8222079D01*
X6229705Y-8222079D02*
X6239229Y-8260174D01*
X6239229Y-8260174D02*
X6239229Y-8307793D01*
X6239229Y-8307793D02*
X6229705Y-8345888D01*
X6229705Y-8345888D02*
X6220182Y-8364936D01*
X6220182Y-8364936D02*
X6210658Y-8374460D01*
X6210658Y-8374460D02*
X6191610Y-8383984D01*
X6191610Y-8383984D02*
X6172562Y-8383984D01*
X6172562Y-8383984D02*
X6153515Y-8374460D01*
X6153515Y-8374460D02*
X6143991Y-8364936D01*
X6143991Y-8364936D02*
X6134467Y-8345888D01*
X6134467Y-8345888D02*
X6124943Y-8307793D01*
X6124943Y-8307793D02*
X6124943Y-8260174D01*
X6124943Y-8260174D02*
X6134467Y-8222079D01*
X6134467Y-8222079D02*
X6143991Y-8203031D01*
X6143991Y-8203031D02*
X6153515Y-8193508D01*
X6153515Y-8193508D02*
X6172562Y-8183984D01*
X6363039Y-8183984D02*
X6382086Y-8183984D01*
X6382086Y-8183984D02*
X6401134Y-8193508D01*
X6401134Y-8193508D02*
X6410658Y-8203031D01*
X6410658Y-8203031D02*
X6420182Y-8222079D01*
X6420182Y-8222079D02*
X6429705Y-8260174D01*
X6429705Y-8260174D02*
X6429705Y-8307793D01*
X6429705Y-8307793D02*
X6420182Y-8345888D01*
X6420182Y-8345888D02*
X6410658Y-8364936D01*
X6410658Y-8364936D02*
X6401134Y-8374460D01*
X6401134Y-8374460D02*
X6382086Y-8383984D01*
X6382086Y-8383984D02*
X6363039Y-8383984D01*
X6363039Y-8383984D02*
X6343991Y-8374460D01*
X6343991Y-8374460D02*
X6334467Y-8364936D01*
X6334467Y-8364936D02*
X6324943Y-8345888D01*
X6324943Y-8345888D02*
X6315420Y-8307793D01*
X6315420Y-8307793D02*
X6315420Y-8260174D01*
X6315420Y-8260174D02*
X6324943Y-8222079D01*
X6324943Y-8222079D02*
X6334467Y-8203031D01*
X6334467Y-8203031D02*
X6343991Y-8193508D01*
X6343991Y-8193508D02*
X6363039Y-8183984D01*
X6515420Y-8383984D02*
X6515420Y-8250650D01*
X6515420Y-8269698D02*
X6524943Y-8260174D01*
X6524943Y-8260174D02*
X6543991Y-8250650D01*
X6543991Y-8250650D02*
X6572563Y-8250650D01*
X6572563Y-8250650D02*
X6591610Y-8260174D01*
X6591610Y-8260174D02*
X6601134Y-8279222D01*
X6601134Y-8279222D02*
X6601134Y-8383984D01*
X6601134Y-8279222D02*
X6610658Y-8260174D01*
X6610658Y-8260174D02*
X6629705Y-8250650D01*
X6629705Y-8250650D02*
X6658277Y-8250650D01*
X6658277Y-8250650D02*
X6677324Y-8260174D01*
X6677324Y-8260174D02*
X6686848Y-8279222D01*
X6686848Y-8279222D02*
X6686848Y-8383984D01*
X6782086Y-8383984D02*
X6782086Y-8250650D01*
X6782086Y-8269698D02*
X6791610Y-8260174D01*
X6791610Y-8260174D02*
X6810658Y-8250650D01*
X6810658Y-8250650D02*
X6839229Y-8250650D01*
X6839229Y-8250650D02*
X6858277Y-8260174D01*
X6858277Y-8260174D02*
X6867801Y-8279222D01*
X6867801Y-8279222D02*
X6867801Y-8383984D01*
X6867801Y-8279222D02*
X6877324Y-8260174D01*
X6877324Y-8260174D02*
X6896372Y-8250650D01*
X6896372Y-8250650D02*
X6924943Y-8250650D01*
X6924943Y-8250650D02*
X6943991Y-8260174D01*
X6943991Y-8260174D02*
X6953515Y-8279222D01*
X6953515Y-8279222D02*
X6953515Y-8383984D01*
X7343991Y-8174460D02*
X7172563Y-8431603D01*
X7601134Y-8183984D02*
X7620182Y-8183984D01*
X7620182Y-8183984D02*
X7639229Y-8193508D01*
X7639229Y-8193508D02*
X7648753Y-8203031D01*
X7648753Y-8203031D02*
X7658277Y-8222079D01*
X7658277Y-8222079D02*
X7667801Y-8260174D01*
X7667801Y-8260174D02*
X7667801Y-8307793D01*
X7667801Y-8307793D02*
X7658277Y-8345888D01*
X7658277Y-8345888D02*
X7648753Y-8364936D01*
X7648753Y-8364936D02*
X7639229Y-8374460D01*
X7639229Y-8374460D02*
X7620182Y-8383984D01*
X7620182Y-8383984D02*
X7601134Y-8383984D01*
X7601134Y-8383984D02*
X7582086Y-8374460D01*
X7582086Y-8374460D02*
X7572563Y-8364936D01*
X7572563Y-8364936D02*
X7563039Y-8345888D01*
X7563039Y-8345888D02*
X7553515Y-8307793D01*
X7553515Y-8307793D02*
X7553515Y-8260174D01*
X7553515Y-8260174D02*
X7563039Y-8222079D01*
X7563039Y-8222079D02*
X7572563Y-8203031D01*
X7572563Y-8203031D02*
X7582086Y-8193508D01*
X7582086Y-8193508D02*
X7601134Y-8183984D01*
X7753515Y-8364936D02*
X7763039Y-8374460D01*
X7763039Y-8374460D02*
X7753515Y-8383984D01*
X7753515Y-8383984D02*
X7743991Y-8374460D01*
X7743991Y-8374460D02*
X7753515Y-8364936D01*
X7753515Y-8364936D02*
X7753515Y-8383984D01*
X7886848Y-8183984D02*
X7905896Y-8183984D01*
X7905896Y-8183984D02*
X7924944Y-8193508D01*
X7924944Y-8193508D02*
X7934467Y-8203031D01*
X7934467Y-8203031D02*
X7943991Y-8222079D01*
X7943991Y-8222079D02*
X7953515Y-8260174D01*
X7953515Y-8260174D02*
X7953515Y-8307793D01*
X7953515Y-8307793D02*
X7943991Y-8345888D01*
X7943991Y-8345888D02*
X7934467Y-8364936D01*
X7934467Y-8364936D02*
X7924944Y-8374460D01*
X7924944Y-8374460D02*
X7905896Y-8383984D01*
X7905896Y-8383984D02*
X7886848Y-8383984D01*
X7886848Y-8383984D02*
X7867801Y-8374460D01*
X7867801Y-8374460D02*
X7858277Y-8364936D01*
X7858277Y-8364936D02*
X7848753Y-8345888D01*
X7848753Y-8345888D02*
X7839229Y-8307793D01*
X7839229Y-8307793D02*
X7839229Y-8260174D01*
X7839229Y-8260174D02*
X7848753Y-8222079D01*
X7848753Y-8222079D02*
X7858277Y-8203031D01*
X7858277Y-8203031D02*
X7867801Y-8193508D01*
X7867801Y-8193508D02*
X7886848Y-8183984D01*
X8020182Y-8183984D02*
X8143991Y-8183984D01*
X8143991Y-8183984D02*
X8077325Y-8260174D01*
X8077325Y-8260174D02*
X8105896Y-8260174D01*
X8105896Y-8260174D02*
X8124944Y-8269698D01*
X8124944Y-8269698D02*
X8134467Y-8279222D01*
X8134467Y-8279222D02*
X8143991Y-8298269D01*
X8143991Y-8298269D02*
X8143991Y-8345888D01*
X8143991Y-8345888D02*
X8134467Y-8364936D01*
X8134467Y-8364936D02*
X8124944Y-8374460D01*
X8124944Y-8374460D02*
X8105896Y-8383984D01*
X8105896Y-8383984D02*
X8048753Y-8383984D01*
X8048753Y-8383984D02*
X8029706Y-8374460D01*
X8029706Y-8374460D02*
X8020182Y-8364936D01*
X8334467Y-8383984D02*
X8220182Y-8383984D01*
X8277325Y-8383984D02*
X8277325Y-8183984D01*
X8277325Y-8183984D02*
X8258277Y-8212555D01*
X8258277Y-8212555D02*
X8239229Y-8231603D01*
X8239229Y-8231603D02*
X8220182Y-8241127D01*
X8515420Y-8183984D02*
X8420182Y-8183984D01*
X8420182Y-8183984D02*
X8410658Y-8279222D01*
X8410658Y-8279222D02*
X8420182Y-8269698D01*
X8420182Y-8269698D02*
X8439229Y-8260174D01*
X8439229Y-8260174D02*
X8486849Y-8260174D01*
X8486849Y-8260174D02*
X8505896Y-8269698D01*
X8505896Y-8269698D02*
X8515420Y-8279222D01*
X8515420Y-8279222D02*
X8524944Y-8298269D01*
X8524944Y-8298269D02*
X8524944Y-8345888D01*
X8524944Y-8345888D02*
X8515420Y-8364936D01*
X8515420Y-8364936D02*
X8505896Y-8374460D01*
X8505896Y-8374460D02*
X8486849Y-8383984D01*
X8486849Y-8383984D02*
X8439229Y-8383984D01*
X8439229Y-8383984D02*
X8420182Y-8374460D01*
X8420182Y-8374460D02*
X8410658Y-8364936D01*
X8601134Y-8183984D02*
X8601134Y-8222079D01*
X8677325Y-8183984D02*
X8677325Y-8222079D01*
X8972563Y-8460174D02*
X8963039Y-8450650D01*
X8963039Y-8450650D02*
X8943991Y-8422079D01*
X8943991Y-8422079D02*
X8934468Y-8403031D01*
X8934468Y-8403031D02*
X8924944Y-8374460D01*
X8924944Y-8374460D02*
X8915420Y-8326841D01*
X8915420Y-8326841D02*
X8915420Y-8288746D01*
X8915420Y-8288746D02*
X8924944Y-8241127D01*
X8924944Y-8241127D02*
X8934468Y-8212555D01*
X8934468Y-8212555D02*
X8943991Y-8193508D01*
X8943991Y-8193508D02*
X8963039Y-8164936D01*
X8963039Y-8164936D02*
X8972563Y-8155412D01*
X9134468Y-8250650D02*
X9134468Y-8383984D01*
X9086849Y-8174460D02*
X9039230Y-8317317D01*
X9039230Y-8317317D02*
X9163039Y-8317317D01*
X9334468Y-8183984D02*
X9239230Y-8183984D01*
X9239230Y-8183984D02*
X9229706Y-8279222D01*
X9229706Y-8279222D02*
X9239230Y-8269698D01*
X9239230Y-8269698D02*
X9258277Y-8260174D01*
X9258277Y-8260174D02*
X9305896Y-8260174D01*
X9305896Y-8260174D02*
X9324944Y-8269698D01*
X9324944Y-8269698D02*
X9334468Y-8279222D01*
X9334468Y-8279222D02*
X9343991Y-8298269D01*
X9343991Y-8298269D02*
X9343991Y-8345888D01*
X9343991Y-8345888D02*
X9334468Y-8364936D01*
X9334468Y-8364936D02*
X9324944Y-8374460D01*
X9324944Y-8374460D02*
X9305896Y-8383984D01*
X9305896Y-8383984D02*
X9258277Y-8383984D01*
X9258277Y-8383984D02*
X9239230Y-8374460D01*
X9239230Y-8374460D02*
X9229706Y-8364936D01*
X9582087Y-8383984D02*
X9582087Y-8183984D01*
X9667801Y-8383984D02*
X9667801Y-8279222D01*
X9667801Y-8279222D02*
X9658277Y-8260174D01*
X9658277Y-8260174D02*
X9639230Y-8250650D01*
X9639230Y-8250650D02*
X9610658Y-8250650D01*
X9610658Y-8250650D02*
X9591611Y-8260174D01*
X9591611Y-8260174D02*
X9582087Y-8269698D01*
X9791611Y-8383984D02*
X9772563Y-8374460D01*
X9772563Y-8374460D02*
X9763039Y-8364936D01*
X9763039Y-8364936D02*
X9753515Y-8345888D01*
X9753515Y-8345888D02*
X9753515Y-8288746D01*
X9753515Y-8288746D02*
X9763039Y-8269698D01*
X9763039Y-8269698D02*
X9772563Y-8260174D01*
X9772563Y-8260174D02*
X9791611Y-8250650D01*
X9791611Y-8250650D02*
X9820182Y-8250650D01*
X9820182Y-8250650D02*
X9839230Y-8260174D01*
X9839230Y-8260174D02*
X9848753Y-8269698D01*
X9848753Y-8269698D02*
X9858277Y-8288746D01*
X9858277Y-8288746D02*
X9858277Y-8345888D01*
X9858277Y-8345888D02*
X9848753Y-8364936D01*
X9848753Y-8364936D02*
X9839230Y-8374460D01*
X9839230Y-8374460D02*
X9820182Y-8383984D01*
X9820182Y-8383984D02*
X9791611Y-8383984D01*
X9972563Y-8383984D02*
X9953515Y-8374460D01*
X9953515Y-8374460D02*
X9943992Y-8355412D01*
X9943992Y-8355412D02*
X9943992Y-8183984D01*
X10124944Y-8374460D02*
X10105896Y-8383984D01*
X10105896Y-8383984D02*
X10067801Y-8383984D01*
X10067801Y-8383984D02*
X10048753Y-8374460D01*
X10048753Y-8374460D02*
X10039230Y-8355412D01*
X10039230Y-8355412D02*
X10039230Y-8279222D01*
X10039230Y-8279222D02*
X10048753Y-8260174D01*
X10048753Y-8260174D02*
X10067801Y-8250650D01*
X10067801Y-8250650D02*
X10105896Y-8250650D01*
X10105896Y-8250650D02*
X10124944Y-8260174D01*
X10124944Y-8260174D02*
X10134468Y-8279222D01*
X10134468Y-8279222D02*
X10134468Y-8298269D01*
X10134468Y-8298269D02*
X10039230Y-8317317D01*
X10210658Y-8374460D02*
X10229706Y-8383984D01*
X10229706Y-8383984D02*
X10267801Y-8383984D01*
X10267801Y-8383984D02*
X10286849Y-8374460D01*
X10286849Y-8374460D02*
X10296373Y-8355412D01*
X10296373Y-8355412D02*
X10296373Y-8345888D01*
X10296373Y-8345888D02*
X10286849Y-8326841D01*
X10286849Y-8326841D02*
X10267801Y-8317317D01*
X10267801Y-8317317D02*
X10239230Y-8317317D01*
X10239230Y-8317317D02*
X10220182Y-8307793D01*
X10220182Y-8307793D02*
X10210658Y-8288746D01*
X10210658Y-8288746D02*
X10210658Y-8279222D01*
X10210658Y-8279222D02*
X10220182Y-8260174D01*
X10220182Y-8260174D02*
X10239230Y-8250650D01*
X10239230Y-8250650D02*
X10267801Y-8250650D01*
X10267801Y-8250650D02*
X10286849Y-8260174D01*
X10363039Y-8460174D02*
X10372563Y-8450650D01*
X10372563Y-8450650D02*
X10391611Y-8422079D01*
X10391611Y-8422079D02*
X10401134Y-8403031D01*
X10401134Y-8403031D02*
X10410658Y-8374460D01*
X10410658Y-8374460D02*
X10420182Y-8326841D01*
X10420182Y-8326841D02*
X10420182Y-8288746D01*
X10420182Y-8288746D02*
X10410658Y-8241127D01*
X10410658Y-8241127D02*
X10401134Y-8212555D01*
X10401134Y-8212555D02*
X10391611Y-8193508D01*
X10391611Y-8193508D02*
X10372563Y-8164936D01*
X10372563Y-8164936D02*
X10363039Y-8155412D01*
D12*
X5397500Y-8556500D02*
G75*
G02*
X5297500Y-8556500I-50000J0D01*
G01*
X5297500Y-8556500D02*
G75*
G02*
X5397500Y-8556500I50000J0D01*
G01*
D11*
X5763039Y-8647984D02*
X5648753Y-8647984D01*
X5705896Y-8647984D02*
X5705896Y-8447984D01*
X5705896Y-8447984D02*
X5686848Y-8476555D01*
X5686848Y-8476555D02*
X5667801Y-8495603D01*
X5667801Y-8495603D02*
X5648753Y-8505127D01*
X5848753Y-8628936D02*
X5858277Y-8638460D01*
X5858277Y-8638460D02*
X5848753Y-8647984D01*
X5848753Y-8647984D02*
X5839229Y-8638460D01*
X5839229Y-8638460D02*
X5848753Y-8628936D01*
X5848753Y-8628936D02*
X5848753Y-8647984D01*
X5982086Y-8447984D02*
X6001134Y-8447984D01*
X6001134Y-8447984D02*
X6020182Y-8457508D01*
X6020182Y-8457508D02*
X6029705Y-8467031D01*
X6029705Y-8467031D02*
X6039229Y-8486079D01*
X6039229Y-8486079D02*
X6048753Y-8524174D01*
X6048753Y-8524174D02*
X6048753Y-8571793D01*
X6048753Y-8571793D02*
X6039229Y-8609889D01*
X6039229Y-8609889D02*
X6029705Y-8628936D01*
X6029705Y-8628936D02*
X6020182Y-8638460D01*
X6020182Y-8638460D02*
X6001134Y-8647984D01*
X6001134Y-8647984D02*
X5982086Y-8647984D01*
X5982086Y-8647984D02*
X5963039Y-8638460D01*
X5963039Y-8638460D02*
X5953515Y-8628936D01*
X5953515Y-8628936D02*
X5943991Y-8609889D01*
X5943991Y-8609889D02*
X5934467Y-8571793D01*
X5934467Y-8571793D02*
X5934467Y-8524174D01*
X5934467Y-8524174D02*
X5943991Y-8486079D01*
X5943991Y-8486079D02*
X5953515Y-8467031D01*
X5953515Y-8467031D02*
X5963039Y-8457508D01*
X5963039Y-8457508D02*
X5982086Y-8447984D01*
X6172562Y-8447984D02*
X6191610Y-8447984D01*
X6191610Y-8447984D02*
X6210658Y-8457508D01*
X6210658Y-8457508D02*
X6220182Y-8467031D01*
X6220182Y-8467031D02*
X6229705Y-8486079D01*
X6229705Y-8486079D02*
X6239229Y-8524174D01*
X6239229Y-8524174D02*
X6239229Y-8571793D01*
X6239229Y-8571793D02*
X6229705Y-8609889D01*
X6229705Y-8609889D02*
X6220182Y-8628936D01*
X6220182Y-8628936D02*
X6210658Y-8638460D01*
X6210658Y-8638460D02*
X6191610Y-8647984D01*
X6191610Y-8647984D02*
X6172562Y-8647984D01*
X6172562Y-8647984D02*
X6153515Y-8638460D01*
X6153515Y-8638460D02*
X6143991Y-8628936D01*
X6143991Y-8628936D02*
X6134467Y-8609889D01*
X6134467Y-8609889D02*
X6124943Y-8571793D01*
X6124943Y-8571793D02*
X6124943Y-8524174D01*
X6124943Y-8524174D02*
X6134467Y-8486079D01*
X6134467Y-8486079D02*
X6143991Y-8467031D01*
X6143991Y-8467031D02*
X6153515Y-8457508D01*
X6153515Y-8457508D02*
X6172562Y-8447984D01*
X6363039Y-8447984D02*
X6382086Y-8447984D01*
X6382086Y-8447984D02*
X6401134Y-8457508D01*
X6401134Y-8457508D02*
X6410658Y-8467031D01*
X6410658Y-8467031D02*
X6420182Y-8486079D01*
X6420182Y-8486079D02*
X6429705Y-8524174D01*
X6429705Y-8524174D02*
X6429705Y-8571793D01*
X6429705Y-8571793D02*
X6420182Y-8609889D01*
X6420182Y-8609889D02*
X6410658Y-8628936D01*
X6410658Y-8628936D02*
X6401134Y-8638460D01*
X6401134Y-8638460D02*
X6382086Y-8647984D01*
X6382086Y-8647984D02*
X6363039Y-8647984D01*
X6363039Y-8647984D02*
X6343991Y-8638460D01*
X6343991Y-8638460D02*
X6334467Y-8628936D01*
X6334467Y-8628936D02*
X6324943Y-8609889D01*
X6324943Y-8609889D02*
X6315420Y-8571793D01*
X6315420Y-8571793D02*
X6315420Y-8524174D01*
X6315420Y-8524174D02*
X6324943Y-8486079D01*
X6324943Y-8486079D02*
X6334467Y-8467031D01*
X6334467Y-8467031D02*
X6343991Y-8457508D01*
X6343991Y-8457508D02*
X6363039Y-8447984D01*
X6515420Y-8647984D02*
X6515420Y-8514650D01*
X6515420Y-8533698D02*
X6524943Y-8524174D01*
X6524943Y-8524174D02*
X6543991Y-8514650D01*
X6543991Y-8514650D02*
X6572563Y-8514650D01*
X6572563Y-8514650D02*
X6591610Y-8524174D01*
X6591610Y-8524174D02*
X6601134Y-8543222D01*
X6601134Y-8543222D02*
X6601134Y-8647984D01*
X6601134Y-8543222D02*
X6610658Y-8524174D01*
X6610658Y-8524174D02*
X6629705Y-8514650D01*
X6629705Y-8514650D02*
X6658277Y-8514650D01*
X6658277Y-8514650D02*
X6677324Y-8524174D01*
X6677324Y-8524174D02*
X6686848Y-8543222D01*
X6686848Y-8543222D02*
X6686848Y-8647984D01*
X6782086Y-8647984D02*
X6782086Y-8514650D01*
X6782086Y-8533698D02*
X6791610Y-8524174D01*
X6791610Y-8524174D02*
X6810658Y-8514650D01*
X6810658Y-8514650D02*
X6839229Y-8514650D01*
X6839229Y-8514650D02*
X6858277Y-8524174D01*
X6858277Y-8524174D02*
X6867801Y-8543222D01*
X6867801Y-8543222D02*
X6867801Y-8647984D01*
X6867801Y-8543222D02*
X6877324Y-8524174D01*
X6877324Y-8524174D02*
X6896372Y-8514650D01*
X6896372Y-8514650D02*
X6924943Y-8514650D01*
X6924943Y-8514650D02*
X6943991Y-8524174D01*
X6943991Y-8524174D02*
X6953515Y-8543222D01*
X6953515Y-8543222D02*
X6953515Y-8647984D01*
X7343991Y-8438460D02*
X7172563Y-8695603D01*
X7601134Y-8447984D02*
X7620182Y-8447984D01*
X7620182Y-8447984D02*
X7639229Y-8457508D01*
X7639229Y-8457508D02*
X7648753Y-8467031D01*
X7648753Y-8467031D02*
X7658277Y-8486079D01*
X7658277Y-8486079D02*
X7667801Y-8524174D01*
X7667801Y-8524174D02*
X7667801Y-8571793D01*
X7667801Y-8571793D02*
X7658277Y-8609889D01*
X7658277Y-8609889D02*
X7648753Y-8628936D01*
X7648753Y-8628936D02*
X7639229Y-8638460D01*
X7639229Y-8638460D02*
X7620182Y-8647984D01*
X7620182Y-8647984D02*
X7601134Y-8647984D01*
X7601134Y-8647984D02*
X7582086Y-8638460D01*
X7582086Y-8638460D02*
X7572563Y-8628936D01*
X7572563Y-8628936D02*
X7563039Y-8609889D01*
X7563039Y-8609889D02*
X7553515Y-8571793D01*
X7553515Y-8571793D02*
X7553515Y-8524174D01*
X7553515Y-8524174D02*
X7563039Y-8486079D01*
X7563039Y-8486079D02*
X7572563Y-8467031D01*
X7572563Y-8467031D02*
X7582086Y-8457508D01*
X7582086Y-8457508D02*
X7601134Y-8447984D01*
X7753515Y-8628936D02*
X7763039Y-8638460D01*
X7763039Y-8638460D02*
X7753515Y-8647984D01*
X7753515Y-8647984D02*
X7743991Y-8638460D01*
X7743991Y-8638460D02*
X7753515Y-8628936D01*
X7753515Y-8628936D02*
X7753515Y-8647984D01*
X7886848Y-8447984D02*
X7905896Y-8447984D01*
X7905896Y-8447984D02*
X7924944Y-8457508D01*
X7924944Y-8457508D02*
X7934467Y-8467031D01*
X7934467Y-8467031D02*
X7943991Y-8486079D01*
X7943991Y-8486079D02*
X7953515Y-8524174D01*
X7953515Y-8524174D02*
X7953515Y-8571793D01*
X7953515Y-8571793D02*
X7943991Y-8609889D01*
X7943991Y-8609889D02*
X7934467Y-8628936D01*
X7934467Y-8628936D02*
X7924944Y-8638460D01*
X7924944Y-8638460D02*
X7905896Y-8647984D01*
X7905896Y-8647984D02*
X7886848Y-8647984D01*
X7886848Y-8647984D02*
X7867801Y-8638460D01*
X7867801Y-8638460D02*
X7858277Y-8628936D01*
X7858277Y-8628936D02*
X7848753Y-8609889D01*
X7848753Y-8609889D02*
X7839229Y-8571793D01*
X7839229Y-8571793D02*
X7839229Y-8524174D01*
X7839229Y-8524174D02*
X7848753Y-8486079D01*
X7848753Y-8486079D02*
X7858277Y-8467031D01*
X7858277Y-8467031D02*
X7867801Y-8457508D01*
X7867801Y-8457508D02*
X7886848Y-8447984D01*
X8020182Y-8447984D02*
X8143991Y-8447984D01*
X8143991Y-8447984D02*
X8077325Y-8524174D01*
X8077325Y-8524174D02*
X8105896Y-8524174D01*
X8105896Y-8524174D02*
X8124944Y-8533698D01*
X8124944Y-8533698D02*
X8134467Y-8543222D01*
X8134467Y-8543222D02*
X8143991Y-8562270D01*
X8143991Y-8562270D02*
X8143991Y-8609889D01*
X8143991Y-8609889D02*
X8134467Y-8628936D01*
X8134467Y-8628936D02*
X8124944Y-8638460D01*
X8124944Y-8638460D02*
X8105896Y-8647984D01*
X8105896Y-8647984D02*
X8048753Y-8647984D01*
X8048753Y-8647984D02*
X8029706Y-8638460D01*
X8029706Y-8638460D02*
X8020182Y-8628936D01*
X8239229Y-8647984D02*
X8277325Y-8647984D01*
X8277325Y-8647984D02*
X8296372Y-8638460D01*
X8296372Y-8638460D02*
X8305896Y-8628936D01*
X8305896Y-8628936D02*
X8324944Y-8600365D01*
X8324944Y-8600365D02*
X8334467Y-8562270D01*
X8334467Y-8562270D02*
X8334467Y-8486079D01*
X8334467Y-8486079D02*
X8324944Y-8467031D01*
X8324944Y-8467031D02*
X8315420Y-8457508D01*
X8315420Y-8457508D02*
X8296372Y-8447984D01*
X8296372Y-8447984D02*
X8258277Y-8447984D01*
X8258277Y-8447984D02*
X8239229Y-8457508D01*
X8239229Y-8457508D02*
X8229706Y-8467031D01*
X8229706Y-8467031D02*
X8220182Y-8486079D01*
X8220182Y-8486079D02*
X8220182Y-8533698D01*
X8220182Y-8533698D02*
X8229706Y-8552746D01*
X8229706Y-8552746D02*
X8239229Y-8562270D01*
X8239229Y-8562270D02*
X8258277Y-8571793D01*
X8258277Y-8571793D02*
X8296372Y-8571793D01*
X8296372Y-8571793D02*
X8315420Y-8562270D01*
X8315420Y-8562270D02*
X8324944Y-8552746D01*
X8324944Y-8552746D02*
X8334467Y-8533698D01*
X8505896Y-8514650D02*
X8505896Y-8647984D01*
X8458277Y-8438460D02*
X8410658Y-8581317D01*
X8410658Y-8581317D02*
X8534468Y-8581317D01*
X8601134Y-8447984D02*
X8601134Y-8486079D01*
X8677325Y-8447984D02*
X8677325Y-8486079D01*
X8972563Y-8724174D02*
X8963039Y-8714650D01*
X8963039Y-8714650D02*
X8943991Y-8686079D01*
X8943991Y-8686079D02*
X8934468Y-8667031D01*
X8934468Y-8667031D02*
X8924944Y-8638460D01*
X8924944Y-8638460D02*
X8915420Y-8590841D01*
X8915420Y-8590841D02*
X8915420Y-8552746D01*
X8915420Y-8552746D02*
X8924944Y-8505127D01*
X8924944Y-8505127D02*
X8934468Y-8476555D01*
X8934468Y-8476555D02*
X8943991Y-8457508D01*
X8943991Y-8457508D02*
X8963039Y-8428936D01*
X8963039Y-8428936D02*
X8972563Y-8419412D01*
X9134468Y-8447984D02*
X9096372Y-8447984D01*
X9096372Y-8447984D02*
X9077325Y-8457508D01*
X9077325Y-8457508D02*
X9067801Y-8467031D01*
X9067801Y-8467031D02*
X9048753Y-8495603D01*
X9048753Y-8495603D02*
X9039230Y-8533698D01*
X9039230Y-8533698D02*
X9039230Y-8609889D01*
X9039230Y-8609889D02*
X9048753Y-8628936D01*
X9048753Y-8628936D02*
X9058277Y-8638460D01*
X9058277Y-8638460D02*
X9077325Y-8647984D01*
X9077325Y-8647984D02*
X9115420Y-8647984D01*
X9115420Y-8647984D02*
X9134468Y-8638460D01*
X9134468Y-8638460D02*
X9143991Y-8628936D01*
X9143991Y-8628936D02*
X9153515Y-8609889D01*
X9153515Y-8609889D02*
X9153515Y-8562270D01*
X9153515Y-8562270D02*
X9143991Y-8543222D01*
X9143991Y-8543222D02*
X9134468Y-8533698D01*
X9134468Y-8533698D02*
X9115420Y-8524174D01*
X9115420Y-8524174D02*
X9077325Y-8524174D01*
X9077325Y-8524174D02*
X9058277Y-8533698D01*
X9058277Y-8533698D02*
X9048753Y-8543222D01*
X9048753Y-8543222D02*
X9039230Y-8562270D01*
X9391611Y-8647984D02*
X9391611Y-8447984D01*
X9477325Y-8647984D02*
X9477325Y-8543222D01*
X9477325Y-8543222D02*
X9467801Y-8524174D01*
X9467801Y-8524174D02*
X9448753Y-8514650D01*
X9448753Y-8514650D02*
X9420182Y-8514650D01*
X9420182Y-8514650D02*
X9401134Y-8524174D01*
X9401134Y-8524174D02*
X9391611Y-8533698D01*
X9601134Y-8647984D02*
X9582087Y-8638460D01*
X9582087Y-8638460D02*
X9572563Y-8628936D01*
X9572563Y-8628936D02*
X9563039Y-8609889D01*
X9563039Y-8609889D02*
X9563039Y-8552746D01*
X9563039Y-8552746D02*
X9572563Y-8533698D01*
X9572563Y-8533698D02*
X9582087Y-8524174D01*
X9582087Y-8524174D02*
X9601134Y-8514650D01*
X9601134Y-8514650D02*
X9629706Y-8514650D01*
X9629706Y-8514650D02*
X9648753Y-8524174D01*
X9648753Y-8524174D02*
X9658277Y-8533698D01*
X9658277Y-8533698D02*
X9667801Y-8552746D01*
X9667801Y-8552746D02*
X9667801Y-8609889D01*
X9667801Y-8609889D02*
X9658277Y-8628936D01*
X9658277Y-8628936D02*
X9648753Y-8638460D01*
X9648753Y-8638460D02*
X9629706Y-8647984D01*
X9629706Y-8647984D02*
X9601134Y-8647984D01*
X9782087Y-8647984D02*
X9763039Y-8638460D01*
X9763039Y-8638460D02*
X9753515Y-8619412D01*
X9753515Y-8619412D02*
X9753515Y-8447984D01*
X9934468Y-8638460D02*
X9915420Y-8647984D01*
X9915420Y-8647984D02*
X9877325Y-8647984D01*
X9877325Y-8647984D02*
X9858277Y-8638460D01*
X9858277Y-8638460D02*
X9848753Y-8619412D01*
X9848753Y-8619412D02*
X9848753Y-8543222D01*
X9848753Y-8543222D02*
X9858277Y-8524174D01*
X9858277Y-8524174D02*
X9877325Y-8514650D01*
X9877325Y-8514650D02*
X9915420Y-8514650D01*
X9915420Y-8514650D02*
X9934468Y-8524174D01*
X9934468Y-8524174D02*
X9943992Y-8543222D01*
X9943992Y-8543222D02*
X9943992Y-8562270D01*
X9943992Y-8562270D02*
X9848753Y-8581317D01*
X10020182Y-8638460D02*
X10039230Y-8647984D01*
X10039230Y-8647984D02*
X10077325Y-8647984D01*
X10077325Y-8647984D02*
X10096373Y-8638460D01*
X10096373Y-8638460D02*
X10105896Y-8619412D01*
X10105896Y-8619412D02*
X10105896Y-8609889D01*
X10105896Y-8609889D02*
X10096373Y-8590841D01*
X10096373Y-8590841D02*
X10077325Y-8581317D01*
X10077325Y-8581317D02*
X10048753Y-8581317D01*
X10048753Y-8581317D02*
X10029706Y-8571793D01*
X10029706Y-8571793D02*
X10020182Y-8552746D01*
X10020182Y-8552746D02*
X10020182Y-8543222D01*
X10020182Y-8543222D02*
X10029706Y-8524174D01*
X10029706Y-8524174D02*
X10048753Y-8514650D01*
X10048753Y-8514650D02*
X10077325Y-8514650D01*
X10077325Y-8514650D02*
X10096373Y-8524174D01*
X10172563Y-8724174D02*
X10182087Y-8714650D01*
X10182087Y-8714650D02*
X10201134Y-8686079D01*
X10201134Y-8686079D02*
X10210658Y-8667031D01*
X10210658Y-8667031D02*
X10220182Y-8638460D01*
X10220182Y-8638460D02*
X10229706Y-8590841D01*
X10229706Y-8590841D02*
X10229706Y-8552746D01*
X10229706Y-8552746D02*
X10220182Y-8505127D01*
X10220182Y-8505127D02*
X10210658Y-8476555D01*
X10210658Y-8476555D02*
X10201134Y-8457508D01*
X10201134Y-8457508D02*
X10182087Y-8428936D01*
X10182087Y-8428936D02*
X10172563Y-8419412D01*
M02*
