%TF.GenerationSoftware,KiCad,Pcbnew,10.0.1*%
%TF.CreationDate,2026-06-20T14:04:37+02:00*%
%TF.ProjectId,DMH_Submodule_VCA,444d485f-5375-4626-9d6f-64756c655f56,1*%
%TF.SameCoordinates,Original*%
%TF.FileFunction,Drillmap*%
%TF.FilePolarity,Positive*%
%FSLAX45Y45*%
G04 Gerber Fmt 4.5, Leading zero omitted, Abs format (unit mm)*
G04 Created by KiCad (PCBNEW 10.0.1) date 2026-06-20 14:04:37*
%MOMM*%
%LPD*%
G01*
G04 APERTURE LIST*
%ADD10C,0.050000*%
%ADD11C,0.200000*%
G04 APERTURE END LIST*
D10*
X5400000Y-4950000D02*
X9500000Y-4950000D01*
X9500000Y-7650000D01*
X5400000Y-7650000D01*
X5400000Y-4950000D01*
D11*
X5658277Y-7963984D02*
X5658277Y-7763984D01*
X5658277Y-7763984D02*
X5705896Y-7763984D01*
X5705896Y-7763984D02*
X5734467Y-7773508D01*
X5734467Y-7773508D02*
X5753515Y-7792555D01*
X5753515Y-7792555D02*
X5763039Y-7811603D01*
X5763039Y-7811603D02*
X5772562Y-7849698D01*
X5772562Y-7849698D02*
X5772562Y-7878269D01*
X5772562Y-7878269D02*
X5763039Y-7916365D01*
X5763039Y-7916365D02*
X5753515Y-7935412D01*
X5753515Y-7935412D02*
X5734467Y-7954460D01*
X5734467Y-7954460D02*
X5705896Y-7963984D01*
X5705896Y-7963984D02*
X5658277Y-7963984D01*
X5858277Y-7963984D02*
X5858277Y-7830650D01*
X5858277Y-7868746D02*
X5867801Y-7849698D01*
X5867801Y-7849698D02*
X5877324Y-7840174D01*
X5877324Y-7840174D02*
X5896372Y-7830650D01*
X5896372Y-7830650D02*
X5915420Y-7830650D01*
X5982086Y-7963984D02*
X5982086Y-7830650D01*
X5982086Y-7763984D02*
X5972562Y-7773508D01*
X5972562Y-7773508D02*
X5982086Y-7783031D01*
X5982086Y-7783031D02*
X5991610Y-7773508D01*
X5991610Y-7773508D02*
X5982086Y-7763984D01*
X5982086Y-7763984D02*
X5982086Y-7783031D01*
X6105896Y-7963984D02*
X6086848Y-7954460D01*
X6086848Y-7954460D02*
X6077324Y-7935412D01*
X6077324Y-7935412D02*
X6077324Y-7763984D01*
X6210658Y-7963984D02*
X6191610Y-7954460D01*
X6191610Y-7954460D02*
X6182086Y-7935412D01*
X6182086Y-7935412D02*
X6182086Y-7763984D01*
X6439229Y-7963984D02*
X6439229Y-7763984D01*
X6439229Y-7763984D02*
X6505896Y-7906841D01*
X6505896Y-7906841D02*
X6572562Y-7763984D01*
X6572562Y-7763984D02*
X6572562Y-7963984D01*
X6753515Y-7963984D02*
X6753515Y-7859222D01*
X6753515Y-7859222D02*
X6743991Y-7840174D01*
X6743991Y-7840174D02*
X6724943Y-7830650D01*
X6724943Y-7830650D02*
X6686848Y-7830650D01*
X6686848Y-7830650D02*
X6667801Y-7840174D01*
X6753515Y-7954460D02*
X6734467Y-7963984D01*
X6734467Y-7963984D02*
X6686848Y-7963984D01*
X6686848Y-7963984D02*
X6667801Y-7954460D01*
X6667801Y-7954460D02*
X6658277Y-7935412D01*
X6658277Y-7935412D02*
X6658277Y-7916365D01*
X6658277Y-7916365D02*
X6667801Y-7897317D01*
X6667801Y-7897317D02*
X6686848Y-7887793D01*
X6686848Y-7887793D02*
X6734467Y-7887793D01*
X6734467Y-7887793D02*
X6753515Y-7878269D01*
X6848753Y-7830650D02*
X6848753Y-8030650D01*
X6848753Y-7840174D02*
X6867801Y-7830650D01*
X6867801Y-7830650D02*
X6905896Y-7830650D01*
X6905896Y-7830650D02*
X6924943Y-7840174D01*
X6924943Y-7840174D02*
X6934467Y-7849698D01*
X6934467Y-7849698D02*
X6943991Y-7868746D01*
X6943991Y-7868746D02*
X6943991Y-7925888D01*
X6943991Y-7925888D02*
X6934467Y-7944936D01*
X6934467Y-7944936D02*
X6924943Y-7954460D01*
X6924943Y-7954460D02*
X6905896Y-7963984D01*
X6905896Y-7963984D02*
X6867801Y-7963984D01*
X6867801Y-7963984D02*
X6848753Y-7954460D01*
X7029705Y-7944936D02*
X7039229Y-7954460D01*
X7039229Y-7954460D02*
X7029705Y-7963984D01*
X7029705Y-7963984D02*
X7020182Y-7954460D01*
X7020182Y-7954460D02*
X7029705Y-7944936D01*
X7029705Y-7944936D02*
X7029705Y-7963984D01*
X7029705Y-7840174D02*
X7039229Y-7849698D01*
X7039229Y-7849698D02*
X7029705Y-7859222D01*
X7029705Y-7859222D02*
X7020182Y-7849698D01*
X7020182Y-7849698D02*
X7029705Y-7840174D01*
X7029705Y-7840174D02*
X7029705Y-7859222D01*
M02*
