%TF.GenerationSoftware,KiCad,Pcbnew,10.0.1*%
%TF.CreationDate,2026-06-20T14:04:33+02:00*%
%TF.ProjectId,DMH_Submodule_VCA,444d485f-5375-4626-9d6f-64756c655f56,1*%
%TF.SameCoordinates,Original*%
%TF.FileFunction,Legend,Bot*%
%TF.FilePolarity,Positive*%
%FSLAX46Y46*%
G04 Gerber Fmt 4.6, Leading zero omitted, Abs format (unit mm)*
G04 Created by KiCad (PCBNEW 10.0.1) date 2026-06-20 14:04:33*
%MOMM*%
%LPD*%
G01*
G04 APERTURE LIST*
G04 Aperture macros list*
%AMRoundRect*
0 Rectangle with rounded corners*
0 $1 Rounding radius*
0 $2 $3 $4 $5 $6 $7 $8 $9 X,Y pos of 4 corners*
0 Add a 4 corners polygon primitive as box body*
4,1,4,$2,$3,$4,$5,$6,$7,$8,$9,$2,$3,0*
0 Add four circle primitives for the rounded corners*
1,1,$1+$1,$2,$3*
1,1,$1+$1,$4,$5*
1,1,$1+$1,$6,$7*
1,1,$1+$1,$8,$9*
0 Add four rect primitives between the rounded corners*
20,1,$1+$1,$2,$3,$4,$5,0*
20,1,$1+$1,$4,$5,$6,$7,0*
20,1,$1+$1,$6,$7,$8,$9,0*
20,1,$1+$1,$8,$9,$2,$3,0*%
G04 Aperture macros list end*
%ADD10C,0.100000*%
%ADD11C,0.250000*%
%ADD12C,1.600000*%
%ADD13C,1.440000*%
%ADD14R,1.500000X1.500000*%
%ADD15C,1.500000*%
%ADD16R,1.700000X1.700000*%
%ADD17C,1.700000*%
%ADD18RoundRect,0.250000X-0.550000X-0.550000X0.550000X-0.550000X0.550000X0.550000X-0.550000X0.550000X0*%
G04 APERTURE END LIST*
D10*
X54600000Y-73900000D02*
X64600000Y-73900000D01*
X64600000Y-75900000D01*
X54600000Y-75900000D01*
X54600000Y-73900000D01*
G36*
X54600000Y-73900000D02*
G01*
X64600000Y-73900000D01*
X64600000Y-75900000D01*
X54600000Y-75900000D01*
X54600000Y-73900000D01*
G37*
D11*
X61328570Y-71544647D02*
X61328570Y-70544647D01*
X61328570Y-70544647D02*
X60995237Y-71258932D01*
X60995237Y-71258932D02*
X60661904Y-70544647D01*
X60661904Y-70544647D02*
X60661904Y-71544647D01*
X60185713Y-71544647D02*
X60185713Y-70544647D01*
X60090475Y-71163694D02*
X59804761Y-71544647D01*
X59804761Y-70877980D02*
X60185713Y-71258932D01*
X58852380Y-71544647D02*
X59423808Y-71544647D01*
X59138094Y-71544647D02*
X59138094Y-70544647D01*
X59138094Y-70544647D02*
X59233332Y-70687504D01*
X59233332Y-70687504D02*
X59328570Y-70782742D01*
X59328570Y-70782742D02*
X59423808Y-70830361D01*
X58423808Y-71449408D02*
X58376189Y-71497028D01*
X58376189Y-71497028D02*
X58423808Y-71544647D01*
X58423808Y-71544647D02*
X58471427Y-71497028D01*
X58471427Y-71497028D02*
X58423808Y-71449408D01*
X58423808Y-71449408D02*
X58423808Y-71544647D01*
X57757142Y-70544647D02*
X57661904Y-70544647D01*
X57661904Y-70544647D02*
X57566666Y-70592266D01*
X57566666Y-70592266D02*
X57519047Y-70639885D01*
X57519047Y-70639885D02*
X57471428Y-70735123D01*
X57471428Y-70735123D02*
X57423809Y-70925599D01*
X57423809Y-70925599D02*
X57423809Y-71163694D01*
X57423809Y-71163694D02*
X57471428Y-71354170D01*
X57471428Y-71354170D02*
X57519047Y-71449408D01*
X57519047Y-71449408D02*
X57566666Y-71497028D01*
X57566666Y-71497028D02*
X57661904Y-71544647D01*
X57661904Y-71544647D02*
X57757142Y-71544647D01*
X57757142Y-71544647D02*
X57852380Y-71497028D01*
X57852380Y-71497028D02*
X57899999Y-71449408D01*
X57899999Y-71449408D02*
X57947618Y-71354170D01*
X57947618Y-71354170D02*
X57995237Y-71163694D01*
X57995237Y-71163694D02*
X57995237Y-70925599D01*
X57995237Y-70925599D02*
X57947618Y-70735123D01*
X57947618Y-70735123D02*
X57899999Y-70639885D01*
X57899999Y-70639885D02*
X57852380Y-70592266D01*
X57852380Y-70592266D02*
X57757142Y-70544647D01*
X62876190Y-72154591D02*
X62876190Y-72868876D01*
X62876190Y-72868876D02*
X62923809Y-73011733D01*
X62923809Y-73011733D02*
X63019047Y-73106972D01*
X63019047Y-73106972D02*
X63161904Y-73154591D01*
X63161904Y-73154591D02*
X63257142Y-73154591D01*
X61971428Y-72487924D02*
X61971428Y-73154591D01*
X62399999Y-72487924D02*
X62399999Y-73011733D01*
X62399999Y-73011733D02*
X62352380Y-73106972D01*
X62352380Y-73106972D02*
X62257142Y-73154591D01*
X62257142Y-73154591D02*
X62114285Y-73154591D01*
X62114285Y-73154591D02*
X62019047Y-73106972D01*
X62019047Y-73106972D02*
X61971428Y-73059352D01*
X61495237Y-72487924D02*
X61495237Y-73154591D01*
X61495237Y-72583162D02*
X61447618Y-72535543D01*
X61447618Y-72535543D02*
X61352380Y-72487924D01*
X61352380Y-72487924D02*
X61209523Y-72487924D01*
X61209523Y-72487924D02*
X61114285Y-72535543D01*
X61114285Y-72535543D02*
X61066666Y-72630781D01*
X61066666Y-72630781D02*
X61066666Y-73154591D01*
X60209523Y-73106972D02*
X60304761Y-73154591D01*
X60304761Y-73154591D02*
X60495237Y-73154591D01*
X60495237Y-73154591D02*
X60590475Y-73106972D01*
X60590475Y-73106972D02*
X60638094Y-73011733D01*
X60638094Y-73011733D02*
X60638094Y-72630781D01*
X60638094Y-72630781D02*
X60590475Y-72535543D01*
X60590475Y-72535543D02*
X60495237Y-72487924D01*
X60495237Y-72487924D02*
X60304761Y-72487924D01*
X60304761Y-72487924D02*
X60209523Y-72535543D01*
X60209523Y-72535543D02*
X60161904Y-72630781D01*
X60161904Y-72630781D02*
X60161904Y-72726019D01*
X60161904Y-72726019D02*
X60638094Y-72821257D01*
X59019046Y-72249829D02*
X58971427Y-72202210D01*
X58971427Y-72202210D02*
X58876189Y-72154591D01*
X58876189Y-72154591D02*
X58638094Y-72154591D01*
X58638094Y-72154591D02*
X58542856Y-72202210D01*
X58542856Y-72202210D02*
X58495237Y-72249829D01*
X58495237Y-72249829D02*
X58447618Y-72345067D01*
X58447618Y-72345067D02*
X58447618Y-72440305D01*
X58447618Y-72440305D02*
X58495237Y-72583162D01*
X58495237Y-72583162D02*
X59066665Y-73154591D01*
X59066665Y-73154591D02*
X58447618Y-73154591D01*
X57828570Y-72154591D02*
X57733332Y-72154591D01*
X57733332Y-72154591D02*
X57638094Y-72202210D01*
X57638094Y-72202210D02*
X57590475Y-72249829D01*
X57590475Y-72249829D02*
X57542856Y-72345067D01*
X57542856Y-72345067D02*
X57495237Y-72535543D01*
X57495237Y-72535543D02*
X57495237Y-72773638D01*
X57495237Y-72773638D02*
X57542856Y-72964114D01*
X57542856Y-72964114D02*
X57590475Y-73059352D01*
X57590475Y-73059352D02*
X57638094Y-73106972D01*
X57638094Y-73106972D02*
X57733332Y-73154591D01*
X57733332Y-73154591D02*
X57828570Y-73154591D01*
X57828570Y-73154591D02*
X57923808Y-73106972D01*
X57923808Y-73106972D02*
X57971427Y-73059352D01*
X57971427Y-73059352D02*
X58019046Y-72964114D01*
X58019046Y-72964114D02*
X58066665Y-72773638D01*
X58066665Y-72773638D02*
X58066665Y-72535543D01*
X58066665Y-72535543D02*
X58019046Y-72345067D01*
X58019046Y-72345067D02*
X57971427Y-72249829D01*
X57971427Y-72249829D02*
X57923808Y-72202210D01*
X57923808Y-72202210D02*
X57828570Y-72154591D01*
X57114284Y-72249829D02*
X57066665Y-72202210D01*
X57066665Y-72202210D02*
X56971427Y-72154591D01*
X56971427Y-72154591D02*
X56733332Y-72154591D01*
X56733332Y-72154591D02*
X56638094Y-72202210D01*
X56638094Y-72202210D02*
X56590475Y-72249829D01*
X56590475Y-72249829D02*
X56542856Y-72345067D01*
X56542856Y-72345067D02*
X56542856Y-72440305D01*
X56542856Y-72440305D02*
X56590475Y-72583162D01*
X56590475Y-72583162D02*
X57161903Y-73154591D01*
X57161903Y-73154591D02*
X56542856Y-73154591D01*
X55685713Y-72154591D02*
X55876189Y-72154591D01*
X55876189Y-72154591D02*
X55971427Y-72202210D01*
X55971427Y-72202210D02*
X56019046Y-72249829D01*
X56019046Y-72249829D02*
X56114284Y-72392686D01*
X56114284Y-72392686D02*
X56161903Y-72583162D01*
X56161903Y-72583162D02*
X56161903Y-72964114D01*
X56161903Y-72964114D02*
X56114284Y-73059352D01*
X56114284Y-73059352D02*
X56066665Y-73106972D01*
X56066665Y-73106972D02*
X55971427Y-73154591D01*
X55971427Y-73154591D02*
X55780951Y-73154591D01*
X55780951Y-73154591D02*
X55685713Y-73106972D01*
X55685713Y-73106972D02*
X55638094Y-73059352D01*
X55638094Y-73059352D02*
X55590475Y-72964114D01*
X55590475Y-72964114D02*
X55590475Y-72726019D01*
X55590475Y-72726019D02*
X55638094Y-72630781D01*
X55638094Y-72630781D02*
X55685713Y-72583162D01*
X55685713Y-72583162D02*
X55780951Y-72535543D01*
X55780951Y-72535543D02*
X55971427Y-72535543D01*
X55971427Y-72535543D02*
X56066665Y-72583162D01*
X56066665Y-72583162D02*
X56114284Y-72630781D01*
X56114284Y-72630781D02*
X56161903Y-72726019D01*
%LPC*%
D12*
%TO.C,R4*%
X64310000Y-52000000D03*
X56690000Y-52000000D03*
%TD*%
D13*
%TO.C,RV1*%
X63040000Y-57745000D03*
X60500000Y-57745000D03*
X57960000Y-57745000D03*
%TD*%
D14*
%TO.C,Q1*%
X75450000Y-56800000D03*
D15*
X75450000Y-54260000D03*
X75450000Y-51720000D03*
%TD*%
D12*
%TO.C,R7*%
X86650000Y-59360000D03*
X86650000Y-51740000D03*
%TD*%
%TO.C,R3*%
X67250000Y-59310000D03*
X67250000Y-51690000D03*
%TD*%
%TO.C,R10*%
X56690000Y-68250000D03*
X64310000Y-68250000D03*
%TD*%
%TO.C,R9*%
X67250000Y-70560000D03*
X67250000Y-62940000D03*
%TD*%
%TO.C,R5*%
X70250000Y-59310000D03*
X70250000Y-51690000D03*
%TD*%
%TO.C,C2*%
X66000000Y-74250000D03*
X71000000Y-74250000D03*
%TD*%
%TO.C,R11*%
X70250000Y-62940000D03*
X70250000Y-70560000D03*
%TD*%
%TO.C,C1*%
X81250000Y-63250000D03*
X76250000Y-63250000D03*
%TD*%
D16*
%TO.C,J1*%
X88340000Y-64960000D03*
D17*
X90880000Y-64960000D03*
X88340000Y-67500000D03*
X90880000Y-67500000D03*
X88340000Y-70040000D03*
X90880000Y-70040000D03*
%TD*%
D12*
%TO.C,R1*%
X92650000Y-59360000D03*
X92650000Y-51740000D03*
%TD*%
D18*
%TO.C,U1*%
X73690000Y-66190000D03*
D12*
X73690000Y-68730000D03*
X73690000Y-71270000D03*
X73690000Y-73810000D03*
X81310000Y-73810000D03*
X81310000Y-71270000D03*
X81310000Y-68730000D03*
X81310000Y-66190000D03*
%TD*%
%TO.C,R12*%
X84500000Y-65690000D03*
X84500000Y-73310000D03*
%TD*%
D14*
%TO.C,Q2*%
X81700000Y-56800000D03*
D15*
X81700000Y-54260000D03*
X81700000Y-51720000D03*
%TD*%
D12*
%TO.C,R2*%
X89650000Y-51740000D03*
X89650000Y-59360000D03*
%TD*%
%TO.C,R8*%
X81310000Y-60000000D03*
X73690000Y-60000000D03*
%TD*%
%TO.C,R6*%
X64310000Y-63500000D03*
X56690000Y-63500000D03*
%TD*%
%LPD*%
M02*
