M48
; DRILL file KiCad 10.0.1 date 2026-06-20T14:04:37
; FORMAT={-:-/ absolute / metric / decimal}
; #@! TF.CreationDate,2026-06-20T14:04:37+02:00
; #@! TF.GenerationSoftware,Kicad,Pcbnew,10.0.1
; #@! TF.FileFunction,Plated,1,2,PTH
FMAT,2
METRIC
; #@! TA.AperFunction,Plated,PTH,ComponentDrill
T1C0.800
; #@! TA.AperFunction,Plated,PTH,ComponentDrill
T2C1.000
%
G90
G05
T1
X56.69Y-52.0
X56.69Y-63.5
X56.69Y-68.25
X57.96Y-57.745
X60.5Y-57.745
X63.04Y-57.745
X64.31Y-52.0
X64.31Y-63.5
X64.31Y-68.25
X66.0Y-74.25
X67.25Y-51.69
X67.25Y-59.31
X67.25Y-62.94
X67.25Y-70.56
X70.25Y-51.69
X70.25Y-59.31
X70.25Y-62.94
X70.25Y-70.56
X71.0Y-74.25
X73.69Y-60.0
X73.69Y-66.19
X73.69Y-68.73
X73.69Y-71.27
X73.69Y-73.81
X75.45Y-51.72
X75.45Y-54.26
X75.45Y-56.8
X76.25Y-63.25
X81.25Y-63.25
X81.31Y-60.0
X81.31Y-66.19
X81.31Y-68.73
X81.31Y-71.27
X81.31Y-73.81
X81.7Y-51.72
X81.7Y-54.26
X81.7Y-56.8
X84.5Y-65.69
X84.5Y-73.31
X86.65Y-51.74
X86.65Y-59.36
X89.65Y-51.74
X89.65Y-59.36
X92.65Y-51.74
X92.65Y-59.36
T2
X88.34Y-64.96
X88.34Y-67.5
X88.34Y-70.04
X90.88Y-64.96
X90.88Y-67.5
X90.88Y-70.04
M30
