%TF.GenerationSoftware,KiCad,Pcbnew,10.0.1*%
%TF.CreationDate,2026-07-15T15:34:36+02:00*%
%TF.ProjectId,DMH_Submodule_VCA_Mk2,444d485f-5375-4626-9d6f-64756c655f56,1*%
%TF.SameCoordinates,Original*%
%TF.FileFunction,Soldermask,Top*%
%TF.FilePolarity,Negative*%
%FSLAX46Y46*%
G04 Gerber Fmt 4.6, Leading zero omitted, Abs format (unit mm)*
G04 Created by KiCad (PCBNEW 10.0.1) date 2026-07-15 15:34:36*
%MOMM*%
%LPD*%
G01*
G04 APERTURE LIST*
G04 Aperture macros list*
%AMRoundRect*
0 Rectangle with rounded corners*
0 $1 Rounding radius*
0 $2 $3 $4 $5 $6 $7 $8 $9 X,Y pos of 4 corners*
0 Add a 4 corners polygon primitive as box body*
4,1,4,$2,$3,$4,$5,$6,$7,$8,$9,$2,$3,0*
0 Add four circle primitives for the rounded corners*
1,1,$1+$1,$2,$3*
1,1,$1+$1,$4,$5*
1,1,$1+$1,$6,$7*
1,1,$1+$1,$8,$9*
0 Add four rect primitives between the rounded corners*
20,1,$1+$1,$2,$3,$4,$5,0*
20,1,$1+$1,$4,$5,$6,$7,0*
20,1,$1+$1,$6,$7,$8,$9,0*
20,1,$1+$1,$8,$9,$2,$3,0*%
G04 Aperture macros list end*
%ADD10R,1.500000X1.500000*%
%ADD11C,1.500000*%
%ADD12C,1.600000*%
%ADD13RoundRect,0.250000X-0.550000X-0.550000X0.550000X-0.550000X0.550000X0.550000X-0.550000X0.550000X0*%
%ADD14R,1.700000X1.700000*%
%ADD15C,1.700000*%
%ADD16C,1.440000*%
G04 APERTURE END LIST*
D10*
%TO.C,Q2*%
X81760000Y-71300000D03*
D11*
X79220000Y-71300000D03*
X76680000Y-71300000D03*
%TD*%
%TO.C,Q1*%
X81740000Y-67550000D03*
X79200000Y-67550000D03*
D10*
X76660000Y-67550000D03*
%TD*%
D12*
%TO.C,C1*%
X65640000Y-53190000D03*
X70640000Y-53190000D03*
%TD*%
D13*
%TO.C,U1*%
X64290000Y-55990000D03*
D12*
X64290000Y-58530000D03*
X64290000Y-61070000D03*
X64290000Y-63610000D03*
X71910000Y-63610000D03*
X71910000Y-61070000D03*
X71910000Y-58530000D03*
X71910000Y-55990000D03*
%TD*%
%TO.C,C2*%
X70640000Y-66390000D03*
X65640000Y-66390000D03*
%TD*%
%TO.C,R1*%
X57405000Y-59800000D03*
X59945000Y-59800000D03*
%TD*%
%TO.C,R6*%
X81200000Y-56205000D03*
X81200000Y-58745000D03*
%TD*%
D14*
%TO.C,J2*%
X57500000Y-70780000D03*
D15*
X57500000Y-68240000D03*
X57500000Y-65700000D03*
X57500000Y-63160000D03*
%TD*%
D16*
%TO.C,RV1*%
X76100000Y-52500000D03*
X78640000Y-52500000D03*
X81180000Y-52500000D03*
%TD*%
D12*
%TO.C,R12*%
X61000000Y-53055000D03*
X61000000Y-55595000D03*
%TD*%
%TO.C,R8*%
X73900000Y-68255000D03*
X73900000Y-70795000D03*
%TD*%
%TO.C,R4*%
X75200000Y-58745000D03*
X75200000Y-56205000D03*
%TD*%
%TO.C,R9*%
X69545000Y-69700000D03*
X67005000Y-69700000D03*
%TD*%
%TO.C,R11*%
X69545000Y-72800000D03*
X67005000Y-72800000D03*
%TD*%
D14*
%TO.C,J1*%
X57500000Y-55540000D03*
D15*
X57500000Y-53000000D03*
%TD*%
D12*
%TO.C,R10*%
X76955000Y-63300000D03*
X79495000Y-63300000D03*
%TD*%
%TO.C,R7*%
X78200000Y-58745000D03*
X78200000Y-56205000D03*
%TD*%
%TO.C,R3*%
X60955000Y-66700000D03*
X63495000Y-66700000D03*
%TD*%
%TO.C,R5*%
X63045000Y-72800000D03*
X60505000Y-72800000D03*
%TD*%
%TO.C,R2*%
X63045000Y-69700000D03*
X60505000Y-69700000D03*
%TD*%
M02*
