%TF.GenerationSoftware,KiCad,Pcbnew,10.0.1*%
%TF.CreationDate,2026-07-15T15:34:36+02:00*%
%TF.ProjectId,DMH_Submodule_VCA_Mk2,444d485f-5375-4626-9d6f-64756c655f56,1*%
%TF.SameCoordinates,Original*%
%TF.FileFunction,Legend,Bot*%
%TF.FilePolarity,Positive*%
%FSLAX46Y46*%
G04 Gerber Fmt 4.6, Leading zero omitted, Abs format (unit mm)*
G04 Created by KiCad (PCBNEW 10.0.1) date 2026-07-15 15:34:36*
%MOMM*%
%LPD*%
G01*
G04 APERTURE LIST*
G04 Aperture macros list*
%AMRoundRect*
0 Rectangle with rounded corners*
0 $1 Rounding radius*
0 $2 $3 $4 $5 $6 $7 $8 $9 X,Y pos of 4 corners*
0 Add a 4 corners polygon primitive as box body*
4,1,4,$2,$3,$4,$5,$6,$7,$8,$9,$2,$3,0*
0 Add four circle primitives for the rounded corners*
1,1,$1+$1,$2,$3*
1,1,$1+$1,$4,$5*
1,1,$1+$1,$6,$7*
1,1,$1+$1,$8,$9*
0 Add four rect primitives between the rounded corners*
20,1,$1+$1,$2,$3,$4,$5,0*
20,1,$1+$1,$4,$5,$6,$7,0*
20,1,$1+$1,$6,$7,$8,$9,0*
20,1,$1+$1,$8,$9,$2,$3,0*%
G04 Aperture macros list end*
%ADD10C,0.100000*%
%ADD11C,0.250000*%
%ADD12R,1.500000X1.500000*%
%ADD13C,1.500000*%
%ADD14C,1.600000*%
%ADD15RoundRect,0.250000X-0.550000X-0.550000X0.550000X-0.550000X0.550000X0.550000X-0.550000X0.550000X0*%
%ADD16R,1.700000X1.700000*%
%ADD17C,1.700000*%
%ADD18C,1.440000*%
G04 APERTURE END LIST*
D10*
X83000000Y-50000000D02*
X85000000Y-50000000D01*
X85000000Y-60000000D01*
X83000000Y-60000000D01*
X83000000Y-50000000D01*
G36*
X83000000Y-50000000D02*
G01*
X85000000Y-50000000D01*
X85000000Y-60000000D01*
X83000000Y-60000000D01*
X83000000Y-50000000D01*
G37*
D11*
X83144647Y-62571429D02*
X82144647Y-62571429D01*
X82144647Y-62571429D02*
X82858932Y-62904762D01*
X82858932Y-62904762D02*
X82144647Y-63238095D01*
X82144647Y-63238095D02*
X83144647Y-63238095D01*
X83144647Y-63714286D02*
X82144647Y-63714286D01*
X82763694Y-63809524D02*
X83144647Y-64095238D01*
X82477980Y-64095238D02*
X82858932Y-63714286D01*
X82239885Y-64476191D02*
X82192266Y-64523810D01*
X82192266Y-64523810D02*
X82144647Y-64619048D01*
X82144647Y-64619048D02*
X82144647Y-64857143D01*
X82144647Y-64857143D02*
X82192266Y-64952381D01*
X82192266Y-64952381D02*
X82239885Y-65000000D01*
X82239885Y-65000000D02*
X82335123Y-65047619D01*
X82335123Y-65047619D02*
X82430361Y-65047619D01*
X82430361Y-65047619D02*
X82573218Y-65000000D01*
X82573218Y-65000000D02*
X83144647Y-64428572D01*
X83144647Y-64428572D02*
X83144647Y-65047619D01*
X83049408Y-65476191D02*
X83097028Y-65523810D01*
X83097028Y-65523810D02*
X83144647Y-65476191D01*
X83144647Y-65476191D02*
X83097028Y-65428572D01*
X83097028Y-65428572D02*
X83049408Y-65476191D01*
X83049408Y-65476191D02*
X83144647Y-65476191D01*
X82144647Y-66142857D02*
X82144647Y-66238095D01*
X82144647Y-66238095D02*
X82192266Y-66333333D01*
X82192266Y-66333333D02*
X82239885Y-66380952D01*
X82239885Y-66380952D02*
X82335123Y-66428571D01*
X82335123Y-66428571D02*
X82525599Y-66476190D01*
X82525599Y-66476190D02*
X82763694Y-66476190D01*
X82763694Y-66476190D02*
X82954170Y-66428571D01*
X82954170Y-66428571D02*
X83049408Y-66380952D01*
X83049408Y-66380952D02*
X83097028Y-66333333D01*
X83097028Y-66333333D02*
X83144647Y-66238095D01*
X83144647Y-66238095D02*
X83144647Y-66142857D01*
X83144647Y-66142857D02*
X83097028Y-66047619D01*
X83097028Y-66047619D02*
X83049408Y-66000000D01*
X83049408Y-66000000D02*
X82954170Y-65952381D01*
X82954170Y-65952381D02*
X82763694Y-65904762D01*
X82763694Y-65904762D02*
X82525599Y-65904762D01*
X82525599Y-65904762D02*
X82335123Y-65952381D01*
X82335123Y-65952381D02*
X82239885Y-66000000D01*
X82239885Y-66000000D02*
X82192266Y-66047619D01*
X82192266Y-66047619D02*
X82144647Y-66142857D01*
X83754591Y-61261904D02*
X84468876Y-61261904D01*
X84468876Y-61261904D02*
X84611733Y-61214285D01*
X84611733Y-61214285D02*
X84706972Y-61119047D01*
X84706972Y-61119047D02*
X84754591Y-60976190D01*
X84754591Y-60976190D02*
X84754591Y-60880952D01*
X84087924Y-62166666D02*
X84754591Y-62166666D01*
X84087924Y-61738095D02*
X84611733Y-61738095D01*
X84611733Y-61738095D02*
X84706972Y-61785714D01*
X84706972Y-61785714D02*
X84754591Y-61880952D01*
X84754591Y-61880952D02*
X84754591Y-62023809D01*
X84754591Y-62023809D02*
X84706972Y-62119047D01*
X84706972Y-62119047D02*
X84659352Y-62166666D01*
X84754591Y-62785714D02*
X84706972Y-62690476D01*
X84706972Y-62690476D02*
X84611733Y-62642857D01*
X84611733Y-62642857D02*
X83754591Y-62642857D01*
X84087924Y-63071429D02*
X84754591Y-63309524D01*
X84087924Y-63547619D02*
X84754591Y-63309524D01*
X84754591Y-63309524D02*
X84992686Y-63214286D01*
X84992686Y-63214286D02*
X85040305Y-63166667D01*
X85040305Y-63166667D02*
X85087924Y-63071429D01*
X83849829Y-64642858D02*
X83802210Y-64690477D01*
X83802210Y-64690477D02*
X83754591Y-64785715D01*
X83754591Y-64785715D02*
X83754591Y-65023810D01*
X83754591Y-65023810D02*
X83802210Y-65119048D01*
X83802210Y-65119048D02*
X83849829Y-65166667D01*
X83849829Y-65166667D02*
X83945067Y-65214286D01*
X83945067Y-65214286D02*
X84040305Y-65214286D01*
X84040305Y-65214286D02*
X84183162Y-65166667D01*
X84183162Y-65166667D02*
X84754591Y-64595239D01*
X84754591Y-64595239D02*
X84754591Y-65214286D01*
X83754591Y-65833334D02*
X83754591Y-65928572D01*
X83754591Y-65928572D02*
X83802210Y-66023810D01*
X83802210Y-66023810D02*
X83849829Y-66071429D01*
X83849829Y-66071429D02*
X83945067Y-66119048D01*
X83945067Y-66119048D02*
X84135543Y-66166667D01*
X84135543Y-66166667D02*
X84373638Y-66166667D01*
X84373638Y-66166667D02*
X84564114Y-66119048D01*
X84564114Y-66119048D02*
X84659352Y-66071429D01*
X84659352Y-66071429D02*
X84706972Y-66023810D01*
X84706972Y-66023810D02*
X84754591Y-65928572D01*
X84754591Y-65928572D02*
X84754591Y-65833334D01*
X84754591Y-65833334D02*
X84706972Y-65738096D01*
X84706972Y-65738096D02*
X84659352Y-65690477D01*
X84659352Y-65690477D02*
X84564114Y-65642858D01*
X84564114Y-65642858D02*
X84373638Y-65595239D01*
X84373638Y-65595239D02*
X84135543Y-65595239D01*
X84135543Y-65595239D02*
X83945067Y-65642858D01*
X83945067Y-65642858D02*
X83849829Y-65690477D01*
X83849829Y-65690477D02*
X83802210Y-65738096D01*
X83802210Y-65738096D02*
X83754591Y-65833334D01*
X83849829Y-66547620D02*
X83802210Y-66595239D01*
X83802210Y-66595239D02*
X83754591Y-66690477D01*
X83754591Y-66690477D02*
X83754591Y-66928572D01*
X83754591Y-66928572D02*
X83802210Y-67023810D01*
X83802210Y-67023810D02*
X83849829Y-67071429D01*
X83849829Y-67071429D02*
X83945067Y-67119048D01*
X83945067Y-67119048D02*
X84040305Y-67119048D01*
X84040305Y-67119048D02*
X84183162Y-67071429D01*
X84183162Y-67071429D02*
X84754591Y-66500001D01*
X84754591Y-66500001D02*
X84754591Y-67119048D01*
X83754591Y-67976191D02*
X83754591Y-67785715D01*
X83754591Y-67785715D02*
X83802210Y-67690477D01*
X83802210Y-67690477D02*
X83849829Y-67642858D01*
X83849829Y-67642858D02*
X83992686Y-67547620D01*
X83992686Y-67547620D02*
X84183162Y-67500001D01*
X84183162Y-67500001D02*
X84564114Y-67500001D01*
X84564114Y-67500001D02*
X84659352Y-67547620D01*
X84659352Y-67547620D02*
X84706972Y-67595239D01*
X84706972Y-67595239D02*
X84754591Y-67690477D01*
X84754591Y-67690477D02*
X84754591Y-67880953D01*
X84754591Y-67880953D02*
X84706972Y-67976191D01*
X84706972Y-67976191D02*
X84659352Y-68023810D01*
X84659352Y-68023810D02*
X84564114Y-68071429D01*
X84564114Y-68071429D02*
X84326019Y-68071429D01*
X84326019Y-68071429D02*
X84230781Y-68023810D01*
X84230781Y-68023810D02*
X84183162Y-67976191D01*
X84183162Y-67976191D02*
X84135543Y-67880953D01*
X84135543Y-67880953D02*
X84135543Y-67690477D01*
X84135543Y-67690477D02*
X84183162Y-67595239D01*
X84183162Y-67595239D02*
X84230781Y-67547620D01*
X84230781Y-67547620D02*
X84326019Y-67500001D01*
%LPC*%
D12*
%TO.C,Q2*%
X81760000Y-71300000D03*
D13*
X79220000Y-71300000D03*
X76680000Y-71300000D03*
%TD*%
%TO.C,Q1*%
X81740000Y-67550000D03*
X79200000Y-67550000D03*
D12*
X76660000Y-67550000D03*
%TD*%
D14*
%TO.C,C1*%
X65640000Y-53190000D03*
X70640000Y-53190000D03*
%TD*%
D15*
%TO.C,U1*%
X64290000Y-55990000D03*
D14*
X64290000Y-58530000D03*
X64290000Y-61070000D03*
X64290000Y-63610000D03*
X71910000Y-63610000D03*
X71910000Y-61070000D03*
X71910000Y-58530000D03*
X71910000Y-55990000D03*
%TD*%
%TO.C,C2*%
X70640000Y-66390000D03*
X65640000Y-66390000D03*
%TD*%
%TO.C,R1*%
X57405000Y-59800000D03*
X59945000Y-59800000D03*
%TD*%
%TO.C,R6*%
X81200000Y-56205000D03*
X81200000Y-58745000D03*
%TD*%
D16*
%TO.C,J2*%
X57500000Y-70780000D03*
D17*
X57500000Y-68240000D03*
X57500000Y-65700000D03*
X57500000Y-63160000D03*
%TD*%
D18*
%TO.C,RV1*%
X76100000Y-52500000D03*
X78640000Y-52500000D03*
X81180000Y-52500000D03*
%TD*%
D14*
%TO.C,R12*%
X61000000Y-53055000D03*
X61000000Y-55595000D03*
%TD*%
%TO.C,R8*%
X73900000Y-68255000D03*
X73900000Y-70795000D03*
%TD*%
%TO.C,R4*%
X75200000Y-58745000D03*
X75200000Y-56205000D03*
%TD*%
%TO.C,R9*%
X69545000Y-69700000D03*
X67005000Y-69700000D03*
%TD*%
%TO.C,R11*%
X69545000Y-72800000D03*
X67005000Y-72800000D03*
%TD*%
D16*
%TO.C,J1*%
X57500000Y-55540000D03*
D17*
X57500000Y-53000000D03*
%TD*%
D14*
%TO.C,R10*%
X76955000Y-63300000D03*
X79495000Y-63300000D03*
%TD*%
%TO.C,R7*%
X78200000Y-58745000D03*
X78200000Y-56205000D03*
%TD*%
%TO.C,R3*%
X60955000Y-66700000D03*
X63495000Y-66700000D03*
%TD*%
%TO.C,R5*%
X63045000Y-72800000D03*
X60505000Y-72800000D03*
%TD*%
%TO.C,R2*%
X63045000Y-69700000D03*
X60505000Y-69700000D03*
%TD*%
%LPD*%
M02*
