%TF.GenerationSoftware,KiCad,Pcbnew,10.0.1*%
%TF.CreationDate,2026-07-15T15:34:39+02:00*%
%TF.ProjectId,DMH_Submodule_VCA_Mk2,444d485f-5375-4626-9d6f-64756c655f56,1*%
%TF.SameCoordinates,Original*%
%TF.FileFunction,Drillmap*%
%TF.FilePolarity,Positive*%
%FSLAX45Y45*%
G04 Gerber Fmt 4.5, Leading zero omitted, Abs format (unit mm)*
G04 Created by KiCad (PCBNEW 10.0.1) date 2026-07-15 15:34:39*
%MOMM*%
%LPD*%
G01*
G04 APERTURE LIST*
%ADD10C,0.050000*%
%ADD11C,0.200000*%
G04 APERTURE END LIST*
D10*
X5450000Y-4950000D02*
X8550000Y-4950000D01*
X8550000Y-7450000D01*
X5450000Y-7450000D01*
X5450000Y-4950000D01*
D11*
X5708277Y-7763984D02*
X5708277Y-7563984D01*
X5708277Y-7563984D02*
X5755896Y-7563984D01*
X5755896Y-7563984D02*
X5784467Y-7573508D01*
X5784467Y-7573508D02*
X5803515Y-7592555D01*
X5803515Y-7592555D02*
X5813039Y-7611603D01*
X5813039Y-7611603D02*
X5822562Y-7649698D01*
X5822562Y-7649698D02*
X5822562Y-7678269D01*
X5822562Y-7678269D02*
X5813039Y-7716365D01*
X5813039Y-7716365D02*
X5803515Y-7735412D01*
X5803515Y-7735412D02*
X5784467Y-7754460D01*
X5784467Y-7754460D02*
X5755896Y-7763984D01*
X5755896Y-7763984D02*
X5708277Y-7763984D01*
X5908277Y-7763984D02*
X5908277Y-7630650D01*
X5908277Y-7668746D02*
X5917801Y-7649698D01*
X5917801Y-7649698D02*
X5927324Y-7640174D01*
X5927324Y-7640174D02*
X5946372Y-7630650D01*
X5946372Y-7630650D02*
X5965420Y-7630650D01*
X6032086Y-7763984D02*
X6032086Y-7630650D01*
X6032086Y-7563984D02*
X6022562Y-7573508D01*
X6022562Y-7573508D02*
X6032086Y-7583031D01*
X6032086Y-7583031D02*
X6041610Y-7573508D01*
X6041610Y-7573508D02*
X6032086Y-7563984D01*
X6032086Y-7563984D02*
X6032086Y-7583031D01*
X6155896Y-7763984D02*
X6136848Y-7754460D01*
X6136848Y-7754460D02*
X6127324Y-7735412D01*
X6127324Y-7735412D02*
X6127324Y-7563984D01*
X6260658Y-7763984D02*
X6241610Y-7754460D01*
X6241610Y-7754460D02*
X6232086Y-7735412D01*
X6232086Y-7735412D02*
X6232086Y-7563984D01*
X6489229Y-7763984D02*
X6489229Y-7563984D01*
X6489229Y-7563984D02*
X6555896Y-7706841D01*
X6555896Y-7706841D02*
X6622562Y-7563984D01*
X6622562Y-7563984D02*
X6622562Y-7763984D01*
X6803515Y-7763984D02*
X6803515Y-7659222D01*
X6803515Y-7659222D02*
X6793991Y-7640174D01*
X6793991Y-7640174D02*
X6774943Y-7630650D01*
X6774943Y-7630650D02*
X6736848Y-7630650D01*
X6736848Y-7630650D02*
X6717801Y-7640174D01*
X6803515Y-7754460D02*
X6784467Y-7763984D01*
X6784467Y-7763984D02*
X6736848Y-7763984D01*
X6736848Y-7763984D02*
X6717801Y-7754460D01*
X6717801Y-7754460D02*
X6708277Y-7735412D01*
X6708277Y-7735412D02*
X6708277Y-7716365D01*
X6708277Y-7716365D02*
X6717801Y-7697317D01*
X6717801Y-7697317D02*
X6736848Y-7687793D01*
X6736848Y-7687793D02*
X6784467Y-7687793D01*
X6784467Y-7687793D02*
X6803515Y-7678269D01*
X6898753Y-7630650D02*
X6898753Y-7830650D01*
X6898753Y-7640174D02*
X6917801Y-7630650D01*
X6917801Y-7630650D02*
X6955896Y-7630650D01*
X6955896Y-7630650D02*
X6974943Y-7640174D01*
X6974943Y-7640174D02*
X6984467Y-7649698D01*
X6984467Y-7649698D02*
X6993991Y-7668746D01*
X6993991Y-7668746D02*
X6993991Y-7725888D01*
X6993991Y-7725888D02*
X6984467Y-7744936D01*
X6984467Y-7744936D02*
X6974943Y-7754460D01*
X6974943Y-7754460D02*
X6955896Y-7763984D01*
X6955896Y-7763984D02*
X6917801Y-7763984D01*
X6917801Y-7763984D02*
X6898753Y-7754460D01*
X7079705Y-7744936D02*
X7089229Y-7754460D01*
X7089229Y-7754460D02*
X7079705Y-7763984D01*
X7079705Y-7763984D02*
X7070182Y-7754460D01*
X7070182Y-7754460D02*
X7079705Y-7744936D01*
X7079705Y-7744936D02*
X7079705Y-7763984D01*
X7079705Y-7640174D02*
X7089229Y-7649698D01*
X7089229Y-7649698D02*
X7079705Y-7659222D01*
X7079705Y-7659222D02*
X7070182Y-7649698D01*
X7070182Y-7649698D02*
X7079705Y-7640174D01*
X7079705Y-7640174D02*
X7079705Y-7659222D01*
M02*
