M48
; DRILL file KiCad 10.0.1 date 2026-07-15T15:34:39
; FORMAT={-:-/ absolute / metric / decimal}
; #@! TF.CreationDate,2026-07-15T15:34:39+02:00
; #@! TF.GenerationSoftware,Kicad,Pcbnew,10.0.1
; #@! TF.FileFunction,Plated,1,2,PTH
FMAT,2
METRIC
; #@! TA.AperFunction,Plated,PTH,ComponentDrill
T1C0.800
; #@! TA.AperFunction,Plated,PTH,ComponentDrill
T2C1.000
%
G90
G05
T1
X57.405Y-59.8
X59.945Y-59.8
X60.505Y-69.7
X60.505Y-72.8
X60.955Y-66.7
X61.0Y-53.055
X61.0Y-55.595
X63.045Y-69.7
X63.045Y-72.8
X63.495Y-66.7
X64.29Y-55.99
X64.29Y-58.53
X64.29Y-61.07
X64.29Y-63.61
X65.64Y-53.19
X65.64Y-66.39
X67.005Y-69.7
X67.005Y-72.8
X69.545Y-69.7
X69.545Y-72.8
X70.64Y-53.19
X70.64Y-66.39
X71.91Y-55.99
X71.91Y-58.53
X71.91Y-61.07
X71.91Y-63.61
X73.9Y-68.255
X73.9Y-70.795
X75.2Y-56.205
X75.2Y-58.745
X76.1Y-52.5
X76.66Y-67.55
X76.68Y-71.3
X76.955Y-63.3
X78.2Y-56.205
X78.2Y-58.745
X78.64Y-52.5
X79.2Y-67.55
X79.22Y-71.3
X79.495Y-63.3
X81.18Y-52.5
X81.2Y-56.205
X81.2Y-58.745
X81.74Y-67.55
X81.76Y-71.3
T2
X57.5Y-53.0
X57.5Y-55.54
X57.5Y-63.16
X57.5Y-65.7
X57.5Y-68.24
X57.5Y-70.78
M30
