%TF.GenerationSoftware,KiCad,Pcbnew,10.0.1*%
%TF.CreationDate,2026-07-15T15:34:36+02:00*%
%TF.ProjectId,DMH_Submodule_VCA_Mk2,444d485f-5375-4626-9d6f-64756c655f56,1*%
%TF.SameCoordinates,Original*%
%TF.FileFunction,Copper,L2,Bot*%
%TF.FilePolarity,Positive*%
%FSLAX46Y46*%
G04 Gerber Fmt 4.6, Leading zero omitted, Abs format (unit mm)*
G04 Created by KiCad (PCBNEW 10.0.1) date 2026-07-15 15:34:36*
%MOMM*%
%LPD*%
G01*
G04 APERTURE LIST*
G04 Aperture macros list*
%AMRoundRect*
0 Rectangle with rounded corners*
0 $1 Rounding radius*
0 $2 $3 $4 $5 $6 $7 $8 $9 X,Y pos of 4 corners*
0 Add a 4 corners polygon primitive as box body*
4,1,4,$2,$3,$4,$5,$6,$7,$8,$9,$2,$3,0*
0 Add four circle primitives for the rounded corners*
1,1,$1+$1,$2,$3*
1,1,$1+$1,$4,$5*
1,1,$1+$1,$6,$7*
1,1,$1+$1,$8,$9*
0 Add four rect primitives between the rounded corners*
20,1,$1+$1,$2,$3,$4,$5,0*
20,1,$1+$1,$4,$5,$6,$7,0*
20,1,$1+$1,$6,$7,$8,$9,0*
20,1,$1+$1,$8,$9,$2,$3,0*%
G04 Aperture macros list end*
%TA.AperFunction,ComponentPad*%
%ADD10R,1.500000X1.500000*%
%TD*%
%TA.AperFunction,ComponentPad*%
%ADD11C,1.500000*%
%TD*%
%TA.AperFunction,ComponentPad*%
%ADD12C,1.600000*%
%TD*%
%TA.AperFunction,ComponentPad*%
%ADD13RoundRect,0.250000X-0.550000X-0.550000X0.550000X-0.550000X0.550000X0.550000X-0.550000X0.550000X0*%
%TD*%
%TA.AperFunction,ComponentPad*%
%ADD14R,1.700000X1.700000*%
%TD*%
%TA.AperFunction,ComponentPad*%
%ADD15C,1.700000*%
%TD*%
%TA.AperFunction,ComponentPad*%
%ADD16C,1.440000*%
%TD*%
%TA.AperFunction,Conductor*%
%ADD17C,0.200000*%
%TD*%
%TA.AperFunction,Conductor*%
%ADD18C,1.000000*%
%TD*%
G04 APERTURE END LIST*
D10*
%TO.P,Q2,1,C_1*%
%TO.N,Net-(Q2-C)*%
X81760000Y-71300000D03*
D11*
%TO.P,Q2,2,B_2*%
%TO.N,Net-(Q2-B)*%
X79220000Y-71300000D03*
%TO.P,Q2,3,E_3*%
%TO.N,Net-(Q1-E)*%
X76680000Y-71300000D03*
%TD*%
%TO.P,Q1,3,E_3*%
%TO.N,Net-(Q1-E)*%
X81740000Y-67550000D03*
%TO.P,Q1,2,B_2*%
%TO.N,Net-(Q1-B)*%
X79200000Y-67550000D03*
D10*
%TO.P,Q1,1,C_1*%
%TO.N,Net-(Q1-C)*%
X76660000Y-67550000D03*
%TD*%
D12*
%TO.P,C1,2*%
%TO.N,GND*%
X65640000Y-53190000D03*
%TO.P,C1,1*%
%TO.N,+12V*%
X70640000Y-53190000D03*
%TD*%
D13*
%TO.P,U1,1*%
%TO.N,Net-(R1-Pad2)*%
X64290000Y-55990000D03*
D12*
%TO.P,U1,2,-_2*%
%TO.N,/CV_Mix_In*%
X64290000Y-58530000D03*
%TO.P,U1,3,+_3*%
%TO.N,GND*%
X64290000Y-61070000D03*
%TO.P,U1,4,V-_4*%
%TO.N,-12V*%
X64290000Y-63610000D03*
%TO.P,U1,5,+_5*%
%TO.N,Net-(U1B-+)*%
X71910000Y-63610000D03*
%TO.P,U1,6,-_6*%
%TO.N,Net-(U1B--)*%
X71910000Y-61070000D03*
%TO.P,U1,7*%
%TO.N,/Signal_Out*%
X71910000Y-58530000D03*
%TO.P,U1,8,V+_8*%
%TO.N,+12V*%
X71910000Y-55990000D03*
%TD*%
%TO.P,C2,1*%
%TO.N,GND*%
X70640000Y-66390000D03*
%TO.P,C2,2*%
%TO.N,-12V*%
X65640000Y-66390000D03*
%TD*%
%TO.P,R1,2*%
%TO.N,Net-(R1-Pad2)*%
X57405000Y-59800000D03*
%TO.P,R1,1*%
%TO.N,/CV_Mix_In*%
X59945000Y-59800000D03*
%TD*%
%TO.P,R6,2*%
%TO.N,+12V*%
X81200000Y-56205000D03*
%TO.P,R6,1*%
%TO.N,Net-(Q2-C)*%
X81200000Y-58745000D03*
%TD*%
D14*
%TO.P,J2,1,Pin_1_1*%
%TO.N,/Signal_In*%
X57500000Y-70780000D03*
D15*
%TO.P,J2,2,Pin_2_2*%
%TO.N,/CV_Mix_In*%
X57500000Y-68240000D03*
%TO.P,J2,3,Pin_3_3*%
%TO.N,/Signal_Out*%
X57500000Y-65700000D03*
%TO.P,J2,4,Pin_4_4*%
%TO.N,GND*%
X57500000Y-63160000D03*
%TD*%
D16*
%TO.P,RV1,1,1_1*%
%TO.N,-12V*%
X76100000Y-52500000D03*
%TO.P,RV1,2,2_2*%
%TO.N,Net-(R10-Pad2)*%
X78640000Y-52500000D03*
%TO.P,RV1,3,3_3*%
%TO.N,+12V*%
X81180000Y-52500000D03*
%TD*%
D12*
%TO.P,R12,1*%
%TO.N,/Signal_Out*%
X61000000Y-53055000D03*
%TO.P,R12,2*%
%TO.N,Net-(U1B--)*%
X61000000Y-55595000D03*
%TD*%
%TO.P,R8,1*%
%TO.N,Net-(U1B--)*%
X73900000Y-68255000D03*
%TO.P,R8,2*%
%TO.N,Net-(Q1-C)*%
X73900000Y-70795000D03*
%TD*%
%TO.P,R4,1*%
%TO.N,Net-(Q1-C)*%
X75200000Y-58745000D03*
%TO.P,R4,2*%
%TO.N,+12V*%
X75200000Y-56205000D03*
%TD*%
%TO.P,R9,1*%
%TO.N,Net-(U1B-+)*%
X69545000Y-69700000D03*
%TO.P,R9,2*%
%TO.N,Net-(Q2-C)*%
X67005000Y-69700000D03*
%TD*%
%TO.P,R11,1*%
%TO.N,Net-(U1B-+)*%
X69545000Y-72800000D03*
%TO.P,R11,2*%
%TO.N,GND*%
X67005000Y-72800000D03*
%TD*%
D14*
%TO.P,J1,1,Pin_1_1*%
%TO.N,+12V*%
X57500000Y-55540000D03*
D15*
%TO.P,J1,2,Pin_2_2*%
%TO.N,-12V*%
X57500000Y-53000000D03*
%TD*%
D12*
%TO.P,R10,1*%
%TO.N,Net-(Q2-B)*%
X76955000Y-63300000D03*
%TO.P,R10,2*%
%TO.N,Net-(R10-Pad2)*%
X79495000Y-63300000D03*
%TD*%
%TO.P,R7,1*%
%TO.N,Net-(Q2-B)*%
X78200000Y-58745000D03*
%TO.P,R7,2*%
%TO.N,GND*%
X78200000Y-56205000D03*
%TD*%
%TO.P,R3,1*%
%TO.N,GND*%
X60955000Y-66700000D03*
%TO.P,R3,2*%
%TO.N,Net-(Q1-B)*%
X63495000Y-66700000D03*
%TD*%
%TO.P,R5,1*%
%TO.N,Net-(Q1-E)*%
X63045000Y-72800000D03*
%TO.P,R5,2*%
%TO.N,Net-(R1-Pad2)*%
X60505000Y-72800000D03*
%TD*%
%TO.P,R2,1*%
%TO.N,Net-(Q1-B)*%
X63045000Y-69700000D03*
%TO.P,R2,2*%
%TO.N,/Signal_In*%
X60505000Y-69700000D03*
%TD*%
%TO.N,Net-(R1-Pad2)*%
D17*
X57405000Y-59800000D02*
X55100000Y-62105000D01*
%TO.N,/CV_Mix_In*%
X57500000Y-68240000D02*
X59945000Y-65795000D01*
X59945000Y-65795000D02*
X59945000Y-59800000D01*
%TO.N,/Signal_Out*%
X57500000Y-65700000D02*
X58845000Y-64355000D01*
X58845000Y-64355000D02*
X58845000Y-55210000D01*
%TO.N,-12V*%
D18*
X60000000Y-50500000D02*
X68200000Y-50500000D01*
X57500000Y-53000000D02*
X60000000Y-50500000D01*
%TO.N,Net-(R1-Pad2)*%
D17*
X55100000Y-72100000D02*
X56900000Y-73900000D01*
X55100000Y-62105000D02*
X55100000Y-72100000D01*
X56900000Y-73900000D02*
X59405000Y-73900000D01*
%TO.N,/Signal_Out*%
X58845000Y-55210000D02*
X61000000Y-53055000D01*
%TO.N,Net-(Q1-C)*%
X76660000Y-68035000D02*
X76660000Y-67550000D01*
X73900000Y-70795000D02*
X76660000Y-68035000D01*
%TO.N,Net-(U1B--)*%
X73900000Y-63060000D02*
X71910000Y-61070000D01*
X73900000Y-68255000D02*
X73900000Y-63060000D01*
%TO.N,Net-(U1B-+)*%
X71910000Y-67335000D02*
X71910000Y-63610000D01*
%TO.N,Net-(Q2-B)*%
X78000000Y-64345000D02*
X78000000Y-70080000D01*
X78000000Y-70080000D02*
X79220000Y-71300000D01*
X76955000Y-63300000D02*
X78000000Y-64345000D01*
%TO.N,Net-(Q1-C)*%
X75200000Y-66090000D02*
X76660000Y-67550000D01*
X75200000Y-58745000D02*
X75200000Y-66090000D01*
%TO.N,Net-(Q2-B)*%
X76955000Y-59990000D02*
X78200000Y-58745000D01*
X76955000Y-63300000D02*
X76955000Y-59990000D01*
%TO.N,-12V*%
D18*
X64300000Y-63620000D02*
X64290000Y-63610000D01*
X64300000Y-65100000D02*
X64300000Y-63620000D01*
X65590000Y-66390000D02*
X64300000Y-65100000D01*
X65640000Y-66390000D02*
X65590000Y-66390000D01*
%TO.N,Net-(Q2-C)*%
D17*
X83900000Y-61445000D02*
X81200000Y-58745000D01*
X83900000Y-69160000D02*
X83900000Y-61445000D01*
X81760000Y-71300000D02*
X83900000Y-69160000D01*
%TO.N,Net-(R10-Pad2)*%
X79495000Y-53355000D02*
X78640000Y-52500000D01*
X79495000Y-63300000D02*
X79495000Y-53355000D01*
%TO.N,-12V*%
D18*
X68200000Y-63830000D02*
X68200000Y-50500000D01*
X65640000Y-66390000D02*
X68200000Y-63830000D01*
X68200000Y-50500000D02*
X74100000Y-50500000D01*
X74100000Y-50500000D02*
X76100000Y-52500000D01*
%TO.N,+12V*%
X81200000Y-52520000D02*
X81180000Y-52500000D01*
X81200000Y-56205000D02*
X81200000Y-52520000D01*
%TO.N,Net-(R1-Pad2)*%
D17*
X59405000Y-73900000D02*
X60505000Y-72800000D01*
%TO.N,Net-(Q1-B)*%
X63300000Y-69445000D02*
X63300000Y-66895000D01*
X63045000Y-69700000D02*
X63300000Y-69445000D01*
X63300000Y-66895000D02*
X63495000Y-66700000D01*
%TO.N,Net-(U1B-+)*%
X69545000Y-72800000D02*
X69545000Y-69700000D01*
X69545000Y-69700000D02*
X71910000Y-67335000D01*
%TD*%
%TA.AperFunction,Conductor*%
%TO.N,GND*%
G36*
X73701257Y-51520185D02*
G01*
X73721899Y-51536819D01*
X74869521Y-52684441D01*
X74903006Y-52745764D01*
X74904313Y-52752721D01*
X74909554Y-52785806D01*
X74968916Y-52968506D01*
X74999483Y-53028496D01*
X75056135Y-53139681D01*
X75169055Y-53295102D01*
X75304898Y-53430945D01*
X75460319Y-53543865D01*
X75550864Y-53590000D01*
X75631493Y-53631083D01*
X75696495Y-53652203D01*
X75814199Y-53690447D01*
X76003945Y-53720500D01*
X76003946Y-53720500D01*
X76196054Y-53720500D01*
X76196055Y-53720500D01*
X76385801Y-53690447D01*
X76568509Y-53631082D01*
X76739681Y-53543865D01*
X76895102Y-53430945D01*
X77030945Y-53295102D01*
X77143865Y-53139681D01*
X77231082Y-52968509D01*
X77236236Y-52952648D01*
X77252069Y-52903919D01*
X77291506Y-52846243D01*
X77355864Y-52819044D01*
X77424711Y-52830958D01*
X77476187Y-52878202D01*
X77487931Y-52903919D01*
X77508915Y-52968504D01*
X77539483Y-53028496D01*
X77596135Y-53139681D01*
X77709055Y-53295102D01*
X77844898Y-53430945D01*
X78000319Y-53543865D01*
X78090864Y-53590000D01*
X78171493Y-53631083D01*
X78236495Y-53652203D01*
X78354199Y-53690447D01*
X78543945Y-53720500D01*
X78543946Y-53720500D01*
X78736049Y-53720500D01*
X78736055Y-53720500D01*
X78751102Y-53718116D01*
X78820392Y-53727069D01*
X78873845Y-53772064D01*
X78894487Y-53838814D01*
X78894500Y-53840589D01*
X78894500Y-54897491D01*
X78874815Y-54964530D01*
X78822011Y-55010285D01*
X78752853Y-55020229D01*
X78714207Y-55007977D01*
X78699031Y-55000245D01*
X78504417Y-54937009D01*
X78302317Y-54905000D01*
X78097683Y-54905000D01*
X77895582Y-54937009D01*
X77700968Y-55000244D01*
X77518644Y-55093143D01*
X77474077Y-55125523D01*
X77474077Y-55125524D01*
X78153553Y-55805000D01*
X78147339Y-55805000D01*
X78045606Y-55832259D01*
X77954394Y-55884920D01*
X77879920Y-55959394D01*
X77827259Y-56050606D01*
X77800000Y-56152339D01*
X77800000Y-56158553D01*
X77120524Y-55479077D01*
X77120523Y-55479077D01*
X77088143Y-55523644D01*
X76995244Y-55705968D01*
X76932009Y-55900582D01*
X76900000Y-56102682D01*
X76900000Y-56307317D01*
X76932009Y-56509417D01*
X76995244Y-56704031D01*
X77088141Y-56886350D01*
X77088147Y-56886359D01*
X77120523Y-56930921D01*
X77120524Y-56930922D01*
X77800000Y-56251446D01*
X77800000Y-56257661D01*
X77827259Y-56359394D01*
X77879920Y-56450606D01*
X77954394Y-56525080D01*
X78045606Y-56577741D01*
X78147339Y-56605000D01*
X78153552Y-56605000D01*
X77474076Y-57284474D01*
X77518652Y-57316861D01*
X77611628Y-57364234D01*
X77662425Y-57412208D01*
X77679220Y-57480029D01*
X77656683Y-57546164D01*
X77611630Y-57585203D01*
X77518388Y-57632713D01*
X77352786Y-57753028D01*
X77208028Y-57897786D01*
X77087715Y-58063386D01*
X76994781Y-58245776D01*
X76931522Y-58440465D01*
X76899500Y-58642648D01*
X76899500Y-58847351D01*
X76931522Y-59049534D01*
X76936173Y-59063848D01*
X76938165Y-59133690D01*
X76905921Y-59189842D01*
X76718551Y-59377213D01*
X76586286Y-59509478D01*
X76586284Y-59509480D01*
X76503551Y-59592213D01*
X76478232Y-59617532D01*
X76473395Y-59620173D01*
X76466453Y-59635185D01*
X76430393Y-59697645D01*
X76430392Y-59697647D01*
X76395423Y-59758214D01*
X76395423Y-59758215D01*
X76354499Y-59910943D01*
X76354499Y-59910945D01*
X76354499Y-60079046D01*
X76354500Y-60079059D01*
X76354500Y-62070397D01*
X76334815Y-62137436D01*
X76286800Y-62180879D01*
X76273389Y-62187712D01*
X76107786Y-62308028D01*
X76107782Y-62308032D01*
X76012181Y-62403634D01*
X75950858Y-62437119D01*
X75881166Y-62432135D01*
X75825233Y-62390263D01*
X75800816Y-62324799D01*
X75800500Y-62315953D01*
X75800500Y-59974601D01*
X75820185Y-59907562D01*
X75868206Y-59864116D01*
X75881610Y-59857287D01*
X76047219Y-59736966D01*
X76191966Y-59592219D01*
X76258746Y-59500302D01*
X76278539Y-59485039D01*
X76281719Y-59470423D01*
X76290234Y-59456964D01*
X76312284Y-59426614D01*
X76312285Y-59426613D01*
X76312287Y-59426610D01*
X76405220Y-59244219D01*
X76468477Y-59049534D01*
X76500500Y-58847352D01*
X76500500Y-58642648D01*
X76492941Y-58594923D01*
X76468477Y-58440465D01*
X76405218Y-58245776D01*
X76371503Y-58179607D01*
X76312287Y-58063390D01*
X76304500Y-58052672D01*
X76191971Y-57897786D01*
X76047213Y-57753028D01*
X75881614Y-57632715D01*
X75875006Y-57629348D01*
X75788917Y-57585483D01*
X75738123Y-57537511D01*
X75721328Y-57469690D01*
X75743865Y-57403555D01*
X75788917Y-57364516D01*
X75881610Y-57317287D01*
X75916791Y-57291727D01*
X76047213Y-57196971D01*
X76047215Y-57196968D01*
X76047219Y-57196966D01*
X76191966Y-57052219D01*
X76191968Y-57052215D01*
X76191971Y-57052213D01*
X76256796Y-56962987D01*
X76312287Y-56886610D01*
X76405220Y-56704219D01*
X76468477Y-56509534D01*
X76500500Y-56307352D01*
X76500500Y-56102648D01*
X76484537Y-56001865D01*
X76468477Y-55900465D01*
X76437458Y-55805000D01*
X76405220Y-55705781D01*
X76405218Y-55705778D01*
X76405218Y-55705776D01*
X76371503Y-55639607D01*
X76312287Y-55523390D01*
X76289952Y-55492648D01*
X76191971Y-55357786D01*
X76047213Y-55213028D01*
X75881613Y-55092715D01*
X75881612Y-55092714D01*
X75881610Y-55092713D01*
X75824653Y-55063691D01*
X75699223Y-54999781D01*
X75504534Y-54936522D01*
X75329995Y-54908878D01*
X75302352Y-54904500D01*
X75097648Y-54904500D01*
X75073329Y-54908351D01*
X74895465Y-54936522D01*
X74700776Y-54999781D01*
X74518386Y-55092715D01*
X74352786Y-55213028D01*
X74208028Y-55357786D01*
X74087715Y-55523386D01*
X73994781Y-55705776D01*
X73931522Y-55900465D01*
X73899500Y-56102648D01*
X73899500Y-56307351D01*
X73931522Y-56509534D01*
X73994781Y-56704223D01*
X74043694Y-56800218D01*
X74087585Y-56886359D01*
X74087715Y-56886613D01*
X74208028Y-57052213D01*
X74352786Y-57196971D01*
X74483209Y-57291727D01*
X74518390Y-57317287D01*
X74609840Y-57363883D01*
X74611080Y-57364515D01*
X74661876Y-57412490D01*
X74678671Y-57480311D01*
X74656134Y-57546446D01*
X74611080Y-57585485D01*
X74518386Y-57632715D01*
X74352786Y-57753028D01*
X74208028Y-57897786D01*
X74087715Y-58063386D01*
X73994781Y-58245776D01*
X73931522Y-58440465D01*
X73899500Y-58642648D01*
X73899500Y-58847351D01*
X73931522Y-59049534D01*
X73994781Y-59244223D01*
X74087715Y-59426613D01*
X74208028Y-59592213D01*
X74208034Y-59592219D01*
X74352781Y-59736966D01*
X74518390Y-59857287D01*
X74531793Y-59864116D01*
X74582589Y-59912088D01*
X74599500Y-59974601D01*
X74599500Y-62611372D01*
X74593229Y-62632728D01*
X74591599Y-62654926D01*
X74583576Y-62665600D01*
X74579815Y-62678411D01*
X74562995Y-62692984D01*
X74549622Y-62710780D01*
X74537100Y-62715423D01*
X74527011Y-62724166D01*
X74504983Y-62727333D01*
X74484112Y-62735073D01*
X74471069Y-62732209D01*
X74457853Y-62734110D01*
X74437605Y-62724863D01*
X74415867Y-62720091D01*
X74403009Y-62709063D01*
X74394297Y-62705085D01*
X74387653Y-62698887D01*
X74381128Y-62692337D01*
X74380520Y-62691284D01*
X74268716Y-62579480D01*
X74268713Y-62579478D01*
X73204077Y-61514842D01*
X73170592Y-61453519D01*
X73173828Y-61388841D01*
X73178477Y-61374534D01*
X73210500Y-61172352D01*
X73210500Y-60967648D01*
X73209694Y-60962562D01*
X73178477Y-60765465D01*
X73140054Y-60647213D01*
X73115220Y-60570781D01*
X73115218Y-60570778D01*
X73115218Y-60570776D01*
X73081503Y-60504607D01*
X73022287Y-60388390D01*
X72990092Y-60344077D01*
X72901971Y-60222786D01*
X72757213Y-60078028D01*
X72591614Y-59957715D01*
X72576900Y-59950218D01*
X72498917Y-59910483D01*
X72448123Y-59862511D01*
X72431328Y-59794690D01*
X72453865Y-59728555D01*
X72498917Y-59689516D01*
X72591610Y-59642287D01*
X72625683Y-59617532D01*
X72757213Y-59521971D01*
X72757215Y-59521968D01*
X72757219Y-59521966D01*
X72901966Y-59377219D01*
X72901968Y-59377215D01*
X72901971Y-59377213D01*
X72998595Y-59244219D01*
X73022287Y-59211610D01*
X73115220Y-59029219D01*
X73178477Y-58834534D01*
X73210500Y-58632352D01*
X73210500Y-58427648D01*
X73178477Y-58225466D01*
X73115220Y-58030781D01*
X73115218Y-58030778D01*
X73115218Y-58030776D01*
X73081503Y-57964607D01*
X73022287Y-57848390D01*
X73010466Y-57832119D01*
X72901971Y-57682786D01*
X72757213Y-57538028D01*
X72591614Y-57417715D01*
X72563823Y-57403555D01*
X72498917Y-57370483D01*
X72448123Y-57322511D01*
X72431328Y-57254690D01*
X72453865Y-57188555D01*
X72498917Y-57149516D01*
X72591610Y-57102287D01*
X72612770Y-57086913D01*
X72757213Y-56981971D01*
X72757215Y-56981968D01*
X72757219Y-56981966D01*
X72901966Y-56837219D01*
X72901968Y-56837215D01*
X72901971Y-56837213D01*
X72996366Y-56707287D01*
X73022287Y-56671610D01*
X73115220Y-56489219D01*
X73178477Y-56294534D01*
X73210500Y-56092352D01*
X73210500Y-55887648D01*
X73180360Y-55697352D01*
X73178477Y-55685465D01*
X73116672Y-55495250D01*
X73115220Y-55490781D01*
X73115218Y-55490778D01*
X73115218Y-55490776D01*
X73063865Y-55389991D01*
X73022287Y-55308390D01*
X73006892Y-55287200D01*
X72901971Y-55142786D01*
X72757213Y-54998028D01*
X72591613Y-54877715D01*
X72591612Y-54877714D01*
X72591610Y-54877713D01*
X72531898Y-54847288D01*
X72409223Y-54784781D01*
X72214534Y-54721522D01*
X72039995Y-54693878D01*
X72012352Y-54689500D01*
X71807648Y-54689500D01*
X71783329Y-54693351D01*
X71605465Y-54721522D01*
X71410776Y-54784781D01*
X71228386Y-54877715D01*
X71062786Y-54998028D01*
X71062784Y-54998031D01*
X70918032Y-55142782D01*
X70918028Y-55142786D01*
X70797715Y-55308386D01*
X70704781Y-55490776D01*
X70641522Y-55685465D01*
X70609500Y-55887648D01*
X70609500Y-56092351D01*
X70641522Y-56294534D01*
X70704781Y-56489223D01*
X70756135Y-56590009D01*
X70777701Y-56632335D01*
X70797715Y-56671613D01*
X70918028Y-56837213D01*
X71062786Y-56981971D01*
X71217749Y-57094556D01*
X71228390Y-57102287D01*
X71319840Y-57148883D01*
X71321080Y-57149515D01*
X71371876Y-57197490D01*
X71388671Y-57265311D01*
X71366134Y-57331446D01*
X71321080Y-57370485D01*
X71228386Y-57417715D01*
X71062786Y-57538028D01*
X70918028Y-57682786D01*
X70797715Y-57848386D01*
X70704781Y-58030776D01*
X70641522Y-58225465D01*
X70609500Y-58427648D01*
X70609500Y-58632351D01*
X70641522Y-58834534D01*
X70704781Y-59029223D01*
X70797715Y-59211613D01*
X70918028Y-59377213D01*
X71062786Y-59521971D01*
X71217749Y-59634556D01*
X71228390Y-59642287D01*
X71319840Y-59688883D01*
X71321080Y-59689515D01*
X71371876Y-59737490D01*
X71388671Y-59805311D01*
X71366134Y-59871446D01*
X71321080Y-59910485D01*
X71228386Y-59957715D01*
X71062786Y-60078028D01*
X70918028Y-60222786D01*
X70797715Y-60388386D01*
X70704781Y-60570776D01*
X70641522Y-60765465D01*
X70609500Y-60967648D01*
X70609500Y-61172351D01*
X70641522Y-61374534D01*
X70704781Y-61569223D01*
X70768224Y-61693735D01*
X70797585Y-61751359D01*
X70797715Y-61751613D01*
X70918028Y-61917213D01*
X71062786Y-62061971D01*
X71183226Y-62149474D01*
X71228390Y-62182287D01*
X71319840Y-62228883D01*
X71321080Y-62229515D01*
X71371876Y-62277490D01*
X71388671Y-62345311D01*
X71366134Y-62411446D01*
X71321080Y-62450485D01*
X71228386Y-62497715D01*
X71062786Y-62618028D01*
X70918028Y-62762786D01*
X70797715Y-62928386D01*
X70704781Y-63110776D01*
X70641522Y-63305465D01*
X70614492Y-63476130D01*
X70609500Y-63507648D01*
X70609500Y-63712352D01*
X70613878Y-63739995D01*
X70641522Y-63914534D01*
X70704781Y-64109223D01*
X70759701Y-64217008D01*
X70793859Y-64284047D01*
X70797715Y-64291613D01*
X70918028Y-64457213D01*
X70918034Y-64457219D01*
X71062781Y-64601966D01*
X71228390Y-64722287D01*
X71241793Y-64729116D01*
X71252856Y-64739564D01*
X71266703Y-64745888D01*
X71277744Y-64763068D01*
X71292589Y-64777088D01*
X71296830Y-64792768D01*
X71304477Y-64804666D01*
X71309500Y-64839601D01*
X71309500Y-65070276D01*
X71289815Y-65137315D01*
X71237011Y-65183070D01*
X71167853Y-65193014D01*
X71143770Y-65186408D01*
X71143660Y-65186749D01*
X70944417Y-65122009D01*
X70742317Y-65090000D01*
X70537683Y-65090000D01*
X70335582Y-65122009D01*
X70140968Y-65185244D01*
X69958644Y-65278143D01*
X69914077Y-65310523D01*
X69914077Y-65310524D01*
X70593553Y-65990000D01*
X70587339Y-65990000D01*
X70485606Y-66017259D01*
X70394394Y-66069920D01*
X70319920Y-66144394D01*
X70267259Y-66235606D01*
X70240000Y-66337339D01*
X70240000Y-66343553D01*
X69560524Y-65664077D01*
X69560523Y-65664077D01*
X69528143Y-65708644D01*
X69435244Y-65890968D01*
X69372009Y-66085582D01*
X69340000Y-66287682D01*
X69340000Y-66492317D01*
X69372009Y-66694417D01*
X69435244Y-66889031D01*
X69528141Y-67071350D01*
X69528147Y-67071359D01*
X69560523Y-67115921D01*
X69560524Y-67115922D01*
X70240000Y-66436446D01*
X70240000Y-66442661D01*
X70267259Y-66544394D01*
X70319920Y-66635606D01*
X70394394Y-66710080D01*
X70485606Y-66762741D01*
X70587339Y-66790000D01*
X70593552Y-66790000D01*
X69914076Y-67469474D01*
X69958650Y-67501859D01*
X70140968Y-67594755D01*
X70335582Y-67657990D01*
X70442416Y-67674911D01*
X70505551Y-67704840D01*
X70542482Y-67764152D01*
X70541484Y-67834014D01*
X70510699Y-67885065D01*
X69989842Y-68405921D01*
X69928519Y-68439406D01*
X69863848Y-68436173D01*
X69849534Y-68431522D01*
X69674995Y-68403878D01*
X69647352Y-68399500D01*
X69442648Y-68399500D01*
X69418329Y-68403351D01*
X69240465Y-68431522D01*
X69045776Y-68494781D01*
X68863386Y-68587715D01*
X68697786Y-68708028D01*
X68553028Y-68852786D01*
X68432715Y-69018386D01*
X68385485Y-69111080D01*
X68337510Y-69161876D01*
X68269689Y-69178671D01*
X68203554Y-69156134D01*
X68164515Y-69111080D01*
X68149157Y-69080939D01*
X68117287Y-69018390D01*
X68109556Y-69007749D01*
X67996971Y-68852786D01*
X67852213Y-68708028D01*
X67686613Y-68587715D01*
X67686612Y-68587714D01*
X67686610Y-68587713D01*
X67624839Y-68556239D01*
X67504223Y-68494781D01*
X67309534Y-68431522D01*
X67134995Y-68403878D01*
X67107352Y-68399500D01*
X66902648Y-68399500D01*
X66878329Y-68403351D01*
X66700465Y-68431522D01*
X66505776Y-68494781D01*
X66323386Y-68587715D01*
X66157786Y-68708028D01*
X66013028Y-68852786D01*
X65892715Y-69018386D01*
X65799781Y-69200776D01*
X65736522Y-69395465D01*
X65704500Y-69597648D01*
X65704500Y-69802351D01*
X65736522Y-70004534D01*
X65799781Y-70199223D01*
X65855038Y-70307669D01*
X65876686Y-70350156D01*
X65892715Y-70381613D01*
X66013028Y-70547213D01*
X66157786Y-70691971D01*
X66312749Y-70804556D01*
X66323390Y-70812287D01*
X66404499Y-70853614D01*
X66505776Y-70905218D01*
X66505778Y-70905218D01*
X66505781Y-70905220D01*
X66580818Y-70929601D01*
X66700465Y-70968477D01*
X66801557Y-70984488D01*
X66902648Y-71000500D01*
X66902649Y-71000500D01*
X67107351Y-71000500D01*
X67107352Y-71000500D01*
X67309534Y-70968477D01*
X67504219Y-70905220D01*
X67686610Y-70812287D01*
X67821549Y-70714249D01*
X67852213Y-70691971D01*
X67852215Y-70691968D01*
X67852219Y-70691966D01*
X67996966Y-70547219D01*
X67996968Y-70547215D01*
X67996971Y-70547213D01*
X68117284Y-70381614D01*
X68117285Y-70381613D01*
X68117287Y-70381610D01*
X68164516Y-70288917D01*
X68212489Y-70238123D01*
X68280310Y-70221328D01*
X68346445Y-70243865D01*
X68385483Y-70288917D01*
X68429348Y-70375006D01*
X68432715Y-70381614D01*
X68553028Y-70547213D01*
X68553034Y-70547219D01*
X68697781Y-70691966D01*
X68863390Y-70812287D01*
X68876793Y-70819116D01*
X68927589Y-70867088D01*
X68944500Y-70929601D01*
X68944500Y-71570397D01*
X68924815Y-71637436D01*
X68876800Y-71680879D01*
X68863389Y-71687712D01*
X68697786Y-71808028D01*
X68553028Y-71952786D01*
X68432713Y-72118388D01*
X68385203Y-72211630D01*
X68337228Y-72262426D01*
X68269407Y-72279220D01*
X68203272Y-72256682D01*
X68164234Y-72211628D01*
X68116861Y-72118652D01*
X68084474Y-72074077D01*
X68084474Y-72074076D01*
X67405000Y-72753551D01*
X67405000Y-72747339D01*
X67377741Y-72645606D01*
X67325080Y-72554394D01*
X67250606Y-72479920D01*
X67159394Y-72427259D01*
X67057661Y-72400000D01*
X67051446Y-72400000D01*
X67730922Y-71720524D01*
X67730921Y-71720523D01*
X67686359Y-71688147D01*
X67686350Y-71688141D01*
X67504031Y-71595244D01*
X67309417Y-71532009D01*
X67107317Y-71500000D01*
X66902683Y-71500000D01*
X66700582Y-71532009D01*
X66505968Y-71595244D01*
X66323644Y-71688143D01*
X66279077Y-71720523D01*
X66279077Y-71720524D01*
X66958554Y-72400000D01*
X66952339Y-72400000D01*
X66850606Y-72427259D01*
X66759394Y-72479920D01*
X66684920Y-72554394D01*
X66632259Y-72645606D01*
X66605000Y-72747339D01*
X66605000Y-72753553D01*
X65925524Y-72074077D01*
X65925523Y-72074077D01*
X65893143Y-72118644D01*
X65800244Y-72300968D01*
X65737009Y-72495582D01*
X65705000Y-72697682D01*
X65705000Y-72902317D01*
X65737009Y-73104417D01*
X65800244Y-73299031D01*
X65893141Y-73481350D01*
X65893147Y-73481359D01*
X65925523Y-73525921D01*
X65925524Y-73525922D01*
X66605000Y-72846446D01*
X66605000Y-72852661D01*
X66632259Y-72954394D01*
X66684920Y-73045606D01*
X66759394Y-73120080D01*
X66850606Y-73172741D01*
X66952339Y-73200000D01*
X66958553Y-73200000D01*
X66274067Y-73884483D01*
X66263635Y-73934147D01*
X66214584Y-73983905D01*
X66154381Y-73999500D01*
X63984047Y-73999500D01*
X63917008Y-73979815D01*
X63871253Y-73927011D01*
X63861309Y-73857853D01*
X63890334Y-73794297D01*
X63896366Y-73787819D01*
X64036966Y-73647219D01*
X64036968Y-73647215D01*
X64036971Y-73647213D01*
X64089732Y-73574590D01*
X64157287Y-73481610D01*
X64250220Y-73299219D01*
X64313477Y-73104534D01*
X64345500Y-72902352D01*
X64345500Y-72697648D01*
X64337257Y-72645606D01*
X64313477Y-72495465D01*
X64272556Y-72369523D01*
X64250220Y-72300781D01*
X64250218Y-72300778D01*
X64250218Y-72300776D01*
X64204515Y-72211080D01*
X64157287Y-72118390D01*
X64125092Y-72074077D01*
X64036971Y-71952786D01*
X63892213Y-71808028D01*
X63726613Y-71687715D01*
X63726612Y-71687714D01*
X63726610Y-71687713D01*
X63669653Y-71658691D01*
X63544223Y-71594781D01*
X63349534Y-71531522D01*
X63174995Y-71503878D01*
X63147352Y-71499500D01*
X62942648Y-71499500D01*
X62918329Y-71503351D01*
X62740465Y-71531522D01*
X62545776Y-71594781D01*
X62363386Y-71687715D01*
X62197786Y-71808028D01*
X62053028Y-71952786D01*
X61932715Y-72118386D01*
X61885485Y-72211080D01*
X61837510Y-72261876D01*
X61769689Y-72278671D01*
X61703554Y-72256134D01*
X61664515Y-72211080D01*
X61663883Y-72209840D01*
X61617287Y-72118390D01*
X61585092Y-72074077D01*
X61496971Y-71952786D01*
X61352213Y-71808028D01*
X61186613Y-71687715D01*
X61186612Y-71687714D01*
X61186610Y-71687713D01*
X61129653Y-71658691D01*
X61004223Y-71594781D01*
X60809534Y-71531522D01*
X60634995Y-71503878D01*
X60607352Y-71499500D01*
X60402648Y-71499500D01*
X60378329Y-71503351D01*
X60200465Y-71531522D01*
X60005776Y-71594781D01*
X59823386Y-71687715D01*
X59657786Y-71808028D01*
X59513028Y-71952786D01*
X59392715Y-72118386D01*
X59299781Y-72300776D01*
X59236522Y-72495465D01*
X59204500Y-72697648D01*
X59204500Y-72902351D01*
X59236523Y-73104535D01*
X59241172Y-73118845D01*
X59241605Y-73134051D01*
X59246924Y-73148307D01*
X59242582Y-73168269D01*
X59243165Y-73188687D01*
X59235078Y-73202770D01*
X59232075Y-73216581D01*
X59210926Y-73244836D01*
X59192588Y-73263176D01*
X59131267Y-73296665D01*
X59104902Y-73299500D01*
X57200097Y-73299500D01*
X57133058Y-73279815D01*
X57112416Y-73263181D01*
X55736819Y-71887584D01*
X55703334Y-71826261D01*
X55700500Y-71799903D01*
X55700500Y-62405096D01*
X55720185Y-62338057D01*
X55736814Y-62317420D01*
X56960158Y-61094075D01*
X57021479Y-61060592D01*
X57086151Y-61063825D01*
X57100466Y-61068477D01*
X57100471Y-61068477D01*
X57100472Y-61068478D01*
X57110088Y-61070001D01*
X57302648Y-61100500D01*
X57302649Y-61100500D01*
X57507351Y-61100500D01*
X57507352Y-61100500D01*
X57709534Y-61068477D01*
X57904219Y-61005220D01*
X57904224Y-61005217D01*
X57904228Y-61005216D01*
X58064205Y-60923703D01*
X58132874Y-60910806D01*
X58197614Y-60937082D01*
X58237872Y-60994188D01*
X58244500Y-61034187D01*
X58244500Y-61821851D01*
X58224815Y-61888890D01*
X58172011Y-61934645D01*
X58102853Y-61944589D01*
X58064206Y-61932336D01*
X58018220Y-61908905D01*
X57816129Y-61843242D01*
X57606246Y-61810000D01*
X57393754Y-61810000D01*
X57183872Y-61843242D01*
X57183869Y-61843242D01*
X56981782Y-61908904D01*
X56792439Y-62005380D01*
X56738282Y-62044727D01*
X56738282Y-62044728D01*
X57370591Y-62677037D01*
X57307007Y-62694075D01*
X57192993Y-62759901D01*
X57099901Y-62852993D01*
X57034075Y-62967007D01*
X57017037Y-63030591D01*
X56384728Y-62398282D01*
X56384727Y-62398282D01*
X56345380Y-62452439D01*
X56248904Y-62641782D01*
X56183242Y-62843869D01*
X56183242Y-62843872D01*
X56150000Y-63053753D01*
X56150000Y-63266246D01*
X56183242Y-63476127D01*
X56183242Y-63476130D01*
X56248904Y-63678217D01*
X56345375Y-63867550D01*
X56384728Y-63921716D01*
X57017037Y-63289408D01*
X57034075Y-63352993D01*
X57099901Y-63467007D01*
X57192993Y-63560099D01*
X57307007Y-63625925D01*
X57370589Y-63642962D01*
X56738282Y-64275269D01*
X56738282Y-64275270D01*
X56792452Y-64314626D01*
X56792451Y-64314626D01*
X56801495Y-64319234D01*
X56852292Y-64367208D01*
X56869087Y-64435029D01*
X56846550Y-64501164D01*
X56801499Y-64540202D01*
X56792182Y-64544949D01*
X56620213Y-64669890D01*
X56469890Y-64820213D01*
X56344951Y-64992179D01*
X56248444Y-65181585D01*
X56182753Y-65383760D01*
X56149500Y-65593713D01*
X56149500Y-65806286D01*
X56181914Y-66010943D01*
X56182754Y-66016243D01*
X56242714Y-66200781D01*
X56248444Y-66218414D01*
X56344951Y-66407820D01*
X56469890Y-66579786D01*
X56620213Y-66730109D01*
X56792182Y-66855050D01*
X56800946Y-66859516D01*
X56851742Y-66907491D01*
X56868536Y-66975312D01*
X56845998Y-67041447D01*
X56800946Y-67080484D01*
X56792182Y-67084949D01*
X56620213Y-67209890D01*
X56469890Y-67360213D01*
X56344951Y-67532179D01*
X56248444Y-67721585D01*
X56248443Y-67721587D01*
X56248443Y-67721588D01*
X56217922Y-67815521D01*
X56182753Y-67923760D01*
X56165922Y-68030029D01*
X56149500Y-68133713D01*
X56149500Y-68346287D01*
X56151253Y-68357352D01*
X56167455Y-68459653D01*
X56182754Y-68556243D01*
X56238542Y-68727941D01*
X56248444Y-68758414D01*
X56344951Y-68947820D01*
X56469890Y-69119786D01*
X56583430Y-69233326D01*
X56616915Y-69294649D01*
X56611931Y-69364341D01*
X56570059Y-69420274D01*
X56539083Y-69437189D01*
X56407669Y-69486203D01*
X56407664Y-69486206D01*
X56292455Y-69572452D01*
X56292452Y-69572455D01*
X56206206Y-69687664D01*
X56206202Y-69687671D01*
X56155908Y-69822517D01*
X56149501Y-69882116D01*
X56149501Y-69882123D01*
X56149500Y-69882135D01*
X56149500Y-71677870D01*
X56149501Y-71677876D01*
X56155908Y-71737483D01*
X56206202Y-71872328D01*
X56206206Y-71872335D01*
X56292452Y-71987544D01*
X56292455Y-71987547D01*
X56407664Y-72073793D01*
X56407671Y-72073797D01*
X56542517Y-72124091D01*
X56542516Y-72124091D01*
X56549444Y-72124835D01*
X56602127Y-72130500D01*
X58397872Y-72130499D01*
X58457483Y-72124091D01*
X58592331Y-72073796D01*
X58707546Y-71987546D01*
X58793796Y-71872331D01*
X58844091Y-71737483D01*
X58850500Y-71677873D01*
X58850499Y-69882128D01*
X58844091Y-69822517D01*
X58836824Y-69803034D01*
X58793797Y-69687671D01*
X58793793Y-69687664D01*
X58707547Y-69572455D01*
X58707544Y-69572452D01*
X58592335Y-69486206D01*
X58592328Y-69486202D01*
X58460917Y-69437189D01*
X58404983Y-69395318D01*
X58380566Y-69329853D01*
X58395418Y-69261580D01*
X58416563Y-69233332D01*
X58530104Y-69119792D01*
X58542872Y-69102219D01*
X58655048Y-68947820D01*
X58655047Y-68947820D01*
X58655051Y-68947816D01*
X58751557Y-68758412D01*
X58817246Y-68556243D01*
X58850500Y-68346287D01*
X58850500Y-68133713D01*
X58817246Y-67923757D01*
X58803506Y-67881473D01*
X58803072Y-67866262D01*
X58797754Y-67852003D01*
X58802095Y-67832047D01*
X58801512Y-67811635D01*
X58809599Y-67797548D01*
X58812606Y-67783730D01*
X58833754Y-67755479D01*
X59518868Y-67070365D01*
X59580189Y-67036882D01*
X59649881Y-67041866D01*
X59705814Y-67083738D01*
X59724478Y-67119730D01*
X59750244Y-67199029D01*
X59843141Y-67381350D01*
X59843147Y-67381359D01*
X59875523Y-67425921D01*
X59875524Y-67425922D01*
X60555000Y-66746446D01*
X60555000Y-66752661D01*
X60582259Y-66854394D01*
X60634920Y-66945606D01*
X60709394Y-67020080D01*
X60800606Y-67072741D01*
X60902339Y-67100000D01*
X60908553Y-67100000D01*
X60229076Y-67779474D01*
X60273650Y-67811859D01*
X60455968Y-67904755D01*
X60650582Y-67967990D01*
X60852683Y-68000000D01*
X61057317Y-68000000D01*
X61259417Y-67967990D01*
X61454031Y-67904755D01*
X61636349Y-67811859D01*
X61680921Y-67779474D01*
X61001447Y-67100000D01*
X61007661Y-67100000D01*
X61109394Y-67072741D01*
X61200606Y-67020080D01*
X61275080Y-66945606D01*
X61327741Y-66854394D01*
X61355000Y-66752661D01*
X61355000Y-66746448D01*
X62034474Y-67425922D01*
X62034474Y-67425921D01*
X62066861Y-67381347D01*
X62066861Y-67381346D01*
X62114234Y-67288371D01*
X62162208Y-67237575D01*
X62230028Y-67220779D01*
X62296164Y-67243316D01*
X62335203Y-67288369D01*
X62382713Y-67381611D01*
X62503027Y-67547211D01*
X62503031Y-67547215D01*
X62503034Y-67547219D01*
X62647781Y-67691966D01*
X62648383Y-67692403D01*
X62648557Y-67692629D01*
X62651481Y-67695126D01*
X62650956Y-67695740D01*
X62691050Y-67747733D01*
X62699500Y-67792723D01*
X62699500Y-68354742D01*
X62679815Y-68421781D01*
X62627011Y-68467536D01*
X62613821Y-68472671D01*
X62598433Y-68477671D01*
X62545776Y-68494781D01*
X62363386Y-68587715D01*
X62197786Y-68708028D01*
X62053028Y-68852786D01*
X61932715Y-69018386D01*
X61885485Y-69111080D01*
X61837510Y-69161876D01*
X61769689Y-69178671D01*
X61703554Y-69156134D01*
X61664515Y-69111080D01*
X61649157Y-69080939D01*
X61617287Y-69018390D01*
X61609556Y-69007749D01*
X61496971Y-68852786D01*
X61352213Y-68708028D01*
X61186613Y-68587715D01*
X61186612Y-68587714D01*
X61186610Y-68587713D01*
X61124839Y-68556239D01*
X61004223Y-68494781D01*
X60809534Y-68431522D01*
X60634995Y-68403878D01*
X60607352Y-68399500D01*
X60402648Y-68399500D01*
X60378329Y-68403351D01*
X60200465Y-68431522D01*
X60005776Y-68494781D01*
X59823386Y-68587715D01*
X59657786Y-68708028D01*
X59513028Y-68852786D01*
X59392715Y-69018386D01*
X59299781Y-69200776D01*
X59236522Y-69395465D01*
X59204500Y-69597648D01*
X59204500Y-69802351D01*
X59236522Y-70004534D01*
X59299781Y-70199223D01*
X59355038Y-70307669D01*
X59376686Y-70350156D01*
X59392715Y-70381613D01*
X59513028Y-70547213D01*
X59657786Y-70691971D01*
X59812749Y-70804556D01*
X59823390Y-70812287D01*
X59904499Y-70853614D01*
X60005776Y-70905218D01*
X60005778Y-70905218D01*
X60005781Y-70905220D01*
X60080818Y-70929601D01*
X60200465Y-70968477D01*
X60301557Y-70984488D01*
X60402648Y-71000500D01*
X60402649Y-71000500D01*
X60607351Y-71000500D01*
X60607352Y-71000500D01*
X60809534Y-70968477D01*
X61004219Y-70905220D01*
X61186610Y-70812287D01*
X61321549Y-70714249D01*
X61352213Y-70691971D01*
X61352215Y-70691968D01*
X61352219Y-70691966D01*
X61496966Y-70547219D01*
X61496968Y-70547215D01*
X61496971Y-70547213D01*
X61617284Y-70381614D01*
X61617285Y-70381613D01*
X61617287Y-70381610D01*
X61664516Y-70288917D01*
X61712489Y-70238123D01*
X61780310Y-70221328D01*
X61846445Y-70243865D01*
X61885483Y-70288917D01*
X61929348Y-70375006D01*
X61932715Y-70381614D01*
X62053028Y-70547213D01*
X62197786Y-70691971D01*
X62352749Y-70804556D01*
X62363390Y-70812287D01*
X62444499Y-70853614D01*
X62545776Y-70905218D01*
X62545778Y-70905218D01*
X62545781Y-70905220D01*
X62620818Y-70929601D01*
X62740465Y-70968477D01*
X62841557Y-70984488D01*
X62942648Y-71000500D01*
X62942649Y-71000500D01*
X63147351Y-71000500D01*
X63147352Y-71000500D01*
X63349534Y-70968477D01*
X63544219Y-70905220D01*
X63726610Y-70812287D01*
X63861549Y-70714249D01*
X63892213Y-70691971D01*
X63892215Y-70691968D01*
X63892219Y-70691966D01*
X64036966Y-70547219D01*
X64036968Y-70547215D01*
X64036971Y-70547213D01*
X64113036Y-70442517D01*
X64157287Y-70381610D01*
X64250220Y-70199219D01*
X64313477Y-70004534D01*
X64345500Y-69802352D01*
X64345500Y-69597648D01*
X64323733Y-69460220D01*
X64313477Y-69395465D01*
X64269975Y-69261580D01*
X64250220Y-69200781D01*
X64250218Y-69200778D01*
X64250218Y-69200776D01*
X64189157Y-69080939D01*
X64157287Y-69018390D01*
X64149556Y-69007749D01*
X64036971Y-68852786D01*
X63936819Y-68752634D01*
X63903334Y-68691311D01*
X63900500Y-68664953D01*
X63900500Y-68025762D01*
X63920185Y-67958723D01*
X63972989Y-67912968D01*
X63986184Y-67907830D01*
X63994219Y-67905220D01*
X64176610Y-67812287D01*
X64290501Y-67729541D01*
X64342213Y-67691971D01*
X64342215Y-67691968D01*
X64342219Y-67691966D01*
X64486966Y-67547219D01*
X64599858Y-67391834D01*
X64655184Y-67349170D01*
X64724798Y-67343190D01*
X64786593Y-67375795D01*
X64787855Y-67377040D01*
X64792786Y-67381971D01*
X64888601Y-67451583D01*
X64958390Y-67502287D01*
X65046566Y-67547215D01*
X65140776Y-67595218D01*
X65140778Y-67595218D01*
X65140781Y-67595220D01*
X65245137Y-67629127D01*
X65335465Y-67658477D01*
X65436557Y-67674488D01*
X65537648Y-67690500D01*
X65537649Y-67690500D01*
X65742351Y-67690500D01*
X65742352Y-67690500D01*
X65944534Y-67658477D01*
X66139219Y-67595220D01*
X66321610Y-67502287D01*
X66426720Y-67425921D01*
X66487213Y-67381971D01*
X66487215Y-67381968D01*
X66487219Y-67381966D01*
X66631966Y-67237219D01*
X66631968Y-67237215D01*
X66631971Y-67237213D01*
X66719842Y-67116267D01*
X66752287Y-67071610D01*
X66845220Y-66889219D01*
X66908477Y-66694534D01*
X66931925Y-66546483D01*
X66961854Y-66483350D01*
X66966699Y-66478219D01*
X68977140Y-64467781D01*
X69006355Y-64424057D01*
X69076396Y-64319234D01*
X69086629Y-64303919D01*
X69086629Y-64303917D01*
X69086632Y-64303914D01*
X69136287Y-64184035D01*
X69162052Y-64121835D01*
X69200500Y-63928540D01*
X69200500Y-63731460D01*
X69200500Y-53745916D01*
X69220185Y-53678877D01*
X69272989Y-53633122D01*
X69342147Y-53623178D01*
X69405703Y-53652203D01*
X69434984Y-53689620D01*
X69463669Y-53745916D01*
X69527715Y-53871614D01*
X69648028Y-54037213D01*
X69792786Y-54181971D01*
X69900489Y-54260220D01*
X69958390Y-54302287D01*
X70064112Y-54356155D01*
X70140776Y-54395218D01*
X70140778Y-54395218D01*
X70140781Y-54395220D01*
X70174279Y-54406104D01*
X70335465Y-54458477D01*
X70436557Y-54474488D01*
X70537648Y-54490500D01*
X70537649Y-54490500D01*
X70742351Y-54490500D01*
X70742352Y-54490500D01*
X70944534Y-54458477D01*
X71139219Y-54395220D01*
X71321610Y-54302287D01*
X71425539Y-54226779D01*
X71487213Y-54181971D01*
X71487215Y-54181968D01*
X71487219Y-54181966D01*
X71631966Y-54037219D01*
X71631968Y-54037215D01*
X71631971Y-54037213D01*
X71684732Y-53964590D01*
X71752287Y-53871610D01*
X71845220Y-53689219D01*
X71908477Y-53494534D01*
X71940500Y-53292352D01*
X71940500Y-53087648D01*
X71921630Y-52968509D01*
X71908477Y-52885465D01*
X71867051Y-52757969D01*
X71845220Y-52690781D01*
X71845218Y-52690778D01*
X71845218Y-52690776D01*
X71811503Y-52624607D01*
X71752287Y-52508390D01*
X71744556Y-52497749D01*
X71631971Y-52342786D01*
X71487213Y-52198028D01*
X71321613Y-52077715D01*
X71321612Y-52077714D01*
X71321610Y-52077713D01*
X71264653Y-52048691D01*
X71139223Y-51984781D01*
X70944534Y-51921522D01*
X70769995Y-51893878D01*
X70742352Y-51889500D01*
X70537648Y-51889500D01*
X70513329Y-51893351D01*
X70335465Y-51921522D01*
X70140776Y-51984781D01*
X69958386Y-52077715D01*
X69792786Y-52198028D01*
X69648028Y-52342786D01*
X69527715Y-52508386D01*
X69434985Y-52690378D01*
X69387010Y-52741174D01*
X69319189Y-52757969D01*
X69253054Y-52735431D01*
X69209603Y-52680716D01*
X69200500Y-52634083D01*
X69200500Y-51624500D01*
X69220185Y-51557461D01*
X69272989Y-51511706D01*
X69324500Y-51500500D01*
X73634218Y-51500500D01*
X73701257Y-51520185D01*
G37*
%TD.AperFunction*%
%TA.AperFunction,Conductor*%
G36*
X68084474Y-73525921D02*
G01*
X68116861Y-73481347D01*
X68116861Y-73481346D01*
X68164234Y-73388371D01*
X68212208Y-73337575D01*
X68280028Y-73320779D01*
X68346164Y-73343316D01*
X68385203Y-73388369D01*
X68432713Y-73481611D01*
X68553028Y-73647213D01*
X68693634Y-73787819D01*
X68727119Y-73849142D01*
X68722135Y-73918834D01*
X68680263Y-73974767D01*
X68614799Y-73999184D01*
X68605953Y-73999500D01*
X67855618Y-73999500D01*
X67788579Y-73979815D01*
X67742824Y-73927011D01*
X67735173Y-73883725D01*
X67051447Y-73200000D01*
X67057661Y-73200000D01*
X67159394Y-73172741D01*
X67250606Y-73120080D01*
X67325080Y-73045606D01*
X67377741Y-72954394D01*
X67405000Y-72852661D01*
X67405000Y-72846447D01*
X68084474Y-73525921D01*
G37*
%TD.AperFunction*%
%TA.AperFunction,Conductor*%
G36*
X67142539Y-51520185D02*
G01*
X67188294Y-51572989D01*
X67199500Y-51624500D01*
X67199500Y-63364217D01*
X67179815Y-63431256D01*
X67163181Y-63451898D01*
X65702681Y-64912398D01*
X65641358Y-64945883D01*
X65571666Y-64940899D01*
X65527319Y-64912398D01*
X65336819Y-64721898D01*
X65322115Y-64694970D01*
X65305523Y-64669152D01*
X65304631Y-64662951D01*
X65303334Y-64660575D01*
X65300500Y-64634217D01*
X65300500Y-64471997D01*
X65320185Y-64404958D01*
X65324164Y-64399135D01*
X65402287Y-64291610D01*
X65495220Y-64109219D01*
X65558477Y-63914534D01*
X65590500Y-63712352D01*
X65590500Y-63507648D01*
X65585508Y-63476130D01*
X65558477Y-63305465D01*
X65495218Y-63110776D01*
X65421963Y-62967007D01*
X65402287Y-62928390D01*
X65378422Y-62895542D01*
X65281971Y-62762786D01*
X65137213Y-62618028D01*
X64971611Y-62497713D01*
X64878369Y-62450203D01*
X64827574Y-62402229D01*
X64810779Y-62334407D01*
X64833317Y-62268273D01*
X64878371Y-62229234D01*
X64971346Y-62181861D01*
X64971347Y-62181861D01*
X65015921Y-62149474D01*
X64336447Y-61470000D01*
X64342661Y-61470000D01*
X64444394Y-61442741D01*
X64535606Y-61390080D01*
X64610080Y-61315606D01*
X64662741Y-61224394D01*
X64690000Y-61122661D01*
X64690000Y-61116447D01*
X65369474Y-61795921D01*
X65401859Y-61751349D01*
X65494755Y-61569031D01*
X65557990Y-61374417D01*
X65590000Y-61172317D01*
X65590000Y-60967682D01*
X65557990Y-60765582D01*
X65494755Y-60570968D01*
X65401859Y-60388650D01*
X65369474Y-60344077D01*
X65369474Y-60344076D01*
X64690000Y-61023551D01*
X64690000Y-61017339D01*
X64662741Y-60915606D01*
X64610080Y-60824394D01*
X64535606Y-60749920D01*
X64444394Y-60697259D01*
X64342661Y-60670000D01*
X64336446Y-60670000D01*
X65015922Y-59990524D01*
X65015921Y-59990523D01*
X64971359Y-59958147D01*
X64971350Y-59958141D01*
X64878369Y-59910765D01*
X64827573Y-59862790D01*
X64810778Y-59794969D01*
X64833315Y-59728835D01*
X64878370Y-59689795D01*
X64878920Y-59689515D01*
X64971610Y-59642287D01*
X65040532Y-59592213D01*
X65137213Y-59521971D01*
X65137215Y-59521968D01*
X65137219Y-59521966D01*
X65281966Y-59377219D01*
X65281968Y-59377215D01*
X65281971Y-59377213D01*
X65378595Y-59244219D01*
X65402287Y-59211610D01*
X65495220Y-59029219D01*
X65558477Y-58834534D01*
X65590500Y-58632352D01*
X65590500Y-58427648D01*
X65558477Y-58225466D01*
X65495220Y-58030781D01*
X65495218Y-58030778D01*
X65495218Y-58030776D01*
X65461503Y-57964607D01*
X65402287Y-57848390D01*
X65390466Y-57832119D01*
X65281971Y-57682786D01*
X65137219Y-57538034D01*
X65057381Y-57480029D01*
X65043547Y-57469978D01*
X65000882Y-57414649D01*
X64994903Y-57345036D01*
X65027508Y-57283240D01*
X65077426Y-57251955D01*
X65159334Y-57224814D01*
X65308656Y-57132712D01*
X65432712Y-57008656D01*
X65524814Y-56859334D01*
X65579999Y-56692797D01*
X65590500Y-56590009D01*
X65590499Y-55389992D01*
X65588408Y-55369527D01*
X65579999Y-55287203D01*
X65579998Y-55287200D01*
X65524814Y-55120666D01*
X65432712Y-54971344D01*
X65308656Y-54847288D01*
X65159334Y-54755186D01*
X64992797Y-54700001D01*
X64992795Y-54700000D01*
X64890010Y-54689500D01*
X63689998Y-54689500D01*
X63689981Y-54689501D01*
X63587203Y-54700000D01*
X63587200Y-54700001D01*
X63420668Y-54755185D01*
X63420663Y-54755187D01*
X63271342Y-54847289D01*
X63147289Y-54971342D01*
X63055187Y-55120663D01*
X63055185Y-55120668D01*
X63053576Y-55125524D01*
X63000001Y-55287203D01*
X63000001Y-55287204D01*
X63000000Y-55287204D01*
X62989500Y-55389983D01*
X62989500Y-56590001D01*
X62989501Y-56590018D01*
X63000000Y-56692796D01*
X63000001Y-56692799D01*
X63055185Y-56859331D01*
X63055187Y-56859336D01*
X63071855Y-56886359D01*
X63147288Y-57008656D01*
X63271344Y-57132712D01*
X63420666Y-57224814D01*
X63502570Y-57251954D01*
X63560015Y-57291727D01*
X63586838Y-57356243D01*
X63574523Y-57425018D01*
X63536451Y-57469978D01*
X63442787Y-57538028D01*
X63442782Y-57538032D01*
X63298028Y-57682786D01*
X63177715Y-57848386D01*
X63084781Y-58030776D01*
X63021522Y-58225465D01*
X62989500Y-58427648D01*
X62989500Y-58632351D01*
X63021522Y-58834534D01*
X63084781Y-59029223D01*
X63177715Y-59211613D01*
X63298028Y-59377213D01*
X63442786Y-59521971D01*
X63608385Y-59642284D01*
X63608387Y-59642285D01*
X63608390Y-59642287D01*
X63701080Y-59689515D01*
X63701630Y-59689795D01*
X63752426Y-59737770D01*
X63769221Y-59805591D01*
X63746684Y-59871725D01*
X63701630Y-59910765D01*
X63608644Y-59958143D01*
X63564077Y-59990523D01*
X63564077Y-59990524D01*
X64243554Y-60670000D01*
X64237339Y-60670000D01*
X64135606Y-60697259D01*
X64044394Y-60749920D01*
X63969920Y-60824394D01*
X63917259Y-60915606D01*
X63890000Y-61017339D01*
X63890000Y-61023553D01*
X63210524Y-60344077D01*
X63210523Y-60344077D01*
X63178143Y-60388644D01*
X63085244Y-60570968D01*
X63022009Y-60765582D01*
X62990000Y-60967682D01*
X62990000Y-61172317D01*
X63022009Y-61374417D01*
X63085244Y-61569031D01*
X63178141Y-61751350D01*
X63178147Y-61751359D01*
X63210523Y-61795921D01*
X63210524Y-61795922D01*
X63890000Y-61116446D01*
X63890000Y-61122661D01*
X63917259Y-61224394D01*
X63969920Y-61315606D01*
X64044394Y-61390080D01*
X64135606Y-61442741D01*
X64237339Y-61470000D01*
X64243553Y-61470000D01*
X63564076Y-62149474D01*
X63608652Y-62181861D01*
X63701628Y-62229234D01*
X63752425Y-62277208D01*
X63769220Y-62345029D01*
X63746683Y-62411164D01*
X63701630Y-62450203D01*
X63608388Y-62497713D01*
X63442786Y-62618028D01*
X63298028Y-62762786D01*
X63177715Y-62928386D01*
X63084781Y-63110776D01*
X63021522Y-63305465D01*
X62994492Y-63476130D01*
X62989500Y-63507648D01*
X62989500Y-63712352D01*
X62993878Y-63739995D01*
X63021522Y-63914534D01*
X63084781Y-64109223D01*
X63139701Y-64217008D01*
X63173859Y-64284047D01*
X63177715Y-64291613D01*
X63275818Y-64426642D01*
X63299298Y-64492448D01*
X63299500Y-64499527D01*
X63299500Y-65198539D01*
X63315937Y-65281177D01*
X63309708Y-65350768D01*
X63266845Y-65405945D01*
X63213718Y-65427840D01*
X63190468Y-65431522D01*
X62995778Y-65494781D01*
X62813386Y-65587715D01*
X62647786Y-65708028D01*
X62503028Y-65852786D01*
X62382713Y-66018388D01*
X62335203Y-66111630D01*
X62287228Y-66162426D01*
X62219407Y-66179220D01*
X62153272Y-66156682D01*
X62114234Y-66111628D01*
X62066861Y-66018652D01*
X62034474Y-65974077D01*
X62034474Y-65974076D01*
X61355000Y-66653551D01*
X61355000Y-66647339D01*
X61327741Y-66545606D01*
X61275080Y-66454394D01*
X61200606Y-66379920D01*
X61109394Y-66327259D01*
X61007661Y-66300000D01*
X61001446Y-66300000D01*
X61680922Y-65620524D01*
X61680921Y-65620523D01*
X61636359Y-65588147D01*
X61636350Y-65588141D01*
X61454031Y-65495244D01*
X61259417Y-65432009D01*
X61057317Y-65400000D01*
X60852683Y-65400000D01*
X60688898Y-65425941D01*
X60619604Y-65416986D01*
X60566153Y-65371990D01*
X60545513Y-65305239D01*
X60545500Y-65303468D01*
X60545500Y-61029601D01*
X60547619Y-61022383D01*
X60546367Y-61014967D01*
X60557327Y-60989322D01*
X60565185Y-60962562D01*
X60571554Y-60956034D01*
X60573826Y-60950719D01*
X60587264Y-60939934D01*
X60599925Y-60926960D01*
X60606319Y-60922625D01*
X60626610Y-60912287D01*
X60792219Y-60791966D01*
X60936966Y-60647219D01*
X60936968Y-60647215D01*
X60936971Y-60647213D01*
X60992505Y-60570776D01*
X61057287Y-60481610D01*
X61150220Y-60299219D01*
X61213477Y-60104534D01*
X61245500Y-59902352D01*
X61245500Y-59697648D01*
X61240528Y-59666253D01*
X61213477Y-59495465D01*
X61150218Y-59300776D01*
X61116503Y-59234607D01*
X61057287Y-59118390D01*
X61049556Y-59107749D01*
X60936971Y-58952786D01*
X60792213Y-58808028D01*
X60626613Y-58687715D01*
X60626612Y-58687714D01*
X60626610Y-58687713D01*
X60569653Y-58658691D01*
X60444223Y-58594781D01*
X60249534Y-58531522D01*
X60074995Y-58503878D01*
X60047352Y-58499500D01*
X59842648Y-58499500D01*
X59788704Y-58508044D01*
X59640464Y-58531523D01*
X59640457Y-58531524D01*
X59607817Y-58542130D01*
X59537976Y-58544125D01*
X59478143Y-58508044D01*
X59447316Y-58445343D01*
X59445500Y-58424199D01*
X59445500Y-55510096D01*
X59454144Y-55480655D01*
X59460668Y-55450669D01*
X59464422Y-55445653D01*
X59465185Y-55443057D01*
X59481815Y-55422419D01*
X59487820Y-55416413D01*
X59549142Y-55382930D01*
X59618834Y-55387914D01*
X59674767Y-55429786D01*
X59699184Y-55495250D01*
X59699500Y-55504096D01*
X59699500Y-55697351D01*
X59731522Y-55899534D01*
X59794781Y-56094223D01*
X59887715Y-56276613D01*
X60008028Y-56442213D01*
X60152786Y-56586971D01*
X60298443Y-56692795D01*
X60318390Y-56707287D01*
X60397399Y-56747544D01*
X60500776Y-56800218D01*
X60500778Y-56800218D01*
X60500781Y-56800220D01*
X60604108Y-56833793D01*
X60695465Y-56863477D01*
X60796557Y-56879488D01*
X60897648Y-56895500D01*
X60897649Y-56895500D01*
X61102351Y-56895500D01*
X61102352Y-56895500D01*
X61304534Y-56863477D01*
X61499219Y-56800220D01*
X61681610Y-56707287D01*
X61774590Y-56639732D01*
X61847213Y-56586971D01*
X61847215Y-56586968D01*
X61847219Y-56586966D01*
X61991966Y-56442219D01*
X61991968Y-56442215D01*
X61991971Y-56442213D01*
X62055030Y-56355418D01*
X62112287Y-56276610D01*
X62205220Y-56094219D01*
X62268477Y-55899534D01*
X62300500Y-55697352D01*
X62300500Y-55492648D01*
X62300204Y-55490781D01*
X62286813Y-55406232D01*
X62268477Y-55290465D01*
X62220493Y-55142786D01*
X62205220Y-55095781D01*
X62205218Y-55095778D01*
X62205218Y-55095776D01*
X62166724Y-55020229D01*
X62112287Y-54913390D01*
X62086368Y-54877715D01*
X61991971Y-54747786D01*
X61847213Y-54603028D01*
X61681614Y-54482715D01*
X61612832Y-54447669D01*
X61588917Y-54435483D01*
X61582831Y-54429736D01*
X61574878Y-54427122D01*
X61557810Y-54406104D01*
X61538123Y-54387511D01*
X61536110Y-54379382D01*
X61530833Y-54372884D01*
X61527837Y-54345975D01*
X61521328Y-54319690D01*
X61524028Y-54311765D01*
X61523102Y-54303443D01*
X61535131Y-54279182D01*
X61543865Y-54253555D01*
X61551226Y-54246723D01*
X61554141Y-54240847D01*
X61572721Y-54226779D01*
X61581539Y-54218597D01*
X61585151Y-54216435D01*
X61681610Y-54167287D01*
X61847219Y-54046966D01*
X61991966Y-53902219D01*
X61991968Y-53902215D01*
X61991971Y-53902213D01*
X62086528Y-53772064D01*
X62112287Y-53736610D01*
X62205220Y-53554219D01*
X62268477Y-53359534D01*
X62300500Y-53157352D01*
X62300500Y-53087682D01*
X64340000Y-53087682D01*
X64340000Y-53292317D01*
X64372009Y-53494417D01*
X64435244Y-53689031D01*
X64528141Y-53871350D01*
X64528147Y-53871359D01*
X64560523Y-53915921D01*
X64560524Y-53915922D01*
X65240000Y-53236446D01*
X65240000Y-53242661D01*
X65267259Y-53344394D01*
X65319920Y-53435606D01*
X65394394Y-53510080D01*
X65485606Y-53562741D01*
X65587339Y-53590000D01*
X65593553Y-53590000D01*
X64914076Y-54269474D01*
X64958650Y-54301859D01*
X65140968Y-54394755D01*
X65335582Y-54457990D01*
X65537683Y-54490000D01*
X65742317Y-54490000D01*
X65944417Y-54457990D01*
X66139031Y-54394755D01*
X66321349Y-54301859D01*
X66365921Y-54269474D01*
X65686447Y-53590000D01*
X65692661Y-53590000D01*
X65794394Y-53562741D01*
X65885606Y-53510080D01*
X65960080Y-53435606D01*
X66012741Y-53344394D01*
X66040000Y-53242661D01*
X66040000Y-53236447D01*
X66719474Y-53915921D01*
X66751859Y-53871349D01*
X66844755Y-53689031D01*
X66907990Y-53494417D01*
X66940000Y-53292317D01*
X66940000Y-53087682D01*
X66907990Y-52885582D01*
X66844755Y-52690968D01*
X66751859Y-52508650D01*
X66719474Y-52464077D01*
X66719474Y-52464076D01*
X66040000Y-53143551D01*
X66040000Y-53137339D01*
X66012741Y-53035606D01*
X65960080Y-52944394D01*
X65885606Y-52869920D01*
X65794394Y-52817259D01*
X65692661Y-52790000D01*
X65686446Y-52790000D01*
X66365922Y-52110524D01*
X66365921Y-52110523D01*
X66321359Y-52078147D01*
X66321350Y-52078141D01*
X66139031Y-51985244D01*
X65944417Y-51922009D01*
X65742317Y-51890000D01*
X65537683Y-51890000D01*
X65335582Y-51922009D01*
X65140968Y-51985244D01*
X64958644Y-52078143D01*
X64914077Y-52110523D01*
X64914077Y-52110524D01*
X65593554Y-52790000D01*
X65587339Y-52790000D01*
X65485606Y-52817259D01*
X65394394Y-52869920D01*
X65319920Y-52944394D01*
X65267259Y-53035606D01*
X65240000Y-53137339D01*
X65240000Y-53143553D01*
X64560524Y-52464077D01*
X64560523Y-52464077D01*
X64528143Y-52508644D01*
X64435244Y-52690968D01*
X64372009Y-52885582D01*
X64340000Y-53087682D01*
X62300500Y-53087682D01*
X62300500Y-52952648D01*
X62292782Y-52903919D01*
X62268477Y-52750465D01*
X62205218Y-52555776D01*
X62158494Y-52464076D01*
X62112287Y-52373390D01*
X62090052Y-52342786D01*
X62008595Y-52230668D01*
X62008594Y-52230667D01*
X61991969Y-52207784D01*
X61847213Y-52063028D01*
X61681613Y-51942715D01*
X61681612Y-51942714D01*
X61681610Y-51942713D01*
X61624653Y-51913691D01*
X61499223Y-51849781D01*
X61304534Y-51786522D01*
X61129995Y-51758878D01*
X61102352Y-51754500D01*
X60897648Y-51754500D01*
X60873329Y-51758351D01*
X60695465Y-51786522D01*
X60500776Y-51849781D01*
X60318378Y-51942719D01*
X60317590Y-51943202D01*
X60317250Y-51943293D01*
X60314049Y-51944925D01*
X60313706Y-51944251D01*
X60250142Y-51961436D01*
X60183542Y-51940310D01*
X60138937Y-51886532D01*
X60130487Y-51817175D01*
X60160876Y-51754260D01*
X60165115Y-51749804D01*
X60378101Y-51536819D01*
X60439424Y-51503334D01*
X60465782Y-51500500D01*
X67075500Y-51500500D01*
X67142539Y-51520185D01*
G37*
%TD.AperFunction*%
%TD*%
M02*
