%TF.GenerationSoftware,KiCad,Pcbnew,10.0.1*%
%TF.CreationDate,2026-07-15T15:34:36+02:00*%
%TF.ProjectId,DMH_Submodule_VCA_Mk2,444d485f-5375-4626-9d6f-64756c655f56,1*%
%TF.SameCoordinates,Original*%
%TF.FileFunction,Copper,L1,Top*%
%TF.FilePolarity,Positive*%
%FSLAX46Y46*%
G04 Gerber Fmt 4.6, Leading zero omitted, Abs format (unit mm)*
G04 Created by KiCad (PCBNEW 10.0.1) date 2026-07-15 15:34:36*
%MOMM*%
%LPD*%
G01*
G04 APERTURE LIST*
G04 Aperture macros list*
%AMRoundRect*
0 Rectangle with rounded corners*
0 $1 Rounding radius*
0 $2 $3 $4 $5 $6 $7 $8 $9 X,Y pos of 4 corners*
0 Add a 4 corners polygon primitive as box body*
4,1,4,$2,$3,$4,$5,$6,$7,$8,$9,$2,$3,0*
0 Add four circle primitives for the rounded corners*
1,1,$1+$1,$2,$3*
1,1,$1+$1,$4,$5*
1,1,$1+$1,$6,$7*
1,1,$1+$1,$8,$9*
0 Add four rect primitives between the rounded corners*
20,1,$1+$1,$2,$3,$4,$5,0*
20,1,$1+$1,$4,$5,$6,$7,0*
20,1,$1+$1,$6,$7,$8,$9,0*
20,1,$1+$1,$8,$9,$2,$3,0*%
G04 Aperture macros list end*
%TA.AperFunction,ComponentPad*%
%ADD10R,1.500000X1.500000*%
%TD*%
%TA.AperFunction,ComponentPad*%
%ADD11C,1.500000*%
%TD*%
%TA.AperFunction,ComponentPad*%
%ADD12C,1.600000*%
%TD*%
%TA.AperFunction,ComponentPad*%
%ADD13RoundRect,0.250000X-0.550000X-0.550000X0.550000X-0.550000X0.550000X0.550000X-0.550000X0.550000X0*%
%TD*%
%TA.AperFunction,ComponentPad*%
%ADD14R,1.700000X1.700000*%
%TD*%
%TA.AperFunction,ComponentPad*%
%ADD15C,1.700000*%
%TD*%
%TA.AperFunction,ComponentPad*%
%ADD16C,1.440000*%
%TD*%
%TA.AperFunction,Conductor*%
%ADD17C,0.200000*%
%TD*%
%TA.AperFunction,Conductor*%
%ADD18C,1.000000*%
%TD*%
G04 APERTURE END LIST*
D10*
%TO.P,Q2,1,C_1*%
%TO.N,Net-(Q2-C)*%
X81760000Y-71300000D03*
D11*
%TO.P,Q2,2,B_2*%
%TO.N,Net-(Q2-B)*%
X79220000Y-71300000D03*
%TO.P,Q2,3,E_3*%
%TO.N,Net-(Q1-E)*%
X76680000Y-71300000D03*
%TD*%
%TO.P,Q1,3,E_3*%
%TO.N,Net-(Q1-E)*%
X81740000Y-67550000D03*
%TO.P,Q1,2,B_2*%
%TO.N,Net-(Q1-B)*%
X79200000Y-67550000D03*
D10*
%TO.P,Q1,1,C_1*%
%TO.N,Net-(Q1-C)*%
X76660000Y-67550000D03*
%TD*%
D12*
%TO.P,C1,2*%
%TO.N,GND*%
X65640000Y-53190000D03*
%TO.P,C1,1*%
%TO.N,+12V*%
X70640000Y-53190000D03*
%TD*%
D13*
%TO.P,U1,1*%
%TO.N,Net-(R1-Pad2)*%
X64290000Y-55990000D03*
D12*
%TO.P,U1,2,-_2*%
%TO.N,/CV_Mix_In*%
X64290000Y-58530000D03*
%TO.P,U1,3,+_3*%
%TO.N,GND*%
X64290000Y-61070000D03*
%TO.P,U1,4,V-_4*%
%TO.N,-12V*%
X64290000Y-63610000D03*
%TO.P,U1,5,+_5*%
%TO.N,Net-(U1B-+)*%
X71910000Y-63610000D03*
%TO.P,U1,6,-_6*%
%TO.N,Net-(U1B--)*%
X71910000Y-61070000D03*
%TO.P,U1,7*%
%TO.N,/Signal_Out*%
X71910000Y-58530000D03*
%TO.P,U1,8,V+_8*%
%TO.N,+12V*%
X71910000Y-55990000D03*
%TD*%
%TO.P,C2,1*%
%TO.N,GND*%
X70640000Y-66390000D03*
%TO.P,C2,2*%
%TO.N,-12V*%
X65640000Y-66390000D03*
%TD*%
%TO.P,R1,2*%
%TO.N,Net-(R1-Pad2)*%
X57405000Y-59800000D03*
%TO.P,R1,1*%
%TO.N,/CV_Mix_In*%
X59945000Y-59800000D03*
%TD*%
%TO.P,R6,2*%
%TO.N,+12V*%
X81200000Y-56205000D03*
%TO.P,R6,1*%
%TO.N,Net-(Q2-C)*%
X81200000Y-58745000D03*
%TD*%
D14*
%TO.P,J2,1,Pin_1_1*%
%TO.N,/Signal_In*%
X57500000Y-70780000D03*
D15*
%TO.P,J2,2,Pin_2_2*%
%TO.N,/CV_Mix_In*%
X57500000Y-68240000D03*
%TO.P,J2,3,Pin_3_3*%
%TO.N,/Signal_Out*%
X57500000Y-65700000D03*
%TO.P,J2,4,Pin_4_4*%
%TO.N,GND*%
X57500000Y-63160000D03*
%TD*%
D16*
%TO.P,RV1,1,1_1*%
%TO.N,-12V*%
X76100000Y-52500000D03*
%TO.P,RV1,2,2_2*%
%TO.N,Net-(R10-Pad2)*%
X78640000Y-52500000D03*
%TO.P,RV1,3,3_3*%
%TO.N,+12V*%
X81180000Y-52500000D03*
%TD*%
D12*
%TO.P,R12,1*%
%TO.N,/Signal_Out*%
X61000000Y-53055000D03*
%TO.P,R12,2*%
%TO.N,Net-(U1B--)*%
X61000000Y-55595000D03*
%TD*%
%TO.P,R8,1*%
%TO.N,Net-(U1B--)*%
X73900000Y-68255000D03*
%TO.P,R8,2*%
%TO.N,Net-(Q1-C)*%
X73900000Y-70795000D03*
%TD*%
%TO.P,R4,1*%
%TO.N,Net-(Q1-C)*%
X75200000Y-58745000D03*
%TO.P,R4,2*%
%TO.N,+12V*%
X75200000Y-56205000D03*
%TD*%
%TO.P,R9,1*%
%TO.N,Net-(U1B-+)*%
X69545000Y-69700000D03*
%TO.P,R9,2*%
%TO.N,Net-(Q2-C)*%
X67005000Y-69700000D03*
%TD*%
%TO.P,R11,1*%
%TO.N,Net-(U1B-+)*%
X69545000Y-72800000D03*
%TO.P,R11,2*%
%TO.N,GND*%
X67005000Y-72800000D03*
%TD*%
D14*
%TO.P,J1,1,Pin_1_1*%
%TO.N,+12V*%
X57500000Y-55540000D03*
D15*
%TO.P,J1,2,Pin_2_2*%
%TO.N,-12V*%
X57500000Y-53000000D03*
%TD*%
D12*
%TO.P,R10,1*%
%TO.N,Net-(Q2-B)*%
X76955000Y-63300000D03*
%TO.P,R10,2*%
%TO.N,Net-(R10-Pad2)*%
X79495000Y-63300000D03*
%TD*%
%TO.P,R7,1*%
%TO.N,Net-(Q2-B)*%
X78200000Y-58745000D03*
%TO.P,R7,2*%
%TO.N,GND*%
X78200000Y-56205000D03*
%TD*%
%TO.P,R3,1*%
%TO.N,GND*%
X60955000Y-66700000D03*
%TO.P,R3,2*%
%TO.N,Net-(Q1-B)*%
X63495000Y-66700000D03*
%TD*%
%TO.P,R5,1*%
%TO.N,Net-(Q1-E)*%
X63045000Y-72800000D03*
%TO.P,R5,2*%
%TO.N,Net-(R1-Pad2)*%
X60505000Y-72800000D03*
%TD*%
%TO.P,R2,1*%
%TO.N,Net-(Q1-B)*%
X63045000Y-69700000D03*
%TO.P,R2,2*%
%TO.N,/Signal_In*%
X60505000Y-69700000D03*
%TD*%
%TO.N,Net-(R1-Pad2)*%
D17*
X57405000Y-59800000D02*
X59705000Y-57500000D01*
%TO.N,/Signal_In*%
X57500000Y-70780000D02*
X59425000Y-70780000D01*
%TO.N,+12V*%
D18*
X59500000Y-53540000D02*
X59500000Y-52433679D01*
X57500000Y-55540000D02*
X59500000Y-53540000D01*
%TO.N,Net-(R1-Pad2)*%
D17*
X62780000Y-57500000D02*
X64290000Y-55990000D01*
X59705000Y-57500000D02*
X62780000Y-57500000D01*
%TO.N,Net-(U1B--)*%
X71370000Y-61070000D02*
X71910000Y-61070000D01*
X65095001Y-54795001D02*
X71370000Y-61070000D01*
X63404999Y-54795001D02*
X65095001Y-54795001D01*
X61000000Y-55595000D02*
X62605000Y-55595000D01*
X62605000Y-55595000D02*
X63404999Y-54795001D01*
%TO.N,Net-(Q1-B)*%
X77329390Y-68600000D02*
X78150000Y-68600000D01*
X76429390Y-69500000D02*
X77329390Y-68600000D01*
X78150000Y-68600000D02*
X79200000Y-67550000D01*
X72200000Y-69500000D02*
X76429390Y-69500000D01*
X71300000Y-68600000D02*
X72200000Y-69500000D01*
%TO.N,Net-(Q2-C)*%
X83000000Y-70060000D02*
X81760000Y-71300000D01*
X83000000Y-67000000D02*
X83000000Y-70060000D01*
X82300000Y-66300000D02*
X83000000Y-67000000D01*
X81300000Y-66300000D02*
X82300000Y-66300000D01*
X80500000Y-67100000D02*
X81300000Y-66300000D01*
X80500000Y-68224314D02*
X80500000Y-67100000D01*
X79724314Y-69000000D02*
X80500000Y-68224314D01*
X72100000Y-72400000D02*
X74095075Y-72400000D01*
X77495075Y-69000000D02*
X79724314Y-69000000D01*
X74095075Y-72400000D02*
X77495075Y-69000000D01*
X71400000Y-71700000D02*
X72100000Y-72400000D01*
%TO.N,Net-(Q1-E)*%
X74080000Y-73900000D02*
X76680000Y-71300000D01*
X78580000Y-69400000D02*
X79890000Y-69400000D01*
X76680000Y-71300000D02*
X78580000Y-69400000D01*
X79890000Y-69400000D02*
X81740000Y-67550000D01*
%TO.N,/Signal_Out*%
X69500000Y-53181370D02*
X69500000Y-56120000D01*
X69500000Y-56120000D02*
X71910000Y-58530000D01*
X67618630Y-51300000D02*
X69500000Y-53181370D01*
X62755000Y-51300000D02*
X67618630Y-51300000D01*
X61000000Y-53055000D02*
X62755000Y-51300000D01*
%TO.N,/CV_Mix_In*%
X61215000Y-58530000D02*
X64290000Y-58530000D01*
X59945000Y-59800000D02*
X61215000Y-58530000D01*
%TO.N,+12V*%
D18*
X79760000Y-53920000D02*
X81180000Y-52500000D01*
X77485000Y-53920000D02*
X79760000Y-53920000D01*
X75200000Y-56205000D02*
X77485000Y-53920000D01*
X74985000Y-55990000D02*
X75200000Y-56205000D01*
X71910000Y-55990000D02*
X74985000Y-55990000D01*
X70640000Y-54720000D02*
X71910000Y-55990000D01*
X70640000Y-53190000D02*
X70640000Y-54720000D01*
%TO.N,/Signal_In*%
D17*
X59425000Y-70780000D02*
X60505000Y-69700000D01*
%TO.N,Net-(Q2-C)*%
X69005000Y-71700000D02*
X71400000Y-71700000D01*
%TO.N,Net-(Q1-E)*%
X64145000Y-73900000D02*
X74080000Y-73900000D01*
X63045000Y-72800000D02*
X64145000Y-73900000D01*
%TO.N,Net-(Q1-B)*%
X64145000Y-68600000D02*
X71300000Y-68600000D01*
X63045000Y-69700000D02*
X64145000Y-68600000D01*
%TO.N,Net-(Q2-C)*%
X67005000Y-69700000D02*
X69005000Y-71700000D01*
%TO.N,+12V*%
D18*
X67950000Y-50500000D02*
X70640000Y-53190000D01*
X59500000Y-52433679D02*
X61433679Y-50500000D01*
X61433679Y-50500000D02*
X67950000Y-50500000D01*
%TD*%
%TA.AperFunction,Conductor*%
%TO.N,GND*%
G36*
X60285936Y-50020185D02*
G01*
X60331691Y-50072989D01*
X60341635Y-50142147D01*
X60312610Y-50205703D01*
X60306579Y-50212179D01*
X58862221Y-51656537D01*
X58862218Y-51656540D01*
X58813863Y-51704895D01*
X58722859Y-51795898D01*
X58613371Y-51959759D01*
X58613364Y-51959773D01*
X58612998Y-51960657D01*
X58612683Y-51961047D01*
X58610498Y-51965136D01*
X58609721Y-51964721D01*
X58569148Y-52015053D01*
X58502850Y-52037108D01*
X58435154Y-52019818D01*
X58410763Y-52000867D01*
X58379786Y-51969890D01*
X58207820Y-51844951D01*
X58018414Y-51748444D01*
X58018413Y-51748443D01*
X58018412Y-51748443D01*
X57816243Y-51682754D01*
X57816241Y-51682753D01*
X57816240Y-51682753D01*
X57650735Y-51656540D01*
X57606287Y-51649500D01*
X57393713Y-51649500D01*
X57349265Y-51656540D01*
X57183760Y-51682753D01*
X56981585Y-51748444D01*
X56792179Y-51844951D01*
X56620213Y-51969890D01*
X56469890Y-52120213D01*
X56344951Y-52292179D01*
X56248444Y-52481585D01*
X56182753Y-52683760D01*
X56149500Y-52893713D01*
X56149500Y-53106286D01*
X56179405Y-53295103D01*
X56182754Y-53316243D01*
X56219750Y-53430105D01*
X56248444Y-53518414D01*
X56344951Y-53707820D01*
X56469890Y-53879786D01*
X56583430Y-53993326D01*
X56616915Y-54054649D01*
X56611931Y-54124341D01*
X56570059Y-54180274D01*
X56539083Y-54197189D01*
X56407669Y-54246203D01*
X56407664Y-54246206D01*
X56292455Y-54332452D01*
X56292452Y-54332455D01*
X56206206Y-54447664D01*
X56206202Y-54447671D01*
X56155908Y-54582517D01*
X56149501Y-54642116D01*
X56149500Y-54642135D01*
X56149500Y-56437870D01*
X56149501Y-56437876D01*
X56155908Y-56497483D01*
X56206202Y-56632328D01*
X56206206Y-56632335D01*
X56292452Y-56747544D01*
X56292455Y-56747547D01*
X56407664Y-56833793D01*
X56407671Y-56833797D01*
X56542517Y-56884091D01*
X56542516Y-56884091D01*
X56549444Y-56884835D01*
X56602127Y-56890500D01*
X58397872Y-56890499D01*
X58457483Y-56884091D01*
X58592331Y-56833796D01*
X58707546Y-56747546D01*
X58793796Y-56632331D01*
X58844091Y-56497483D01*
X58850500Y-56437873D01*
X58850499Y-55655780D01*
X58870183Y-55588742D01*
X58886813Y-55568105D01*
X59694788Y-54760130D01*
X59756109Y-54726647D01*
X59825801Y-54731631D01*
X59881734Y-54773503D01*
X59906151Y-54838967D01*
X59891299Y-54907240D01*
X59888202Y-54912590D01*
X59887719Y-54913377D01*
X59794781Y-55095776D01*
X59731522Y-55290465D01*
X59699500Y-55492648D01*
X59699500Y-55697351D01*
X59731522Y-55899534D01*
X59794781Y-56094223D01*
X59887715Y-56276613D01*
X60008028Y-56442213D01*
X60008034Y-56442219D01*
X60152781Y-56586966D01*
X60215221Y-56632331D01*
X60274200Y-56675181D01*
X60316866Y-56730511D01*
X60322845Y-56800125D01*
X60290240Y-56861920D01*
X60229401Y-56896277D01*
X60201315Y-56899500D01*
X59784057Y-56899500D01*
X59625942Y-56899500D01*
X59473215Y-56940423D01*
X59473214Y-56940423D01*
X59473212Y-56940424D01*
X59473209Y-56940425D01*
X59423096Y-56969359D01*
X59423095Y-56969360D01*
X59386479Y-56990500D01*
X59336285Y-57019479D01*
X59336282Y-57019481D01*
X59224478Y-57131286D01*
X57849842Y-58505921D01*
X57788519Y-58539406D01*
X57723848Y-58536173D01*
X57709534Y-58531522D01*
X57534995Y-58503878D01*
X57507352Y-58499500D01*
X57302648Y-58499500D01*
X57278329Y-58503351D01*
X57100465Y-58531522D01*
X56905776Y-58594781D01*
X56723386Y-58687715D01*
X56557786Y-58808028D01*
X56413028Y-58952786D01*
X56292715Y-59118386D01*
X56199781Y-59300776D01*
X56136522Y-59495465D01*
X56104500Y-59697648D01*
X56104500Y-59902351D01*
X56136522Y-60104534D01*
X56199781Y-60299223D01*
X56292715Y-60481613D01*
X56413028Y-60647213D01*
X56557786Y-60791971D01*
X56712749Y-60904556D01*
X56723390Y-60912287D01*
X56832042Y-60967648D01*
X56905776Y-61005218D01*
X56905778Y-61005218D01*
X56905781Y-61005220D01*
X57010137Y-61039127D01*
X57100465Y-61068477D01*
X57201557Y-61084488D01*
X57302648Y-61100500D01*
X57302649Y-61100500D01*
X57507351Y-61100500D01*
X57507352Y-61100500D01*
X57709534Y-61068477D01*
X57904219Y-61005220D01*
X58086610Y-60912287D01*
X58179590Y-60844732D01*
X58252213Y-60791971D01*
X58252215Y-60791968D01*
X58252219Y-60791966D01*
X58396966Y-60647219D01*
X58396968Y-60647215D01*
X58396971Y-60647213D01*
X58517284Y-60481614D01*
X58517285Y-60481613D01*
X58517287Y-60481610D01*
X58564516Y-60388917D01*
X58612489Y-60338123D01*
X58680310Y-60321328D01*
X58746445Y-60343865D01*
X58785485Y-60388919D01*
X58832715Y-60481614D01*
X58953028Y-60647213D01*
X59097786Y-60791971D01*
X59252749Y-60904556D01*
X59263390Y-60912287D01*
X59372042Y-60967648D01*
X59445776Y-61005218D01*
X59445778Y-61005218D01*
X59445781Y-61005220D01*
X59550137Y-61039127D01*
X59640465Y-61068477D01*
X59741557Y-61084488D01*
X59842648Y-61100500D01*
X59842649Y-61100500D01*
X60047351Y-61100500D01*
X60047352Y-61100500D01*
X60249534Y-61068477D01*
X60444219Y-61005220D01*
X60626610Y-60912287D01*
X60792219Y-60791966D01*
X60936966Y-60647219D01*
X60936968Y-60647215D01*
X60936971Y-60647213D01*
X60992505Y-60570776D01*
X61057287Y-60481610D01*
X61150220Y-60299219D01*
X61213477Y-60104534D01*
X61245500Y-59902352D01*
X61245500Y-59697648D01*
X61213477Y-59495466D01*
X61208826Y-59481154D01*
X61206832Y-59411315D01*
X61239077Y-59355157D01*
X61427416Y-59166819D01*
X61488739Y-59133334D01*
X61515097Y-59130500D01*
X63060398Y-59130500D01*
X63127437Y-59150185D01*
X63170883Y-59198205D01*
X63177715Y-59211614D01*
X63298028Y-59377213D01*
X63442786Y-59521971D01*
X63608385Y-59642284D01*
X63608387Y-59642285D01*
X63608390Y-59642287D01*
X63701080Y-59689515D01*
X63701630Y-59689795D01*
X63752426Y-59737770D01*
X63769221Y-59805591D01*
X63746684Y-59871725D01*
X63701630Y-59910765D01*
X63608644Y-59958143D01*
X63564077Y-59990523D01*
X63564077Y-59990524D01*
X64243554Y-60670000D01*
X64237339Y-60670000D01*
X64135606Y-60697259D01*
X64044394Y-60749920D01*
X63969920Y-60824394D01*
X63917259Y-60915606D01*
X63890000Y-61017339D01*
X63890000Y-61023553D01*
X63210524Y-60344077D01*
X63210523Y-60344077D01*
X63178143Y-60388644D01*
X63085244Y-60570968D01*
X63022009Y-60765582D01*
X62990000Y-60967682D01*
X62990000Y-61172317D01*
X63022009Y-61374417D01*
X63085244Y-61569031D01*
X63178141Y-61751350D01*
X63178147Y-61751359D01*
X63210523Y-61795921D01*
X63210524Y-61795922D01*
X63890000Y-61116446D01*
X63890000Y-61122661D01*
X63917259Y-61224394D01*
X63969920Y-61315606D01*
X64044394Y-61390080D01*
X64135606Y-61442741D01*
X64237339Y-61470000D01*
X64243553Y-61470000D01*
X63564076Y-62149474D01*
X63608652Y-62181861D01*
X63701628Y-62229234D01*
X63752425Y-62277208D01*
X63769220Y-62345029D01*
X63746683Y-62411164D01*
X63701630Y-62450203D01*
X63608388Y-62497713D01*
X63442786Y-62618028D01*
X63298028Y-62762786D01*
X63177715Y-62928386D01*
X63084781Y-63110776D01*
X63021522Y-63305465D01*
X62989500Y-63507648D01*
X62989500Y-63712351D01*
X63021522Y-63914534D01*
X63084781Y-64109223D01*
X63148691Y-64234653D01*
X63169387Y-64275270D01*
X63177715Y-64291613D01*
X63298028Y-64457213D01*
X63442786Y-64601971D01*
X63536279Y-64669896D01*
X63608390Y-64722287D01*
X63724607Y-64781503D01*
X63790776Y-64815218D01*
X63790778Y-64815218D01*
X63790781Y-64815220D01*
X63895137Y-64849127D01*
X63985465Y-64878477D01*
X64086557Y-64894488D01*
X64187648Y-64910500D01*
X64187649Y-64910500D01*
X64392351Y-64910500D01*
X64392352Y-64910500D01*
X64594534Y-64878477D01*
X64789219Y-64815220D01*
X64971610Y-64722287D01*
X65064590Y-64654732D01*
X65137213Y-64601971D01*
X65137215Y-64601968D01*
X65137219Y-64601966D01*
X65281966Y-64457219D01*
X65281968Y-64457215D01*
X65281971Y-64457213D01*
X65353853Y-64358274D01*
X65402287Y-64291610D01*
X65495220Y-64109219D01*
X65558477Y-63914534D01*
X65590500Y-63712352D01*
X65590500Y-63507648D01*
X65585508Y-63476130D01*
X65558477Y-63305465D01*
X65523445Y-63197648D01*
X65495220Y-63110781D01*
X65495218Y-63110778D01*
X65495218Y-63110776D01*
X65421963Y-62967007D01*
X65402287Y-62928390D01*
X65394556Y-62917749D01*
X65281971Y-62762786D01*
X65137213Y-62618028D01*
X64971611Y-62497713D01*
X64878369Y-62450203D01*
X64827574Y-62402229D01*
X64810779Y-62334407D01*
X64833317Y-62268273D01*
X64878371Y-62229234D01*
X64971346Y-62181861D01*
X64971347Y-62181861D01*
X65015921Y-62149474D01*
X64336447Y-61470000D01*
X64342661Y-61470000D01*
X64444394Y-61442741D01*
X64535606Y-61390080D01*
X64610080Y-61315606D01*
X64662741Y-61224394D01*
X64690000Y-61122661D01*
X64690000Y-61116447D01*
X65369474Y-61795921D01*
X65401859Y-61751349D01*
X65494755Y-61569031D01*
X65557990Y-61374417D01*
X65590000Y-61172317D01*
X65590000Y-60967682D01*
X65557990Y-60765582D01*
X65494755Y-60570968D01*
X65401859Y-60388650D01*
X65369474Y-60344077D01*
X65369474Y-60344076D01*
X64690000Y-61023551D01*
X64690000Y-61017339D01*
X64662741Y-60915606D01*
X64610080Y-60824394D01*
X64535606Y-60749920D01*
X64444394Y-60697259D01*
X64342661Y-60670000D01*
X64336446Y-60670000D01*
X65015922Y-59990524D01*
X65015921Y-59990523D01*
X64971359Y-59958147D01*
X64971350Y-59958141D01*
X64878369Y-59910765D01*
X64827573Y-59862790D01*
X64810778Y-59794969D01*
X64833315Y-59728835D01*
X64878370Y-59689795D01*
X64878920Y-59689515D01*
X64971610Y-59642287D01*
X65040532Y-59592213D01*
X65137213Y-59521971D01*
X65137215Y-59521968D01*
X65137219Y-59521966D01*
X65281966Y-59377219D01*
X65281968Y-59377215D01*
X65281971Y-59377213D01*
X65378595Y-59244219D01*
X65402287Y-59211610D01*
X65495220Y-59029219D01*
X65558477Y-58834534D01*
X65590500Y-58632352D01*
X65590500Y-58427648D01*
X65572212Y-58312181D01*
X65558477Y-58225465D01*
X65495218Y-58030776D01*
X65461503Y-57964607D01*
X65402287Y-57848390D01*
X65394556Y-57837749D01*
X65281971Y-57682786D01*
X65137219Y-57538034D01*
X65057381Y-57480029D01*
X65043547Y-57469978D01*
X65000882Y-57414649D01*
X64994903Y-57345036D01*
X65027508Y-57283240D01*
X65077426Y-57251955D01*
X65159334Y-57224814D01*
X65308656Y-57132712D01*
X65432712Y-57008656D01*
X65524814Y-56859334D01*
X65579999Y-56692797D01*
X65590500Y-56590009D01*
X65590499Y-56439094D01*
X65610183Y-56372057D01*
X65662987Y-56326302D01*
X65732145Y-56316358D01*
X65795701Y-56345383D01*
X65802180Y-56351415D01*
X70578448Y-61127683D01*
X70611933Y-61189006D01*
X70613240Y-61195966D01*
X70641522Y-61374534D01*
X70704781Y-61569223D01*
X70768691Y-61694653D01*
X70797585Y-61751359D01*
X70797715Y-61751613D01*
X70918028Y-61917213D01*
X71062786Y-62061971D01*
X71183226Y-62149474D01*
X71228390Y-62182287D01*
X71319840Y-62228883D01*
X71321080Y-62229515D01*
X71371876Y-62277490D01*
X71388671Y-62345311D01*
X71366134Y-62411446D01*
X71321080Y-62450485D01*
X71228386Y-62497715D01*
X71062786Y-62618028D01*
X70918028Y-62762786D01*
X70797715Y-62928386D01*
X70704781Y-63110776D01*
X70641522Y-63305465D01*
X70609500Y-63507648D01*
X70609500Y-63712351D01*
X70641522Y-63914534D01*
X70704781Y-64109223D01*
X70768691Y-64234653D01*
X70789387Y-64275270D01*
X70797715Y-64291613D01*
X70918028Y-64457213D01*
X71062786Y-64601971D01*
X71156279Y-64669896D01*
X71228390Y-64722287D01*
X71344607Y-64781503D01*
X71410776Y-64815218D01*
X71410778Y-64815218D01*
X71410781Y-64815220D01*
X71515137Y-64849127D01*
X71605465Y-64878477D01*
X71706557Y-64894488D01*
X71807648Y-64910500D01*
X71807649Y-64910500D01*
X72012351Y-64910500D01*
X72012352Y-64910500D01*
X72214534Y-64878477D01*
X72409219Y-64815220D01*
X72591610Y-64722287D01*
X72684590Y-64654732D01*
X72757213Y-64601971D01*
X72757215Y-64601968D01*
X72757219Y-64601966D01*
X72901966Y-64457219D01*
X72901968Y-64457215D01*
X72901971Y-64457213D01*
X72973853Y-64358274D01*
X73022287Y-64291610D01*
X73115220Y-64109219D01*
X73178477Y-63914534D01*
X73210500Y-63712352D01*
X73210500Y-63507648D01*
X73205508Y-63476130D01*
X73178477Y-63305465D01*
X73154312Y-63231095D01*
X73143445Y-63197648D01*
X75654500Y-63197648D01*
X75654500Y-63402351D01*
X75686522Y-63604534D01*
X75749781Y-63799223D01*
X75842715Y-63981613D01*
X75963028Y-64147213D01*
X76107786Y-64291971D01*
X76232741Y-64382754D01*
X76273390Y-64412287D01*
X76361574Y-64457219D01*
X76455776Y-64505218D01*
X76455778Y-64505218D01*
X76455781Y-64505220D01*
X76560137Y-64539127D01*
X76650465Y-64568477D01*
X76751557Y-64584488D01*
X76852648Y-64600500D01*
X76852649Y-64600500D01*
X77057351Y-64600500D01*
X77057352Y-64600500D01*
X77259534Y-64568477D01*
X77454219Y-64505220D01*
X77636610Y-64412287D01*
X77764688Y-64319234D01*
X77802213Y-64291971D01*
X77802215Y-64291968D01*
X77802219Y-64291966D01*
X77946966Y-64147219D01*
X77946968Y-64147215D01*
X77946971Y-64147213D01*
X78067284Y-63981614D01*
X78067285Y-63981613D01*
X78067287Y-63981610D01*
X78114516Y-63888917D01*
X78162489Y-63838123D01*
X78230310Y-63821328D01*
X78296445Y-63843865D01*
X78335483Y-63888917D01*
X78352196Y-63921717D01*
X78382715Y-63981614D01*
X78503028Y-64147213D01*
X78647786Y-64291971D01*
X78772741Y-64382754D01*
X78813390Y-64412287D01*
X78901574Y-64457219D01*
X78995776Y-64505218D01*
X78995778Y-64505218D01*
X78995781Y-64505220D01*
X79100137Y-64539127D01*
X79190465Y-64568477D01*
X79291557Y-64584488D01*
X79392648Y-64600500D01*
X79392649Y-64600500D01*
X79597351Y-64600500D01*
X79597352Y-64600500D01*
X79799534Y-64568477D01*
X79994219Y-64505220D01*
X80176610Y-64412287D01*
X80304688Y-64319234D01*
X80342213Y-64291971D01*
X80342215Y-64291968D01*
X80342219Y-64291966D01*
X80486966Y-64147219D01*
X80486968Y-64147215D01*
X80486971Y-64147213D01*
X80539732Y-64074590D01*
X80607287Y-63981610D01*
X80700220Y-63799219D01*
X80763477Y-63604534D01*
X80795500Y-63402352D01*
X80795500Y-63197648D01*
X80763477Y-62995466D01*
X80700220Y-62800781D01*
X80700218Y-62800778D01*
X80700218Y-62800776D01*
X80628488Y-62660000D01*
X80607287Y-62618390D01*
X80599556Y-62607749D01*
X80486971Y-62452786D01*
X80342213Y-62308028D01*
X80176613Y-62187715D01*
X80176612Y-62187714D01*
X80176610Y-62187713D01*
X80101562Y-62149474D01*
X79994223Y-62094781D01*
X79799534Y-62031522D01*
X79624995Y-62003878D01*
X79597352Y-61999500D01*
X79392648Y-61999500D01*
X79368329Y-62003351D01*
X79190465Y-62031522D01*
X78995776Y-62094781D01*
X78813386Y-62187715D01*
X78647786Y-62308028D01*
X78503028Y-62452786D01*
X78382715Y-62618386D01*
X78335485Y-62711080D01*
X78287510Y-62761876D01*
X78219689Y-62778671D01*
X78153554Y-62756134D01*
X78114515Y-62711080D01*
X78088488Y-62660000D01*
X78067287Y-62618390D01*
X78059556Y-62607749D01*
X77946971Y-62452786D01*
X77802213Y-62308028D01*
X77636613Y-62187715D01*
X77636612Y-62187714D01*
X77636610Y-62187713D01*
X77561562Y-62149474D01*
X77454223Y-62094781D01*
X77259534Y-62031522D01*
X77084995Y-62003878D01*
X77057352Y-61999500D01*
X76852648Y-61999500D01*
X76828329Y-62003351D01*
X76650465Y-62031522D01*
X76455776Y-62094781D01*
X76273386Y-62187715D01*
X76107786Y-62308028D01*
X75963028Y-62452786D01*
X75842715Y-62618386D01*
X75749781Y-62800776D01*
X75686522Y-62995465D01*
X75654500Y-63197648D01*
X73143445Y-63197648D01*
X73115220Y-63110781D01*
X73022287Y-62928390D01*
X73014556Y-62917749D01*
X72901971Y-62762786D01*
X72757213Y-62618028D01*
X72591614Y-62497715D01*
X72585006Y-62494348D01*
X72498917Y-62450483D01*
X72448123Y-62402511D01*
X72431328Y-62334690D01*
X72453865Y-62268555D01*
X72498917Y-62229516D01*
X72591610Y-62182287D01*
X72712053Y-62094781D01*
X72757213Y-62061971D01*
X72757215Y-62061968D01*
X72757219Y-62061966D01*
X72901966Y-61917219D01*
X72901968Y-61917215D01*
X72901971Y-61917213D01*
X72955713Y-61843242D01*
X73022287Y-61751610D01*
X73115220Y-61569219D01*
X73178477Y-61374534D01*
X73210500Y-61172352D01*
X73210500Y-60967648D01*
X73193846Y-60862501D01*
X73178477Y-60765465D01*
X73140054Y-60647213D01*
X73115220Y-60570781D01*
X73115218Y-60570778D01*
X73115218Y-60570776D01*
X73069787Y-60481614D01*
X73022287Y-60388390D01*
X72990092Y-60344077D01*
X72901971Y-60222786D01*
X72757213Y-60078028D01*
X72591614Y-59957715D01*
X72547031Y-59934999D01*
X72498917Y-59910483D01*
X72448123Y-59862511D01*
X72431328Y-59794690D01*
X72453865Y-59728555D01*
X72498917Y-59689516D01*
X72591610Y-59642287D01*
X72612770Y-59626913D01*
X72757213Y-59521971D01*
X72757215Y-59521968D01*
X72757219Y-59521966D01*
X72901966Y-59377219D01*
X72901968Y-59377215D01*
X72901971Y-59377213D01*
X72998595Y-59244219D01*
X73022287Y-59211610D01*
X73115220Y-59029219D01*
X73178477Y-58834534D01*
X73210500Y-58632352D01*
X73210500Y-58427648D01*
X73192212Y-58312181D01*
X73178477Y-58225465D01*
X73115218Y-58030776D01*
X73081503Y-57964607D01*
X73022287Y-57848390D01*
X73014556Y-57837749D01*
X72901971Y-57682786D01*
X72757213Y-57538028D01*
X72591614Y-57417715D01*
X72563270Y-57403273D01*
X72498917Y-57370483D01*
X72448123Y-57322511D01*
X72431328Y-57254690D01*
X72453865Y-57188555D01*
X72498917Y-57149516D01*
X72591610Y-57102287D01*
X72712877Y-57014181D01*
X72778683Y-56990702D01*
X72785762Y-56990500D01*
X74100011Y-56990500D01*
X74167050Y-57010185D01*
X74200330Y-57041616D01*
X74208030Y-57052215D01*
X74352786Y-57196971D01*
X74481519Y-57290499D01*
X74518390Y-57317287D01*
X74609840Y-57363883D01*
X74611080Y-57364515D01*
X74661876Y-57412490D01*
X74678671Y-57480311D01*
X74656134Y-57546446D01*
X74611080Y-57585485D01*
X74518386Y-57632715D01*
X74352786Y-57753028D01*
X74208028Y-57897786D01*
X74087715Y-58063386D01*
X73994781Y-58245776D01*
X73931522Y-58440465D01*
X73899500Y-58642648D01*
X73899500Y-58847351D01*
X73931522Y-59049534D01*
X73994781Y-59244223D01*
X74033920Y-59321036D01*
X74078683Y-59408888D01*
X74087715Y-59426613D01*
X74208028Y-59592213D01*
X74352786Y-59736971D01*
X74507749Y-59849556D01*
X74518390Y-59857287D01*
X74634607Y-59916503D01*
X74700776Y-59950218D01*
X74700778Y-59950218D01*
X74700781Y-59950220D01*
X74763809Y-59970699D01*
X74895465Y-60013477D01*
X74996557Y-60029488D01*
X75097648Y-60045500D01*
X75097649Y-60045500D01*
X75302351Y-60045500D01*
X75302352Y-60045500D01*
X75504534Y-60013477D01*
X75699219Y-59950220D01*
X75881610Y-59857287D01*
X75974590Y-59789732D01*
X76047213Y-59736971D01*
X76047215Y-59736968D01*
X76047219Y-59736966D01*
X76191966Y-59592219D01*
X76191968Y-59592215D01*
X76191971Y-59592213D01*
X76262258Y-59495469D01*
X76312287Y-59426610D01*
X76405220Y-59244219D01*
X76468477Y-59049534D01*
X76500500Y-58847352D01*
X76500500Y-58642648D01*
X76498869Y-58632351D01*
X76468477Y-58440465D01*
X76405218Y-58245776D01*
X76368131Y-58172989D01*
X76312287Y-58063390D01*
X76304556Y-58052749D01*
X76191971Y-57897786D01*
X76047213Y-57753028D01*
X75881614Y-57632715D01*
X75875006Y-57629348D01*
X75788917Y-57585483D01*
X75738123Y-57537511D01*
X75721328Y-57469690D01*
X75743865Y-57403555D01*
X75788917Y-57364516D01*
X75881610Y-57317287D01*
X75932933Y-57279999D01*
X76047213Y-57196971D01*
X76047215Y-57196968D01*
X76047219Y-57196966D01*
X76191966Y-57052219D01*
X76191968Y-57052215D01*
X76191971Y-57052213D01*
X76273190Y-56940423D01*
X76312287Y-56886610D01*
X76405220Y-56704219D01*
X76468477Y-56509534D01*
X76491925Y-56361483D01*
X76501041Y-56342253D01*
X76505566Y-56321455D01*
X76520112Y-56302023D01*
X76521854Y-56298350D01*
X76526699Y-56293219D01*
X76688321Y-56131597D01*
X76749642Y-56098114D01*
X76819334Y-56103098D01*
X76875267Y-56144970D01*
X76899684Y-56210434D01*
X76900000Y-56219280D01*
X76900000Y-56307317D01*
X76932009Y-56509417D01*
X76995244Y-56704031D01*
X77088141Y-56886350D01*
X77088147Y-56886359D01*
X77120523Y-56930921D01*
X77120524Y-56930922D01*
X77800000Y-56251446D01*
X77800000Y-56257661D01*
X77827259Y-56359394D01*
X77879920Y-56450606D01*
X77954394Y-56525080D01*
X78045606Y-56577741D01*
X78147339Y-56605000D01*
X78153553Y-56605000D01*
X77474076Y-57284474D01*
X77518652Y-57316861D01*
X77611628Y-57364234D01*
X77662425Y-57412208D01*
X77679220Y-57480029D01*
X77656683Y-57546164D01*
X77611630Y-57585203D01*
X77518388Y-57632713D01*
X77352786Y-57753028D01*
X77208028Y-57897786D01*
X77087715Y-58063386D01*
X76994781Y-58245776D01*
X76931522Y-58440465D01*
X76899500Y-58642648D01*
X76899500Y-58847351D01*
X76931522Y-59049534D01*
X76994781Y-59244223D01*
X77033920Y-59321036D01*
X77078683Y-59408888D01*
X77087715Y-59426613D01*
X77208028Y-59592213D01*
X77352786Y-59736971D01*
X77507749Y-59849556D01*
X77518390Y-59857287D01*
X77634607Y-59916503D01*
X77700776Y-59950218D01*
X77700778Y-59950218D01*
X77700781Y-59950220D01*
X77763809Y-59970699D01*
X77895465Y-60013477D01*
X77996557Y-60029488D01*
X78097648Y-60045500D01*
X78097649Y-60045500D01*
X78302351Y-60045500D01*
X78302352Y-60045500D01*
X78504534Y-60013477D01*
X78699219Y-59950220D01*
X78881610Y-59857287D01*
X78974590Y-59789732D01*
X79047213Y-59736971D01*
X79047215Y-59736968D01*
X79047219Y-59736966D01*
X79191966Y-59592219D01*
X79191968Y-59592215D01*
X79191971Y-59592213D01*
X79262258Y-59495469D01*
X79312287Y-59426610D01*
X79405220Y-59244219D01*
X79468477Y-59049534D01*
X79500500Y-58847352D01*
X79500500Y-58642648D01*
X79498869Y-58632351D01*
X79468477Y-58440465D01*
X79405218Y-58245776D01*
X79368131Y-58172989D01*
X79312287Y-58063390D01*
X79304556Y-58052749D01*
X79191971Y-57897786D01*
X79047213Y-57753028D01*
X78881611Y-57632713D01*
X78788369Y-57585203D01*
X78737574Y-57537229D01*
X78720779Y-57469407D01*
X78743317Y-57403273D01*
X78788371Y-57364234D01*
X78881346Y-57316861D01*
X78881347Y-57316861D01*
X78925921Y-57284474D01*
X78246447Y-56605000D01*
X78252661Y-56605000D01*
X78354394Y-56577741D01*
X78445606Y-56525080D01*
X78520080Y-56450606D01*
X78572741Y-56359394D01*
X78600000Y-56257661D01*
X78600000Y-56251447D01*
X79279474Y-56930921D01*
X79311859Y-56886349D01*
X79404755Y-56704031D01*
X79467990Y-56509417D01*
X79500000Y-56307317D01*
X79500000Y-56102682D01*
X79499995Y-56102648D01*
X79899500Y-56102648D01*
X79899500Y-56307352D01*
X79901734Y-56321455D01*
X79931522Y-56509534D01*
X79994781Y-56704223D01*
X80043695Y-56800220D01*
X80087585Y-56886359D01*
X80087715Y-56886613D01*
X80208028Y-57052213D01*
X80352786Y-57196971D01*
X80481519Y-57290499D01*
X80518390Y-57317287D01*
X80609840Y-57363883D01*
X80611080Y-57364515D01*
X80661876Y-57412490D01*
X80678671Y-57480311D01*
X80656134Y-57546446D01*
X80611080Y-57585485D01*
X80518386Y-57632715D01*
X80352786Y-57753028D01*
X80208028Y-57897786D01*
X80087715Y-58063386D01*
X79994781Y-58245776D01*
X79931522Y-58440465D01*
X79899500Y-58642648D01*
X79899500Y-58847351D01*
X79931522Y-59049534D01*
X79994781Y-59244223D01*
X80033920Y-59321036D01*
X80078683Y-59408888D01*
X80087715Y-59426613D01*
X80208028Y-59592213D01*
X80352786Y-59736971D01*
X80507749Y-59849556D01*
X80518390Y-59857287D01*
X80634607Y-59916503D01*
X80700776Y-59950218D01*
X80700778Y-59950218D01*
X80700781Y-59950220D01*
X80763809Y-59970699D01*
X80895465Y-60013477D01*
X80996557Y-60029488D01*
X81097648Y-60045500D01*
X81097649Y-60045500D01*
X81302351Y-60045500D01*
X81302352Y-60045500D01*
X81504534Y-60013477D01*
X81699219Y-59950220D01*
X81881610Y-59857287D01*
X81974590Y-59789732D01*
X82047213Y-59736971D01*
X82047215Y-59736968D01*
X82047219Y-59736966D01*
X82191966Y-59592219D01*
X82191968Y-59592215D01*
X82191971Y-59592213D01*
X82262258Y-59495469D01*
X82312287Y-59426610D01*
X82405220Y-59244219D01*
X82468477Y-59049534D01*
X82500500Y-58847352D01*
X82500500Y-58642648D01*
X82498869Y-58632351D01*
X82468477Y-58440465D01*
X82405218Y-58245776D01*
X82368131Y-58172989D01*
X82312287Y-58063390D01*
X82304556Y-58052749D01*
X82191971Y-57897786D01*
X82047213Y-57753028D01*
X81881614Y-57632715D01*
X81875006Y-57629348D01*
X81788917Y-57585483D01*
X81738123Y-57537511D01*
X81721328Y-57469690D01*
X81743865Y-57403555D01*
X81788917Y-57364516D01*
X81881610Y-57317287D01*
X81932933Y-57279999D01*
X82047213Y-57196971D01*
X82047215Y-57196968D01*
X82047219Y-57196966D01*
X82191966Y-57052219D01*
X82191968Y-57052215D01*
X82191971Y-57052213D01*
X82273190Y-56940423D01*
X82312287Y-56886610D01*
X82405220Y-56704219D01*
X82468477Y-56509534D01*
X82500500Y-56307352D01*
X82500500Y-56102648D01*
X82489521Y-56033330D01*
X82468477Y-55900465D01*
X82437458Y-55805000D01*
X82405220Y-55705781D01*
X82405218Y-55705778D01*
X82405218Y-55705776D01*
X82348988Y-55595420D01*
X82312287Y-55523390D01*
X82280092Y-55479077D01*
X82191971Y-55357786D01*
X82047213Y-55213028D01*
X81881613Y-55092715D01*
X81881612Y-55092714D01*
X81881610Y-55092713D01*
X81824653Y-55063691D01*
X81699223Y-54999781D01*
X81504534Y-54936522D01*
X81316690Y-54906771D01*
X81302352Y-54904500D01*
X81097648Y-54904500D01*
X81083310Y-54906771D01*
X80895465Y-54936522D01*
X80700776Y-54999781D01*
X80518386Y-55092715D01*
X80352786Y-55213028D01*
X80208028Y-55357786D01*
X80087715Y-55523386D01*
X79994781Y-55705776D01*
X79931522Y-55900465D01*
X79906297Y-56059735D01*
X79899500Y-56102648D01*
X79499995Y-56102648D01*
X79467990Y-55900582D01*
X79404755Y-55705968D01*
X79311859Y-55523650D01*
X79279474Y-55479077D01*
X79279474Y-55479076D01*
X78600000Y-56158551D01*
X78600000Y-56152339D01*
X78572741Y-56050606D01*
X78520080Y-55959394D01*
X78445606Y-55884920D01*
X78354394Y-55832259D01*
X78252661Y-55805000D01*
X78246446Y-55805000D01*
X78925922Y-55125524D01*
X78924594Y-55108657D01*
X78909813Y-55089489D01*
X78903833Y-55019876D01*
X78936439Y-54958081D01*
X78997277Y-54923723D01*
X79025364Y-54920500D01*
X79858543Y-54920500D01*
X79894350Y-54913377D01*
X79984042Y-54895536D01*
X80051836Y-54882051D01*
X80105165Y-54859961D01*
X80233914Y-54806632D01*
X80397782Y-54697139D01*
X80537139Y-54557782D01*
X80537139Y-54557780D01*
X80547347Y-54547573D01*
X80547348Y-54547570D01*
X81364444Y-53730475D01*
X81425765Y-53696992D01*
X81432684Y-53695692D01*
X81465801Y-53690447D01*
X81648509Y-53631082D01*
X81819681Y-53543865D01*
X81975102Y-53430945D01*
X82110945Y-53295102D01*
X82223865Y-53139681D01*
X82311082Y-52968509D01*
X82370447Y-52785801D01*
X82400500Y-52596055D01*
X82400500Y-52403945D01*
X82370447Y-52214199D01*
X82332701Y-52098028D01*
X82311083Y-52031493D01*
X82287281Y-51984780D01*
X82223865Y-51860319D01*
X82110945Y-51704898D01*
X81975102Y-51569055D01*
X81819681Y-51456135D01*
X81648506Y-51368916D01*
X81465802Y-51309553D01*
X81370928Y-51294526D01*
X81276055Y-51279500D01*
X81083945Y-51279500D01*
X81020696Y-51289517D01*
X80894197Y-51309553D01*
X80711493Y-51368916D01*
X80540318Y-51456135D01*
X80451645Y-51520560D01*
X80384898Y-51569055D01*
X80384896Y-51569057D01*
X80384895Y-51569057D01*
X80249057Y-51704895D01*
X80249057Y-51704896D01*
X80249055Y-51704898D01*
X80217418Y-51748443D01*
X80136135Y-51860318D01*
X80048916Y-52031493D01*
X80027931Y-52096081D01*
X79988494Y-52153756D01*
X79924135Y-52180955D01*
X79855289Y-52169041D01*
X79803813Y-52121797D01*
X79792069Y-52096081D01*
X79771083Y-52031493D01*
X79747281Y-51984780D01*
X79683865Y-51860319D01*
X79570945Y-51704898D01*
X79435102Y-51569055D01*
X79279681Y-51456135D01*
X79108506Y-51368916D01*
X78925802Y-51309553D01*
X78830928Y-51294526D01*
X78736055Y-51279500D01*
X78543945Y-51279500D01*
X78480696Y-51289517D01*
X78354197Y-51309553D01*
X78171493Y-51368916D01*
X78000318Y-51456135D01*
X77911645Y-51520560D01*
X77844898Y-51569055D01*
X77844896Y-51569057D01*
X77844895Y-51569057D01*
X77709057Y-51704895D01*
X77709057Y-51704896D01*
X77709055Y-51704898D01*
X77677418Y-51748443D01*
X77596135Y-51860318D01*
X77508916Y-52031493D01*
X77487931Y-52096081D01*
X77448494Y-52153756D01*
X77384135Y-52180955D01*
X77315289Y-52169041D01*
X77263813Y-52121797D01*
X77252069Y-52096081D01*
X77231083Y-52031493D01*
X77207281Y-51984780D01*
X77143865Y-51860319D01*
X77030945Y-51704898D01*
X76895102Y-51569055D01*
X76739681Y-51456135D01*
X76568506Y-51368916D01*
X76385802Y-51309553D01*
X76290928Y-51294526D01*
X76196055Y-51279500D01*
X76003945Y-51279500D01*
X75940696Y-51289517D01*
X75814197Y-51309553D01*
X75631493Y-51368916D01*
X75460318Y-51456135D01*
X75371645Y-51520560D01*
X75304898Y-51569055D01*
X75304896Y-51569057D01*
X75304895Y-51569057D01*
X75169057Y-51704895D01*
X75169057Y-51704896D01*
X75169055Y-51704898D01*
X75137418Y-51748443D01*
X75056135Y-51860318D01*
X74968916Y-52031493D01*
X74909553Y-52214197D01*
X74879500Y-52403945D01*
X74879500Y-52596054D01*
X74909553Y-52785802D01*
X74968916Y-52968506D01*
X74968918Y-52968509D01*
X75056135Y-53139681D01*
X75169055Y-53295102D01*
X75304898Y-53430945D01*
X75460319Y-53543865D01*
X75550864Y-53590000D01*
X75631493Y-53631083D01*
X75722845Y-53660764D01*
X75814199Y-53690447D01*
X75992893Y-53718749D01*
X76056026Y-53748678D01*
X76092958Y-53807989D01*
X76091960Y-53877852D01*
X76061175Y-53928903D01*
X75111797Y-54878281D01*
X75050474Y-54911766D01*
X75043515Y-54913073D01*
X74895468Y-54936522D01*
X74802124Y-54966851D01*
X74751097Y-54983431D01*
X74712781Y-54989500D01*
X72785762Y-54989500D01*
X72718723Y-54969815D01*
X72712877Y-54965818D01*
X72591613Y-54877715D01*
X72591612Y-54877714D01*
X72591610Y-54877713D01*
X72515567Y-54838967D01*
X72409223Y-54784781D01*
X72214535Y-54721523D01*
X72066483Y-54698073D01*
X72003349Y-54668143D01*
X71998201Y-54663281D01*
X71676819Y-54341899D01*
X71662115Y-54314971D01*
X71645523Y-54289153D01*
X71644631Y-54282952D01*
X71643334Y-54280576D01*
X71640500Y-54254218D01*
X71640500Y-54065761D01*
X71660185Y-53998722D01*
X71664165Y-53992899D01*
X71752287Y-53871610D01*
X71845220Y-53689219D01*
X71908477Y-53494534D01*
X71940500Y-53292352D01*
X71940500Y-53087648D01*
X71921630Y-52968509D01*
X71908477Y-52885465D01*
X71859963Y-52736156D01*
X71845220Y-52690781D01*
X71845218Y-52690778D01*
X71845218Y-52690776D01*
X71804140Y-52610157D01*
X71752287Y-52508390D01*
X71744556Y-52497749D01*
X71631971Y-52342786D01*
X71487213Y-52198028D01*
X71321613Y-52077715D01*
X71321612Y-52077714D01*
X71321610Y-52077713D01*
X71139219Y-51984780D01*
X70944534Y-51921523D01*
X70944531Y-51921522D01*
X70944532Y-51921522D01*
X70796484Y-51898073D01*
X70733350Y-51868143D01*
X70728202Y-51863281D01*
X69077101Y-50212181D01*
X69043616Y-50150858D01*
X69048600Y-50081166D01*
X69090472Y-50025233D01*
X69155936Y-50000816D01*
X69164782Y-50000500D01*
X84875500Y-50000500D01*
X84942539Y-50020185D01*
X84988294Y-50072989D01*
X84999500Y-50124500D01*
X84999500Y-73875500D01*
X84979815Y-73942539D01*
X84927011Y-73988294D01*
X84875500Y-73999500D01*
X75129097Y-73999500D01*
X75062058Y-73979815D01*
X75016303Y-73927011D01*
X75006359Y-73857853D01*
X75035384Y-73794297D01*
X75041416Y-73787819D01*
X75347625Y-73481610D01*
X76275468Y-72553765D01*
X76336789Y-72520282D01*
X76382546Y-72518975D01*
X76387168Y-72519707D01*
X76387174Y-72519709D01*
X76504642Y-72538313D01*
X76581579Y-72550500D01*
X76581583Y-72550500D01*
X76778422Y-72550500D01*
X76972826Y-72519709D01*
X77017846Y-72505081D01*
X77160025Y-72458884D01*
X77335405Y-72369524D01*
X77494646Y-72253828D01*
X77633828Y-72114646D01*
X77749524Y-71955405D01*
X77828961Y-71799500D01*
X77839515Y-71778787D01*
X77887489Y-71727990D01*
X77955310Y-71711195D01*
X78021445Y-71733732D01*
X78060485Y-71778787D01*
X78150474Y-71955403D01*
X78185234Y-72003246D01*
X78266172Y-72114646D01*
X78405354Y-72253828D01*
X78564595Y-72369524D01*
X78624408Y-72400000D01*
X78739970Y-72458882D01*
X78739972Y-72458882D01*
X78739975Y-72458884D01*
X78804717Y-72479920D01*
X78927173Y-72519709D01*
X79121578Y-72550500D01*
X79121583Y-72550500D01*
X79318422Y-72550500D01*
X79512826Y-72519709D01*
X79557846Y-72505081D01*
X79700025Y-72458884D01*
X79875405Y-72369524D01*
X80034646Y-72253828D01*
X80173828Y-72114646D01*
X80285184Y-71961378D01*
X80340512Y-71918714D01*
X80410125Y-71912735D01*
X80471920Y-71945341D01*
X80506277Y-72006179D01*
X80509500Y-72034263D01*
X80509500Y-72097869D01*
X80509501Y-72097876D01*
X80515908Y-72157483D01*
X80566202Y-72292328D01*
X80566206Y-72292335D01*
X80652452Y-72407544D01*
X80652455Y-72407547D01*
X80767664Y-72493793D01*
X80767671Y-72493797D01*
X80902517Y-72544091D01*
X80902516Y-72544091D01*
X80909444Y-72544835D01*
X80962127Y-72550500D01*
X82557872Y-72550499D01*
X82617483Y-72544091D01*
X82752331Y-72493796D01*
X82867546Y-72407546D01*
X82953796Y-72292331D01*
X83004091Y-72157483D01*
X83010500Y-72097873D01*
X83010499Y-70950095D01*
X83030184Y-70883057D01*
X83046813Y-70862420D01*
X83358506Y-70550728D01*
X83358511Y-70550724D01*
X83368714Y-70540520D01*
X83368716Y-70540520D01*
X83480520Y-70428716D01*
X83551319Y-70306088D01*
X83551320Y-70306087D01*
X83554670Y-70300283D01*
X83559577Y-70291785D01*
X83600501Y-70139057D01*
X83600501Y-69980943D01*
X83600501Y-69973348D01*
X83600500Y-69973330D01*
X83600500Y-66920945D01*
X83600500Y-66920943D01*
X83559577Y-66768216D01*
X83537573Y-66730104D01*
X83480524Y-66631290D01*
X83480521Y-66631286D01*
X83480520Y-66631284D01*
X83368716Y-66519480D01*
X83368715Y-66519479D01*
X83364385Y-66515149D01*
X83364374Y-66515139D01*
X82787590Y-65938355D01*
X82787588Y-65938352D01*
X82668717Y-65819481D01*
X82668716Y-65819480D01*
X82581904Y-65769360D01*
X82581904Y-65769359D01*
X82581900Y-65769358D01*
X82531785Y-65740423D01*
X82379057Y-65699499D01*
X82220943Y-65699499D01*
X82213347Y-65699499D01*
X82213331Y-65699500D01*
X81386669Y-65699500D01*
X81386653Y-65699499D01*
X81379057Y-65699499D01*
X81220943Y-65699499D01*
X81113587Y-65728265D01*
X81068210Y-65740424D01*
X81068209Y-65740425D01*
X81018096Y-65769359D01*
X81018095Y-65769360D01*
X80974689Y-65794420D01*
X80931285Y-65819479D01*
X80931282Y-65819481D01*
X80819478Y-65931286D01*
X80170588Y-66580175D01*
X80109265Y-66613660D01*
X80039573Y-66608676D01*
X80010021Y-66592812D01*
X79992092Y-66579786D01*
X79855405Y-66480476D01*
X79804216Y-66454394D01*
X79680029Y-66391117D01*
X79492826Y-66330290D01*
X79298422Y-66299500D01*
X79298417Y-66299500D01*
X79101583Y-66299500D01*
X79101578Y-66299500D01*
X78907173Y-66330290D01*
X78719970Y-66391117D01*
X78544594Y-66480476D01*
X78490293Y-66519929D01*
X78385354Y-66596172D01*
X78385352Y-66596174D01*
X78385351Y-66596174D01*
X78246173Y-66735352D01*
X78134817Y-66888620D01*
X78079486Y-66931285D01*
X78009873Y-66937264D01*
X77948078Y-66904658D01*
X77913721Y-66843819D01*
X77910499Y-66815734D01*
X77910499Y-66752129D01*
X77910498Y-66752123D01*
X77910497Y-66752116D01*
X77904091Y-66692517D01*
X77881253Y-66631286D01*
X77853797Y-66557671D01*
X77853793Y-66557664D01*
X77767547Y-66442455D01*
X77767544Y-66442452D01*
X77652335Y-66356206D01*
X77652328Y-66356202D01*
X77517482Y-66305908D01*
X77517483Y-66305908D01*
X77457883Y-66299501D01*
X77457881Y-66299500D01*
X77457873Y-66299500D01*
X77457864Y-66299500D01*
X75862129Y-66299500D01*
X75862123Y-66299501D01*
X75802516Y-66305908D01*
X75667671Y-66356202D01*
X75667664Y-66356206D01*
X75552455Y-66442452D01*
X75552452Y-66442455D01*
X75466206Y-66557664D01*
X75466202Y-66557671D01*
X75415908Y-66692517D01*
X75411303Y-66735354D01*
X75409501Y-66752123D01*
X75409500Y-66752135D01*
X75409500Y-67909353D01*
X75389815Y-67976392D01*
X75337011Y-68022147D01*
X75267853Y-68032091D01*
X75204297Y-68003066D01*
X75167569Y-67947671D01*
X75159579Y-67923082D01*
X75105220Y-67755781D01*
X75012287Y-67573390D01*
X74993270Y-67547215D01*
X74891971Y-67407786D01*
X74747213Y-67263028D01*
X74581613Y-67142715D01*
X74581612Y-67142714D01*
X74581610Y-67142713D01*
X74524653Y-67113691D01*
X74399223Y-67049781D01*
X74204534Y-66986522D01*
X74029995Y-66958878D01*
X74002352Y-66954500D01*
X73797648Y-66954500D01*
X73773329Y-66958351D01*
X73595465Y-66986522D01*
X73400776Y-67049781D01*
X73218386Y-67142715D01*
X73052786Y-67263028D01*
X72908028Y-67407786D01*
X72787715Y-67573386D01*
X72694781Y-67755776D01*
X72631522Y-67950465D01*
X72604753Y-68119480D01*
X72599500Y-68152648D01*
X72599500Y-68357352D01*
X72615511Y-68458443D01*
X72631523Y-68559535D01*
X72631523Y-68559538D01*
X72689244Y-68737182D01*
X72690047Y-68765301D01*
X72694051Y-68793147D01*
X72691031Y-68799758D01*
X72691239Y-68807023D01*
X72676712Y-68831112D01*
X72665026Y-68856703D01*
X72658912Y-68860632D01*
X72655159Y-68866856D01*
X72629912Y-68879268D01*
X72606248Y-68894477D01*
X72595977Y-68895953D01*
X72592458Y-68897684D01*
X72571313Y-68899500D01*
X72500097Y-68899500D01*
X72433058Y-68879815D01*
X72412416Y-68863181D01*
X71787590Y-68238355D01*
X71787588Y-68238352D01*
X71668717Y-68119481D01*
X71668716Y-68119480D01*
X71581904Y-68069360D01*
X71581904Y-68069359D01*
X71581900Y-68069358D01*
X71531785Y-68040423D01*
X71379057Y-67999499D01*
X71220943Y-67999499D01*
X71213347Y-67999499D01*
X71213331Y-67999500D01*
X64300567Y-67999500D01*
X64233528Y-67979815D01*
X64187773Y-67927011D01*
X64177829Y-67857853D01*
X64206854Y-67794297D01*
X64227682Y-67775181D01*
X64342219Y-67691966D01*
X64486966Y-67547219D01*
X64599858Y-67391834D01*
X64655184Y-67349170D01*
X64724798Y-67343190D01*
X64786593Y-67375795D01*
X64787855Y-67377040D01*
X64792786Y-67381971D01*
X64888601Y-67451583D01*
X64958390Y-67502287D01*
X65046566Y-67547215D01*
X65140776Y-67595218D01*
X65140778Y-67595218D01*
X65140781Y-67595220D01*
X65245137Y-67629127D01*
X65335465Y-67658477D01*
X65436557Y-67674488D01*
X65537648Y-67690500D01*
X65537649Y-67690500D01*
X65742351Y-67690500D01*
X65742352Y-67690500D01*
X65944534Y-67658477D01*
X66139219Y-67595220D01*
X66321610Y-67502287D01*
X66451681Y-67407786D01*
X66487213Y-67381971D01*
X66487215Y-67381968D01*
X66487219Y-67381966D01*
X66631966Y-67237219D01*
X66631968Y-67237215D01*
X66631971Y-67237213D01*
X66684732Y-67164590D01*
X66752287Y-67071610D01*
X66845220Y-66889219D01*
X66908477Y-66694534D01*
X66940500Y-66492352D01*
X66940500Y-66287682D01*
X69340000Y-66287682D01*
X69340000Y-66492317D01*
X69372009Y-66694417D01*
X69435244Y-66889031D01*
X69528141Y-67071350D01*
X69528147Y-67071359D01*
X69560523Y-67115921D01*
X69560524Y-67115922D01*
X70240000Y-66436446D01*
X70240000Y-66442661D01*
X70267259Y-66544394D01*
X70319920Y-66635606D01*
X70394394Y-66710080D01*
X70485606Y-66762741D01*
X70587339Y-66790000D01*
X70593553Y-66790000D01*
X69914076Y-67469474D01*
X69958650Y-67501859D01*
X70140968Y-67594755D01*
X70335582Y-67657990D01*
X70537683Y-67690000D01*
X70742317Y-67690000D01*
X70944417Y-67657990D01*
X71139031Y-67594755D01*
X71321349Y-67501859D01*
X71365921Y-67469474D01*
X70686447Y-66790000D01*
X70692661Y-66790000D01*
X70794394Y-66762741D01*
X70885606Y-66710080D01*
X70960080Y-66635606D01*
X71012741Y-66544394D01*
X71040000Y-66442661D01*
X71040000Y-66436447D01*
X71719474Y-67115921D01*
X71751859Y-67071349D01*
X71844755Y-66889031D01*
X71907990Y-66694417D01*
X71940000Y-66492317D01*
X71940000Y-66287682D01*
X71907990Y-66085582D01*
X71844755Y-65890968D01*
X71751859Y-65708650D01*
X71719474Y-65664077D01*
X71719474Y-65664076D01*
X71040000Y-66343551D01*
X71040000Y-66337339D01*
X71012741Y-66235606D01*
X70960080Y-66144394D01*
X70885606Y-66069920D01*
X70794394Y-66017259D01*
X70692661Y-65990000D01*
X70686446Y-65990000D01*
X71365922Y-65310524D01*
X71365921Y-65310523D01*
X71321359Y-65278147D01*
X71321350Y-65278141D01*
X71139031Y-65185244D01*
X70944417Y-65122009D01*
X70742317Y-65090000D01*
X70537683Y-65090000D01*
X70335582Y-65122009D01*
X70140968Y-65185244D01*
X69958644Y-65278143D01*
X69914077Y-65310523D01*
X69914077Y-65310524D01*
X70593554Y-65990000D01*
X70587339Y-65990000D01*
X70485606Y-66017259D01*
X70394394Y-66069920D01*
X70319920Y-66144394D01*
X70267259Y-66235606D01*
X70240000Y-66337339D01*
X70240000Y-66343553D01*
X69560524Y-65664077D01*
X69560523Y-65664077D01*
X69528143Y-65708644D01*
X69435244Y-65890968D01*
X69372009Y-66085582D01*
X69340000Y-66287682D01*
X66940500Y-66287682D01*
X66940500Y-66287648D01*
X66923326Y-66179220D01*
X66908477Y-66085465D01*
X66877458Y-65990000D01*
X66845220Y-65890781D01*
X66845218Y-65890778D01*
X66845218Y-65890776D01*
X66802168Y-65806287D01*
X66752287Y-65708390D01*
X66720092Y-65664077D01*
X66631971Y-65542786D01*
X66487213Y-65398028D01*
X66321613Y-65277715D01*
X66321612Y-65277714D01*
X66321610Y-65277713D01*
X66264653Y-65248691D01*
X66139223Y-65184781D01*
X65944534Y-65121522D01*
X65769995Y-65093878D01*
X65742352Y-65089500D01*
X65537648Y-65089500D01*
X65513329Y-65093351D01*
X65335465Y-65121522D01*
X65140776Y-65184781D01*
X64958386Y-65277715D01*
X64792786Y-65398028D01*
X64648032Y-65542782D01*
X64648028Y-65542787D01*
X64535142Y-65698162D01*
X64479812Y-65740828D01*
X64410199Y-65746807D01*
X64348404Y-65714201D01*
X64347143Y-65712958D01*
X64342213Y-65708028D01*
X64176613Y-65587715D01*
X64176612Y-65587714D01*
X64176610Y-65587713D01*
X64088436Y-65542786D01*
X63994223Y-65494781D01*
X63799534Y-65431522D01*
X63624995Y-65403878D01*
X63597352Y-65399500D01*
X63392648Y-65399500D01*
X63368329Y-65403351D01*
X63190465Y-65431522D01*
X62995776Y-65494781D01*
X62813386Y-65587715D01*
X62647786Y-65708028D01*
X62503028Y-65852786D01*
X62382713Y-66018388D01*
X62335203Y-66111630D01*
X62287228Y-66162426D01*
X62219407Y-66179220D01*
X62153272Y-66156682D01*
X62114234Y-66111628D01*
X62066861Y-66018652D01*
X62034474Y-65974077D01*
X62034474Y-65974076D01*
X61355000Y-66653551D01*
X61355000Y-66647339D01*
X61327741Y-66545606D01*
X61275080Y-66454394D01*
X61200606Y-66379920D01*
X61109394Y-66327259D01*
X61007661Y-66300000D01*
X61001446Y-66300000D01*
X61680922Y-65620524D01*
X61680921Y-65620523D01*
X61636359Y-65588147D01*
X61636350Y-65588141D01*
X61454031Y-65495244D01*
X61259417Y-65432009D01*
X61057317Y-65400000D01*
X60852683Y-65400000D01*
X60650582Y-65432009D01*
X60455968Y-65495244D01*
X60273644Y-65588143D01*
X60229077Y-65620523D01*
X60229077Y-65620524D01*
X60908554Y-66300000D01*
X60902339Y-66300000D01*
X60800606Y-66327259D01*
X60709394Y-66379920D01*
X60634920Y-66454394D01*
X60582259Y-66545606D01*
X60555000Y-66647339D01*
X60555000Y-66653553D01*
X59875524Y-65974077D01*
X59875523Y-65974077D01*
X59843143Y-66018644D01*
X59750244Y-66200968D01*
X59687009Y-66395582D01*
X59655000Y-66597682D01*
X59655000Y-66802317D01*
X59687009Y-67004417D01*
X59750244Y-67199031D01*
X59843141Y-67381350D01*
X59843147Y-67381359D01*
X59875523Y-67425921D01*
X59875524Y-67425922D01*
X60555000Y-66746446D01*
X60555000Y-66752661D01*
X60582259Y-66854394D01*
X60634920Y-66945606D01*
X60709394Y-67020080D01*
X60800606Y-67072741D01*
X60902339Y-67100000D01*
X60908553Y-67100000D01*
X60229076Y-67779474D01*
X60273650Y-67811859D01*
X60455968Y-67904755D01*
X60650582Y-67967990D01*
X60852683Y-68000000D01*
X61057317Y-68000000D01*
X61259417Y-67967990D01*
X61454031Y-67904755D01*
X61636349Y-67811859D01*
X61680921Y-67779474D01*
X61001447Y-67100000D01*
X61007661Y-67100000D01*
X61109394Y-67072741D01*
X61200606Y-67020080D01*
X61275080Y-66945606D01*
X61327741Y-66854394D01*
X61355000Y-66752661D01*
X61355000Y-66746448D01*
X62034474Y-67425922D01*
X62034474Y-67425921D01*
X62066861Y-67381347D01*
X62066861Y-67381346D01*
X62114234Y-67288371D01*
X62162208Y-67237575D01*
X62230028Y-67220779D01*
X62296164Y-67243316D01*
X62335203Y-67288369D01*
X62382713Y-67381611D01*
X62503028Y-67547213D01*
X62647786Y-67691971D01*
X62768226Y-67779474D01*
X62813390Y-67812287D01*
X62929607Y-67871503D01*
X62995776Y-67905218D01*
X62995778Y-67905218D01*
X62995781Y-67905220D01*
X63062847Y-67927011D01*
X63190465Y-67968477D01*
X63262050Y-67979815D01*
X63392648Y-68000500D01*
X63392649Y-68000500D01*
X63595902Y-68000500D01*
X63617147Y-68006738D01*
X63639236Y-68008318D01*
X63650019Y-68016390D01*
X63662941Y-68020185D01*
X63677440Y-68036918D01*
X63695169Y-68050190D01*
X63699876Y-68062810D01*
X63708696Y-68072989D01*
X63711847Y-68094906D01*
X63719586Y-68115654D01*
X63716723Y-68128814D01*
X63718640Y-68142147D01*
X63709440Y-68162290D01*
X63704734Y-68183927D01*
X63691465Y-68201652D01*
X63689615Y-68205703D01*
X63683583Y-68212181D01*
X63664478Y-68231286D01*
X63489842Y-68405921D01*
X63428519Y-68439406D01*
X63363848Y-68436173D01*
X63349534Y-68431522D01*
X63174995Y-68403878D01*
X63147352Y-68399500D01*
X62942648Y-68399500D01*
X62918329Y-68403351D01*
X62740465Y-68431522D01*
X62545776Y-68494781D01*
X62363386Y-68587715D01*
X62197786Y-68708028D01*
X62053028Y-68852786D01*
X61932715Y-69018386D01*
X61885485Y-69111080D01*
X61837510Y-69161876D01*
X61769689Y-69178671D01*
X61703554Y-69156134D01*
X61664515Y-69111080D01*
X61663883Y-69109840D01*
X61617287Y-69018390D01*
X61609556Y-69007749D01*
X61496971Y-68852786D01*
X61352213Y-68708028D01*
X61186613Y-68587715D01*
X61186612Y-68587714D01*
X61186610Y-68587713D01*
X61097543Y-68542331D01*
X61004223Y-68494781D01*
X60809534Y-68431522D01*
X60634995Y-68403878D01*
X60607352Y-68399500D01*
X60402648Y-68399500D01*
X60378329Y-68403351D01*
X60200465Y-68431522D01*
X60005776Y-68494781D01*
X59823386Y-68587715D01*
X59657786Y-68708028D01*
X59513028Y-68852786D01*
X59392715Y-69018386D01*
X59299781Y-69200776D01*
X59236522Y-69395465D01*
X59204500Y-69597648D01*
X59204500Y-69802351D01*
X59236522Y-70004533D01*
X59240633Y-70017184D01*
X59241435Y-70045306D01*
X59245439Y-70073147D01*
X59242419Y-70079758D01*
X59242627Y-70087025D01*
X59228100Y-70111113D01*
X59216414Y-70136703D01*
X59210298Y-70140633D01*
X59206545Y-70146857D01*
X59181303Y-70159267D01*
X59157636Y-70174477D01*
X59147362Y-70175954D01*
X59143844Y-70177684D01*
X59122701Y-70179500D01*
X58974499Y-70179500D01*
X58907460Y-70159815D01*
X58861705Y-70107011D01*
X58850499Y-70055500D01*
X58850499Y-69882129D01*
X58850498Y-69882123D01*
X58850497Y-69882116D01*
X58844091Y-69822517D01*
X58839894Y-69811265D01*
X58793797Y-69687671D01*
X58793793Y-69687664D01*
X58707547Y-69572455D01*
X58707544Y-69572452D01*
X58592335Y-69486206D01*
X58592328Y-69486202D01*
X58460917Y-69437189D01*
X58404983Y-69395318D01*
X58380566Y-69329853D01*
X58395418Y-69261580D01*
X58416563Y-69233332D01*
X58530104Y-69119792D01*
X58655051Y-68947816D01*
X58751557Y-68758412D01*
X58817246Y-68556243D01*
X58850500Y-68346287D01*
X58850500Y-68133713D01*
X58817246Y-67923757D01*
X58751557Y-67721588D01*
X58655051Y-67532184D01*
X58655049Y-67532181D01*
X58655048Y-67532179D01*
X58530109Y-67360213D01*
X58379786Y-67209890D01*
X58207820Y-67084951D01*
X58207115Y-67084591D01*
X58199054Y-67080485D01*
X58148259Y-67032512D01*
X58131463Y-66964692D01*
X58153999Y-66898556D01*
X58199054Y-66859515D01*
X58207816Y-66855051D01*
X58261932Y-66815734D01*
X58379786Y-66730109D01*
X58379788Y-66730106D01*
X58379792Y-66730104D01*
X58530104Y-66579792D01*
X58573925Y-66519478D01*
X58621210Y-66454394D01*
X58655051Y-66407816D01*
X58751557Y-66218412D01*
X58817246Y-66016243D01*
X58850500Y-65806287D01*
X58850500Y-65593713D01*
X58817246Y-65383757D01*
X58751557Y-65181588D01*
X58655051Y-64992184D01*
X58655049Y-64992181D01*
X58655048Y-64992179D01*
X58530109Y-64820213D01*
X58379786Y-64669890D01*
X58207817Y-64544949D01*
X58198504Y-64540204D01*
X58147707Y-64492230D01*
X58130912Y-64424409D01*
X58153449Y-64358274D01*
X58198507Y-64319232D01*
X58207555Y-64314622D01*
X58261716Y-64275270D01*
X58261717Y-64275270D01*
X57629408Y-63642962D01*
X57692993Y-63625925D01*
X57807007Y-63560099D01*
X57900099Y-63467007D01*
X57965925Y-63352993D01*
X57982962Y-63289409D01*
X58615270Y-63921717D01*
X58615270Y-63921716D01*
X58654622Y-63867554D01*
X58751095Y-63678217D01*
X58816754Y-63476140D01*
X58816759Y-63476117D01*
X58850000Y-63266246D01*
X58850000Y-63053753D01*
X58816757Y-62843872D01*
X58816757Y-62843869D01*
X58751095Y-62641782D01*
X58654624Y-62452449D01*
X58615270Y-62398282D01*
X58615269Y-62398282D01*
X57982962Y-63030590D01*
X57965925Y-62967007D01*
X57900099Y-62852993D01*
X57807007Y-62759901D01*
X57692993Y-62694075D01*
X57629409Y-62677037D01*
X58261716Y-62044728D01*
X58207550Y-62005375D01*
X58018217Y-61908904D01*
X57816129Y-61843242D01*
X57606246Y-61810000D01*
X57393754Y-61810000D01*
X57183872Y-61843242D01*
X57183869Y-61843242D01*
X56981782Y-61908904D01*
X56792439Y-62005380D01*
X56738282Y-62044727D01*
X56738282Y-62044728D01*
X57370591Y-62677037D01*
X57307007Y-62694075D01*
X57192993Y-62759901D01*
X57099901Y-62852993D01*
X57034075Y-62967007D01*
X57017037Y-63030591D01*
X56384728Y-62398282D01*
X56384727Y-62398282D01*
X56345380Y-62452439D01*
X56248904Y-62641782D01*
X56183242Y-62843869D01*
X56183242Y-62843872D01*
X56150000Y-63053753D01*
X56150000Y-63266246D01*
X56183242Y-63476127D01*
X56183242Y-63476130D01*
X56248904Y-63678217D01*
X56345375Y-63867550D01*
X56384728Y-63921716D01*
X57017037Y-63289408D01*
X57034075Y-63352993D01*
X57099901Y-63467007D01*
X57192993Y-63560099D01*
X57307007Y-63625925D01*
X57370590Y-63642962D01*
X56738282Y-64275269D01*
X56738282Y-64275270D01*
X56792452Y-64314626D01*
X56792451Y-64314626D01*
X56801495Y-64319234D01*
X56852292Y-64367208D01*
X56869087Y-64435029D01*
X56846550Y-64501164D01*
X56801499Y-64540202D01*
X56792182Y-64544949D01*
X56620213Y-64669890D01*
X56469890Y-64820213D01*
X56344951Y-64992179D01*
X56248444Y-65181585D01*
X56182753Y-65383760D01*
X56165169Y-65494781D01*
X56149500Y-65593713D01*
X56149500Y-65806287D01*
X56151590Y-65819480D01*
X56176075Y-65974077D01*
X56182754Y-66016243D01*
X56242714Y-66200781D01*
X56248444Y-66218414D01*
X56344951Y-66407820D01*
X56469890Y-66579786D01*
X56620213Y-66730109D01*
X56792182Y-66855050D01*
X56800946Y-66859516D01*
X56851742Y-66907491D01*
X56868536Y-66975312D01*
X56845998Y-67041447D01*
X56800946Y-67080484D01*
X56792182Y-67084949D01*
X56620213Y-67209890D01*
X56469890Y-67360213D01*
X56344951Y-67532179D01*
X56248444Y-67721585D01*
X56248443Y-67721587D01*
X56248443Y-67721588D01*
X56229635Y-67779474D01*
X56182753Y-67923760D01*
X56159118Y-68072989D01*
X56149500Y-68133713D01*
X56149500Y-68346287D01*
X56151253Y-68357352D01*
X56180550Y-68542331D01*
X56182754Y-68556243D01*
X56248261Y-68757853D01*
X56248444Y-68758414D01*
X56344951Y-68947820D01*
X56469890Y-69119786D01*
X56583430Y-69233326D01*
X56616915Y-69294649D01*
X56611931Y-69364341D01*
X56570059Y-69420274D01*
X56539083Y-69437189D01*
X56407669Y-69486203D01*
X56407664Y-69486206D01*
X56292455Y-69572452D01*
X56292452Y-69572455D01*
X56206206Y-69687664D01*
X56206202Y-69687671D01*
X56155908Y-69822517D01*
X56150942Y-69868713D01*
X56149501Y-69882123D01*
X56149500Y-69882135D01*
X56149500Y-71677870D01*
X56149501Y-71677876D01*
X56155908Y-71737483D01*
X56206202Y-71872328D01*
X56206206Y-71872335D01*
X56292452Y-71987544D01*
X56292455Y-71987547D01*
X56407664Y-72073793D01*
X56407671Y-72073797D01*
X56542517Y-72124091D01*
X56542516Y-72124091D01*
X56549444Y-72124835D01*
X56602127Y-72130500D01*
X58397872Y-72130499D01*
X58457483Y-72124091D01*
X58592331Y-72073796D01*
X58707546Y-71987546D01*
X58793796Y-71872331D01*
X58844091Y-71737483D01*
X58850500Y-71677873D01*
X58850500Y-71504500D01*
X58870185Y-71437461D01*
X58922989Y-71391706D01*
X58974500Y-71380500D01*
X59338331Y-71380500D01*
X59338347Y-71380501D01*
X59345943Y-71380501D01*
X59504054Y-71380501D01*
X59504057Y-71380501D01*
X59656785Y-71339577D01*
X59735347Y-71294219D01*
X59793716Y-71260520D01*
X59905520Y-71148716D01*
X59905520Y-71148714D01*
X59915723Y-71138512D01*
X59915727Y-71138506D01*
X60060158Y-70994075D01*
X60121479Y-70960592D01*
X60186151Y-70963825D01*
X60200466Y-70968477D01*
X60402648Y-71000500D01*
X60402649Y-71000500D01*
X60607351Y-71000500D01*
X60607352Y-71000500D01*
X60809534Y-70968477D01*
X61004219Y-70905220D01*
X61186610Y-70812287D01*
X61279590Y-70744732D01*
X61352213Y-70691971D01*
X61352215Y-70691968D01*
X61352219Y-70691966D01*
X61496966Y-70547219D01*
X61496968Y-70547215D01*
X61496971Y-70547213D01*
X61617284Y-70381614D01*
X61617285Y-70381613D01*
X61617287Y-70381610D01*
X61664516Y-70288917D01*
X61712489Y-70238123D01*
X61780310Y-70221328D01*
X61846445Y-70243865D01*
X61885483Y-70288917D01*
X61929348Y-70375006D01*
X61932715Y-70381614D01*
X62053028Y-70547213D01*
X62197786Y-70691971D01*
X62352749Y-70804556D01*
X62363390Y-70812287D01*
X62479607Y-70871503D01*
X62545776Y-70905218D01*
X62545778Y-70905218D01*
X62545781Y-70905220D01*
X62650137Y-70939127D01*
X62740465Y-70968477D01*
X62841557Y-70984488D01*
X62942648Y-71000500D01*
X62942649Y-71000500D01*
X63147351Y-71000500D01*
X63147352Y-71000500D01*
X63349534Y-70968477D01*
X63544219Y-70905220D01*
X63726610Y-70812287D01*
X63819590Y-70744732D01*
X63892213Y-70691971D01*
X63892215Y-70691968D01*
X63892219Y-70691966D01*
X64036966Y-70547219D01*
X64036968Y-70547215D01*
X64036971Y-70547213D01*
X64123062Y-70428717D01*
X64157287Y-70381610D01*
X64250220Y-70199219D01*
X64313477Y-70004534D01*
X64345500Y-69802352D01*
X64345500Y-69597648D01*
X64313477Y-69395466D01*
X64308827Y-69381157D01*
X64308392Y-69365943D01*
X64303074Y-69351682D01*
X64307414Y-69331729D01*
X64306831Y-69311318D01*
X64314920Y-69297229D01*
X64317927Y-69283409D01*
X64339079Y-69255155D01*
X64357419Y-69236816D01*
X64418743Y-69203333D01*
X64445098Y-69200500D01*
X65629199Y-69200500D01*
X65696238Y-69220185D01*
X65741993Y-69272989D01*
X65751937Y-69342147D01*
X65747130Y-69362817D01*
X65736524Y-69395457D01*
X65736523Y-69395464D01*
X65704500Y-69597648D01*
X65704500Y-69802351D01*
X65736522Y-70004534D01*
X65799781Y-70199223D01*
X65855038Y-70307669D01*
X65874657Y-70346174D01*
X65892715Y-70381613D01*
X66013028Y-70547213D01*
X66157786Y-70691971D01*
X66312749Y-70804556D01*
X66323390Y-70812287D01*
X66439607Y-70871503D01*
X66505776Y-70905218D01*
X66505778Y-70905218D01*
X66505781Y-70905220D01*
X66610137Y-70939127D01*
X66700465Y-70968477D01*
X66801557Y-70984488D01*
X66902648Y-71000500D01*
X66902649Y-71000500D01*
X67107351Y-71000500D01*
X67107352Y-71000500D01*
X67309534Y-70968477D01*
X67323842Y-70963827D01*
X67393682Y-70961831D01*
X67449842Y-70994077D01*
X68417346Y-71961581D01*
X68450831Y-72022904D01*
X68445847Y-72092596D01*
X68439770Y-72106296D01*
X68435473Y-72114590D01*
X68432713Y-72118390D01*
X68385082Y-72211869D01*
X68384824Y-72212369D01*
X68360933Y-72237327D01*
X68337228Y-72262427D01*
X68336808Y-72262530D01*
X68336510Y-72262843D01*
X68302901Y-72270926D01*
X68269407Y-72279221D01*
X68268998Y-72279081D01*
X68268578Y-72279183D01*
X68235971Y-72267826D01*
X68203272Y-72256683D01*
X68202967Y-72256331D01*
X68202595Y-72256202D01*
X68200145Y-72253074D01*
X68164234Y-72211629D01*
X68116861Y-72118652D01*
X68084474Y-72074077D01*
X68084474Y-72074076D01*
X67405000Y-72753551D01*
X67405000Y-72747339D01*
X67377741Y-72645606D01*
X67325080Y-72554394D01*
X67250606Y-72479920D01*
X67159394Y-72427259D01*
X67057661Y-72400000D01*
X67051446Y-72400000D01*
X67730922Y-71720524D01*
X67730921Y-71720523D01*
X67686359Y-71688147D01*
X67686350Y-71688141D01*
X67504031Y-71595244D01*
X67309417Y-71532009D01*
X67107317Y-71500000D01*
X66902683Y-71500000D01*
X66700582Y-71532009D01*
X66505968Y-71595244D01*
X66323644Y-71688143D01*
X66279077Y-71720523D01*
X66279077Y-71720524D01*
X66958554Y-72400000D01*
X66952339Y-72400000D01*
X66850606Y-72427259D01*
X66759394Y-72479920D01*
X66684920Y-72554394D01*
X66632259Y-72645606D01*
X66605000Y-72747339D01*
X66605000Y-72753553D01*
X65925524Y-72074077D01*
X65925523Y-72074077D01*
X65893143Y-72118644D01*
X65800244Y-72300968D01*
X65737009Y-72495582D01*
X65705000Y-72697682D01*
X65705000Y-72902317D01*
X65737010Y-73104418D01*
X65737011Y-73104425D01*
X65747655Y-73137183D01*
X65749650Y-73207024D01*
X65713569Y-73266857D01*
X65650868Y-73297684D01*
X65629724Y-73299500D01*
X64445097Y-73299500D01*
X64415656Y-73290855D01*
X64385670Y-73284332D01*
X64380654Y-73280577D01*
X64378058Y-73279815D01*
X64357416Y-73263181D01*
X64339077Y-73244842D01*
X64305592Y-73183519D01*
X64308828Y-73118841D01*
X64313477Y-73104534D01*
X64345500Y-72902352D01*
X64345500Y-72697648D01*
X64337257Y-72645606D01*
X64313477Y-72495465D01*
X64284127Y-72405137D01*
X64250220Y-72300781D01*
X64250218Y-72300778D01*
X64250218Y-72300776D01*
X64204515Y-72211080D01*
X64157287Y-72118390D01*
X64125092Y-72074077D01*
X64036971Y-71952786D01*
X63892213Y-71808028D01*
X63726613Y-71687715D01*
X63726612Y-71687714D01*
X63726610Y-71687713D01*
X63669653Y-71658691D01*
X63544223Y-71594781D01*
X63349534Y-71531522D01*
X63174995Y-71503878D01*
X63147352Y-71499500D01*
X62942648Y-71499500D01*
X62918329Y-71503351D01*
X62740465Y-71531522D01*
X62545776Y-71594781D01*
X62363386Y-71687715D01*
X62197786Y-71808028D01*
X62053028Y-71952786D01*
X61932715Y-72118386D01*
X61885485Y-72211080D01*
X61837510Y-72261876D01*
X61769689Y-72278671D01*
X61703554Y-72256134D01*
X61664515Y-72211080D01*
X61663883Y-72209840D01*
X61617287Y-72118390D01*
X61585092Y-72074077D01*
X61496971Y-71952786D01*
X61352213Y-71808028D01*
X61186613Y-71687715D01*
X61186612Y-71687714D01*
X61186610Y-71687713D01*
X61129653Y-71658691D01*
X61004223Y-71594781D01*
X60809534Y-71531522D01*
X60634995Y-71503878D01*
X60607352Y-71499500D01*
X60402648Y-71499500D01*
X60378329Y-71503351D01*
X60200465Y-71531522D01*
X60005776Y-71594781D01*
X59823386Y-71687715D01*
X59657786Y-71808028D01*
X59513028Y-71952786D01*
X59392715Y-72118386D01*
X59299781Y-72300776D01*
X59236522Y-72495465D01*
X59204500Y-72697648D01*
X59204500Y-72902352D01*
X59207704Y-72922580D01*
X59236522Y-73104534D01*
X59299781Y-73299223D01*
X59392715Y-73481613D01*
X59513028Y-73647213D01*
X59653634Y-73787819D01*
X59687119Y-73849142D01*
X59682135Y-73918834D01*
X59640263Y-73974767D01*
X59574799Y-73999184D01*
X59565953Y-73999500D01*
X55124500Y-73999500D01*
X55057461Y-73979815D01*
X55011706Y-73927011D01*
X55000500Y-73875500D01*
X55000500Y-50124500D01*
X55020185Y-50057461D01*
X55072989Y-50011706D01*
X55124500Y-50000500D01*
X60218897Y-50000500D01*
X60285936Y-50020185D01*
G37*
%TD.AperFunction*%
%TA.AperFunction,Conductor*%
G36*
X67385572Y-51920185D02*
G01*
X67406214Y-51936819D01*
X68863181Y-53393786D01*
X68896666Y-53455109D01*
X68899500Y-53481467D01*
X68899500Y-56033330D01*
X68899499Y-56033348D01*
X68899499Y-56199054D01*
X68899498Y-56199054D01*
X68940422Y-56351782D01*
X68940424Y-56351787D01*
X68944426Y-56358718D01*
X68944427Y-56358720D01*
X69019477Y-56488712D01*
X69019481Y-56488717D01*
X69138349Y-56607585D01*
X69138355Y-56607590D01*
X70615921Y-58085157D01*
X70649406Y-58146480D01*
X70646173Y-58211149D01*
X70641523Y-58225460D01*
X70641523Y-58225462D01*
X70609500Y-58427648D01*
X70609500Y-58632351D01*
X70641522Y-58834534D01*
X70704781Y-59029223D01*
X70797715Y-59211613D01*
X70918028Y-59377213D01*
X71062786Y-59521971D01*
X71217749Y-59634556D01*
X71228390Y-59642287D01*
X71319840Y-59688883D01*
X71321080Y-59689515D01*
X71371876Y-59737490D01*
X71388671Y-59805311D01*
X71366134Y-59871446D01*
X71321079Y-59910485D01*
X71228210Y-59957803D01*
X71159540Y-59970699D01*
X71094800Y-59944422D01*
X71084235Y-59934999D01*
X68466097Y-57316861D01*
X65825411Y-54676176D01*
X65791927Y-54614854D01*
X65796911Y-54545162D01*
X65838783Y-54489229D01*
X65893697Y-54466022D01*
X65944422Y-54457988D01*
X66139031Y-54394755D01*
X66321349Y-54301859D01*
X66365921Y-54269474D01*
X65686446Y-53590000D01*
X65692661Y-53590000D01*
X65794394Y-53562741D01*
X65885606Y-53510080D01*
X65960080Y-53435606D01*
X66012741Y-53344394D01*
X66040000Y-53242661D01*
X66040000Y-53236447D01*
X66719474Y-53915921D01*
X66751859Y-53871349D01*
X66844755Y-53689031D01*
X66907990Y-53494417D01*
X66940000Y-53292317D01*
X66940000Y-53087682D01*
X66907990Y-52885582D01*
X66844755Y-52690968D01*
X66751859Y-52508650D01*
X66719474Y-52464077D01*
X66719474Y-52464076D01*
X66040000Y-53143551D01*
X66040000Y-53137339D01*
X66012741Y-53035606D01*
X65960080Y-52944394D01*
X65885606Y-52869920D01*
X65794394Y-52817259D01*
X65692661Y-52790000D01*
X65686446Y-52790000D01*
X66365922Y-52110524D01*
X66364938Y-52098028D01*
X66342931Y-52069489D01*
X66336952Y-51999876D01*
X66369557Y-51938081D01*
X66430395Y-51903723D01*
X66458482Y-51900500D01*
X67318533Y-51900500D01*
X67385572Y-51920185D01*
G37*
%TD.AperFunction*%
%TA.AperFunction,Conductor*%
G36*
X64888556Y-51920185D02*
G01*
X64934311Y-51972989D01*
X64944255Y-52042147D01*
X64915230Y-52105703D01*
X64914396Y-52106467D01*
X64914077Y-52110524D01*
X65593554Y-52790000D01*
X65587339Y-52790000D01*
X65485606Y-52817259D01*
X65394394Y-52869920D01*
X65319920Y-52944394D01*
X65267259Y-53035606D01*
X65240000Y-53137339D01*
X65240000Y-53143553D01*
X64560524Y-52464077D01*
X64560523Y-52464077D01*
X64528143Y-52508644D01*
X64435244Y-52690968D01*
X64372009Y-52885582D01*
X64340000Y-53087682D01*
X64340000Y-53292317D01*
X64372009Y-53494417D01*
X64435244Y-53689031D01*
X64528140Y-53871349D01*
X64619878Y-53997615D01*
X64643358Y-54063422D01*
X64627533Y-54131476D01*
X64577427Y-54180171D01*
X64519560Y-54194501D01*
X63325939Y-54194501D01*
X63285018Y-54205465D01*
X63285018Y-54205466D01*
X63251247Y-54214515D01*
X63173213Y-54235424D01*
X63173208Y-54235427D01*
X63036289Y-54314476D01*
X63036281Y-54314482D01*
X62963253Y-54387511D01*
X62924479Y-54426285D01*
X62924477Y-54426287D01*
X62652692Y-54698073D01*
X62392584Y-54958181D01*
X62365656Y-54972884D01*
X62339838Y-54989477D01*
X62333637Y-54990368D01*
X62331261Y-54991666D01*
X62304903Y-54994500D01*
X62229602Y-54994500D01*
X62162563Y-54974815D01*
X62119117Y-54926795D01*
X62117552Y-54923723D01*
X62112287Y-54913390D01*
X62112285Y-54913387D01*
X62112284Y-54913385D01*
X61991971Y-54747786D01*
X61847213Y-54603028D01*
X61681614Y-54482715D01*
X61648852Y-54466022D01*
X61588917Y-54435483D01*
X61538123Y-54387511D01*
X61521328Y-54319690D01*
X61543865Y-54253555D01*
X61588917Y-54214516D01*
X61681610Y-54167287D01*
X61821350Y-54065761D01*
X61847213Y-54046971D01*
X61847215Y-54046968D01*
X61847219Y-54046966D01*
X61991966Y-53902219D01*
X61991968Y-53902215D01*
X61991971Y-53902213D01*
X62044732Y-53829590D01*
X62112287Y-53736610D01*
X62205220Y-53554219D01*
X62268477Y-53359534D01*
X62300500Y-53157352D01*
X62300500Y-52952648D01*
X62268477Y-52750466D01*
X62263826Y-52736154D01*
X62261832Y-52666315D01*
X62294075Y-52610159D01*
X62967417Y-51936819D01*
X63028740Y-51903334D01*
X63055098Y-51900500D01*
X64821517Y-51900500D01*
X64888556Y-51920185D01*
G37*
%TD.AperFunction*%
%TD*%
M02*
